G04*
G04 #@! TF.GenerationSoftware,Altium Limited,Altium Designer,20.0.11 (256)*
G04*
G04 Layer_Physical_Order=2*
G04 Layer_Color=32768*
%FSLAX25Y25*%
%MOIN*%
G70*
G01*
G75*
%ADD93C,0.04000*%
%ADD94C,0.05543*%
%ADD95C,0.04559*%
%ADD96O,0.04362X0.06724*%
%ADD97O,0.04362X0.06724*%
%ADD98O,0.04362X0.08693*%
%ADD99O,0.04362X0.08693*%
%ADD100C,0.03181*%
G36*
X11196Y9000D02*
Y1969D01*
X1969D01*
Y22800D01*
X11196D01*
Y9000D01*
D02*
G37*
%LPC*%
G36*
X9172Y12506D02*
X8565D01*
Y9982D01*
X8439Y10071D01*
X8387Y10115D01*
X8335Y10153D01*
X8291Y10189D01*
X8261Y10219D01*
X8239Y10241D01*
X8232Y10249D01*
X8195Y10286D01*
X8158Y10330D01*
X8061Y10434D01*
X7950Y10552D01*
X7840Y10678D01*
X7743Y10796D01*
X7699Y10848D01*
X7655Y10892D01*
X7625Y10930D01*
X7603Y10959D01*
X7588Y10974D01*
X7581Y10981D01*
X7477Y11100D01*
X7381Y11218D01*
X7284Y11322D01*
X7203Y11418D01*
X7122Y11507D01*
X7048Y11581D01*
X6981Y11655D01*
X6922Y11714D01*
X6863Y11773D01*
X6818Y11817D01*
X6781Y11855D01*
X6744Y11891D01*
X6700Y11929D01*
X6685Y11943D01*
X6559Y12047D01*
X6448Y12136D01*
X6337Y12210D01*
X6248Y12269D01*
X6167Y12313D01*
X6108Y12343D01*
X6071Y12358D01*
X6056Y12365D01*
X5945Y12410D01*
X5834Y12439D01*
X5731Y12469D01*
X5642Y12483D01*
X5560Y12491D01*
X5501Y12498D01*
X5464D01*
X5449D01*
X5338Y12491D01*
X5235Y12476D01*
X5131Y12461D01*
X5042Y12432D01*
X4865Y12358D01*
X4724Y12284D01*
X4657Y12239D01*
X4606Y12202D01*
X4554Y12165D01*
X4517Y12128D01*
X4487Y12099D01*
X4458Y12084D01*
X4450Y12069D01*
X4443Y12062D01*
X4369Y11980D01*
X4302Y11891D01*
X4250Y11795D01*
X4206Y11699D01*
X4132Y11507D01*
X4080Y11314D01*
X4065Y11233D01*
X4051Y11152D01*
X4043Y11078D01*
X4036Y11018D01*
X4028Y10966D01*
Y10892D01*
X4036Y10759D01*
X4043Y10633D01*
X4065Y10515D01*
X4088Y10404D01*
X4117Y10300D01*
X4147Y10204D01*
X4184Y10115D01*
X4221Y10034D01*
X4258Y9960D01*
X4295Y9901D01*
X4324Y9849D01*
X4354Y9805D01*
X4376Y9768D01*
X4399Y9746D01*
X4406Y9731D01*
X4413Y9723D01*
X4487Y9649D01*
X4569Y9583D01*
X4657Y9516D01*
X4746Y9464D01*
X4924Y9375D01*
X5102Y9316D01*
X5183Y9294D01*
X5264Y9272D01*
X5331Y9257D01*
X5390Y9242D01*
X5442Y9235D01*
X5479D01*
X5501Y9228D01*
X5508D01*
X5575Y9871D01*
X5405Y9886D01*
X5257Y9916D01*
X5124Y9960D01*
X5020Y10012D01*
X4931Y10056D01*
X4872Y10101D01*
X4835Y10130D01*
X4820Y10145D01*
X4732Y10256D01*
X4665Y10374D01*
X4613Y10500D01*
X4583Y10611D01*
X4561Y10715D01*
X4554Y10804D01*
X4546Y10833D01*
Y10878D01*
X4554Y11033D01*
X4583Y11174D01*
X4628Y11292D01*
X4672Y11396D01*
X4724Y11477D01*
X4761Y11529D01*
X4791Y11566D01*
X4806Y11581D01*
X4909Y11670D01*
X5013Y11736D01*
X5116Y11788D01*
X5220Y11817D01*
X5301Y11840D01*
X5375Y11847D01*
X5420Y11855D01*
X5427D01*
X5435D01*
X5568Y11840D01*
X5708Y11810D01*
X5834Y11758D01*
X5953Y11706D01*
X6049Y11647D01*
X6130Y11596D01*
X6160Y11581D01*
X6182Y11566D01*
X6189Y11551D01*
X6197D01*
X6278Y11492D01*
X6359Y11418D01*
X6448Y11337D01*
X6537Y11248D01*
X6715Y11063D01*
X6892Y10878D01*
X6974Y10781D01*
X7048Y10700D01*
X7114Y10619D01*
X7174Y10552D01*
X7218Y10500D01*
X7255Y10456D01*
X7277Y10426D01*
X7284Y10419D01*
X7440Y10234D01*
X7588Y10064D01*
X7721Y9923D01*
X7832Y9812D01*
X7928Y9716D01*
X7995Y9649D01*
X8039Y9612D01*
X8047Y9597D01*
X8054D01*
X8180Y9494D01*
X8298Y9413D01*
X8417Y9339D01*
X8520Y9279D01*
X8609Y9235D01*
X8676Y9205D01*
X8720Y9190D01*
X8727Y9183D01*
X8735D01*
X8816Y9154D01*
X8890Y9139D01*
X8964Y9124D01*
X9031Y9116D01*
X9090Y9109D01*
X4028D01*
D01*
X9172D01*
Y12506D01*
D02*
G37*
%LPD*%
D93*
X0Y0D02*
Y190945D01*
X125984D01*
Y0D02*
Y190945D01*
X0Y0D02*
X125984D01*
D94*
X5906Y165905D02*
D03*
Y155905D02*
D03*
Y145905D02*
D03*
Y135906D02*
D03*
Y125906D02*
D03*
Y115905D02*
D03*
Y105905D02*
D03*
Y85905D02*
D03*
Y75906D02*
D03*
X120079Y165905D02*
D03*
Y5906D02*
D03*
Y15905D02*
D03*
Y25905D02*
D03*
Y35906D02*
D03*
Y45906D02*
D03*
Y55905D02*
D03*
Y65905D02*
D03*
Y75906D02*
D03*
Y85905D02*
D03*
Y95906D02*
D03*
Y105905D02*
D03*
Y115905D02*
D03*
Y125906D02*
D03*
Y135906D02*
D03*
Y145905D02*
D03*
Y155905D02*
D03*
X107992Y176102D02*
D03*
X97992Y186102D02*
D03*
Y176102D02*
D03*
X87992D02*
D03*
X77992Y186102D02*
D03*
Y176102D02*
D03*
X67992D02*
D03*
X57992Y186102D02*
D03*
Y176102D02*
D03*
X47992D02*
D03*
X37992Y186102D02*
D03*
Y176102D02*
D03*
X27992D02*
D03*
X17992Y186102D02*
D03*
Y176102D02*
D03*
D95*
X22087Y25827D02*
D03*
X44842D02*
D03*
D96*
X50472Y11457D02*
D03*
D97*
X16457D02*
D03*
D98*
X50472Y27913D02*
D03*
D99*
X16457D02*
D03*
D100*
X99600Y64560D02*
D03*
X75000Y169200D02*
D03*
X8400Y62400D02*
D03*
X85200Y78000D02*
D03*
X66600Y48000D02*
D03*
X91200D02*
D03*
X96457Y104331D02*
D03*
X90000Y93000D02*
D03*
X70866Y66929D02*
D03*
X39600Y63000D02*
D03*
X48600Y54000D02*
D03*
X82200Y108000D02*
D03*
X79800Y132874D02*
D03*
X63989Y143400D02*
D03*
X74803Y66929D02*
D03*
X80709Y64961D02*
D03*
X82677Y66929D02*
D03*
Y29528D02*
D03*
X74803D02*
D03*
X78740D02*
D03*
X55118Y21654D02*
D03*
Y17717D02*
D03*
X90600Y111000D02*
D03*
X36417Y36000D02*
D03*
X31800Y40617D02*
D03*
X46200Y138600D02*
D03*
X54600Y97800D02*
D03*
X87000Y160200D02*
D03*
X64200Y153600D02*
D03*
X30000Y117126D02*
D03*
X28484Y110400D02*
D03*
X46200Y112200D02*
D03*
X17400Y109800D02*
D03*
X15600Y123129D02*
D03*
X72063Y143400D02*
D03*
X67913Y108600D02*
D03*
X75787D02*
D03*
X54134D02*
D03*
X96000Y124950D02*
D03*
X30000Y124016D02*
D03*
X69882Y93012D02*
D03*
X23819Y36600D02*
D03*
X34200Y132887D02*
D03*
X28800Y128400D02*
D03*
X38752Y157200D02*
D03*
X27000D02*
D03*
X31200Y130800D02*
D03*
X34200Y128924D02*
D03*
X93601Y143400D02*
D03*
X58071D02*
D03*
X81000Y148800D02*
D03*
X79800Y153000D02*
D03*
X73800D02*
D03*
X47400Y155400D02*
D03*
X52153Y157200D02*
D03*
X56400Y153000D02*
D03*
X52200Y95400D02*
D03*
X43800D02*
D03*
X43110Y36600D02*
D03*
X40354Y108000D02*
D03*
X33000Y113400D02*
D03*
M02*
