G04*
G04 #@! TF.GenerationSoftware,Altium Limited,Altium Designer,20.0.11 (256)*
G04*
G04 Layer_Physical_Order=1*
G04 Layer_Color=255*
%FSLAX25Y25*%
%MOIN*%
G70*
G01*
G75*
%ADD10C,0.00600*%
%ADD12C,0.00800*%
%ADD58C,0.02559*%
%ADD62R,0.05906X0.03937*%
%ADD63R,0.01417X0.00984*%
%ADD64C,0.03937*%
%ADD65R,0.03200X0.03000*%
%ADD66R,0.03500X0.03400*%
%ADD67R,0.03000X0.03200*%
%ADD68R,0.03400X0.03500*%
%ADD69R,0.02581X0.03150*%
%ADD70R,0.04134X0.02559*%
%ADD71R,0.03150X0.03150*%
%ADD72R,0.01575X0.01968*%
%ADD73R,0.10630X0.10630*%
%ADD74R,0.03347X0.01102*%
%ADD75R,0.01102X0.03347*%
%ADD76R,0.02362X0.05906*%
%ADD77R,0.20472X0.20472*%
G04:AMPARAMS|DCode=78|XSize=11.81mil|YSize=59.06mil|CornerRadius=0.3mil|HoleSize=0mil|Usage=FLASHONLY|Rotation=0.000|XOffset=0mil|YOffset=0mil|HoleType=Round|Shape=RoundedRectangle|*
%AMROUNDEDRECTD78*
21,1,0.01181,0.05847,0,0,0.0*
21,1,0.01122,0.05906,0,0,0.0*
1,1,0.00059,0.00561,-0.02923*
1,1,0.00059,-0.00561,-0.02923*
1,1,0.00059,-0.00561,0.02923*
1,1,0.00059,0.00561,0.02923*
%
%ADD78ROUNDEDRECTD78*%
G04:AMPARAMS|DCode=79|XSize=11.81mil|YSize=59.06mil|CornerRadius=0.3mil|HoleSize=0mil|Usage=FLASHONLY|Rotation=90.000|XOffset=0mil|YOffset=0mil|HoleType=Round|Shape=RoundedRectangle|*
%AMROUNDEDRECTD79*
21,1,0.01181,0.05847,0,0,90.0*
21,1,0.01122,0.05906,0,0,90.0*
1,1,0.00059,0.02923,0.00561*
1,1,0.00059,0.02923,-0.00561*
1,1,0.00059,-0.02923,-0.00561*
1,1,0.00059,-0.02923,0.00561*
%
%ADD79ROUNDEDRECTD79*%
%ADD80R,0.05512X0.04724*%
%ADD81R,0.02362X0.05709*%
%ADD82R,0.01181X0.05709*%
%ADD83C,0.01000*%
%ADD84C,0.00810*%
%ADD85C,0.02000*%
%ADD86C,0.01100*%
%ADD87C,0.05906*%
%ADD88R,0.05906X0.05906*%
%ADD89O,0.03937X0.06299*%
%ADD90O,0.03937X0.08268*%
%ADD91R,0.05906X0.05906*%
%ADD92C,0.02362*%
G36*
X34071Y188893D02*
X34386Y188463D01*
X34633Y187776D01*
X34588Y187690D01*
X34462Y187387D01*
X34364Y187075D01*
X34293Y186755D01*
X34250Y186430D01*
X34236Y186102D01*
X34250Y185775D01*
X34293Y185450D01*
X34364Y185130D01*
X34462Y184818D01*
X34588Y184515D01*
X34675Y184346D01*
X31620Y181290D01*
X31507Y181159D01*
X31417Y181011D01*
X31351Y180851D01*
X31310Y180683D01*
X31297Y180510D01*
Y179792D01*
X31023Y179543D01*
X30362Y179268D01*
X30097Y179211D01*
X29870Y179355D01*
X29580Y179507D01*
X29277Y179632D01*
X28964Y179731D01*
X28644Y179802D01*
X28319Y179844D01*
X27992Y179859D01*
X27665Y179844D01*
X27340Y179802D01*
X27020Y179731D01*
X26707Y179632D01*
X26405Y179507D01*
X26114Y179355D01*
X25838Y179179D01*
X25578Y178980D01*
X25336Y178759D01*
X25115Y178517D01*
X24915Y178257D01*
X24739Y177980D01*
X24588Y177690D01*
X24462Y177387D01*
X24364Y177075D01*
X24293Y176755D01*
X24250Y176430D01*
X24236Y176102D01*
X24250Y175775D01*
X24293Y175450D01*
X24364Y175130D01*
X24462Y174818D01*
X24588Y174515D01*
X24739Y174224D01*
X24915Y173948D01*
X25115Y173688D01*
X25336Y173446D01*
X25578Y173225D01*
X25838Y173025D01*
X26114Y172849D01*
X26405Y172698D01*
X26707Y172573D01*
X27020Y172474D01*
X27340Y172403D01*
X27665Y172360D01*
X27992Y172346D01*
X28319Y172360D01*
X28644Y172403D01*
X28964Y172474D01*
X29277Y172573D01*
X29580Y172698D01*
X29870Y172849D01*
X30097Y172994D01*
X30362Y172936D01*
X31023Y172662D01*
X31297Y172413D01*
Y169765D01*
X30267Y168736D01*
X27128D01*
Y164136D01*
X31927D01*
X31928Y164136D01*
X33033D01*
Y164136D01*
X33128Y164136D01*
X37833D01*
Y168736D01*
X34703D01*
Y172398D01*
X34949Y172631D01*
X35577Y172910D01*
X35903Y172983D01*
X36114Y172849D01*
X36405Y172698D01*
X36707Y172573D01*
X37020Y172474D01*
X37340Y172403D01*
X37665Y172360D01*
X37992Y172346D01*
X38320Y172360D01*
X38644Y172403D01*
X38964Y172474D01*
X39277Y172573D01*
X39580Y172698D01*
X39748Y172786D01*
X48697Y163837D01*
Y158306D01*
X48493Y157979D01*
X48457Y157943D01*
X47703Y157427D01*
X47497Y157379D01*
X47400Y157384D01*
X47178Y157372D01*
X46959Y157334D01*
X46745Y157273D01*
X46539Y157188D01*
X46344Y157080D01*
X46163Y156951D01*
X45997Y156803D01*
X45849Y156637D01*
X45720Y156456D01*
X45612Y156261D01*
X45527Y156055D01*
X45465Y155842D01*
X45428Y155622D01*
X45416Y155400D01*
X45428Y155178D01*
X45465Y154958D01*
X45527Y154745D01*
X45612Y154539D01*
X45720Y154344D01*
X45849Y154163D01*
X45997Y153997D01*
X46163Y153849D01*
X46344Y153720D01*
X46539Y153612D01*
X46745Y153527D01*
X46959Y153465D01*
X47178Y153428D01*
X47251Y152682D01*
X47190Y152226D01*
X47178Y152218D01*
X47079Y152134D01*
X46994Y152034D01*
X46926Y151923D01*
X46876Y151802D01*
X46845Y151675D01*
X46835Y151545D01*
Y149725D01*
X13646D01*
X9222Y154149D01*
X9310Y154318D01*
X9435Y154621D01*
X9534Y154933D01*
X9605Y155253D01*
X9647Y155578D01*
X9662Y155905D01*
X9647Y156233D01*
X9605Y156558D01*
X9534Y156878D01*
X9435Y157190D01*
X9310Y157493D01*
X9159Y157784D01*
X8982Y158060D01*
X8783Y158320D01*
X8562Y158562D01*
X8320Y158783D01*
X8060Y158983D01*
X7784Y159159D01*
X7493Y159310D01*
X7190Y159435D01*
X6878Y159534D01*
X6558Y159605D01*
X6233Y159648D01*
X5906Y159662D01*
X5578Y159648D01*
X5253Y159605D01*
X4933Y159534D01*
X4621Y159435D01*
X4318Y159310D01*
X4027Y159159D01*
X3751Y158983D01*
X3491Y158783D01*
X3249Y158562D01*
X3168Y158473D01*
X2603Y158557D01*
X1969Y158911D01*
Y162900D01*
X2603Y163254D01*
X3168Y163338D01*
X3249Y163249D01*
X3491Y163028D01*
X3751Y162829D01*
X4027Y162652D01*
X4318Y162501D01*
X4621Y162376D01*
X4933Y162277D01*
X5253Y162206D01*
X5578Y162163D01*
X5906Y162149D01*
X6233Y162163D01*
X6558Y162206D01*
X6878Y162277D01*
X7190Y162376D01*
X7493Y162501D01*
X7784Y162652D01*
X8060Y162829D01*
X8320Y163028D01*
X8562Y163249D01*
X8783Y163491D01*
X8982Y163751D01*
X9159Y164027D01*
X9310Y164318D01*
X9435Y164621D01*
X9534Y164933D01*
X9605Y165253D01*
X9647Y165578D01*
X9662Y165905D01*
X9647Y166233D01*
X9605Y166558D01*
X9534Y166878D01*
X9435Y167190D01*
X9310Y167493D01*
X9159Y167784D01*
X8982Y168060D01*
X8783Y168320D01*
X8562Y168562D01*
X8320Y168783D01*
X8060Y168983D01*
X7784Y169159D01*
X7493Y169310D01*
X7190Y169435D01*
X6878Y169534D01*
X6558Y169605D01*
X6233Y169648D01*
X5906Y169662D01*
X5578Y169648D01*
X5253Y169605D01*
X4933Y169534D01*
X4621Y169435D01*
X4318Y169310D01*
X4027Y169159D01*
X3751Y168983D01*
X3491Y168783D01*
X3249Y168562D01*
X3168Y168473D01*
X2603Y168557D01*
X1969Y168911D01*
Y188976D01*
X13960D01*
X14071Y188893D01*
X14386Y188463D01*
X14633Y187776D01*
X14588Y187690D01*
X14462Y187387D01*
X14364Y187075D01*
X14293Y186755D01*
X14250Y186430D01*
X14236Y186102D01*
X14250Y185775D01*
X14293Y185450D01*
X14364Y185130D01*
X14462Y184818D01*
X14588Y184515D01*
X14739Y184224D01*
X14915Y183948D01*
X15115Y183688D01*
X15336Y183446D01*
X15578Y183225D01*
X15838Y183025D01*
X16114Y182849D01*
X16405Y182698D01*
X16707Y182573D01*
X17020Y182474D01*
X17340Y182403D01*
X17665Y182360D01*
X17992Y182346D01*
X18319Y182360D01*
X18644Y182403D01*
X18964Y182474D01*
X19277Y182573D01*
X19580Y182698D01*
X19870Y182849D01*
X20147Y183025D01*
X20407Y183225D01*
X20648Y183446D01*
X20870Y183688D01*
X21069Y183948D01*
X21245Y184224D01*
X21396Y184515D01*
X21522Y184818D01*
X21621Y185130D01*
X21691Y185450D01*
X21734Y185775D01*
X21748Y186102D01*
X21734Y186430D01*
X21691Y186755D01*
X21621Y187075D01*
X21522Y187387D01*
X21396Y187690D01*
X21351Y187776D01*
X21598Y188463D01*
X21913Y188893D01*
X22024Y188976D01*
X24207D01*
X24469Y188725D01*
X24709Y188269D01*
X24858Y187776D01*
X24769Y187605D01*
X24651Y187319D01*
X24557Y187023D01*
X24490Y186720D01*
X24475Y186602D01*
X27992D01*
X31510D01*
X31494Y186720D01*
X31427Y187023D01*
X31334Y187319D01*
X31215Y187605D01*
X31126Y187776D01*
X31276Y188269D01*
X31515Y188725D01*
X31778Y188976D01*
X33960D01*
X34071Y188893D01*
D02*
G37*
G36*
X124016Y168911D02*
X123381Y168557D01*
X122816Y168473D01*
X122735Y168562D01*
X122493Y168783D01*
X122233Y168983D01*
X121957Y169159D01*
X121666Y169310D01*
X121363Y169435D01*
X121051Y169534D01*
X120731Y169605D01*
X120406Y169648D01*
X120079Y169662D01*
X119751Y169648D01*
X119427Y169605D01*
X119106Y169534D01*
X118794Y169435D01*
X118491Y169310D01*
X118201Y169159D01*
X117924Y168983D01*
X117664Y168783D01*
X117423Y168562D01*
X117201Y168320D01*
X117002Y168060D01*
X116826Y167784D01*
X116674Y167493D01*
X116549Y167190D01*
X116450Y166878D01*
X116379Y166558D01*
X116337Y166233D01*
X116322Y165905D01*
X116337Y165578D01*
X116379Y165253D01*
X116450Y164933D01*
X116549Y164621D01*
X116674Y164318D01*
X116826Y164027D01*
X117002Y163751D01*
X117201Y163491D01*
X117423Y163249D01*
X117664Y163028D01*
X117924Y162829D01*
X118201Y162652D01*
X118491Y162501D01*
X118794Y162376D01*
X119106Y162277D01*
X119427Y162206D01*
X119751Y162163D01*
X120079Y162149D01*
X120406Y162163D01*
X120731Y162206D01*
X121051Y162277D01*
X121363Y162376D01*
X121666Y162501D01*
X121957Y162652D01*
X122233Y162829D01*
X122493Y163028D01*
X122735Y163249D01*
X122816Y163338D01*
X123381Y163254D01*
X124016Y162900D01*
Y158911D01*
X123381Y158557D01*
X122816Y158473D01*
X122735Y158562D01*
X122493Y158783D01*
X122233Y158983D01*
X121957Y159159D01*
X121666Y159310D01*
X121363Y159435D01*
X121051Y159534D01*
X120731Y159605D01*
X120406Y159648D01*
X120079Y159662D01*
X119751Y159648D01*
X119427Y159605D01*
X119106Y159534D01*
X118794Y159435D01*
X118491Y159310D01*
X118201Y159159D01*
X117924Y158983D01*
X117664Y158783D01*
X117423Y158562D01*
X117201Y158320D01*
X117002Y158060D01*
X116826Y157784D01*
X116674Y157493D01*
X116549Y157190D01*
X116450Y156878D01*
X116379Y156558D01*
X116337Y156233D01*
X116322Y155905D01*
X116337Y155578D01*
X116379Y155253D01*
X116450Y154933D01*
X116549Y154621D01*
X116674Y154318D01*
X116826Y154027D01*
X117002Y153751D01*
X117201Y153491D01*
X117423Y153249D01*
X117664Y153028D01*
X117924Y152829D01*
X118201Y152652D01*
X118491Y152501D01*
X118794Y152376D01*
X119106Y152277D01*
X119427Y152206D01*
X119751Y152164D01*
X120079Y152149D01*
X120406Y152164D01*
X120731Y152206D01*
X121051Y152277D01*
X121363Y152376D01*
X121666Y152501D01*
X121957Y152652D01*
X122233Y152829D01*
X122493Y153028D01*
X122735Y153249D01*
X122816Y153338D01*
X123381Y153254D01*
X124016Y152901D01*
Y148910D01*
X123381Y148557D01*
X122816Y148473D01*
X122735Y148562D01*
X122493Y148783D01*
X122233Y148983D01*
X121957Y149159D01*
X121666Y149310D01*
X121363Y149435D01*
X121051Y149534D01*
X120731Y149605D01*
X120406Y149648D01*
X120079Y149662D01*
X119751Y149648D01*
X119427Y149605D01*
X119106Y149534D01*
X118794Y149435D01*
X118491Y149310D01*
X118201Y149159D01*
X117924Y148983D01*
X117664Y148783D01*
X117423Y148562D01*
X117201Y148320D01*
X117002Y148060D01*
X116826Y147784D01*
X116674Y147493D01*
X116549Y147190D01*
X116450Y146878D01*
X116379Y146558D01*
X116337Y146233D01*
X116322Y145905D01*
X116337Y145578D01*
X116379Y145253D01*
X116450Y144933D01*
X116549Y144621D01*
X116674Y144318D01*
X116826Y144027D01*
X117002Y143751D01*
X117201Y143491D01*
X117423Y143249D01*
X117664Y143028D01*
X117924Y142829D01*
X118201Y142652D01*
X118491Y142501D01*
X118794Y142376D01*
X119106Y142277D01*
X119427Y142206D01*
X119751Y142164D01*
X120079Y142149D01*
X120406Y142164D01*
X120731Y142206D01*
X121051Y142277D01*
X121363Y142376D01*
X121666Y142501D01*
X121957Y142652D01*
X122233Y142829D01*
X122493Y143028D01*
X122735Y143249D01*
X122816Y143338D01*
X123381Y143254D01*
X124016Y142901D01*
Y138910D01*
X123381Y138557D01*
X122816Y138473D01*
X122735Y138562D01*
X122493Y138783D01*
X122233Y138982D01*
X121957Y139159D01*
X121666Y139310D01*
X121363Y139435D01*
X121051Y139534D01*
X120731Y139605D01*
X120406Y139648D01*
X120079Y139662D01*
X119751Y139648D01*
X119427Y139605D01*
X119106Y139534D01*
X118794Y139435D01*
X118491Y139310D01*
X118323Y139222D01*
X116016Y141528D01*
X115885Y141641D01*
X115737Y141731D01*
X115577Y141797D01*
X115409Y141838D01*
X115236Y141851D01*
X96380D01*
X96090Y142052D01*
X96011Y142141D01*
X95565Y142907D01*
X95551Y143051D01*
X95573Y143178D01*
X95585Y143400D01*
X95573Y143622D01*
X95536Y143842D01*
X95474Y144055D01*
X95901Y145238D01*
X95901D01*
Y150038D01*
X95901D01*
X96101Y150993D01*
X96101Y150993D01*
X96101Y151155D01*
Y156093D01*
X91101D01*
Y151155D01*
X91101Y150993D01*
X91101Y150993D01*
X91301Y150038D01*
X91301D01*
Y145238D01*
X91301D01*
X91728Y144055D01*
X91667Y143842D01*
X91629Y143622D01*
X91617Y143400D01*
X91629Y143178D01*
X91651Y143051D01*
X91637Y142907D01*
X91191Y142141D01*
X91112Y142052D01*
X90822Y141851D01*
X89181D01*
X89141Y141897D01*
X89042Y141982D01*
X88931Y142051D01*
X88810Y142100D01*
X88683Y142131D01*
X88553Y142141D01*
X85535D01*
X85344Y142380D01*
X85047Y143341D01*
X86944Y145238D01*
X89801D01*
Y149993D01*
X89801Y150038D01*
Y151193D01*
X89801Y151238D01*
Y153243D01*
X87501D01*
Y153543D01*
X87201D01*
Y155893D01*
X85649Y155893D01*
X85314Y157093D01*
X86502Y158282D01*
X86559Y158265D01*
X86778Y158228D01*
X87000Y158216D01*
X87222Y158228D01*
X87441Y158265D01*
X87655Y158327D01*
X87861Y158412D01*
X88056Y158520D01*
X88237Y158649D01*
X88403Y158797D01*
X88551Y158963D01*
X88680Y159144D01*
X88788Y159339D01*
X88873Y159545D01*
X88934Y159758D01*
X88972Y159978D01*
X88984Y160200D01*
X88972Y160422D01*
X88934Y160642D01*
X88873Y160855D01*
X88788Y161061D01*
X88680Y161256D01*
X88551Y161437D01*
X88403Y161603D01*
X88237Y161751D01*
X88056Y161880D01*
X87861Y161988D01*
X87655Y162073D01*
X87441Y162135D01*
X87222Y162172D01*
X87000Y162184D01*
X86778Y162172D01*
X86559Y162135D01*
X86345Y162073D01*
X86277Y162045D01*
X85518Y162329D01*
X85455Y162364D01*
X85077Y162736D01*
Y164799D01*
X81838D01*
X79656Y166980D01*
X79525Y167093D01*
X79377Y167183D01*
X79217Y167249D01*
X79049Y167290D01*
X78876Y167303D01*
X77555D01*
X77202Y167643D01*
X77164Y167706D01*
X76856Y168503D01*
X76873Y168545D01*
X76934Y168758D01*
X76972Y168978D01*
X76984Y169200D01*
X76972Y169422D01*
X76944Y169584D01*
X78776Y171416D01*
X78889Y171547D01*
X78979Y171695D01*
X79045Y171855D01*
X79086Y172023D01*
X79100Y172196D01*
Y172517D01*
X79277Y172573D01*
X79580Y172698D01*
X79870Y172849D01*
X80147Y173025D01*
X80407Y173225D01*
X80648Y173446D01*
X80870Y173688D01*
X81069Y173948D01*
X81245Y174224D01*
X81397Y174515D01*
X81522Y174818D01*
X81621Y175130D01*
X81691Y175450D01*
X81734Y175775D01*
X81748Y176102D01*
X81734Y176430D01*
X81691Y176755D01*
X81621Y177075D01*
X81522Y177387D01*
X81397Y177690D01*
X81245Y177980D01*
X81069Y178257D01*
X80870Y178517D01*
X80648Y178759D01*
X80407Y178980D01*
X80147Y179179D01*
X79870Y179355D01*
X79580Y179507D01*
X79277Y179632D01*
X78964Y179731D01*
X78644Y179802D01*
X78320Y179844D01*
X77992Y179859D01*
X77665Y179844D01*
X77340Y179802D01*
X77020Y179731D01*
X76707Y179632D01*
X76405Y179507D01*
X76114Y179355D01*
X75838Y179179D01*
X75578Y178980D01*
X75336Y178759D01*
X75115Y178517D01*
X74915Y178257D01*
X74739Y177980D01*
X74588Y177690D01*
X74462Y177387D01*
X74364Y177075D01*
X74293Y176755D01*
X74250Y176430D01*
X74236Y176102D01*
X74250Y175775D01*
X74293Y175450D01*
X74364Y175130D01*
X74462Y174818D01*
X74588Y174515D01*
X74739Y174224D01*
X74915Y173948D01*
X75115Y173688D01*
X75336Y173446D01*
X75578Y173225D01*
X75620Y173192D01*
X75831Y171956D01*
X75621Y171685D01*
X75163Y171175D01*
X75000Y171184D01*
X74778Y171172D01*
X74559Y171134D01*
X74345Y171073D01*
X74139Y170988D01*
X73944Y170880D01*
X73763Y170751D01*
X73597Y170603D01*
X73449Y170437D01*
X73320Y170256D01*
X73212Y170061D01*
X73127Y169855D01*
X73066Y169641D01*
X73028Y169422D01*
X73016Y169200D01*
X73027Y169004D01*
X72748Y168703D01*
X72348Y168311D01*
X72088Y168149D01*
X72018Y168123D01*
X65145D01*
Y168123D01*
X62795Y168123D01*
Y167323D01*
X57284D01*
Y168523D01*
X57992Y169231D01*
X57992D01*
Y169231D01*
X58772Y170012D01*
X58885Y170144D01*
X58975Y170291D01*
X59042Y170451D01*
X59082Y170619D01*
X59096Y170792D01*
Y172515D01*
X59277Y172573D01*
X59580Y172698D01*
X59870Y172849D01*
X60147Y173025D01*
X60407Y173225D01*
X60648Y173446D01*
X60870Y173688D01*
X61069Y173948D01*
X61245Y174224D01*
X61396Y174515D01*
X61522Y174818D01*
X61620Y175130D01*
X61691Y175450D01*
X61734Y175775D01*
X61748Y176102D01*
X61734Y176430D01*
X61691Y176755D01*
X61620Y177075D01*
X61522Y177387D01*
X61396Y177690D01*
X61245Y177980D01*
X61069Y178257D01*
X60870Y178517D01*
X60648Y178759D01*
X60407Y178980D01*
X60147Y179179D01*
X59870Y179355D01*
X59580Y179507D01*
X59277Y179632D01*
X58964Y179731D01*
X58644Y179802D01*
X58319Y179844D01*
X57992Y179859D01*
X57665Y179844D01*
X57340Y179802D01*
X57020Y179731D01*
X56707Y179632D01*
X56405Y179507D01*
X56114Y179355D01*
X55838Y179179D01*
X55578Y178980D01*
X55336Y178759D01*
X55115Y178517D01*
X54915Y178257D01*
X54739Y177980D01*
X54588Y177690D01*
X54462Y177387D01*
X54364Y177075D01*
X54293Y176755D01*
X54250Y176430D01*
X54236Y176102D01*
X54250Y175775D01*
X54293Y175450D01*
X54364Y175130D01*
X54462Y174818D01*
X54588Y174515D01*
X54739Y174224D01*
X54915Y173948D01*
X55115Y173688D01*
X55336Y173446D01*
X55578Y173225D01*
X55838Y173025D01*
X56114Y172849D01*
X56405Y172698D01*
X56707Y172573D01*
X56889Y172515D01*
Y171249D01*
X54456Y168817D01*
X53256Y169314D01*
Y171942D01*
X53243Y172114D01*
X53202Y172283D01*
X53136Y172443D01*
X53045Y172590D01*
X52933Y172722D01*
X51309Y174346D01*
X51397Y174515D01*
X51522Y174818D01*
X51621Y175130D01*
X51691Y175450D01*
X51734Y175775D01*
X51749Y176102D01*
X51734Y176430D01*
X51691Y176755D01*
X51621Y177075D01*
X51522Y177387D01*
X51397Y177690D01*
X51245Y177980D01*
X51069Y178257D01*
X50870Y178517D01*
X50648Y178759D01*
X50407Y178980D01*
X50147Y179179D01*
X49870Y179355D01*
X49580Y179507D01*
X49843Y180697D01*
X53690D01*
X53862Y180710D01*
X54031Y180751D01*
X54191Y180817D01*
X54338Y180907D01*
X54470Y181020D01*
X56236Y182786D01*
X56405Y182698D01*
X56707Y182573D01*
X57020Y182474D01*
X57340Y182403D01*
X57665Y182360D01*
X57992Y182346D01*
X58319Y182360D01*
X58644Y182403D01*
X58964Y182474D01*
X59277Y182573D01*
X59580Y182698D01*
X59870Y182849D01*
X60147Y183025D01*
X60407Y183225D01*
X60648Y183446D01*
X60870Y183688D01*
X61069Y183948D01*
X61245Y184224D01*
X61396Y184515D01*
X61522Y184818D01*
X61620Y185130D01*
X61691Y185450D01*
X61734Y185775D01*
X61748Y186102D01*
X61734Y186430D01*
X61691Y186755D01*
X61620Y187075D01*
X61522Y187387D01*
X61396Y187690D01*
X61352Y187776D01*
X61598Y188463D01*
X61913Y188893D01*
X62024Y188976D01*
X64207D01*
X64469Y188725D01*
X64709Y188269D01*
X64858Y187776D01*
X64769Y187605D01*
X64650Y187319D01*
X64557Y187023D01*
X64490Y186720D01*
X64475Y186602D01*
X67992D01*
X71510D01*
X71494Y186720D01*
X71427Y187023D01*
X71334Y187319D01*
X71215Y187605D01*
X71126Y187776D01*
X71276Y188269D01*
X71515Y188725D01*
X71777Y188976D01*
X73960D01*
X74071Y188893D01*
X74386Y188463D01*
X74633Y187776D01*
X74588Y187690D01*
X74462Y187387D01*
X74364Y187075D01*
X74293Y186755D01*
X74250Y186430D01*
X74236Y186102D01*
X74250Y185775D01*
X74293Y185450D01*
X74364Y185130D01*
X74462Y184818D01*
X74588Y184515D01*
X74739Y184224D01*
X74915Y183948D01*
X75115Y183688D01*
X75336Y183446D01*
X75578Y183225D01*
X75838Y183025D01*
X76114Y182849D01*
X76405Y182698D01*
X76707Y182573D01*
X77020Y182474D01*
X77340Y182403D01*
X77665Y182360D01*
X77992Y182346D01*
X78320Y182360D01*
X78644Y182403D01*
X78964Y182474D01*
X79277Y182573D01*
X79580Y182698D01*
X79870Y182849D01*
X80147Y183025D01*
X80407Y183225D01*
X80648Y183446D01*
X80870Y183688D01*
X81069Y183948D01*
X81245Y184224D01*
X81397Y184515D01*
X81522Y184818D01*
X81621Y185130D01*
X81691Y185450D01*
X81734Y185775D01*
X81748Y186102D01*
X81734Y186430D01*
X81691Y186755D01*
X81621Y187075D01*
X81522Y187387D01*
X81397Y187690D01*
X81352Y187776D01*
X81598Y188463D01*
X81913Y188893D01*
X82024Y188976D01*
X84207D01*
X84469Y188725D01*
X84709Y188269D01*
X84858Y187776D01*
X84769Y187605D01*
X84650Y187319D01*
X84557Y187023D01*
X84490Y186720D01*
X84475Y186602D01*
X87992D01*
X91510D01*
X91494Y186720D01*
X91427Y187023D01*
X91334Y187319D01*
X91215Y187605D01*
X91126Y187776D01*
X91276Y188269D01*
X91515Y188725D01*
X91777Y188976D01*
X93960D01*
X94071Y188893D01*
X94386Y188463D01*
X94633Y187776D01*
X94588Y187690D01*
X94462Y187387D01*
X94364Y187075D01*
X94293Y186755D01*
X94250Y186430D01*
X94236Y186102D01*
X94250Y185775D01*
X94293Y185450D01*
X94364Y185130D01*
X94462Y184818D01*
X94588Y184515D01*
X94739Y184224D01*
X94915Y183948D01*
X95115Y183688D01*
X95336Y183446D01*
X95578Y183225D01*
X95838Y183025D01*
X96114Y182849D01*
X96405Y182698D01*
X96707Y182573D01*
X97020Y182474D01*
X97340Y182403D01*
X97665Y182360D01*
X97992Y182346D01*
X98320Y182360D01*
X98644Y182403D01*
X98964Y182474D01*
X99277Y182573D01*
X99580Y182698D01*
X99870Y182849D01*
X100147Y183025D01*
X100407Y183225D01*
X100648Y183446D01*
X100870Y183688D01*
X101069Y183948D01*
X101245Y184224D01*
X101397Y184515D01*
X101522Y184818D01*
X101620Y185130D01*
X101691Y185450D01*
X101734Y185775D01*
X101749Y186102D01*
X101734Y186430D01*
X101691Y186755D01*
X101620Y187075D01*
X101522Y187387D01*
X101397Y187690D01*
X101351Y187776D01*
X101598Y188463D01*
X101913Y188893D01*
X102024Y188976D01*
X104207D01*
X104470Y188725D01*
X104709Y188269D01*
X104858Y187776D01*
X104769Y187605D01*
X104650Y187319D01*
X104557Y187023D01*
X104490Y186720D01*
X104475Y186602D01*
X107992D01*
X111510D01*
X111494Y186720D01*
X111427Y187023D01*
X111334Y187319D01*
X111215Y187605D01*
X111126Y187776D01*
X111276Y188269D01*
X111515Y188725D01*
X111777Y188976D01*
X124016D01*
Y168911D01*
D02*
G37*
G36*
X24970Y137294D02*
X25133Y137064D01*
X25392Y136152D01*
X16249Y127009D01*
X9493D01*
X9435Y127190D01*
X9310Y127493D01*
X9159Y127784D01*
X8982Y128060D01*
X8783Y128320D01*
X8562Y128562D01*
X8320Y128783D01*
X8060Y128982D01*
X7784Y129159D01*
X7493Y129310D01*
X7190Y129435D01*
X6878Y129534D01*
X6558Y129605D01*
X6233Y129648D01*
X5906Y129662D01*
X5578Y129648D01*
X5253Y129605D01*
X4933Y129534D01*
X4621Y129435D01*
X4318Y129310D01*
X4027Y129159D01*
X3751Y128982D01*
X3491Y128783D01*
X3249Y128562D01*
X3168Y128473D01*
X2603Y128557D01*
X1969Y128911D01*
Y132901D01*
X2603Y133254D01*
X3168Y133338D01*
X3249Y133249D01*
X3491Y133028D01*
X3751Y132828D01*
X4027Y132652D01*
X4318Y132501D01*
X4621Y132376D01*
X4933Y132277D01*
X5253Y132206D01*
X5578Y132164D01*
X5906Y132149D01*
X6233Y132164D01*
X6558Y132206D01*
X6878Y132277D01*
X7190Y132376D01*
X7493Y132501D01*
X7784Y132652D01*
X8060Y132828D01*
X8320Y133028D01*
X8562Y133249D01*
X8783Y133491D01*
X8982Y133751D01*
X9159Y134027D01*
X9310Y134318D01*
X9435Y134621D01*
X9493Y134802D01*
X21230D01*
X21402Y134816D01*
X21571Y134856D01*
X21731Y134922D01*
X21878Y135013D01*
X22010Y135125D01*
X24278Y137393D01*
X24970Y137294D01*
D02*
G37*
G36*
X31641Y133507D02*
X31677Y133388D01*
X31227Y132787D01*
X31200Y132784D01*
X30978Y132772D01*
X30759Y132735D01*
X30545Y132673D01*
X30339Y132588D01*
X30144Y132480D01*
X29963Y132351D01*
X29797Y132203D01*
X29649Y132037D01*
X29520Y131856D01*
X29412Y131661D01*
X29327Y131455D01*
X29265Y131242D01*
X29228Y131022D01*
X28578Y130372D01*
X28359Y130334D01*
X28145Y130273D01*
X27939Y130188D01*
X27744Y130080D01*
X27563Y129951D01*
X27397Y129803D01*
X27249Y129637D01*
X27120Y129456D01*
X27012Y129261D01*
X26927Y129055D01*
X26866Y128841D01*
X26828Y128622D01*
X26816Y128400D01*
X26828Y128178D01*
X26866Y127959D01*
X26927Y127745D01*
X27012Y127539D01*
X26727Y126784D01*
X26567Y126556D01*
X26353Y126366D01*
X24178D01*
Y124316D01*
X26478D01*
Y123716D01*
X24178D01*
Y122738D01*
X23200Y122207D01*
X22085Y122727D01*
Y125429D01*
X19357D01*
X18898Y126537D01*
X26857Y134497D01*
X30913D01*
X31641Y133507D01*
D02*
G37*
G36*
X13265Y124486D02*
X13271Y124477D01*
X13675Y123602D01*
X13666Y123570D01*
X13628Y123351D01*
X13616Y123129D01*
X13628Y122907D01*
X13666Y122687D01*
X13727Y122473D01*
X13812Y122268D01*
X13920Y122073D01*
X14049Y121892D01*
X14197Y121726D01*
X14363Y121577D01*
X14544Y121449D01*
X14739Y121341D01*
X14945Y121256D01*
X15158Y121194D01*
X15378Y121157D01*
X15600Y121144D01*
X15822Y121157D01*
X16041Y121194D01*
X16085Y121207D01*
X17285Y120829D01*
Y120829D01*
X19360D01*
X19987Y119629D01*
X19779Y119329D01*
X17285D01*
Y114729D01*
X18582D01*
Y112754D01*
X18477Y112539D01*
X18364Y112396D01*
X18001Y112091D01*
X17400Y111784D01*
X17178Y111772D01*
X16959Y111734D01*
X16745Y111673D01*
X16539Y111588D01*
X16344Y111480D01*
X16163Y111351D01*
X15997Y111203D01*
X15849Y111037D01*
X15720Y110856D01*
X15612Y110661D01*
X15527Y110455D01*
X15465Y110241D01*
X15428Y110022D01*
X15416Y109800D01*
X15428Y109578D01*
X15465Y109359D01*
X15527Y109145D01*
X15612Y108939D01*
X15720Y108744D01*
X15849Y108563D01*
X15997Y108397D01*
X16163Y108249D01*
X16344Y108120D01*
X16500Y108034D01*
Y105799D01*
X16503Y105757D01*
Y101365D01*
X19897D01*
Y90573D01*
X17704Y88380D01*
X17592Y88249D01*
X17501Y88101D01*
X17435Y87941D01*
X17394Y87773D01*
X17382Y87611D01*
X16503D01*
Y80106D01*
X20465D01*
Y80106D01*
X21503D01*
Y80106D01*
X25465D01*
Y80106D01*
X26503D01*
Y80106D01*
X30465D01*
Y86342D01*
X30671Y86475D01*
X31703Y85955D01*
Y84158D01*
X33484D01*
X35265D01*
Y86497D01*
X35265Y87411D01*
X36347Y87697D01*
X45600D01*
X45614Y87698D01*
X46014Y87270D01*
X46255Y86833D01*
X46320Y86642D01*
X46031Y86259D01*
X42726D01*
Y82819D01*
X33176Y73269D01*
X31809D01*
X31766Y73266D01*
X28309D01*
Y71192D01*
X27109Y70564D01*
X26809Y70772D01*
Y73266D01*
X22209D01*
Y68466D01*
X24228D01*
X24299Y68361D01*
X23657Y67161D01*
X22409D01*
Y65261D01*
X24509D01*
Y64961D01*
X24809D01*
Y62761D01*
X26609D01*
Y64810D01*
X27809Y65403D01*
X28309Y65021D01*
Y62561D01*
X28309D01*
X28109Y61605D01*
X28109Y61605D01*
X28109Y61444D01*
Y56505D01*
X33109D01*
Y59995D01*
X35011Y61897D01*
X37954D01*
X38049Y61763D01*
X38197Y61597D01*
X38363Y61449D01*
X38544Y61320D01*
X38739Y61212D01*
X38945Y61127D01*
X39158Y61066D01*
X39378Y61028D01*
X39600Y61016D01*
X39822Y61028D01*
X40042Y61066D01*
X40255Y61127D01*
X40461Y61212D01*
X41050Y60167D01*
X32142Y51258D01*
X31962Y51057D01*
X31805Y50836D01*
X31675Y50600D01*
X31614Y50454D01*
X31571Y50351D01*
X31497Y50091D01*
X31451Y49825D01*
X31442Y49667D01*
X31208Y49570D01*
X30972Y49440D01*
X30752Y49283D01*
X30550Y49103D01*
X30370Y48902D01*
X30214Y48682D01*
X30109Y48492D01*
X29247D01*
Y47400D01*
X28947D01*
Y47100D01*
X27638D01*
Y46644D01*
X27240Y46057D01*
X26687Y45707D01*
X22403D01*
Y40907D01*
X25443D01*
X27440Y38910D01*
Y36045D01*
X27120Y35870D01*
X26260Y35924D01*
X25791Y36390D01*
X25803Y36600D01*
X25791Y36822D01*
X25753Y37042D01*
X25692Y37255D01*
X25607Y37461D01*
X25499Y37656D01*
X25370Y37837D01*
X25222Y38003D01*
X25056Y38151D01*
X24875Y38280D01*
X24680Y38388D01*
X24474Y38473D01*
X24260Y38535D01*
X24041Y38572D01*
X23819Y38584D01*
X23597Y38572D01*
X23377Y38535D01*
X23164Y38473D01*
X22958Y38388D01*
X22763Y38280D01*
X22582Y38151D01*
X22416Y38003D01*
X22268Y37837D01*
X22139Y37656D01*
X22031Y37461D01*
X22000Y37386D01*
X21992Y37388D01*
X21969Y37391D01*
X21947Y37396D01*
X21891Y37398D01*
X21835Y37404D01*
X12000D01*
X11843Y37388D01*
X11692Y37343D01*
X11553Y37268D01*
X11432Y37168D01*
X11332Y37047D01*
X11257Y36908D01*
X11212Y36757D01*
X11196Y36600D01*
Y23292D01*
X10200Y22800D01*
X9996Y22800D01*
X3168D01*
X3000Y22800D01*
X1969Y23207D01*
Y71029D01*
X2153Y72153D01*
X3168Y72153D01*
X9658D01*
Y79658D01*
X3168D01*
X2153Y79658D01*
X1969Y80782D01*
Y82901D01*
X2603Y83254D01*
X3168Y83338D01*
X3249Y83249D01*
X3491Y83028D01*
X3751Y82828D01*
X4027Y82652D01*
X4318Y82501D01*
X4621Y82376D01*
X4933Y82277D01*
X5253Y82206D01*
X5578Y82164D01*
X5906Y82149D01*
X6233Y82164D01*
X6558Y82206D01*
X6878Y82277D01*
X7190Y82376D01*
X7493Y82501D01*
X7784Y82652D01*
X8060Y82828D01*
X8320Y83028D01*
X8562Y83249D01*
X8783Y83491D01*
X8982Y83751D01*
X9159Y84027D01*
X9310Y84318D01*
X9435Y84621D01*
X9534Y84933D01*
X9605Y85253D01*
X9647Y85578D01*
X9662Y85905D01*
X9647Y86233D01*
X9605Y86558D01*
X9534Y86878D01*
X9435Y87190D01*
X9310Y87493D01*
X9159Y87784D01*
X8982Y88060D01*
X8783Y88320D01*
X8562Y88562D01*
X8320Y88783D01*
X8060Y88982D01*
X7784Y89159D01*
X7493Y89310D01*
X7190Y89435D01*
X6878Y89534D01*
X6558Y89605D01*
X6233Y89648D01*
X5906Y89662D01*
X5578Y89648D01*
X5253Y89605D01*
X4933Y89534D01*
X4621Y89435D01*
X4318Y89310D01*
X4027Y89159D01*
X3751Y88982D01*
X3491Y88783D01*
X3249Y88562D01*
X3168Y88473D01*
X2603Y88557D01*
X1969Y88911D01*
Y93240D01*
X2362Y93480D01*
X3168Y93636D01*
X3181Y93620D01*
X3391Y93391D01*
X3620Y93181D01*
X3866Y92993D01*
X4127Y92826D01*
X4403Y92683D01*
X4689Y92564D01*
X4985Y92471D01*
X5288Y92403D01*
X5406Y92388D01*
Y95906D01*
Y99423D01*
X5288Y99408D01*
X4985Y99340D01*
X4689Y99247D01*
X4403Y99129D01*
X4127Y98985D01*
X3866Y98818D01*
X3620Y98630D01*
X3391Y98420D01*
X3181Y98191D01*
X3168Y98175D01*
X2362Y98331D01*
X1969Y98571D01*
Y102901D01*
X2603Y103254D01*
X3168Y103338D01*
X3249Y103249D01*
X3491Y103028D01*
X3751Y102829D01*
X4027Y102652D01*
X4318Y102501D01*
X4621Y102376D01*
X4933Y102277D01*
X5253Y102206D01*
X5578Y102164D01*
X5906Y102149D01*
X6233Y102164D01*
X6558Y102206D01*
X6878Y102277D01*
X7190Y102376D01*
X7493Y102501D01*
X7784Y102652D01*
X8060Y102829D01*
X8320Y103028D01*
X8562Y103249D01*
X8783Y103491D01*
X8982Y103751D01*
X9159Y104027D01*
X9310Y104318D01*
X9435Y104621D01*
X9534Y104933D01*
X9605Y105253D01*
X9647Y105578D01*
X9662Y105905D01*
X9647Y106233D01*
X9605Y106558D01*
X9534Y106878D01*
X9435Y107190D01*
X9310Y107493D01*
X9159Y107784D01*
X8982Y108060D01*
X8783Y108320D01*
X8562Y108562D01*
X8320Y108783D01*
X8060Y108983D01*
X7784Y109159D01*
X7493Y109310D01*
X7190Y109435D01*
X6878Y109534D01*
X6558Y109605D01*
X6233Y109648D01*
X5906Y109662D01*
X5578Y109648D01*
X5253Y109605D01*
X4933Y109534D01*
X4621Y109435D01*
X4318Y109310D01*
X4027Y109159D01*
X3751Y108983D01*
X3491Y108783D01*
X3249Y108562D01*
X3168Y108473D01*
X2603Y108557D01*
X1969Y108911D01*
Y112900D01*
X2603Y113254D01*
X3168Y113338D01*
X3249Y113249D01*
X3491Y113028D01*
X3751Y112829D01*
X4027Y112652D01*
X4318Y112501D01*
X4621Y112376D01*
X4933Y112277D01*
X5253Y112206D01*
X5578Y112163D01*
X5906Y112149D01*
X6233Y112163D01*
X6558Y112206D01*
X6878Y112277D01*
X7190Y112376D01*
X7493Y112501D01*
X7784Y112652D01*
X8060Y112829D01*
X8320Y113028D01*
X8562Y113249D01*
X8783Y113491D01*
X8982Y113751D01*
X9159Y114027D01*
X9310Y114318D01*
X9435Y114621D01*
X9534Y114933D01*
X9605Y115253D01*
X9647Y115578D01*
X9662Y115905D01*
X9647Y116233D01*
X9605Y116558D01*
X9534Y116878D01*
X9435Y117190D01*
X9310Y117493D01*
X9159Y117784D01*
X8982Y118060D01*
X8783Y118320D01*
X8562Y118562D01*
X8320Y118783D01*
X8060Y118983D01*
X7784Y119159D01*
X7493Y119310D01*
X7190Y119435D01*
X6878Y119534D01*
X6558Y119605D01*
X6233Y119648D01*
X5906Y119662D01*
X5578Y119648D01*
X5253Y119605D01*
X4933Y119534D01*
X4621Y119435D01*
X4318Y119310D01*
X4027Y119159D01*
X3751Y118983D01*
X3491Y118783D01*
X3249Y118562D01*
X3168Y118473D01*
X2603Y118557D01*
X1969Y118911D01*
Y122900D01*
X2603Y123254D01*
X3168Y123338D01*
X3249Y123249D01*
X3491Y123028D01*
X3751Y122828D01*
X4027Y122652D01*
X4318Y122501D01*
X4621Y122376D01*
X4933Y122277D01*
X5253Y122206D01*
X5578Y122163D01*
X5906Y122149D01*
X6233Y122163D01*
X6558Y122206D01*
X6878Y122277D01*
X7190Y122376D01*
X7493Y122501D01*
X7784Y122652D01*
X8060Y122828D01*
X8320Y123028D01*
X8562Y123249D01*
X8783Y123491D01*
X8982Y123751D01*
X9159Y124027D01*
X9310Y124318D01*
X9435Y124621D01*
X9493Y124802D01*
X12916D01*
X13265Y124486D01*
D02*
G37*
G36*
X107497Y123743D02*
Y118232D01*
X106388Y117772D01*
X102446Y121715D01*
X101807Y122650D01*
Y124700D01*
X99507D01*
Y125300D01*
X101807D01*
Y127350D01*
X102806Y127834D01*
X103406D01*
X107497Y123743D01*
D02*
G37*
G36*
X24178Y118164D02*
Y117426D01*
X26478D01*
Y117126D01*
X26778D01*
Y114776D01*
X28778D01*
Y114776D01*
X28878Y114807D01*
X30078Y114576D01*
X30206Y114512D01*
X30402Y114360D01*
X30689Y114021D01*
X31016Y113400D01*
X31028Y113178D01*
X31065Y112959D01*
X31127Y112745D01*
X31212Y112539D01*
X31320Y112344D01*
X31449Y112163D01*
X31597Y111997D01*
X31763Y111849D01*
X32036Y111585D01*
X32399Y111051D01*
X32431Y110773D01*
X32394Y110573D01*
X32381Y110400D01*
Y109774D01*
X31662Y109034D01*
X30457Y109240D01*
X30438Y110071D01*
X30456Y110178D01*
X30468Y110400D01*
X30456Y110622D01*
X30419Y110842D01*
X30357Y111055D01*
X30272Y111261D01*
X30164Y111456D01*
X30036Y111637D01*
X29887Y111803D01*
X29721Y111951D01*
X29540Y112080D01*
X29345Y112188D01*
X29140Y112273D01*
X28926Y112335D01*
X28706Y112372D01*
X28484Y112384D01*
X28262Y112372D01*
X28043Y112335D01*
X27829Y112273D01*
X27623Y112188D01*
X27429Y112080D01*
X27247Y111951D01*
X27081Y111803D01*
X26933Y111637D01*
X26804Y111456D01*
X26697Y111261D01*
X26611Y111055D01*
X26550Y110842D01*
X26513Y110622D01*
X26500Y110400D01*
X26513Y110178D01*
X26531Y110071D01*
X26503Y108871D01*
X25465D01*
X25303Y108871D01*
X22103D01*
Y109457D01*
X22090Y109629D01*
X22049Y109798D01*
X21983Y109958D01*
X21893Y110106D01*
X21780Y110237D01*
X20788Y111229D01*
Y114729D01*
X22085D01*
Y117768D01*
X22978Y118661D01*
X24178Y118164D01*
D02*
G37*
G36*
X36654Y110368D02*
X36690Y110282D01*
X36758Y110170D01*
X36843Y110071D01*
X36942Y109986D01*
X37053Y109918D01*
X37174Y109868D01*
X37301Y109838D01*
X37431Y109827D01*
X37750D01*
X38039Y109586D01*
X38121Y109474D01*
X38482Y108655D01*
X38420Y108441D01*
X38383Y108222D01*
X38370Y108000D01*
X38383Y107778D01*
X38420Y107559D01*
X38482Y107345D01*
X38567Y107139D01*
X38674Y106944D01*
X38803Y106763D01*
X38951Y106597D01*
X39117Y106449D01*
X39299Y106320D01*
X39493Y106212D01*
X39699Y106127D01*
X39913Y106065D01*
X40132Y106028D01*
X40354Y106016D01*
X40576Y106028D01*
X40796Y106065D01*
X41010Y106127D01*
X41215Y106212D01*
X41410Y106320D01*
X41592Y106449D01*
X41757Y106597D01*
X41906Y106763D01*
X42034Y106944D01*
X42142Y107139D01*
X42227Y107345D01*
X42289Y107559D01*
X42326Y107778D01*
X42338Y108000D01*
X42326Y108222D01*
X42289Y108441D01*
X42227Y108655D01*
X42588Y109474D01*
X42669Y109586D01*
X42958Y109827D01*
X43278D01*
X43408Y109838D01*
X43535Y109868D01*
X43655Y109918D01*
X43767Y109986D01*
X43866Y110071D01*
X43868Y110071D01*
X47079Y106861D01*
X47079Y106858D01*
X46994Y106759D01*
X46926Y106648D01*
X46876Y106527D01*
X46845Y106400D01*
X46835Y106270D01*
Y100423D01*
X46845Y100293D01*
X46876Y100166D01*
X46926Y100046D01*
X46994Y99934D01*
X47079Y99835D01*
X47125Y99796D01*
Y94489D01*
X46745Y94197D01*
X46051Y94552D01*
X45726Y94928D01*
X45735Y94959D01*
X45772Y95178D01*
X45784Y95400D01*
X45772Y95622D01*
X45735Y95841D01*
X45673Y96055D01*
X45588Y96261D01*
X45480Y96456D01*
X45351Y96637D01*
X45203Y96803D01*
X45037Y96951D01*
X44856Y97080D01*
X44661Y97188D01*
X44455Y97273D01*
X44241Y97334D01*
X44022Y97372D01*
X43800Y97384D01*
X43578Y97372D01*
X43358Y97334D01*
X43145Y97273D01*
X42939Y97188D01*
X42744Y97080D01*
X42563Y96951D01*
X42397Y96803D01*
X42249Y96637D01*
X42154Y96503D01*
X29101D01*
X25439Y100165D01*
X25465Y101365D01*
X26503D01*
X26665Y101365D01*
X30303D01*
X30465Y101365D01*
X31503D01*
X31665Y101365D01*
X35465D01*
Y108871D01*
X35299D01*
X34970Y110071D01*
X35531Y110657D01*
X36654Y110368D01*
D02*
G37*
G36*
X89554Y105700D02*
Y102350D01*
X92729D01*
X92729Y102350D01*
X93009Y102360D01*
X93217Y102224D01*
X93404Y102011D01*
X93804Y101198D01*
X93738Y100935D01*
X93698Y100665D01*
X93685Y100394D01*
X93698Y100122D01*
X93738Y99853D01*
X93804Y99589D01*
X93896Y99333D01*
X94012Y99087D01*
X94152Y98854D01*
X94314Y98635D01*
X94497Y98434D01*
X94698Y98251D01*
X94917Y98089D01*
X95150Y97949D01*
X95396Y97833D01*
X95652Y97741D01*
X95916Y97675D01*
X96185Y97635D01*
X96457Y97622D01*
X96728Y97635D01*
X96997Y97675D01*
X97261Y97741D01*
X97517Y97833D01*
X97763Y97949D01*
X97997Y98089D01*
X98215Y98251D01*
X98417Y98434D01*
X98599Y98635D01*
X98761Y98854D01*
X98901Y99087D01*
X99018Y99333D01*
X99109Y99589D01*
X100297Y99391D01*
Y91554D01*
X99109Y91356D01*
X99018Y91612D01*
X98901Y91858D01*
X98761Y92091D01*
X98599Y92310D01*
X98417Y92511D01*
X98215Y92694D01*
X97997Y92856D01*
X97763Y92996D01*
X97517Y93112D01*
X97261Y93204D01*
X96997Y93270D01*
X96728Y93310D01*
X96457Y93323D01*
X96185Y93310D01*
X95916Y93270D01*
X95652Y93204D01*
X95396Y93112D01*
X95150Y92996D01*
X94917Y92856D01*
X94698Y92694D01*
X94497Y92511D01*
X94314Y92310D01*
X94152Y92091D01*
X94018Y91867D01*
X93872Y91845D01*
X92811Y91750D01*
X91944Y92616D01*
X91972Y92778D01*
X91984Y93000D01*
X91972Y93222D01*
X91935Y93441D01*
X91873Y93655D01*
X91788Y93861D01*
X91783Y93869D01*
X92041Y94636D01*
X92153Y94815D01*
X92417Y95069D01*
X92529D01*
Y96354D01*
X91142D01*
Y96653D01*
X90842D01*
Y98238D01*
X90170D01*
Y98438D01*
X87485D01*
Y102350D01*
X87611D01*
Y105454D01*
X88551Y106394D01*
X89554Y105700D01*
D02*
G37*
G36*
X27864Y94620D02*
X27996Y94507D01*
X28143Y94417D01*
X28303Y94351D01*
X28472Y94310D01*
X28644Y94297D01*
X42154D01*
X42249Y94163D01*
X42397Y93997D01*
X42563Y93849D01*
X42744Y93720D01*
X42939Y93612D01*
X43145Y93527D01*
X43358Y93466D01*
X43578Y93428D01*
X43800Y93416D01*
X44022Y93428D01*
X44241Y93466D01*
X44455Y93527D01*
X44661Y93612D01*
X44856Y93720D01*
X44879Y93736D01*
X45656Y92816D01*
X44543Y91703D01*
X26484D01*
X26312Y91690D01*
X26143Y91649D01*
X25983Y91583D01*
X25836Y91493D01*
X25704Y91380D01*
X22704Y88380D01*
X22692Y88367D01*
X22473Y88331D01*
X21966Y89066D01*
X21878Y89450D01*
X21893Y89467D01*
X21983Y89615D01*
X22049Y89775D01*
X22090Y89943D01*
X22103Y90116D01*
Y98683D01*
X23303Y99180D01*
X27864Y94620D01*
D02*
G37*
G36*
X82529Y83910D02*
X82489Y83745D01*
X82336Y83368D01*
X82000Y83162D01*
X81080Y82896D01*
X80353Y83259D01*
X80353Y83259D01*
X80353Y83259D01*
X75353D01*
Y78859D01*
X74053D01*
Y80409D01*
X69453D01*
Y79108D01*
X69177Y78909D01*
X68749Y79017D01*
X68297Y79301D01*
X68024Y79559D01*
Y87170D01*
X69582D01*
Y89470D01*
X69882D01*
Y89770D01*
X72232D01*
Y91770D01*
X72232D01*
X72201Y91870D01*
X72309Y92433D01*
X73608Y92831D01*
X82529Y83910D01*
D02*
G37*
G36*
X61180Y86089D02*
X61435Y86006D01*
X61897Y85711D01*
Y81013D01*
X42433Y61550D01*
X41388Y62139D01*
X41473Y62345D01*
X41535Y62559D01*
X41572Y62778D01*
X41584Y63000D01*
X41572Y63222D01*
X41535Y63441D01*
X41473Y63655D01*
X41388Y63861D01*
X41280Y64056D01*
X41151Y64237D01*
X41003Y64403D01*
X40837Y64551D01*
X40656Y64680D01*
X40461Y64788D01*
X40255Y64873D01*
X40042Y64934D01*
X39822Y64972D01*
X39600Y64984D01*
X39378Y64972D01*
X39158Y64934D01*
X38945Y64873D01*
X38739Y64788D01*
X38544Y64680D01*
X38363Y64551D01*
X38197Y64403D01*
X38049Y64237D01*
X37954Y64103D01*
X34554D01*
X34381Y64090D01*
X34213Y64049D01*
X34053Y63983D01*
X33355Y64242D01*
X32909Y64525D01*
Y67266D01*
X32909Y67361D01*
X32909D01*
Y68466D01*
X32909D01*
Y71063D01*
X33633D01*
X33806Y71076D01*
X33974Y71117D01*
X34134Y71183D01*
X34282Y71273D01*
X34413Y71386D01*
X41817Y78790D01*
X42926Y78330D01*
Y77959D01*
X45276D01*
X47626D01*
Y79959D01*
X45889D01*
X45248Y81159D01*
X45314Y81259D01*
X47664D01*
X47826Y81259D01*
X47826Y81259D01*
X48781Y81459D01*
Y81459D01*
X53581D01*
Y84498D01*
X53780Y84697D01*
X58800D01*
X58973Y84710D01*
X59141Y84751D01*
X59301Y84817D01*
X59449Y84907D01*
X59580Y85020D01*
X60697Y86136D01*
X61180Y86089D01*
D02*
G37*
G36*
X88944Y91320D02*
X89139Y91212D01*
X89345Y91127D01*
X89559Y91066D01*
X89778Y91028D01*
X90000Y91016D01*
X90222Y91028D01*
X90384Y91056D01*
X91669Y89771D01*
X91800Y89658D01*
X91948Y89568D01*
X92108Y89502D01*
X92276Y89461D01*
X92449Y89448D01*
X93916D01*
X94012Y89245D01*
X94152Y89011D01*
X94314Y88793D01*
X94497Y88591D01*
X94698Y88408D01*
X94917Y88247D01*
X95150Y88107D01*
X95396Y87990D01*
X95652Y87899D01*
X95916Y87833D01*
X96185Y87793D01*
X96457Y87779D01*
X96728Y87793D01*
X96997Y87833D01*
X97261Y87899D01*
X97517Y87990D01*
X97763Y88107D01*
X97997Y88247D01*
X98215Y88408D01*
X98417Y88591D01*
X98599Y88793D01*
X98761Y89011D01*
X98901Y89245D01*
X99018Y89490D01*
X99109Y89747D01*
X100297Y89548D01*
Y79961D01*
X99097Y79464D01*
X88144Y90416D01*
X88921Y91336D01*
X88944Y91320D01*
D02*
G37*
G36*
X84646Y64124D02*
X83296Y62774D01*
X79896D01*
X78740Y63929D01*
Y68898D01*
X84646D01*
Y64124D01*
D02*
G37*
G36*
X76772Y63587D02*
X77585Y62774D01*
X74185D01*
Y63611D01*
X72835Y64961D01*
X68898D01*
Y68898D01*
X76772D01*
Y63587D01*
D02*
G37*
G36*
X83228Y56693D02*
X80158D01*
X79896Y59274D01*
X83296D01*
X83228Y56693D01*
D02*
G37*
G36*
X77323D02*
X74252D01*
X74185Y59274D01*
X77585D01*
X77323Y56693D01*
D02*
G37*
G36*
X99974Y66466D02*
X100032Y66059D01*
X100025Y65997D01*
X99748Y65086D01*
X99700Y65042D01*
X99563Y64944D01*
X99397Y64796D01*
X99249Y64630D01*
X99120Y64449D01*
X99012Y64254D01*
X98927Y64048D01*
X98865Y63835D01*
X98828Y63615D01*
X98816Y63393D01*
X98828Y63171D01*
X98865Y62951D01*
X98927Y62738D01*
X99012Y62532D01*
X99120Y62337D01*
X99249Y62156D01*
X99397Y61990D01*
X99563Y61842D01*
X99744Y61713D01*
X99939Y61605D01*
X100145Y61520D01*
X100358Y61458D01*
X100200Y60268D01*
X99697Y60268D01*
X98725D01*
Y58168D01*
Y56068D01*
X99690Y56068D01*
X100334Y54880D01*
X100024Y54368D01*
X96025D01*
X96025Y54368D01*
X94920Y54596D01*
Y55868D01*
X94920D01*
Y60468D01*
X90120D01*
X89996Y61617D01*
Y63374D01*
X87996D01*
Y61024D01*
X87396D01*
Y63374D01*
X86459D01*
X86162Y63546D01*
X85449Y64124D01*
X85449Y64551D01*
Y67859D01*
X85567Y67976D01*
X85679Y68104D01*
X85774Y68246D01*
X85849Y68399D01*
X85904Y68560D01*
X85937Y68728D01*
X85948Y68898D01*
Y70388D01*
X85952Y70390D01*
X86186Y70530D01*
X86404Y70692D01*
X86606Y70875D01*
X86788Y71076D01*
X86950Y71295D01*
X87090Y71528D01*
X87207Y71774D01*
X87298Y72030D01*
X87364Y72294D01*
X87404Y72563D01*
X87418Y72835D01*
X87404Y73106D01*
X87364Y73375D01*
X87298Y73639D01*
X87207Y73895D01*
X87090Y74141D01*
X86950Y74375D01*
X86788Y74593D01*
X86606Y74795D01*
X86404Y74977D01*
X86186Y75139D01*
X85952Y75279D01*
X85706Y75396D01*
X85450Y75487D01*
X85186Y75553D01*
X84917Y75593D01*
X84646Y75607D01*
Y77756D01*
X82784D01*
X82461Y78921D01*
X82656Y79029D01*
X82837Y79157D01*
X83003Y79306D01*
X83151Y79471D01*
X83280Y79653D01*
X83388Y79848D01*
X83473Y80053D01*
X83534Y80267D01*
X83572Y80487D01*
X83584Y80709D01*
X83572Y80931D01*
X83534Y81150D01*
X84637Y81598D01*
X84802Y81638D01*
X99974Y66466D01*
D02*
G37*
G36*
X100825Y49768D02*
X100897Y48598D01*
Y24898D01*
X94121Y18123D01*
X89948D01*
Y17147D01*
X79343D01*
Y18123D01*
X73610D01*
Y13964D01*
X79343D01*
Y14940D01*
X89948D01*
Y13964D01*
X95682D01*
Y16562D01*
X102697Y23577D01*
X103180Y23529D01*
X103436Y23446D01*
X103897Y23151D01*
Y20984D01*
X103910Y20812D01*
X103951Y20643D01*
X104017Y20483D01*
X104107Y20336D01*
X104220Y20204D01*
X116762Y7662D01*
X116674Y7493D01*
X116549Y7190D01*
X116450Y6878D01*
X116379Y6558D01*
X116337Y6233D01*
X116322Y5906D01*
X116337Y5578D01*
X116379Y5253D01*
X116450Y4933D01*
X116549Y4621D01*
X116674Y4318D01*
X116826Y4027D01*
X117002Y3751D01*
X117201Y3491D01*
X117423Y3249D01*
X117511Y3168D01*
X117427Y2603D01*
X117074Y1969D01*
X56604D01*
Y7596D01*
X60600Y7596D01*
X60757Y7612D01*
X60908Y7657D01*
X61047Y7732D01*
X61168Y7832D01*
X61268Y7953D01*
X61343Y8092D01*
X61388Y8243D01*
X61404Y8400D01*
Y9125D01*
X62392Y9636D01*
X62604Y9636D01*
X63983D01*
Y11811D01*
Y13986D01*
X62604D01*
X62392Y13986D01*
X61404Y14497D01*
Y15000D01*
X61388Y15157D01*
X61343Y15308D01*
X61335Y15323D01*
X61574Y16100D01*
X61897Y16523D01*
X64776D01*
Y21364D01*
X64900Y21624D01*
X64980Y21723D01*
X65720Y22356D01*
X65838Y22393D01*
X67485D01*
Y21247D01*
X71666D01*
Y25894D01*
X72588Y26669D01*
X73999Y25258D01*
Y25197D01*
X74003Y25158D01*
Y21247D01*
X78184D01*
Y24860D01*
X80079Y26755D01*
X84646D01*
X84803Y26771D01*
X84953Y26816D01*
X85092Y26891D01*
X85214Y26991D01*
X85314Y27112D01*
X85388Y27251D01*
X85434Y27402D01*
X85449Y27559D01*
Y29915D01*
X85449Y30365D01*
X86162Y30942D01*
X86459Y31115D01*
X87396D01*
Y33465D01*
Y35815D01*
X85396D01*
Y33784D01*
X84196Y33142D01*
X84096Y33209D01*
Y34815D01*
X84096Y35175D01*
X84100Y35215D01*
X84096Y36015D01*
X84079D01*
X84032Y37816D01*
X84028Y37845D01*
Y39738D01*
X84791D01*
X84964Y39752D01*
X85132Y39792D01*
X85292Y39859D01*
X85440Y39949D01*
X85571Y40062D01*
X85923Y40413D01*
X86035Y40545D01*
X86126Y40692D01*
X86192Y40852D01*
X86232Y41021D01*
X86246Y41193D01*
Y41956D01*
X88798D01*
X89969Y41889D01*
X89970Y41889D01*
Y41889D01*
X95070D01*
Y46889D01*
X94182D01*
X94042Y46946D01*
X93833Y47087D01*
X93184Y48000D01*
X93172Y48222D01*
X93134Y48441D01*
X93098Y48568D01*
X93098Y48704D01*
X93471Y49425D01*
X93626Y49606D01*
X93749Y49697D01*
X94920Y49768D01*
X96025D01*
Y49768D01*
X100825Y49768D01*
D02*
G37*
G36*
X83296Y35215D02*
X79896D01*
X80158Y37795D01*
X83228D01*
X83296Y35215D01*
D02*
G37*
G36*
X67715Y76648D02*
X67803Y76556D01*
X67794Y76449D01*
Y71155D01*
X61020Y64380D01*
X60907Y64249D01*
X60817Y64101D01*
X60751Y63941D01*
X60710Y63773D01*
X60697Y63600D01*
Y60268D01*
X59355D01*
Y58168D01*
Y56068D01*
X60004D01*
X60335Y55568D01*
X59691Y54368D01*
X56655D01*
Y49768D01*
X61455D01*
Y49768D01*
X62561D01*
Y49768D01*
X63954D01*
X64174Y49606D01*
X64329Y49425D01*
X64702Y48704D01*
X64702Y48568D01*
X64666Y48441D01*
X64628Y48222D01*
X64616Y48000D01*
X63967Y47087D01*
X63758Y46946D01*
X63618Y46889D01*
X62411D01*
Y41889D01*
X67511D01*
Y41889D01*
X67511Y41889D01*
X68683Y41956D01*
X71234D01*
Y41193D01*
X71248Y41021D01*
X71288Y40852D01*
X71355Y40692D01*
X71445Y40545D01*
X71558Y40413D01*
X71909Y40062D01*
X72041Y39949D01*
X72188Y39859D01*
X72348Y39792D01*
X72517Y39752D01*
X72689Y39738D01*
X73452D01*
Y37845D01*
X73448Y37816D01*
X73401Y36015D01*
X73385D01*
X73381Y35218D01*
X73385Y35177D01*
Y33209D01*
X73285Y33142D01*
X72085Y33784D01*
Y35815D01*
X70085D01*
Y33465D01*
Y31115D01*
X71021D01*
X71318Y30942D01*
X72031Y30365D01*
X72031Y30073D01*
Y27559D01*
X72046Y27402D01*
X72092Y27251D01*
X72166Y27112D01*
X72266Y26991D01*
X72338Y26918D01*
X71563Y25997D01*
X69344D01*
X69285Y26001D01*
X66511D01*
X64776Y27735D01*
Y30721D01*
X59474D01*
Y44229D01*
X59461Y44402D01*
X59420Y44570D01*
X59354Y44730D01*
X59263Y44878D01*
X59151Y45009D01*
X50544Y53616D01*
X50572Y53778D01*
X50584Y54000D01*
X50572Y54222D01*
X50534Y54441D01*
X50473Y54655D01*
X50388Y54861D01*
X50280Y55056D01*
X50151Y55237D01*
X50003Y55403D01*
X49837Y55551D01*
X49656Y55680D01*
X49461Y55788D01*
X49255Y55873D01*
X49042Y55935D01*
X48822Y55972D01*
X48600Y55984D01*
X48378Y55972D01*
X48158Y55935D01*
X47945Y55873D01*
X47739Y55788D01*
X47544Y55680D01*
X47363Y55551D01*
X47197Y55403D01*
X47049Y55237D01*
X46920Y55056D01*
X46812Y54861D01*
X46727Y54655D01*
X46665Y54441D01*
X46628Y54222D01*
X46616Y54000D01*
X46628Y53778D01*
X46665Y53558D01*
X46727Y53345D01*
X46812Y53139D01*
X46920Y52944D01*
X47049Y52763D01*
X47197Y52597D01*
X47363Y52449D01*
X47544Y52320D01*
X47739Y52212D01*
X47945Y52127D01*
X48158Y52065D01*
X48378Y52028D01*
X48600Y52016D01*
X48822Y52028D01*
X48984Y52056D01*
X57267Y43772D01*
Y37945D01*
X56918Y37643D01*
X56915Y37642D01*
X56108Y37343D01*
X55957Y37388D01*
X55800Y37404D01*
X45094D01*
X45038Y37398D01*
X44982Y37396D01*
X44960Y37391D01*
X44938Y37388D01*
X44929Y37386D01*
X44898Y37461D01*
X44790Y37656D01*
X44662Y37837D01*
X44513Y38003D01*
X44347Y38151D01*
X44166Y38280D01*
X43971Y38388D01*
X43766Y38473D01*
X43552Y38535D01*
X43332Y38572D01*
X43110Y38584D01*
X42888Y38572D01*
X42557Y39713D01*
X42523Y39976D01*
X43455Y40907D01*
X46494D01*
Y45707D01*
X42313D01*
X41675Y46110D01*
X41362Y46687D01*
Y47100D01*
X40053D01*
Y47400D01*
X39753D01*
Y48492D01*
X39738D01*
X39241Y49692D01*
X66447Y76898D01*
X67715Y76648D01*
D02*
G37*
G36*
X55800Y24426D02*
X53241D01*
X53060Y24582D01*
X52895Y24870D01*
X52891Y24885D01*
X52933Y25001D01*
X52995Y25246D01*
X53032Y25496D01*
X53044Y25748D01*
Y27413D01*
X50972D01*
Y23226D01*
X50974Y23226D01*
X51219Y23287D01*
X51457Y23372D01*
X51685Y23480D01*
X51846Y23577D01*
X52033Y23523D01*
X52346Y23317D01*
Y15748D01*
X52361Y15591D01*
X52407Y15440D01*
X52481Y15301D01*
X52581Y15180D01*
X52703Y15080D01*
X52842Y15005D01*
X52993Y14960D01*
X53150Y14944D01*
X57087D01*
X57243Y14960D01*
X57377Y15000D01*
X60600D01*
Y8400D01*
X55800Y8400D01*
Y1969D01*
X12000D01*
Y36600D01*
X21835D01*
X21847Y36378D01*
X21884Y36158D01*
X21946Y35945D01*
X22031Y35739D01*
X22069Y35670D01*
X22036Y35588D01*
X21838Y35170D01*
X21421Y34970D01*
X20969D01*
Y31516D01*
X20369D01*
Y34970D01*
X18888D01*
Y31951D01*
X18617Y31804D01*
X18388Y31772D01*
X18275Y31897D01*
X18088Y32067D01*
X17885Y32217D01*
X17669Y32347D01*
X17441Y32455D01*
X17203Y32540D01*
X16958Y32601D01*
X16957Y32601D01*
Y27913D01*
Y23226D01*
X16958Y23226D01*
X17203Y23287D01*
X17441Y23372D01*
X17669Y23480D01*
X17885Y23610D01*
X18088Y23760D01*
X18275Y23930D01*
X18445Y24117D01*
X18595Y24319D01*
X18725Y24536D01*
X18833Y24764D01*
X18918Y25001D01*
X18979Y25246D01*
X19016Y25496D01*
X19028Y25748D01*
Y28061D01*
X20639D01*
X20941Y27621D01*
X20938Y27561D01*
X20788Y27455D01*
X20614Y27299D01*
X20458Y27125D01*
X20323Y26935D01*
X20210Y26730D01*
X20121Y26515D01*
X20056Y26290D01*
X20017Y26060D01*
X20004Y25827D01*
X20017Y25594D01*
X20056Y25363D01*
X20121Y25139D01*
X20210Y24923D01*
X20323Y24719D01*
X20458Y24528D01*
X20614Y24354D01*
X20788Y24198D01*
X20978Y24063D01*
X21183Y23950D01*
X21399Y23861D01*
X21623Y23796D01*
X21853Y23757D01*
X22087Y23744D01*
X22320Y23757D01*
X22550Y23796D01*
X22774Y23861D01*
X22990Y23950D01*
X23195Y24063D01*
X23385Y24198D01*
X23559Y24354D01*
X23715Y24528D01*
X23850Y24719D01*
X23963Y24923D01*
X24053Y25139D01*
X24117Y25363D01*
X24156Y25594D01*
X24169Y25827D01*
X24156Y26060D01*
X24117Y26290D01*
X24053Y26515D01*
X23963Y26730D01*
X23850Y26935D01*
X23715Y27125D01*
X23559Y27299D01*
X23490Y27361D01*
X23592Y27744D01*
X23675Y27861D01*
X28400D01*
X28424Y27778D01*
X28467Y27675D01*
X28527Y27529D01*
X28658Y27292D01*
X28814Y27072D01*
X28994Y26871D01*
X29968Y25897D01*
X30169Y25717D01*
X30390Y25560D01*
X30626Y25430D01*
X30772Y25369D01*
X30876Y25326D01*
X31135Y25252D01*
X31402Y25206D01*
X31671Y25191D01*
X33289D01*
X33559Y25206D01*
X33825Y25252D01*
X34085Y25326D01*
X34188Y25369D01*
X34334Y25430D01*
X34571Y25560D01*
X34791Y25717D01*
X34993Y25897D01*
X35967Y26871D01*
X36147Y27072D01*
X36303Y27292D01*
X36434Y27529D01*
X36494Y27675D01*
X36533Y27770D01*
X36995Y27861D01*
X36995Y27861D01*
X36995Y27861D01*
X43254D01*
X43337Y27744D01*
X43439Y27361D01*
X43370Y27299D01*
X43214Y27125D01*
X43079Y26935D01*
X42966Y26730D01*
X42877Y26515D01*
X42812Y26290D01*
X42773Y26060D01*
X42760Y25827D01*
X42773Y25594D01*
X42812Y25363D01*
X42877Y25139D01*
X42966Y24923D01*
X43079Y24719D01*
X43214Y24528D01*
X43370Y24354D01*
X43544Y24198D01*
X43734Y24063D01*
X43939Y23950D01*
X44155Y23861D01*
X44379Y23796D01*
X44609Y23757D01*
X44842Y23744D01*
X45076Y23757D01*
X45306Y23796D01*
X45530Y23861D01*
X45746Y23950D01*
X45951Y24063D01*
X46141Y24198D01*
X46315Y24354D01*
X46471Y24528D01*
X46606Y24719D01*
X46719Y24923D01*
X46808Y25139D01*
X46873Y25363D01*
X46912Y25594D01*
X46925Y25827D01*
X46912Y26060D01*
X46873Y26290D01*
X46808Y26515D01*
X46719Y26730D01*
X46606Y26935D01*
X46471Y27125D01*
X46315Y27299D01*
X46141Y27455D01*
X45991Y27561D01*
X45988Y27621D01*
X46290Y28061D01*
X47901D01*
Y25748D01*
X47913Y25496D01*
X47950Y25246D01*
X48012Y25001D01*
X48097Y24764D01*
X48204Y24536D01*
X48334Y24319D01*
X48485Y24117D01*
X48654Y23930D01*
X48841Y23760D01*
X49044Y23610D01*
X49260Y23480D01*
X49488Y23372D01*
X49726Y23287D01*
X49971Y23226D01*
X49972Y23226D01*
Y27913D01*
Y32601D01*
X49971Y32601D01*
X49726Y32540D01*
X49488Y32455D01*
X49260Y32347D01*
X49044Y32217D01*
X48841Y32067D01*
X48654Y31897D01*
X48541Y31772D01*
X48312Y31804D01*
X48041Y31951D01*
Y34970D01*
X46560D01*
Y31516D01*
X45960D01*
Y34970D01*
X45509D01*
X45091Y35170D01*
X44893Y35588D01*
X44860Y35670D01*
X44898Y35739D01*
X44983Y35945D01*
X45045Y36158D01*
X45082Y36378D01*
X45094Y36600D01*
X55800D01*
Y24426D01*
D02*
G37*
G36*
X77585Y35215D02*
X79896D01*
Y31715D01*
X83296D01*
X84646Y30365D01*
Y27559D01*
X79747D01*
X77384Y25197D01*
X74803D01*
Y25591D01*
X72835Y27559D01*
Y30365D01*
X74185Y31715D01*
X77585D01*
Y35201D01*
X74185Y35215D01*
X74252Y37795D01*
X77323D01*
X77585Y35215D01*
D02*
G37*
G36*
X57087Y22244D02*
X58071Y21260D01*
Y17323D01*
X57087Y16339D01*
Y15748D01*
X53150D01*
Y23622D01*
X57087D01*
Y22244D01*
D02*
G37*
G36*
X4686Y6568D02*
X9200D01*
Y5887D01*
X4686D01*
Y4200D01*
X4079D01*
Y8255D01*
X4686D01*
Y6568D01*
D02*
G37*
%LPC*%
G36*
X27492Y185602D02*
X24475D01*
X24490Y185485D01*
X24557Y185182D01*
X24651Y184886D01*
X24769Y184599D01*
X24912Y184324D01*
X25079Y184063D01*
X25268Y183817D01*
X25478Y183588D01*
X25706Y183378D01*
X25952Y183189D01*
X26214Y183023D01*
X26489Y182879D01*
X26776Y182761D01*
X27072Y182667D01*
X27375Y182600D01*
X27492Y182585D01*
Y185602D01*
D02*
G37*
G36*
X31510D02*
X28492D01*
Y182585D01*
X28610Y182600D01*
X28912Y182667D01*
X29208Y182761D01*
X29495Y182879D01*
X29770Y183023D01*
X30032Y183189D01*
X30278Y183378D01*
X30507Y183588D01*
X30716Y183817D01*
X30905Y184063D01*
X31072Y184324D01*
X31215Y184599D01*
X31334Y184886D01*
X31427Y185182D01*
X31494Y185485D01*
X31510Y185602D01*
D02*
G37*
G36*
X8214Y187200D02*
X7386D01*
X6575Y187039D01*
X5810Y186722D01*
X5123Y186262D01*
X4538Y185677D01*
X4078Y184989D01*
X3761Y184225D01*
X3600Y183414D01*
Y182586D01*
X3761Y181775D01*
X4078Y181010D01*
X4538Y180323D01*
X5123Y179738D01*
X5810Y179278D01*
X6575Y178961D01*
X7386Y178800D01*
X8214D01*
X9025Y178961D01*
X9789Y179278D01*
X10477Y179738D01*
X11062Y180323D01*
X11522Y181010D01*
X11839Y181775D01*
X12000Y182586D01*
Y183414D01*
X11839Y184225D01*
X11522Y184989D01*
X11062Y185677D01*
X10477Y186262D01*
X9789Y186722D01*
X9025Y187039D01*
X8214Y187200D01*
D02*
G37*
G36*
X21745Y179855D02*
X14239D01*
Y172350D01*
X21745D01*
Y179855D01*
D02*
G37*
G36*
X33033Y162636D02*
X31928D01*
X31833Y162636D01*
X27128D01*
Y159596D01*
X26688Y159156D01*
X26559Y159134D01*
X26345Y159073D01*
X26139Y158988D01*
X25944Y158880D01*
X25763Y158751D01*
X25597Y158603D01*
X25449Y158437D01*
X25320Y158256D01*
X25212Y158061D01*
X25127Y157855D01*
X25065Y157641D01*
X25028Y157422D01*
X25016Y157200D01*
X25028Y156978D01*
X25065Y156758D01*
X25127Y156545D01*
X25212Y156339D01*
X25320Y156144D01*
X25449Y155963D01*
X25597Y155797D01*
X25763Y155649D01*
X25944Y155520D01*
X26139Y155412D01*
X26345Y155327D01*
X26559Y155265D01*
X26778Y155228D01*
X27000Y155216D01*
X27222Y155228D01*
X27441Y155265D01*
X27655Y155327D01*
X27861Y155412D01*
X28056Y155520D01*
X28237Y155649D01*
X28403Y155797D01*
X28551Y155963D01*
X28680Y156144D01*
X28788Y156339D01*
X28873Y156545D01*
X28934Y156758D01*
X28972Y156978D01*
X28984Y157200D01*
X29732Y157878D01*
X29895Y157975D01*
X30070Y158036D01*
X31833D01*
X31928Y158036D01*
X33033D01*
X33128Y158036D01*
X35814D01*
X35917Y157971D01*
X36768Y157200D01*
X36780Y156978D01*
X36817Y156758D01*
X36879Y156545D01*
X36964Y156339D01*
X37072Y156144D01*
X37200Y155963D01*
X37349Y155797D01*
X37514Y155649D01*
X37696Y155520D01*
X37891Y155412D01*
X38096Y155327D01*
X38310Y155265D01*
X38530Y155228D01*
X38752Y155216D01*
X38974Y155228D01*
X39193Y155265D01*
X39407Y155327D01*
X39613Y155412D01*
X39807Y155520D01*
X39989Y155649D01*
X40155Y155797D01*
X40303Y155963D01*
X40432Y156144D01*
X40539Y156339D01*
X40624Y156545D01*
X40686Y156758D01*
X40723Y156978D01*
X40736Y157200D01*
X40723Y157422D01*
X40686Y157641D01*
X40624Y157855D01*
X40539Y158061D01*
X40432Y158256D01*
X40303Y158437D01*
X40155Y158603D01*
X39989Y158751D01*
X39807Y158880D01*
X39613Y158988D01*
X39407Y159073D01*
X39193Y159134D01*
X38974Y159172D01*
X38752Y159184D01*
X38010Y159897D01*
X37876Y160084D01*
X37833Y160178D01*
Y162636D01*
X33128D01*
X33033Y162636D01*
D02*
G37*
G36*
X107492Y185602D02*
X104475D01*
X104490Y185485D01*
X104557Y185182D01*
X104650Y184886D01*
X104769Y184599D01*
X104912Y184324D01*
X105079Y184063D01*
X105268Y183817D01*
X105478Y183588D01*
X105706Y183378D01*
X105952Y183189D01*
X106214Y183023D01*
X106489Y182879D01*
X106776Y182761D01*
X107072Y182667D01*
X107375Y182600D01*
X107492Y182585D01*
Y185602D01*
D02*
G37*
G36*
X87492D02*
X84475D01*
X84490Y185485D01*
X84557Y185182D01*
X84650Y184886D01*
X84769Y184599D01*
X84912Y184324D01*
X85079Y184063D01*
X85268Y183817D01*
X85478Y183588D01*
X85706Y183378D01*
X85952Y183189D01*
X86214Y183023D01*
X86489Y182879D01*
X86776Y182761D01*
X87072Y182667D01*
X87375Y182600D01*
X87492Y182585D01*
Y185602D01*
D02*
G37*
G36*
X67492D02*
X64475D01*
X64490Y185485D01*
X64557Y185182D01*
X64650Y184886D01*
X64769Y184599D01*
X64912Y184324D01*
X65079Y184063D01*
X65268Y183817D01*
X65478Y183588D01*
X65706Y183378D01*
X65952Y183189D01*
X66214Y183023D01*
X66489Y182879D01*
X66776Y182761D01*
X67072Y182667D01*
X67375Y182600D01*
X67492Y182585D01*
Y185602D01*
D02*
G37*
G36*
X111510D02*
X108492D01*
Y182585D01*
X108610Y182600D01*
X108913Y182667D01*
X109208Y182761D01*
X109495Y182879D01*
X109770Y183023D01*
X110032Y183189D01*
X110278Y183378D01*
X110507Y183588D01*
X110716Y183817D01*
X110905Y184063D01*
X111072Y184324D01*
X111215Y184599D01*
X111334Y184886D01*
X111427Y185182D01*
X111494Y185485D01*
X111510Y185602D01*
D02*
G37*
G36*
X91510D02*
X88492D01*
Y182585D01*
X88610Y182600D01*
X88912Y182667D01*
X89208Y182761D01*
X89495Y182879D01*
X89770Y183023D01*
X90032Y183189D01*
X90278Y183378D01*
X90507Y183588D01*
X90716Y183817D01*
X90905Y184063D01*
X91072Y184324D01*
X91215Y184599D01*
X91334Y184886D01*
X91427Y185182D01*
X91494Y185485D01*
X91510Y185602D01*
D02*
G37*
G36*
X71510D02*
X68492D01*
Y182585D01*
X68610Y182600D01*
X68913Y182667D01*
X69208Y182761D01*
X69495Y182879D01*
X69770Y183023D01*
X70032Y183189D01*
X70278Y183378D01*
X70507Y183588D01*
X70716Y183817D01*
X70905Y184063D01*
X71072Y184324D01*
X71215Y184599D01*
X71334Y184886D01*
X71427Y185182D01*
X71494Y185485D01*
X71510Y185602D01*
D02*
G37*
G36*
X118614Y183000D02*
X117786D01*
X116975Y182839D01*
X116210Y182522D01*
X115523Y182062D01*
X114938Y181477D01*
X114478Y180789D01*
X114161Y180025D01*
X114000Y179214D01*
Y178386D01*
X114161Y177575D01*
X114478Y176811D01*
X114938Y176123D01*
X115523Y175538D01*
X116210Y175078D01*
X116975Y174761D01*
X117786Y174600D01*
X118614D01*
X119425Y174761D01*
X120189Y175078D01*
X120877Y175538D01*
X121462Y176123D01*
X121922Y176811D01*
X122239Y177575D01*
X122400Y178386D01*
Y179214D01*
X122239Y180025D01*
X121922Y180789D01*
X121462Y181477D01*
X120877Y182062D01*
X120189Y182522D01*
X119425Y182839D01*
X118614Y183000D01*
D02*
G37*
G36*
X107992Y179859D02*
X107665Y179844D01*
X107340Y179802D01*
X107020Y179731D01*
X106707Y179632D01*
X106405Y179507D01*
X106114Y179355D01*
X105838Y179179D01*
X105578Y178980D01*
X105336Y178759D01*
X105115Y178517D01*
X104915Y178257D01*
X104739Y177980D01*
X104588Y177690D01*
X104462Y177387D01*
X104364Y177075D01*
X104293Y176755D01*
X104250Y176430D01*
X104236Y176102D01*
X104250Y175775D01*
X104293Y175450D01*
X104364Y175130D01*
X104462Y174818D01*
X104588Y174515D01*
X104739Y174224D01*
X104915Y173948D01*
X105115Y173688D01*
X105336Y173446D01*
X105578Y173225D01*
X105838Y173025D01*
X106114Y172849D01*
X106405Y172698D01*
X106707Y172573D01*
X107020Y172474D01*
X107340Y172403D01*
X107665Y172360D01*
X107992Y172346D01*
X108319Y172360D01*
X108644Y172403D01*
X108964Y172474D01*
X109277Y172573D01*
X109580Y172698D01*
X109870Y172849D01*
X110147Y173025D01*
X110407Y173225D01*
X110648Y173446D01*
X110870Y173688D01*
X111069Y173948D01*
X111245Y174224D01*
X111397Y174515D01*
X111522Y174818D01*
X111620Y175130D01*
X111691Y175450D01*
X111734Y175775D01*
X111749Y176102D01*
X111734Y176430D01*
X111691Y176755D01*
X111620Y177075D01*
X111522Y177387D01*
X111397Y177690D01*
X111245Y177980D01*
X111069Y178257D01*
X110870Y178517D01*
X110648Y178759D01*
X110407Y178980D01*
X110147Y179179D01*
X109870Y179355D01*
X109580Y179507D01*
X109277Y179632D01*
X108964Y179731D01*
X108644Y179802D01*
X108319Y179844D01*
X107992Y179859D01*
D02*
G37*
G36*
X97992D02*
X97665Y179844D01*
X97340Y179802D01*
X97020Y179731D01*
X96707Y179632D01*
X96405Y179507D01*
X96114Y179355D01*
X95838Y179179D01*
X95578Y178980D01*
X95336Y178759D01*
X95115Y178517D01*
X94915Y178257D01*
X94739Y177980D01*
X94588Y177690D01*
X94462Y177387D01*
X94364Y177075D01*
X94293Y176755D01*
X94250Y176430D01*
X94236Y176102D01*
X94250Y175775D01*
X94293Y175450D01*
X94364Y175130D01*
X94462Y174818D01*
X94588Y174515D01*
X94739Y174224D01*
X94915Y173948D01*
X95115Y173688D01*
X95336Y173446D01*
X95578Y173225D01*
X95838Y173025D01*
X96114Y172849D01*
X96405Y172698D01*
X96707Y172573D01*
X97020Y172474D01*
X97340Y172403D01*
X97665Y172360D01*
X97992Y172346D01*
X98320Y172360D01*
X98644Y172403D01*
X98964Y172474D01*
X99277Y172573D01*
X99580Y172698D01*
X99870Y172849D01*
X100147Y173025D01*
X100407Y173225D01*
X100648Y173446D01*
X100870Y173688D01*
X101069Y173948D01*
X101245Y174224D01*
X101397Y174515D01*
X101522Y174818D01*
X101620Y175130D01*
X101691Y175450D01*
X101734Y175775D01*
X101749Y176102D01*
X101734Y176430D01*
X101691Y176755D01*
X101620Y177075D01*
X101522Y177387D01*
X101397Y177690D01*
X101245Y177980D01*
X101069Y178257D01*
X100870Y178517D01*
X100648Y178759D01*
X100407Y178980D01*
X100147Y179179D01*
X99870Y179355D01*
X99580Y179507D01*
X99277Y179632D01*
X98964Y179731D01*
X98644Y179802D01*
X98320Y179844D01*
X97992Y179859D01*
D02*
G37*
G36*
X87992D02*
X87665Y179844D01*
X87340Y179802D01*
X87020Y179731D01*
X86707Y179632D01*
X86405Y179507D01*
X86114Y179355D01*
X85838Y179179D01*
X85578Y178980D01*
X85336Y178759D01*
X85115Y178517D01*
X84915Y178257D01*
X84739Y177980D01*
X84588Y177690D01*
X84462Y177387D01*
X84364Y177075D01*
X84293Y176755D01*
X84250Y176430D01*
X84236Y176102D01*
X84250Y175775D01*
X84293Y175450D01*
X84364Y175130D01*
X84462Y174818D01*
X84588Y174515D01*
X84739Y174224D01*
X84915Y173948D01*
X85115Y173688D01*
X85336Y173446D01*
X85578Y173225D01*
X85838Y173025D01*
X86114Y172849D01*
X86405Y172698D01*
X86707Y172573D01*
X87020Y172474D01*
X87340Y172403D01*
X87665Y172360D01*
X87992Y172346D01*
X88319Y172360D01*
X88644Y172403D01*
X88964Y172474D01*
X89277Y172573D01*
X89580Y172698D01*
X89870Y172849D01*
X90147Y173025D01*
X90407Y173225D01*
X90648Y173446D01*
X90870Y173688D01*
X91069Y173948D01*
X91245Y174224D01*
X91396Y174515D01*
X91522Y174818D01*
X91620Y175130D01*
X91691Y175450D01*
X91734Y175775D01*
X91748Y176102D01*
X91734Y176430D01*
X91691Y176755D01*
X91620Y177075D01*
X91522Y177387D01*
X91396Y177690D01*
X91245Y177980D01*
X91069Y178257D01*
X90870Y178517D01*
X90648Y178759D01*
X90407Y178980D01*
X90147Y179179D01*
X89870Y179355D01*
X89580Y179507D01*
X89277Y179632D01*
X88964Y179731D01*
X88644Y179802D01*
X88319Y179844D01*
X87992Y179859D01*
D02*
G37*
G36*
X67992D02*
X67665Y179844D01*
X67340Y179802D01*
X67020Y179731D01*
X66707Y179632D01*
X66405Y179507D01*
X66114Y179355D01*
X65838Y179179D01*
X65578Y178980D01*
X65336Y178759D01*
X65115Y178517D01*
X64915Y178257D01*
X64739Y177980D01*
X64588Y177690D01*
X64462Y177387D01*
X64364Y177075D01*
X64293Y176755D01*
X64250Y176430D01*
X64236Y176102D01*
X64250Y175775D01*
X64293Y175450D01*
X64364Y175130D01*
X64462Y174818D01*
X64588Y174515D01*
X64739Y174224D01*
X64915Y173948D01*
X65115Y173688D01*
X65336Y173446D01*
X65578Y173225D01*
X65838Y173025D01*
X66114Y172849D01*
X66405Y172698D01*
X66707Y172573D01*
X67020Y172474D01*
X67340Y172403D01*
X67665Y172360D01*
X67992Y172346D01*
X68319Y172360D01*
X68644Y172403D01*
X68964Y172474D01*
X69277Y172573D01*
X69580Y172698D01*
X69870Y172849D01*
X70147Y173025D01*
X70407Y173225D01*
X70648Y173446D01*
X70870Y173688D01*
X71069Y173948D01*
X71245Y174224D01*
X71396Y174515D01*
X71522Y174818D01*
X71621Y175130D01*
X71691Y175450D01*
X71734Y175775D01*
X71749Y176102D01*
X71734Y176430D01*
X71691Y176755D01*
X71621Y177075D01*
X71522Y177387D01*
X71396Y177690D01*
X71245Y177980D01*
X71069Y178257D01*
X70870Y178517D01*
X70648Y178759D01*
X70407Y178980D01*
X70147Y179179D01*
X69870Y179355D01*
X69580Y179507D01*
X69277Y179632D01*
X68964Y179731D01*
X68644Y179802D01*
X68319Y179844D01*
X67992Y179859D01*
D02*
G37*
G36*
X87801Y155893D02*
Y153843D01*
X89801D01*
Y155893D01*
X87801D01*
D02*
G37*
G36*
X6406Y99423D02*
Y96406D01*
X9423D01*
X9408Y96523D01*
X9341Y96826D01*
X9247Y97122D01*
X9128Y97408D01*
X8985Y97684D01*
X8818Y97945D01*
X8630Y98191D01*
X8420Y98420D01*
X8191Y98630D01*
X7945Y98818D01*
X7684Y98985D01*
X7408Y99129D01*
X7122Y99247D01*
X6826Y99340D01*
X6523Y99408D01*
X6406Y99423D01*
D02*
G37*
G36*
X9423Y95406D02*
X6406D01*
Y92388D01*
X6523Y92403D01*
X6826Y92471D01*
X7122Y92564D01*
X7408Y92683D01*
X7684Y92826D01*
X7945Y92993D01*
X8191Y93181D01*
X8420Y93391D01*
X8630Y93620D01*
X8818Y93866D01*
X8985Y94127D01*
X9128Y94403D01*
X9247Y94689D01*
X9341Y94985D01*
X9408Y95288D01*
X9423Y95406D01*
D02*
G37*
G36*
X35265Y83558D02*
X33784D01*
Y80305D01*
X35265D01*
Y83558D01*
D02*
G37*
G36*
X33184D02*
X31703D01*
Y80305D01*
X33184D01*
Y83558D01*
D02*
G37*
G36*
X24209Y64661D02*
X22409D01*
Y62761D01*
X24209D01*
Y64661D01*
D02*
G37*
G36*
X26809Y61405D02*
X24809D01*
Y59355D01*
X26809D01*
Y61405D01*
D02*
G37*
G36*
X24209D02*
X22209D01*
Y59355D01*
X24209D01*
Y61405D01*
D02*
G37*
G36*
X26809Y58755D02*
X24809D01*
Y56705D01*
X26809D01*
Y58755D01*
D02*
G37*
G36*
X24209D02*
X22209D01*
Y56705D01*
X24209D01*
Y58755D01*
D02*
G37*
G36*
X5605Y50403D02*
X3731D01*
Y48528D01*
X5605D01*
Y50403D01*
D02*
G37*
G36*
X28646Y48492D02*
X27638D01*
Y47700D01*
X28646D01*
Y48492D01*
D02*
G37*
G36*
X5605Y47928D02*
X3731D01*
Y46054D01*
X5605D01*
Y47928D01*
D02*
G37*
G36*
X10200Y53584D02*
X9978Y53572D01*
X9759Y53535D01*
X9545Y53473D01*
X9339Y53388D01*
X9144Y53280D01*
X8963Y53151D01*
X8797Y53003D01*
X8649Y52837D01*
X8520Y52656D01*
X8412Y52461D01*
X8327Y52255D01*
X8265Y52042D01*
X8228Y51822D01*
X8216Y51600D01*
X8219Y51546D01*
X7998Y51096D01*
X7612Y50625D01*
X7483Y50519D01*
X7253Y50403D01*
X6205D01*
Y48228D01*
Y46054D01*
X8080D01*
Y48144D01*
X8364Y48460D01*
X9280Y48789D01*
X9411Y48630D01*
Y46026D01*
X14211D01*
Y50626D01*
X13230D01*
X12923Y50775D01*
X12875Y50813D01*
X12184Y51600D01*
X12172Y51822D01*
X12134Y52042D01*
X12073Y52255D01*
X11988Y52461D01*
X11880Y52656D01*
X11751Y52837D01*
X11603Y53003D01*
X11437Y53151D01*
X11256Y53280D01*
X11061Y53388D01*
X10855Y53473D01*
X10642Y53535D01*
X10422Y53572D01*
X10200Y53584D01*
D02*
G37*
G36*
X20704Y45507D02*
X18903D01*
Y43607D01*
X20704D01*
Y45507D01*
D02*
G37*
G36*
X18304D02*
X16503D01*
Y43607D01*
X18304D01*
Y45507D01*
D02*
G37*
G36*
X20704Y43007D02*
X18903D01*
Y41107D01*
X20704D01*
Y43007D01*
D02*
G37*
G36*
X18304D02*
X16503D01*
Y41107D01*
X18304D01*
Y43007D01*
D02*
G37*
G36*
X8280Y44698D02*
X3531D01*
Y39948D01*
X8280D01*
Y39948D01*
X9411Y39926D01*
Y39926D01*
X9471Y39926D01*
X14211D01*
Y44526D01*
X9411D01*
Y44526D01*
X8280Y44693D01*
Y44698D01*
D02*
G37*
G36*
X26178Y116826D02*
X24178D01*
Y114776D01*
X26178D01*
Y116826D01*
D02*
G37*
G36*
X92529Y98238D02*
X91442D01*
Y96953D01*
X92529D01*
Y98238D01*
D02*
G37*
G36*
X72232Y89170D02*
X70182D01*
Y87170D01*
X72232D01*
Y89170D01*
D02*
G37*
G36*
X74053Y83059D02*
X72053D01*
Y81009D01*
X74053D01*
Y83059D01*
D02*
G37*
G36*
X71453D02*
X69453D01*
Y81009D01*
X71453D01*
Y83059D01*
D02*
G37*
G36*
X53381Y79759D02*
X51481D01*
Y77959D01*
X53381D01*
Y79759D01*
D02*
G37*
G36*
X50881D02*
X48981D01*
Y77959D01*
X50881D01*
Y79759D01*
D02*
G37*
G36*
X53381Y77359D02*
X51481D01*
Y75559D01*
X53381D01*
Y77359D01*
D02*
G37*
G36*
X50881D02*
X48981D01*
Y75559D01*
X50881D01*
Y77359D01*
D02*
G37*
G36*
X47626Y77359D02*
X45576D01*
Y75359D01*
X47626D01*
Y77359D01*
D02*
G37*
G36*
X44976D02*
X42926D01*
Y75359D01*
X44976D01*
Y77359D01*
D02*
G37*
G36*
X98125Y60268D02*
X96225D01*
Y58468D01*
X98125D01*
Y60268D01*
D02*
G37*
G36*
Y57868D02*
X96225D01*
Y56068D01*
X98125D01*
Y57868D01*
D02*
G37*
G36*
X94870Y40589D02*
X92820D01*
Y38589D01*
X94870D01*
Y40589D01*
D02*
G37*
G36*
X92220D02*
X90170D01*
Y38589D01*
X92220D01*
Y40589D01*
D02*
G37*
G36*
X94870Y37989D02*
X92820D01*
Y35989D01*
X94870D01*
Y37989D01*
D02*
G37*
G36*
X92220D02*
X90170D01*
Y37056D01*
X90170Y36984D01*
X90168Y36934D01*
X90019Y35965D01*
X89050Y35816D01*
X89000Y35815D01*
X88929Y35815D01*
X87996D01*
Y33765D01*
X89996D01*
Y34747D01*
X89996Y34819D01*
X89997Y34869D01*
X90146Y35838D01*
X91115Y35987D01*
X91166Y35989D01*
X91237Y35989D01*
X92220D01*
Y37989D01*
D02*
G37*
G36*
X89996Y33165D02*
X87996D01*
Y31115D01*
X89996D01*
Y33165D01*
D02*
G37*
G36*
X64583Y13986D02*
Y12111D01*
X66173D01*
Y13986D01*
X64583D01*
D02*
G37*
G36*
X66173Y11511D02*
X64583D01*
Y9636D01*
X66173D01*
Y11511D01*
D02*
G37*
G36*
X95482Y9458D02*
X93115D01*
Y7879D01*
X95482D01*
Y9458D01*
D02*
G37*
G36*
X92515D02*
X90148D01*
Y7879D01*
X92515D01*
Y9458D01*
D02*
G37*
G36*
X79143D02*
X76776D01*
Y7879D01*
X79143D01*
Y9458D01*
D02*
G37*
G36*
X76176D02*
X73809D01*
Y7879D01*
X76176D01*
Y9458D01*
D02*
G37*
G36*
X95482Y7279D02*
X93115D01*
Y5699D01*
X95482D01*
Y7279D01*
D02*
G37*
G36*
X92515D02*
X90148D01*
Y5699D01*
X92515D01*
Y7279D01*
D02*
G37*
G36*
X79143D02*
X76776D01*
Y5699D01*
X79143D01*
Y7279D01*
D02*
G37*
G36*
X76176D02*
X73809D01*
Y5699D01*
X76176D01*
Y7279D01*
D02*
G37*
G36*
X108414Y12000D02*
X107586D01*
X106775Y11839D01*
X106010Y11522D01*
X105323Y11062D01*
X104738Y10477D01*
X104278Y9789D01*
X103961Y9025D01*
X103800Y8214D01*
Y7386D01*
X103961Y6575D01*
X104278Y5810D01*
X104738Y5123D01*
X105323Y4538D01*
X106010Y4078D01*
X106775Y3761D01*
X107586Y3600D01*
X108414D01*
X109225Y3761D01*
X109989Y4078D01*
X110677Y4538D01*
X111262Y5123D01*
X111722Y5810D01*
X112039Y6575D01*
X112200Y7386D01*
Y8214D01*
X112039Y9025D01*
X111722Y9789D01*
X111262Y10477D01*
X110677Y11062D01*
X109989Y11522D01*
X109225Y11839D01*
X108414Y12000D01*
D02*
G37*
G36*
X58755Y60268D02*
X56855D01*
Y58468D01*
X58755D01*
Y60268D01*
D02*
G37*
G36*
Y57868D02*
X56855D01*
Y56068D01*
X58755D01*
Y57868D01*
D02*
G37*
G36*
X41362Y48492D02*
X40354D01*
Y47700D01*
X41362D01*
Y48492D01*
D02*
G37*
G36*
X52394Y45507D02*
X50594D01*
Y43607D01*
X52394D01*
Y45507D01*
D02*
G37*
G36*
X49994D02*
X48194D01*
Y43607D01*
X49994D01*
Y45507D01*
D02*
G37*
G36*
X52394Y43007D02*
X50594D01*
Y41107D01*
X52394D01*
Y43007D01*
D02*
G37*
G36*
X49994D02*
X48194D01*
Y41107D01*
X49994D01*
Y43007D01*
D02*
G37*
G36*
X67311Y40589D02*
X65261D01*
Y38589D01*
X67311D01*
Y40589D01*
D02*
G37*
G36*
X64661D02*
X62611D01*
Y38589D01*
X64661D01*
Y40589D01*
D02*
G37*
G36*
Y37989D02*
X62611D01*
Y35989D01*
X64661D01*
Y37989D01*
D02*
G37*
G36*
X67311D02*
X65261D01*
Y35989D01*
X66244D01*
X66315Y35989D01*
X66365Y35987D01*
X67334Y35838D01*
X67483Y34869D01*
X67485Y34819D01*
X67485Y34747D01*
Y33765D01*
X69485D01*
Y35815D01*
X68552D01*
X68480Y35815D01*
X68430Y35816D01*
X67461Y35965D01*
X67312Y36934D01*
X67311Y36984D01*
X67311Y37056D01*
Y37989D01*
D02*
G37*
G36*
X69485Y33165D02*
X67485D01*
Y31115D01*
X69485D01*
Y33165D01*
D02*
G37*
G36*
X50972Y32601D02*
Y28413D01*
X53044D01*
Y30079D01*
X53032Y30331D01*
X52995Y30580D01*
X52933Y30825D01*
X52848Y31063D01*
X52740Y31291D01*
X52611Y31508D01*
X52460Y31710D01*
X52291Y31897D01*
X52104Y32067D01*
X51901Y32217D01*
X51685Y32347D01*
X51457Y32455D01*
X51219Y32540D01*
X50974Y32601D01*
X50972Y32601D01*
D02*
G37*
G36*
X15957Y32601D02*
X15955Y32601D01*
X15710Y32540D01*
X15473Y32455D01*
X15245Y32347D01*
X15028Y32217D01*
X14825Y32067D01*
X14638Y31897D01*
X14469Y31710D01*
X14319Y31508D01*
X14189Y31291D01*
X14081Y31063D01*
X13996Y30825D01*
X13935Y30580D01*
X13897Y30331D01*
X13885Y30079D01*
Y28413D01*
X15957D01*
Y32601D01*
D02*
G37*
G36*
Y27413D02*
X13885D01*
Y25748D01*
X13897Y25496D01*
X13935Y25246D01*
X13996Y25001D01*
X14081Y24764D01*
X14189Y24536D01*
X14319Y24319D01*
X14469Y24117D01*
X14638Y23930D01*
X14825Y23760D01*
X15028Y23610D01*
X15245Y23480D01*
X15473Y23372D01*
X15710Y23287D01*
X15955Y23226D01*
X15957Y23226D01*
Y27413D01*
D02*
G37*
G36*
X59655Y13986D02*
X58065D01*
Y12111D01*
X59655D01*
Y13986D01*
D02*
G37*
G36*
X57465D02*
X55874D01*
Y12111D01*
X57465D01*
Y13986D01*
D02*
G37*
G36*
X16957Y15160D02*
Y11957D01*
X19028D01*
Y12638D01*
X19016Y12890D01*
X18979Y13139D01*
X18918Y13384D01*
X18833Y13622D01*
X18725Y13850D01*
X18595Y14066D01*
X18445Y14269D01*
X18275Y14456D01*
X18088Y14626D01*
X17885Y14776D01*
X17669Y14906D01*
X17441Y15014D01*
X17203Y15099D01*
X16958Y15160D01*
X16957Y15160D01*
D02*
G37*
G36*
X50972Y15160D02*
Y11957D01*
X53044D01*
Y12638D01*
X53032Y12890D01*
X52995Y13139D01*
X52933Y13384D01*
X52848Y13622D01*
X52740Y13850D01*
X52611Y14066D01*
X52460Y14269D01*
X52291Y14456D01*
X52104Y14626D01*
X51901Y14776D01*
X51685Y14906D01*
X51457Y15014D01*
X51219Y15099D01*
X50974Y15160D01*
X50972Y15160D01*
D02*
G37*
G36*
X49972D02*
X49971Y15160D01*
X49726Y15099D01*
X49488Y15014D01*
X49260Y14906D01*
X49044Y14776D01*
X48841Y14626D01*
X48654Y14456D01*
X48485Y14269D01*
X48334Y14066D01*
X48204Y13850D01*
X48097Y13622D01*
X48012Y13384D01*
X47950Y13139D01*
X47913Y12890D01*
X47901Y12638D01*
Y11957D01*
X49972D01*
Y15160D01*
D02*
G37*
G36*
X15957Y15160D02*
X15955Y15160D01*
X15710Y15099D01*
X15473Y15014D01*
X15245Y14906D01*
X15028Y14776D01*
X14825Y14626D01*
X14638Y14456D01*
X14469Y14269D01*
X14319Y14066D01*
X14189Y13850D01*
X14081Y13622D01*
X13996Y13384D01*
X13935Y13139D01*
X13897Y12890D01*
X13885Y12638D01*
Y11957D01*
X15957D01*
Y15160D01*
D02*
G37*
G36*
X59655Y11511D02*
X58065D01*
Y9636D01*
X59655D01*
Y11511D01*
D02*
G37*
G36*
X57465D02*
X55874D01*
Y9636D01*
X57465D01*
Y11511D01*
D02*
G37*
G36*
X19028Y10957D02*
X16957D01*
Y7753D01*
X16958Y7753D01*
X17203Y7815D01*
X17441Y7900D01*
X17669Y8008D01*
X17885Y8137D01*
X18088Y8288D01*
X18275Y8457D01*
X18445Y8644D01*
X18595Y8847D01*
X18725Y9063D01*
X18833Y9291D01*
X18918Y9529D01*
X18979Y9774D01*
X19016Y10024D01*
X19028Y10276D01*
Y10957D01*
D02*
G37*
G36*
X53044D02*
X50972D01*
Y7753D01*
X50974Y7753D01*
X51219Y7815D01*
X51457Y7900D01*
X51685Y8008D01*
X51901Y8137D01*
X52104Y8288D01*
X52291Y8457D01*
X52460Y8644D01*
X52611Y8847D01*
X52740Y9063D01*
X52848Y9291D01*
X52933Y9529D01*
X52995Y9774D01*
X53032Y10024D01*
X53044Y10276D01*
Y10957D01*
D02*
G37*
G36*
X49972D02*
X47901D01*
Y10276D01*
X47913Y10024D01*
X47950Y9774D01*
X48012Y9529D01*
X48097Y9291D01*
X48204Y9063D01*
X48334Y8847D01*
X48485Y8644D01*
X48654Y8457D01*
X48841Y8288D01*
X49044Y8137D01*
X49260Y8008D01*
X49488Y7900D01*
X49726Y7815D01*
X49971Y7753D01*
X49972Y7753D01*
Y10957D01*
D02*
G37*
G36*
X15957D02*
X13885D01*
Y10276D01*
X13897Y10024D01*
X13935Y9774D01*
X13996Y9529D01*
X14081Y9291D01*
X14189Y9063D01*
X14319Y8847D01*
X14469Y8644D01*
X14638Y8457D01*
X14825Y8288D01*
X15028Y8137D01*
X15245Y8008D01*
X15473Y7900D01*
X15710Y7815D01*
X15955Y7753D01*
X15957Y7753D01*
Y10957D01*
D02*
G37*
%LPD*%
D10*
X100800Y63360D02*
X102000Y62160D01*
X93602Y16043D02*
X102000Y24441D01*
X100800Y63360D02*
Y63393D01*
X102000Y24441D02*
Y62160D01*
X91142Y104134D02*
X96457D01*
X72600Y95400D02*
X105000Y63000D01*
X72600Y95400D02*
Y97800D01*
X105000Y20984D02*
Y63000D01*
X96457Y100394D02*
Y104134D01*
X96600Y108124D02*
X101400Y103324D01*
X96600Y108124D02*
Y115200D01*
X101400Y78600D02*
Y103324D01*
X90000Y93000D02*
X92449Y90551D01*
X88583Y94417D02*
X90000Y93000D01*
X62911Y55289D02*
X67234D01*
X61800Y56400D02*
Y63600D01*
Y56400D02*
X62911Y55289D01*
X68898Y70698D02*
Y76449D01*
X61800Y63600D02*
X68898Y70698D01*
X67234Y55289D02*
X67923Y54600D01*
X68400D01*
X77853Y77756D02*
Y80709D01*
Y74803D02*
Y77756D01*
X68898Y76449D02*
X70205Y77756D01*
X77853D01*
Y80709D02*
X81600D01*
X66600Y48000D02*
X67077D01*
X68289Y49213D01*
X70965D01*
X86516D02*
X89511D01*
X90723Y48000D01*
X91200D01*
X92815Y16043D02*
X93602D01*
X30609Y59105D02*
Y64961D01*
Y59055D02*
Y59105D01*
X32009Y60505D01*
X32059D01*
X34554Y63000D01*
X39600D01*
X58371Y29621D02*
Y44229D01*
X48600Y54000D02*
X58371Y44229D01*
Y29621D02*
X60039Y27953D01*
X61024D01*
X30609Y64961D02*
Y65061D01*
X29409Y66261D02*
X30609Y65061D01*
X29015Y66261D02*
X29409D01*
X24509Y70766D02*
X29015Y66261D01*
X92449Y90551D02*
X96457D01*
X88583Y94417D02*
Y96653D01*
X77400Y112800D02*
X82200Y108000D01*
X75000Y139200D02*
X77400Y136800D01*
Y112800D02*
Y136800D01*
X62008Y141992D02*
X64800Y139200D01*
X75000D01*
X62008Y141992D02*
Y148622D01*
X30609Y70866D02*
Y70966D01*
X31809Y72166D01*
X33633D01*
X45226Y83759D01*
X45276D01*
X24509Y70766D02*
Y70866D01*
X76476Y16043D02*
X92815D01*
X45276Y83759D02*
X45326D01*
X53967Y92400D01*
X59043D01*
X68204Y151602D02*
X70039Y153437D01*
X67913Y148622D02*
X68204Y148913D01*
Y151602D01*
X70039Y153437D02*
X70200D01*
X62663Y153263D02*
X63863D01*
X64200Y153600D01*
X28484Y105118D02*
Y110400D01*
X46200Y112200D02*
Y118200D01*
X40354Y119095D02*
X45305D01*
X46200Y118200D01*
X11711Y48326D02*
X11811D01*
X10511Y49526D02*
X11711Y48326D01*
X10511Y49526D02*
Y51289D01*
X10200Y51600D02*
X10511Y51289D01*
X78740Y43701D02*
Y47244D01*
Y39469D02*
Y43701D01*
X82284Y47244D02*
X86516D01*
X78740D02*
X82284D01*
X75197D02*
X78740D01*
X70965D02*
X75197D01*
X78740Y50787D02*
Y55020D01*
Y47244D02*
Y50787D01*
X16705Y125906D02*
X26400Y135600D01*
X5906Y125906D02*
X16705D01*
X26400Y135600D02*
X35400D01*
X36158Y134843D01*
X40354D01*
X34200Y132887D02*
X34350Y132737D01*
X29277Y128400D02*
X30733Y126943D01*
X28800Y128400D02*
X29277D01*
X38669Y157200D02*
X38752D01*
X35533Y160336D02*
X38669Y157200D01*
X29428Y160336D02*
X29528D01*
X27337Y158246D02*
X29428Y160336D01*
X27337Y157537D02*
Y158246D01*
X27000Y157200D02*
X27337Y157537D01*
X31306Y130905D02*
X40354D01*
X31200Y130800D02*
X31306Y130905D01*
X35433Y160336D02*
X35533D01*
X35553Y126969D02*
X40354D01*
X35528Y126943D02*
X35553Y126969D01*
X30733Y126943D02*
X35528D01*
X40348Y128931D02*
X40354Y128937D01*
X34206Y128931D02*
X40348D01*
X34200Y128924D02*
X34206Y128931D01*
X34350Y132737D02*
X40217D01*
X40354Y132874D01*
X75000Y169200D02*
X77996Y172196D01*
Y176098D01*
X77992Y176102D02*
X77996Y176098D01*
X77756Y148622D02*
X77934Y148800D01*
X81000D01*
X76200Y153000D02*
X79800D01*
X75787Y148622D02*
Y152587D01*
X76200Y153000D01*
X73809Y148632D02*
X73819Y148622D01*
X73809Y148632D02*
Y152991D01*
X73800Y153000D02*
X73809Y152991D01*
X68701Y164961D02*
X73161D01*
X74400Y166200D02*
X78876D01*
X73161Y164961D02*
X74400Y166200D01*
X82577Y162499D02*
X82677D01*
X78876Y166200D02*
X82577Y162499D01*
X62008Y152608D02*
X62663Y153263D01*
X62008Y148622D02*
Y152608D01*
X47400Y155400D02*
X50197Y152603D01*
Y148622D02*
Y152603D01*
X52165Y148622D02*
X52200Y148657D01*
Y153600D01*
X49800Y156000D02*
Y164295D01*
Y156000D02*
X52200Y153600D01*
X37992Y176102D02*
X49800Y164295D01*
X47992Y176102D02*
X52153Y171942D01*
Y157200D02*
Y171942D01*
X56102Y148622D02*
X56251Y148771D01*
Y152851D01*
X56400Y153000D01*
X51281Y83759D02*
X53322Y85800D01*
X58800D02*
X60000Y87000D01*
X53322Y85800D02*
X58800D01*
X51181Y83759D02*
X51281D01*
X60000Y87000D02*
Y91200D01*
X62008Y93208D02*
Y103347D01*
X60000Y91200D02*
X62008Y93208D01*
X60039Y93397D02*
Y103347D01*
X59043Y92400D02*
X60039Y93397D01*
X52183Y95417D02*
X52200Y95400D01*
X52183Y95417D02*
Y103329D01*
X28644Y95400D02*
X43800D01*
X23484Y100560D02*
X28644Y95400D01*
X23484Y100560D02*
Y105118D01*
X82928Y40842D02*
X84791D01*
X85142Y41193D01*
Y43056D01*
X72338Y41193D02*
Y43056D01*
Y41193D02*
X72689Y40842D01*
X74552D01*
X18484Y83858D02*
Y87600D01*
X21000Y90116D01*
X19685Y110772D02*
Y117029D01*
Y110772D02*
X21000Y109457D01*
Y90116D02*
Y109457D01*
X45600Y88800D02*
X50197Y93397D01*
X29684Y88800D02*
X45600D01*
X50197Y93397D02*
Y103347D01*
X45000Y90600D02*
X48228Y93828D01*
X26484Y90600D02*
X45000D01*
X48228Y93828D02*
Y103347D01*
X52165D02*
X52183Y103329D01*
X23484Y87600D02*
X26484Y90600D01*
X13189Y148622D02*
X48228D01*
X5906Y155905D02*
X13189Y148622D01*
X44194Y43207D02*
Y43307D01*
X40354Y39367D02*
X44194Y43207D01*
X40354Y31516D02*
Y39367D01*
X24703Y43207D02*
Y43307D01*
Y43207D02*
X28543Y39367D01*
Y31516D02*
Y39367D01*
X5906Y42323D02*
X11714D01*
X11811Y42226D01*
X54134Y148622D02*
Y166934D01*
X34133Y167636D02*
X35333Y166436D01*
X54134Y166934D02*
X57992Y170792D01*
Y176102D01*
X35400Y181800D02*
X53690D01*
X33600Y168236D02*
Y180000D01*
X34133Y167636D02*
Y167703D01*
X33600Y168236D02*
X34133Y167703D01*
X33600Y180000D02*
X35400Y181800D01*
X35333Y166436D02*
X35433D01*
X53690Y181800D02*
X57992Y186102D01*
X29528Y166436D02*
X29628D01*
X30828Y167636D01*
Y167736D01*
X32400Y169308D01*
Y180510D01*
X37992Y186102D01*
X5906Y135906D02*
X21230D01*
X24104Y138779D01*
X40354D01*
X5906Y145905D02*
X11063Y140748D01*
X40354D01*
X85394Y43307D02*
X86516D01*
X85142Y43056D02*
X85394Y43307D01*
X82677Y40591D02*
X82928Y40842D01*
X82677Y39469D02*
Y40591D01*
X70965Y43307D02*
X72087D01*
X72338Y43056D01*
X74552Y40842D02*
X74803Y40591D01*
Y39469D02*
Y40591D01*
X86516Y45276D02*
X91633D01*
X92520Y44389D01*
X65848Y45276D02*
X70965D01*
X64961Y44389D02*
X65848Y45276D01*
X86516Y51181D02*
X97538D01*
X98425Y52068D01*
X59942Y51181D02*
X70965D01*
X59055Y52068D02*
X59942Y51181D01*
X74400Y96600D02*
X106800Y64200D01*
X74400Y96600D02*
Y97800D01*
X106800Y29184D02*
Y64200D01*
X74110Y99891D02*
X108600Y65400D01*
Y37384D02*
Y65400D01*
X77933Y99067D02*
Y103169D01*
X110400Y45584D02*
Y66600D01*
X77933Y99067D02*
X110400Y66600D01*
Y45584D02*
X120079Y35906D01*
X106800Y29184D02*
X120079Y15905D01*
X108600Y37384D02*
X120079Y25905D01*
X105000Y20984D02*
X120079Y5906D01*
X112200Y53784D02*
Y67800D01*
X101400Y78600D02*
X112200Y67800D01*
Y53784D02*
X120079Y45906D01*
X103200Y79800D02*
X114000Y69000D01*
X103200Y79800D02*
Y114600D01*
X114000Y61984D02*
Y69000D01*
X105000Y80984D02*
Y115200D01*
Y80984D02*
X120079Y65905D01*
X114000Y61984D02*
X120079Y55905D01*
X77756Y103347D02*
X77933Y103169D01*
X72141Y100059D02*
Y103056D01*
Y100059D02*
X74400Y97800D01*
X74110Y99891D02*
Y103056D01*
X70172Y100228D02*
Y103056D01*
X73819Y103347D02*
X74110Y103056D01*
X70172Y100228D02*
X72600Y97800D01*
X100200Y117600D02*
X103200Y114600D01*
X89526Y117126D02*
X90000Y117600D01*
X100200D01*
X85630Y117126D02*
X89526D01*
X91200Y116400D02*
X95400D01*
X89957Y115157D02*
X91200Y116400D01*
X95400D02*
X96600Y115200D01*
X85630Y115157D02*
X89957D01*
X108600Y97384D02*
Y124200D01*
X103863Y128937D02*
X108600Y124200D01*
X110400Y105584D02*
Y124800D01*
X104295Y130905D02*
X110400Y124800D01*
X85630Y130905D02*
X104295D01*
X85630Y121063D02*
X101537D01*
X106800Y89184D02*
Y115800D01*
X101537Y121063D02*
X106800Y115800D01*
X85630Y119095D02*
X101105D01*
X105000Y115200D01*
X110400Y105584D02*
X120079Y95906D01*
X106800Y89184D02*
X120079Y75906D01*
X108600Y97384D02*
X120079Y85905D01*
X112200Y113784D02*
X114000Y111984D01*
X112200Y113784D02*
Y129000D01*
X114000Y111984D02*
Y111984D01*
Y111984D02*
X120079Y105905D01*
X85630Y128937D02*
X103863D01*
X106358Y134843D02*
X112200Y129000D01*
X114000Y121984D02*
X120079Y115905D01*
X114000Y121984D02*
Y129600D01*
X106789Y136811D02*
X114000Y129600D01*
Y131984D02*
Y132000D01*
X85630Y138779D02*
X107220D01*
X114000Y132000D01*
X85630Y134843D02*
X106358D01*
X85630Y136811D02*
X106789D01*
X114000Y131984D02*
X120079Y125906D01*
X85630Y140748D02*
X115236D01*
X120079Y135906D01*
X69882Y103347D02*
X70172Y103056D01*
X71850Y103347D02*
X72141Y103056D01*
X19685Y117029D02*
X19785D01*
X23484Y83858D02*
Y87600D01*
X40354Y108000D02*
Y111221D01*
X23819Y121063D02*
X40354D01*
X19785Y117029D02*
X23819Y121063D01*
X35190Y115157D02*
X40354D01*
X33433Y113400D02*
X35190Y115157D01*
X33000Y113400D02*
X33433D01*
X33484Y110400D02*
X36273Y113189D01*
X33484Y105118D02*
Y110400D01*
X36273Y113189D02*
X40354D01*
X28484Y87600D02*
X29684Y88800D01*
X28484Y83858D02*
Y87600D01*
D12*
X91454Y62374D02*
X91480Y62400D01*
X88996Y62374D02*
X91454D01*
X87696Y61074D02*
X88996Y62374D01*
X87696Y61024D02*
Y61074D01*
X69785Y61024D02*
Y61074D01*
X68485Y62374D02*
X69785Y61074D01*
X66026Y62374D02*
X68485D01*
X66000Y62400D02*
X66026Y62374D01*
D58*
X22087Y25827D02*
D03*
X44842D02*
D03*
D62*
X61024Y19291D02*
D03*
Y27953D02*
D03*
D63*
X40053Y47400D02*
D03*
X36746D02*
D03*
X28947D02*
D03*
X32254D02*
D03*
D64*
X84646Y72835D02*
D03*
X96457Y90551D02*
D03*
Y100394D02*
D03*
X108000Y7800D02*
D03*
X7800Y183000D02*
D03*
X118200Y178800D02*
D03*
D65*
X51181Y83759D02*
D03*
Y77659D02*
D03*
X11811Y42226D02*
D03*
Y48326D02*
D03*
X98425Y58168D02*
D03*
Y52068D02*
D03*
X64961D02*
D03*
Y58168D02*
D03*
X59055D02*
D03*
Y52068D02*
D03*
X82677Y162499D02*
D03*
Y156399D02*
D03*
X19685Y117029D02*
D03*
Y123129D02*
D03*
X35433Y160336D02*
D03*
Y166436D02*
D03*
X29528Y160336D02*
D03*
Y166436D02*
D03*
X92520Y52068D02*
D03*
Y58168D02*
D03*
D66*
X45276Y83759D02*
D03*
Y77659D02*
D03*
X64961Y38289D02*
D03*
Y44389D02*
D03*
X92520Y38289D02*
D03*
Y44389D02*
D03*
X76772Y156399D02*
D03*
Y162499D02*
D03*
X69882Y95570D02*
D03*
Y89470D02*
D03*
X57087Y95570D02*
D03*
Y89470D02*
D03*
D67*
X30609Y70866D02*
D03*
X24509D02*
D03*
Y64961D02*
D03*
X30609D02*
D03*
X71753Y74803D02*
D03*
X77853D02*
D03*
X18604Y43307D02*
D03*
X24703D02*
D03*
X50294D02*
D03*
X44194D02*
D03*
X87501Y147638D02*
D03*
X93601D02*
D03*
D68*
X24509Y59055D02*
D03*
X30609D02*
D03*
X77853Y80709D02*
D03*
X71753D02*
D03*
X81596Y61024D02*
D03*
X87696D02*
D03*
X75885D02*
D03*
X69785D02*
D03*
X81596Y33465D02*
D03*
X87696D02*
D03*
X75885D02*
D03*
X69785D02*
D03*
X93601Y153543D02*
D03*
X87501D02*
D03*
X93407Y125000D02*
D03*
X99507D02*
D03*
X93407Y113189D02*
D03*
X99507D02*
D03*
X32578Y124016D02*
D03*
X26478D02*
D03*
X32578Y117126D02*
D03*
X26478D02*
D03*
D69*
X57765Y11811D02*
D03*
X64283D02*
D03*
X69576Y23622D02*
D03*
X76094D02*
D03*
D70*
X76476Y16043D02*
D03*
X92815D02*
D03*
X76476Y7579D02*
D03*
X92815D02*
D03*
D71*
X5906Y42323D02*
D03*
Y48228D02*
D03*
D72*
X86024Y104134D02*
D03*
X91142D02*
D03*
Y96653D02*
D03*
X88583D02*
D03*
X86024D02*
D03*
D73*
X78740Y47244D02*
D03*
D74*
X70965Y43307D02*
D03*
Y45276D02*
D03*
Y47244D02*
D03*
Y49213D02*
D03*
Y51181D02*
D03*
X86516D02*
D03*
Y49213D02*
D03*
Y47244D02*
D03*
Y45276D02*
D03*
Y43307D02*
D03*
D75*
X74803Y55020D02*
D03*
X76772D02*
D03*
X78740D02*
D03*
X80709D02*
D03*
X82677D02*
D03*
Y39469D02*
D03*
X80709D02*
D03*
X78740D02*
D03*
X76772D02*
D03*
X74803D02*
D03*
D76*
X18484Y83858D02*
D03*
X23484D02*
D03*
X28484D02*
D03*
X33484D02*
D03*
X18484Y105118D02*
D03*
X23484D02*
D03*
X28484D02*
D03*
X33484D02*
D03*
D77*
X62992Y125984D02*
D03*
D78*
X48228Y148622D02*
D03*
X50197D02*
D03*
X52165D02*
D03*
X54134D02*
D03*
X56102D02*
D03*
X58071D02*
D03*
X60039D02*
D03*
X62008D02*
D03*
X63976D02*
D03*
X65945D02*
D03*
X67913D02*
D03*
X69882D02*
D03*
X71850D02*
D03*
X73819D02*
D03*
X75787D02*
D03*
X77756D02*
D03*
Y103347D02*
D03*
X75787D02*
D03*
X73819D02*
D03*
X71850D02*
D03*
X69882D02*
D03*
X67913D02*
D03*
X65945D02*
D03*
X63976D02*
D03*
X62008D02*
D03*
X60039D02*
D03*
X58071D02*
D03*
X56102D02*
D03*
X54134D02*
D03*
X52165D02*
D03*
X50197D02*
D03*
X48228D02*
D03*
D79*
X85630Y140748D02*
D03*
Y138779D02*
D03*
Y136811D02*
D03*
Y134843D02*
D03*
Y132874D02*
D03*
Y130905D02*
D03*
Y128937D02*
D03*
Y126969D02*
D03*
Y125000D02*
D03*
Y123031D02*
D03*
Y121063D02*
D03*
Y119095D02*
D03*
Y117126D02*
D03*
Y115157D02*
D03*
Y113189D02*
D03*
Y111221D02*
D03*
X40354D02*
D03*
Y113189D02*
D03*
Y115157D02*
D03*
Y117126D02*
D03*
Y119095D02*
D03*
Y121063D02*
D03*
Y123031D02*
D03*
Y125000D02*
D03*
Y126969D02*
D03*
Y128937D02*
D03*
Y130905D02*
D03*
Y132874D02*
D03*
Y134843D02*
D03*
Y136811D02*
D03*
Y138779D02*
D03*
Y140748D02*
D03*
D80*
X60039Y157480D02*
D03*
X68701D02*
D03*
X60039Y164961D02*
D03*
X68701D02*
D03*
D81*
X20669Y31516D02*
D03*
X46260D02*
D03*
X23819D02*
D03*
X43110D02*
D03*
D82*
X26575D02*
D03*
X28543D02*
D03*
X40354D02*
D03*
X38386D02*
D03*
X36417D02*
D03*
X30512D02*
D03*
X34449D02*
D03*
X32480D02*
D03*
D83*
X70866Y67298D02*
X71753Y68185D01*
X70866Y66929D02*
Y67298D01*
X86183Y96813D02*
Y105868D01*
X86024Y96653D02*
X86183Y96813D01*
Y105868D02*
X90339Y110024D01*
X79800Y132874D02*
X85630D01*
X63983Y143406D02*
Y148616D01*
Y143406D02*
X63989Y143400D01*
X71753Y68185D02*
Y74803D01*
X84646Y68898D02*
Y72835D01*
X82677Y66929D02*
X84646Y68898D01*
X90339Y110024D02*
Y110739D01*
X90861Y111261D01*
X91528D01*
X55887Y88270D02*
X57087Y89470D01*
X53470Y88270D02*
X55887D01*
X53400Y88200D02*
X53470Y88270D01*
X99507Y110262D02*
Y113189D01*
Y110262D02*
X100200Y109569D01*
Y109200D02*
Y109569D01*
X93407Y113139D02*
Y113189D01*
X91528Y111261D02*
X93407Y113139D01*
X40354Y136811D02*
X44411D01*
X46200Y138600D01*
X30000Y124016D02*
X32578D01*
X93407Y125000D02*
X93457Y124950D01*
X96000D01*
X69882Y93012D02*
Y95570D01*
X57037D02*
X57087D01*
X54806Y97800D02*
X57037Y95570D01*
X54600Y97800D02*
X54806D01*
X82777Y156399D02*
X86318Y159939D01*
X82677Y156399D02*
X82777D01*
X86318Y159939D02*
X86739D01*
X87000Y160200D01*
X76772Y156399D02*
X82677D01*
X15600Y123129D02*
X19685D01*
X17803Y105799D02*
X18484Y105118D01*
X17803Y105799D02*
Y109028D01*
X17400Y109431D02*
Y109800D01*
Y109431D02*
X17803Y109028D01*
X69782Y156399D02*
X76772D01*
X68701Y157480D02*
X69782Y156399D01*
X67913Y156693D02*
X68701Y157480D01*
X67913Y153600D02*
Y156693D01*
X65945Y148622D02*
X66035Y148713D01*
Y151722D01*
X67913Y153600D01*
X63976Y148622D02*
X63983Y148616D01*
X75885Y58168D02*
Y61024D01*
X64961Y58168D02*
X75885D01*
X81596D02*
Y61024D01*
Y58168D02*
X92520D01*
X80682Y144000D02*
X83863D01*
X70800Y141000D02*
X77682D01*
X80682Y144000D01*
X83863D02*
X86401Y146538D01*
X87501Y147538D02*
Y147638D01*
X86501Y146538D02*
X87501Y147538D01*
X86401Y146538D02*
X86501D01*
X71850Y148622D02*
X71941Y148531D01*
Y143522D02*
Y148531D01*
Y143522D02*
X72063Y143400D01*
X69882Y141918D02*
Y148622D01*
Y141918D02*
X70800Y141000D01*
X67913Y103347D02*
Y108600D01*
X75787Y103347D02*
Y108600D01*
X54134Y103347D02*
Y108600D01*
X58071Y143400D02*
Y148622D01*
X93601Y147638D02*
Y153543D01*
Y143400D02*
Y147638D01*
X43110Y31516D02*
Y36600D01*
X23819Y31516D02*
Y36600D01*
X91488Y123031D02*
X93407Y124950D01*
X85630Y123031D02*
X91488D01*
X69832Y95570D02*
X69882D01*
X68632Y96770D02*
X69832Y95570D01*
X68632Y96770D02*
Y98691D01*
X67913Y99410D02*
X68632Y98691D01*
X67913Y99410D02*
Y103347D01*
X58071Y96554D02*
Y103347D01*
X57087Y95570D02*
X58071Y96554D01*
X85630Y113189D02*
X93407D01*
Y124950D02*
Y125000D01*
X85630D02*
X93407D01*
X85630Y126969D02*
X91488D01*
X93407Y125050D01*
Y125000D02*
Y125050D01*
X33562Y123031D02*
X40354D01*
X32578Y124016D02*
X33562Y123031D01*
X32578Y124016D02*
X33562Y125000D01*
X40354D01*
X32578Y117126D02*
X40354D01*
D84*
X35155Y47875D02*
Y49012D01*
X33845Y47875D02*
Y49555D01*
X64306Y80016D01*
X35155Y49012D02*
X65616Y79473D01*
Y99741D01*
X64306Y80016D02*
Y99741D01*
X34263Y28574D02*
Y31516D01*
Y34896D01*
X34120Y35040D02*
Y41320D01*
X35155Y42355D01*
Y46926D01*
X32102Y41395D02*
X33845Y43139D01*
Y46926D01*
X31800Y41395D02*
X32102D01*
X34120Y35040D02*
X34263Y34896D01*
X65759Y103161D02*
X65945Y103347D01*
X65759Y99885D02*
Y103161D01*
X65616Y99741D02*
X65759Y99885D01*
X35155Y46926D02*
X35629Y47400D01*
X30512Y31516D02*
X30697Y31330D01*
X33289Y27600D02*
X34263Y28574D01*
X31671Y27600D02*
X33289D01*
X30697Y28574D02*
Y31330D01*
Y28574D02*
X31671Y27600D01*
X64162Y99885D02*
X64306Y99741D01*
X64162Y99885D02*
Y103161D01*
X63976Y103347D02*
X64162Y103161D01*
X33371Y47400D02*
X33845Y46926D01*
X36417Y31516D02*
Y36000D01*
X32810Y35040D02*
Y39188D01*
X31800Y40197D02*
Y40617D01*
Y40197D02*
X32810Y39188D01*
X32666Y31701D02*
Y34896D01*
X32810Y35040D01*
X32480Y31516D02*
X32666Y31701D01*
X33371Y47400D02*
X33845Y47875D01*
X32254Y47400D02*
X33371D01*
X35629D02*
X36746D01*
X35155Y47875D02*
X35629Y47400D01*
D85*
X61024Y27953D02*
X62008D01*
X65764Y24197D01*
X69285D01*
X69576Y23906D01*
Y23622D02*
Y23906D01*
D86*
X60039Y148622D02*
Y157480D01*
D87*
X5906Y95906D02*
D03*
Y165905D02*
D03*
Y155905D02*
D03*
Y145905D02*
D03*
Y135906D02*
D03*
Y125906D02*
D03*
Y115905D02*
D03*
Y105905D02*
D03*
Y85905D02*
D03*
X120079Y165905D02*
D03*
Y5906D02*
D03*
Y15905D02*
D03*
Y25905D02*
D03*
Y35906D02*
D03*
Y45906D02*
D03*
Y55905D02*
D03*
Y65905D02*
D03*
Y75906D02*
D03*
Y85905D02*
D03*
Y95906D02*
D03*
Y105905D02*
D03*
Y115905D02*
D03*
Y125906D02*
D03*
Y135906D02*
D03*
Y145905D02*
D03*
Y155905D02*
D03*
X107992Y186102D02*
D03*
Y176102D02*
D03*
X97992Y186102D02*
D03*
Y176102D02*
D03*
X87992Y186102D02*
D03*
Y176102D02*
D03*
X77992Y186102D02*
D03*
Y176102D02*
D03*
X67992Y186102D02*
D03*
Y176102D02*
D03*
X57992Y186102D02*
D03*
Y176102D02*
D03*
X47992Y186102D02*
D03*
Y176102D02*
D03*
X37992Y186102D02*
D03*
Y176102D02*
D03*
X27992Y186102D02*
D03*
Y176102D02*
D03*
X17992Y186102D02*
D03*
D88*
X5906Y75906D02*
D03*
D89*
X50472Y11457D02*
D03*
X16457D02*
D03*
D90*
X50472Y27913D02*
D03*
X16457D02*
D03*
D91*
X17992Y176102D02*
D03*
D92*
X100800Y63393D02*
D03*
X108000Y160200D02*
D03*
X91480Y69600D02*
D03*
Y62400D02*
D03*
X44400Y103200D02*
D03*
X32400Y99000D02*
D03*
X91200Y160200D02*
D03*
X96457Y104331D02*
D03*
X88583Y23622D02*
D03*
X98425Y45276D02*
D03*
X68400Y11811D02*
D03*
X64283Y7596D02*
D03*
X59580Y83059D02*
D03*
X65616Y72403D02*
D03*
X61748Y170012D02*
D03*
X45276Y73200D02*
D03*
X97800Y7579D02*
D03*
X66000Y62400D02*
D03*
X19800D02*
D03*
X74400Y85800D02*
D03*
X55200Y77659D02*
D03*
X97800Y85200D02*
D03*
Y96000D02*
D03*
X90000Y93000D02*
D03*
X81600Y80709D02*
D03*
X66600Y48000D02*
D03*
X70866Y66929D02*
D03*
X68400Y54600D02*
D03*
X91200Y48000D02*
D03*
X39600Y63000D02*
D03*
X48600Y54000D02*
D03*
X50400Y40200D02*
D03*
X82200Y108000D02*
D03*
X79800Y132874D02*
D03*
X63989Y143400D02*
D03*
X74803Y66929D02*
D03*
X80709Y64961D02*
D03*
X82677Y66929D02*
D03*
Y29528D02*
D03*
X74803D02*
D03*
X78740D02*
D03*
X55118Y21654D02*
D03*
Y17717D02*
D03*
X90600Y111000D02*
D03*
X36417Y36000D02*
D03*
X31800Y40617D02*
D03*
X43200Y47400D02*
D03*
X6600Y31200D02*
D03*
X15000Y131400D02*
D03*
X43200Y159000D02*
D03*
X19800Y155400D02*
D03*
X108000Y144600D02*
D03*
X98425Y167323D02*
D03*
X70200Y153437D02*
D03*
X59400Y168600D02*
D03*
X76800Y160200D02*
D03*
X100200Y109200D02*
D03*
X24600Y128400D02*
D03*
X23400Y117000D02*
D03*
X24000Y94200D02*
D03*
X31200Y79200D02*
D03*
X18600Y40200D02*
D03*
X25800Y47400D02*
D03*
X6000Y52200D02*
D03*
X64961Y35433D02*
D03*
X92520D02*
D03*
X98425Y61024D02*
D03*
X59055D02*
D03*
X104400Y123600D02*
D03*
X46200Y138600D02*
D03*
X54600Y97800D02*
D03*
X87000Y160200D02*
D03*
X64200Y153600D02*
D03*
X30000Y117126D02*
D03*
X28484Y110400D02*
D03*
X46200Y112200D02*
D03*
X17400Y109800D02*
D03*
X15600Y123129D02*
D03*
X10200Y51600D02*
D03*
X72063Y143400D02*
D03*
X67913Y108600D02*
D03*
X75787D02*
D03*
X54134D02*
D03*
X96000Y124950D02*
D03*
X30000Y124016D02*
D03*
X69882Y93012D02*
D03*
X23819Y36600D02*
D03*
X75197Y43701D02*
D03*
X78740D02*
D03*
X82284D02*
D03*
X75197Y47244D02*
D03*
X78740D02*
D03*
X82284D02*
D03*
Y50787D02*
D03*
X78740D02*
D03*
X75197D02*
D03*
X55905Y118898D02*
D03*
X60630D02*
D03*
X65354D02*
D03*
X70079D02*
D03*
X55905Y123622D02*
D03*
X60630D02*
D03*
X65354D02*
D03*
X70079D02*
D03*
X55905Y128347D02*
D03*
X60630D02*
D03*
X65354D02*
D03*
X70079D02*
D03*
Y133071D02*
D03*
X65354D02*
D03*
X60630D02*
D03*
X55905D02*
D03*
X34200Y132887D02*
D03*
X28800Y128400D02*
D03*
X38752Y157200D02*
D03*
X27000D02*
D03*
X31200Y130800D02*
D03*
X34200Y128924D02*
D03*
X75000Y169200D02*
D03*
X93601Y143400D02*
D03*
X58071D02*
D03*
X81000Y148800D02*
D03*
X79800Y153000D02*
D03*
X73800D02*
D03*
X47400Y155400D02*
D03*
X52153Y157200D02*
D03*
X56400Y153000D02*
D03*
X53400Y88200D02*
D03*
X52200Y95400D02*
D03*
X43800D02*
D03*
X43110Y36600D02*
D03*
X40354Y108000D02*
D03*
X33000Y113400D02*
D03*
M02*
