G04*
G04 #@! TF.GenerationSoftware,Altium Limited,Altium Designer,20.0.11 (256)*
G04*
G04 Layer_Color=8421504*
%FSLAX25Y25*%
%MOIN*%
G70*
G01*
G75*
%ADD13C,0.00591*%
%ADD14R,0.04331X0.04331*%
%ADD15R,0.05512X0.05512*%
%ADD16R,0.02806X0.02606*%
%ADD17R,0.03106X0.03006*%
%ADD18R,0.02606X0.02806*%
%ADD19R,0.03006X0.03106*%
%ADD20R,0.02187X0.02756*%
%ADD21R,0.02165X0.03740*%
%ADD22R,0.02756X0.02756*%
%ADD23R,0.01181X0.01575*%
%ADD24R,0.02953X0.00709*%
%ADD25R,0.00709X0.02953*%
%ADD26R,0.01968X0.05512*%
G04:AMPARAMS|DCode=27|XSize=7.87mil|YSize=55.12mil|CornerRadius=0mil|HoleSize=0mil|Usage=FLASHONLY|Rotation=0.000|XOffset=0mil|YOffset=0mil|HoleType=Round|Shape=RoundedRectangle|*
%AMROUNDEDRECTD27*
21,1,0.00787,0.05512,0,0,0.0*
21,1,0.00787,0.05512,0,0,0.0*
1,1,0.00000,0.00394,-0.02756*
1,1,0.00000,-0.00394,-0.02756*
1,1,0.00000,-0.00394,0.02756*
1,1,0.00000,0.00394,0.02756*
%
%ADD27ROUNDEDRECTD27*%
G04:AMPARAMS|DCode=28|XSize=7.87mil|YSize=55.12mil|CornerRadius=0mil|HoleSize=0mil|Usage=FLASHONLY|Rotation=90.000|XOffset=0mil|YOffset=0mil|HoleType=Round|Shape=RoundedRectangle|*
%AMROUNDEDRECTD28*
21,1,0.00787,0.05512,0,0,90.0*
21,1,0.00787,0.05512,0,0,90.0*
1,1,0.00000,0.02756,0.00394*
1,1,0.00000,0.02756,-0.00394*
1,1,0.00000,-0.02756,-0.00394*
1,1,0.00000,-0.02756,0.00394*
%
%ADD28ROUNDEDRECTD28*%
%ADD29R,0.05118X0.04331*%
%ADD30R,0.01968X0.05315*%
%ADD31R,0.00787X0.05315*%
D13*
X36805Y47400D02*
X36215D01*
X36805D01*
X40585D02*
X39994D01*
X40585D01*
X32785D02*
X32195D01*
X32785D01*
X29006D02*
X28415D01*
X29006D01*
D14*
X75984Y46061D02*
D03*
Y40549D02*
D03*
X81496D02*
D03*
Y46061D02*
D03*
D15*
X62992Y125984D02*
D03*
X69685D02*
D03*
X56299D02*
D03*
X62992Y119291D02*
D03*
Y132677D02*
D03*
X69685D02*
D03*
Y119291D02*
D03*
X56299D02*
D03*
Y132677D02*
D03*
D16*
X51181Y83759D02*
D03*
Y77659D02*
D03*
X39370Y83759D02*
D03*
Y77659D02*
D03*
X92520Y63879D02*
D03*
Y69979D02*
D03*
X64961Y63879D02*
D03*
Y69979D02*
D03*
X11811Y42226D02*
D03*
Y48326D02*
D03*
X98425Y54231D02*
D03*
Y48131D02*
D03*
X64961D02*
D03*
Y54231D02*
D03*
X59055D02*
D03*
Y48131D02*
D03*
X82677Y162499D02*
D03*
Y156399D02*
D03*
X19685Y117029D02*
D03*
Y123129D02*
D03*
X35433Y160336D02*
D03*
Y166436D02*
D03*
X29528Y160336D02*
D03*
Y166436D02*
D03*
X92520Y48131D02*
D03*
Y54231D02*
D03*
D17*
X45276Y83759D02*
D03*
Y77659D02*
D03*
X86614Y69979D02*
D03*
Y63879D02*
D03*
X70866Y69979D02*
D03*
Y63879D02*
D03*
X64961Y34352D02*
D03*
Y40452D02*
D03*
X92520Y34352D02*
D03*
Y40452D02*
D03*
X76772Y156399D02*
D03*
Y162499D02*
D03*
X69882Y95570D02*
D03*
Y89470D02*
D03*
X57087Y95570D02*
D03*
Y89470D02*
D03*
D18*
X40257Y70866D02*
D03*
X46357D02*
D03*
X64074Y17717D02*
D03*
X57974D02*
D03*
X18604Y43307D02*
D03*
X24703D02*
D03*
X50294D02*
D03*
X44194D02*
D03*
X87501Y147638D02*
D03*
X93601D02*
D03*
D19*
X40257Y64961D02*
D03*
X46357D02*
D03*
X81596Y57087D02*
D03*
X87696D02*
D03*
X75885D02*
D03*
X69785D02*
D03*
X81596Y29528D02*
D03*
X87696D02*
D03*
X75885D02*
D03*
X69785D02*
D03*
X93601Y153543D02*
D03*
X87501D02*
D03*
X93407Y125000D02*
D03*
X99507D02*
D03*
X93407Y113189D02*
D03*
X99507D02*
D03*
X32578Y124016D02*
D03*
X26478D02*
D03*
X32578Y117126D02*
D03*
X26478D02*
D03*
D20*
X57765Y11811D02*
D03*
X64283D02*
D03*
X57765Y23622D02*
D03*
X64283D02*
D03*
D21*
X29823Y69193D02*
D03*
Y52854D02*
D03*
X21358Y69193D02*
D03*
Y52854D02*
D03*
D22*
X5906Y42323D02*
D03*
Y48228D02*
D03*
D23*
X89961Y102165D02*
D03*
X95079D02*
D03*
Y94685D02*
D03*
X92520D02*
D03*
X89961D02*
D03*
D24*
X70965Y39370D02*
D03*
Y41339D02*
D03*
Y43307D02*
D03*
Y45276D02*
D03*
Y47244D02*
D03*
X86516D02*
D03*
Y45276D02*
D03*
Y43307D02*
D03*
Y41339D02*
D03*
Y39370D02*
D03*
D25*
X74803Y51083D02*
D03*
X76772D02*
D03*
X78740D02*
D03*
X80709D02*
D03*
X82677D02*
D03*
Y35531D02*
D03*
X80709D02*
D03*
X78740D02*
D03*
X76772D02*
D03*
X74803D02*
D03*
D26*
X18484Y83858D02*
D03*
X23484D02*
D03*
X28484D02*
D03*
X33484D02*
D03*
X18484Y105118D02*
D03*
X23484D02*
D03*
X28484D02*
D03*
X33484D02*
D03*
D27*
X48228Y148622D02*
D03*
X50197D02*
D03*
X52165D02*
D03*
X54134D02*
D03*
X56102D02*
D03*
X58071D02*
D03*
X60039D02*
D03*
X62008D02*
D03*
X63976D02*
D03*
X65945D02*
D03*
X67913D02*
D03*
X69882D02*
D03*
X71850D02*
D03*
X73819D02*
D03*
X75787D02*
D03*
X77756D02*
D03*
Y103347D02*
D03*
X75787D02*
D03*
X73819D02*
D03*
X71850D02*
D03*
X69882D02*
D03*
X67913D02*
D03*
X65945D02*
D03*
X63976D02*
D03*
X62008D02*
D03*
X60039D02*
D03*
X58071D02*
D03*
X56102D02*
D03*
X54134D02*
D03*
X52165D02*
D03*
X50197D02*
D03*
X48228D02*
D03*
D28*
X85630Y140748D02*
D03*
Y138779D02*
D03*
Y136811D02*
D03*
Y134843D02*
D03*
Y132874D02*
D03*
Y130905D02*
D03*
Y128937D02*
D03*
Y126969D02*
D03*
Y125000D02*
D03*
Y123031D02*
D03*
Y121063D02*
D03*
Y119095D02*
D03*
Y117126D02*
D03*
Y115157D02*
D03*
Y113189D02*
D03*
Y111221D02*
D03*
X40354D02*
D03*
Y113189D02*
D03*
Y115157D02*
D03*
Y117126D02*
D03*
Y119095D02*
D03*
Y121063D02*
D03*
Y123031D02*
D03*
Y125000D02*
D03*
Y126969D02*
D03*
Y128937D02*
D03*
Y130905D02*
D03*
Y132874D02*
D03*
Y134843D02*
D03*
Y136811D02*
D03*
Y138779D02*
D03*
Y140748D02*
D03*
D29*
X60039Y157480D02*
D03*
X68701D02*
D03*
X60039Y164961D02*
D03*
X68701D02*
D03*
D30*
X20669Y31516D02*
D03*
X46260D02*
D03*
X23819D02*
D03*
X43110D02*
D03*
D31*
X26575D02*
D03*
X28543D02*
D03*
X40354D02*
D03*
X38386D02*
D03*
X36417D02*
D03*
X30512D02*
D03*
X34449D02*
D03*
X32480D02*
D03*
M02*
