G04*
G04 #@! TF.GenerationSoftware,Altium Limited,Altium Designer,20.0.11 (256)*
G04*
G04 Layer_Color=65535*
%FSLAX25Y25*%
%MOIN*%
G70*
G01*
G75*
%ADD10C,0.00600*%
%ADD11C,0.00787*%
%ADD12C,0.00800*%
G36*
X4905Y50776D02*
X6905D01*
X5906Y52276D01*
X4905Y50776D01*
D02*
G37*
D10*
X41275Y45884D02*
X41916Y46525D01*
X42150Y47400D01*
X41916Y48275D01*
X41275Y48915D01*
X27725D02*
X27084Y48275D01*
X26850Y47400D01*
X27084Y46525D01*
X27725Y45884D01*
X75103Y31897D02*
X74503D01*
X75103D01*
X15438Y83858D02*
X14838D01*
X15438D01*
X40654Y143504D02*
X40054D01*
X40654D01*
X72938Y169902D02*
X72338D01*
X72938D01*
X2400Y2400D02*
X10800D01*
Y23400D01*
X2400Y2400D02*
Y23400D01*
X10800D01*
X39925Y48915D02*
X41275D01*
X39925Y45884D02*
X41275D01*
X35400Y48900D02*
X36900D01*
X35400Y45900D02*
X36900D01*
X35400D02*
Y48900D01*
X27725Y45884D02*
X29075D01*
X27725Y48915D02*
X29075D01*
X32100Y45900D02*
X33600D01*
X32100Y48900D02*
X33600D01*
Y45900D02*
Y48900D01*
X49081Y80370D02*
Y81048D01*
X53281Y80370D02*
Y81048D01*
X37270Y80370D02*
Y81048D01*
X41470Y80370D02*
Y81048D01*
X42968Y68766D02*
X43646D01*
X42968Y72966D02*
X43646D01*
X94620Y66590D02*
Y67268D01*
X90420Y66590D02*
Y67268D01*
X67061Y66590D02*
Y67268D01*
X62861Y66590D02*
Y67268D01*
X60266Y9736D02*
X61781D01*
X60266Y13886D02*
X61781D01*
X60685Y19816D02*
X61363D01*
X60685Y15617D02*
X61363D01*
X60266Y21547D02*
X61781D01*
X60266Y25697D02*
X61781D01*
X31890Y55905D02*
Y66142D01*
X19291Y55905D02*
Y66142D01*
X23819Y69291D02*
X27362D01*
X23819Y52756D02*
X27362D01*
X13911Y44936D02*
Y45615D01*
X9711Y44936D02*
Y45615D01*
X91520Y101425D02*
X93520D01*
X88020Y95925D02*
Y100925D01*
X97020Y95925D02*
Y100925D01*
X21314Y41207D02*
X21993D01*
X21314Y45407D02*
X21993D01*
X46905D02*
X47583D01*
X46905Y41207D02*
X47583D01*
X96325Y50842D02*
Y51520D01*
X100525Y50842D02*
Y51520D01*
X67061Y50842D02*
Y51520D01*
X62861Y50842D02*
Y51520D01*
X56955Y50842D02*
Y51520D01*
X61155Y50842D02*
Y51520D01*
X70390Y34957D02*
Y37510D01*
Y51657D02*
X72943D01*
X87090Y49104D02*
Y51657D01*
X84537Y34957D02*
X87090D01*
X70390D02*
X72943D01*
X70390Y49104D02*
Y51657D01*
X84537D02*
X87090D01*
Y34957D02*
Y37510D01*
X90212Y145538D02*
X90890D01*
X90212Y149738D02*
X90890D01*
X80577Y159110D02*
Y159788D01*
X84777Y159110D02*
Y159788D01*
X21785Y119740D02*
Y120418D01*
X17585Y119740D02*
Y120418D01*
X16339Y88386D02*
X35630D01*
X16339Y100591D02*
X35630D01*
X16339Y88386D02*
Y100591D01*
X35630Y88386D02*
Y100591D01*
X37533Y163047D02*
Y163725D01*
X33333Y163047D02*
Y163725D01*
X31628Y163047D02*
Y163725D01*
X27428Y163047D02*
Y163725D01*
X94620Y50842D02*
Y51520D01*
X90420Y50842D02*
Y51520D01*
X44882Y107874D02*
X81102D01*
X44882Y144095D02*
X81102D01*
Y107874D02*
Y144095D01*
X44882Y107874D02*
Y144095D01*
X56102Y168307D02*
X60236D01*
X68504D02*
X72638D01*
X56102Y154134D02*
X60236D01*
X68504D02*
X72638D01*
X56102D02*
Y157677D01*
Y164764D02*
Y168307D01*
X72638Y154134D02*
Y157677D01*
Y164764D02*
Y168307D01*
X51465Y685D02*
Y6685D01*
X15465Y685D02*
X51465D01*
X15465D02*
Y6685D01*
Y15685D02*
Y22685D01*
X51465Y15685D02*
Y22685D01*
X112492Y171602D02*
Y190602D01*
X13492Y171602D02*
X112492D01*
X13492D02*
Y190602D01*
X112492D01*
X15492Y166602D02*
X17992Y171602D01*
X15492Y166602D02*
X20492D01*
X17992Y171602D02*
X20492Y166602D01*
D11*
X905Y78405D02*
Y170905D01*
Y70906D02*
Y78405D01*
Y70906D02*
X10905D01*
Y170905D01*
X905D02*
X10905D01*
X125079Y905D02*
Y163406D01*
Y170905D01*
X115079D02*
X125079D01*
X115079Y905D02*
Y170905D01*
Y905D02*
X125079D01*
D12*
X27601Y44399D02*
Y40801D01*
X29400D01*
X30000Y41400D01*
Y43800D01*
X29400Y44399D01*
X27601D01*
X31200Y43800D02*
X31800Y44399D01*
X32999D01*
X33599Y43800D01*
Y43200D01*
X32999Y42600D01*
X32399D01*
X32999D01*
X33599Y42000D01*
Y41400D01*
X32999Y40801D01*
X31800D01*
X31200Y41400D01*
X35401Y44399D02*
Y40801D01*
X37200D01*
X37800Y41400D01*
Y43800D01*
X37200Y44399D01*
X35401D01*
X41399Y40801D02*
X39000D01*
X41399Y43200D01*
Y43800D01*
X40799Y44399D01*
X39600D01*
X39000Y43800D01*
X99363Y100225D02*
Y97226D01*
X99963Y96626D01*
X101163D01*
X101762Y97226D01*
Y100225D01*
X105361D02*
X102962D01*
Y98425D01*
X104162Y99025D01*
X104761D01*
X105361Y98425D01*
Y97226D01*
X104761Y96626D01*
X103562D01*
X102962Y97226D01*
X91801Y30599D02*
Y27600D01*
X92401Y27001D01*
X93600D01*
X94200Y27600D01*
Y30599D01*
X97199Y27001D02*
Y30599D01*
X95400Y28800D01*
X97799D01*
X48601Y167999D02*
Y165000D01*
X49201Y164401D01*
X50400D01*
X51000Y165000D01*
Y167999D01*
X52200Y167400D02*
X52800Y167999D01*
X53999D01*
X54599Y167400D01*
Y166800D01*
X53999Y166200D01*
X53399D01*
X53999D01*
X54599Y165600D01*
Y165000D01*
X53999Y164401D01*
X52800D01*
X52200Y165000D01*
X12139Y79199D02*
Y76200D01*
X12739Y75601D01*
X13938D01*
X14538Y76200D01*
Y79199D01*
X18137Y75601D02*
X15738D01*
X18137Y78000D01*
Y78600D01*
X17537Y79199D01*
X16337D01*
X15738Y78600D01*
X37801Y149999D02*
Y147000D01*
X38401Y146401D01*
X39600D01*
X40200Y147000D01*
Y149999D01*
X41400Y146401D02*
X42599D01*
X41999D01*
Y149999D01*
X41400Y149400D01*
X7202Y57599D02*
X9601D01*
X8401D01*
Y54001D01*
X10800D02*
Y57599D01*
X12600D01*
X13200Y57000D01*
Y55800D01*
X12600Y55200D01*
X10800D01*
X16199Y54001D02*
Y57599D01*
X14399Y55800D01*
X16798D01*
X79201Y75002D02*
Y77401D01*
Y76201D01*
X82799D01*
Y78600D02*
X79201D01*
Y80400D01*
X79800Y81000D01*
X81000D01*
X81600Y80400D01*
Y78600D01*
X79800Y82199D02*
X79201Y82799D01*
Y83999D01*
X79800Y84598D01*
X80400D01*
X81000Y83999D01*
Y83399D01*
Y83999D01*
X81600Y84598D01*
X82200D01*
X82799Y83999D01*
Y82799D01*
X82200Y82199D01*
X74401Y67802D02*
Y70201D01*
Y69001D01*
X77999D01*
Y71400D02*
X74401D01*
Y73200D01*
X75000Y73800D01*
X76200D01*
X76800Y73200D01*
Y71400D01*
X77999Y77399D02*
Y74999D01*
X75600Y77399D01*
X75000D01*
X74401Y76799D01*
Y75599D01*
X75000Y74999D01*
X84601Y20999D02*
X87001D01*
X85801D01*
Y17401D01*
X88200D02*
Y20999D01*
X90000D01*
X90599Y20400D01*
Y19200D01*
X90000Y18600D01*
X88200D01*
X91799Y17401D02*
X92999D01*
X92399D01*
Y20999D01*
X91799Y20400D01*
X37199Y52540D02*
X33601D01*
Y54339D01*
X34200Y54939D01*
X35400D01*
X36000Y54339D01*
Y52540D01*
Y53739D02*
X37199Y54939D01*
X33601Y58538D02*
Y56139D01*
X37199D01*
Y58538D01*
X35400Y56139D02*
Y57338D01*
X34200Y62137D02*
X33601Y61537D01*
Y60337D01*
X34200Y59737D01*
X34800D01*
X35400Y60337D01*
Y61537D01*
X36000Y62137D01*
X36600D01*
X37199Y61537D01*
Y60337D01*
X36600Y59737D01*
X33601Y65736D02*
Y63336D01*
X37199D01*
Y65736D01*
X35400Y63336D02*
Y64536D01*
X33601Y66935D02*
Y69334D01*
Y68135D01*
X37199D01*
X42902Y36601D02*
Y40199D01*
X44701D01*
X45301Y39600D01*
Y38400D01*
X44701Y37800D01*
X42902D01*
X44101D02*
X45301Y36601D01*
X46500D02*
X47700D01*
X47100D01*
Y40199D01*
X46500Y39600D01*
X49499D02*
X50099Y40199D01*
X51299D01*
X51899Y39600D01*
Y39000D01*
X51299Y38400D01*
X51899Y37800D01*
Y37200D01*
X51299Y36601D01*
X50099D01*
X49499Y37200D01*
Y37800D01*
X50099Y38400D01*
X49499Y39000D01*
Y39600D01*
X50099Y38400D02*
X51299D01*
X17101Y36601D02*
Y40199D01*
X18901D01*
X19501Y39600D01*
Y38400D01*
X18901Y37800D01*
X17101D01*
X18301D02*
X19501Y36601D01*
X20700D02*
X21900D01*
X21300D01*
Y40199D01*
X20700Y39600D01*
X23699Y40199D02*
X26099D01*
Y39600D01*
X23699Y37200D01*
Y36601D01*
X68102Y15601D02*
Y19199D01*
X69901D01*
X70501Y18600D01*
Y17400D01*
X69901Y16800D01*
X68102D01*
X69301D02*
X70501Y15601D01*
X71700D02*
X72900D01*
X72300D01*
Y19199D01*
X71700Y18600D01*
X77099Y19199D02*
X75899Y18600D01*
X74699Y17400D01*
Y16200D01*
X75299Y15601D01*
X76499D01*
X77099Y16200D01*
Y16800D01*
X76499Y17400D01*
X74699D01*
X94199Y73501D02*
X90601D01*
Y75301D01*
X91200Y75901D01*
X92400D01*
X93000Y75301D01*
Y73501D01*
Y74701D02*
X94199Y75901D01*
Y77100D02*
Y78300D01*
Y77700D01*
X90601D01*
X91200Y77100D01*
X90601Y82499D02*
Y80099D01*
X92400D01*
X91800Y81299D01*
Y81899D01*
X92400Y82499D01*
X93600D01*
X94199Y81899D01*
Y80699D01*
X93600Y80099D01*
X110999Y47102D02*
X107401D01*
Y48901D01*
X108000Y49501D01*
X109200D01*
X109800Y48901D01*
Y47102D01*
Y48301D02*
X110999Y49501D01*
Y50700D02*
Y51900D01*
Y51300D01*
X107401D01*
X108000Y50700D01*
X110999Y55499D02*
X107401D01*
X109200Y53699D01*
Y56099D01*
X105599Y47102D02*
X102001D01*
Y48901D01*
X102600Y49501D01*
X103800D01*
X104400Y48901D01*
Y47102D01*
Y48301D02*
X105599Y49501D01*
Y50700D02*
Y51900D01*
Y51300D01*
X102001D01*
X102600Y50700D01*
Y53699D02*
X102001Y54299D01*
Y55499D01*
X102600Y56099D01*
X103200D01*
X103800Y55499D01*
Y54899D01*
Y55499D01*
X104400Y56099D01*
X105000D01*
X105599Y55499D01*
Y54299D01*
X105000Y53699D01*
X49799Y47102D02*
X46201D01*
Y48901D01*
X46800Y49501D01*
X48000D01*
X48600Y48901D01*
Y47102D01*
Y48301D02*
X49799Y49501D01*
Y50700D02*
Y51900D01*
Y51300D01*
X46201D01*
X46800Y50700D01*
X49799Y56099D02*
Y53699D01*
X47400Y56099D01*
X46800D01*
X46201Y55499D01*
Y54299D01*
X46800Y53699D01*
X55199Y47101D02*
X51601D01*
Y48901D01*
X52200Y49501D01*
X53400D01*
X54000Y48901D01*
Y47101D01*
Y48301D02*
X55199Y49501D01*
Y50700D02*
Y51900D01*
Y51300D01*
X51601D01*
X52200Y50700D01*
X55199Y53699D02*
Y54899D01*
Y54299D01*
X51601D01*
X52200Y53699D01*
X66599Y73501D02*
X63001D01*
Y75301D01*
X63600Y75901D01*
X64800D01*
X65400Y75301D01*
Y73501D01*
Y74701D02*
X66599Y75901D01*
Y77100D02*
Y78300D01*
Y77700D01*
X63001D01*
X63600Y77100D01*
Y80099D02*
X63001Y80699D01*
Y81899D01*
X63600Y82499D01*
X66000D01*
X66599Y81899D01*
Y80699D01*
X66000Y80099D01*
X63600D01*
X13610Y32434D02*
X10012D01*
Y34233D01*
X10611Y34833D01*
X11811D01*
X12411Y34233D01*
Y32434D01*
Y33634D02*
X13610Y34833D01*
X13011Y36033D02*
X13610Y36633D01*
Y37832D01*
X13011Y38432D01*
X10611D01*
X10012Y37832D01*
Y36633D01*
X10611Y36033D01*
X11211D01*
X11811Y36633D01*
Y38432D01*
X81778Y166508D02*
Y170106D01*
X83578D01*
X84177Y169507D01*
Y168307D01*
X83578Y167707D01*
X81778D01*
X82978D02*
X84177Y166508D01*
X85377Y169507D02*
X85977Y170106D01*
X87176D01*
X87776Y169507D01*
Y168907D01*
X87176Y168307D01*
X87776Y167707D01*
Y167107D01*
X87176Y166508D01*
X85977D01*
X85377Y167107D01*
Y167707D01*
X85977Y168307D01*
X85377Y168907D01*
Y169507D01*
X85977Y168307D02*
X87176D01*
X49801Y69001D02*
Y72599D01*
X51600D01*
X52200Y72000D01*
Y70800D01*
X51600Y70200D01*
X49801D01*
X51001D02*
X52200Y69001D01*
X53400Y72599D02*
X55799D01*
Y72000D01*
X53400Y69600D01*
Y69001D01*
X52799Y87601D02*
X49201D01*
Y89400D01*
X49800Y90000D01*
X51000D01*
X51600Y89400D01*
Y87601D01*
Y88801D02*
X52799Y90000D01*
X49201Y93599D02*
X49800Y92399D01*
X51000Y91200D01*
X52200D01*
X52799Y91800D01*
Y92999D01*
X52200Y93599D01*
X51600D01*
X51000Y92999D01*
Y91200D01*
X41399Y87601D02*
X37801D01*
Y89400D01*
X38400Y90000D01*
X39600D01*
X40200Y89400D01*
Y87601D01*
Y88801D02*
X41399Y90000D01*
X37801Y93599D02*
Y91200D01*
X39600D01*
X39000Y92399D01*
Y92999D01*
X39600Y93599D01*
X40800D01*
X41399Y92999D01*
Y91800D01*
X40800Y91200D01*
X26399Y160201D02*
X22801D01*
Y162000D01*
X23400Y162600D01*
X24600D01*
X25200Y162000D01*
Y160201D01*
Y161401D02*
X26399Y162600D01*
Y165599D02*
X22801D01*
X24600Y163800D01*
Y166199D01*
X42336Y160201D02*
X38738D01*
Y162000D01*
X39337Y162600D01*
X40537D01*
X41137Y162000D01*
Y160201D01*
Y161401D02*
X42336Y162600D01*
X39337Y163800D02*
X38738Y164400D01*
Y165599D01*
X39337Y166199D01*
X39937D01*
X40537Y165599D01*
Y164999D01*
Y165599D01*
X41137Y166199D01*
X41737D01*
X42336Y165599D01*
Y164400D01*
X41737Y163800D01*
X97201Y145801D02*
Y149399D01*
X99000D01*
X99600Y148800D01*
Y147600D01*
X99000Y147000D01*
X97201D01*
X98401D02*
X99600Y145801D01*
X103199D02*
X100800D01*
X103199Y148200D01*
Y148800D01*
X102599Y149399D01*
X101400D01*
X100800Y148800D01*
X17401Y126601D02*
Y130199D01*
X19200D01*
X19800Y129600D01*
Y128400D01*
X19200Y127800D01*
X17401D01*
X18600D02*
X19800Y126601D01*
X21000D02*
X22199D01*
X21599D01*
Y130199D01*
X21000Y129600D01*
X70435Y13610D02*
X68036D01*
Y11811D01*
X69236D01*
X68036D01*
Y10012D01*
X71635Y13610D02*
Y10012D01*
X73435D01*
X74034Y10611D01*
Y11211D01*
X73435Y11811D01*
X71635D01*
X73435D01*
X74034Y12411D01*
Y13011D01*
X73435Y13610D01*
X71635D01*
X77633Y10012D02*
X75234D01*
X77633Y12411D01*
Y13011D01*
X77033Y13610D01*
X75834D01*
X75234Y13011D01*
X58801Y30599D02*
X56401D01*
Y28800D01*
X57601D01*
X56401D01*
Y27001D01*
X60000Y30599D02*
Y27001D01*
X61800D01*
X62399Y27600D01*
Y28200D01*
X61800Y28800D01*
X60000D01*
X61800D01*
X62399Y29400D01*
Y30000D01*
X61800Y30599D01*
X60000D01*
X63599Y27001D02*
X64799D01*
X64199D01*
Y30599D01*
X63599Y30000D01*
X4106Y33034D02*
X7705D01*
Y34833D01*
X7105Y35433D01*
X4706D01*
X4106Y34833D01*
Y33034D01*
X7705Y36633D02*
Y37832D01*
Y37233D01*
X4106D01*
X4706Y36633D01*
X85200Y75901D02*
X84601Y75301D01*
Y74101D01*
X85200Y73501D01*
X87600D01*
X88199Y74101D01*
Y75301D01*
X87600Y75901D01*
X88199Y77100D02*
Y78300D01*
Y77700D01*
X84601D01*
X85200Y77100D01*
Y80099D02*
X84601Y80699D01*
Y81899D01*
X85200Y82499D01*
X85800D01*
X86400Y81899D01*
X87000Y82499D01*
X87600D01*
X88199Y81899D01*
Y80699D01*
X87600Y80099D01*
X87000D01*
X86400Y80699D01*
X85800Y80099D01*
X85200D01*
X86400Y80699D02*
Y81899D01*
X97200Y36301D02*
X96601Y35701D01*
Y34501D01*
X97200Y33902D01*
X99600D01*
X100199Y34501D01*
Y35701D01*
X99600Y36301D01*
X100199Y37500D02*
Y38700D01*
Y38100D01*
X96601D01*
X97200Y37500D01*
X96601Y40499D02*
Y42899D01*
X97200D01*
X99600Y40499D01*
X100199D01*
X82501Y25800D02*
X81901Y26399D01*
X80701D01*
X80102Y25800D01*
Y23400D01*
X80701Y22801D01*
X81901D01*
X82501Y23400D01*
X83700Y22801D02*
X84900D01*
X84300D01*
Y26399D01*
X83700Y25800D01*
X89099Y26399D02*
X87899Y25800D01*
X86699Y24600D01*
Y23400D01*
X87299Y22801D01*
X88499D01*
X89099Y23400D01*
Y24000D01*
X88499Y24600D01*
X86699D01*
X93901Y60600D02*
X93301Y61199D01*
X92101D01*
X91501Y60600D01*
Y58200D01*
X92101Y57601D01*
X93301D01*
X93901Y58200D01*
X95100Y57601D02*
X96300D01*
X95700D01*
Y61199D01*
X95100Y60600D01*
X100499Y61199D02*
X98099D01*
Y59400D01*
X99299Y60000D01*
X99899D01*
X100499Y59400D01*
Y58200D01*
X99899Y57601D01*
X98699D01*
X98099Y58200D01*
X58200Y36301D02*
X57601Y35701D01*
Y34501D01*
X58200Y33901D01*
X60600D01*
X61199Y34501D01*
Y35701D01*
X60600Y36301D01*
X61199Y37500D02*
Y38700D01*
Y38100D01*
X57601D01*
X58200Y37500D01*
X61199Y42299D02*
X57601D01*
X59400Y40499D01*
Y42898D01*
X69600Y75901D02*
X69001Y75301D01*
Y74101D01*
X69600Y73501D01*
X72000D01*
X72599Y74101D01*
Y75301D01*
X72000Y75901D01*
X72599Y77100D02*
Y78300D01*
Y77700D01*
X69001D01*
X69600Y77100D01*
Y80099D02*
X69001Y80699D01*
Y81899D01*
X69600Y82499D01*
X70200D01*
X70800Y81899D01*
Y81299D01*
Y81899D01*
X71400Y82499D01*
X72000D01*
X72599Y81899D01*
Y80699D01*
X72000Y80099D01*
X70513Y25783D02*
X69914Y26383D01*
X68714D01*
X68114Y25783D01*
Y23384D01*
X68714Y22784D01*
X69914D01*
X70513Y23384D01*
X71713Y22784D02*
X72913D01*
X72313D01*
Y26383D01*
X71713Y25783D01*
X77111Y22784D02*
X74712D01*
X77111Y25183D01*
Y25783D01*
X76511Y26383D01*
X75312D01*
X74712Y25783D01*
X60300Y60600D02*
X59701Y61199D01*
X58501D01*
X57901Y60600D01*
Y58200D01*
X58501Y57601D01*
X59701D01*
X60300Y58200D01*
X61500Y57601D02*
X62700D01*
X62100D01*
Y61199D01*
X61500Y60600D01*
X64499Y57601D02*
X65699D01*
X65099D01*
Y61199D01*
X64499Y60600D01*
X51901Y66000D02*
X51301Y66599D01*
X50101D01*
X49501Y66000D01*
Y63600D01*
X50101Y63001D01*
X51301D01*
X51901Y63600D01*
X53100Y63001D02*
X54300D01*
X53700D01*
Y66599D01*
X53100Y66000D01*
X56099D02*
X56699Y66599D01*
X57899D01*
X58499Y66000D01*
Y63600D01*
X57899Y63001D01*
X56699D01*
X56099Y63600D01*
Y66000D01*
X44400Y90000D02*
X43801Y89400D01*
Y88201D01*
X44400Y87601D01*
X46800D01*
X47399Y88201D01*
Y89400D01*
X46800Y90000D01*
Y91200D02*
X47399Y91800D01*
Y92999D01*
X46800Y93599D01*
X44400D01*
X43801Y92999D01*
Y91800D01*
X44400Y91200D01*
X45000D01*
X45600Y91800D01*
Y93599D01*
X99600Y154800D02*
X99000Y155399D01*
X97801D01*
X97201Y154800D01*
Y152400D01*
X97801Y151801D01*
X99000D01*
X99600Y152400D01*
X100800Y154800D02*
X101400Y155399D01*
X102599D01*
X103199Y154800D01*
Y154200D01*
X102599Y153600D01*
X103199Y153000D01*
Y152400D01*
X102599Y151801D01*
X101400D01*
X100800Y152400D01*
Y153000D01*
X101400Y153600D01*
X100800Y154200D01*
Y154800D01*
X101400Y153600D02*
X102599D01*
X73800Y91800D02*
X73201Y91200D01*
Y90001D01*
X73800Y89401D01*
X76200D01*
X76799Y90001D01*
Y91200D01*
X76200Y91800D01*
X73201Y93000D02*
Y95399D01*
X73800D01*
X76200Y93000D01*
X76799D01*
X105600Y126000D02*
X105000Y126599D01*
X103801D01*
X103201Y126000D01*
Y123600D01*
X103801Y123001D01*
X105000D01*
X105600Y123600D01*
X109199Y126599D02*
X107999Y126000D01*
X106800Y124800D01*
Y123600D01*
X107400Y123001D01*
X108599D01*
X109199Y123600D01*
Y124200D01*
X108599Y124800D01*
X106800D01*
X28800Y130200D02*
X28200Y130799D01*
X27001D01*
X26401Y130200D01*
Y127800D01*
X27001Y127201D01*
X28200D01*
X28800Y127800D01*
X32399Y130799D02*
X30000D01*
Y129000D01*
X31199Y129600D01*
X31799D01*
X32399Y129000D01*
Y127800D01*
X31799Y127201D01*
X30600D01*
X30000Y127800D01*
X61200Y91800D02*
X60601Y91200D01*
Y90001D01*
X61200Y89401D01*
X63600D01*
X64199Y90001D01*
Y91200D01*
X63600Y91800D01*
X64199Y94799D02*
X60601D01*
X62400Y93000D01*
Y95399D01*
X105600Y114600D02*
X105000Y115199D01*
X103801D01*
X103201Y114600D01*
Y112200D01*
X103801Y111601D01*
X105000D01*
X105600Y112200D01*
X106800Y114600D02*
X107400Y115199D01*
X108599D01*
X109199Y114600D01*
Y114000D01*
X108599Y113400D01*
X107999D01*
X108599D01*
X109199Y112800D01*
Y112200D01*
X108599Y111601D01*
X107400D01*
X106800Y112200D01*
X76200Y169507D02*
X75600Y170106D01*
X74401D01*
X73801Y169507D01*
Y167107D01*
X74401Y166508D01*
X75600D01*
X76200Y167107D01*
X79799Y166508D02*
X77400D01*
X79799Y168907D01*
Y169507D01*
X79199Y170106D01*
X78000D01*
X77400Y169507D01*
X29400Y113400D02*
X28800Y113999D01*
X27601D01*
X27001Y113400D01*
Y111000D01*
X27601Y110401D01*
X28800D01*
X29400Y111000D01*
X30600Y110401D02*
X31799D01*
X31199D01*
Y113999D01*
X30600Y113400D01*
M02*
