G04*
G04 #@! TF.GenerationSoftware,Altium Limited,Altium Designer,20.0.11 (256)*
G04*
G04 Layer_Color=65535*
%FSLAX25Y25*%
%MOIN*%
G70*
G01*
G75*
%ADD10C,0.00600*%
%ADD11C,0.00787*%
%ADD12C,0.00800*%
G36*
X4905Y50776D02*
X6905D01*
X5906Y52276D01*
X4905Y50776D01*
D02*
G37*
D10*
X41275Y45884D02*
X41916Y46525D01*
X42150Y47400D01*
X41916Y48275D01*
X41275Y48915D01*
X27725D02*
X27084Y48275D01*
X26850Y47400D01*
X27084Y46525D01*
X27725Y45884D01*
X75103Y35834D02*
X74503D01*
X75103D01*
X15438Y83858D02*
X14838D01*
X15438D01*
X40654Y143504D02*
X40054D01*
X40654D01*
X72938Y169902D02*
X72338D01*
X72938D01*
X57024Y16122D02*
X65024D01*
Y31122D01*
X57024D02*
X65024D01*
X57024Y16122D02*
Y31122D01*
X2400Y2400D02*
X10800D01*
Y23400D01*
X2400Y2400D02*
Y23400D01*
X10800D01*
X39925Y48915D02*
X41275D01*
X39925Y45884D02*
X41275D01*
X35400Y48900D02*
X36900D01*
X35400Y45900D02*
X36900D01*
X35400D02*
Y48900D01*
X27725Y45884D02*
X29075D01*
X27725Y48915D02*
X29075D01*
X32100Y45900D02*
X33600D01*
X32100Y48900D02*
X33600D01*
Y45900D02*
Y48900D01*
X49081Y80370D02*
Y81048D01*
X53281Y80370D02*
Y81048D01*
X27220Y72966D02*
X27898D01*
X27220Y68766D02*
X27898D01*
X27220Y62861D02*
X27898D01*
X27220Y67061D02*
X27898D01*
X74464Y72703D02*
X75142D01*
X74464Y76903D02*
X75142D01*
X60266Y9736D02*
X61781D01*
X60266Y13886D02*
X61781D01*
X72077Y21547D02*
X73592D01*
X72077Y25697D02*
X73592D01*
X79528Y18110D02*
X89764D01*
X79528Y5512D02*
X89764D01*
X76378Y10039D02*
Y13583D01*
X92913Y10039D02*
Y13583D01*
X13911Y44936D02*
Y45615D01*
X9711Y44936D02*
Y45615D01*
X87583Y103394D02*
X89583D01*
X84083Y97894D02*
Y102894D01*
X93083Y97894D02*
Y102894D01*
X21314Y41207D02*
X21993D01*
X21314Y45407D02*
X21993D01*
X46905D02*
X47583D01*
X46905Y41207D02*
X47583D01*
X96325Y54779D02*
Y55457D01*
X100525Y54779D02*
Y55457D01*
X67061Y54779D02*
Y55457D01*
X62861Y54779D02*
Y55457D01*
X56955Y54779D02*
Y55457D01*
X61155Y54779D02*
Y55457D01*
X70390Y38894D02*
Y41447D01*
Y55594D02*
X72943D01*
X87090Y53041D02*
Y55594D01*
X84537Y38894D02*
X87090D01*
X70390D02*
X72943D01*
X70390Y53041D02*
Y55594D01*
X84537D02*
X87090D01*
Y38894D02*
Y41447D01*
X90212Y145538D02*
X90890D01*
X90212Y149738D02*
X90890D01*
X80577Y159110D02*
Y159788D01*
X84777Y159110D02*
Y159788D01*
X21785Y119740D02*
Y120418D01*
X17585Y119740D02*
Y120418D01*
X16339Y88386D02*
X35630D01*
X16339Y100591D02*
X35630D01*
X16339Y88386D02*
Y100591D01*
X35630Y88386D02*
Y100591D01*
X37533Y163047D02*
Y163725D01*
X33333Y163047D02*
Y163725D01*
X31628Y163047D02*
Y163725D01*
X27428Y163047D02*
Y163725D01*
X94620Y54779D02*
Y55457D01*
X90420Y54779D02*
Y55457D01*
X44882Y107874D02*
X81102D01*
X44882Y144095D02*
X81102D01*
Y107874D02*
Y144095D01*
X44882Y107874D02*
Y144095D01*
X56102Y168307D02*
X60236D01*
X68504D02*
X72638D01*
X56102Y154134D02*
X60236D01*
X68504D02*
X72638D01*
X56102D02*
Y157677D01*
Y164764D02*
Y168307D01*
X72638Y154134D02*
Y157677D01*
Y164764D02*
Y168307D01*
X51465Y685D02*
Y6685D01*
X15465Y685D02*
X51465D01*
X15465D02*
Y6685D01*
Y15685D02*
Y22685D01*
X51465Y15685D02*
Y22685D01*
X112492Y171602D02*
Y190602D01*
X13492Y171602D02*
X112492D01*
X13492D02*
Y190602D01*
X112492D01*
X15492Y166602D02*
X17992Y171602D01*
X15492Y166602D02*
X20492D01*
X17992Y171602D02*
X20492Y166602D01*
D11*
X905Y78405D02*
Y170905D01*
Y70906D02*
Y78405D01*
Y70906D02*
X10905D01*
Y170905D01*
X905D02*
X10905D01*
X125079Y905D02*
Y163406D01*
Y170905D01*
X115079D02*
X125079D01*
X115079Y905D02*
Y170905D01*
Y905D02*
X125079D01*
D12*
X60000Y35999D02*
X57601D01*
Y34200D01*
X58800D01*
X57601D01*
Y32401D01*
X61200D02*
X62399D01*
X61799D01*
Y35999D01*
X61200Y35400D01*
X27601Y44399D02*
Y40801D01*
X29400D01*
X30000Y41400D01*
Y43800D01*
X29400Y44399D01*
X27601D01*
X31200Y43800D02*
X31800Y44399D01*
X32999D01*
X33599Y43800D01*
Y43200D01*
X32999Y42600D01*
X32399D01*
X32999D01*
X33599Y42000D01*
Y41400D01*
X32999Y40801D01*
X31800D01*
X31200Y41400D01*
X35401Y44399D02*
Y40801D01*
X37200D01*
X37800Y41400D01*
Y43800D01*
X37200Y44399D01*
X35401D01*
X41399Y40801D02*
X39000D01*
X41399Y43200D01*
Y43800D01*
X40799Y44399D01*
X39600D01*
X39000Y43800D01*
X85584Y94319D02*
Y91320D01*
X86184Y90720D01*
X87383D01*
X87983Y91320D01*
Y94319D01*
X91582D02*
X89183D01*
Y92520D01*
X90382Y93120D01*
X90982D01*
X91582Y92520D01*
Y91320D01*
X90982Y90720D01*
X89782D01*
X89183Y91320D01*
X91801Y34536D02*
Y31537D01*
X92401Y30938D01*
X93600D01*
X94200Y31537D01*
Y34536D01*
X97199Y30938D02*
Y34536D01*
X95400Y32737D01*
X97799D01*
X48601Y167999D02*
Y165000D01*
X49201Y164401D01*
X50400D01*
X51000Y165000D01*
Y167999D01*
X52200Y167400D02*
X52800Y167999D01*
X53999D01*
X54599Y167400D01*
Y166800D01*
X53999Y166200D01*
X53399D01*
X53999D01*
X54599Y165600D01*
Y165000D01*
X53999Y164401D01*
X52800D01*
X52200Y165000D01*
X12139Y79199D02*
Y76200D01*
X12739Y75601D01*
X13938D01*
X14538Y76200D01*
Y79199D01*
X18137Y75601D02*
X15738D01*
X18137Y78000D01*
Y78600D01*
X17537Y79199D01*
X16337D01*
X15738Y78600D01*
X37801Y149999D02*
Y147000D01*
X38401Y146401D01*
X39600D01*
X40200Y147000D01*
Y149999D01*
X41400Y146401D02*
X42599D01*
X41999D01*
Y149999D01*
X41400Y149400D01*
X92000Y86699D02*
X94399D01*
X93200D01*
Y83100D01*
X95599D02*
Y86699D01*
X97398D01*
X97998Y86099D01*
Y84900D01*
X97398Y84300D01*
X95599D01*
X99198Y82501D02*
X101597D01*
X102796Y83100D02*
Y86699D01*
X104596D01*
X105196Y86099D01*
Y84900D01*
X104596Y84300D01*
X102796D01*
X108795Y86099D02*
X108195Y86699D01*
X106995D01*
X106395Y86099D01*
Y83700D01*
X106995Y83100D01*
X108195D01*
X108795Y83700D01*
Y84900D01*
X107595D01*
X92600Y108299D02*
X94999D01*
X93800D01*
Y104701D01*
X96199D02*
Y108299D01*
X97998D01*
X98598Y107700D01*
Y106500D01*
X97998Y105900D01*
X96199D01*
X99798Y104101D02*
X102197D01*
X103396Y104701D02*
Y108299D01*
X105196D01*
X105796Y107700D01*
Y106500D01*
X105196Y105900D01*
X103396D01*
X104596D02*
X105796Y104701D01*
X109395Y107700D02*
X108795Y108299D01*
X107595D01*
X106995Y107700D01*
Y107100D01*
X107595Y106500D01*
X108795D01*
X109395Y105900D01*
Y105300D01*
X108795Y104701D01*
X107595D01*
X106995Y105300D01*
X110594Y108299D02*
X112993D01*
X111794D01*
Y104701D01*
X87647Y74934D02*
X90046D01*
X88847D01*
Y71335D01*
X91246D02*
Y74934D01*
X93045D01*
X93645Y74334D01*
Y73135D01*
X93045Y72535D01*
X91246D01*
X94845Y70735D02*
X97244D01*
X98444Y71335D02*
X99643D01*
X99043D01*
Y74934D01*
X98444Y74334D01*
X101443Y74934D02*
Y72535D01*
X102642Y71335D01*
X103842Y72535D01*
Y74934D01*
X105041Y74334D02*
X105641Y74934D01*
X106841D01*
X107441Y74334D01*
Y71935D01*
X106841Y71335D01*
X105641D01*
X105041Y71935D01*
Y74334D01*
X100799Y3603D02*
X97201D01*
Y5402D01*
X97800Y6002D01*
X99000D01*
X99600Y5402D01*
Y3603D01*
Y4802D02*
X100799Y6002D01*
X97201Y9601D02*
Y7202D01*
X100799D01*
Y9601D01*
X99000Y7202D02*
Y8401D01*
X97800Y13200D02*
X97201Y12600D01*
Y11400D01*
X97800Y10800D01*
X98400D01*
X99000Y11400D01*
Y12600D01*
X99600Y13200D01*
X100200D01*
X100799Y12600D01*
Y11400D01*
X100200Y10800D01*
X97201Y16799D02*
Y14399D01*
X100799D01*
Y16799D01*
X99000Y14399D02*
Y15599D01*
X97201Y17998D02*
Y20397D01*
Y19198D01*
X100799D01*
X42902Y36601D02*
Y40199D01*
X44701D01*
X45301Y39600D01*
Y38400D01*
X44701Y37800D01*
X42902D01*
X44101D02*
X45301Y36601D01*
X46500D02*
X47700D01*
X47100D01*
Y40199D01*
X46500Y39600D01*
X51899Y40199D02*
X50699Y39600D01*
X49499Y38400D01*
Y37200D01*
X50099Y36601D01*
X51299D01*
X51899Y37200D01*
Y37800D01*
X51299Y38400D01*
X49499D01*
X17101Y36601D02*
Y40199D01*
X18901D01*
X19501Y39600D01*
Y38400D01*
X18901Y37800D01*
X17101D01*
X18301D02*
X19501Y36601D01*
X20700D02*
X21900D01*
X21300D01*
Y40199D01*
X20700Y39600D01*
X26099Y40199D02*
X23699D01*
Y38400D01*
X24899Y39000D01*
X25499D01*
X26099Y38400D01*
Y37200D01*
X25499Y36601D01*
X24299D01*
X23699Y37200D01*
X110999Y51038D02*
X107401D01*
Y52838D01*
X108000Y53438D01*
X109200D01*
X109800Y52838D01*
Y51038D01*
Y52238D02*
X110999Y53438D01*
Y54637D02*
Y55837D01*
Y55237D01*
X107401D01*
X108000Y54637D01*
X110999Y59436D02*
X107401D01*
X109200Y57636D01*
Y60036D01*
X105599Y51038D02*
X102001D01*
Y52838D01*
X102600Y53438D01*
X103800D01*
X104400Y52838D01*
Y51038D01*
Y52238D02*
X105599Y53438D01*
Y54637D02*
Y55837D01*
Y55237D01*
X102001D01*
X102600Y54637D01*
X105599Y60036D02*
Y57636D01*
X103200Y60036D01*
X102600D01*
X102001Y59436D01*
Y58236D01*
X102600Y57636D01*
X49799Y51638D02*
X46201D01*
Y53438D01*
X46800Y54037D01*
X48000D01*
X48600Y53438D01*
Y51638D01*
Y52838D02*
X49799Y54037D01*
Y55237D02*
Y56437D01*
Y55837D01*
X46201D01*
X46800Y55237D01*
X49799Y58236D02*
Y59436D01*
Y58836D01*
X46201D01*
X46800Y58236D01*
X55199Y50438D02*
X51601D01*
Y52238D01*
X52200Y52838D01*
X53400D01*
X54000Y52238D01*
Y50438D01*
Y51638D02*
X55199Y52838D01*
Y54037D02*
Y55237D01*
Y54637D01*
X51601D01*
X52200Y54037D01*
Y57036D02*
X51601Y57636D01*
Y58836D01*
X52200Y59436D01*
X54600D01*
X55199Y58836D01*
Y57636D01*
X54600Y57036D01*
X52200D01*
X59702Y73201D02*
Y76799D01*
X61501D01*
X62101Y76200D01*
Y75000D01*
X61501Y74400D01*
X59702D01*
X60901D02*
X62101Y73201D01*
X63300D02*
X64500D01*
X63900D01*
Y76799D01*
X63300Y76200D01*
X66299D02*
X66899Y76799D01*
X68099D01*
X68699Y76200D01*
Y75600D01*
X68099Y75000D01*
X67499D01*
X68099D01*
X68699Y74400D01*
Y73800D01*
X68099Y73201D01*
X66899D01*
X66299Y73800D01*
X13610Y32434D02*
X10012D01*
Y34233D01*
X10611Y34833D01*
X11811D01*
X12411Y34233D01*
Y32434D01*
Y33634D02*
X13610Y34833D01*
X13011Y36033D02*
X13610Y36633D01*
Y37832D01*
X13011Y38432D01*
X10611D01*
X10012Y37832D01*
Y36633D01*
X10611Y36033D01*
X11211D01*
X11811Y36633D01*
Y38432D01*
X81778Y166508D02*
Y170106D01*
X83578D01*
X84177Y169507D01*
Y168307D01*
X83578Y167707D01*
X81778D01*
X82978D02*
X84177Y166508D01*
X85377Y169507D02*
X85977Y170106D01*
X87176D01*
X87776Y169507D01*
Y168907D01*
X87176Y168307D01*
X87776Y167707D01*
Y167107D01*
X87176Y166508D01*
X85977D01*
X85377Y167107D01*
Y167707D01*
X85977Y168307D01*
X85377Y168907D01*
Y169507D01*
X85977Y168307D02*
X87176D01*
X34053Y63095D02*
Y66694D01*
X35852D01*
X36452Y66094D01*
Y64894D01*
X35852Y64295D01*
X34053D01*
X35253D02*
X36452Y63095D01*
X37652Y66694D02*
X40051D01*
Y66094D01*
X37652Y63695D01*
Y63095D01*
X52799Y87601D02*
X49201D01*
Y89400D01*
X49800Y90000D01*
X51000D01*
X51600Y89400D01*
Y87601D01*
Y88801D02*
X52799Y90000D01*
X49201Y93599D02*
X49800Y92399D01*
X51000Y91200D01*
X52200D01*
X52799Y91800D01*
Y92999D01*
X52200Y93599D01*
X51600D01*
X51000Y92999D01*
Y91200D01*
X34451Y68837D02*
Y72436D01*
X36251D01*
X36851Y71836D01*
Y70636D01*
X36251Y70036D01*
X34451D01*
X35651D02*
X36851Y68837D01*
X40449Y72436D02*
X38050D01*
Y70636D01*
X39250Y71236D01*
X39850D01*
X40449Y70636D01*
Y69437D01*
X39850Y68837D01*
X38650D01*
X38050Y69437D01*
X26399Y160201D02*
X22801D01*
Y162000D01*
X23400Y162600D01*
X24600D01*
X25200Y162000D01*
Y160201D01*
Y161401D02*
X26399Y162600D01*
Y165599D02*
X22801D01*
X24600Y163800D01*
Y166199D01*
X42336Y160201D02*
X38738D01*
Y162000D01*
X39337Y162600D01*
X40537D01*
X41137Y162000D01*
Y160201D01*
Y161401D02*
X42336Y162600D01*
X39337Y163800D02*
X38738Y164400D01*
Y165599D01*
X39337Y166199D01*
X39937D01*
X40537Y165599D01*
Y164999D01*
Y165599D01*
X41137Y166199D01*
X41737D01*
X42336Y165599D01*
Y164400D01*
X41737Y163800D01*
X97201Y145801D02*
Y149399D01*
X99000D01*
X99600Y148800D01*
Y147600D01*
X99000Y147000D01*
X97201D01*
X98401D02*
X99600Y145801D01*
X103199D02*
X100800D01*
X103199Y148200D01*
Y148800D01*
X102599Y149399D01*
X101400D01*
X100800Y148800D01*
X17401Y126601D02*
Y130199D01*
X19200D01*
X19800Y129600D01*
Y128400D01*
X19200Y127800D01*
X17401D01*
X18600D02*
X19800Y126601D01*
X21000D02*
X22199D01*
X21599D01*
Y130199D01*
X21000Y129600D01*
X58624Y7705D02*
X56225D01*
Y5906D01*
X57425D01*
X56225D01*
Y4106D01*
X59824Y7705D02*
Y4106D01*
X61623D01*
X62223Y4706D01*
Y5306D01*
X61623Y5906D01*
X59824D01*
X61623D01*
X62223Y6505D01*
Y7105D01*
X61623Y7705D01*
X59824D01*
X65822Y4106D02*
X63423D01*
X65822Y6505D01*
Y7105D01*
X65222Y7705D01*
X64023D01*
X63423Y7105D01*
X82846Y25422D02*
X80447D01*
Y23622D01*
X81647D01*
X80447D01*
Y21823D01*
X84046Y25422D02*
Y21823D01*
X85845D01*
X86445Y22422D01*
Y23022D01*
X85845Y23622D01*
X84046D01*
X85845D01*
X86445Y24222D01*
Y24822D01*
X85845Y25422D01*
X84046D01*
X87645Y21823D02*
X88844D01*
X88244D01*
Y25422D01*
X87645Y24822D01*
X4106Y33034D02*
X7705D01*
Y34833D01*
X7105Y35433D01*
X4706D01*
X4106Y34833D01*
Y33034D01*
X7705Y36633D02*
Y37832D01*
Y37233D01*
X4106D01*
X4706Y36633D01*
X97200Y40238D02*
X96601Y39638D01*
Y38438D01*
X97200Y37839D01*
X99600D01*
X100199Y38438D01*
Y39638D01*
X99600Y40238D01*
X100199Y41437D02*
Y42637D01*
Y42037D01*
X96601D01*
X97200Y41437D01*
X96601Y46836D02*
X97200Y45636D01*
X98400Y44436D01*
X99600D01*
X100199Y45036D01*
Y46236D01*
X99600Y46836D01*
X99000D01*
X98400Y46236D01*
Y44436D01*
X82501Y29737D02*
X81901Y30336D01*
X80701D01*
X80102Y29737D01*
Y27337D01*
X80701Y26738D01*
X81901D01*
X82501Y27337D01*
X83700Y26738D02*
X84900D01*
X84300D01*
Y30336D01*
X83700Y29737D01*
X89099Y30336D02*
X86699D01*
Y28537D01*
X87899Y29137D01*
X88499D01*
X89099Y28537D01*
Y27337D01*
X88499Y26738D01*
X87299D01*
X86699Y27337D01*
X93901Y64537D02*
X93301Y65136D01*
X92101D01*
X91501Y64537D01*
Y62137D01*
X92101Y61538D01*
X93301D01*
X93901Y62137D01*
X95100Y61538D02*
X96300D01*
X95700D01*
Y65136D01*
X95100Y64537D01*
X99899Y61538D02*
Y65136D01*
X98099Y63337D01*
X100499D01*
X58200Y40238D02*
X57601Y39638D01*
Y38438D01*
X58200Y37839D01*
X60600D01*
X61199Y38438D01*
Y39638D01*
X60600Y40238D01*
X61199Y41437D02*
Y42637D01*
Y42037D01*
X57601D01*
X58200Y41437D01*
Y44436D02*
X57601Y45036D01*
Y46236D01*
X58200Y46836D01*
X58800D01*
X59400Y46236D01*
Y45636D01*
Y46236D01*
X60000Y46836D01*
X60600D01*
X61199Y46236D01*
Y45036D01*
X60600Y44436D01*
X62101Y82200D02*
X61501Y82799D01*
X60301D01*
X59702Y82200D01*
Y79800D01*
X60301Y79201D01*
X61501D01*
X62101Y79800D01*
X63300Y79201D02*
X64500D01*
X63900D01*
Y82799D01*
X63300Y82200D01*
X66299Y82799D02*
X68699D01*
Y82200D01*
X66299Y79800D01*
Y79201D01*
X70513Y29720D02*
X69914Y30320D01*
X68714D01*
X68114Y29720D01*
Y27321D01*
X68714Y26721D01*
X69914D01*
X70513Y27321D01*
X71713Y26721D02*
X72913D01*
X72313D01*
Y30320D01*
X71713Y29720D01*
X77111Y26721D02*
X74712D01*
X77111Y29120D01*
Y29720D01*
X76511Y30320D01*
X75312D01*
X74712Y29720D01*
X60300Y64537D02*
X59701Y65136D01*
X58501D01*
X57901Y64537D01*
Y62137D01*
X58501Y61538D01*
X59701D01*
X60300Y62137D01*
X61500Y61538D02*
X62700D01*
X62100D01*
Y65136D01*
X61500Y64537D01*
X64499Y61538D02*
X65699D01*
X65099D01*
Y65136D01*
X64499Y64537D01*
X36153Y60094D02*
X35553Y60694D01*
X34353D01*
X33753Y60094D01*
Y57695D01*
X34353Y57095D01*
X35553D01*
X36153Y57695D01*
X37352Y57095D02*
X38552D01*
X37952D01*
Y60694D01*
X37352Y60094D01*
X40351D02*
X40951Y60694D01*
X42151D01*
X42750Y60094D01*
Y57695D01*
X42151Y57095D01*
X40951D01*
X40351Y57695D01*
Y60094D01*
X44400Y90000D02*
X43801Y89400D01*
Y88201D01*
X44400Y87601D01*
X46800D01*
X47399Y88201D01*
Y89400D01*
X46800Y90000D01*
Y91200D02*
X47399Y91800D01*
Y92999D01*
X46800Y93599D01*
X44400D01*
X43801Y92999D01*
Y91800D01*
X44400Y91200D01*
X45000D01*
X45600Y91800D01*
Y93599D01*
X99600Y154800D02*
X99000Y155399D01*
X97801D01*
X97201Y154800D01*
Y152400D01*
X97801Y151801D01*
X99000D01*
X99600Y152400D01*
X100800Y154800D02*
X101400Y155399D01*
X102599D01*
X103199Y154800D01*
Y154200D01*
X102599Y153600D01*
X103199Y153000D01*
Y152400D01*
X102599Y151801D01*
X101400D01*
X100800Y152400D01*
Y153000D01*
X101400Y153600D01*
X100800Y154200D01*
Y154800D01*
X101400Y153600D02*
X102599D01*
X73800Y91800D02*
X73201Y91200D01*
Y90001D01*
X73800Y89401D01*
X76200D01*
X76799Y90001D01*
Y91200D01*
X76200Y91800D01*
X73201Y93000D02*
Y95399D01*
X73800D01*
X76200Y93000D01*
X76799D01*
X105600Y126000D02*
X105000Y126599D01*
X103801D01*
X103201Y126000D01*
Y123600D01*
X103801Y123001D01*
X105000D01*
X105600Y123600D01*
X109199Y126599D02*
X107999Y126000D01*
X106800Y124800D01*
Y123600D01*
X107400Y123001D01*
X108599D01*
X109199Y123600D01*
Y124200D01*
X108599Y124800D01*
X106800D01*
X28800Y130200D02*
X28200Y130799D01*
X27001D01*
X26401Y130200D01*
Y127800D01*
X27001Y127201D01*
X28200D01*
X28800Y127800D01*
X32399Y130799D02*
X30000D01*
Y129000D01*
X31199Y129600D01*
X31799D01*
X32399Y129000D01*
Y127800D01*
X31799Y127201D01*
X30600D01*
X30000Y127800D01*
X61200Y91800D02*
X60601Y91200D01*
Y90001D01*
X61200Y89401D01*
X63600D01*
X64199Y90001D01*
Y91200D01*
X63600Y91800D01*
X64199Y94799D02*
X60601D01*
X62400Y93000D01*
Y95399D01*
X105600Y114600D02*
X105000Y115199D01*
X103801D01*
X103201Y114600D01*
Y112200D01*
X103801Y111601D01*
X105000D01*
X105600Y112200D01*
X106800Y114600D02*
X107400Y115199D01*
X108599D01*
X109199Y114600D01*
Y114000D01*
X108599Y113400D01*
X107999D01*
X108599D01*
X109199Y112800D01*
Y112200D01*
X108599Y111601D01*
X107400D01*
X106800Y112200D01*
X76200Y169507D02*
X75600Y170106D01*
X74401D01*
X73801Y169507D01*
Y167107D01*
X74401Y166508D01*
X75600D01*
X76200Y167107D01*
X79799Y166508D02*
X77400D01*
X79799Y168907D01*
Y169507D01*
X79199Y170106D01*
X78000D01*
X77400Y169507D01*
X29400Y113400D02*
X28800Y113999D01*
X27601D01*
X27001Y113400D01*
Y111000D01*
X27601Y110401D01*
X28800D01*
X29400Y111000D01*
X30600Y110401D02*
X31799D01*
X31199D01*
Y113999D01*
X30600Y113400D01*
M02*
