G04*
G04 #@! TF.GenerationSoftware,Altium Limited,Altium Designer,20.0.11 (256)*
G04*
G04 Layer_Physical_Order=4*
G04 Layer_Color=16711680*
%FSLAX25Y25*%
%MOIN*%
G70*
G01*
G75*
%ADD10C,0.00600*%
%ADD56C,0.02559*%
%ADD80C,0.00810*%
%ADD81C,0.01000*%
%ADD84C,0.05906*%
%ADD85R,0.05906X0.05906*%
%ADD86O,0.03937X0.06299*%
%ADD87O,0.03937X0.08268*%
%ADD88R,0.05906X0.05906*%
%ADD89C,0.02362*%
G36*
X124016Y168175D02*
X123975Y168151D01*
X123216Y167966D01*
X123156Y168060D01*
X122956Y168320D01*
X122735Y168562D01*
X122493Y168783D01*
X122233Y168983D01*
X121957Y169159D01*
X121666Y169310D01*
X121363Y169435D01*
X121051Y169534D01*
X120731Y169605D01*
X120406Y169648D01*
X120079Y169662D01*
X119751Y169648D01*
X119427Y169605D01*
X119106Y169534D01*
X118794Y169435D01*
X118491Y169310D01*
X118201Y169159D01*
X117924Y168983D01*
X117664Y168783D01*
X117423Y168562D01*
X117201Y168320D01*
X117002Y168060D01*
X116826Y167784D01*
X116674Y167493D01*
X116549Y167190D01*
X116450Y166878D01*
X116379Y166558D01*
X116337Y166233D01*
X116322Y165905D01*
X116337Y165578D01*
X116379Y165253D01*
X116450Y164933D01*
X116549Y164621D01*
X116674Y164318D01*
X116762Y164149D01*
X111516Y158903D01*
X89461D01*
X89326Y158991D01*
X89175Y159175D01*
X88919Y159703D01*
X88934Y159758D01*
X88972Y159978D01*
X88984Y160200D01*
X88972Y160422D01*
X88934Y160642D01*
X88873Y160855D01*
X88788Y161061D01*
X88680Y161256D01*
X88551Y161437D01*
X88403Y161603D01*
X88237Y161751D01*
X88056Y161880D01*
X87861Y161988D01*
X87655Y162073D01*
X87441Y162135D01*
X87222Y162172D01*
X87000Y162184D01*
X86778Y162172D01*
X86559Y162135D01*
X86345Y162073D01*
X86139Y161988D01*
X85944Y161880D01*
X85763Y161751D01*
X85597Y161603D01*
X85449Y161437D01*
X85320Y161256D01*
X85212Y161061D01*
X85127Y160855D01*
X85066Y160642D01*
X85028Y160422D01*
X85016Y160200D01*
X85028Y159978D01*
X85066Y159758D01*
X85081Y159703D01*
X84825Y159175D01*
X84674Y158991D01*
X84539Y158903D01*
X78600D01*
X78427Y158890D01*
X78259Y158849D01*
X78099Y158783D01*
X77951Y158693D01*
X77820Y158580D01*
X74184Y154944D01*
X74022Y154972D01*
X73800Y154984D01*
X73578Y154972D01*
X73359Y154935D01*
X73145Y154873D01*
X72939Y154788D01*
X72744Y154680D01*
X72563Y154551D01*
X72397Y154403D01*
X72249Y154237D01*
X72120Y154056D01*
X72012Y153861D01*
X71927Y153655D01*
X71865Y153442D01*
X71828Y153222D01*
X71816Y153000D01*
X71828Y152778D01*
X71865Y152559D01*
X71927Y152345D01*
X72012Y152139D01*
X72120Y151944D01*
X72249Y151763D01*
X72397Y151597D01*
X72563Y151449D01*
X72744Y151320D01*
X72939Y151212D01*
X73145Y151127D01*
X73359Y151066D01*
X73578Y151028D01*
X73800Y151016D01*
X74022Y151028D01*
X74242Y151066D01*
X74455Y151127D01*
X74661Y151212D01*
X74856Y151320D01*
X75037Y151449D01*
X75203Y151597D01*
X75351Y151763D01*
X75480Y151944D01*
X75588Y152139D01*
X75673Y152345D01*
X75735Y152559D01*
X75772Y152778D01*
X75784Y153000D01*
X75772Y153222D01*
X75744Y153384D01*
X79057Y156697D01*
X80805D01*
X81136Y155897D01*
X80184Y154944D01*
X80022Y154972D01*
X79800Y154984D01*
X79578Y154972D01*
X79359Y154935D01*
X79145Y154873D01*
X78939Y154788D01*
X78744Y154680D01*
X78563Y154551D01*
X78397Y154403D01*
X78249Y154237D01*
X78120Y154056D01*
X78012Y153861D01*
X77927Y153655D01*
X77865Y153442D01*
X77828Y153222D01*
X77816Y153000D01*
X77828Y152778D01*
X77865Y152559D01*
X77927Y152345D01*
X78012Y152139D01*
X78120Y151944D01*
X78249Y151763D01*
X78397Y151597D01*
X78563Y151449D01*
X78744Y151320D01*
X78939Y151212D01*
X79145Y151127D01*
X79359Y151066D01*
X79381Y151062D01*
X79598Y150659D01*
X79621Y150225D01*
X79597Y150203D01*
X79449Y150037D01*
X79320Y149856D01*
X79212Y149661D01*
X79127Y149455D01*
X79066Y149241D01*
X79028Y149022D01*
X79016Y148800D01*
X79028Y148578D01*
X79066Y148359D01*
X79127Y148145D01*
X79212Y147939D01*
X79320Y147744D01*
X79449Y147563D01*
X79597Y147397D01*
X79763Y147249D01*
X79944Y147120D01*
X80139Y147012D01*
X80345Y146927D01*
X80559Y146865D01*
X80778Y146828D01*
X81000Y146816D01*
X81222Y146828D01*
X81441Y146865D01*
X81655Y146927D01*
X81861Y147012D01*
X82056Y147120D01*
X82237Y147249D01*
X82403Y147397D01*
X82551Y147563D01*
X82646Y147697D01*
X115893D01*
X116107Y147531D01*
X116466Y146927D01*
X116450Y146878D01*
X116379Y146558D01*
X116337Y146233D01*
X116322Y145905D01*
X116337Y145578D01*
X116379Y145253D01*
X116450Y144933D01*
X116549Y144621D01*
X116674Y144318D01*
X116826Y144027D01*
X117002Y143751D01*
X117201Y143491D01*
X117423Y143249D01*
X117664Y143028D01*
X117924Y142829D01*
X118201Y142652D01*
X118491Y142501D01*
X118794Y142376D01*
X119106Y142277D01*
X119427Y142206D01*
X119751Y142164D01*
X120079Y142149D01*
X120406Y142164D01*
X120731Y142206D01*
X121051Y142277D01*
X121363Y142376D01*
X121666Y142501D01*
X121957Y142652D01*
X122233Y142829D01*
X122493Y143028D01*
X122735Y143249D01*
X122956Y143491D01*
X123156Y143751D01*
X123216Y143845D01*
X123975Y143660D01*
X124016Y143636D01*
Y138175D01*
X123975Y138151D01*
X123216Y137966D01*
X123156Y138060D01*
X122956Y138320D01*
X122735Y138562D01*
X122493Y138783D01*
X122233Y138982D01*
X121957Y139159D01*
X121666Y139310D01*
X121363Y139435D01*
X121051Y139534D01*
X120731Y139605D01*
X120406Y139648D01*
X120079Y139662D01*
X119751Y139648D01*
X119427Y139605D01*
X119106Y139534D01*
X118794Y139435D01*
X118491Y139310D01*
X118201Y139159D01*
X117924Y138982D01*
X117664Y138783D01*
X117423Y138562D01*
X117201Y138320D01*
X117002Y138060D01*
X116826Y137784D01*
X116674Y137493D01*
X116549Y137190D01*
X116450Y136878D01*
X116379Y136558D01*
X116337Y136233D01*
X116322Y135906D01*
X116337Y135578D01*
X116379Y135253D01*
X116450Y134933D01*
X116549Y134621D01*
X116674Y134318D01*
X116826Y134027D01*
X117002Y133751D01*
X117201Y133491D01*
X117423Y133249D01*
X117664Y133028D01*
X117924Y132828D01*
X118201Y132652D01*
X118491Y132501D01*
X118794Y132376D01*
X119106Y132277D01*
X119427Y132206D01*
X119751Y132164D01*
X120079Y132149D01*
X120406Y132164D01*
X120731Y132206D01*
X121051Y132277D01*
X121363Y132376D01*
X121666Y132501D01*
X121957Y132652D01*
X122233Y132828D01*
X122493Y133028D01*
X122735Y133249D01*
X122956Y133491D01*
X123156Y133751D01*
X123216Y133845D01*
X123975Y133660D01*
X124016Y133636D01*
Y128175D01*
X123975Y128151D01*
X123216Y127966D01*
X123156Y128060D01*
X122956Y128320D01*
X122735Y128562D01*
X122493Y128783D01*
X122233Y128982D01*
X121957Y129159D01*
X121666Y129310D01*
X121363Y129435D01*
X121051Y129534D01*
X120731Y129605D01*
X120406Y129648D01*
X120079Y129662D01*
X119751Y129648D01*
X119427Y129605D01*
X119106Y129534D01*
X118794Y129435D01*
X118491Y129310D01*
X118201Y129159D01*
X117924Y128982D01*
X117664Y128783D01*
X117423Y128562D01*
X117201Y128320D01*
X117002Y128060D01*
X116826Y127784D01*
X116674Y127493D01*
X116549Y127190D01*
X116450Y126878D01*
X116379Y126558D01*
X116337Y126233D01*
X116322Y125906D01*
X116337Y125578D01*
X116379Y125253D01*
X116450Y124933D01*
X116549Y124621D01*
X116674Y124318D01*
X116826Y124027D01*
X117002Y123751D01*
X117201Y123491D01*
X117423Y123249D01*
X117664Y123028D01*
X117924Y122828D01*
X118201Y122652D01*
X118491Y122501D01*
X118794Y122376D01*
X119106Y122277D01*
X119427Y122206D01*
X119751Y122163D01*
X120079Y122149D01*
X120406Y122163D01*
X120731Y122206D01*
X121051Y122277D01*
X121363Y122376D01*
X121666Y122501D01*
X121957Y122652D01*
X122233Y122828D01*
X122493Y123028D01*
X122735Y123249D01*
X122956Y123491D01*
X123156Y123751D01*
X123216Y123845D01*
X123975Y123660D01*
X124016Y123636D01*
Y118175D01*
X123975Y118151D01*
X123216Y117966D01*
X123156Y118060D01*
X122956Y118320D01*
X122735Y118562D01*
X122493Y118783D01*
X122233Y118983D01*
X121957Y119159D01*
X121666Y119310D01*
X121363Y119435D01*
X121051Y119534D01*
X120731Y119605D01*
X120406Y119648D01*
X120079Y119662D01*
X119751Y119648D01*
X119427Y119605D01*
X119106Y119534D01*
X118794Y119435D01*
X118491Y119310D01*
X118201Y119159D01*
X117924Y118983D01*
X117664Y118783D01*
X117423Y118562D01*
X117201Y118320D01*
X117002Y118060D01*
X116826Y117784D01*
X116674Y117493D01*
X116549Y117190D01*
X116450Y116878D01*
X116379Y116558D01*
X116337Y116233D01*
X116322Y115905D01*
X116337Y115578D01*
X116379Y115253D01*
X116450Y114933D01*
X116549Y114621D01*
X116674Y114318D01*
X116826Y114027D01*
X117002Y113751D01*
X117201Y113491D01*
X117423Y113249D01*
X117664Y113028D01*
X117924Y112829D01*
X118201Y112652D01*
X118491Y112501D01*
X118794Y112376D01*
X119106Y112277D01*
X119427Y112206D01*
X119751Y112163D01*
X120079Y112149D01*
X120406Y112163D01*
X120731Y112206D01*
X121051Y112277D01*
X121363Y112376D01*
X121666Y112501D01*
X121957Y112652D01*
X122233Y112829D01*
X122493Y113028D01*
X122735Y113249D01*
X122956Y113491D01*
X123156Y113751D01*
X123216Y113845D01*
X123975Y113660D01*
X124016Y113636D01*
Y108175D01*
X123975Y108151D01*
X123216Y107966D01*
X123156Y108060D01*
X122956Y108320D01*
X122735Y108562D01*
X122493Y108783D01*
X122233Y108983D01*
X121957Y109159D01*
X121666Y109310D01*
X121363Y109435D01*
X121051Y109534D01*
X120731Y109605D01*
X120406Y109648D01*
X120079Y109662D01*
X119751Y109648D01*
X119427Y109605D01*
X119106Y109534D01*
X118794Y109435D01*
X118491Y109310D01*
X118201Y109159D01*
X117924Y108983D01*
X117664Y108783D01*
X117423Y108562D01*
X117201Y108320D01*
X117002Y108060D01*
X116826Y107784D01*
X116674Y107493D01*
X116549Y107190D01*
X116450Y106878D01*
X116379Y106558D01*
X116337Y106233D01*
X116322Y105905D01*
X116337Y105578D01*
X116379Y105253D01*
X116450Y104933D01*
X116549Y104621D01*
X116674Y104318D01*
X116826Y104027D01*
X117002Y103751D01*
X117201Y103491D01*
X117423Y103249D01*
X117664Y103028D01*
X117924Y102829D01*
X118201Y102652D01*
X118491Y102501D01*
X118794Y102376D01*
X119106Y102277D01*
X119427Y102206D01*
X119751Y102164D01*
X120079Y102149D01*
X120406Y102164D01*
X120731Y102206D01*
X121051Y102277D01*
X121363Y102376D01*
X121666Y102501D01*
X121957Y102652D01*
X122233Y102829D01*
X122493Y103028D01*
X122735Y103249D01*
X122956Y103491D01*
X123156Y103751D01*
X123216Y103845D01*
X123975Y103660D01*
X124016Y103636D01*
Y98175D01*
X123975Y98151D01*
X123216Y97966D01*
X123156Y98060D01*
X122956Y98320D01*
X122735Y98562D01*
X122493Y98783D01*
X122233Y98983D01*
X121957Y99159D01*
X121666Y99310D01*
X121363Y99435D01*
X121051Y99534D01*
X120731Y99605D01*
X120406Y99648D01*
X120079Y99662D01*
X119751Y99648D01*
X119427Y99605D01*
X119106Y99534D01*
X118794Y99435D01*
X118491Y99310D01*
X118201Y99159D01*
X117924Y98983D01*
X117664Y98783D01*
X117423Y98562D01*
X117201Y98320D01*
X117002Y98060D01*
X116826Y97784D01*
X116674Y97493D01*
X116549Y97190D01*
X116450Y96878D01*
X116379Y96558D01*
X116337Y96233D01*
X116322Y95906D01*
X116337Y95578D01*
X116379Y95253D01*
X116450Y94933D01*
X116549Y94621D01*
X116674Y94318D01*
X116826Y94027D01*
X117002Y93751D01*
X117201Y93491D01*
X117423Y93249D01*
X117664Y93028D01*
X117924Y92829D01*
X118201Y92652D01*
X118491Y92501D01*
X118794Y92376D01*
X119106Y92277D01*
X119427Y92206D01*
X119751Y92163D01*
X120079Y92149D01*
X120406Y92163D01*
X120731Y92206D01*
X121051Y92277D01*
X121363Y92376D01*
X121666Y92501D01*
X121957Y92652D01*
X122233Y92829D01*
X122493Y93028D01*
X122735Y93249D01*
X122956Y93491D01*
X123156Y93751D01*
X123216Y93845D01*
X123975Y93660D01*
X124016Y93636D01*
Y88175D01*
X123975Y88151D01*
X123216Y87966D01*
X123156Y88060D01*
X122956Y88320D01*
X122735Y88562D01*
X122493Y88783D01*
X122233Y88982D01*
X121957Y89159D01*
X121666Y89310D01*
X121363Y89435D01*
X121051Y89534D01*
X120731Y89605D01*
X120406Y89648D01*
X120079Y89662D01*
X119751Y89648D01*
X119427Y89605D01*
X119106Y89534D01*
X118794Y89435D01*
X118491Y89310D01*
X118201Y89159D01*
X117924Y88982D01*
X117664Y88783D01*
X117423Y88562D01*
X117201Y88320D01*
X117002Y88060D01*
X116826Y87784D01*
X116674Y87493D01*
X116549Y87190D01*
X116450Y86878D01*
X116379Y86558D01*
X116337Y86233D01*
X116322Y85905D01*
X116337Y85578D01*
X116379Y85253D01*
X116450Y84933D01*
X116549Y84621D01*
X116674Y84318D01*
X116826Y84027D01*
X117002Y83751D01*
X117201Y83491D01*
X117423Y83249D01*
X117664Y83028D01*
X117924Y82828D01*
X118201Y82652D01*
X118491Y82501D01*
X118794Y82376D01*
X119106Y82277D01*
X119427Y82206D01*
X119751Y82164D01*
X120079Y82149D01*
X120406Y82164D01*
X120731Y82206D01*
X121051Y82277D01*
X121363Y82376D01*
X121666Y82501D01*
X121957Y82652D01*
X122233Y82828D01*
X122493Y83028D01*
X122735Y83249D01*
X122956Y83491D01*
X123156Y83751D01*
X123216Y83845D01*
X123975Y83660D01*
X124016Y83636D01*
Y78175D01*
X123975Y78151D01*
X123216Y77966D01*
X123156Y78060D01*
X122956Y78320D01*
X122735Y78562D01*
X122493Y78783D01*
X122233Y78983D01*
X121957Y79159D01*
X121666Y79310D01*
X121363Y79435D01*
X121051Y79534D01*
X120731Y79605D01*
X120406Y79648D01*
X120079Y79662D01*
X119751Y79648D01*
X119427Y79605D01*
X119106Y79534D01*
X118794Y79435D01*
X118491Y79310D01*
X118201Y79159D01*
X117924Y78983D01*
X117664Y78783D01*
X117423Y78562D01*
X117201Y78320D01*
X117002Y78060D01*
X116826Y77784D01*
X116674Y77493D01*
X116549Y77190D01*
X116450Y76878D01*
X116379Y76558D01*
X116337Y76233D01*
X116322Y75906D01*
X116337Y75578D01*
X116379Y75253D01*
X116450Y74933D01*
X116549Y74621D01*
X116674Y74318D01*
X116826Y74027D01*
X117002Y73751D01*
X117201Y73491D01*
X117423Y73249D01*
X117664Y73028D01*
X117924Y72829D01*
X118201Y72652D01*
X118491Y72501D01*
X118794Y72376D01*
X119106Y72277D01*
X119427Y72206D01*
X119751Y72163D01*
X120079Y72149D01*
X120406Y72163D01*
X120731Y72206D01*
X121051Y72277D01*
X121363Y72376D01*
X121666Y72501D01*
X121957Y72652D01*
X122233Y72829D01*
X122493Y73028D01*
X122735Y73249D01*
X122956Y73491D01*
X123156Y73751D01*
X123216Y73845D01*
X123975Y73660D01*
X124016Y73636D01*
Y68175D01*
X123975Y68151D01*
X123216Y67966D01*
X123156Y68060D01*
X122956Y68320D01*
X122735Y68562D01*
X122493Y68783D01*
X122233Y68982D01*
X121957Y69159D01*
X121666Y69310D01*
X121363Y69435D01*
X121051Y69534D01*
X120731Y69605D01*
X120406Y69648D01*
X120079Y69662D01*
X119751Y69648D01*
X119427Y69605D01*
X119106Y69534D01*
X118794Y69435D01*
X118491Y69310D01*
X118201Y69159D01*
X117924Y68982D01*
X117664Y68783D01*
X117423Y68562D01*
X117201Y68320D01*
X117002Y68060D01*
X116826Y67784D01*
X116674Y67493D01*
X116549Y67190D01*
X116450Y66878D01*
X116379Y66558D01*
X116337Y66233D01*
X116322Y65905D01*
X116337Y65578D01*
X116379Y65253D01*
X116450Y64933D01*
X116549Y64621D01*
X116674Y64318D01*
X116826Y64027D01*
X117002Y63751D01*
X117201Y63491D01*
X117423Y63249D01*
X117664Y63028D01*
X117924Y62828D01*
X118201Y62652D01*
X118491Y62501D01*
X118794Y62376D01*
X119106Y62277D01*
X119427Y62206D01*
X119751Y62164D01*
X120079Y62149D01*
X120406Y62164D01*
X120731Y62206D01*
X121051Y62277D01*
X121363Y62376D01*
X121666Y62501D01*
X121957Y62652D01*
X122233Y62828D01*
X122493Y63028D01*
X122735Y63249D01*
X122956Y63491D01*
X123156Y63751D01*
X123216Y63845D01*
X123975Y63660D01*
X124016Y63636D01*
Y58175D01*
X123975Y58151D01*
X123216Y57966D01*
X123156Y58060D01*
X122956Y58320D01*
X122735Y58562D01*
X122493Y58783D01*
X122233Y58982D01*
X121957Y59159D01*
X121666Y59310D01*
X121363Y59435D01*
X121051Y59534D01*
X120731Y59605D01*
X120406Y59648D01*
X120079Y59662D01*
X119751Y59648D01*
X119427Y59605D01*
X119106Y59534D01*
X118794Y59435D01*
X118491Y59310D01*
X118201Y59159D01*
X117924Y58982D01*
X117664Y58783D01*
X117423Y58562D01*
X117201Y58320D01*
X117002Y58060D01*
X116826Y57784D01*
X116674Y57493D01*
X116549Y57190D01*
X116450Y56878D01*
X116379Y56558D01*
X116337Y56233D01*
X116322Y55905D01*
X116337Y55578D01*
X116379Y55253D01*
X116450Y54933D01*
X116549Y54621D01*
X116674Y54318D01*
X116826Y54027D01*
X117002Y53751D01*
X117201Y53491D01*
X117423Y53249D01*
X117664Y53028D01*
X117924Y52829D01*
X118201Y52652D01*
X118491Y52501D01*
X118794Y52376D01*
X119106Y52277D01*
X119427Y52206D01*
X119751Y52163D01*
X120079Y52149D01*
X120406Y52163D01*
X120731Y52206D01*
X121051Y52277D01*
X121363Y52376D01*
X121666Y52501D01*
X121957Y52652D01*
X122233Y52829D01*
X122493Y53028D01*
X122735Y53249D01*
X122956Y53491D01*
X123156Y53751D01*
X123216Y53845D01*
X123975Y53660D01*
X124016Y53636D01*
Y48175D01*
X123975Y48151D01*
X123216Y47966D01*
X123156Y48060D01*
X122956Y48320D01*
X122735Y48562D01*
X122493Y48783D01*
X122233Y48983D01*
X121957Y49159D01*
X121666Y49310D01*
X121363Y49435D01*
X121051Y49534D01*
X120731Y49605D01*
X120406Y49648D01*
X120079Y49662D01*
X119751Y49648D01*
X119427Y49605D01*
X119106Y49534D01*
X118794Y49435D01*
X118491Y49310D01*
X118201Y49159D01*
X117924Y48983D01*
X117664Y48783D01*
X117423Y48562D01*
X117201Y48320D01*
X117002Y48060D01*
X116826Y47784D01*
X116674Y47493D01*
X116549Y47190D01*
X116450Y46878D01*
X116379Y46558D01*
X116337Y46233D01*
X116322Y45906D01*
X116337Y45578D01*
X116379Y45253D01*
X116450Y44933D01*
X116549Y44621D01*
X116674Y44318D01*
X116826Y44027D01*
X117002Y43751D01*
X117201Y43491D01*
X117423Y43249D01*
X117664Y43028D01*
X117924Y42829D01*
X118201Y42652D01*
X118491Y42501D01*
X118794Y42376D01*
X119106Y42277D01*
X119427Y42206D01*
X119751Y42164D01*
X120079Y42149D01*
X120406Y42164D01*
X120731Y42206D01*
X121051Y42277D01*
X121363Y42376D01*
X121666Y42501D01*
X121957Y42652D01*
X122233Y42829D01*
X122493Y43028D01*
X122735Y43249D01*
X122956Y43491D01*
X123156Y43751D01*
X123216Y43845D01*
X123975Y43660D01*
X124016Y43636D01*
Y38175D01*
X123975Y38151D01*
X123216Y37966D01*
X123156Y38060D01*
X122956Y38320D01*
X122735Y38562D01*
X122493Y38783D01*
X122233Y38982D01*
X121957Y39159D01*
X121666Y39310D01*
X121363Y39435D01*
X121051Y39534D01*
X120731Y39605D01*
X120406Y39648D01*
X120079Y39662D01*
X119751Y39648D01*
X119427Y39605D01*
X119106Y39534D01*
X118794Y39435D01*
X118491Y39310D01*
X118201Y39159D01*
X117924Y38982D01*
X117664Y38783D01*
X117423Y38562D01*
X117201Y38320D01*
X117002Y38060D01*
X116826Y37784D01*
X116674Y37493D01*
X116549Y37190D01*
X116450Y36878D01*
X116379Y36558D01*
X116337Y36233D01*
X116322Y35906D01*
X116337Y35578D01*
X116379Y35253D01*
X116450Y34933D01*
X116549Y34621D01*
X116674Y34318D01*
X116826Y34027D01*
X117002Y33751D01*
X117201Y33491D01*
X117423Y33249D01*
X117664Y33028D01*
X117924Y32829D01*
X118201Y32652D01*
X118491Y32501D01*
X118794Y32376D01*
X119106Y32277D01*
X119427Y32206D01*
X119751Y32164D01*
X120079Y32149D01*
X120406Y32164D01*
X120731Y32206D01*
X121051Y32277D01*
X121363Y32376D01*
X121666Y32501D01*
X121957Y32652D01*
X122233Y32829D01*
X122493Y33028D01*
X122735Y33249D01*
X122956Y33491D01*
X123156Y33751D01*
X123216Y33845D01*
X123975Y33660D01*
X124016Y33636D01*
Y28175D01*
X123975Y28151D01*
X123216Y27966D01*
X123156Y28060D01*
X122956Y28320D01*
X122735Y28562D01*
X122493Y28783D01*
X122233Y28982D01*
X121957Y29159D01*
X121666Y29310D01*
X121363Y29435D01*
X121051Y29534D01*
X120731Y29605D01*
X120406Y29648D01*
X120079Y29662D01*
X119751Y29648D01*
X119427Y29605D01*
X119106Y29534D01*
X118794Y29435D01*
X118491Y29310D01*
X118201Y29159D01*
X117924Y28982D01*
X117664Y28783D01*
X117423Y28562D01*
X117201Y28320D01*
X117002Y28060D01*
X116826Y27784D01*
X116674Y27493D01*
X116549Y27190D01*
X116450Y26878D01*
X116379Y26558D01*
X116337Y26233D01*
X116322Y25905D01*
X116337Y25578D01*
X116379Y25253D01*
X116450Y24933D01*
X116549Y24621D01*
X116674Y24318D01*
X116826Y24027D01*
X117002Y23751D01*
X117201Y23491D01*
X117423Y23249D01*
X117664Y23028D01*
X117924Y22828D01*
X118201Y22652D01*
X118491Y22501D01*
X118794Y22376D01*
X119106Y22277D01*
X119427Y22206D01*
X119751Y22163D01*
X120079Y22149D01*
X120406Y22163D01*
X120731Y22206D01*
X121051Y22277D01*
X121363Y22376D01*
X121666Y22501D01*
X121957Y22652D01*
X122233Y22828D01*
X122493Y23028D01*
X122735Y23249D01*
X122956Y23491D01*
X123156Y23751D01*
X123216Y23845D01*
X123975Y23660D01*
X124016Y23636D01*
Y18175D01*
X123975Y18151D01*
X123216Y17966D01*
X123156Y18060D01*
X122956Y18320D01*
X122735Y18562D01*
X122493Y18783D01*
X122233Y18982D01*
X121957Y19159D01*
X121666Y19310D01*
X121363Y19435D01*
X121051Y19534D01*
X120731Y19605D01*
X120406Y19648D01*
X120079Y19662D01*
X119751Y19648D01*
X119427Y19605D01*
X119106Y19534D01*
X118794Y19435D01*
X118491Y19310D01*
X118201Y19159D01*
X117924Y18982D01*
X117664Y18783D01*
X117423Y18562D01*
X117201Y18320D01*
X117002Y18060D01*
X116826Y17784D01*
X116674Y17493D01*
X116549Y17190D01*
X116450Y16878D01*
X116379Y16558D01*
X116337Y16233D01*
X116322Y15905D01*
X116337Y15578D01*
X116379Y15253D01*
X116450Y14933D01*
X116549Y14621D01*
X116674Y14318D01*
X116826Y14027D01*
X117002Y13751D01*
X117201Y13491D01*
X117423Y13249D01*
X117664Y13028D01*
X117924Y12829D01*
X118201Y12652D01*
X118491Y12501D01*
X118794Y12376D01*
X119106Y12277D01*
X119427Y12206D01*
X119751Y12163D01*
X120079Y12149D01*
X120406Y12163D01*
X120731Y12206D01*
X121051Y12277D01*
X121363Y12376D01*
X121666Y12501D01*
X121957Y12652D01*
X122233Y12829D01*
X122493Y13028D01*
X122735Y13249D01*
X122956Y13491D01*
X123156Y13751D01*
X123216Y13845D01*
X123975Y13660D01*
X124016Y13636D01*
Y8175D01*
X123975Y8151D01*
X123216Y7966D01*
X123156Y8060D01*
X122956Y8320D01*
X122735Y8562D01*
X122493Y8783D01*
X122233Y8982D01*
X121957Y9159D01*
X121666Y9310D01*
X121363Y9435D01*
X121051Y9534D01*
X120731Y9605D01*
X120406Y9647D01*
X120079Y9662D01*
X119751Y9647D01*
X119427Y9605D01*
X119106Y9534D01*
X118794Y9435D01*
X118491Y9310D01*
X118201Y9159D01*
X117924Y8982D01*
X117664Y8783D01*
X117423Y8562D01*
X117201Y8320D01*
X117002Y8060D01*
X116826Y7784D01*
X116674Y7493D01*
X116549Y7190D01*
X116450Y6878D01*
X116379Y6558D01*
X116337Y6233D01*
X116322Y5906D01*
X116337Y5578D01*
X116379Y5253D01*
X116450Y4933D01*
X116549Y4621D01*
X116674Y4318D01*
X116826Y4027D01*
X117002Y3751D01*
X117201Y3491D01*
X117423Y3249D01*
X117664Y3028D01*
X117924Y2829D01*
X118018Y2768D01*
X117833Y2009D01*
X117810Y1969D01*
X56604D01*
Y15545D01*
X56599Y15599D01*
X56597Y15653D01*
X56591Y15677D01*
X56588Y15702D01*
X56573Y15753D01*
X56560Y15806D01*
X56550Y15829D01*
X56543Y15853D01*
X56517Y15900D01*
X56495Y15949D01*
X56480Y15970D01*
X56468Y15992D01*
X56434Y16033D01*
X56402Y16077D01*
X56293Y16201D01*
X56236Y16254D01*
X56181Y16306D01*
X56280Y16661D01*
X56388Y16856D01*
X56473Y17061D01*
X56534Y17275D01*
X56572Y17494D01*
X56584Y17717D01*
X56572Y17939D01*
X56534Y18158D01*
X56473Y18372D01*
X56388Y18577D01*
X56280Y18772D01*
X56181Y19127D01*
X56237Y19180D01*
X56293Y19232D01*
X56402Y19356D01*
X56434Y19400D01*
X56468Y19442D01*
X56480Y19464D01*
X56495Y19484D01*
X56517Y19533D01*
X56543Y19580D01*
X56550Y19604D01*
X56560Y19627D01*
X56573Y19680D01*
X56588Y19731D01*
X56591Y19756D01*
X56597Y19780D01*
X56599Y19834D01*
X56604Y19888D01*
Y21450D01*
X56599Y21504D01*
X56597Y21558D01*
X56591Y21583D01*
X56588Y21607D01*
X56573Y21659D01*
X56560Y21711D01*
X56550Y21734D01*
X56543Y21758D01*
X56517Y21806D01*
X56495Y21855D01*
X56480Y21875D01*
X56468Y21897D01*
X56434Y21939D01*
X56402Y21983D01*
X56293Y22106D01*
X56236Y22159D01*
X56181Y22211D01*
X56280Y22566D01*
X56388Y22761D01*
X56473Y22967D01*
X56534Y23180D01*
X56572Y23400D01*
X56584Y23622D01*
X56572Y23844D01*
X56534Y24064D01*
X56473Y24277D01*
X56388Y24483D01*
X56280Y24678D01*
X56181Y25033D01*
X56237Y25085D01*
X56293Y25138D01*
X56402Y25262D01*
X56434Y25305D01*
X56468Y25347D01*
X56480Y25369D01*
X56495Y25389D01*
X56517Y25438D01*
X56543Y25486D01*
X56550Y25510D01*
X56560Y25533D01*
X56573Y25585D01*
X56588Y25637D01*
X56591Y25662D01*
X56597Y25686D01*
X56599Y25740D01*
X56604Y25794D01*
Y36600D01*
X56588Y36757D01*
X56543Y36908D01*
X56468Y37047D01*
X56368Y37168D01*
X56247Y37268D01*
X56108Y37343D01*
X55957Y37388D01*
X55800Y37404D01*
X45094D01*
X45038Y37398D01*
X44982Y37396D01*
X44960Y37391D01*
X44938Y37388D01*
X44929Y37386D01*
X44898Y37461D01*
X44790Y37656D01*
X44662Y37837D01*
X44513Y38003D01*
X44347Y38151D01*
X44166Y38280D01*
X43971Y38388D01*
X43766Y38473D01*
X43552Y38535D01*
X43332Y38572D01*
X43110Y38584D01*
X42888Y38572D01*
X42669Y38535D01*
X42455Y38473D01*
X42249Y38388D01*
X42055Y38280D01*
X41873Y38151D01*
X41707Y38003D01*
X41559Y37837D01*
X41430Y37656D01*
X41322Y37461D01*
X41291Y37386D01*
X41283Y37388D01*
X41260Y37391D01*
X41238Y37396D01*
X41182Y37398D01*
X41126Y37404D01*
X39962D01*
X39900Y37398D01*
X39837Y37394D01*
X39821Y37390D01*
X39805Y37388D01*
X39745Y37370D01*
X39685Y37355D01*
X39386Y37450D01*
X39045Y37808D01*
X38989Y37872D01*
X38879Y38021D01*
X38669Y38252D01*
X38438Y38462D01*
X38187Y38648D01*
X37919Y38809D01*
X37636Y38943D01*
X37342Y39048D01*
X37039Y39124D01*
X36729Y39170D01*
X36650Y39173D01*
X34973Y40850D01*
X34970Y40929D01*
X34924Y41239D01*
X34848Y41542D01*
X34743Y41836D01*
X34609Y42119D01*
X34448Y42387D01*
X34262Y42638D01*
X34052Y42869D01*
X33821Y43079D01*
X33569Y43266D01*
X33301Y43426D01*
X33019Y43560D01*
X32724Y43665D01*
X32421Y43741D01*
X32112Y43787D01*
X31800Y43802D01*
X31488Y43787D01*
X31179Y43741D01*
X30876Y43665D01*
X30581Y43560D01*
X30299Y43426D01*
X30031Y43266D01*
X29779Y43079D01*
X29548Y42869D01*
X29338Y42638D01*
X29152Y42387D01*
X28991Y42119D01*
X28857Y41836D01*
X28752Y41542D01*
X28676Y41239D01*
X28630Y40929D01*
X28615Y40617D01*
X28630Y40305D01*
X28676Y39996D01*
X28752Y39693D01*
X28857Y39399D01*
X28991Y39116D01*
X29152Y38848D01*
X29338Y38597D01*
X29548Y38365D01*
X29726Y38204D01*
X29716Y38011D01*
X29450Y37404D01*
X25803D01*
X25747Y37398D01*
X25691Y37396D01*
X25669Y37391D01*
X25646Y37388D01*
X25638Y37386D01*
X25607Y37461D01*
X25499Y37656D01*
X25370Y37837D01*
X25222Y38003D01*
X25056Y38151D01*
X24875Y38280D01*
X24680Y38388D01*
X24474Y38473D01*
X24260Y38535D01*
X24041Y38572D01*
X23819Y38584D01*
X23597Y38572D01*
X23377Y38535D01*
X23164Y38473D01*
X22958Y38388D01*
X22763Y38280D01*
X22582Y38151D01*
X22416Y38003D01*
X22268Y37837D01*
X22139Y37656D01*
X22031Y37461D01*
X22000Y37386D01*
X21992Y37388D01*
X21969Y37391D01*
X21947Y37396D01*
X21891Y37398D01*
X21835Y37404D01*
X12000D01*
X11843Y37388D01*
X11692Y37343D01*
X11553Y37268D01*
X11432Y37168D01*
X11332Y37047D01*
X11257Y36908D01*
X11212Y36757D01*
X11196Y36600D01*
Y1969D01*
X1969D01*
Y71429D01*
X2153Y72153D01*
X2768Y72153D01*
X9658D01*
Y79658D01*
X2768D01*
X2153Y79658D01*
X1969Y80382D01*
Y83636D01*
X2009Y83660D01*
X2768Y83845D01*
X2829Y83751D01*
X3028Y83491D01*
X3249Y83249D01*
X3491Y83028D01*
X3751Y82828D01*
X4027Y82652D01*
X4318Y82501D01*
X4621Y82376D01*
X4933Y82277D01*
X5253Y82206D01*
X5578Y82164D01*
X5906Y82149D01*
X6233Y82164D01*
X6558Y82206D01*
X6878Y82277D01*
X7190Y82376D01*
X7493Y82501D01*
X7784Y82652D01*
X8060Y82828D01*
X8320Y83028D01*
X8562Y83249D01*
X8783Y83491D01*
X8982Y83751D01*
X9159Y84027D01*
X9310Y84318D01*
X9435Y84621D01*
X9534Y84933D01*
X9605Y85253D01*
X9647Y85578D01*
X9662Y85905D01*
X9647Y86233D01*
X9605Y86558D01*
X9534Y86878D01*
X9435Y87190D01*
X9310Y87493D01*
X9159Y87784D01*
X8982Y88060D01*
X8783Y88320D01*
X8562Y88562D01*
X8320Y88783D01*
X8060Y88982D01*
X7784Y89159D01*
X7493Y89310D01*
X7190Y89435D01*
X6878Y89534D01*
X6558Y89605D01*
X6233Y89648D01*
X5906Y89662D01*
X5578Y89648D01*
X5253Y89605D01*
X4933Y89534D01*
X4621Y89435D01*
X4318Y89310D01*
X4027Y89159D01*
X3751Y88982D01*
X3491Y88783D01*
X3249Y88562D01*
X3028Y88320D01*
X2829Y88060D01*
X2768Y87966D01*
X2009Y88151D01*
X1969Y88175D01*
Y94071D01*
X2015Y94093D01*
X2768Y94238D01*
X2826Y94127D01*
X2992Y93866D01*
X3181Y93620D01*
X3391Y93391D01*
X3620Y93181D01*
X3866Y92993D01*
X4127Y92826D01*
X4403Y92683D01*
X4689Y92564D01*
X4985Y92471D01*
X5288Y92403D01*
X5406Y92388D01*
Y95906D01*
Y99423D01*
X5288Y99408D01*
X4985Y99340D01*
X4689Y99247D01*
X4403Y99129D01*
X4127Y98985D01*
X3866Y98818D01*
X3620Y98630D01*
X3391Y98420D01*
X3181Y98191D01*
X2992Y97945D01*
X2826Y97684D01*
X2768Y97574D01*
X2015Y97718D01*
X1969Y97740D01*
Y103636D01*
X2009Y103660D01*
X2768Y103845D01*
X2829Y103751D01*
X3028Y103491D01*
X3249Y103249D01*
X3491Y103028D01*
X3751Y102829D01*
X4027Y102652D01*
X4318Y102501D01*
X4621Y102376D01*
X4933Y102277D01*
X5253Y102206D01*
X5578Y102164D01*
X5906Y102149D01*
X6233Y102164D01*
X6558Y102206D01*
X6878Y102277D01*
X7190Y102376D01*
X7493Y102501D01*
X7784Y102652D01*
X8060Y102829D01*
X8320Y103028D01*
X8562Y103249D01*
X8783Y103491D01*
X8982Y103751D01*
X9159Y104027D01*
X9310Y104318D01*
X9435Y104621D01*
X9493Y104802D01*
X38260D01*
X38432Y104816D01*
X38601Y104856D01*
X38761Y104922D01*
X38908Y105013D01*
X39040Y105125D01*
X39970Y106056D01*
X40132Y106028D01*
X40354Y106016D01*
X40576Y106028D01*
X40796Y106065D01*
X41010Y106127D01*
X41215Y106212D01*
X41410Y106320D01*
X41592Y106449D01*
X41757Y106597D01*
X41906Y106763D01*
X42034Y106944D01*
X42142Y107139D01*
X42227Y107345D01*
X42289Y107559D01*
X42326Y107778D01*
X42338Y108000D01*
X42326Y108222D01*
X42289Y108441D01*
X42227Y108655D01*
X42142Y108861D01*
X42034Y109056D01*
X41906Y109237D01*
X41757Y109403D01*
X41592Y109551D01*
X41410Y109680D01*
X41215Y109788D01*
X41010Y109873D01*
X40796Y109934D01*
X40576Y109972D01*
X40354Y109984D01*
X40132Y109972D01*
X39913Y109934D01*
X39699Y109873D01*
X39493Y109788D01*
X39299Y109680D01*
X39117Y109551D01*
X38951Y109403D01*
X38803Y109237D01*
X38674Y109056D01*
X38567Y108861D01*
X38482Y108655D01*
X38420Y108441D01*
X38383Y108222D01*
X38370Y108000D01*
X38383Y107778D01*
X38410Y107616D01*
X37803Y107009D01*
X9493D01*
X9435Y107190D01*
X9310Y107493D01*
X9159Y107784D01*
X8982Y108060D01*
X8783Y108320D01*
X8562Y108562D01*
X8320Y108783D01*
X8060Y108983D01*
X7784Y109159D01*
X7493Y109310D01*
X7190Y109435D01*
X6878Y109534D01*
X6558Y109605D01*
X6233Y109648D01*
X5906Y109662D01*
X5578Y109648D01*
X5253Y109605D01*
X4933Y109534D01*
X4621Y109435D01*
X4318Y109310D01*
X4027Y109159D01*
X3751Y108983D01*
X3491Y108783D01*
X3249Y108562D01*
X3028Y108320D01*
X2829Y108060D01*
X2768Y107966D01*
X2009Y108151D01*
X1969Y108175D01*
Y113636D01*
X2009Y113660D01*
X2768Y113845D01*
X2829Y113751D01*
X3028Y113491D01*
X3249Y113249D01*
X3491Y113028D01*
X3751Y112829D01*
X4027Y112652D01*
X4318Y112501D01*
X4621Y112376D01*
X4933Y112277D01*
X5253Y112206D01*
X5578Y112163D01*
X5906Y112149D01*
X6233Y112163D01*
X6558Y112206D01*
X6878Y112277D01*
X7190Y112376D01*
X7493Y112501D01*
X7784Y112652D01*
X8060Y112829D01*
X8320Y113028D01*
X8328Y113035D01*
X8743Y112620D01*
X8874Y112507D01*
X9022Y112417D01*
X9182Y112351D01*
X9350Y112310D01*
X9523Y112297D01*
X16203D01*
X16246Y112206D01*
X16374Y111497D01*
X16344Y111480D01*
X16163Y111351D01*
X15997Y111203D01*
X15849Y111037D01*
X15720Y110856D01*
X15612Y110661D01*
X15527Y110455D01*
X15465Y110241D01*
X15428Y110022D01*
X15416Y109800D01*
X15428Y109578D01*
X15465Y109359D01*
X15527Y109145D01*
X15612Y108939D01*
X15720Y108744D01*
X15849Y108563D01*
X15997Y108397D01*
X16163Y108249D01*
X16344Y108120D01*
X16539Y108012D01*
X16745Y107927D01*
X16959Y107866D01*
X17178Y107828D01*
X17400Y107816D01*
X17622Y107828D01*
X17842Y107866D01*
X18055Y107927D01*
X18261Y108012D01*
X18456Y108120D01*
X18637Y108249D01*
X18803Y108397D01*
X18951Y108563D01*
X19080Y108744D01*
X19188Y108939D01*
X19273Y109145D01*
X19334Y109359D01*
X19372Y109578D01*
X19384Y109800D01*
X19372Y110022D01*
X19334Y110241D01*
X19273Y110455D01*
X19188Y110661D01*
X19080Y110856D01*
X18951Y111037D01*
X18803Y111203D01*
X18637Y111351D01*
X18456Y111480D01*
X18426Y111497D01*
X18554Y112206D01*
X18597Y112297D01*
X26449D01*
X26693Y111964D01*
X26833Y111497D01*
X26804Y111456D01*
X26697Y111261D01*
X26611Y111055D01*
X26550Y110842D01*
X26513Y110622D01*
X26500Y110400D01*
X26513Y110178D01*
X26550Y109959D01*
X26611Y109745D01*
X26697Y109539D01*
X26804Y109344D01*
X26933Y109163D01*
X27081Y108997D01*
X27247Y108849D01*
X27429Y108720D01*
X27623Y108612D01*
X27829Y108527D01*
X28043Y108466D01*
X28262Y108428D01*
X28484Y108416D01*
X28706Y108428D01*
X28926Y108466D01*
X29140Y108527D01*
X29345Y108612D01*
X29540Y108720D01*
X29721Y108849D01*
X29887Y108997D01*
X30036Y109163D01*
X30130Y109297D01*
X36442D01*
X36615Y109310D01*
X36783Y109351D01*
X36943Y109417D01*
X37091Y109507D01*
X37222Y109620D01*
X38699Y111097D01*
X44554D01*
X44649Y110963D01*
X44797Y110797D01*
X44963Y110649D01*
X45144Y110520D01*
X45339Y110412D01*
X45545Y110327D01*
X45759Y110266D01*
X45978Y110228D01*
X46200Y110216D01*
X46422Y110228D01*
X46641Y110266D01*
X46855Y110327D01*
X47061Y110412D01*
X47256Y110520D01*
X47437Y110649D01*
X47603Y110797D01*
X47751Y110963D01*
X47880Y111144D01*
X47988Y111339D01*
X48073Y111545D01*
X48134Y111758D01*
X48172Y111978D01*
X48184Y112200D01*
X48172Y112422D01*
X48134Y112642D01*
X48073Y112855D01*
X47988Y113061D01*
X47880Y113256D01*
X47751Y113437D01*
X47603Y113603D01*
X47437Y113751D01*
X47256Y113880D01*
X47061Y113988D01*
X46855Y114073D01*
X46641Y114135D01*
X46422Y114172D01*
X46200Y114184D01*
X45978Y114172D01*
X45759Y114135D01*
X45545Y114073D01*
X45339Y113988D01*
X45144Y113880D01*
X44963Y113751D01*
X44797Y113603D01*
X44649Y113437D01*
X44554Y113303D01*
X38242D01*
X38069Y113290D01*
X37901Y113249D01*
X37741Y113183D01*
X37593Y113093D01*
X37462Y112980D01*
X35985Y111503D01*
X35035D01*
X34791Y111836D01*
X34651Y112303D01*
X34680Y112344D01*
X34788Y112539D01*
X34873Y112745D01*
X34934Y112959D01*
X34972Y113178D01*
X34984Y113400D01*
X34972Y113622D01*
X34934Y113841D01*
X34873Y114055D01*
X34788Y114261D01*
X34680Y114456D01*
X34551Y114637D01*
X34403Y114803D01*
X34237Y114951D01*
X34056Y115080D01*
X33861Y115188D01*
X33655Y115273D01*
X33441Y115334D01*
X33222Y115372D01*
X33000Y115384D01*
X32778Y115372D01*
X32559Y115334D01*
X32345Y115273D01*
X32139Y115188D01*
X31944Y115080D01*
X31763Y114951D01*
X31597Y114803D01*
X31543Y114811D01*
X31338Y115323D01*
X31321Y115649D01*
X31403Y115723D01*
X31551Y115889D01*
X31680Y116070D01*
X31788Y116265D01*
X31873Y116471D01*
X31934Y116684D01*
X31972Y116904D01*
X31984Y117126D01*
X31972Y117348D01*
X31934Y117568D01*
X31873Y117781D01*
X31788Y117987D01*
X31680Y118182D01*
X31551Y118363D01*
X31403Y118529D01*
X31237Y118677D01*
X31056Y118806D01*
X30861Y118914D01*
X30655Y118999D01*
X30441Y119061D01*
X30222Y119098D01*
X30000Y119110D01*
X29778Y119098D01*
X29559Y119061D01*
X29345Y118999D01*
X29139Y118914D01*
X28944Y118806D01*
X28763Y118677D01*
X28597Y118529D01*
X28449Y118363D01*
X28320Y118182D01*
X28212Y117987D01*
X28127Y117781D01*
X28065Y117568D01*
X28028Y117348D01*
X28016Y117126D01*
X28028Y116904D01*
X28065Y116684D01*
X28127Y116471D01*
X28212Y116265D01*
X28320Y116070D01*
X28449Y115889D01*
X28597Y115723D01*
X28763Y115575D01*
X28944Y115446D01*
X29139Y115338D01*
X29345Y115253D01*
X29099Y114503D01*
X10129D01*
X9579Y115137D01*
X9605Y115253D01*
X9647Y115578D01*
X9662Y115905D01*
X9647Y116233D01*
X9605Y116558D01*
X9534Y116878D01*
X9435Y117190D01*
X9310Y117493D01*
X9159Y117784D01*
X8982Y118060D01*
X8783Y118320D01*
X8562Y118562D01*
X8320Y118783D01*
X8060Y118983D01*
X7784Y119159D01*
X7493Y119310D01*
X7190Y119435D01*
X6878Y119534D01*
X6558Y119605D01*
X6233Y119648D01*
X5906Y119662D01*
X5578Y119648D01*
X5253Y119605D01*
X4933Y119534D01*
X4621Y119435D01*
X4318Y119310D01*
X4027Y119159D01*
X3751Y118983D01*
X3491Y118783D01*
X3249Y118562D01*
X3028Y118320D01*
X2829Y118060D01*
X2768Y117966D01*
X2009Y118151D01*
X1969Y118175D01*
Y123636D01*
X2009Y123660D01*
X2768Y123845D01*
X2829Y123751D01*
X3028Y123491D01*
X3249Y123249D01*
X3491Y123028D01*
X3751Y122828D01*
X4027Y122652D01*
X4318Y122501D01*
X4621Y122376D01*
X4933Y122277D01*
X5253Y122206D01*
X5578Y122163D01*
X5906Y122149D01*
X6233Y122163D01*
X6558Y122206D01*
X6878Y122277D01*
X7190Y122376D01*
X7493Y122501D01*
X7784Y122652D01*
X8060Y122828D01*
X8320Y123028D01*
X8562Y123249D01*
X8783Y123491D01*
X8982Y123751D01*
X9159Y124027D01*
X9310Y124318D01*
X9435Y124621D01*
X9534Y124933D01*
X9605Y125253D01*
X9647Y125578D01*
X9662Y125906D01*
X9647Y126233D01*
X9605Y126558D01*
X9534Y126878D01*
X9435Y127190D01*
X9310Y127493D01*
X9159Y127784D01*
X8982Y128060D01*
X8783Y128320D01*
X8562Y128562D01*
X8320Y128783D01*
X8060Y128982D01*
X7784Y129159D01*
X7493Y129310D01*
X7190Y129435D01*
X6878Y129534D01*
X6558Y129605D01*
X6233Y129648D01*
X5906Y129662D01*
X5578Y129648D01*
X5253Y129605D01*
X4933Y129534D01*
X4621Y129435D01*
X4318Y129310D01*
X4027Y129159D01*
X3751Y128982D01*
X3491Y128783D01*
X3249Y128562D01*
X3028Y128320D01*
X2829Y128060D01*
X2768Y127966D01*
X2009Y128151D01*
X1969Y128175D01*
Y133636D01*
X2009Y133660D01*
X2768Y133845D01*
X2829Y133751D01*
X3028Y133491D01*
X3249Y133249D01*
X3491Y133028D01*
X3751Y132828D01*
X4027Y132652D01*
X4318Y132501D01*
X4621Y132376D01*
X4933Y132277D01*
X5253Y132206D01*
X5578Y132164D01*
X5906Y132149D01*
X6233Y132164D01*
X6558Y132206D01*
X6878Y132277D01*
X7190Y132376D01*
X7493Y132501D01*
X7784Y132652D01*
X8060Y132828D01*
X8320Y133028D01*
X8562Y133249D01*
X8783Y133491D01*
X8982Y133751D01*
X9159Y134027D01*
X9310Y134318D01*
X9435Y134621D01*
X9534Y134933D01*
X9605Y135253D01*
X9647Y135578D01*
X9662Y135906D01*
X9647Y136233D01*
X9605Y136558D01*
X9534Y136878D01*
X9435Y137190D01*
X9310Y137493D01*
X9159Y137784D01*
X8982Y138060D01*
X8783Y138320D01*
X8562Y138562D01*
X8320Y138783D01*
X8060Y138982D01*
X7784Y139159D01*
X7493Y139310D01*
X7190Y139435D01*
X6878Y139534D01*
X6558Y139605D01*
X6233Y139648D01*
X5906Y139662D01*
X5578Y139648D01*
X5253Y139605D01*
X4933Y139534D01*
X4621Y139435D01*
X4318Y139310D01*
X4027Y139159D01*
X3751Y138982D01*
X3491Y138783D01*
X3249Y138562D01*
X3028Y138320D01*
X2829Y138060D01*
X2768Y137966D01*
X2009Y138151D01*
X1969Y138175D01*
Y143636D01*
X2009Y143660D01*
X2768Y143845D01*
X2829Y143751D01*
X3028Y143491D01*
X3249Y143249D01*
X3491Y143028D01*
X3751Y142829D01*
X4027Y142652D01*
X4318Y142501D01*
X4621Y142376D01*
X4933Y142277D01*
X5253Y142206D01*
X5578Y142164D01*
X5906Y142149D01*
X6233Y142164D01*
X6558Y142206D01*
X6878Y142277D01*
X7190Y142376D01*
X7493Y142501D01*
X7784Y142652D01*
X8060Y142829D01*
X8320Y143028D01*
X8562Y143249D01*
X8783Y143491D01*
X8982Y143751D01*
X9159Y144027D01*
X9310Y144318D01*
X9435Y144621D01*
X9534Y144933D01*
X9605Y145253D01*
X9647Y145578D01*
X9662Y145905D01*
X9647Y146233D01*
X9605Y146558D01*
X9534Y146878D01*
X9435Y147190D01*
X9310Y147493D01*
X9159Y147784D01*
X8982Y148060D01*
X8783Y148320D01*
X8562Y148562D01*
X8320Y148783D01*
X8060Y148983D01*
X7784Y149159D01*
X7493Y149310D01*
X7190Y149435D01*
X6878Y149534D01*
X6558Y149605D01*
X6233Y149648D01*
X5906Y149662D01*
X5578Y149648D01*
X5253Y149605D01*
X4933Y149534D01*
X4621Y149435D01*
X4318Y149310D01*
X4027Y149159D01*
X3751Y148983D01*
X3491Y148783D01*
X3249Y148562D01*
X3028Y148320D01*
X2829Y148060D01*
X2768Y147966D01*
X2009Y148151D01*
X1969Y148175D01*
Y153636D01*
X2009Y153660D01*
X2768Y153845D01*
X2829Y153751D01*
X3028Y153491D01*
X3249Y153249D01*
X3491Y153028D01*
X3751Y152829D01*
X4027Y152652D01*
X4318Y152501D01*
X4621Y152376D01*
X4933Y152277D01*
X5253Y152206D01*
X5578Y152164D01*
X5906Y152149D01*
X6233Y152164D01*
X6558Y152206D01*
X6878Y152277D01*
X7190Y152376D01*
X7493Y152501D01*
X7784Y152652D01*
X8060Y152829D01*
X8320Y153028D01*
X8562Y153249D01*
X8783Y153491D01*
X8982Y153751D01*
X9159Y154027D01*
X9310Y154318D01*
X9435Y154621D01*
X9534Y154933D01*
X9605Y155253D01*
X9647Y155578D01*
X9662Y155905D01*
X9647Y156233D01*
X9605Y156558D01*
X9534Y156878D01*
X9435Y157190D01*
X9310Y157493D01*
X9159Y157784D01*
X8982Y158060D01*
X8783Y158320D01*
X8562Y158562D01*
X8320Y158783D01*
X8060Y158983D01*
X7784Y159159D01*
X7493Y159310D01*
X7190Y159435D01*
X6878Y159534D01*
X6558Y159605D01*
X6233Y159648D01*
X5906Y159662D01*
X5578Y159648D01*
X5253Y159605D01*
X4933Y159534D01*
X4621Y159435D01*
X4318Y159310D01*
X4027Y159159D01*
X3751Y158983D01*
X3491Y158783D01*
X3249Y158562D01*
X3028Y158320D01*
X2829Y158060D01*
X2768Y157966D01*
X2009Y158151D01*
X1969Y158175D01*
Y163636D01*
X2009Y163660D01*
X2768Y163845D01*
X2829Y163751D01*
X3028Y163491D01*
X3249Y163249D01*
X3491Y163028D01*
X3751Y162829D01*
X4027Y162652D01*
X4318Y162501D01*
X4621Y162376D01*
X4933Y162277D01*
X5253Y162206D01*
X5578Y162163D01*
X5906Y162149D01*
X6233Y162163D01*
X6558Y162206D01*
X6878Y162277D01*
X7190Y162376D01*
X7493Y162501D01*
X7784Y162652D01*
X8060Y162829D01*
X8320Y163028D01*
X8562Y163249D01*
X8783Y163491D01*
X8982Y163751D01*
X9159Y164027D01*
X9310Y164318D01*
X9435Y164621D01*
X9534Y164933D01*
X9605Y165253D01*
X9647Y165578D01*
X9662Y165905D01*
X9647Y166233D01*
X9605Y166558D01*
X9534Y166878D01*
X9435Y167190D01*
X9310Y167493D01*
X9159Y167784D01*
X8982Y168060D01*
X8783Y168320D01*
X8562Y168562D01*
X8320Y168783D01*
X8060Y168983D01*
X7784Y169159D01*
X7493Y169310D01*
X7190Y169435D01*
X6878Y169534D01*
X6558Y169605D01*
X6233Y169648D01*
X5906Y169662D01*
X5578Y169648D01*
X5253Y169605D01*
X4933Y169534D01*
X4621Y169435D01*
X4318Y169310D01*
X4027Y169159D01*
X3751Y168983D01*
X3491Y168783D01*
X3249Y168562D01*
X3028Y168320D01*
X2829Y168060D01*
X2768Y167966D01*
X2009Y168151D01*
X1969Y168175D01*
Y188976D01*
X14459D01*
X14792Y188452D01*
X14864Y188176D01*
X14739Y187980D01*
X14588Y187690D01*
X14462Y187387D01*
X14364Y187075D01*
X14293Y186755D01*
X14250Y186430D01*
X14236Y186102D01*
X14250Y185775D01*
X14293Y185450D01*
X14364Y185130D01*
X14462Y184818D01*
X14588Y184515D01*
X14739Y184224D01*
X14915Y183948D01*
X15115Y183688D01*
X15336Y183446D01*
X15578Y183225D01*
X15838Y183025D01*
X16114Y182849D01*
X16405Y182698D01*
X16707Y182573D01*
X17020Y182474D01*
X17340Y182403D01*
X17665Y182360D01*
X17992Y182346D01*
X18319Y182360D01*
X18644Y182403D01*
X18964Y182474D01*
X19277Y182573D01*
X19580Y182698D01*
X19870Y182849D01*
X20147Y183025D01*
X20407Y183225D01*
X20648Y183446D01*
X20870Y183688D01*
X21069Y183948D01*
X21245Y184224D01*
X21396Y184515D01*
X21522Y184818D01*
X21621Y185130D01*
X21691Y185450D01*
X21734Y185775D01*
X21748Y186102D01*
X21734Y186430D01*
X21691Y186755D01*
X21621Y187075D01*
X21522Y187387D01*
X21396Y187690D01*
X21245Y187980D01*
X21120Y188176D01*
X21193Y188452D01*
X21526Y188976D01*
X24722D01*
X24866Y188821D01*
X25105Y188176D01*
X25079Y188142D01*
X24912Y187880D01*
X24769Y187605D01*
X24651Y187319D01*
X24557Y187023D01*
X24490Y186720D01*
X24475Y186602D01*
X31510D01*
X31494Y186720D01*
X31427Y187023D01*
X31334Y187319D01*
X31215Y187605D01*
X31072Y187880D01*
X30905Y188142D01*
X30879Y188176D01*
X31118Y188821D01*
X31262Y188976D01*
X34459D01*
X34792Y188452D01*
X34864Y188176D01*
X34739Y187980D01*
X34588Y187690D01*
X34462Y187387D01*
X34364Y187075D01*
X34293Y186755D01*
X34250Y186430D01*
X34236Y186102D01*
X34250Y185775D01*
X34293Y185450D01*
X34364Y185130D01*
X34462Y184818D01*
X34588Y184515D01*
X34739Y184224D01*
X34915Y183948D01*
X35115Y183688D01*
X35336Y183446D01*
X35578Y183225D01*
X35838Y183025D01*
X36114Y182849D01*
X36405Y182698D01*
X36707Y182573D01*
X37020Y182474D01*
X37340Y182403D01*
X37665Y182360D01*
X37992Y182346D01*
X38320Y182360D01*
X38644Y182403D01*
X38964Y182474D01*
X39277Y182573D01*
X39580Y182698D01*
X39870Y182849D01*
X40147Y183025D01*
X40407Y183225D01*
X40648Y183446D01*
X40870Y183688D01*
X41069Y183948D01*
X41245Y184224D01*
X41396Y184515D01*
X41522Y184818D01*
X41620Y185130D01*
X41691Y185450D01*
X41734Y185775D01*
X41748Y186102D01*
X41734Y186430D01*
X41691Y186755D01*
X41620Y187075D01*
X41522Y187387D01*
X41396Y187690D01*
X41245Y187980D01*
X41120Y188176D01*
X41193Y188452D01*
X41526Y188976D01*
X44722D01*
X44866Y188821D01*
X45105Y188176D01*
X45079Y188142D01*
X44912Y187880D01*
X44769Y187605D01*
X44651Y187319D01*
X44557Y187023D01*
X44490Y186720D01*
X44475Y186602D01*
X51510D01*
X51494Y186720D01*
X51427Y187023D01*
X51334Y187319D01*
X51215Y187605D01*
X51072Y187880D01*
X50905Y188142D01*
X50879Y188176D01*
X51118Y188821D01*
X51262Y188976D01*
X54459D01*
X54792Y188452D01*
X54864Y188176D01*
X54739Y187980D01*
X54588Y187690D01*
X54462Y187387D01*
X54364Y187075D01*
X54293Y186755D01*
X54250Y186430D01*
X54236Y186102D01*
X54250Y185775D01*
X54293Y185450D01*
X54364Y185130D01*
X54462Y184818D01*
X54588Y184515D01*
X54739Y184224D01*
X54915Y183948D01*
X55115Y183688D01*
X55336Y183446D01*
X55578Y183225D01*
X55838Y183025D01*
X56114Y182849D01*
X56405Y182698D01*
X56707Y182573D01*
X57020Y182474D01*
X57340Y182403D01*
X57665Y182360D01*
X57992Y182346D01*
X58319Y182360D01*
X58644Y182403D01*
X58964Y182474D01*
X59277Y182573D01*
X59580Y182698D01*
X59870Y182849D01*
X60147Y183025D01*
X60407Y183225D01*
X60648Y183446D01*
X60870Y183688D01*
X61069Y183948D01*
X61245Y184224D01*
X61396Y184515D01*
X61522Y184818D01*
X61620Y185130D01*
X61691Y185450D01*
X61734Y185775D01*
X61748Y186102D01*
X61734Y186430D01*
X61691Y186755D01*
X61620Y187075D01*
X61522Y187387D01*
X61396Y187690D01*
X61245Y187980D01*
X61120Y188176D01*
X61193Y188452D01*
X61525Y188976D01*
X64722D01*
X64866Y188821D01*
X65105Y188176D01*
X65079Y188142D01*
X64912Y187880D01*
X64769Y187605D01*
X64650Y187319D01*
X64557Y187023D01*
X64490Y186720D01*
X64475Y186602D01*
X71510D01*
X71494Y186720D01*
X71427Y187023D01*
X71334Y187319D01*
X71215Y187605D01*
X71072Y187880D01*
X70905Y188142D01*
X70879Y188176D01*
X71118Y188821D01*
X71262Y188976D01*
X74459D01*
X74792Y188452D01*
X74864Y188176D01*
X74739Y187980D01*
X74588Y187690D01*
X74462Y187387D01*
X74364Y187075D01*
X74293Y186755D01*
X74250Y186430D01*
X74236Y186102D01*
X74250Y185775D01*
X74293Y185450D01*
X74364Y185130D01*
X74462Y184818D01*
X74588Y184515D01*
X74676Y184346D01*
X72420Y182090D01*
X72307Y181959D01*
X72217Y181811D01*
X72151Y181651D01*
X72110Y181483D01*
X72097Y181310D01*
Y178078D01*
X71297Y177882D01*
X71245Y177980D01*
X71069Y178257D01*
X70870Y178517D01*
X70648Y178759D01*
X70407Y178980D01*
X70147Y179179D01*
X69870Y179355D01*
X69580Y179507D01*
X69277Y179632D01*
X68964Y179731D01*
X68644Y179802D01*
X68319Y179844D01*
X67992Y179859D01*
X67665Y179844D01*
X67340Y179802D01*
X67020Y179731D01*
X66707Y179632D01*
X66405Y179507D01*
X66114Y179355D01*
X65838Y179179D01*
X65578Y178980D01*
X65336Y178759D01*
X65115Y178517D01*
X64915Y178257D01*
X64739Y177980D01*
X64588Y177690D01*
X64462Y177387D01*
X64364Y177075D01*
X64293Y176755D01*
X64250Y176430D01*
X64236Y176102D01*
X64250Y175775D01*
X64293Y175450D01*
X64364Y175130D01*
X64462Y174818D01*
X64588Y174515D01*
X64739Y174224D01*
X64915Y173948D01*
X65115Y173688D01*
X65336Y173446D01*
X65578Y173225D01*
X65838Y173025D01*
X66114Y172849D01*
X66405Y172698D01*
X66707Y172573D01*
X67020Y172474D01*
X67340Y172403D01*
X67665Y172360D01*
X67992Y172346D01*
X68266Y172358D01*
X68362Y172256D01*
X68634Y171595D01*
X62543Y165503D01*
X37200D01*
X37027Y165490D01*
X36859Y165449D01*
X36699Y165383D01*
X36551Y165293D01*
X36420Y165180D01*
X30420Y159180D01*
X30307Y159049D01*
X30217Y158901D01*
X30151Y158741D01*
X30110Y158573D01*
X30097Y158400D01*
Y132446D01*
X29963Y132351D01*
X29797Y132203D01*
X29649Y132037D01*
X29520Y131856D01*
X29412Y131661D01*
X29327Y131455D01*
X29265Y131242D01*
X29234Y131056D01*
X29152Y130995D01*
X28848Y130887D01*
X28103Y131462D01*
Y155554D01*
X28237Y155649D01*
X28403Y155797D01*
X28551Y155963D01*
X28680Y156144D01*
X28788Y156339D01*
X28873Y156545D01*
X28934Y156758D01*
X28972Y156978D01*
X28984Y157200D01*
X28972Y157422D01*
X28934Y157641D01*
X28873Y157855D01*
X28788Y158061D01*
X28680Y158256D01*
X28551Y158437D01*
X28403Y158603D01*
X28237Y158751D01*
X28056Y158880D01*
X27861Y158988D01*
X27655Y159073D01*
X27441Y159134D01*
X27222Y159172D01*
X27000Y159184D01*
X26778Y159172D01*
X26559Y159134D01*
X26345Y159073D01*
X26139Y158988D01*
X25944Y158880D01*
X25763Y158751D01*
X25597Y158603D01*
X25449Y158437D01*
X25320Y158256D01*
X25212Y158061D01*
X25127Y157855D01*
X25065Y157641D01*
X25028Y157422D01*
X25016Y157200D01*
X25028Y156978D01*
X25065Y156758D01*
X25127Y156545D01*
X25212Y156339D01*
X25320Y156144D01*
X25449Y155963D01*
X25597Y155797D01*
X25763Y155649D01*
X25897Y155554D01*
Y130200D01*
X25910Y130027D01*
X25951Y129859D01*
X26017Y129699D01*
X26107Y129551D01*
X26220Y129420D01*
X26856Y128784D01*
X26828Y128622D01*
X26816Y128400D01*
X26828Y128178D01*
X26866Y127959D01*
X26927Y127745D01*
X27012Y127539D01*
X27120Y127344D01*
X27249Y127163D01*
X27397Y126997D01*
X27563Y126849D01*
X27744Y126720D01*
X27939Y126612D01*
X28145Y126527D01*
X28359Y126465D01*
X28578Y126428D01*
X28612Y126426D01*
X28821Y125967D01*
X28837Y125620D01*
X28763Y125567D01*
X28597Y125419D01*
X28449Y125253D01*
X28320Y125071D01*
X28212Y124877D01*
X28127Y124671D01*
X28065Y124457D01*
X28028Y124238D01*
X28016Y124016D01*
X28028Y123794D01*
X28065Y123574D01*
X28127Y123360D01*
X28212Y123155D01*
X28320Y122960D01*
X28449Y122779D01*
X28597Y122613D01*
X28763Y122464D01*
X28944Y122336D01*
X29139Y122228D01*
X29345Y122143D01*
X29559Y122081D01*
X29778Y122044D01*
X30000Y122031D01*
X30222Y122044D01*
X30441Y122081D01*
X30655Y122143D01*
X30861Y122228D01*
X31056Y122336D01*
X31237Y122464D01*
X31403Y122613D01*
X31551Y122779D01*
X31680Y122960D01*
X31788Y123155D01*
X31873Y123360D01*
X31934Y123574D01*
X31972Y123794D01*
X31984Y124016D01*
X31972Y124238D01*
X31934Y124457D01*
X31873Y124671D01*
X31788Y124877D01*
X31680Y125071D01*
X31551Y125253D01*
X31403Y125419D01*
X31237Y125567D01*
X31056Y125696D01*
X30861Y125803D01*
X30655Y125889D01*
X30441Y125950D01*
X30222Y125988D01*
X30188Y125989D01*
X29979Y126448D01*
X29963Y126796D01*
X30037Y126849D01*
X30203Y126997D01*
X30351Y127163D01*
X30480Y127344D01*
X30588Y127539D01*
X30673Y127745D01*
X30735Y127959D01*
X30772Y128178D01*
X30869Y128485D01*
X31115Y128731D01*
X31422Y128828D01*
X31798Y128770D01*
X32102Y128583D01*
X32327Y128269D01*
X32412Y128063D01*
X32520Y127869D01*
X32649Y127687D01*
X32797Y127521D01*
X32963Y127373D01*
X33144Y127244D01*
X33339Y127137D01*
X33545Y127051D01*
X33759Y126990D01*
X33978Y126953D01*
X34200Y126940D01*
X34422Y126953D01*
X34642Y126990D01*
X34855Y127051D01*
X35061Y127137D01*
X35256Y127244D01*
X35437Y127373D01*
X35603Y127521D01*
X35751Y127687D01*
X35880Y127869D01*
X35988Y128063D01*
X36073Y128269D01*
X36134Y128483D01*
X36172Y128702D01*
X36184Y128924D01*
X36172Y129147D01*
X36144Y129308D01*
X39532Y132696D01*
X39644Y132827D01*
X39735Y132975D01*
X39801Y133135D01*
X39841Y133303D01*
X39855Y133476D01*
Y155554D01*
X39989Y155649D01*
X40155Y155797D01*
X40303Y155963D01*
X40432Y156144D01*
X40539Y156339D01*
X40624Y156545D01*
X40686Y156758D01*
X40723Y156978D01*
X40736Y157200D01*
X40723Y157422D01*
X40686Y157641D01*
X40624Y157855D01*
X40539Y158061D01*
X40432Y158256D01*
X40303Y158437D01*
X40155Y158603D01*
X39989Y158751D01*
X39807Y158880D01*
X39613Y158988D01*
X39407Y159073D01*
X39193Y159134D01*
X38974Y159172D01*
X38869Y159178D01*
X38676Y159457D01*
X38534Y159973D01*
X40057Y161497D01*
X48405D01*
X48736Y160697D01*
X46620Y158580D01*
X46507Y158449D01*
X46417Y158301D01*
X46351Y158141D01*
X46310Y157973D01*
X46297Y157800D01*
Y157046D01*
X46163Y156951D01*
X45997Y156803D01*
X45849Y156637D01*
X45720Y156456D01*
X45612Y156261D01*
X45527Y156055D01*
X45465Y155842D01*
X45428Y155622D01*
X45416Y155400D01*
X45428Y155178D01*
X45465Y154958D01*
X45527Y154745D01*
X45612Y154539D01*
X45720Y154344D01*
X45849Y154163D01*
X45997Y153997D01*
X46163Y153849D01*
X46344Y153720D01*
X46539Y153612D01*
X46745Y153527D01*
X46959Y153465D01*
X47178Y153428D01*
X47400Y153416D01*
X47622Y153428D01*
X47842Y153465D01*
X48055Y153527D01*
X48261Y153612D01*
X48456Y153720D01*
X48637Y153849D01*
X48803Y153997D01*
X48951Y154163D01*
X49080Y154344D01*
X49188Y154539D01*
X49273Y154745D01*
X49334Y154958D01*
X49372Y155178D01*
X49384Y155400D01*
X49372Y155622D01*
X49334Y155842D01*
X49273Y156055D01*
X49188Y156261D01*
X49080Y156456D01*
X48951Y156637D01*
X48803Y156803D01*
X48825Y157546D01*
X48879Y157719D01*
X49735Y158574D01*
X50380Y158088D01*
X50365Y158061D01*
X50280Y157855D01*
X50218Y157641D01*
X50181Y157422D01*
X50169Y157200D01*
X50181Y156978D01*
X50218Y156758D01*
X50280Y156545D01*
X50365Y156339D01*
X50473Y156144D01*
X50601Y155963D01*
X50750Y155797D01*
X50916Y155649D01*
X51097Y155520D01*
X51292Y155412D01*
X51497Y155327D01*
X51711Y155265D01*
X51931Y155228D01*
X52153Y155216D01*
X52375Y155228D01*
X52557Y155259D01*
X54452Y153364D01*
X54428Y153222D01*
X54416Y153000D01*
X54428Y152778D01*
X54466Y152559D01*
X54527Y152345D01*
X54612Y152139D01*
X54720Y151944D01*
X54849Y151763D01*
X54997Y151597D01*
X55163Y151449D01*
X55344Y151320D01*
X55539Y151212D01*
X55745Y151127D01*
X55958Y151066D01*
X56178Y151028D01*
X56400Y151016D01*
X56622Y151028D01*
X56841Y151066D01*
X57055Y151127D01*
X57261Y151212D01*
X57456Y151320D01*
X57637Y151449D01*
X57803Y151597D01*
X57951Y151763D01*
X58080Y151944D01*
X58188Y152139D01*
X58273Y152345D01*
X58334Y152559D01*
X58372Y152778D01*
X58384Y153000D01*
X58372Y153222D01*
X58334Y153442D01*
X58273Y153655D01*
X58188Y153861D01*
X58080Y154056D01*
X57951Y154237D01*
X57803Y154403D01*
X57637Y154551D01*
X57456Y154680D01*
X57261Y154788D01*
X57055Y154873D01*
X56841Y154935D01*
X56622Y154972D01*
X56400Y154984D01*
X56178Y154972D01*
X55996Y154941D01*
X54101Y156836D01*
X54124Y156978D01*
X54137Y157200D01*
X54124Y157422D01*
X54087Y157641D01*
X54026Y157855D01*
X53940Y158061D01*
X53833Y158256D01*
X53804Y158297D01*
X53944Y158765D01*
X54188Y159097D01*
X66000D01*
X66173Y159110D01*
X66341Y159151D01*
X66501Y159217D01*
X66649Y159307D01*
X66780Y159420D01*
X74410Y167050D01*
X74966Y167042D01*
X75227Y166586D01*
X75287Y166247D01*
X64584Y155544D01*
X64422Y155572D01*
X64200Y155584D01*
X63978Y155572D01*
X63758Y155535D01*
X63545Y155473D01*
X63339Y155388D01*
X63144Y155280D01*
X62963Y155151D01*
X62797Y155003D01*
X62649Y154837D01*
X62520Y154656D01*
X62412Y154461D01*
X62327Y154255D01*
X62265Y154042D01*
X62228Y153822D01*
X62216Y153600D01*
X62228Y153378D01*
X62265Y153158D01*
X62327Y152945D01*
X62412Y152739D01*
X62520Y152544D01*
X62649Y152363D01*
X62797Y152197D01*
X62963Y152049D01*
X63144Y151920D01*
X63339Y151812D01*
X63545Y151727D01*
X63758Y151665D01*
X63978Y151628D01*
X64200Y151616D01*
X64422Y151628D01*
X64641Y151665D01*
X64855Y151727D01*
X65061Y151812D01*
X65256Y151920D01*
X65437Y152049D01*
X65603Y152197D01*
X65751Y152363D01*
X65880Y152544D01*
X65988Y152739D01*
X66073Y152945D01*
X66135Y153158D01*
X66172Y153378D01*
X66184Y153600D01*
X66172Y153822D01*
X66144Y153984D01*
X85477Y173317D01*
X85578Y173225D01*
X85838Y173025D01*
X86114Y172849D01*
X86405Y172698D01*
X86707Y172573D01*
X87020Y172474D01*
X87340Y172403D01*
X87665Y172360D01*
X87992Y172346D01*
X88319Y172360D01*
X88644Y172403D01*
X88964Y172474D01*
X89277Y172573D01*
X89580Y172698D01*
X89870Y172849D01*
X90147Y173025D01*
X90407Y173225D01*
X90648Y173446D01*
X90870Y173688D01*
X91069Y173948D01*
X91245Y174224D01*
X91396Y174515D01*
X91522Y174818D01*
X91620Y175130D01*
X91691Y175450D01*
X91734Y175775D01*
X91748Y176102D01*
X91734Y176430D01*
X91691Y176755D01*
X91620Y177075D01*
X91522Y177387D01*
X91396Y177690D01*
X91245Y177980D01*
X91069Y178257D01*
X90870Y178517D01*
X90648Y178759D01*
X90407Y178980D01*
X90354Y179808D01*
X90405Y179964D01*
X90508Y180097D01*
X92400D01*
X92573Y180110D01*
X92741Y180151D01*
X92901Y180217D01*
X93049Y180307D01*
X93180Y180420D01*
X95808Y183048D01*
X95838Y183025D01*
X96114Y182849D01*
X96405Y182698D01*
X96707Y182573D01*
X97020Y182474D01*
X97340Y182403D01*
X97665Y182360D01*
X97992Y182346D01*
X98320Y182360D01*
X98644Y182403D01*
X98964Y182474D01*
X99277Y182573D01*
X99580Y182698D01*
X99870Y182849D01*
X100147Y183025D01*
X100407Y183225D01*
X100648Y183446D01*
X100870Y183688D01*
X101069Y183948D01*
X101245Y184224D01*
X101397Y184515D01*
X101522Y184818D01*
X101620Y185130D01*
X101691Y185450D01*
X101734Y185775D01*
X101749Y186102D01*
X101734Y186430D01*
X101691Y186755D01*
X101620Y187075D01*
X101522Y187387D01*
X101397Y187690D01*
X101245Y187980D01*
X101120Y188176D01*
X101193Y188452D01*
X101525Y188976D01*
X104722D01*
X104866Y188821D01*
X105105Y188176D01*
X105079Y188142D01*
X104912Y187880D01*
X104769Y187605D01*
X104650Y187319D01*
X104557Y187023D01*
X104490Y186720D01*
X104475Y186602D01*
X111510D01*
X111494Y186720D01*
X111427Y187023D01*
X111334Y187319D01*
X111215Y187605D01*
X111072Y187880D01*
X110905Y188142D01*
X110879Y188176D01*
X111118Y188821D01*
X111262Y188976D01*
X124016D01*
Y168175D01*
D02*
G37*
G36*
X84866Y188821D02*
X85105Y188176D01*
X85079Y188142D01*
X84912Y187880D01*
X84769Y187605D01*
X84650Y187319D01*
X84557Y187023D01*
X84490Y186720D01*
X84475Y186602D01*
X87992D01*
Y185602D01*
X84475D01*
X84490Y185485D01*
X84557Y185182D01*
X84650Y184886D01*
X84769Y184599D01*
X84912Y184324D01*
X85079Y184063D01*
X85268Y183817D01*
X85478Y183588D01*
X85706Y183378D01*
X85952Y183189D01*
X86087Y183103D01*
X86063Y182712D01*
X85863Y182303D01*
X85200D01*
X85027Y182290D01*
X84859Y182249D01*
X84699Y182183D01*
X84551Y182093D01*
X84420Y181980D01*
X82020Y179580D01*
X81907Y179449D01*
X81817Y179301D01*
X81751Y179141D01*
X81710Y178973D01*
X81697Y178800D01*
Y178753D01*
X80897Y178482D01*
X80870Y178517D01*
X80648Y178759D01*
X80407Y178980D01*
X80147Y179179D01*
X79870Y179355D01*
X79580Y179507D01*
X79277Y179632D01*
X78964Y179731D01*
X78644Y179802D01*
X78320Y179844D01*
X77992Y179859D01*
X77665Y179844D01*
X77340Y179802D01*
X77020Y179731D01*
X76707Y179632D01*
X76405Y179507D01*
X76114Y179355D01*
X75838Y179179D01*
X75578Y178980D01*
X75336Y178759D01*
X75115Y178517D01*
X75103Y178502D01*
X74303Y178774D01*
Y180853D01*
X76236Y182786D01*
X76405Y182698D01*
X76707Y182573D01*
X77020Y182474D01*
X77340Y182403D01*
X77665Y182360D01*
X77992Y182346D01*
X78320Y182360D01*
X78644Y182403D01*
X78964Y182474D01*
X79277Y182573D01*
X79580Y182698D01*
X79870Y182849D01*
X80147Y183025D01*
X80407Y183225D01*
X80648Y183446D01*
X80870Y183688D01*
X81069Y183948D01*
X81245Y184224D01*
X81397Y184515D01*
X81522Y184818D01*
X81621Y185130D01*
X81691Y185450D01*
X81734Y185775D01*
X81748Y186102D01*
X81734Y186430D01*
X81691Y186755D01*
X81621Y187075D01*
X81522Y187387D01*
X81397Y187690D01*
X81245Y187980D01*
X81120Y188176D01*
X81193Y188452D01*
X81525Y188976D01*
X84722D01*
X84866Y188821D01*
D02*
G37*
G36*
X116549Y154621D02*
X116674Y154318D01*
X116826Y154027D01*
X117002Y153751D01*
X117201Y153491D01*
X117423Y153249D01*
X117664Y153028D01*
X117924Y152829D01*
X118201Y152652D01*
X118491Y152501D01*
X118794Y152376D01*
X119106Y152277D01*
X119427Y152206D01*
X119751Y152164D01*
X120079Y152149D01*
X120406Y152164D01*
X120731Y152206D01*
X121051Y152277D01*
X121363Y152376D01*
X121666Y152501D01*
X121957Y152652D01*
X122233Y152829D01*
X122493Y153028D01*
X122735Y153249D01*
X122956Y153491D01*
X123156Y153751D01*
X123216Y153845D01*
X123975Y153660D01*
X124016Y153636D01*
Y148175D01*
X123975Y148151D01*
X123216Y147966D01*
X123156Y148060D01*
X122956Y148320D01*
X122735Y148562D01*
X122493Y148783D01*
X122233Y148983D01*
X121957Y149159D01*
X121666Y149310D01*
X121363Y149435D01*
X121051Y149534D01*
X120731Y149605D01*
X120406Y149648D01*
X120079Y149662D01*
X119751Y149648D01*
X119427Y149605D01*
X119106Y149534D01*
X118794Y149435D01*
X118491Y149310D01*
X118201Y149159D01*
X118110Y149101D01*
X117631Y149580D01*
X117499Y149693D01*
X117351Y149783D01*
X117191Y149849D01*
X117023Y149890D01*
X116850Y149903D01*
X82646D01*
X82551Y150037D01*
X82403Y150203D01*
X82237Y150351D01*
X82056Y150480D01*
X81861Y150588D01*
X81655Y150673D01*
X81441Y150734D01*
X81419Y150738D01*
X81202Y151141D01*
X81179Y151575D01*
X81203Y151597D01*
X81351Y151763D01*
X81480Y151944D01*
X81588Y152139D01*
X81673Y152345D01*
X81735Y152559D01*
X81772Y152778D01*
X81784Y153000D01*
X81772Y153222D01*
X81744Y153384D01*
X83162Y154802D01*
X116492D01*
X116549Y154621D01*
D02*
G37*
G36*
X55800Y25794D02*
X55691Y25670D01*
X55300Y25476D01*
X55255Y25495D01*
X55041Y25556D01*
X54822Y25594D01*
X54600Y25606D01*
X54378Y25594D01*
X54159Y25556D01*
X53945Y25495D01*
X53739Y25410D01*
X53544Y25302D01*
X53504Y25274D01*
X53114Y25458D01*
X53034Y25548D01*
X53044Y25748D01*
Y27413D01*
X50972D01*
Y23226D01*
X50974Y23226D01*
X51219Y23287D01*
X51457Y23372D01*
X51685Y23480D01*
X51901Y23610D01*
X52104Y23760D01*
X52124Y23778D01*
X52456Y23673D01*
X52620Y23553D01*
X52628Y23400D01*
X52666Y23180D01*
X52727Y22967D01*
X52812Y22761D01*
X52920Y22566D01*
X53049Y22385D01*
X53197Y22219D01*
X53363Y22071D01*
X53544Y21942D01*
X53739Y21834D01*
X53945Y21749D01*
X54159Y21688D01*
X54378Y21650D01*
X54600Y21638D01*
X54822Y21650D01*
X55041Y21688D01*
X55255Y21749D01*
X55300Y21768D01*
X55691Y21574D01*
X55800Y21450D01*
Y19888D01*
X55691Y19764D01*
X55300Y19571D01*
X55255Y19589D01*
X55041Y19651D01*
X54822Y19688D01*
X54600Y19701D01*
X54378Y19688D01*
X54159Y19651D01*
X53945Y19589D01*
X53739Y19504D01*
X53544Y19397D01*
X53363Y19268D01*
X53197Y19120D01*
X53049Y18954D01*
X52920Y18772D01*
X52812Y18577D01*
X52727Y18372D01*
X52666Y18158D01*
X52628Y17939D01*
X52616Y17717D01*
X52628Y17494D01*
X52666Y17275D01*
X52727Y17061D01*
X52812Y16856D01*
X52920Y16661D01*
X53049Y16479D01*
X53197Y16314D01*
X53363Y16165D01*
X53544Y16036D01*
X53739Y15929D01*
X53945Y15844D01*
X54159Y15782D01*
X54378Y15745D01*
X54600Y15732D01*
X54822Y15745D01*
X55041Y15782D01*
X55255Y15844D01*
X55300Y15862D01*
X55691Y15669D01*
X55800Y15545D01*
Y1969D01*
X12000D01*
Y36600D01*
X21835D01*
X21847Y36378D01*
X21884Y36158D01*
X21946Y35945D01*
X22031Y35739D01*
X22139Y35544D01*
X22268Y35363D01*
X22416Y35197D01*
X22582Y35049D01*
X22763Y34920D01*
X22958Y34812D01*
X23164Y34727D01*
X23377Y34666D01*
X23597Y34628D01*
X23819Y34616D01*
X24041Y34628D01*
X24260Y34666D01*
X24474Y34727D01*
X24680Y34812D01*
X24875Y34920D01*
X25056Y35049D01*
X25222Y35197D01*
X25370Y35363D01*
X25499Y35544D01*
X25607Y35739D01*
X25692Y35945D01*
X25753Y36158D01*
X25791Y36378D01*
X25803Y36600D01*
X32411D01*
X33244Y35767D01*
X33248Y35688D01*
X33294Y35379D01*
X33369Y35076D01*
X33475Y34781D01*
X33608Y34499D01*
X33769Y34231D01*
X33955Y33979D01*
X34165Y33748D01*
X34397Y33538D01*
X34648Y33352D01*
X34916Y33191D01*
X35199Y33057D01*
X35493Y32952D01*
X35796Y32876D01*
X36105Y32830D01*
X36417Y32815D01*
X36729Y32830D01*
X37039Y32876D01*
X37342Y32952D01*
X37636Y33057D01*
X37919Y33191D01*
X38187Y33352D01*
X38438Y33538D01*
X38669Y33748D01*
X38879Y33979D01*
X39066Y34231D01*
X39226Y34499D01*
X39360Y34781D01*
X39465Y35076D01*
X39541Y35379D01*
X39587Y35688D01*
X39602Y36000D01*
X39597Y36100D01*
X39962Y36600D01*
X41126D01*
X41138Y36378D01*
X41176Y36158D01*
X41237Y35945D01*
X41322Y35739D01*
X41430Y35544D01*
X41559Y35363D01*
X41707Y35197D01*
X41873Y35049D01*
X42055Y34920D01*
X42249Y34812D01*
X42455Y34727D01*
X42669Y34666D01*
X42888Y34628D01*
X43110Y34616D01*
X43332Y34628D01*
X43552Y34666D01*
X43766Y34727D01*
X43971Y34812D01*
X44166Y34920D01*
X44347Y35049D01*
X44513Y35197D01*
X44662Y35363D01*
X44790Y35544D01*
X44898Y35739D01*
X44983Y35945D01*
X45045Y36158D01*
X45082Y36378D01*
X45094Y36600D01*
X55800D01*
Y25794D01*
D02*
G37*
%LPC*%
G36*
X107492Y185602D02*
X104475D01*
X104490Y185485D01*
X104557Y185182D01*
X104650Y184886D01*
X104769Y184599D01*
X104912Y184324D01*
X105079Y184063D01*
X105268Y183817D01*
X105478Y183588D01*
X105706Y183378D01*
X105952Y183189D01*
X106214Y183023D01*
X106489Y182879D01*
X106776Y182761D01*
X107072Y182667D01*
X107375Y182600D01*
X107492Y182585D01*
Y185602D01*
D02*
G37*
G36*
X67492D02*
X64475D01*
X64490Y185485D01*
X64557Y185182D01*
X64650Y184886D01*
X64769Y184599D01*
X64912Y184324D01*
X65079Y184063D01*
X65268Y183817D01*
X65478Y183588D01*
X65706Y183378D01*
X65952Y183189D01*
X66214Y183023D01*
X66489Y182879D01*
X66776Y182761D01*
X67072Y182667D01*
X67375Y182600D01*
X67492Y182585D01*
Y185602D01*
D02*
G37*
G36*
X47492D02*
X44475D01*
X44490Y185485D01*
X44557Y185182D01*
X44651Y184886D01*
X44769Y184599D01*
X44912Y184324D01*
X45079Y184063D01*
X45268Y183817D01*
X45478Y183588D01*
X45706Y183378D01*
X45952Y183189D01*
X46214Y183023D01*
X46489Y182879D01*
X46776Y182761D01*
X47072Y182667D01*
X47375Y182600D01*
X47492Y182585D01*
Y185602D01*
D02*
G37*
G36*
X27492D02*
X24475D01*
X24490Y185485D01*
X24557Y185182D01*
X24651Y184886D01*
X24769Y184599D01*
X24912Y184324D01*
X25079Y184063D01*
X25268Y183817D01*
X25478Y183588D01*
X25706Y183378D01*
X25952Y183189D01*
X26214Y183023D01*
X26489Y182879D01*
X26776Y182761D01*
X27072Y182667D01*
X27375Y182600D01*
X27492Y182585D01*
Y185602D01*
D02*
G37*
G36*
X111510D02*
X108492D01*
Y182585D01*
X108610Y182600D01*
X108913Y182667D01*
X109208Y182761D01*
X109495Y182879D01*
X109770Y183023D01*
X110032Y183189D01*
X110278Y183378D01*
X110507Y183588D01*
X110716Y183817D01*
X110905Y184063D01*
X111072Y184324D01*
X111215Y184599D01*
X111334Y184886D01*
X111427Y185182D01*
X111494Y185485D01*
X111510Y185602D01*
D02*
G37*
G36*
X71510D02*
X68492D01*
Y182585D01*
X68610Y182600D01*
X68913Y182667D01*
X69208Y182761D01*
X69495Y182879D01*
X69770Y183023D01*
X70032Y183189D01*
X70278Y183378D01*
X70507Y183588D01*
X70716Y183817D01*
X70905Y184063D01*
X71072Y184324D01*
X71215Y184599D01*
X71334Y184886D01*
X71427Y185182D01*
X71494Y185485D01*
X71510Y185602D01*
D02*
G37*
G36*
X51510D02*
X48492D01*
Y182585D01*
X48610Y182600D01*
X48913Y182667D01*
X49208Y182761D01*
X49495Y182879D01*
X49770Y183023D01*
X50032Y183189D01*
X50278Y183378D01*
X50507Y183588D01*
X50716Y183817D01*
X50905Y184063D01*
X51072Y184324D01*
X51215Y184599D01*
X51334Y184886D01*
X51427Y185182D01*
X51494Y185485D01*
X51510Y185602D01*
D02*
G37*
G36*
X31510D02*
X28492D01*
Y182585D01*
X28610Y182600D01*
X28912Y182667D01*
X29208Y182761D01*
X29495Y182879D01*
X29770Y183023D01*
X30032Y183189D01*
X30278Y183378D01*
X30507Y183588D01*
X30716Y183817D01*
X30905Y184063D01*
X31072Y184324D01*
X31215Y184599D01*
X31334Y184886D01*
X31427Y185182D01*
X31494Y185485D01*
X31510Y185602D01*
D02*
G37*
G36*
X21745Y179855D02*
X14239D01*
Y172350D01*
X21745D01*
Y179855D01*
D02*
G37*
G36*
X107992Y179859D02*
X107665Y179844D01*
X107340Y179802D01*
X107020Y179731D01*
X106707Y179632D01*
X106405Y179507D01*
X106114Y179355D01*
X105838Y179179D01*
X105578Y178980D01*
X105336Y178759D01*
X105115Y178517D01*
X104915Y178257D01*
X104739Y177980D01*
X104588Y177690D01*
X104462Y177387D01*
X104364Y177075D01*
X104293Y176755D01*
X104250Y176430D01*
X104236Y176102D01*
X104250Y175775D01*
X104293Y175450D01*
X104364Y175130D01*
X104462Y174818D01*
X104588Y174515D01*
X104739Y174224D01*
X104915Y173948D01*
X105115Y173688D01*
X105336Y173446D01*
X105578Y173225D01*
X105838Y173025D01*
X106114Y172849D01*
X106405Y172698D01*
X106707Y172573D01*
X107020Y172474D01*
X107340Y172403D01*
X107665Y172360D01*
X107992Y172346D01*
X108319Y172360D01*
X108644Y172403D01*
X108964Y172474D01*
X109277Y172573D01*
X109580Y172698D01*
X109870Y172849D01*
X110147Y173025D01*
X110407Y173225D01*
X110648Y173446D01*
X110870Y173688D01*
X111069Y173948D01*
X111245Y174224D01*
X111397Y174515D01*
X111522Y174818D01*
X111620Y175130D01*
X111691Y175450D01*
X111734Y175775D01*
X111749Y176102D01*
X111734Y176430D01*
X111691Y176755D01*
X111620Y177075D01*
X111522Y177387D01*
X111397Y177690D01*
X111245Y177980D01*
X111069Y178257D01*
X110870Y178517D01*
X110648Y178759D01*
X110407Y178980D01*
X110147Y179179D01*
X109870Y179355D01*
X109580Y179507D01*
X109277Y179632D01*
X108964Y179731D01*
X108644Y179802D01*
X108319Y179844D01*
X107992Y179859D01*
D02*
G37*
G36*
X97992D02*
X97665Y179844D01*
X97340Y179802D01*
X97020Y179731D01*
X96707Y179632D01*
X96405Y179507D01*
X96114Y179355D01*
X95838Y179179D01*
X95578Y178980D01*
X95336Y178759D01*
X95115Y178517D01*
X94915Y178257D01*
X94739Y177980D01*
X94588Y177690D01*
X94462Y177387D01*
X94364Y177075D01*
X94293Y176755D01*
X94250Y176430D01*
X94236Y176102D01*
X94250Y175775D01*
X94293Y175450D01*
X94364Y175130D01*
X94462Y174818D01*
X94588Y174515D01*
X94739Y174224D01*
X94915Y173948D01*
X95115Y173688D01*
X95336Y173446D01*
X95578Y173225D01*
X95838Y173025D01*
X96114Y172849D01*
X96405Y172698D01*
X96707Y172573D01*
X97020Y172474D01*
X97340Y172403D01*
X97665Y172360D01*
X97992Y172346D01*
X98320Y172360D01*
X98644Y172403D01*
X98964Y172474D01*
X99277Y172573D01*
X99580Y172698D01*
X99870Y172849D01*
X100147Y173025D01*
X100407Y173225D01*
X100648Y173446D01*
X100870Y173688D01*
X101069Y173948D01*
X101245Y174224D01*
X101397Y174515D01*
X101522Y174818D01*
X101620Y175130D01*
X101691Y175450D01*
X101734Y175775D01*
X101749Y176102D01*
X101734Y176430D01*
X101691Y176755D01*
X101620Y177075D01*
X101522Y177387D01*
X101397Y177690D01*
X101245Y177980D01*
X101069Y178257D01*
X100870Y178517D01*
X100648Y178759D01*
X100407Y178980D01*
X100147Y179179D01*
X99870Y179355D01*
X99580Y179507D01*
X99277Y179632D01*
X98964Y179731D01*
X98644Y179802D01*
X98320Y179844D01*
X97992Y179859D01*
D02*
G37*
G36*
X57992D02*
X57665Y179844D01*
X57340Y179802D01*
X57020Y179731D01*
X56707Y179632D01*
X56405Y179507D01*
X56114Y179355D01*
X55838Y179179D01*
X55578Y178980D01*
X55336Y178759D01*
X55115Y178517D01*
X54915Y178257D01*
X54739Y177980D01*
X54588Y177690D01*
X54462Y177387D01*
X54364Y177075D01*
X54293Y176755D01*
X54250Y176430D01*
X54236Y176102D01*
X54250Y175775D01*
X54293Y175450D01*
X54364Y175130D01*
X54462Y174818D01*
X54588Y174515D01*
X54739Y174224D01*
X54915Y173948D01*
X55115Y173688D01*
X55336Y173446D01*
X55578Y173225D01*
X55838Y173025D01*
X56114Y172849D01*
X56405Y172698D01*
X56707Y172573D01*
X57020Y172474D01*
X57340Y172403D01*
X57665Y172360D01*
X57992Y172346D01*
X58319Y172360D01*
X58644Y172403D01*
X58964Y172474D01*
X59277Y172573D01*
X59580Y172698D01*
X59870Y172849D01*
X60147Y173025D01*
X60407Y173225D01*
X60648Y173446D01*
X60870Y173688D01*
X61069Y173948D01*
X61245Y174224D01*
X61396Y174515D01*
X61522Y174818D01*
X61620Y175130D01*
X61691Y175450D01*
X61734Y175775D01*
X61748Y176102D01*
X61734Y176430D01*
X61691Y176755D01*
X61620Y177075D01*
X61522Y177387D01*
X61396Y177690D01*
X61245Y177980D01*
X61069Y178257D01*
X60870Y178517D01*
X60648Y178759D01*
X60407Y178980D01*
X60147Y179179D01*
X59870Y179355D01*
X59580Y179507D01*
X59277Y179632D01*
X58964Y179731D01*
X58644Y179802D01*
X58319Y179844D01*
X57992Y179859D01*
D02*
G37*
G36*
X47992D02*
X47665Y179844D01*
X47340Y179802D01*
X47020Y179731D01*
X46707Y179632D01*
X46405Y179507D01*
X46114Y179355D01*
X45838Y179179D01*
X45578Y178980D01*
X45336Y178759D01*
X45115Y178517D01*
X44915Y178257D01*
X44739Y177980D01*
X44588Y177690D01*
X44462Y177387D01*
X44364Y177075D01*
X44293Y176755D01*
X44250Y176430D01*
X44236Y176102D01*
X44250Y175775D01*
X44293Y175450D01*
X44364Y175130D01*
X44462Y174818D01*
X44588Y174515D01*
X44739Y174224D01*
X44915Y173948D01*
X45115Y173688D01*
X45336Y173446D01*
X45578Y173225D01*
X45838Y173025D01*
X46114Y172849D01*
X46405Y172698D01*
X46707Y172573D01*
X47020Y172474D01*
X47340Y172403D01*
X47665Y172360D01*
X47992Y172346D01*
X48320Y172360D01*
X48644Y172403D01*
X48964Y172474D01*
X49277Y172573D01*
X49580Y172698D01*
X49870Y172849D01*
X50147Y173025D01*
X50407Y173225D01*
X50648Y173446D01*
X50870Y173688D01*
X51069Y173948D01*
X51245Y174224D01*
X51397Y174515D01*
X51522Y174818D01*
X51621Y175130D01*
X51691Y175450D01*
X51734Y175775D01*
X51749Y176102D01*
X51734Y176430D01*
X51691Y176755D01*
X51621Y177075D01*
X51522Y177387D01*
X51397Y177690D01*
X51245Y177980D01*
X51069Y178257D01*
X50870Y178517D01*
X50648Y178759D01*
X50407Y178980D01*
X50147Y179179D01*
X49870Y179355D01*
X49580Y179507D01*
X49277Y179632D01*
X48964Y179731D01*
X48644Y179802D01*
X48320Y179844D01*
X47992Y179859D01*
D02*
G37*
G36*
X37992D02*
X37665Y179844D01*
X37340Y179802D01*
X37020Y179731D01*
X36707Y179632D01*
X36405Y179507D01*
X36114Y179355D01*
X35838Y179179D01*
X35578Y178980D01*
X35336Y178759D01*
X35115Y178517D01*
X34915Y178257D01*
X34739Y177980D01*
X34588Y177690D01*
X34462Y177387D01*
X34364Y177075D01*
X34293Y176755D01*
X34250Y176430D01*
X34236Y176102D01*
X34250Y175775D01*
X34293Y175450D01*
X34364Y175130D01*
X34462Y174818D01*
X34588Y174515D01*
X34739Y174224D01*
X34915Y173948D01*
X35115Y173688D01*
X35336Y173446D01*
X35578Y173225D01*
X35838Y173025D01*
X36114Y172849D01*
X36405Y172698D01*
X36707Y172573D01*
X37020Y172474D01*
X37340Y172403D01*
X37665Y172360D01*
X37992Y172346D01*
X38320Y172360D01*
X38644Y172403D01*
X38964Y172474D01*
X39277Y172573D01*
X39580Y172698D01*
X39870Y172849D01*
X40147Y173025D01*
X40407Y173225D01*
X40648Y173446D01*
X40870Y173688D01*
X41069Y173948D01*
X41245Y174224D01*
X41396Y174515D01*
X41522Y174818D01*
X41620Y175130D01*
X41691Y175450D01*
X41734Y175775D01*
X41748Y176102D01*
X41734Y176430D01*
X41691Y176755D01*
X41620Y177075D01*
X41522Y177387D01*
X41396Y177690D01*
X41245Y177980D01*
X41069Y178257D01*
X40870Y178517D01*
X40648Y178759D01*
X40407Y178980D01*
X40147Y179179D01*
X39870Y179355D01*
X39580Y179507D01*
X39277Y179632D01*
X38964Y179731D01*
X38644Y179802D01*
X38320Y179844D01*
X37992Y179859D01*
D02*
G37*
G36*
X27992D02*
X27665Y179844D01*
X27340Y179802D01*
X27020Y179731D01*
X26707Y179632D01*
X26405Y179507D01*
X26114Y179355D01*
X25838Y179179D01*
X25578Y178980D01*
X25336Y178759D01*
X25115Y178517D01*
X24915Y178257D01*
X24739Y177980D01*
X24588Y177690D01*
X24462Y177387D01*
X24364Y177075D01*
X24293Y176755D01*
X24250Y176430D01*
X24236Y176102D01*
X24250Y175775D01*
X24293Y175450D01*
X24364Y175130D01*
X24462Y174818D01*
X24588Y174515D01*
X24739Y174224D01*
X24915Y173948D01*
X25115Y173688D01*
X25336Y173446D01*
X25578Y173225D01*
X25838Y173025D01*
X26114Y172849D01*
X26405Y172698D01*
X26707Y172573D01*
X27020Y172474D01*
X27340Y172403D01*
X27665Y172360D01*
X27992Y172346D01*
X28319Y172360D01*
X28644Y172403D01*
X28964Y172474D01*
X29277Y172573D01*
X29580Y172698D01*
X29870Y172849D01*
X30147Y173025D01*
X30407Y173225D01*
X30648Y173446D01*
X30870Y173688D01*
X31069Y173948D01*
X31245Y174224D01*
X31396Y174515D01*
X31522Y174818D01*
X31620Y175130D01*
X31691Y175450D01*
X31734Y175775D01*
X31749Y176102D01*
X31734Y176430D01*
X31691Y176755D01*
X31620Y177075D01*
X31522Y177387D01*
X31396Y177690D01*
X31245Y177980D01*
X31069Y178257D01*
X30870Y178517D01*
X30648Y178759D01*
X30407Y178980D01*
X30147Y179179D01*
X29870Y179355D01*
X29580Y179507D01*
X29277Y179632D01*
X28964Y179731D01*
X28644Y179802D01*
X28319Y179844D01*
X27992Y179859D01*
D02*
G37*
G36*
X93601Y145384D02*
X93379Y145372D01*
X93160Y145334D01*
X92946Y145273D01*
X92740Y145188D01*
X92545Y145080D01*
X92364Y144951D01*
X92198Y144803D01*
X92109Y144703D01*
X73556D01*
X73466Y144803D01*
X73300Y144951D01*
X73119Y145080D01*
X72924Y145188D01*
X72718Y145273D01*
X72505Y145334D01*
X72285Y145372D01*
X72063Y145384D01*
X71841Y145372D01*
X71622Y145334D01*
X71408Y145273D01*
X71202Y145188D01*
X71007Y145080D01*
X70826Y144951D01*
X70660Y144803D01*
X70570Y144703D01*
X65482D01*
X65392Y144803D01*
X65226Y144951D01*
X65045Y145080D01*
X64850Y145188D01*
X64644Y145273D01*
X64430Y145334D01*
X64211Y145372D01*
X63989Y145384D01*
X63767Y145372D01*
X63547Y145334D01*
X63334Y145273D01*
X63128Y145188D01*
X62933Y145080D01*
X62752Y144951D01*
X62586Y144803D01*
X62496Y144703D01*
X59563D01*
X59474Y144803D01*
X59308Y144951D01*
X59127Y145080D01*
X58932Y145188D01*
X58726Y145273D01*
X58512Y145334D01*
X58293Y145372D01*
X58071Y145384D01*
X57849Y145372D01*
X57629Y145334D01*
X57415Y145273D01*
X57210Y145188D01*
X57015Y145080D01*
X56834Y144951D01*
X56668Y144803D01*
X56520Y144637D01*
X56391Y144456D01*
X56283Y144261D01*
X56198Y144055D01*
X56136Y143842D01*
X56099Y143622D01*
X56087Y143400D01*
X56099Y143178D01*
X56136Y142958D01*
X56198Y142745D01*
X56283Y142539D01*
X56391Y142344D01*
X56520Y142163D01*
X56668Y141997D01*
X56834Y141849D01*
X57015Y141720D01*
X57210Y141612D01*
X57415Y141527D01*
X57629Y141465D01*
X57849Y141428D01*
X58071Y141416D01*
X58293Y141428D01*
X58512Y141465D01*
X58726Y141527D01*
X58932Y141612D01*
X59127Y141720D01*
X59308Y141849D01*
X59474Y141997D01*
X59563Y142097D01*
X62496D01*
X62586Y141997D01*
X62752Y141849D01*
X62933Y141720D01*
X63128Y141612D01*
X63334Y141527D01*
X63547Y141465D01*
X63767Y141428D01*
X63989Y141416D01*
X64211Y141428D01*
X64430Y141465D01*
X64644Y141527D01*
X64850Y141612D01*
X65045Y141720D01*
X65226Y141849D01*
X65392Y141997D01*
X65482Y142097D01*
X70570D01*
X70660Y141997D01*
X70826Y141849D01*
X71007Y141720D01*
X71202Y141612D01*
X71408Y141527D01*
X71622Y141465D01*
X71841Y141428D01*
X72063Y141416D01*
X72285Y141428D01*
X72505Y141465D01*
X72718Y141527D01*
X72924Y141612D01*
X73119Y141720D01*
X73300Y141849D01*
X73466Y141997D01*
X73556Y142097D01*
X92109D01*
X92198Y141997D01*
X92364Y141849D01*
X92545Y141720D01*
X92740Y141612D01*
X92946Y141527D01*
X93160Y141465D01*
X93379Y141428D01*
X93601Y141416D01*
X93823Y141428D01*
X94043Y141465D01*
X94257Y141527D01*
X94462Y141612D01*
X94657Y141720D01*
X94838Y141849D01*
X95004Y141997D01*
X95152Y142163D01*
X95281Y142344D01*
X95389Y142539D01*
X95474Y142745D01*
X95536Y142958D01*
X95573Y143178D01*
X95585Y143400D01*
X95573Y143622D01*
X95536Y143842D01*
X95474Y144055D01*
X95389Y144261D01*
X95281Y144456D01*
X95152Y144637D01*
X95004Y144803D01*
X94838Y144951D01*
X94657Y145080D01*
X94462Y145188D01*
X94257Y145273D01*
X94043Y145334D01*
X93823Y145372D01*
X93601Y145384D01*
D02*
G37*
G36*
X46200Y140584D02*
X45978Y140572D01*
X45759Y140534D01*
X45545Y140473D01*
X45339Y140388D01*
X45144Y140280D01*
X44963Y140151D01*
X44797Y140003D01*
X44649Y139837D01*
X44520Y139656D01*
X44412Y139461D01*
X44327Y139255D01*
X44265Y139041D01*
X44228Y138822D01*
X44216Y138600D01*
X44228Y138378D01*
X44265Y138159D01*
X44327Y137945D01*
X44412Y137739D01*
X44520Y137544D01*
X44649Y137363D01*
X44797Y137197D01*
X44963Y137049D01*
X45144Y136920D01*
X45339Y136812D01*
X45545Y136727D01*
X45759Y136665D01*
X45978Y136628D01*
X46200Y136616D01*
X46422Y136628D01*
X46641Y136665D01*
X46855Y136727D01*
X47061Y136812D01*
X47256Y136920D01*
X47437Y137049D01*
X47603Y137197D01*
X47751Y137363D01*
X47880Y137544D01*
X47988Y137739D01*
X48073Y137945D01*
X48134Y138159D01*
X48172Y138378D01*
X48184Y138600D01*
X48172Y138822D01*
X48134Y139041D01*
X48073Y139255D01*
X47988Y139461D01*
X47880Y139656D01*
X47751Y139837D01*
X47603Y140003D01*
X47437Y140151D01*
X47256Y140280D01*
X47061Y140388D01*
X46855Y140473D01*
X46641Y140534D01*
X46422Y140572D01*
X46200Y140584D01*
D02*
G37*
G36*
X79800Y134858D02*
X79578Y134846D01*
X79359Y134809D01*
X79145Y134747D01*
X78939Y134662D01*
X78744Y134554D01*
X78563Y134425D01*
X78397Y134277D01*
X78249Y134111D01*
X78120Y133930D01*
X78012Y133735D01*
X77927Y133529D01*
X77865Y133316D01*
X77828Y133096D01*
X77816Y132874D01*
X77828Y132652D01*
X77865Y132432D01*
X77927Y132219D01*
X78012Y132013D01*
X78120Y131818D01*
X78249Y131637D01*
X78397Y131471D01*
X78563Y131323D01*
X78744Y131194D01*
X78939Y131086D01*
X79145Y131001D01*
X79359Y130940D01*
X79578Y130902D01*
X79800Y130890D01*
X80022Y130902D01*
X80242Y130940D01*
X80455Y131001D01*
X80661Y131086D01*
X80856Y131194D01*
X81037Y131323D01*
X81203Y131471D01*
X81351Y131637D01*
X81480Y131818D01*
X81588Y132013D01*
X81673Y132219D01*
X81735Y132432D01*
X81772Y132652D01*
X81784Y132874D01*
X81772Y133096D01*
X81735Y133316D01*
X81673Y133529D01*
X81588Y133735D01*
X81480Y133930D01*
X81351Y134111D01*
X81203Y134277D01*
X81037Y134425D01*
X80856Y134554D01*
X80661Y134662D01*
X80455Y134747D01*
X80242Y134809D01*
X80022Y134846D01*
X79800Y134858D01*
D02*
G37*
G36*
X96000Y126934D02*
X95778Y126922D01*
X95559Y126884D01*
X95345Y126823D01*
X95139Y126738D01*
X94944Y126630D01*
X94763Y126501D01*
X94597Y126353D01*
X94449Y126187D01*
X94320Y126006D01*
X94212Y125811D01*
X94127Y125605D01*
X94065Y125391D01*
X94028Y125172D01*
X94016Y124950D01*
X94028Y124728D01*
X94065Y124509D01*
X94127Y124295D01*
X94212Y124089D01*
X94320Y123894D01*
X94449Y123713D01*
X94597Y123547D01*
X94763Y123399D01*
X94944Y123270D01*
X95139Y123162D01*
X95345Y123077D01*
X95559Y123015D01*
X95778Y122978D01*
X96000Y122966D01*
X96222Y122978D01*
X96442Y123015D01*
X96655Y123077D01*
X96861Y123162D01*
X97056Y123270D01*
X97237Y123399D01*
X97403Y123547D01*
X97551Y123713D01*
X97680Y123894D01*
X97788Y124089D01*
X97873Y124295D01*
X97935Y124509D01*
X97972Y124728D01*
X97984Y124950D01*
X97972Y125172D01*
X97935Y125391D01*
X97873Y125605D01*
X97788Y125811D01*
X97680Y126006D01*
X97551Y126187D01*
X97403Y126353D01*
X97237Y126501D01*
X97056Y126630D01*
X96861Y126738D01*
X96655Y126823D01*
X96442Y126884D01*
X96222Y126922D01*
X96000Y126934D01*
D02*
G37*
G36*
X15600Y125113D02*
X15378Y125101D01*
X15158Y125063D01*
X14945Y125002D01*
X14739Y124917D01*
X14544Y124809D01*
X14363Y124680D01*
X14197Y124532D01*
X14049Y124366D01*
X13920Y124184D01*
X13812Y123990D01*
X13727Y123784D01*
X13666Y123570D01*
X13628Y123351D01*
X13616Y123129D01*
X13628Y122907D01*
X13666Y122687D01*
X13727Y122473D01*
X13812Y122268D01*
X13920Y122073D01*
X14049Y121892D01*
X14197Y121726D01*
X14363Y121577D01*
X14544Y121449D01*
X14739Y121341D01*
X14945Y121256D01*
X15158Y121194D01*
X15378Y121157D01*
X15600Y121144D01*
X15822Y121157D01*
X16041Y121194D01*
X16255Y121256D01*
X16461Y121341D01*
X16656Y121449D01*
X16837Y121577D01*
X17003Y121726D01*
X17151Y121892D01*
X17280Y122073D01*
X17388Y122268D01*
X17473Y122473D01*
X17535Y122687D01*
X17572Y122907D01*
X17584Y123129D01*
X17572Y123351D01*
X17535Y123570D01*
X17473Y123784D01*
X17388Y123990D01*
X17280Y124184D01*
X17151Y124366D01*
X17003Y124532D01*
X16837Y124680D01*
X16656Y124809D01*
X16461Y124917D01*
X16255Y125002D01*
X16041Y125063D01*
X15822Y125101D01*
X15600Y125113D01*
D02*
G37*
G36*
X75787Y110584D02*
X75565Y110572D01*
X75346Y110535D01*
X75132Y110473D01*
X74927Y110388D01*
X74732Y110280D01*
X74550Y110151D01*
X74384Y110003D01*
X74295Y109903D01*
X69406D01*
X69316Y110003D01*
X69151Y110151D01*
X68969Y110280D01*
X68774Y110388D01*
X68569Y110473D01*
X68355Y110535D01*
X68136Y110572D01*
X67913Y110584D01*
X67691Y110572D01*
X67472Y110535D01*
X67258Y110473D01*
X67053Y110388D01*
X66858Y110280D01*
X66676Y110151D01*
X66510Y110003D01*
X66421Y109903D01*
X55626D01*
X55537Y110003D01*
X55371Y110151D01*
X55190Y110280D01*
X54995Y110388D01*
X54789Y110473D01*
X54575Y110535D01*
X54356Y110572D01*
X54134Y110584D01*
X53912Y110572D01*
X53692Y110535D01*
X53478Y110473D01*
X53273Y110388D01*
X53078Y110280D01*
X52897Y110151D01*
X52731Y110003D01*
X52583Y109837D01*
X52454Y109656D01*
X52346Y109461D01*
X52261Y109255D01*
X52199Y109042D01*
X52162Y108822D01*
X52150Y108600D01*
X52162Y108378D01*
X52199Y108159D01*
X52261Y107945D01*
X52346Y107739D01*
X52454Y107544D01*
X52583Y107363D01*
X52731Y107197D01*
X52897Y107049D01*
X53078Y106920D01*
X53273Y106812D01*
X53478Y106727D01*
X53692Y106666D01*
X53912Y106628D01*
X54134Y106616D01*
X54356Y106628D01*
X54575Y106666D01*
X54789Y106727D01*
X54995Y106812D01*
X55190Y106920D01*
X55371Y107049D01*
X55537Y107197D01*
X55626Y107297D01*
X66421D01*
X66510Y107197D01*
X66676Y107049D01*
X66858Y106920D01*
X67053Y106812D01*
X67258Y106727D01*
X67472Y106666D01*
X67691Y106628D01*
X67913Y106616D01*
X68136Y106628D01*
X68355Y106666D01*
X68569Y106727D01*
X68774Y106812D01*
X68969Y106920D01*
X69151Y107049D01*
X69316Y107197D01*
X69406Y107297D01*
X74295D01*
X74384Y107197D01*
X74550Y107049D01*
X74732Y106920D01*
X74927Y106812D01*
X75132Y106727D01*
X75346Y106666D01*
X75565Y106628D01*
X75787Y106616D01*
X76010Y106628D01*
X76229Y106666D01*
X76443Y106727D01*
X76648Y106812D01*
X76843Y106920D01*
X77025Y107049D01*
X77191Y107197D01*
X77339Y107363D01*
X77468Y107544D01*
X77575Y107739D01*
X77660Y107945D01*
X77722Y108159D01*
X77759Y108378D01*
X77772Y108600D01*
X77759Y108822D01*
X77722Y109042D01*
X77660Y109255D01*
X77575Y109461D01*
X77468Y109656D01*
X77339Y109837D01*
X77191Y110003D01*
X77025Y110151D01*
X76843Y110280D01*
X76648Y110388D01*
X76443Y110473D01*
X76229Y110535D01*
X76010Y110572D01*
X75787Y110584D01*
D02*
G37*
G36*
X90600Y112984D02*
X90378Y112972D01*
X90158Y112935D01*
X89945Y112873D01*
X89739Y112788D01*
X89544Y112680D01*
X89363Y112551D01*
X89197Y112403D01*
X89049Y112237D01*
X88920Y112056D01*
X88812Y111861D01*
X88727Y111655D01*
X88665Y111442D01*
X88628Y111222D01*
X88616Y111000D01*
X88628Y110778D01*
X88665Y110558D01*
X88727Y110345D01*
X88812Y110139D01*
X88920Y109944D01*
X89049Y109763D01*
X89197Y109597D01*
X89363Y109449D01*
X89544Y109320D01*
X89739Y109212D01*
X89945Y109127D01*
X90158Y109065D01*
X90378Y109028D01*
X90600Y109016D01*
X90822Y109028D01*
X91041Y109065D01*
X91255Y109127D01*
X91461Y109212D01*
X91656Y109320D01*
X91837Y109449D01*
X92003Y109597D01*
X92151Y109763D01*
X92280Y109944D01*
X92388Y110139D01*
X92473Y110345D01*
X92535Y110558D01*
X92572Y110778D01*
X92584Y111000D01*
X92572Y111222D01*
X92535Y111442D01*
X92473Y111655D01*
X92388Y111861D01*
X92280Y112056D01*
X92151Y112237D01*
X92003Y112403D01*
X91837Y112551D01*
X91656Y112680D01*
X91461Y112788D01*
X91255Y112873D01*
X91041Y112935D01*
X90822Y112972D01*
X90600Y112984D01*
D02*
G37*
G36*
X92400Y100984D02*
X92178Y100972D01*
X91958Y100935D01*
X91745Y100873D01*
X91539Y100788D01*
X91344Y100680D01*
X91163Y100551D01*
X90997Y100403D01*
X90849Y100237D01*
X90720Y100056D01*
X90612Y99861D01*
X90527Y99655D01*
X90465Y99441D01*
X90428Y99222D01*
X90416Y99000D01*
X90428Y98778D01*
X90465Y98558D01*
X90527Y98345D01*
X90612Y98139D01*
X90720Y97944D01*
X90849Y97763D01*
X90997Y97597D01*
X91163Y97449D01*
X91344Y97320D01*
X91539Y97212D01*
X91745Y97127D01*
X91958Y97066D01*
X92178Y97028D01*
X92400Y97016D01*
X92622Y97028D01*
X92842Y97066D01*
X93055Y97127D01*
X93261Y97212D01*
X93456Y97320D01*
X93637Y97449D01*
X93803Y97597D01*
X93951Y97763D01*
X94080Y97944D01*
X94188Y98139D01*
X94273Y98345D01*
X94335Y98558D01*
X94372Y98778D01*
X94384Y99000D01*
X94372Y99222D01*
X94335Y99441D01*
X94273Y99655D01*
X94188Y99861D01*
X94080Y100056D01*
X93951Y100237D01*
X93803Y100403D01*
X93637Y100551D01*
X93456Y100680D01*
X93261Y100788D01*
X93055Y100873D01*
X92842Y100935D01*
X92622Y100972D01*
X92400Y100984D01*
D02*
G37*
G36*
X54600Y99784D02*
X54378Y99772D01*
X54159Y99734D01*
X53945Y99673D01*
X53739Y99588D01*
X53544Y99480D01*
X53363Y99351D01*
X53197Y99203D01*
X53049Y99037D01*
X52920Y98856D01*
X52812Y98661D01*
X52727Y98455D01*
X52666Y98242D01*
X52628Y98022D01*
X52531Y97715D01*
X52285Y97469D01*
X51978Y97372D01*
X51758Y97334D01*
X51545Y97273D01*
X51339Y97188D01*
X51144Y97080D01*
X50963Y96951D01*
X50797Y96803D01*
X50649Y96637D01*
X50554Y96503D01*
X45446D01*
X45351Y96637D01*
X45203Y96803D01*
X45037Y96951D01*
X44856Y97080D01*
X44661Y97188D01*
X44455Y97273D01*
X44241Y97334D01*
X44022Y97372D01*
X43800Y97384D01*
X43578Y97372D01*
X43358Y97334D01*
X43145Y97273D01*
X42939Y97188D01*
X42744Y97080D01*
X42563Y96951D01*
X42397Y96803D01*
X42249Y96637D01*
X42120Y96456D01*
X42012Y96261D01*
X41927Y96055D01*
X41866Y95841D01*
X41828Y95622D01*
X41816Y95400D01*
X41828Y95178D01*
X41866Y94959D01*
X41927Y94745D01*
X42012Y94539D01*
X42120Y94344D01*
X42249Y94163D01*
X42397Y93997D01*
X42563Y93849D01*
X42744Y93720D01*
X42939Y93612D01*
X43145Y93527D01*
X43358Y93466D01*
X43578Y93428D01*
X43800Y93416D01*
X44022Y93428D01*
X44241Y93466D01*
X44455Y93527D01*
X44661Y93612D01*
X44856Y93720D01*
X45037Y93849D01*
X45203Y93997D01*
X45351Y94163D01*
X45446Y94297D01*
X50554D01*
X50649Y94163D01*
X50797Y93997D01*
X50963Y93849D01*
X51144Y93720D01*
X51339Y93612D01*
X51545Y93527D01*
X51758Y93466D01*
X51978Y93428D01*
X52200Y93416D01*
X52422Y93428D01*
X52641Y93466D01*
X52855Y93527D01*
X53061Y93612D01*
X53256Y93720D01*
X53437Y93849D01*
X53603Y93997D01*
X53751Y94163D01*
X53880Y94344D01*
X53988Y94539D01*
X54073Y94745D01*
X54135Y94959D01*
X54172Y95178D01*
X54269Y95485D01*
X54515Y95731D01*
X54822Y95828D01*
X55041Y95865D01*
X55255Y95927D01*
X55461Y96012D01*
X55656Y96120D01*
X55837Y96249D01*
X56003Y96397D01*
X56151Y96563D01*
X56280Y96744D01*
X56388Y96939D01*
X56473Y97145D01*
X56534Y97359D01*
X56572Y97578D01*
X56584Y97800D01*
X56572Y98022D01*
X56534Y98242D01*
X56473Y98455D01*
X56388Y98661D01*
X56280Y98856D01*
X56151Y99037D01*
X56003Y99203D01*
X55837Y99351D01*
X55656Y99480D01*
X55461Y99588D01*
X55255Y99673D01*
X55041Y99734D01*
X54822Y99772D01*
X54600Y99784D01*
D02*
G37*
G36*
X6406Y99423D02*
Y96406D01*
X9423D01*
X9408Y96523D01*
X9341Y96826D01*
X9247Y97122D01*
X9128Y97408D01*
X8985Y97684D01*
X8818Y97945D01*
X8630Y98191D01*
X8420Y98420D01*
X8191Y98630D01*
X7945Y98818D01*
X7684Y98985D01*
X7408Y99129D01*
X7122Y99247D01*
X6826Y99340D01*
X6523Y99408D01*
X6406Y99423D01*
D02*
G37*
G36*
X9423Y95406D02*
X6406D01*
Y92388D01*
X6523Y92403D01*
X6826Y92471D01*
X7122Y92564D01*
X7408Y92683D01*
X7684Y92826D01*
X7945Y92993D01*
X8191Y93181D01*
X8420Y93391D01*
X8630Y93620D01*
X8818Y93866D01*
X8985Y94127D01*
X9128Y94403D01*
X9247Y94689D01*
X9341Y94985D01*
X9408Y95288D01*
X9423Y95406D01*
D02*
G37*
G36*
X69882Y94996D02*
X69660Y94984D01*
X69440Y94946D01*
X69226Y94885D01*
X69021Y94800D01*
X68826Y94692D01*
X68645Y94563D01*
X68479Y94415D01*
X68331Y94249D01*
X68202Y94068D01*
X68094Y93873D01*
X68009Y93667D01*
X67947Y93453D01*
X67910Y93234D01*
X67898Y93012D01*
X67910Y92790D01*
X67947Y92570D01*
X68009Y92356D01*
X68094Y92151D01*
X68202Y91956D01*
X68331Y91775D01*
X68479Y91609D01*
X68645Y91461D01*
X68826Y91332D01*
X69021Y91224D01*
X69226Y91139D01*
X69440Y91077D01*
X69660Y91040D01*
X69882Y91028D01*
X70104Y91040D01*
X70323Y91077D01*
X70537Y91139D01*
X70743Y91224D01*
X70938Y91332D01*
X71119Y91461D01*
X71285Y91609D01*
X71433Y91775D01*
X71562Y91956D01*
X71670Y92151D01*
X71755Y92356D01*
X71816Y92570D01*
X71854Y92790D01*
X71866Y93012D01*
X71854Y93234D01*
X71816Y93453D01*
X71755Y93667D01*
X71670Y93873D01*
X71562Y94068D01*
X71433Y94249D01*
X71285Y94415D01*
X71119Y94563D01*
X70938Y94692D01*
X70743Y94800D01*
X70537Y94885D01*
X70323Y94946D01*
X70104Y94984D01*
X69882Y94996D01*
D02*
G37*
G36*
X86400Y108784D02*
X86178Y108772D01*
X85958Y108735D01*
X85745Y108673D01*
X85539Y108588D01*
X85344Y108480D01*
X85163Y108351D01*
X84997Y108203D01*
X84849Y108037D01*
X84720Y107856D01*
X84612Y107661D01*
X84527Y107455D01*
X84465Y107241D01*
X84428Y107022D01*
X84416Y106800D01*
X84428Y106578D01*
X84465Y106359D01*
X84527Y106145D01*
X84612Y105939D01*
X84720Y105744D01*
X84849Y105563D01*
X84997Y105397D01*
X85163Y105249D01*
X85297Y105154D01*
Y92257D01*
X74806Y81766D01*
X55177D01*
X55082Y81900D01*
X54934Y82066D01*
X54768Y82214D01*
X54587Y82343D01*
X54392Y82451D01*
X54186Y82536D01*
X53973Y82598D01*
X53753Y82635D01*
X53531Y82647D01*
X53309Y82635D01*
X53090Y82598D01*
X52876Y82536D01*
X52670Y82451D01*
X52476Y82343D01*
X52294Y82214D01*
X52128Y82066D01*
X51980Y81900D01*
X51851Y81719D01*
X51744Y81524D01*
X51658Y81318D01*
X51597Y81105D01*
X51560Y80885D01*
X51547Y80663D01*
X51560Y80441D01*
X51597Y80222D01*
X51658Y80008D01*
X51744Y79802D01*
X51851Y79607D01*
X51980Y79426D01*
X52128Y79260D01*
X52294Y79112D01*
X52476Y78983D01*
X52670Y78875D01*
X52876Y78790D01*
X53090Y78729D01*
X53309Y78691D01*
X53531Y78679D01*
X53753Y78691D01*
X53973Y78729D01*
X54186Y78790D01*
X54392Y78875D01*
X54587Y78983D01*
X54768Y79112D01*
X54934Y79260D01*
X55082Y79426D01*
X55177Y79560D01*
X75263D01*
X75436Y79573D01*
X75604Y79614D01*
X75764Y79680D01*
X75912Y79770D01*
X76043Y79883D01*
X87180Y91020D01*
X87293Y91151D01*
X87300Y91163D01*
X87837Y91181D01*
X88020Y91128D01*
X88156Y91075D01*
X88212Y90939D01*
X88320Y90744D01*
X88449Y90563D01*
X88597Y90397D01*
X88712Y90294D01*
X88758Y89766D01*
X88755Y89428D01*
X81984Y82657D01*
X81822Y82685D01*
X81600Y82697D01*
X81378Y82685D01*
X81159Y82648D01*
X80945Y82586D01*
X80739Y82501D01*
X80544Y82393D01*
X80363Y82264D01*
X80197Y82116D01*
X80049Y81950D01*
X79920Y81769D01*
X79812Y81574D01*
X79727Y81368D01*
X79665Y81155D01*
X79628Y80935D01*
X79616Y80713D01*
X79628Y80491D01*
X79665Y80272D01*
X79727Y80058D01*
X79812Y79852D01*
X79920Y79657D01*
X80049Y79476D01*
X80197Y79310D01*
X80363Y79162D01*
X80544Y79033D01*
X80739Y78925D01*
X80945Y78840D01*
X81159Y78778D01*
X81378Y78741D01*
X81600Y78729D01*
X81822Y78741D01*
X82042Y78778D01*
X82255Y78840D01*
X82461Y78925D01*
X82983Y78701D01*
X83224Y78455D01*
X83228Y78378D01*
X83266Y78158D01*
X83327Y77945D01*
X83412Y77739D01*
X83520Y77544D01*
X83649Y77363D01*
X83797Y77197D01*
X83963Y77049D01*
X84144Y76920D01*
X84339Y76812D01*
X84545Y76727D01*
X84759Y76666D01*
X84978Y76628D01*
X85200Y76616D01*
X85422Y76628D01*
X85641Y76666D01*
X85855Y76727D01*
X86061Y76812D01*
X86256Y76920D01*
X86437Y77049D01*
X86603Y77197D01*
X86751Y77363D01*
X86880Y77544D01*
X86988Y77739D01*
X87073Y77945D01*
X87134Y78158D01*
X87172Y78378D01*
X87184Y78600D01*
X87172Y78822D01*
X87144Y78984D01*
X94380Y86220D01*
X94493Y86351D01*
X94583Y86499D01*
X94649Y86659D01*
X94690Y86827D01*
X94703Y87000D01*
Y88954D01*
X94837Y89049D01*
X95003Y89197D01*
X95151Y89363D01*
X95280Y89544D01*
X95388Y89739D01*
X95473Y89945D01*
X95534Y90158D01*
X95572Y90378D01*
X95584Y90600D01*
X95572Y90822D01*
X95534Y91041D01*
X95473Y91255D01*
X95388Y91461D01*
X95280Y91656D01*
X95151Y91837D01*
X95003Y92003D01*
X94837Y92151D01*
X94656Y92280D01*
X94461Y92388D01*
X94255Y92473D01*
X94042Y92535D01*
X93822Y92572D01*
X93600Y92584D01*
X93378Y92572D01*
X93159Y92535D01*
X92945Y92473D01*
X92739Y92388D01*
X92722Y92378D01*
X92652Y92366D01*
X92349Y92401D01*
X92185Y92453D01*
X91830Y92623D01*
X91802Y92648D01*
X91769Y92694D01*
X91680Y92856D01*
X91551Y93037D01*
X91403Y93203D01*
X91237Y93351D01*
X91056Y93480D01*
X90861Y93588D01*
X90655Y93673D01*
X90442Y93735D01*
X90222Y93772D01*
X90000Y93784D01*
X89778Y93772D01*
X89559Y93735D01*
X89345Y93673D01*
X89139Y93588D01*
X88944Y93480D01*
X88763Y93351D01*
X88597Y93203D01*
X88449Y93037D01*
X88320Y92856D01*
X88303Y92826D01*
X87594Y92954D01*
X87503Y92997D01*
Y105154D01*
X87637Y105249D01*
X87803Y105397D01*
X87951Y105563D01*
X88080Y105744D01*
X88188Y105939D01*
X88273Y106145D01*
X88335Y106359D01*
X88372Y106578D01*
X88384Y106800D01*
X88372Y107022D01*
X88335Y107241D01*
X88273Y107455D01*
X88188Y107661D01*
X88080Y107856D01*
X87951Y108037D01*
X87803Y108203D01*
X87637Y108351D01*
X87456Y108480D01*
X87261Y108588D01*
X87055Y108673D01*
X86841Y108735D01*
X86622Y108772D01*
X86400Y108784D01*
D02*
G37*
G36*
X64200Y63184D02*
X63978Y63172D01*
X63758Y63134D01*
X63545Y63073D01*
X63339Y62988D01*
X63144Y62880D01*
X62963Y62751D01*
X62797Y62603D01*
X62649Y62437D01*
X62520Y62256D01*
X62412Y62061D01*
X62327Y61855D01*
X62265Y61642D01*
X62228Y61422D01*
X62216Y61200D01*
X62228Y60978D01*
X62265Y60759D01*
X62327Y60545D01*
X62412Y60339D01*
X62520Y60144D01*
X62649Y59963D01*
X62797Y59797D01*
X62963Y59649D01*
X63144Y59520D01*
X63339Y59412D01*
X63545Y59327D01*
X63758Y59266D01*
X63978Y59228D01*
X64200Y59216D01*
X64422Y59228D01*
X64641Y59266D01*
X64855Y59327D01*
X65061Y59412D01*
X65256Y59520D01*
X65437Y59649D01*
X65603Y59797D01*
X65751Y59963D01*
X65880Y60144D01*
X65988Y60339D01*
X66073Y60545D01*
X66135Y60759D01*
X66172Y60978D01*
X66184Y61200D01*
X66172Y61422D01*
X66135Y61642D01*
X66073Y61855D01*
X65988Y62061D01*
X65880Y62256D01*
X65751Y62437D01*
X65603Y62603D01*
X65437Y62751D01*
X65256Y62880D01*
X65061Y62988D01*
X64855Y63073D01*
X64641Y63134D01*
X64422Y63172D01*
X64200Y63184D01*
D02*
G37*
G36*
X81596Y62584D02*
X81374Y62572D01*
X81154Y62534D01*
X80940Y62473D01*
X80735Y62388D01*
X80540Y62280D01*
X80358Y62151D01*
X80193Y62003D01*
X80044Y61837D01*
X79916Y61656D01*
X79808Y61461D01*
X79723Y61255D01*
X79661Y61041D01*
X79624Y60822D01*
X79611Y60600D01*
X79624Y60378D01*
X79661Y60158D01*
X79723Y59945D01*
X79808Y59739D01*
X79916Y59544D01*
X80044Y59363D01*
X80193Y59197D01*
X80358Y59049D01*
X80540Y58920D01*
X80735Y58812D01*
X80940Y58727D01*
X81154Y58666D01*
X81374Y58628D01*
X81596Y58616D01*
X81818Y58628D01*
X82037Y58666D01*
X82251Y58727D01*
X82457Y58812D01*
X82651Y58920D01*
X82833Y59049D01*
X82999Y59197D01*
X83147Y59363D01*
X83276Y59544D01*
X83383Y59739D01*
X83469Y59945D01*
X83530Y60158D01*
X83567Y60378D01*
X83580Y60600D01*
X83567Y60822D01*
X83530Y61041D01*
X83469Y61255D01*
X83383Y61461D01*
X83276Y61656D01*
X83147Y61837D01*
X82999Y62003D01*
X82833Y62151D01*
X82651Y62280D01*
X82457Y62388D01*
X82251Y62473D01*
X82037Y62534D01*
X81818Y62572D01*
X81596Y62584D01*
D02*
G37*
G36*
X75885D02*
X75662Y62572D01*
X75443Y62534D01*
X75229Y62473D01*
X75024Y62388D01*
X74829Y62280D01*
X74647Y62151D01*
X74482Y62003D01*
X74333Y61837D01*
X74205Y61656D01*
X74097Y61461D01*
X74012Y61255D01*
X73950Y61041D01*
X73913Y60822D01*
X73900Y60600D01*
X73913Y60378D01*
X73950Y60158D01*
X74012Y59945D01*
X74097Y59739D01*
X74205Y59544D01*
X74333Y59363D01*
X74482Y59197D01*
X74647Y59049D01*
X74829Y58920D01*
X75024Y58812D01*
X75229Y58727D01*
X75443Y58666D01*
X75662Y58628D01*
X75885Y58616D01*
X76107Y58628D01*
X76326Y58666D01*
X76540Y58727D01*
X76746Y58812D01*
X76940Y58920D01*
X77122Y59049D01*
X77288Y59197D01*
X77436Y59363D01*
X77565Y59544D01*
X77672Y59739D01*
X77758Y59945D01*
X77819Y60158D01*
X77856Y60378D01*
X77869Y60600D01*
X77856Y60822D01*
X77819Y61041D01*
X77758Y61255D01*
X77672Y61461D01*
X77565Y61656D01*
X77436Y61837D01*
X77288Y62003D01*
X77122Y62151D01*
X76940Y62280D01*
X76746Y62388D01*
X76540Y62473D01*
X76326Y62534D01*
X76107Y62572D01*
X75885Y62584D01*
D02*
G37*
G36*
X43800Y63184D02*
X43578Y63172D01*
X43358Y63134D01*
X43145Y63073D01*
X42939Y62988D01*
X42744Y62880D01*
X42563Y62751D01*
X42397Y62603D01*
X42249Y62437D01*
X42120Y62256D01*
X42012Y62061D01*
X41927Y61855D01*
X41866Y61642D01*
X41828Y61422D01*
X41816Y61200D01*
X41828Y60978D01*
X41866Y60759D01*
X41927Y60545D01*
X42012Y60339D01*
X42120Y60144D01*
X42249Y59963D01*
X42397Y59797D01*
X42563Y59649D01*
X42744Y59520D01*
X42939Y59412D01*
X43145Y59327D01*
X43358Y59266D01*
X43578Y59228D01*
X43800Y59216D01*
X44022Y59228D01*
X44184Y59256D01*
X51456Y51984D01*
X51428Y51822D01*
X51416Y51600D01*
X51428Y51378D01*
X51465Y51158D01*
X51527Y50945D01*
X51612Y50739D01*
X51720Y50544D01*
X51849Y50363D01*
X51997Y50197D01*
X52163Y50049D01*
X52344Y49920D01*
X52539Y49812D01*
X52745Y49727D01*
X52959Y49665D01*
X53178Y49628D01*
X53400Y49616D01*
X53622Y49628D01*
X53842Y49665D01*
X54055Y49727D01*
X54261Y49812D01*
X54456Y49920D01*
X54637Y50049D01*
X54803Y50197D01*
X54951Y50363D01*
X55080Y50544D01*
X55188Y50739D01*
X55273Y50945D01*
X55335Y51158D01*
X55372Y51378D01*
X55384Y51600D01*
X55372Y51822D01*
X55335Y52042D01*
X55273Y52255D01*
X55188Y52461D01*
X55080Y52656D01*
X54951Y52837D01*
X54803Y53003D01*
X54637Y53151D01*
X54456Y53280D01*
X54261Y53388D01*
X54055Y53473D01*
X53842Y53535D01*
X53622Y53572D01*
X53400Y53584D01*
X53178Y53572D01*
X53016Y53544D01*
X45744Y60816D01*
X45772Y60978D01*
X45784Y61200D01*
X45772Y61422D01*
X45735Y61642D01*
X45673Y61855D01*
X45588Y62061D01*
X45480Y62256D01*
X45351Y62437D01*
X45203Y62603D01*
X45037Y62751D01*
X44856Y62880D01*
X44661Y62988D01*
X44455Y63073D01*
X44241Y63134D01*
X44022Y63172D01*
X43800Y63184D01*
D02*
G37*
G36*
X10200Y53584D02*
X9978Y53572D01*
X9759Y53535D01*
X9545Y53473D01*
X9339Y53388D01*
X9144Y53280D01*
X8963Y53151D01*
X8797Y53003D01*
X8649Y52837D01*
X8520Y52656D01*
X8412Y52461D01*
X8327Y52255D01*
X8265Y52042D01*
X8228Y51822D01*
X8216Y51600D01*
X8228Y51378D01*
X8265Y51158D01*
X8327Y50945D01*
X8412Y50739D01*
X8520Y50544D01*
X8649Y50363D01*
X8797Y50197D01*
X8963Y50049D01*
X9144Y49920D01*
X9339Y49812D01*
X9545Y49727D01*
X9759Y49665D01*
X9978Y49628D01*
X10200Y49616D01*
X10422Y49628D01*
X10642Y49665D01*
X10855Y49727D01*
X11061Y49812D01*
X11256Y49920D01*
X11437Y50049D01*
X11603Y50197D01*
X11751Y50363D01*
X11880Y50544D01*
X11988Y50739D01*
X12073Y50945D01*
X12134Y51158D01*
X12172Y51378D01*
X12184Y51600D01*
X12172Y51822D01*
X12134Y52042D01*
X12073Y52255D01*
X11988Y52461D01*
X11880Y52656D01*
X11751Y52837D01*
X11603Y53003D01*
X11437Y53151D01*
X11256Y53280D01*
X11061Y53388D01*
X10855Y53473D01*
X10642Y53535D01*
X10422Y53572D01*
X10200Y53584D01*
D02*
G37*
G36*
X95472Y52613D02*
X95250Y52601D01*
X95031Y52564D01*
X94817Y52502D01*
X94612Y52417D01*
X94417Y52309D01*
X94235Y52180D01*
X94069Y52032D01*
X93921Y51866D01*
X93792Y51685D01*
X93685Y51490D01*
X93600Y51284D01*
X93538Y51071D01*
X93501Y50851D01*
X93488Y50629D01*
X93501Y50407D01*
X93538Y50188D01*
X93600Y49974D01*
X93685Y49768D01*
X93792Y49573D01*
X93921Y49392D01*
X94069Y49226D01*
X93937Y48482D01*
X93874Y48354D01*
X91864Y46344D01*
X91703Y46372D01*
X91480Y46384D01*
X91258Y46372D01*
X91039Y46334D01*
X90825Y46273D01*
X90619Y46188D01*
X90425Y46080D01*
X90243Y45951D01*
X90077Y45803D01*
X89929Y45637D01*
X89800Y45456D01*
X89693Y45261D01*
X89607Y45055D01*
X89546Y44842D01*
X89509Y44622D01*
X89496Y44400D01*
X89509Y44178D01*
X89546Y43959D01*
X89607Y43745D01*
X89693Y43539D01*
X89800Y43344D01*
X89929Y43163D01*
X90077Y42997D01*
X90243Y42849D01*
X90425Y42720D01*
X90619Y42612D01*
X90825Y42527D01*
X91039Y42465D01*
X91258Y42428D01*
X91480Y42416D01*
X91703Y42428D01*
X91922Y42465D01*
X92136Y42527D01*
X92341Y42612D01*
X92536Y42720D01*
X92717Y42849D01*
X92883Y42997D01*
X93032Y43163D01*
X93160Y43344D01*
X93268Y43539D01*
X93353Y43745D01*
X93415Y43959D01*
X93452Y44178D01*
X93464Y44400D01*
X93452Y44622D01*
X93425Y44784D01*
X96253Y47612D01*
X96365Y47743D01*
X96456Y47891D01*
X96522Y48051D01*
X96562Y48219D01*
X96576Y48392D01*
Y48983D01*
X96710Y49078D01*
X96876Y49226D01*
X97024Y49392D01*
X97153Y49573D01*
X97260Y49768D01*
X97345Y49974D01*
X97407Y50188D01*
X97444Y50407D01*
X97457Y50629D01*
X97444Y50851D01*
X97407Y51071D01*
X97345Y51284D01*
X97260Y51490D01*
X97153Y51685D01*
X97024Y51866D01*
X96876Y52032D01*
X96710Y52180D01*
X96528Y52309D01*
X96333Y52417D01*
X96128Y52502D01*
X95914Y52564D01*
X95695Y52601D01*
X95472Y52613D01*
D02*
G37*
G36*
X62048Y52666D02*
X61826Y52653D01*
X61607Y52616D01*
X61393Y52555D01*
X61187Y52469D01*
X60992Y52362D01*
X60811Y52233D01*
X60645Y52085D01*
X60497Y51919D01*
X60368Y51737D01*
X60260Y51543D01*
X60175Y51337D01*
X60114Y51123D01*
X60076Y50904D01*
X60064Y50682D01*
X60076Y50459D01*
X60114Y50240D01*
X60175Y50026D01*
X60260Y49821D01*
X60368Y49626D01*
X60497Y49444D01*
X60645Y49279D01*
X60811Y49130D01*
X60945Y49035D01*
Y48352D01*
X60958Y48179D01*
X60999Y48011D01*
X61065Y47851D01*
X61155Y47703D01*
X61268Y47572D01*
X64056Y44784D01*
X64028Y44622D01*
X64016Y44400D01*
X64028Y44178D01*
X64065Y43959D01*
X64127Y43745D01*
X64212Y43539D01*
X64320Y43344D01*
X64449Y43163D01*
X64597Y42997D01*
X64763Y42849D01*
X64944Y42720D01*
X65139Y42612D01*
X65345Y42527D01*
X65558Y42465D01*
X65778Y42428D01*
X66000Y42416D01*
X66222Y42428D01*
X66442Y42465D01*
X66655Y42527D01*
X66861Y42612D01*
X67056Y42720D01*
X67237Y42849D01*
X67403Y42997D01*
X67551Y43163D01*
X67680Y43344D01*
X67788Y43539D01*
X67873Y43745D01*
X67935Y43959D01*
X67972Y44178D01*
X67984Y44400D01*
X67972Y44622D01*
X67935Y44842D01*
X67873Y45055D01*
X67788Y45261D01*
X67680Y45456D01*
X67551Y45637D01*
X67403Y45803D01*
X67237Y45951D01*
X67056Y46080D01*
X66861Y46188D01*
X66655Y46273D01*
X66442Y46334D01*
X66222Y46372D01*
X66000Y46384D01*
X65778Y46372D01*
X65616Y46344D01*
X63584Y48376D01*
X63518Y48543D01*
X63451Y49279D01*
X63599Y49444D01*
X63728Y49626D01*
X63836Y49821D01*
X63921Y50026D01*
X63983Y50240D01*
X64020Y50459D01*
X64032Y50682D01*
X64020Y50904D01*
X63983Y51123D01*
X63921Y51337D01*
X63836Y51543D01*
X63728Y51737D01*
X63599Y51919D01*
X63451Y52085D01*
X63285Y52233D01*
X63104Y52362D01*
X62909Y52469D01*
X62704Y52555D01*
X62490Y52616D01*
X62270Y52653D01*
X62048Y52666D01*
D02*
G37*
G36*
X78740Y32693D02*
X78518Y32680D01*
X78299Y32643D01*
X78085Y32581D01*
X77879Y32496D01*
X77684Y32389D01*
X77503Y32260D01*
X77337Y32112D01*
X77189Y31946D01*
X77060Y31764D01*
X76952Y31570D01*
X76867Y31364D01*
X76806Y31150D01*
X76768Y30931D01*
X76756Y30709D01*
X76768Y30487D01*
X76806Y30267D01*
X76867Y30053D01*
X76952Y29848D01*
X77060Y29653D01*
X77177Y29488D01*
X77060Y29323D01*
X76952Y29129D01*
X76867Y28923D01*
X76806Y28709D01*
X76768Y28490D01*
X76756Y28268D01*
X76768Y28046D01*
X76806Y27826D01*
X76867Y27612D01*
X76952Y27407D01*
X77060Y27212D01*
X77189Y27031D01*
X77337Y26865D01*
X77503Y26716D01*
X77684Y26588D01*
X77879Y26480D01*
X78085Y26395D01*
X78299Y26333D01*
X78518Y26296D01*
X78740Y26283D01*
X78962Y26296D01*
X79182Y26333D01*
X79396Y26395D01*
X79601Y26480D01*
X79796Y26588D01*
X79977Y26716D01*
X80143Y26865D01*
X80291Y27031D01*
X80420Y27212D01*
X80528Y27407D01*
X80613Y27612D01*
X80675Y27826D01*
X80712Y28046D01*
X80724Y28268D01*
X80712Y28490D01*
X80675Y28709D01*
X80613Y28923D01*
X80528Y29129D01*
X80420Y29323D01*
X80303Y29488D01*
X80420Y29653D01*
X80528Y29848D01*
X80613Y30053D01*
X80675Y30267D01*
X80712Y30487D01*
X80724Y30709D01*
X80712Y30931D01*
X80675Y31150D01*
X80613Y31364D01*
X80528Y31570D01*
X80420Y31764D01*
X80291Y31946D01*
X80143Y32112D01*
X79977Y32260D01*
X79796Y32389D01*
X79601Y32496D01*
X79396Y32581D01*
X79182Y32643D01*
X78962Y32680D01*
X78740Y32693D01*
D02*
G37*
G36*
X10200Y22800D02*
X3000D01*
Y3000D01*
X10200D01*
Y22800D01*
D02*
G37*
%LPD*%
G36*
X7846Y21863D02*
X7935Y21848D01*
X8038Y21833D01*
X8149Y21804D01*
X8268Y21767D01*
X8386Y21715D01*
X8401Y21707D01*
X8438Y21685D01*
X8490Y21656D01*
X8564Y21611D01*
X8638Y21552D01*
X8719Y21493D01*
X8800Y21419D01*
X8867Y21337D01*
X8874Y21330D01*
X8897Y21300D01*
X8926Y21249D01*
X8956Y21182D01*
X9000Y21101D01*
X9045Y21004D01*
X9082Y20901D01*
X9119Y20775D01*
Y20760D01*
X9133Y20716D01*
X9141Y20642D01*
X9156Y20546D01*
X9170Y20427D01*
X9185Y20287D01*
X9193Y20131D01*
X9200Y19954D01*
Y18000D01*
X4079D01*
Y20013D01*
X4087Y20065D01*
Y20124D01*
X4101Y20257D01*
X4116Y20405D01*
X4146Y20560D01*
X4183Y20716D01*
X4235Y20856D01*
Y20864D01*
X4242Y20871D01*
X4264Y20916D01*
X4301Y20982D01*
X4353Y21056D01*
X4420Y21145D01*
X4501Y21241D01*
X4605Y21330D01*
X4716Y21411D01*
X4730Y21419D01*
X4775Y21441D01*
X4834Y21478D01*
X4923Y21515D01*
X5026Y21552D01*
X5137Y21589D01*
X5263Y21611D01*
X5389Y21619D01*
X5404D01*
X5441D01*
X5507Y21611D01*
X5589Y21596D01*
X5685Y21574D01*
X5789Y21537D01*
X5892Y21493D01*
X6003Y21434D01*
X6018Y21426D01*
X6048Y21404D01*
X6107Y21360D01*
X6166Y21300D01*
X6240Y21226D01*
X6321Y21138D01*
X6395Y21027D01*
X6469Y20901D01*
Y20908D01*
X6477Y20923D01*
X6484Y20945D01*
X6499Y20975D01*
X6529Y21064D01*
X6580Y21167D01*
X6647Y21278D01*
X6728Y21404D01*
X6825Y21515D01*
X6943Y21619D01*
X6958Y21626D01*
X7002Y21656D01*
X7069Y21700D01*
X7158Y21744D01*
X7276Y21789D01*
X7402Y21833D01*
X7550Y21863D01*
X7713Y21870D01*
X7720D01*
X7727D01*
X7772D01*
X7846Y21863D01*
D02*
G37*
%LPC*%
G36*
X7713Y21175D02*
X7698D01*
X7668D01*
X7609Y21167D01*
X7542Y21152D01*
X7468Y21138D01*
X7387Y21108D01*
X7306Y21071D01*
X7224Y21019D01*
X7217Y21012D01*
X7187Y20990D01*
X7150Y20960D01*
X7106Y20916D01*
X7054Y20856D01*
X7002Y20782D01*
X6958Y20701D01*
X6921Y20605D01*
X6913Y20590D01*
X6906Y20560D01*
X6891Y20494D01*
X6876Y20412D01*
X6862Y20309D01*
X6847Y20183D01*
X6832Y20028D01*
Y18681D01*
X8593D01*
Y20139D01*
X8586Y20294D01*
X8578Y20361D01*
X8571Y20420D01*
Y20427D01*
X8564Y20457D01*
X8556Y20501D01*
X8541Y20553D01*
X8497Y20679D01*
X8438Y20805D01*
X8430Y20812D01*
X8416Y20834D01*
X8393Y20864D01*
X8364Y20901D01*
X8319Y20938D01*
X8275Y20990D01*
X8216Y21027D01*
X8149Y21071D01*
X8142Y21078D01*
X8120Y21086D01*
X8075Y21101D01*
X8023Y21123D01*
X7964Y21145D01*
X7890Y21160D01*
X7801Y21167D01*
X7713Y21175D01*
D02*
G37*
G36*
X5470Y20953D02*
X5456D01*
X5426D01*
X5382Y20945D01*
X5322Y20938D01*
X5248Y20923D01*
X5174Y20901D01*
X5100Y20871D01*
X5026Y20827D01*
X5019Y20819D01*
X4997Y20805D01*
X4960Y20775D01*
X4923Y20738D01*
X4878Y20686D01*
X4834Y20627D01*
X4790Y20553D01*
X4760Y20472D01*
Y20464D01*
X4745Y20427D01*
X4738Y20375D01*
X4723Y20294D01*
X4708Y20183D01*
X4701Y20057D01*
X4686Y19894D01*
Y18681D01*
X6225D01*
Y19939D01*
X6218Y20035D01*
X6210Y20139D01*
X6203Y20242D01*
X6188Y20346D01*
X6173Y20427D01*
X6166Y20442D01*
X6159Y20472D01*
X6136Y20516D01*
X6107Y20575D01*
X6077Y20634D01*
X6033Y20701D01*
X5974Y20768D01*
X5914Y20819D01*
X5907Y20827D01*
X5885Y20842D01*
X5840Y20864D01*
X5789Y20886D01*
X5729Y20908D01*
X5655Y20930D01*
X5567Y20945D01*
X5470Y20953D01*
D02*
G37*
G36*
X16957Y32601D02*
Y28413D01*
X19028D01*
Y30079D01*
X19016Y30331D01*
X18979Y30580D01*
X18918Y30825D01*
X18833Y31063D01*
X18725Y31291D01*
X18595Y31508D01*
X18445Y31710D01*
X18275Y31897D01*
X18088Y32067D01*
X17885Y32217D01*
X17669Y32347D01*
X17441Y32455D01*
X17203Y32540D01*
X16958Y32601D01*
X16957Y32601D01*
D02*
G37*
G36*
X50972Y32601D02*
Y28413D01*
X53044D01*
Y30079D01*
X53032Y30331D01*
X52995Y30580D01*
X52933Y30825D01*
X52848Y31063D01*
X52740Y31291D01*
X52611Y31508D01*
X52460Y31710D01*
X52291Y31897D01*
X52104Y32067D01*
X51901Y32217D01*
X51685Y32347D01*
X51457Y32455D01*
X51219Y32540D01*
X50974Y32601D01*
X50972Y32601D01*
D02*
G37*
G36*
X49972D02*
X49971Y32601D01*
X49726Y32540D01*
X49488Y32455D01*
X49260Y32347D01*
X49044Y32217D01*
X48841Y32067D01*
X48654Y31897D01*
X48485Y31710D01*
X48334Y31508D01*
X48204Y31291D01*
X48097Y31063D01*
X48012Y30825D01*
X47950Y30580D01*
X47913Y30331D01*
X47901Y30079D01*
Y28413D01*
X49972D01*
Y32601D01*
D02*
G37*
G36*
X15957Y32601D02*
X15955Y32601D01*
X15710Y32540D01*
X15473Y32455D01*
X15245Y32347D01*
X15028Y32217D01*
X14825Y32067D01*
X14638Y31897D01*
X14469Y31710D01*
X14319Y31508D01*
X14189Y31291D01*
X14081Y31063D01*
X13996Y30825D01*
X13935Y30580D01*
X13897Y30331D01*
X13885Y30079D01*
Y28413D01*
X15957D01*
Y32601D01*
D02*
G37*
G36*
X44842Y27910D02*
X44609Y27896D01*
X44379Y27857D01*
X44155Y27793D01*
X43939Y27703D01*
X43734Y27590D01*
X43544Y27455D01*
X43370Y27299D01*
X43214Y27125D01*
X43079Y26935D01*
X42966Y26730D01*
X42877Y26515D01*
X42812Y26290D01*
X42773Y26060D01*
X42760Y25827D01*
X42773Y25594D01*
X42812Y25363D01*
X42877Y25139D01*
X42966Y24923D01*
X43079Y24719D01*
X43214Y24528D01*
X43370Y24354D01*
X43544Y24198D01*
X43734Y24063D01*
X43939Y23950D01*
X44155Y23861D01*
X44379Y23796D01*
X44609Y23757D01*
X44842Y23744D01*
X45076Y23757D01*
X45306Y23796D01*
X45530Y23861D01*
X45746Y23950D01*
X45951Y24063D01*
X46141Y24198D01*
X46315Y24354D01*
X46471Y24528D01*
X46606Y24719D01*
X46719Y24923D01*
X46808Y25139D01*
X46873Y25363D01*
X46912Y25594D01*
X46925Y25827D01*
X46912Y26060D01*
X46873Y26290D01*
X46808Y26515D01*
X46719Y26730D01*
X46606Y26935D01*
X46471Y27125D01*
X46315Y27299D01*
X46141Y27455D01*
X45951Y27590D01*
X45746Y27703D01*
X45530Y27793D01*
X45306Y27857D01*
X45076Y27896D01*
X44842Y27910D01*
D02*
G37*
G36*
X22087D02*
X21853Y27896D01*
X21623Y27857D01*
X21399Y27793D01*
X21183Y27703D01*
X20978Y27590D01*
X20788Y27455D01*
X20614Y27299D01*
X20458Y27125D01*
X20323Y26935D01*
X20210Y26730D01*
X20121Y26515D01*
X20056Y26290D01*
X20017Y26060D01*
X20004Y25827D01*
X20017Y25594D01*
X20056Y25363D01*
X20121Y25139D01*
X20210Y24923D01*
X20323Y24719D01*
X20458Y24528D01*
X20614Y24354D01*
X20788Y24198D01*
X20978Y24063D01*
X21183Y23950D01*
X21399Y23861D01*
X21623Y23796D01*
X21853Y23757D01*
X22087Y23744D01*
X22320Y23757D01*
X22550Y23796D01*
X22774Y23861D01*
X22990Y23950D01*
X23195Y24063D01*
X23385Y24198D01*
X23559Y24354D01*
X23715Y24528D01*
X23850Y24719D01*
X23963Y24923D01*
X24053Y25139D01*
X24117Y25363D01*
X24156Y25594D01*
X24169Y25827D01*
X24156Y26060D01*
X24117Y26290D01*
X24053Y26515D01*
X23963Y26730D01*
X23850Y26935D01*
X23715Y27125D01*
X23559Y27299D01*
X23385Y27455D01*
X23195Y27590D01*
X22990Y27703D01*
X22774Y27793D01*
X22550Y27857D01*
X22320Y27896D01*
X22087Y27910D01*
D02*
G37*
G36*
X19028Y27413D02*
X16957D01*
Y23226D01*
X16958Y23226D01*
X17203Y23287D01*
X17441Y23372D01*
X17669Y23480D01*
X17885Y23610D01*
X18088Y23760D01*
X18275Y23930D01*
X18445Y24117D01*
X18595Y24319D01*
X18725Y24536D01*
X18833Y24764D01*
X18918Y25001D01*
X18979Y25246D01*
X19016Y25496D01*
X19028Y25748D01*
Y27413D01*
D02*
G37*
G36*
X49972D02*
X47901D01*
Y25748D01*
X47913Y25496D01*
X47950Y25246D01*
X48012Y25001D01*
X48097Y24764D01*
X48204Y24536D01*
X48334Y24319D01*
X48485Y24117D01*
X48654Y23930D01*
X48841Y23760D01*
X49044Y23610D01*
X49260Y23480D01*
X49488Y23372D01*
X49726Y23287D01*
X49971Y23226D01*
X49972Y23226D01*
Y27413D01*
D02*
G37*
G36*
X15957D02*
X13885D01*
Y25748D01*
X13897Y25496D01*
X13935Y25246D01*
X13996Y25001D01*
X14081Y24764D01*
X14189Y24536D01*
X14319Y24319D01*
X14469Y24117D01*
X14638Y23930D01*
X14825Y23760D01*
X15028Y23610D01*
X15245Y23480D01*
X15473Y23372D01*
X15710Y23287D01*
X15955Y23226D01*
X15957Y23226D01*
Y27413D01*
D02*
G37*
G36*
X16957Y15160D02*
Y11957D01*
X19028D01*
Y12638D01*
X19016Y12890D01*
X18979Y13139D01*
X18918Y13384D01*
X18833Y13622D01*
X18725Y13850D01*
X18595Y14066D01*
X18445Y14269D01*
X18275Y14456D01*
X18088Y14626D01*
X17885Y14776D01*
X17669Y14906D01*
X17441Y15014D01*
X17203Y15099D01*
X16958Y15160D01*
X16957Y15160D01*
D02*
G37*
G36*
X50972Y15160D02*
Y11957D01*
X53044D01*
Y12638D01*
X53032Y12890D01*
X52995Y13139D01*
X52933Y13384D01*
X52848Y13622D01*
X52740Y13850D01*
X52611Y14066D01*
X52460Y14269D01*
X52291Y14456D01*
X52104Y14626D01*
X51901Y14776D01*
X51685Y14906D01*
X51457Y15014D01*
X51219Y15099D01*
X50974Y15160D01*
X50972Y15160D01*
D02*
G37*
G36*
X49972D02*
X49971Y15160D01*
X49726Y15099D01*
X49488Y15014D01*
X49260Y14906D01*
X49044Y14776D01*
X48841Y14626D01*
X48654Y14456D01*
X48485Y14269D01*
X48334Y14066D01*
X48204Y13850D01*
X48097Y13622D01*
X48012Y13384D01*
X47950Y13139D01*
X47913Y12890D01*
X47901Y12638D01*
Y11957D01*
X49972D01*
Y15160D01*
D02*
G37*
G36*
X15957Y15160D02*
X15955Y15160D01*
X15710Y15099D01*
X15473Y15014D01*
X15245Y14906D01*
X15028Y14776D01*
X14825Y14626D01*
X14638Y14456D01*
X14469Y14269D01*
X14319Y14066D01*
X14189Y13850D01*
X14081Y13622D01*
X13996Y13384D01*
X13935Y13139D01*
X13897Y12890D01*
X13885Y12638D01*
Y11957D01*
X15957D01*
Y15160D01*
D02*
G37*
G36*
X19028Y10957D02*
X16957D01*
Y7753D01*
X16958Y7753D01*
X17203Y7815D01*
X17441Y7900D01*
X17669Y8008D01*
X17885Y8137D01*
X18088Y8288D01*
X18275Y8457D01*
X18445Y8644D01*
X18595Y8847D01*
X18725Y9063D01*
X18833Y9291D01*
X18918Y9529D01*
X18979Y9774D01*
X19016Y10024D01*
X19028Y10276D01*
Y10957D01*
D02*
G37*
G36*
X53044D02*
X50972D01*
Y7753D01*
X50974Y7753D01*
X51219Y7815D01*
X51457Y7900D01*
X51685Y8008D01*
X51901Y8137D01*
X52104Y8288D01*
X52291Y8457D01*
X52460Y8644D01*
X52611Y8847D01*
X52740Y9063D01*
X52848Y9291D01*
X52933Y9529D01*
X52995Y9774D01*
X53032Y10024D01*
X53044Y10276D01*
Y10957D01*
D02*
G37*
G36*
X49972D02*
X47901D01*
Y10276D01*
X47913Y10024D01*
X47950Y9774D01*
X48012Y9529D01*
X48097Y9291D01*
X48204Y9063D01*
X48334Y8847D01*
X48485Y8644D01*
X48654Y8457D01*
X48841Y8288D01*
X49044Y8137D01*
X49260Y8008D01*
X49488Y7900D01*
X49726Y7815D01*
X49971Y7753D01*
X49972Y7753D01*
Y10957D01*
D02*
G37*
G36*
X15957D02*
X13885D01*
Y10276D01*
X13897Y10024D01*
X13935Y9774D01*
X13996Y9529D01*
X14081Y9291D01*
X14189Y9063D01*
X14319Y8847D01*
X14469Y8644D01*
X14638Y8457D01*
X14825Y8288D01*
X15028Y8137D01*
X15245Y8008D01*
X15473Y7900D01*
X15710Y7815D01*
X15955Y7753D01*
X15957Y7753D01*
Y10957D01*
D02*
G37*
%LPD*%
D10*
X38242Y112200D02*
X46200D01*
X36442Y110400D02*
X38242Y112200D01*
X28484Y110400D02*
X36442D01*
X86400Y91800D02*
Y106800D01*
X53531Y80663D02*
X75263D01*
X86400Y91800D01*
X85200Y78600D02*
X93600Y87000D01*
Y90600D01*
X91480Y44400D02*
X95472Y48392D01*
Y50629D01*
X62048Y48352D02*
X66000Y44400D01*
X62048Y48352D02*
Y50682D01*
X90000Y89113D02*
Y91800D01*
X81600Y80713D02*
X90000Y89113D01*
X43800Y61200D02*
X53400Y51600D01*
X27000Y130200D02*
X28800Y128400D01*
X31200Y158400D02*
X37200Y164400D01*
X31200Y130800D02*
Y158400D01*
X37200Y164400D02*
X63000D01*
X73200Y174600D01*
Y181310D02*
X77992Y186102D01*
X73200Y174600D02*
Y181310D01*
X39600Y162600D02*
X64200D01*
X73200Y171600D02*
X79800D01*
X64200Y162600D02*
X73200Y171600D01*
X82800Y174600D02*
Y178800D01*
X79800Y171600D02*
X82800Y174600D01*
X97302Y186102D02*
X97992D01*
X92400Y181200D02*
X97302Y186102D01*
X82800Y178800D02*
X85200Y181200D01*
X92400D01*
X34200Y132887D02*
Y157200D01*
X39600Y162600D01*
X38752Y133476D02*
Y157200D01*
X27000Y130200D02*
Y157200D01*
X34200Y128924D02*
X38752Y133476D01*
X49800Y160200D02*
X66000D01*
X47400Y155400D02*
Y157800D01*
X49800Y160200D01*
X66000D02*
X75000Y169200D01*
X73800Y153000D02*
X78600Y157800D01*
X111973D02*
X120079Y165905D01*
X78600Y157800D02*
X111973D01*
X86702Y176102D02*
X87992D01*
X64200Y153600D02*
X86702Y176102D01*
X119745Y145905D02*
X120079D01*
X116850Y148800D02*
X119745Y145905D01*
X81000Y148800D02*
X116850D01*
X82705Y155905D02*
X120079D01*
X79800Y153000D02*
X82705Y155905D01*
X56376Y153000D02*
X56400D01*
X52176Y157200D02*
X56376Y153000D01*
X52153Y157200D02*
X52176D01*
X43800Y95400D02*
X52200D01*
X5906Y105905D02*
X38260D01*
X40354Y108000D01*
X5906Y115905D02*
X7017D01*
X9523Y113400D01*
X33000D01*
D56*
X22087Y25827D02*
D03*
X44842D02*
D03*
D80*
X31800Y40617D02*
X36417Y36000D01*
D81*
X58071Y143400D02*
X93601D01*
X67913Y108600D02*
X75787D01*
X54134D02*
X67913D01*
D84*
X5906Y95906D02*
D03*
Y165905D02*
D03*
Y155905D02*
D03*
Y145905D02*
D03*
Y135906D02*
D03*
Y125906D02*
D03*
Y115905D02*
D03*
Y105905D02*
D03*
Y85905D02*
D03*
X120079Y165905D02*
D03*
Y5906D02*
D03*
Y15905D02*
D03*
Y25905D02*
D03*
Y35906D02*
D03*
Y45906D02*
D03*
Y55905D02*
D03*
Y65905D02*
D03*
Y75906D02*
D03*
Y85905D02*
D03*
Y95906D02*
D03*
Y105905D02*
D03*
Y115905D02*
D03*
Y125906D02*
D03*
Y135906D02*
D03*
Y145905D02*
D03*
Y155905D02*
D03*
X107992Y186102D02*
D03*
Y176102D02*
D03*
X97992Y186102D02*
D03*
Y176102D02*
D03*
X87992Y186102D02*
D03*
Y176102D02*
D03*
X77992Y186102D02*
D03*
Y176102D02*
D03*
X67992Y186102D02*
D03*
Y176102D02*
D03*
X57992Y186102D02*
D03*
Y176102D02*
D03*
X47992Y186102D02*
D03*
Y176102D02*
D03*
X37992Y186102D02*
D03*
Y176102D02*
D03*
X27992Y186102D02*
D03*
Y176102D02*
D03*
X17992Y186102D02*
D03*
D85*
X5906Y75906D02*
D03*
D86*
X50472Y11457D02*
D03*
X16457D02*
D03*
D87*
X50472Y27913D02*
D03*
X16457D02*
D03*
D88*
X17992Y176102D02*
D03*
D89*
X36417Y36000D02*
D03*
X31800Y40617D02*
D03*
X43800Y61200D02*
D03*
X63600Y77400D02*
D03*
X52800Y68400D02*
D03*
X43200Y47400D02*
D03*
X37200Y58800D02*
D03*
X70800Y60600D02*
D03*
X6600Y31200D02*
D03*
X91200Y15000D02*
D03*
X15000Y131400D02*
D03*
X18600Y144600D02*
D03*
X43200Y159000D02*
D03*
X19800Y155400D02*
D03*
X108000Y144600D02*
D03*
X98400Y165000D02*
D03*
X97800Y88200D02*
D03*
X69600Y85200D02*
D03*
X70200Y153437D02*
D03*
X63600Y168600D02*
D03*
X59400D02*
D03*
X76800Y160200D02*
D03*
X90000Y153600D02*
D03*
X100200Y109200D02*
D03*
X23400Y124200D02*
D03*
Y117000D02*
D03*
X24000Y94200D02*
D03*
X31200Y79200D02*
D03*
X16800Y64800D02*
D03*
X18600Y48000D02*
D03*
X48600Y75000D02*
D03*
X36600Y68400D02*
D03*
X25800Y47400D02*
D03*
X6000Y52200D02*
D03*
X63000Y6600D02*
D03*
X68400Y9000D02*
D03*
Y12600D02*
D03*
X50400Y39600D02*
D03*
X64800Y30000D02*
D03*
X92400D02*
D03*
X101400Y54600D02*
D03*
X86400Y60600D02*
D03*
X58800Y58200D02*
D03*
X104400Y123600D02*
D03*
X90600Y111000D02*
D03*
X92400Y99000D02*
D03*
X46200Y138600D02*
D03*
X54600Y97800D02*
D03*
X79800Y132874D02*
D03*
X87000Y160200D02*
D03*
X64200Y153600D02*
D03*
X30000Y117126D02*
D03*
X28484Y110400D02*
D03*
X46200Y112200D02*
D03*
X17400Y109800D02*
D03*
X15600Y123129D02*
D03*
X10200Y51600D02*
D03*
X63989Y143400D02*
D03*
X86400Y106800D02*
D03*
X53531Y80663D02*
D03*
X64200Y61200D02*
D03*
X72063Y143400D02*
D03*
X67913Y108600D02*
D03*
X75787D02*
D03*
X54134D02*
D03*
X96000Y124950D02*
D03*
X30000Y124016D02*
D03*
X69882Y93012D02*
D03*
X23819Y36600D02*
D03*
X85200Y78600D02*
D03*
X95472Y50629D02*
D03*
X91480Y44400D02*
D03*
X62048Y50682D02*
D03*
X81600Y80713D02*
D03*
X75197Y39764D02*
D03*
X78740D02*
D03*
X82284D02*
D03*
X75197Y43307D02*
D03*
X78740D02*
D03*
X82284D02*
D03*
Y46850D02*
D03*
X78740D02*
D03*
X75197D02*
D03*
X55905Y118898D02*
D03*
X60630D02*
D03*
X65354D02*
D03*
X70079D02*
D03*
X55905Y123622D02*
D03*
X60630D02*
D03*
X65354D02*
D03*
X70079D02*
D03*
X55905Y128347D02*
D03*
X60630D02*
D03*
X65354D02*
D03*
X70079D02*
D03*
Y133071D02*
D03*
X65354D02*
D03*
X60630D02*
D03*
X55905D02*
D03*
X54600Y23622D02*
D03*
X53400Y51600D02*
D03*
X34200Y132887D02*
D03*
X28800Y128400D02*
D03*
X38752Y157200D02*
D03*
X27000D02*
D03*
X31200Y130800D02*
D03*
X34200Y128924D02*
D03*
X75000Y169200D02*
D03*
X93601Y143400D02*
D03*
X58071D02*
D03*
X81000Y148800D02*
D03*
X79800Y153000D02*
D03*
X73800D02*
D03*
X47400Y155400D02*
D03*
X52153Y157200D02*
D03*
X56400Y153000D02*
D03*
X54600Y17717D02*
D03*
X93600Y90600D02*
D03*
X90000Y91800D02*
D03*
X53400Y88200D02*
D03*
X52200Y95400D02*
D03*
X43800D02*
D03*
X66000Y44400D02*
D03*
X75885Y60600D02*
D03*
X81596D02*
D03*
X78740Y30709D02*
D03*
Y28268D02*
D03*
X43110Y36600D02*
D03*
X40354Y108000D02*
D03*
X33000Y113400D02*
D03*
M02*
