M48
;Layer_Color=9474304
;FILE_FORMAT=2:5
INCH,LZ
;TYPE=PLATED
T1F00S00C0.01181
T3F00S00C0.03543
;TYPE=NON_PLATED
T4F00S00C0.02559
%
T01
X00066Y00312
X0055118Y0021654
Y0017717
X00684Y0011811
X0064283Y0007596
X0074803Y0029528
X007874
X0082677
X0088583Y0023622
X00942Y0007579
X009252Y0035433
X00912Y0048
X008848Y00552
X009148Y00624
Y00696
X00996Y006456
X0098425Y0061024
Y0045276
X0097619Y00852
Y0096
X0096457Y0104331
X01002Y01092
X00906Y0111
X009Y0093
X0096Y012495
X01044Y01236
X0108Y01446
X0093601Y01434
X00912Y01602
X0098425Y0167323
X0108Y01602
X0087
X00768
X00798Y0153
X0081Y01488
X00738Y0153
X00702Y0153437
X00642Y01536
X00564Y0153
X0052153Y01572
X00474Y01554
X00432Y0159
X0038752Y01572
X0027
X00198Y01554
X00246Y01284
X00288
X00312Y01308
X00342Y0128924
Y0132887
X003Y0124016
Y0117126
X00234Y0117
X0028484Y01104
X0033Y01134
X0040354Y0108
X00444Y01032
X00438Y00954
X00522
X00546Y00978
X00534Y00882
X005958Y0083059
X00552Y0077659
X0045276Y00732
X00396Y0063
X00486Y0054
X00432Y00474
X004311Y00366
X0036417Y0036
X00318Y0040617
X0023819Y00366
X00186Y00402
X00258Y00474
X00198Y00624
X00084
X0006Y00582
X00312Y00792
X00324Y0099
X0024Y00942
X00174Y01098
X00156Y0123129
X0055905Y0123622
Y0118898
X006063
X0065354
X0070079
Y0123622
X0065354
X006063
Y0128347
X0055905
Y0133071
X006063
X0065354
Y0128347
X0070079
Y0133071
X00798Y0132874
X0072063Y01434
X0063989
X0058071
X00462Y01386
Y01122
X0054134Y01086
X0067913
X0075787
X00822Y0108
X0069882Y0093012
X00744Y00858
X00852Y0078
X0082677Y0066929
X0080709Y0064961
X0074803Y0066929
X0070866
X0066Y00624
X0059055Y0061024
X0069Y00552
X00666Y0048
X0075197Y0047244
Y0043701
X007874
X0082284
Y0047244
X007874
Y0050787
X0082284
X0075197
X00702Y0039
X0064961Y0035433
X00504Y00402
X008728Y0039
X0065616Y0072403
X0061748Y0170012
X00594Y01686
X0075Y01692
T03
X0120079Y0005906
Y0015905
Y0025905
Y0035906
Y0045906
Y0055905
Y0065905
Y0075906
Y0085905
Y0095906
Y0105905
Y0115905
Y0125906
Y0135906
Y0145905
Y0155905
Y0165905
X0107992Y0176102
Y0186102
X0097992
Y0176102
X0087992
Y0186102
X0077992
Y0176102
X0067992
Y0186102
X0057992
Y0176102
X0047992
Y0186102
X0037992
Y0176102
X0027992
Y0186102
X0017992
Y0176102
X0005906Y0165905
Y0155905
Y0145905
Y0135906
Y0125906
Y0115905
Y0105905
Y0095906
Y0085905
Y0075906
T04
X0022087Y0025827
X0044842
M30
