G04*
G04 #@! TF.GenerationSoftware,Altium Limited,Altium Designer,20.0.11 (256)*
G04*
G04 Layer_Color=16711935*
%FSLAX25Y25*%
%MOIN*%
G70*
G01*
G75*
%ADD13C,0.00591*%
%ADD103C,0.00394*%
%ADD104C,0.00984*%
D13*
X287606Y236929D02*
Y231025D01*
X288843Y236929D02*
Y231025D01*
Y236929D02*
X291093Y231025D01*
X293342Y236929D02*
X291093Y231025D01*
X293342Y236929D02*
Y231025D01*
X295029Y233837D02*
X297559D01*
X298403Y234118D01*
X298684Y234399D01*
X298965Y234961D01*
Y235805D01*
X298684Y236367D01*
X298403Y236648D01*
X297559Y236929D01*
X295029D01*
Y231025D01*
X303941Y236929D02*
X300286D01*
Y231025D01*
X303941D01*
X300286Y234118D02*
X302536D01*
X304925Y236929D02*
Y231025D01*
Y236929D02*
X306893D01*
X307737Y236648D01*
X308299Y236086D01*
X308580Y235524D01*
X308862Y234680D01*
Y233274D01*
X308580Y232431D01*
X308299Y231869D01*
X307737Y231306D01*
X306893Y231025D01*
X304925D01*
X314682D02*
X312432Y236929D01*
X310183Y231025D01*
X311027Y232993D02*
X313838D01*
X316059Y236929D02*
Y231025D01*
Y236929D02*
X319995Y231025D01*
Y236929D02*
Y231025D01*
X325843Y235524D02*
X325562Y236086D01*
X325000Y236648D01*
X324438Y236929D01*
X323313D01*
X322751Y236648D01*
X322188Y236086D01*
X321907Y235524D01*
X321626Y234680D01*
Y233274D01*
X321907Y232431D01*
X322188Y231869D01*
X322751Y231306D01*
X323313Y231025D01*
X324438D01*
X325000Y231306D01*
X325562Y231869D01*
X325843Y232431D01*
X331157Y236929D02*
X327502D01*
Y231025D01*
X331157D01*
X327502Y234118D02*
X329751D01*
X338748Y236929D02*
Y231025D01*
X336780Y236929D02*
X340716D01*
X343106D02*
X342544Y236648D01*
X341982Y236086D01*
X341700Y235524D01*
X341419Y234680D01*
Y233274D01*
X341700Y232431D01*
X341982Y231869D01*
X342544Y231306D01*
X343106Y231025D01*
X344231D01*
X344793Y231306D01*
X345355Y231869D01*
X345637Y232431D01*
X345918Y233274D01*
Y234680D01*
X345637Y235524D01*
X345355Y236086D01*
X344793Y236648D01*
X344231Y236929D01*
X343106D01*
X347295D02*
Y231025D01*
X350669D01*
X354971Y236929D02*
X351316D01*
Y231025D01*
X354971D01*
X351316Y234118D02*
X353565D01*
X355955Y236929D02*
Y231025D01*
Y236929D02*
X358485D01*
X359329Y236648D01*
X359610Y236367D01*
X359891Y235805D01*
Y235243D01*
X359610Y234680D01*
X359329Y234399D01*
X358485Y234118D01*
X355955D01*
X357923D02*
X359891Y231025D01*
X365711D02*
X363462Y236929D01*
X361213Y231025D01*
X362056Y232993D02*
X364868D01*
X367089Y236929D02*
Y231025D01*
Y236929D02*
X371025Y231025D01*
Y236929D02*
Y231025D01*
X376873Y235524D02*
X376592Y236086D01*
X376029Y236648D01*
X375467Y236929D01*
X374342D01*
X373780Y236648D01*
X373218Y236086D01*
X372937Y235524D01*
X372656Y234680D01*
Y233274D01*
X372937Y232431D01*
X373218Y231869D01*
X373780Y231306D01*
X374342Y231025D01*
X375467D01*
X376029Y231306D01*
X376592Y231869D01*
X376873Y232431D01*
X382187Y236929D02*
X378532D01*
Y231025D01*
X382187D01*
X378532Y234118D02*
X380781D01*
X387810Y236929D02*
Y231025D01*
X392983Y236086D02*
X392421Y236648D01*
X391577Y236929D01*
X390453D01*
X389609Y236648D01*
X389047Y236086D01*
Y235524D01*
X389328Y234961D01*
X389609Y234680D01*
X390172Y234399D01*
X391858Y233837D01*
X392421Y233556D01*
X392702Y233274D01*
X392983Y232712D01*
Y231869D01*
X392421Y231306D01*
X391577Y231025D01*
X390453D01*
X389609Y231306D01*
X389047Y231869D01*
X398943Y235805D02*
X399506Y236086D01*
X400349Y236929D01*
Y231025D01*
X404960Y236929D02*
X404117Y236648D01*
X403554Y235805D01*
X403273Y234399D01*
Y233556D01*
X403554Y232150D01*
X404117Y231306D01*
X404960Y231025D01*
X405522D01*
X406366Y231306D01*
X406928Y232150D01*
X407209Y233556D01*
Y234399D01*
X406928Y235805D01*
X406366Y236648D01*
X405522Y236929D01*
X404960D01*
X413592D02*
X408531Y231025D01*
X409937Y236929D02*
X410499Y236367D01*
Y235805D01*
X410218Y235243D01*
X409656Y234961D01*
X409093D01*
X408531Y235524D01*
Y236086D01*
X408812Y236648D01*
X409374Y236929D01*
X409937D01*
X410499Y236648D01*
X411342Y236367D01*
X412186D01*
X413029Y236648D01*
X413592Y236929D01*
X412467Y232993D02*
X411905Y232712D01*
X411624Y232150D01*
Y231588D01*
X412186Y231025D01*
X412748D01*
X413310Y231306D01*
X413592Y231869D01*
Y232431D01*
X413029Y232993D01*
X412467D01*
X499923Y187717D02*
X499642Y186874D01*
X499079Y186311D01*
X498236Y186030D01*
X497955D01*
X497111Y186311D01*
X496549Y186874D01*
X496268Y187717D01*
Y187998D01*
X496549Y188842D01*
X497111Y189404D01*
X497955Y189685D01*
X498236D01*
X499079Y189404D01*
X499642Y188842D01*
X499923Y187717D01*
Y186311D01*
X499642Y184906D01*
X499079Y184062D01*
X498236Y183781D01*
X497674D01*
X496830Y184062D01*
X496549Y184625D01*
X503212Y189685D02*
X502369Y189404D01*
X501806Y188561D01*
X501525Y187155D01*
Y186311D01*
X501806Y184906D01*
X502369Y184062D01*
X503212Y183781D01*
X503775D01*
X504618Y184062D01*
X505180Y184906D01*
X505462Y186311D01*
Y187155D01*
X505180Y188561D01*
X504618Y189404D01*
X503775Y189685D01*
X503212D01*
X498236Y206558D02*
X497674Y205996D01*
X497111Y205152D01*
X496549Y204028D01*
X496268Y202622D01*
Y201497D01*
X496549Y200091D01*
X497111Y198967D01*
X497674Y198123D01*
X498236Y197561D01*
X497674Y205996D02*
X497111Y204871D01*
X496830Y204028D01*
X496549Y202622D01*
Y201497D01*
X496830Y200091D01*
X497111Y199248D01*
X497674Y198123D01*
X501047Y205433D02*
X500485Y205152D01*
X499923Y204590D01*
X499642Y204028D01*
X499360Y203184D01*
Y201778D01*
X499642Y200935D01*
X499923Y200373D01*
X500485Y199810D01*
X501047Y199529D01*
X502172D01*
X502734Y199810D01*
X503297Y200373D01*
X503578Y200935D01*
X503859Y201778D01*
Y203184D01*
X503578Y204028D01*
X503297Y204590D01*
X502734Y205152D01*
X502172Y205433D01*
X501047D01*
X505236D02*
Y199529D01*
X509173Y205433D02*
Y199529D01*
X505236Y202622D02*
X509173D01*
X510803Y205433D02*
Y199529D01*
Y205433D02*
X513053Y199529D01*
X515302Y205433D02*
X513053Y199529D01*
X515302Y205433D02*
Y199529D01*
X520925Y204590D02*
X520363Y205152D01*
X519519Y205433D01*
X518395D01*
X517551Y205152D01*
X516989Y204590D01*
Y204028D01*
X517270Y203465D01*
X517551Y203184D01*
X518113Y202903D01*
X519800Y202341D01*
X520363Y202060D01*
X520644Y201778D01*
X520925Y201216D01*
Y200373D01*
X520363Y199810D01*
X519519Y199529D01*
X518395D01*
X517551Y199810D01*
X516989Y200373D01*
X522246Y206558D02*
X522809Y205996D01*
X523371Y205152D01*
X523933Y204028D01*
X524215Y202622D01*
Y201497D01*
X523933Y200091D01*
X523371Y198967D01*
X522809Y198123D01*
X522246Y197561D01*
X522809Y205996D02*
X523371Y204871D01*
X523652Y204028D01*
X523933Y202622D01*
Y201497D01*
X523652Y200091D01*
X523371Y199248D01*
X522809Y198123D01*
X436649Y189685D02*
X433838D01*
X433557Y187155D01*
X433838Y187436D01*
X434681Y187717D01*
X435525D01*
X436368Y187436D01*
X436931Y186874D01*
X437212Y186030D01*
Y185468D01*
X436931Y184625D01*
X436368Y184062D01*
X435525Y183781D01*
X434681D01*
X433838Y184062D01*
X433557Y184343D01*
X433276Y184906D01*
X438533Y187717D02*
Y183781D01*
Y186593D02*
X439377Y187436D01*
X439939Y187717D01*
X440782D01*
X441345Y187436D01*
X441626Y186593D01*
Y183781D01*
Y186593D02*
X442469Y187436D01*
X443032Y187717D01*
X443875D01*
X444437Y187436D01*
X444719Y186593D01*
Y183781D01*
X447136Y189685D02*
X447418Y189404D01*
X447699Y189685D01*
X447418Y189966D01*
X447136Y189685D01*
X447418Y187717D02*
Y183781D01*
X448739Y189685D02*
Y183781D01*
X383500Y189685D02*
X382657Y189404D01*
X382376Y188842D01*
Y188280D01*
X382657Y187717D01*
X383219Y187436D01*
X384344Y187155D01*
X385187Y186874D01*
X385750Y186311D01*
X386031Y185749D01*
Y184906D01*
X385750Y184343D01*
X385468Y184062D01*
X384625Y183781D01*
X383500D01*
X382657Y184062D01*
X382376Y184343D01*
X382095Y184906D01*
Y185749D01*
X382376Y186311D01*
X382938Y186874D01*
X383781Y187155D01*
X384906Y187436D01*
X385468Y187717D01*
X385750Y188280D01*
Y188842D01*
X385468Y189404D01*
X384625Y189685D01*
X383500D01*
X387633Y184343D02*
X387352Y184062D01*
X387633Y183781D01*
X387914Y184062D01*
X387633Y184343D01*
X389208Y188561D02*
X389770Y188842D01*
X390614Y189685D01*
Y183781D01*
X393537Y187717D02*
Y183781D01*
Y186593D02*
X394381Y187436D01*
X394943Y187717D01*
X395787D01*
X396349Y187436D01*
X396630Y186593D01*
Y183781D01*
Y186593D02*
X397474Y187436D01*
X398036Y187717D01*
X398879D01*
X399442Y187436D01*
X399723Y186593D01*
Y183781D01*
X402141Y189685D02*
X402422Y189404D01*
X402703Y189685D01*
X402422Y189966D01*
X402141Y189685D01*
X402422Y187717D02*
Y183781D01*
X403743Y189685D02*
Y183781D01*
X313196Y217244D02*
Y211340D01*
X311228Y217244D02*
X315164D01*
X315867D02*
X318117Y214433D01*
Y211340D01*
X320366Y217244D02*
X318117Y214433D01*
X321125Y214152D02*
X323655D01*
X324499Y214433D01*
X324780Y214714D01*
X325061Y215276D01*
Y216120D01*
X324780Y216682D01*
X324499Y216963D01*
X323655Y217244D01*
X321125D01*
Y211340D01*
X330038Y217244D02*
X326383D01*
Y211340D01*
X330038D01*
X326383Y214433D02*
X328632D01*
X437212Y204590D02*
X436649Y205152D01*
X435806Y205433D01*
X434681D01*
X433838Y205152D01*
X433276Y204590D01*
Y204028D01*
X433557Y203465D01*
X433838Y203184D01*
X434400Y202903D01*
X436087Y202341D01*
X436649Y202060D01*
X436931Y201778D01*
X437212Y201216D01*
Y200373D01*
X436649Y199810D01*
X435806Y199529D01*
X434681D01*
X433838Y199810D01*
X433276Y200373D01*
X442188Y205433D02*
X438533D01*
Y199529D01*
X442188D01*
X438533Y202622D02*
X440782D01*
X443172Y202341D02*
X445703D01*
X446546Y202622D01*
X446827Y202903D01*
X447108Y203465D01*
Y204309D01*
X446827Y204871D01*
X446546Y205152D01*
X445703Y205433D01*
X443172D01*
Y199529D01*
X452928D02*
X450679Y205433D01*
X448430Y199529D01*
X449273Y201497D02*
X452085D01*
X454306Y205433D02*
Y199529D01*
Y205433D02*
X456836D01*
X457680Y205152D01*
X457961Y204871D01*
X458242Y204309D01*
Y203747D01*
X457961Y203184D01*
X457680Y202903D01*
X456836Y202622D01*
X454306D01*
X456274D02*
X458242Y199529D01*
X464062D02*
X461813Y205433D01*
X459563Y199529D01*
X460407Y201497D02*
X463218D01*
X467408Y205433D02*
Y199529D01*
X465440Y205433D02*
X469376D01*
X470079D02*
Y199529D01*
X473003Y205433D02*
X472440Y205152D01*
X471878Y204590D01*
X471597Y204028D01*
X471316Y203184D01*
Y201778D01*
X471597Y200935D01*
X471878Y200373D01*
X472440Y199810D01*
X473003Y199529D01*
X474127D01*
X474690Y199810D01*
X475252Y200373D01*
X475533Y200935D01*
X475814Y201778D01*
Y203184D01*
X475533Y204028D01*
X475252Y204590D01*
X474690Y205152D01*
X474127Y205433D01*
X473003D01*
X477192D02*
Y199529D01*
Y205433D02*
X481128Y199529D01*
Y205433D02*
Y199529D01*
X435244Y217244D02*
Y211340D01*
X433276Y217244D02*
X437212D01*
X437915D02*
Y211340D01*
Y217244D02*
X440445D01*
X441289Y216963D01*
X441570Y216682D01*
X441851Y216120D01*
Y215558D01*
X441570Y214995D01*
X441289Y214714D01*
X440445Y214433D01*
X437915D01*
X439883D02*
X441851Y211340D01*
X447671D02*
X445422Y217244D01*
X443172Y211340D01*
X444016Y213308D02*
X446827D01*
X453266Y215839D02*
X452985Y216401D01*
X452422Y216963D01*
X451860Y217244D01*
X450735D01*
X450173Y216963D01*
X449611Y216401D01*
X449330Y215839D01*
X449048Y214995D01*
Y213589D01*
X449330Y212746D01*
X449611Y212184D01*
X450173Y211621D01*
X450735Y211340D01*
X451860D01*
X452422Y211621D01*
X452985Y212184D01*
X453266Y212746D01*
X458579Y217244D02*
X454924D01*
Y211340D01*
X458579D01*
X454924Y214433D02*
X457174D01*
X384063Y217244D02*
Y211340D01*
X382095Y217244D02*
X386031D01*
X386734D02*
Y211340D01*
Y217244D02*
X389264D01*
X390107Y216963D01*
X390388Y216682D01*
X390670Y216120D01*
Y215558D01*
X390388Y214995D01*
X390107Y214714D01*
X389264Y214433D01*
X386734D01*
X388702D02*
X390670Y211340D01*
X396490D02*
X394240Y217244D01*
X391991Y211340D01*
X392835Y213308D02*
X395646D01*
X402085Y215839D02*
X401803Y216401D01*
X401241Y216963D01*
X400679Y217244D01*
X399554D01*
X398992Y216963D01*
X398430Y216401D01*
X398148Y215839D01*
X397867Y214995D01*
Y213589D01*
X398148Y212746D01*
X398430Y212184D01*
X398992Y211621D01*
X399554Y211340D01*
X400679D01*
X401241Y211621D01*
X401803Y212184D01*
X402085Y212746D01*
X407398Y217244D02*
X403743D01*
Y211340D01*
X407398D01*
X403743Y214433D02*
X405993D01*
X382095Y205433D02*
X383500Y199529D01*
X384906Y205433D02*
X383500Y199529D01*
X384906Y205433D02*
X386312Y199529D01*
X387718Y205433D02*
X386312Y199529D01*
X388898Y205433D02*
Y199529D01*
X390136Y205433D02*
Y199529D01*
Y205433D02*
X392104D01*
X392947Y205152D01*
X393509Y204590D01*
X393791Y204028D01*
X394072Y203184D01*
Y201778D01*
X393791Y200935D01*
X393509Y200373D01*
X392947Y199810D01*
X392104Y199529D01*
X390136D01*
X397361Y205433D02*
Y199529D01*
X395393Y205433D02*
X399329D01*
X400032D02*
Y199529D01*
X403968Y205433D02*
Y199529D01*
X400032Y202622D02*
X403968D01*
X496268Y217244D02*
Y211340D01*
X497505Y217244D02*
Y211340D01*
Y217244D02*
X499754Y211340D01*
X502003Y217244D02*
X499754Y211340D01*
X502003Y217244D02*
Y211340D01*
X503690Y214152D02*
X506221D01*
X507064Y214433D01*
X507345Y214714D01*
X507626Y215276D01*
Y216120D01*
X507345Y216682D01*
X507064Y216963D01*
X506221Y217244D01*
X503690D01*
Y211340D01*
X512603Y217244D02*
X508948D01*
Y211340D01*
X512603D01*
X508948Y214433D02*
X511197D01*
X513587Y217244D02*
Y211340D01*
Y217244D02*
X515555D01*
X516398Y216963D01*
X516961Y216401D01*
X517242Y215839D01*
X517523Y214995D01*
Y213589D01*
X517242Y212746D01*
X516961Y212184D01*
X516398Y211621D01*
X515555Y211340D01*
X513587D01*
X523343D02*
X521094Y217244D01*
X518844Y211340D01*
X519688Y213308D02*
X522499D01*
X524721Y217244D02*
Y211340D01*
Y217244D02*
X528657Y211340D01*
Y217244D02*
Y211340D01*
X534505Y215839D02*
X534224Y216401D01*
X533661Y216963D01*
X533099Y217244D01*
X531974D01*
X531412Y216963D01*
X530850Y216401D01*
X530569Y215839D01*
X530287Y214995D01*
Y213589D01*
X530569Y212746D01*
X530850Y212184D01*
X531412Y211621D01*
X531974Y211340D01*
X533099D01*
X533661Y211621D01*
X534224Y212184D01*
X534505Y212746D01*
X539819Y217244D02*
X536164D01*
Y211340D01*
X539819D01*
X536164Y214433D02*
X538413D01*
X228551Y205433D02*
Y199529D01*
X231925D01*
X237070D02*
X234821Y205433D01*
X232572Y199529D01*
X233415Y201497D02*
X236227D01*
X238448Y205433D02*
X240697Y202622D01*
Y199529D01*
X242946Y205433D02*
X240697Y202622D01*
X247360Y205433D02*
X243705D01*
Y199529D01*
X247360D01*
X243705Y202622D02*
X245955D01*
X248344Y205433D02*
Y199529D01*
Y205433D02*
X250875D01*
X251718Y205152D01*
X251999Y204871D01*
X252281Y204309D01*
Y203747D01*
X251999Y203184D01*
X251718Y202903D01*
X250875Y202622D01*
X248344D01*
X250312D02*
X252281Y199529D01*
X255570Y206558D02*
X255008Y205996D01*
X254446Y205152D01*
X253883Y204028D01*
X253602Y202622D01*
Y201497D01*
X253883Y200091D01*
X254446Y198967D01*
X255008Y198123D01*
X255570Y197561D01*
X255008Y205996D02*
X254446Y204871D01*
X254164Y204028D01*
X253883Y202622D01*
Y201497D01*
X254164Y200091D01*
X254446Y199248D01*
X255008Y198123D01*
X260631Y204590D02*
X260069Y205152D01*
X259225Y205433D01*
X258101D01*
X257257Y205152D01*
X256695Y204590D01*
Y204028D01*
X256976Y203465D01*
X257257Y203184D01*
X257819Y202903D01*
X259506Y202341D01*
X260069Y202060D01*
X260350Y201778D01*
X260631Y201216D01*
Y200373D01*
X260069Y199810D01*
X259225Y199529D01*
X258101D01*
X257257Y199810D01*
X256695Y200373D01*
X261952Y206558D02*
X262515Y205996D01*
X263077Y205152D01*
X263639Y204028D01*
X263920Y202622D01*
Y201497D01*
X263639Y200091D01*
X263077Y198967D01*
X262515Y198123D01*
X261952Y197561D01*
X262515Y205996D02*
X263077Y204871D01*
X263358Y204028D01*
X263639Y202622D01*
Y201497D01*
X263358Y200091D01*
X263077Y199248D01*
X262515Y198123D01*
X311228Y189685D02*
Y183781D01*
Y189685D02*
X313196D01*
X314040Y189404D01*
X314602Y188842D01*
X314883Y188280D01*
X315164Y187436D01*
Y186030D01*
X314883Y185187D01*
X314602Y184625D01*
X314040Y184062D01*
X313196Y183781D01*
X311228D01*
X316486Y189685D02*
Y183781D01*
X317723Y189685D02*
Y183781D01*
Y189685D02*
X321378D01*
X317723Y186874D02*
X319972D01*
X322053Y189685D02*
Y183781D01*
Y189685D02*
X325708D01*
X322053Y186874D02*
X324302D01*
X330038Y189685D02*
X326383D01*
Y183781D01*
X330038D01*
X326383Y186874D02*
X328632D01*
X331022Y189685D02*
Y183781D01*
Y189685D02*
X333552D01*
X334396Y189404D01*
X334677Y189123D01*
X334958Y188561D01*
Y187998D01*
X334677Y187436D01*
X334396Y187155D01*
X333552Y186874D01*
X331022D01*
X332990D02*
X334958Y183781D01*
X339934Y189685D02*
X336279D01*
Y183781D01*
X339934D01*
X336279Y186874D02*
X338528D01*
X340918Y189685D02*
Y183781D01*
Y189685D02*
X344854Y183781D01*
Y189685D02*
Y183781D01*
X348453Y189685D02*
Y183781D01*
X346485Y189685D02*
X350421D01*
X351124D02*
Y183781D01*
X356860D02*
X354610Y189685D01*
X352361Y183781D01*
X353205Y185749D02*
X356016D01*
X358237Y189685D02*
Y183781D01*
X361611D01*
X228551Y217244D02*
Y211340D01*
Y217244D02*
X231082D01*
X231925Y216963D01*
X232206Y216682D01*
X232487Y216120D01*
Y215558D01*
X232206Y214995D01*
X231925Y214714D01*
X231082Y214433D01*
X228551D01*
X230519D02*
X232487Y211340D01*
X237464Y217244D02*
X233809D01*
Y211340D01*
X237464D01*
X233809Y214433D02*
X236058D01*
X238448Y217244D02*
Y211340D01*
Y217244D02*
X242103D01*
X238448Y214433D02*
X240697D01*
X247417Y214152D02*
X249947D01*
X250791Y214433D01*
X251072Y214714D01*
X251353Y215276D01*
Y216120D01*
X251072Y216682D01*
X250791Y216963D01*
X249947Y217244D01*
X247417D01*
Y211340D01*
X252674Y217244D02*
Y211340D01*
X256048D01*
X261193D02*
X258944Y217244D01*
X256695Y211340D01*
X257538Y213308D02*
X260350D01*
X262571Y217244D02*
Y211340D01*
Y217244D02*
X266507Y211340D01*
Y217244D02*
Y211340D01*
X271793Y217244D02*
X268138D01*
Y211340D01*
X271793D01*
X268138Y214433D02*
X270387D01*
X149810Y216401D02*
X149248Y216963D01*
X148404Y217244D01*
X147280D01*
X146436Y216963D01*
X145874Y216401D01*
Y215839D01*
X146155Y215276D01*
X146436Y214995D01*
X146999Y214714D01*
X148686Y214152D01*
X149248Y213871D01*
X149529Y213589D01*
X149810Y213027D01*
Y212184D01*
X149248Y211621D01*
X148404Y211340D01*
X147280D01*
X146436Y211621D01*
X145874Y212184D01*
X151132Y217244D02*
Y211340D01*
X156586Y215839D02*
X156305Y216401D01*
X155743Y216963D01*
X155180Y217244D01*
X154056D01*
X153493Y216963D01*
X152931Y216401D01*
X152650Y215839D01*
X152369Y214995D01*
Y213589D01*
X152650Y212746D01*
X152931Y212184D01*
X153493Y211621D01*
X154056Y211340D01*
X155180D01*
X155743Y211621D01*
X156305Y212184D01*
X156586Y212746D01*
Y213589D01*
X155180D02*
X156586D01*
X157936Y217244D02*
Y211340D01*
Y217244D02*
X161872Y211340D01*
Y217244D02*
Y211340D01*
X168001D02*
X165752Y217244D01*
X163502Y211340D01*
X164346Y213308D02*
X167157D01*
X169378Y217244D02*
Y211340D01*
X172752D01*
X178038Y217244D02*
Y211340D01*
X181412D01*
X186557D02*
X184308Y217244D01*
X182059Y211340D01*
X182902Y213308D02*
X185714D01*
X187935Y217244D02*
X190184Y214433D01*
Y211340D01*
X192433Y217244D02*
X190184Y214433D01*
X196847Y217244D02*
X193192D01*
Y211340D01*
X196847D01*
X193192Y214433D02*
X195442D01*
X197831Y217244D02*
Y211340D01*
Y217244D02*
X200362D01*
X201205Y216963D01*
X201486Y216682D01*
X201767Y216120D01*
Y215558D01*
X201486Y214995D01*
X201205Y214714D01*
X200362Y214433D01*
X197831D01*
X199800D02*
X201767Y211340D01*
X232769Y188280D02*
X232487Y188842D01*
X231925Y189404D01*
X231363Y189685D01*
X230238D01*
X229676Y189404D01*
X229114Y188842D01*
X228832Y188280D01*
X228551Y187436D01*
Y186030D01*
X228832Y185187D01*
X229114Y184625D01*
X229676Y184062D01*
X230238Y183781D01*
X231363D01*
X231925Y184062D01*
X232487Y184625D01*
X232769Y185187D01*
Y186030D01*
X231363D02*
X232769D01*
X234118Y187717D02*
Y183781D01*
Y186030D02*
X234399Y186874D01*
X234962Y187436D01*
X235524Y187717D01*
X236367D01*
X238307D02*
X237745Y187436D01*
X237183Y186874D01*
X236901Y186030D01*
Y185468D01*
X237183Y184625D01*
X237745Y184062D01*
X238307Y183781D01*
X239151D01*
X239713Y184062D01*
X240275Y184625D01*
X240557Y185468D01*
Y186030D01*
X240275Y186874D01*
X239713Y187436D01*
X239151Y187717D01*
X238307D01*
X241850D02*
Y184906D01*
X242131Y184062D01*
X242693Y183781D01*
X243537D01*
X244099Y184062D01*
X244942Y184906D01*
Y187717D02*
Y183781D01*
X246489Y187717D02*
Y183781D01*
Y186593D02*
X247332Y187436D01*
X247895Y187717D01*
X248738D01*
X249300Y187436D01*
X249582Y186593D01*
Y183781D01*
X254502Y189685D02*
Y183781D01*
Y186874D02*
X253939Y187436D01*
X253377Y187717D01*
X252534D01*
X251971Y187436D01*
X251409Y186874D01*
X251128Y186030D01*
Y185468D01*
X251409Y184625D01*
X251971Y184062D01*
X252534Y183781D01*
X253377D01*
X253939Y184062D01*
X254502Y184625D01*
X260715Y189685D02*
Y183781D01*
X264089D01*
X268110Y187717D02*
Y183781D01*
Y186874D02*
X267547Y187436D01*
X266985Y187717D01*
X266142D01*
X265579Y187436D01*
X265017Y186874D01*
X264736Y186030D01*
Y185468D01*
X265017Y184625D01*
X265579Y184062D01*
X266142Y183781D01*
X266985D01*
X267547Y184062D01*
X268110Y184625D01*
X269965Y187717D02*
X271652Y183781D01*
X273339Y187717D02*
X271652Y183781D01*
X271090Y182657D01*
X270528Y182094D01*
X269965Y181813D01*
X269684D01*
X274323Y186030D02*
X277697D01*
Y186593D01*
X277416Y187155D01*
X277135Y187436D01*
X276572Y187717D01*
X275729D01*
X275167Y187436D01*
X274604Y186874D01*
X274323Y186030D01*
Y185468D01*
X274604Y184625D01*
X275167Y184062D01*
X275729Y183781D01*
X276572D01*
X277135Y184062D01*
X277697Y184625D01*
X278962Y187717D02*
Y183781D01*
Y186030D02*
X279243Y186874D01*
X279806Y187436D01*
X280368Y187717D01*
X281211D01*
X147842Y189685D02*
Y183781D01*
X145874Y189685D02*
X149810D01*
X151919Y187717D02*
X151356Y187436D01*
X150794Y186874D01*
X150513Y186030D01*
Y185468D01*
X150794Y184625D01*
X151356Y184062D01*
X151919Y183781D01*
X152762D01*
X153325Y184062D01*
X153887Y184625D01*
X154168Y185468D01*
Y186030D01*
X153887Y186874D01*
X153325Y187436D01*
X152762Y187717D01*
X151919D01*
X155461D02*
Y181813D01*
Y186874D02*
X156024Y187436D01*
X156586Y187717D01*
X157430D01*
X157992Y187436D01*
X158554Y186874D01*
X158835Y186030D01*
Y185468D01*
X158554Y184625D01*
X157992Y184062D01*
X157430Y183781D01*
X156586D01*
X156024Y184062D01*
X155461Y184625D01*
X164740Y189685D02*
Y183781D01*
X168113D01*
X172134Y187717D02*
Y183781D01*
Y186874D02*
X171572Y187436D01*
X171009Y187717D01*
X170166D01*
X169604Y187436D01*
X169041Y186874D01*
X168760Y186030D01*
Y185468D01*
X169041Y184625D01*
X169604Y184062D01*
X170166Y183781D01*
X171009D01*
X171572Y184062D01*
X172134Y184625D01*
X173989Y187717D02*
X175676Y183781D01*
X177363Y187717D02*
X175676Y183781D01*
X175114Y182657D01*
X174552Y182094D01*
X173989Y181813D01*
X173708D01*
X178347Y186030D02*
X181721D01*
Y186593D01*
X181440Y187155D01*
X181159Y187436D01*
X180597Y187717D01*
X179753D01*
X179191Y187436D01*
X178629Y186874D01*
X178347Y186030D01*
Y185468D01*
X178629Y184625D01*
X179191Y184062D01*
X179753Y183781D01*
X180597D01*
X181159Y184062D01*
X181721Y184625D01*
X182986Y187717D02*
Y183781D01*
Y186030D02*
X183268Y186874D01*
X183830Y187436D01*
X184392Y187717D01*
X185236D01*
X145874Y142441D02*
Y136537D01*
Y142441D02*
X148404D01*
X149248Y142160D01*
X149529Y141879D01*
X149810Y141317D01*
Y140754D01*
X149529Y140192D01*
X149248Y139911D01*
X148404Y139630D01*
X145874D02*
X148404D01*
X149248Y139349D01*
X149529Y139067D01*
X149810Y138505D01*
Y137662D01*
X149529Y137099D01*
X149248Y136818D01*
X148404Y136537D01*
X145874D01*
X151132Y140473D02*
Y137662D01*
X151413Y136818D01*
X151975Y136537D01*
X152819D01*
X153381Y136818D01*
X154224Y137662D01*
Y140473D02*
Y136537D01*
X156614Y142441D02*
Y137662D01*
X156895Y136818D01*
X157458Y136537D01*
X158020D01*
X155771Y140473D02*
X157739D01*
X159707Y142441D02*
Y137662D01*
X159988Y136818D01*
X160550Y136537D01*
X161113D01*
X158863Y140473D02*
X160831D01*
X163362D02*
X162800Y140192D01*
X162237Y139630D01*
X161956Y138786D01*
Y138224D01*
X162237Y137381D01*
X162800Y136818D01*
X163362Y136537D01*
X164205D01*
X164768Y136818D01*
X165330Y137381D01*
X165611Y138224D01*
Y138786D01*
X165330Y139630D01*
X164768Y140192D01*
X164205Y140473D01*
X163362D01*
X166904D02*
Y136537D01*
Y139349D02*
X167748Y140192D01*
X168310Y140473D01*
X169154D01*
X169716Y140192D01*
X169997Y139349D01*
Y136537D01*
Y139349D02*
X170841Y140192D01*
X171403Y140473D01*
X172246D01*
X172809Y140192D01*
X173090Y139349D01*
Y136537D01*
X179584Y142441D02*
Y136537D01*
X182958D01*
X186979Y140473D02*
Y136537D01*
Y139630D02*
X186416Y140192D01*
X185854Y140473D01*
X185011D01*
X184448Y140192D01*
X183886Y139630D01*
X183605Y138786D01*
Y138224D01*
X183886Y137381D01*
X184448Y136818D01*
X185011Y136537D01*
X185854D01*
X186416Y136818D01*
X186979Y137381D01*
X188834Y140473D02*
X190521Y136537D01*
X192208Y140473D02*
X190521Y136537D01*
X189959Y135412D01*
X189397Y134850D01*
X188834Y134569D01*
X188553D01*
X193192Y138786D02*
X196566D01*
Y139349D01*
X196285Y139911D01*
X196004Y140192D01*
X195442Y140473D01*
X194598D01*
X194036Y140192D01*
X193473Y139630D01*
X193192Y138786D01*
Y138224D01*
X193473Y137381D01*
X194036Y136818D01*
X194598Y136537D01*
X195442D01*
X196004Y136818D01*
X196566Y137381D01*
X197831Y140473D02*
Y136537D01*
Y138786D02*
X198112Y139630D01*
X198675Y140192D01*
X199237Y140473D01*
X200081D01*
X232769Y141035D02*
X232487Y141598D01*
X231925Y142160D01*
X231363Y142441D01*
X230238D01*
X229676Y142160D01*
X229114Y141598D01*
X228832Y141035D01*
X228551Y140192D01*
Y138786D01*
X228832Y137943D01*
X229114Y137381D01*
X229676Y136818D01*
X230238Y136537D01*
X231363D01*
X231925Y136818D01*
X232487Y137381D01*
X232769Y137943D01*
Y138786D01*
X231363D02*
X232769D01*
X234118Y140473D02*
Y136537D01*
Y138786D02*
X234399Y139630D01*
X234962Y140192D01*
X235524Y140473D01*
X236367D01*
X238307D02*
X237745Y140192D01*
X237183Y139630D01*
X236901Y138786D01*
Y138224D01*
X237183Y137381D01*
X237745Y136818D01*
X238307Y136537D01*
X239151D01*
X239713Y136818D01*
X240275Y137381D01*
X240557Y138224D01*
Y138786D01*
X240275Y139630D01*
X239713Y140192D01*
X239151Y140473D01*
X238307D01*
X241850D02*
Y137662D01*
X242131Y136818D01*
X242693Y136537D01*
X243537D01*
X244099Y136818D01*
X244942Y137662D01*
Y140473D02*
Y136537D01*
X246489Y140473D02*
Y136537D01*
Y139349D02*
X247332Y140192D01*
X247895Y140473D01*
X248738D01*
X249300Y140192D01*
X249582Y139349D01*
Y136537D01*
X254502Y142441D02*
Y136537D01*
Y139630D02*
X253939Y140192D01*
X253377Y140473D01*
X252534D01*
X251971Y140192D01*
X251409Y139630D01*
X251128Y138786D01*
Y138224D01*
X251409Y137381D01*
X251971Y136818D01*
X252534Y136537D01*
X253377D01*
X253939Y136818D01*
X254502Y137381D01*
X260715Y142441D02*
Y136537D01*
X264089D01*
X268110Y140473D02*
Y136537D01*
Y139630D02*
X267547Y140192D01*
X266985Y140473D01*
X266142D01*
X265579Y140192D01*
X265017Y139630D01*
X264736Y138786D01*
Y138224D01*
X265017Y137381D01*
X265579Y136818D01*
X266142Y136537D01*
X266985D01*
X267547Y136818D01*
X268110Y137381D01*
X269965Y140473D02*
X271652Y136537D01*
X273339Y140473D02*
X271652Y136537D01*
X271090Y135412D01*
X270528Y134850D01*
X269965Y134569D01*
X269684D01*
X274323Y138786D02*
X277697D01*
Y139349D01*
X277416Y139911D01*
X277135Y140192D01*
X276572Y140473D01*
X275729D01*
X275167Y140192D01*
X274604Y139630D01*
X274323Y138786D01*
Y138224D01*
X274604Y137381D01*
X275167Y136818D01*
X275729Y136537D01*
X276572D01*
X277135Y136818D01*
X277697Y137381D01*
X278962Y140473D02*
Y136537D01*
Y138786D02*
X279243Y139630D01*
X279806Y140192D01*
X280368Y140473D01*
X281211D01*
X315164Y141598D02*
X314602Y142160D01*
X313759Y142441D01*
X312634D01*
X311791Y142160D01*
X311228Y141598D01*
Y141035D01*
X311509Y140473D01*
X311791Y140192D01*
X312353Y139911D01*
X314040Y139349D01*
X314602Y139067D01*
X314883Y138786D01*
X315164Y138224D01*
Y137381D01*
X314602Y136818D01*
X313759Y136537D01*
X312634D01*
X311791Y136818D01*
X311228Y137381D01*
X316486Y142441D02*
Y136537D01*
X317723Y142441D02*
Y136537D01*
Y142441D02*
X321659Y136537D01*
Y142441D02*
Y136537D01*
X327507Y141035D02*
X327226Y141598D01*
X326664Y142160D01*
X326101Y142441D01*
X324977D01*
X324414Y142160D01*
X323852Y141598D01*
X323571Y141035D01*
X323290Y140192D01*
Y138786D01*
X323571Y137943D01*
X323852Y137381D01*
X324414Y136818D01*
X324977Y136537D01*
X326101D01*
X326664Y136818D01*
X327226Y137381D01*
X327507Y137943D01*
Y138786D01*
X326101D02*
X327507D01*
X328857Y142441D02*
Y136537D01*
X332231D01*
X336532Y142441D02*
X332877D01*
Y136537D01*
X336532D01*
X332877Y139630D02*
X335126D01*
X345810Y142441D02*
X342155D01*
Y136537D01*
X345810D01*
X342155Y139630D02*
X344405D01*
X346794Y142441D02*
Y136537D01*
Y142441D02*
X350731Y136537D01*
Y142441D02*
Y136537D01*
X352361Y142441D02*
Y136537D01*
Y142441D02*
X354329D01*
X355173Y142160D01*
X355735Y141598D01*
X356016Y141035D01*
X356297Y140192D01*
Y138786D01*
X356016Y137943D01*
X355735Y137381D01*
X355173Y136818D01*
X354329Y136537D01*
X352361D01*
X361274Y142441D02*
X357619D01*
Y136537D01*
X361274D01*
X357619Y139630D02*
X359868D01*
X362258Y142441D02*
Y136537D01*
Y142441D02*
X364226D01*
X365070Y142160D01*
X365632Y141598D01*
X365913Y141035D01*
X366194Y140192D01*
Y138786D01*
X365913Y137943D01*
X365632Y137381D01*
X365070Y136818D01*
X364226Y136537D01*
X362258D01*
X382095Y141317D02*
X382657Y141598D01*
X383500Y142441D01*
Y136537D01*
X386424Y141317D02*
X386987Y141598D01*
X387830Y142441D01*
Y136537D01*
X391035Y137099D02*
X390754Y136818D01*
X391035Y136537D01*
X391316Y136818D01*
X391035Y137099D01*
X395984Y142441D02*
X393172D01*
X392891Y139911D01*
X393172Y140192D01*
X394015Y140473D01*
X394859D01*
X395702Y140192D01*
X396265Y139630D01*
X396546Y138786D01*
Y138224D01*
X396265Y137381D01*
X395702Y136818D01*
X394859Y136537D01*
X394015D01*
X393172Y136818D01*
X392891Y137099D01*
X392610Y137662D01*
X401241Y142441D02*
X398430D01*
X398148Y139911D01*
X398430Y140192D01*
X399273Y140473D01*
X400116D01*
X400960Y140192D01*
X401522Y139630D01*
X401803Y138786D01*
Y138224D01*
X401522Y137381D01*
X400960Y136818D01*
X400116Y136537D01*
X399273D01*
X398430Y136818D01*
X398148Y137099D01*
X397867Y137662D01*
X403125Y140473D02*
Y136537D01*
Y139349D02*
X403968Y140192D01*
X404531Y140473D01*
X405374D01*
X405936Y140192D01*
X406217Y139349D01*
Y136537D01*
Y139349D02*
X407061Y140192D01*
X407623Y140473D01*
X408467D01*
X409029Y140192D01*
X409310Y139349D01*
Y136537D01*
X411728Y142441D02*
X412009Y142160D01*
X412290Y142441D01*
X412009Y142722D01*
X411728Y142441D01*
X412009Y140473D02*
Y136537D01*
X413331Y142441D02*
Y136537D01*
X433276Y142441D02*
Y136537D01*
Y142441D02*
X437212Y136537D01*
Y142441D02*
Y136537D01*
X443341D02*
X441092Y142441D01*
X438842Y136537D01*
X439686Y138505D02*
X442497D01*
X499642Y142441D02*
X496830D01*
X496549Y139911D01*
X496830Y140192D01*
X497674Y140473D01*
X498517D01*
X499360Y140192D01*
X499923Y139630D01*
X500204Y138786D01*
Y138224D01*
X499923Y137381D01*
X499360Y136818D01*
X498517Y136537D01*
X497674D01*
X496830Y136818D01*
X496549Y137099D01*
X496268Y137662D01*
X503212Y142441D02*
X502369Y142160D01*
X501806Y141317D01*
X501525Y139911D01*
Y139067D01*
X501806Y137662D01*
X502369Y136818D01*
X503212Y136537D01*
X503775D01*
X504618Y136818D01*
X505180Y137662D01*
X505462Y139067D01*
Y139911D01*
X505180Y141317D01*
X504618Y142160D01*
X503775Y142441D01*
X503212D01*
X145874Y173937D02*
Y168033D01*
Y173937D02*
X148404D01*
X149248Y173656D01*
X149529Y173375D01*
X149810Y172813D01*
Y172250D01*
X149529Y171688D01*
X149248Y171407D01*
X148404Y171126D01*
X145874D02*
X148404D01*
X149248Y170845D01*
X149529Y170563D01*
X149810Y170001D01*
Y169158D01*
X149529Y168595D01*
X149248Y168314D01*
X148404Y168033D01*
X145874D01*
X151132Y171969D02*
Y169158D01*
X151413Y168314D01*
X151975Y168033D01*
X152819D01*
X153381Y168314D01*
X154224Y169158D01*
Y171969D02*
Y168033D01*
X156614Y173937D02*
Y169158D01*
X156895Y168314D01*
X157458Y168033D01*
X158020D01*
X155771Y171969D02*
X157739D01*
X159707Y173937D02*
Y169158D01*
X159988Y168314D01*
X160550Y168033D01*
X161113D01*
X158863Y171969D02*
X160831D01*
X163362D02*
X162800Y171688D01*
X162237Y171126D01*
X161956Y170282D01*
Y169720D01*
X162237Y168877D01*
X162800Y168314D01*
X163362Y168033D01*
X164205D01*
X164768Y168314D01*
X165330Y168877D01*
X165611Y169720D01*
Y170282D01*
X165330Y171126D01*
X164768Y171688D01*
X164205Y171969D01*
X163362D01*
X166904D02*
Y168033D01*
Y170845D02*
X167748Y171688D01*
X168310Y171969D01*
X169154D01*
X169716Y171688D01*
X169997Y170845D01*
Y168033D01*
Y170845D02*
X170841Y171688D01*
X171403Y171969D01*
X172246D01*
X172809Y171688D01*
X173090Y170845D01*
Y168033D01*
X179584Y173937D02*
Y168033D01*
X182958D01*
X186979Y171969D02*
Y168033D01*
Y171126D02*
X186416Y171688D01*
X185854Y171969D01*
X185011D01*
X184448Y171688D01*
X183886Y171126D01*
X183605Y170282D01*
Y169720D01*
X183886Y168877D01*
X184448Y168314D01*
X185011Y168033D01*
X185854D01*
X186416Y168314D01*
X186979Y168877D01*
X188834Y171969D02*
X190521Y168033D01*
X192208Y171969D02*
X190521Y168033D01*
X189959Y166908D01*
X189397Y166346D01*
X188834Y166065D01*
X188553D01*
X193192Y170282D02*
X196566D01*
Y170845D01*
X196285Y171407D01*
X196004Y171688D01*
X195442Y171969D01*
X194598D01*
X194036Y171688D01*
X193473Y171126D01*
X193192Y170282D01*
Y169720D01*
X193473Y168877D01*
X194036Y168314D01*
X194598Y168033D01*
X195442D01*
X196004Y168314D01*
X196566Y168877D01*
X197831Y171969D02*
Y168033D01*
Y170282D02*
X198112Y171126D01*
X198675Y171688D01*
X199237Y171969D01*
X200081D01*
X232769Y172531D02*
X232487Y173094D01*
X231925Y173656D01*
X231363Y173937D01*
X230238D01*
X229676Y173656D01*
X229114Y173094D01*
X228832Y172531D01*
X228551Y171688D01*
Y170282D01*
X228832Y169439D01*
X229114Y168877D01*
X229676Y168314D01*
X230238Y168033D01*
X231363D01*
X231925Y168314D01*
X232487Y168877D01*
X232769Y169439D01*
Y170282D01*
X231363D02*
X232769D01*
X234118Y171969D02*
Y168033D01*
Y170282D02*
X234399Y171126D01*
X234962Y171688D01*
X235524Y171969D01*
X236367D01*
X238307D02*
X237745Y171688D01*
X237183Y171126D01*
X236901Y170282D01*
Y169720D01*
X237183Y168877D01*
X237745Y168314D01*
X238307Y168033D01*
X239151D01*
X239713Y168314D01*
X240275Y168877D01*
X240557Y169720D01*
Y170282D01*
X240275Y171126D01*
X239713Y171688D01*
X239151Y171969D01*
X238307D01*
X241850D02*
Y169158D01*
X242131Y168314D01*
X242693Y168033D01*
X243537D01*
X244099Y168314D01*
X244942Y169158D01*
Y171969D02*
Y168033D01*
X246489Y171969D02*
Y168033D01*
Y170845D02*
X247332Y171688D01*
X247895Y171969D01*
X248738D01*
X249300Y171688D01*
X249582Y170845D01*
Y168033D01*
X254502Y173937D02*
Y168033D01*
Y171126D02*
X253939Y171688D01*
X253377Y171969D01*
X252534D01*
X251971Y171688D01*
X251409Y171126D01*
X251128Y170282D01*
Y169720D01*
X251409Y168877D01*
X251971Y168314D01*
X252534Y168033D01*
X253377D01*
X253939Y168314D01*
X254502Y168877D01*
X260715Y173937D02*
Y168033D01*
X264089D01*
X268110Y171969D02*
Y168033D01*
Y171126D02*
X267547Y171688D01*
X266985Y171969D01*
X266142D01*
X265579Y171688D01*
X265017Y171126D01*
X264736Y170282D01*
Y169720D01*
X265017Y168877D01*
X265579Y168314D01*
X266142Y168033D01*
X266985D01*
X267547Y168314D01*
X268110Y168877D01*
X269965Y171969D02*
X271652Y168033D01*
X273339Y171969D02*
X271652Y168033D01*
X271090Y166908D01*
X270528Y166346D01*
X269965Y166065D01*
X269684D01*
X274323Y170282D02*
X277697D01*
Y170845D01*
X277416Y171407D01*
X277135Y171688D01*
X276572Y171969D01*
X275729D01*
X275167Y171688D01*
X274604Y171126D01*
X274323Y170282D01*
Y169720D01*
X274604Y168877D01*
X275167Y168314D01*
X275729Y168033D01*
X276572D01*
X277135Y168314D01*
X277697Y168877D01*
X278962Y171969D02*
Y168033D01*
Y170282D02*
X279243Y171126D01*
X279806Y171688D01*
X280368Y171969D01*
X281211D01*
X311228Y173937D02*
Y168033D01*
Y173937D02*
X313196D01*
X314040Y173656D01*
X314602Y173094D01*
X314883Y172531D01*
X315164Y171688D01*
Y170282D01*
X314883Y169439D01*
X314602Y168877D01*
X314040Y168314D01*
X313196Y168033D01*
X311228D01*
X316486Y173937D02*
Y168033D01*
X317723Y173937D02*
Y168033D01*
Y173937D02*
X321378D01*
X317723Y171126D02*
X319972D01*
X322053Y173937D02*
Y168033D01*
Y173937D02*
X325708D01*
X322053Y171126D02*
X324302D01*
X330038Y173937D02*
X326383D01*
Y168033D01*
X330038D01*
X326383Y171126D02*
X328632D01*
X331022Y173937D02*
Y168033D01*
Y173937D02*
X333552D01*
X334396Y173656D01*
X334677Y173375D01*
X334958Y172813D01*
Y172250D01*
X334677Y171688D01*
X334396Y171407D01*
X333552Y171126D01*
X331022D01*
X332990D02*
X334958Y168033D01*
X339934Y173937D02*
X336279D01*
Y168033D01*
X339934D01*
X336279Y171126D02*
X338528D01*
X340918Y173937D02*
Y168033D01*
Y173937D02*
X344854Y168033D01*
Y173937D02*
Y168033D01*
X348453Y173937D02*
Y168033D01*
X346485Y173937D02*
X350421D01*
X351124D02*
Y168033D01*
X356860D02*
X354610Y173937D01*
X352361Y168033D01*
X353205Y170001D02*
X356016D01*
X358237Y173937D02*
Y168033D01*
X361611D01*
X383500Y173937D02*
X382657Y173656D01*
X382376Y173094D01*
Y172531D01*
X382657Y171969D01*
X383219Y171688D01*
X384344Y171407D01*
X385187Y171126D01*
X385750Y170563D01*
X386031Y170001D01*
Y169158D01*
X385750Y168595D01*
X385468Y168314D01*
X384625Y168033D01*
X383500D01*
X382657Y168314D01*
X382376Y168595D01*
X382095Y169158D01*
Y170001D01*
X382376Y170563D01*
X382938Y171126D01*
X383781Y171407D01*
X384906Y171688D01*
X385468Y171969D01*
X385750Y172531D01*
Y173094D01*
X385468Y173656D01*
X384625Y173937D01*
X383500D01*
X387633Y168595D02*
X387352Y168314D01*
X387633Y168033D01*
X387914Y168314D01*
X387633Y168595D01*
X389208Y172813D02*
X389770Y173094D01*
X390614Y173937D01*
Y168033D01*
X393537Y171969D02*
Y168033D01*
Y170845D02*
X394381Y171688D01*
X394943Y171969D01*
X395787D01*
X396349Y171688D01*
X396630Y170845D01*
Y168033D01*
Y170845D02*
X397474Y171688D01*
X398036Y171969D01*
X398879D01*
X399442Y171688D01*
X399723Y170845D01*
Y168033D01*
X402141Y173937D02*
X402422Y173656D01*
X402703Y173937D01*
X402422Y174218D01*
X402141Y173937D01*
X402422Y171969D02*
Y168033D01*
X403743Y173937D02*
Y168033D01*
X436649Y173937D02*
X433838D01*
X433557Y171407D01*
X433838Y171688D01*
X434681Y171969D01*
X435525D01*
X436368Y171688D01*
X436931Y171126D01*
X437212Y170282D01*
Y169720D01*
X436931Y168877D01*
X436368Y168314D01*
X435525Y168033D01*
X434681D01*
X433838Y168314D01*
X433557Y168595D01*
X433276Y169158D01*
X438533Y171969D02*
Y168033D01*
Y170845D02*
X439377Y171688D01*
X439939Y171969D01*
X440782D01*
X441345Y171688D01*
X441626Y170845D01*
Y168033D01*
Y170845D02*
X442469Y171688D01*
X443032Y171969D01*
X443875D01*
X444437Y171688D01*
X444719Y170845D01*
Y168033D01*
X447136Y173937D02*
X447418Y173656D01*
X447699Y173937D01*
X447418Y174218D01*
X447136Y173937D01*
X447418Y171969D02*
Y168033D01*
X448739Y173937D02*
Y168033D01*
X499923Y171969D02*
X499642Y171126D01*
X499079Y170563D01*
X498236Y170282D01*
X497955D01*
X497111Y170563D01*
X496549Y171126D01*
X496268Y171969D01*
Y172250D01*
X496549Y173094D01*
X497111Y173656D01*
X497955Y173937D01*
X498236D01*
X499079Y173656D01*
X499642Y173094D01*
X499923Y171969D01*
Y170563D01*
X499642Y169158D01*
X499079Y168314D01*
X498236Y168033D01*
X497674D01*
X496830Y168314D01*
X496549Y168877D01*
X503212Y173937D02*
X502369Y173656D01*
X501806Y172813D01*
X501525Y171407D01*
Y170563D01*
X501806Y169158D01*
X502369Y168314D01*
X503212Y168033D01*
X503775D01*
X504618Y168314D01*
X505180Y169158D01*
X505462Y170563D01*
Y171407D01*
X505180Y172813D01*
X504618Y173656D01*
X503775Y173937D01*
X503212D01*
X315164Y157346D02*
X314602Y157908D01*
X313759Y158189D01*
X312634D01*
X311791Y157908D01*
X311228Y157346D01*
Y156783D01*
X311509Y156221D01*
X311791Y155940D01*
X312353Y155659D01*
X314040Y155097D01*
X314602Y154815D01*
X314883Y154534D01*
X315164Y153972D01*
Y153129D01*
X314602Y152566D01*
X313759Y152285D01*
X312634D01*
X311791Y152566D01*
X311228Y153129D01*
X316486Y158189D02*
Y152285D01*
X317723Y158189D02*
Y152285D01*
Y158189D02*
X321659Y152285D01*
Y158189D02*
Y152285D01*
X327507Y156783D02*
X327226Y157346D01*
X326664Y157908D01*
X326101Y158189D01*
X324977D01*
X324414Y157908D01*
X323852Y157346D01*
X323571Y156783D01*
X323290Y155940D01*
Y154534D01*
X323571Y153691D01*
X323852Y153129D01*
X324414Y152566D01*
X324977Y152285D01*
X326101D01*
X326664Y152566D01*
X327226Y153129D01*
X327507Y153691D01*
Y154534D01*
X326101D02*
X327507D01*
X328857Y158189D02*
Y152285D01*
X332231D01*
X336532Y158189D02*
X332877D01*
Y152285D01*
X336532D01*
X332877Y155378D02*
X335126D01*
X345810Y158189D02*
X342155D01*
Y152285D01*
X345810D01*
X342155Y155378D02*
X344405D01*
X346794Y158189D02*
Y152285D01*
Y158189D02*
X350731Y152285D01*
Y158189D02*
Y152285D01*
X352361Y158189D02*
Y152285D01*
Y158189D02*
X354329D01*
X355173Y157908D01*
X355735Y157346D01*
X356016Y156783D01*
X356297Y155940D01*
Y154534D01*
X356016Y153691D01*
X355735Y153129D01*
X355173Y152566D01*
X354329Y152285D01*
X352361D01*
X361274Y158189D02*
X357619D01*
Y152285D01*
X361274D01*
X357619Y155378D02*
X359868D01*
X362258Y158189D02*
Y152285D01*
Y158189D02*
X364226D01*
X365070Y157908D01*
X365632Y157346D01*
X365913Y156783D01*
X366194Y155940D01*
Y154534D01*
X365913Y153691D01*
X365632Y153129D01*
X365070Y152566D01*
X364226Y152285D01*
X362258D01*
X382095Y157065D02*
X382657Y157346D01*
X383500Y158189D01*
Y152285D01*
X386424Y157065D02*
X386987Y157346D01*
X387830Y158189D01*
Y152285D01*
X391035Y152847D02*
X390754Y152566D01*
X391035Y152285D01*
X391316Y152566D01*
X391035Y152847D01*
X395984Y158189D02*
X393172D01*
X392891Y155659D01*
X393172Y155940D01*
X394015Y156221D01*
X394859D01*
X395702Y155940D01*
X396265Y155378D01*
X396546Y154534D01*
Y153972D01*
X396265Y153129D01*
X395702Y152566D01*
X394859Y152285D01*
X394015D01*
X393172Y152566D01*
X392891Y152847D01*
X392610Y153410D01*
X401241Y158189D02*
X398430D01*
X398148Y155659D01*
X398430Y155940D01*
X399273Y156221D01*
X400116D01*
X400960Y155940D01*
X401522Y155378D01*
X401803Y154534D01*
Y153972D01*
X401522Y153129D01*
X400960Y152566D01*
X400116Y152285D01*
X399273D01*
X398430Y152566D01*
X398148Y152847D01*
X397867Y153410D01*
X403125Y156221D02*
Y152285D01*
Y155097D02*
X403968Y155940D01*
X404531Y156221D01*
X405374D01*
X405936Y155940D01*
X406217Y155097D01*
Y152285D01*
Y155097D02*
X407061Y155940D01*
X407623Y156221D01*
X408467D01*
X409029Y155940D01*
X409310Y155097D01*
Y152285D01*
X411728Y158189D02*
X412009Y157908D01*
X412290Y158189D01*
X412009Y158470D01*
X411728Y158189D01*
X412009Y156221D02*
Y152285D01*
X413331Y158189D02*
Y152285D01*
X433276Y158189D02*
Y152285D01*
Y158189D02*
X437212Y152285D01*
Y158189D02*
Y152285D01*
X443341D02*
X441092Y158189D01*
X438842Y152285D01*
X439686Y154253D02*
X442497D01*
X499642Y158189D02*
X496830D01*
X496549Y155659D01*
X496830Y155940D01*
X497674Y156221D01*
X498517D01*
X499360Y155940D01*
X499923Y155378D01*
X500204Y154534D01*
Y153972D01*
X499923Y153129D01*
X499360Y152566D01*
X498517Y152285D01*
X497674D01*
X496830Y152566D01*
X496549Y152847D01*
X496268Y153410D01*
X503212Y158189D02*
X502369Y157908D01*
X501806Y157065D01*
X501525Y155659D01*
Y154815D01*
X501806Y153410D01*
X502369Y152566D01*
X503212Y152285D01*
X503775D01*
X504618Y152566D01*
X505180Y153410D01*
X505462Y154815D01*
Y155659D01*
X505180Y157065D01*
X504618Y157908D01*
X503775Y158189D01*
X503212D01*
X232769Y156783D02*
X232487Y157346D01*
X231925Y157908D01*
X231363Y158189D01*
X230238D01*
X229676Y157908D01*
X229114Y157346D01*
X228832Y156783D01*
X228551Y155940D01*
Y154534D01*
X228832Y153691D01*
X229114Y153129D01*
X229676Y152566D01*
X230238Y152285D01*
X231363D01*
X231925Y152566D01*
X232487Y153129D01*
X232769Y153691D01*
Y154534D01*
X231363D02*
X232769D01*
X234118Y156221D02*
Y152285D01*
Y154534D02*
X234399Y155378D01*
X234962Y155940D01*
X235524Y156221D01*
X236367D01*
X238307D02*
X237745Y155940D01*
X237183Y155378D01*
X236901Y154534D01*
Y153972D01*
X237183Y153129D01*
X237745Y152566D01*
X238307Y152285D01*
X239151D01*
X239713Y152566D01*
X240275Y153129D01*
X240557Y153972D01*
Y154534D01*
X240275Y155378D01*
X239713Y155940D01*
X239151Y156221D01*
X238307D01*
X241850D02*
Y153410D01*
X242131Y152566D01*
X242693Y152285D01*
X243537D01*
X244099Y152566D01*
X244942Y153410D01*
Y156221D02*
Y152285D01*
X246489Y156221D02*
Y152285D01*
Y155097D02*
X247332Y155940D01*
X247895Y156221D01*
X248738D01*
X249300Y155940D01*
X249582Y155097D01*
Y152285D01*
X254502Y158189D02*
Y152285D01*
Y155378D02*
X253939Y155940D01*
X253377Y156221D01*
X252534D01*
X251971Y155940D01*
X251409Y155378D01*
X251128Y154534D01*
Y153972D01*
X251409Y153129D01*
X251971Y152566D01*
X252534Y152285D01*
X253377D01*
X253939Y152566D01*
X254502Y153129D01*
X260715Y158189D02*
Y152285D01*
X264089D01*
X268110Y156221D02*
Y152285D01*
Y155378D02*
X267547Y155940D01*
X266985Y156221D01*
X266142D01*
X265579Y155940D01*
X265017Y155378D01*
X264736Y154534D01*
Y153972D01*
X265017Y153129D01*
X265579Y152566D01*
X266142Y152285D01*
X266985D01*
X267547Y152566D01*
X268110Y153129D01*
X269965Y156221D02*
X271652Y152285D01*
X273339Y156221D02*
X271652Y152285D01*
X271090Y151160D01*
X270528Y150598D01*
X269965Y150317D01*
X269684D01*
X274323Y154534D02*
X277697D01*
Y155097D01*
X277416Y155659D01*
X277135Y155940D01*
X276572Y156221D01*
X275729D01*
X275167Y155940D01*
X274604Y155378D01*
X274323Y154534D01*
Y153972D01*
X274604Y153129D01*
X275167Y152566D01*
X275729Y152285D01*
X276572D01*
X277135Y152566D01*
X277697Y153129D01*
X278962Y156221D02*
Y152285D01*
Y154534D02*
X279243Y155378D01*
X279806Y155940D01*
X280368Y156221D01*
X281211D01*
X147842Y158189D02*
Y152285D01*
X145874Y158189D02*
X149810D01*
X151919Y156221D02*
X151356Y155940D01*
X150794Y155378D01*
X150513Y154534D01*
Y153972D01*
X150794Y153129D01*
X151356Y152566D01*
X151919Y152285D01*
X152762D01*
X153325Y152566D01*
X153887Y153129D01*
X154168Y153972D01*
Y154534D01*
X153887Y155378D01*
X153325Y155940D01*
X152762Y156221D01*
X151919D01*
X155461D02*
Y150317D01*
Y155378D02*
X156024Y155940D01*
X156586Y156221D01*
X157430D01*
X157992Y155940D01*
X158554Y155378D01*
X158835Y154534D01*
Y153972D01*
X158554Y153129D01*
X157992Y152566D01*
X157430Y152285D01*
X156586D01*
X156024Y152566D01*
X155461Y153129D01*
X164740Y158189D02*
Y152285D01*
X168113D01*
X172134Y156221D02*
Y152285D01*
Y155378D02*
X171572Y155940D01*
X171009Y156221D01*
X170166D01*
X169604Y155940D01*
X169041Y155378D01*
X168760Y154534D01*
Y153972D01*
X169041Y153129D01*
X169604Y152566D01*
X170166Y152285D01*
X171009D01*
X171572Y152566D01*
X172134Y153129D01*
X173989Y156221D02*
X175676Y152285D01*
X177363Y156221D02*
X175676Y152285D01*
X175114Y151160D01*
X174552Y150598D01*
X173989Y150317D01*
X173708D01*
X178347Y154534D02*
X181721D01*
Y155097D01*
X181440Y155659D01*
X181159Y155940D01*
X180597Y156221D01*
X179753D01*
X179191Y155940D01*
X178629Y155378D01*
X178347Y154534D01*
Y153972D01*
X178629Y153129D01*
X179191Y152566D01*
X179753Y152285D01*
X180597D01*
X181159Y152566D01*
X181721Y153129D01*
X182986Y156221D02*
Y152285D01*
Y154534D02*
X183268Y155378D01*
X183830Y155940D01*
X184392Y156221D01*
X185236D01*
D103*
X547449Y223151D02*
Y262521D01*
X326976D02*
X547449D01*
X138000D02*
X326976D01*
X138000Y223151D02*
Y262521D01*
Y179844D02*
X547449D01*
X138000Y195592D02*
X547449D01*
X138000Y223151D02*
X547449D01*
X138000Y132600D02*
X547449D01*
Y223151D01*
X220677Y132600D02*
Y223151D01*
X303354Y132600D02*
Y223151D01*
X374220Y132600D02*
Y223151D01*
X425402Y132600D02*
Y223151D01*
X488394Y132600D02*
Y223151D01*
X138000Y132600D02*
Y223151D01*
Y164096D02*
X547449D01*
X138000Y148348D02*
X547449D01*
D104*
X289575Y254645D02*
Y244805D01*
X291637Y254645D02*
Y244805D01*
Y254645D02*
X295385Y244805D01*
X299134Y254645D02*
X295385Y244805D01*
X299134Y254645D02*
Y244805D01*
X301946Y249491D02*
X306163D01*
X307569Y249959D01*
X308037Y250428D01*
X308506Y251365D01*
Y252771D01*
X308037Y253708D01*
X307569Y254176D01*
X306163Y254645D01*
X301946D01*
Y244805D01*
X316800Y254645D02*
X310708D01*
Y244805D01*
X316800D01*
X310708Y249959D02*
X314457D01*
X318440Y254645D02*
Y244805D01*
Y254645D02*
X321720D01*
X323126Y254176D01*
X324063Y253239D01*
X324532Y252302D01*
X325000Y250896D01*
Y248553D01*
X324532Y247148D01*
X324063Y246211D01*
X323126Y245273D01*
X321720Y244805D01*
X318440D01*
X334700D02*
X330951Y254645D01*
X327203Y244805D01*
X328608Y248085D02*
X333294D01*
X336996Y254645D02*
Y244805D01*
Y254645D02*
X343556Y244805D01*
Y254645D02*
Y244805D01*
X353303Y252302D02*
X352835Y253239D01*
X351897Y254176D01*
X350960Y254645D01*
X349086D01*
X348149Y254176D01*
X347212Y253239D01*
X346743Y252302D01*
X346274Y250896D01*
Y248553D01*
X346743Y247148D01*
X347212Y246211D01*
X348149Y245273D01*
X349086Y244805D01*
X350960D01*
X351897Y245273D01*
X352835Y246211D01*
X353303Y247148D01*
X362159Y254645D02*
X356068D01*
Y244805D01*
X362159D01*
X356068Y249959D02*
X359817D01*
X371531Y254645D02*
Y244805D01*
Y254645D02*
X374812D01*
X376217Y254176D01*
X377154Y253239D01*
X377623Y252302D01*
X378092Y250896D01*
Y248553D01*
X377623Y247148D01*
X377154Y246211D01*
X376217Y245273D01*
X374812Y244805D01*
X371531D01*
X386386Y254645D02*
X380294D01*
Y244805D01*
X386386D01*
X380294Y249959D02*
X384043D01*
X391306Y254645D02*
Y244805D01*
X388026Y254645D02*
X394586D01*
X403255Y244805D02*
X399506Y254645D01*
X395758Y244805D01*
X397163Y248085D02*
X401849D01*
X405551Y254645D02*
Y244805D01*
X407613Y254645D02*
Y244805D01*
X413236D01*
M02*
