G04*
G04 #@! TF.GenerationSoftware,Altium Limited,Altium Designer,20.0.11 (256)*
G04*
G04 Layer_Color=8388736*
%FSLAX25Y25*%
%MOIN*%
G70*
G01*
G75*
%ADD33R,0.07200X0.19800*%
%ADD34R,0.06457X0.04488*%
%ADD35R,0.01811X0.01378*%
%ADD36C,0.04488*%
%ADD37R,0.03751X0.03551*%
%ADD38R,0.04051X0.03951*%
%ADD39R,0.03551X0.03751*%
%ADD40R,0.03951X0.04051*%
%ADD41R,0.03132X0.03701*%
%ADD42R,0.04685X0.03110*%
%ADD43R,0.03701X0.03701*%
%ADD44R,0.01968X0.02362*%
%ADD45R,0.11181X0.11181*%
%ADD46R,0.03898X0.01654*%
%ADD47R,0.01654X0.03898*%
%ADD48R,0.02913X0.06457*%
%ADD49R,0.21024X0.21024*%
G04:AMPARAMS|DCode=50|XSize=17.32mil|YSize=64.57mil|CornerRadius=3.05mil|HoleSize=0mil|Usage=FLASHONLY|Rotation=0.000|XOffset=0mil|YOffset=0mil|HoleType=Round|Shape=RoundedRectangle|*
%AMROUNDEDRECTD50*
21,1,0.01732,0.05847,0,0,0.0*
21,1,0.01122,0.06457,0,0,0.0*
1,1,0.00610,0.00561,-0.02923*
1,1,0.00610,-0.00561,-0.02923*
1,1,0.00610,-0.00561,0.02923*
1,1,0.00610,0.00561,0.02923*
%
%ADD50ROUNDEDRECTD50*%
G04:AMPARAMS|DCode=51|XSize=17.32mil|YSize=64.57mil|CornerRadius=3.05mil|HoleSize=0mil|Usage=FLASHONLY|Rotation=90.000|XOffset=0mil|YOffset=0mil|HoleType=Round|Shape=RoundedRectangle|*
%AMROUNDEDRECTD51*
21,1,0.01732,0.05847,0,0,90.0*
21,1,0.01122,0.06457,0,0,90.0*
1,1,0.00610,0.02923,0.00561*
1,1,0.00610,0.02923,-0.00561*
1,1,0.00610,-0.02923,-0.00561*
1,1,0.00610,-0.02923,0.00561*
%
%ADD51ROUNDEDRECTD51*%
%ADD52R,0.06063X0.05276*%
%ADD53R,0.02913X0.06260*%
%ADD54R,0.01732X0.06260*%
%ADD55C,0.07874*%
%ADD56C,0.06457*%
%ADD57R,0.06457X0.06457*%
%ADD58C,0.02559*%
%ADD59O,0.04488X0.06850*%
%ADD60O,0.04488X0.08819*%
%ADD61R,0.06457X0.06457*%
D33*
X6600Y12900D02*
D03*
D34*
X61024Y19291D02*
D03*
Y27953D02*
D03*
D35*
X40053Y47400D02*
D03*
X36746D02*
D03*
X28947D02*
D03*
X32254D02*
D03*
D36*
X84646Y72835D02*
D03*
X96457Y90551D02*
D03*
Y100394D02*
D03*
D37*
X51181Y83759D02*
D03*
Y77659D02*
D03*
X11811Y42226D02*
D03*
Y48326D02*
D03*
X98425Y58168D02*
D03*
Y52068D02*
D03*
X64961D02*
D03*
Y58168D02*
D03*
X59055D02*
D03*
Y52068D02*
D03*
X82677Y162499D02*
D03*
Y156399D02*
D03*
X19685Y117029D02*
D03*
Y123129D02*
D03*
X35433Y160336D02*
D03*
Y166436D02*
D03*
X29528Y160336D02*
D03*
Y166436D02*
D03*
X92520Y52068D02*
D03*
Y58168D02*
D03*
D38*
X45276Y83759D02*
D03*
Y77659D02*
D03*
X64961Y38289D02*
D03*
Y44389D02*
D03*
X92520Y38289D02*
D03*
Y44389D02*
D03*
X76772Y156399D02*
D03*
Y162499D02*
D03*
X69882Y95570D02*
D03*
Y89470D02*
D03*
X57087Y95570D02*
D03*
Y89470D02*
D03*
D39*
X30609Y70866D02*
D03*
X24509D02*
D03*
Y64961D02*
D03*
X30609D02*
D03*
X71753Y74803D02*
D03*
X77853D02*
D03*
X18604Y43307D02*
D03*
X24703D02*
D03*
X50294D02*
D03*
X44194D02*
D03*
X87501Y147638D02*
D03*
X93601D02*
D03*
D40*
X24509Y59055D02*
D03*
X30609D02*
D03*
X77853Y80709D02*
D03*
X71753D02*
D03*
X81596Y61024D02*
D03*
X87696D02*
D03*
X75885D02*
D03*
X69785D02*
D03*
X81596Y33465D02*
D03*
X87696D02*
D03*
X75885D02*
D03*
X69785D02*
D03*
X93601Y153543D02*
D03*
X87501D02*
D03*
X93407Y125000D02*
D03*
X99507D02*
D03*
X93407Y113189D02*
D03*
X99507D02*
D03*
X32578Y124016D02*
D03*
X26478D02*
D03*
X32578Y117126D02*
D03*
X26478D02*
D03*
D41*
X57765Y11811D02*
D03*
X64283D02*
D03*
X69576Y23622D02*
D03*
X76094D02*
D03*
D42*
X76476Y16043D02*
D03*
X92815D02*
D03*
X76476Y7579D02*
D03*
X92815D02*
D03*
D43*
X5906Y42323D02*
D03*
Y48228D02*
D03*
D44*
X86024Y104134D02*
D03*
X91142D02*
D03*
Y96653D02*
D03*
X88583D02*
D03*
X86024D02*
D03*
D45*
X78740Y47244D02*
D03*
D46*
X70965Y43307D02*
D03*
Y45276D02*
D03*
Y47244D02*
D03*
Y49213D02*
D03*
Y51181D02*
D03*
X86516D02*
D03*
Y49213D02*
D03*
Y47244D02*
D03*
Y45276D02*
D03*
Y43307D02*
D03*
D47*
X74803Y55020D02*
D03*
X76772D02*
D03*
X78740D02*
D03*
X80709D02*
D03*
X82677D02*
D03*
Y39469D02*
D03*
X80709D02*
D03*
X78740D02*
D03*
X76772D02*
D03*
X74803D02*
D03*
D48*
X18484Y83858D02*
D03*
X23484D02*
D03*
X28484D02*
D03*
X33484D02*
D03*
X18484Y105118D02*
D03*
X23484D02*
D03*
X28484D02*
D03*
X33484D02*
D03*
D49*
X62992Y125984D02*
D03*
D50*
X48228Y148622D02*
D03*
X50197D02*
D03*
X52165D02*
D03*
X54134D02*
D03*
X56102D02*
D03*
X58071D02*
D03*
X60039D02*
D03*
X62008D02*
D03*
X63976D02*
D03*
X65945D02*
D03*
X67913D02*
D03*
X69882D02*
D03*
X71850D02*
D03*
X73819D02*
D03*
X75787D02*
D03*
X77756D02*
D03*
Y103347D02*
D03*
X75787D02*
D03*
X73819D02*
D03*
X71850D02*
D03*
X69882D02*
D03*
X67913D02*
D03*
X65945D02*
D03*
X63976D02*
D03*
X62008D02*
D03*
X60039D02*
D03*
X58071D02*
D03*
X56102D02*
D03*
X54134D02*
D03*
X52165D02*
D03*
X50197D02*
D03*
X48228D02*
D03*
D51*
X85630Y140748D02*
D03*
Y138779D02*
D03*
Y136811D02*
D03*
Y134843D02*
D03*
Y132874D02*
D03*
Y130905D02*
D03*
Y128937D02*
D03*
Y126969D02*
D03*
Y125000D02*
D03*
Y123031D02*
D03*
Y121063D02*
D03*
Y119095D02*
D03*
Y117126D02*
D03*
Y115157D02*
D03*
Y113189D02*
D03*
Y111221D02*
D03*
X40354D02*
D03*
Y113189D02*
D03*
Y115157D02*
D03*
Y117126D02*
D03*
Y119095D02*
D03*
Y121063D02*
D03*
Y123031D02*
D03*
Y125000D02*
D03*
Y126969D02*
D03*
Y128937D02*
D03*
Y130905D02*
D03*
Y132874D02*
D03*
Y134843D02*
D03*
Y136811D02*
D03*
Y138779D02*
D03*
Y140748D02*
D03*
D52*
X60039Y157480D02*
D03*
X68701D02*
D03*
X60039Y164961D02*
D03*
X68701D02*
D03*
D53*
X20669Y31516D02*
D03*
X46260D02*
D03*
X23819D02*
D03*
X43110D02*
D03*
D54*
X26575D02*
D03*
X28543D02*
D03*
X40354D02*
D03*
X38386D02*
D03*
X36417D02*
D03*
X30512D02*
D03*
X34449D02*
D03*
X32480D02*
D03*
D55*
X108000Y7800D02*
D03*
X7800Y183000D02*
D03*
X118200Y178800D02*
D03*
D56*
X5906Y95906D02*
D03*
Y165905D02*
D03*
Y155905D02*
D03*
Y145905D02*
D03*
Y135906D02*
D03*
Y125906D02*
D03*
Y115905D02*
D03*
Y105905D02*
D03*
Y85905D02*
D03*
X120079Y165905D02*
D03*
Y5906D02*
D03*
Y15905D02*
D03*
Y25905D02*
D03*
Y35906D02*
D03*
Y45906D02*
D03*
Y55905D02*
D03*
Y65905D02*
D03*
Y75906D02*
D03*
Y85905D02*
D03*
Y95906D02*
D03*
Y105905D02*
D03*
Y115905D02*
D03*
Y125906D02*
D03*
Y135906D02*
D03*
Y145905D02*
D03*
Y155905D02*
D03*
X107992Y186102D02*
D03*
Y176102D02*
D03*
X97992Y186102D02*
D03*
Y176102D02*
D03*
X87992Y186102D02*
D03*
Y176102D02*
D03*
X77992Y186102D02*
D03*
Y176102D02*
D03*
X67992Y186102D02*
D03*
Y176102D02*
D03*
X57992Y186102D02*
D03*
Y176102D02*
D03*
X47992Y186102D02*
D03*
Y176102D02*
D03*
X37992Y186102D02*
D03*
Y176102D02*
D03*
X27992Y186102D02*
D03*
Y176102D02*
D03*
X17992Y186102D02*
D03*
D57*
X5906Y75906D02*
D03*
D58*
X22087Y25827D02*
D03*
X44842D02*
D03*
D59*
X50472Y11457D02*
D03*
X16457D02*
D03*
D60*
X50472Y27913D02*
D03*
X16457D02*
D03*
D61*
X17992Y176102D02*
D03*
M02*
