G04*
G04 #@! TF.GenerationSoftware,Altium Limited,Altium Designer,20.0.11 (256)*
G04*
G04 Layer_Color=32896*
%FSLAX25Y25*%
%MOIN*%
G70*
G01*
G75*
%ADD10C,0.00600*%
%ADD12C,0.00800*%
%ADD80C,0.01000*%
G36*
X72000Y118700D02*
X70000D01*
X69250Y126200D01*
X68500Y118700D01*
X65500D01*
X64750Y126200D01*
X64000Y118700D01*
X62000D01*
X57000Y122700D01*
X58000D01*
X62235Y119877D01*
X64000Y128700D01*
X65500D01*
X67000Y121200D01*
X68500Y128700D01*
X70000D01*
X72000Y118700D01*
D02*
G37*
G36*
X69500Y113700D02*
X68500D01*
X64265Y116524D01*
X62500Y107700D01*
X61000D01*
X59500Y115200D01*
X58000Y107700D01*
X56500D01*
X54500Y117700D01*
X56500D01*
X57250Y110200D01*
X58000Y117700D01*
X61000D01*
X61750Y110200D01*
X62500Y117700D01*
X64500D01*
X69500Y113700D01*
D02*
G37*
G36*
X45600Y97000D02*
Y96200D01*
Y95400D01*
Y94600D01*
Y93800D01*
Y93000D01*
X44000D01*
Y93800D01*
Y94600D01*
X42400D01*
Y95400D01*
Y96200D01*
X40800D01*
Y97000D01*
Y97800D01*
X42400D01*
Y97000D01*
Y96200D01*
X44000D01*
Y97000D01*
Y97800D01*
X45600D01*
Y97000D01*
D02*
G37*
G36*
X48800Y95400D02*
Y94600D01*
X47200D01*
Y95400D01*
Y96200D01*
X48800D01*
Y95400D01*
D02*
G37*
G36*
X79200Y97000D02*
Y96200D01*
Y95400D01*
Y94600D01*
Y93800D01*
Y93000D01*
Y92200D01*
Y91400D01*
Y90600D01*
Y89800D01*
Y89000D01*
Y88200D01*
Y87400D01*
Y86600D01*
X68000D01*
Y87400D01*
Y88200D01*
Y89000D01*
Y89800D01*
Y90600D01*
Y91400D01*
Y92200D01*
Y93000D01*
Y93800D01*
Y94600D01*
Y95400D01*
Y96200D01*
Y97000D01*
Y97800D01*
X79200D01*
Y97000D01*
D02*
G37*
G36*
X48800Y92200D02*
Y91400D01*
X50400D01*
Y90600D01*
Y89800D01*
X52000D01*
Y89000D01*
Y88200D01*
X53600D01*
Y87400D01*
Y86600D01*
X52000D01*
Y87400D01*
Y88200D01*
X50400D01*
Y89000D01*
Y89800D01*
X48800D01*
Y90600D01*
Y91400D01*
X47200D01*
Y92200D01*
Y93000D01*
X48800D01*
Y92200D01*
D02*
G37*
G36*
X40800Y87400D02*
Y86600D01*
X39200D01*
Y87400D01*
Y88200D01*
X40800D01*
Y87400D01*
D02*
G37*
G36*
X37600Y97000D02*
Y96200D01*
Y95400D01*
Y94600D01*
Y93800D01*
Y93000D01*
Y92200D01*
Y91400D01*
Y90600D01*
Y89800D01*
Y89000D01*
Y88200D01*
Y87400D01*
Y86600D01*
X26400D01*
Y87400D01*
Y88200D01*
Y89000D01*
Y89800D01*
Y90600D01*
Y91400D01*
Y92200D01*
Y93000D01*
Y93800D01*
Y94600D01*
Y95400D01*
Y96200D01*
Y97000D01*
Y97800D01*
X37600D01*
Y97000D01*
D02*
G37*
G36*
X44000Y87400D02*
Y86600D01*
X45600D01*
Y85800D01*
Y85000D01*
Y84200D01*
Y83400D01*
X44000D01*
Y84200D01*
Y85000D01*
X42400D01*
Y85800D01*
Y86600D01*
Y87400D01*
Y88200D01*
X44000D01*
Y87400D01*
D02*
G37*
G36*
X28000Y84200D02*
Y83400D01*
Y82600D01*
Y81800D01*
X29600D01*
Y81000D01*
Y80200D01*
X28000D01*
Y81000D01*
Y81800D01*
X26400D01*
Y82600D01*
Y83400D01*
Y84200D01*
Y85000D01*
X28000D01*
Y84200D01*
D02*
G37*
G36*
X42400D02*
Y83400D01*
Y82600D01*
Y81800D01*
Y81000D01*
Y80200D01*
Y79400D01*
Y78600D01*
X44000D01*
Y79400D01*
Y80200D01*
Y81000D01*
Y81800D01*
X47200D01*
Y81000D01*
Y80200D01*
Y79400D01*
Y78600D01*
X45600D01*
Y77800D01*
Y77000D01*
Y76200D01*
Y75400D01*
X47200D01*
Y74600D01*
Y73800D01*
X45600D01*
Y74600D01*
Y75400D01*
X42400D01*
Y74600D01*
Y73800D01*
X45600D01*
Y73000D01*
Y72200D01*
X48800D01*
Y71400D01*
Y70600D01*
X50400D01*
Y69800D01*
Y69000D01*
X52000D01*
Y68200D01*
Y67400D01*
Y66600D01*
Y65800D01*
X50400D01*
Y65000D01*
Y64200D01*
X53600D01*
Y63400D01*
Y62600D01*
Y61800D01*
Y61000D01*
X52000D01*
Y61800D01*
Y62600D01*
X50400D01*
Y63400D01*
Y64200D01*
X48800D01*
Y65000D01*
Y65800D01*
X47200D01*
Y65000D01*
Y64200D01*
X44000D01*
Y65000D01*
Y65800D01*
X40800D01*
Y65000D01*
Y64200D01*
X42400D01*
Y63400D01*
Y62600D01*
X44000D01*
Y61800D01*
Y61000D01*
X45600D01*
Y61800D01*
Y62600D01*
X47200D01*
Y61800D01*
Y61000D01*
X48800D01*
Y60200D01*
Y59400D01*
X47200D01*
Y58600D01*
Y57800D01*
Y57000D01*
Y56200D01*
Y55400D01*
Y54600D01*
Y53800D01*
Y53000D01*
Y52200D01*
Y51400D01*
X45600D01*
Y52200D01*
Y53000D01*
X44000D01*
Y53800D01*
Y54600D01*
Y55400D01*
Y56200D01*
Y57000D01*
Y57800D01*
X42400D01*
Y58600D01*
Y59400D01*
X40800D01*
Y58600D01*
Y57800D01*
X42400D01*
Y57000D01*
Y56200D01*
X40800D01*
Y55400D01*
Y54600D01*
Y53800D01*
Y53000D01*
Y52200D01*
Y51400D01*
X42400D01*
Y50600D01*
Y49800D01*
Y49000D01*
Y48200D01*
Y47400D01*
Y46600D01*
X44000D01*
Y47400D01*
Y48200D01*
X45600D01*
Y47400D01*
Y46600D01*
X47200D01*
Y47400D01*
Y48200D01*
X53600D01*
Y49000D01*
Y49800D01*
X55200D01*
Y49000D01*
Y48200D01*
X56800D01*
Y47400D01*
Y46600D01*
X52000D01*
Y45800D01*
Y45000D01*
X50400D01*
Y45800D01*
Y46600D01*
X48800D01*
Y45800D01*
Y45000D01*
X37600D01*
Y45800D01*
Y46600D01*
X39200D01*
Y47400D01*
Y48200D01*
Y49000D01*
Y49800D01*
Y50600D01*
Y51400D01*
X37600D01*
Y50600D01*
Y49800D01*
Y49000D01*
Y48200D01*
X32800D01*
Y47400D01*
Y46600D01*
Y45800D01*
Y45000D01*
X31200D01*
Y45800D01*
Y46600D01*
Y47400D01*
Y48200D01*
X29600D01*
Y49000D01*
Y49800D01*
Y50600D01*
Y51400D01*
X26400D01*
Y52200D01*
Y53000D01*
Y53800D01*
Y54600D01*
X28000D01*
Y53800D01*
Y53000D01*
X29600D01*
Y52200D01*
Y51400D01*
X31200D01*
Y50600D01*
Y49800D01*
X32800D01*
Y50600D01*
Y51400D01*
X31200D01*
Y52200D01*
Y53000D01*
X32800D01*
Y53800D01*
Y54600D01*
X31200D01*
Y55400D01*
Y56200D01*
X28000D01*
Y57000D01*
Y57800D01*
X26400D01*
Y58600D01*
Y59400D01*
X28000D01*
Y58600D01*
Y57800D01*
X31200D01*
Y57000D01*
Y56200D01*
X32800D01*
Y57000D01*
Y57800D01*
X31200D01*
Y58600D01*
Y59400D01*
Y60200D01*
Y61000D01*
X29600D01*
Y60200D01*
Y59400D01*
X28000D01*
Y60200D01*
Y61000D01*
Y61800D01*
Y62600D01*
Y63400D01*
Y64200D01*
X31200D01*
Y65000D01*
Y65800D01*
X34400D01*
Y66600D01*
Y67400D01*
Y68200D01*
Y69000D01*
X36000D01*
Y68200D01*
Y67400D01*
X37600D01*
Y66600D01*
Y65800D01*
Y65000D01*
Y64200D01*
X32800D01*
Y63400D01*
Y62600D01*
X36000D01*
Y61800D01*
Y61000D01*
X37600D01*
Y61800D01*
Y62600D01*
X40800D01*
Y63400D01*
Y64200D01*
X39200D01*
Y65000D01*
Y65800D01*
Y66600D01*
Y67400D01*
X40800D01*
Y68200D01*
Y69000D01*
Y69800D01*
Y70600D01*
X39200D01*
Y71400D01*
Y72200D01*
X37600D01*
Y71400D01*
Y70600D01*
X39200D01*
Y69800D01*
Y69000D01*
X37600D01*
Y69800D01*
Y70600D01*
X36000D01*
Y71400D01*
Y72200D01*
X34400D01*
Y73000D01*
Y73800D01*
X32800D01*
Y74600D01*
Y75400D01*
X29600D01*
Y76200D01*
Y77000D01*
X28000D01*
Y77800D01*
Y78600D01*
X29600D01*
Y77800D01*
Y77000D01*
X31200D01*
Y77800D01*
Y78600D01*
X34400D01*
Y77800D01*
Y77000D01*
X32800D01*
Y76200D01*
Y75400D01*
X36000D01*
Y76200D01*
Y77000D01*
Y77800D01*
Y78600D01*
X37600D01*
Y77800D01*
Y77000D01*
X39200D01*
Y76200D01*
Y75400D01*
X40800D01*
Y76200D01*
Y77000D01*
X39200D01*
Y77800D01*
Y78600D01*
X37600D01*
Y79400D01*
Y80200D01*
X36000D01*
Y81000D01*
Y81800D01*
X37600D01*
Y82600D01*
Y83400D01*
X32800D01*
Y82600D01*
Y81800D01*
Y81000D01*
Y80200D01*
X31200D01*
Y81000D01*
Y81800D01*
X29600D01*
Y82600D01*
Y83400D01*
X31200D01*
Y84200D01*
Y85000D01*
X39200D01*
Y84200D01*
Y83400D01*
Y82600D01*
Y81800D01*
Y81000D01*
Y80200D01*
Y79400D01*
Y78600D01*
X40800D01*
Y79400D01*
Y80200D01*
Y81000D01*
Y81800D01*
Y82600D01*
Y83400D01*
Y84200D01*
Y85000D01*
X42400D01*
Y84200D01*
D02*
G37*
G36*
X79200D02*
Y83400D01*
Y82600D01*
Y81800D01*
Y81000D01*
Y80200D01*
Y79400D01*
Y78600D01*
Y77800D01*
Y77000D01*
X76000D01*
Y77800D01*
Y78600D01*
X77600D01*
Y79400D01*
Y80200D01*
Y81000D01*
Y81800D01*
Y82600D01*
Y83400D01*
Y84200D01*
Y85000D01*
X79200D01*
Y84200D01*
D02*
G37*
G36*
X66400Y79400D02*
Y78600D01*
Y77800D01*
Y77000D01*
X64800D01*
Y77800D01*
Y78600D01*
Y79400D01*
Y80200D01*
X66400D01*
Y79400D01*
D02*
G37*
G36*
X53600D02*
Y78600D01*
Y77800D01*
Y77000D01*
X52000D01*
Y77800D01*
Y78600D01*
Y79400D01*
Y80200D01*
X53600D01*
Y79400D01*
D02*
G37*
G36*
X74400Y76200D02*
Y75400D01*
X72800D01*
Y76200D01*
Y77000D01*
X74400D01*
Y76200D01*
D02*
G37*
G36*
X56800D02*
Y75400D01*
X55200D01*
Y76200D01*
Y77000D01*
X56800D01*
Y76200D01*
D02*
G37*
G36*
X66400Y97000D02*
Y96200D01*
X63200D01*
Y95400D01*
Y94600D01*
Y93800D01*
Y93000D01*
Y92200D01*
Y91400D01*
X64800D01*
Y92200D01*
Y93000D01*
X66400D01*
Y92200D01*
Y91400D01*
Y90600D01*
Y89800D01*
Y89000D01*
Y88200D01*
Y87400D01*
Y86600D01*
Y85800D01*
Y85000D01*
X69600D01*
Y84200D01*
Y83400D01*
X71200D01*
Y84200D01*
Y85000D01*
X72800D01*
Y84200D01*
Y83400D01*
Y82600D01*
Y81800D01*
X74400D01*
Y82600D01*
Y83400D01*
X76000D01*
Y82600D01*
Y81800D01*
Y81000D01*
Y80200D01*
X71200D01*
Y79400D01*
Y78600D01*
Y77800D01*
Y77000D01*
Y76200D01*
Y75400D01*
X72800D01*
Y74600D01*
Y73800D01*
Y73000D01*
Y72200D01*
X74400D01*
Y73000D01*
Y73800D01*
X76000D01*
Y73000D01*
Y72200D01*
Y71400D01*
Y70600D01*
X77600D01*
Y69800D01*
Y69000D01*
X79200D01*
Y68200D01*
Y67400D01*
X77600D01*
Y68200D01*
Y69000D01*
X74400D01*
Y69800D01*
Y70600D01*
X72800D01*
Y71400D01*
Y72200D01*
X71200D01*
Y71400D01*
Y70600D01*
X72800D01*
Y69800D01*
Y69000D01*
X71200D01*
Y69800D01*
Y70600D01*
X68000D01*
Y71400D01*
Y72200D01*
X63200D01*
Y73000D01*
Y73800D01*
X60000D01*
Y74600D01*
Y75400D01*
X58400D01*
Y76200D01*
Y77000D01*
X56800D01*
Y77800D01*
Y78600D01*
Y79400D01*
Y80200D01*
X53600D01*
Y81000D01*
Y81800D01*
X50400D01*
Y81000D01*
Y80200D01*
X48800D01*
Y81000D01*
Y81800D01*
Y82600D01*
Y83400D01*
X47200D01*
Y84200D01*
Y85000D01*
Y85800D01*
Y86600D01*
X45600D01*
Y87400D01*
Y88200D01*
X44000D01*
Y89000D01*
Y89800D01*
X40800D01*
Y90600D01*
Y91400D01*
Y92200D01*
Y93000D01*
X39200D01*
Y93800D01*
Y94600D01*
X42400D01*
Y93800D01*
Y93000D01*
Y92200D01*
Y91400D01*
X44000D01*
Y90600D01*
Y89800D01*
X48800D01*
Y89000D01*
Y88200D01*
X50400D01*
Y87400D01*
Y86600D01*
X52000D01*
Y85800D01*
Y85000D01*
X55200D01*
Y84200D01*
Y83400D01*
Y82600D01*
Y81800D01*
X60000D01*
Y81000D01*
Y80200D01*
X61600D01*
Y79400D01*
Y78600D01*
X60000D01*
Y77800D01*
Y77000D01*
X61600D01*
Y76200D01*
Y75400D01*
X63200D01*
Y74600D01*
Y73800D01*
X64800D01*
Y74600D01*
Y75400D01*
X63200D01*
Y76200D01*
Y77000D01*
X64800D01*
Y76200D01*
Y75400D01*
X69600D01*
Y74600D01*
Y73800D01*
X71200D01*
Y74600D01*
Y75400D01*
X69600D01*
Y76200D01*
Y77000D01*
X68000D01*
Y77800D01*
Y78600D01*
X69600D01*
Y79400D01*
Y80200D01*
X66400D01*
Y81000D01*
Y81800D01*
Y82600D01*
Y83400D01*
X64800D01*
Y84200D01*
Y85000D01*
Y85800D01*
Y86600D01*
Y87400D01*
Y88200D01*
X63200D01*
Y89000D01*
Y89800D01*
Y90600D01*
Y91400D01*
X61600D01*
Y90600D01*
Y89800D01*
Y89000D01*
Y88200D01*
X63200D01*
Y87400D01*
Y86600D01*
Y85800D01*
Y85000D01*
Y84200D01*
Y83400D01*
X64800D01*
Y82600D01*
Y81800D01*
X63200D01*
Y82600D01*
Y83400D01*
X61600D01*
Y82600D01*
Y81800D01*
X63200D01*
Y81000D01*
Y80200D01*
X61600D01*
Y81000D01*
Y81800D01*
X60000D01*
Y82600D01*
Y83400D01*
Y84200D01*
Y85000D01*
Y85800D01*
Y86600D01*
X58400D01*
Y87400D01*
Y88200D01*
X56800D01*
Y89000D01*
Y89800D01*
Y90600D01*
Y91400D01*
X58400D01*
Y90600D01*
Y89800D01*
X60000D01*
Y90600D01*
Y91400D01*
X58400D01*
Y92200D01*
Y93000D01*
X61600D01*
Y93800D01*
Y94600D01*
Y95400D01*
Y96200D01*
X58400D01*
Y95400D01*
Y94600D01*
X56800D01*
Y93800D01*
Y93000D01*
X55200D01*
Y92200D01*
Y91400D01*
X53600D01*
Y90600D01*
Y89800D01*
X55200D01*
Y89000D01*
Y88200D01*
X56800D01*
Y87400D01*
Y86600D01*
Y85800D01*
Y85000D01*
X55200D01*
Y85800D01*
Y86600D01*
Y87400D01*
Y88200D01*
X53600D01*
Y89000D01*
Y89800D01*
X52000D01*
Y90600D01*
Y91400D01*
X50400D01*
Y92200D01*
Y93000D01*
Y93800D01*
Y94600D01*
X52000D01*
Y93800D01*
Y93000D01*
X53600D01*
Y93800D01*
Y94600D01*
X55200D01*
Y95400D01*
Y96200D01*
X52000D01*
Y97000D01*
Y97800D01*
X66400D01*
Y97000D01*
D02*
G37*
G36*
X29600Y74600D02*
Y73800D01*
X28000D01*
Y74600D01*
Y75400D01*
X29600D01*
Y74600D01*
D02*
G37*
G36*
X79200D02*
Y73800D01*
Y73000D01*
Y72200D01*
X77600D01*
Y73000D01*
Y73800D01*
Y74600D01*
Y75400D01*
X79200D01*
Y74600D01*
D02*
G37*
G36*
X34400Y71400D02*
Y70600D01*
X32800D01*
Y71400D01*
Y72200D01*
X34400D01*
Y71400D01*
D02*
G37*
G36*
X31200D02*
Y70600D01*
X32800D01*
Y69800D01*
Y69000D01*
Y68200D01*
Y67400D01*
X31200D01*
Y68200D01*
Y69000D01*
X29600D01*
Y69800D01*
Y70600D01*
X28000D01*
Y71400D01*
Y72200D01*
X31200D01*
Y71400D01*
D02*
G37*
G36*
X28000Y69800D02*
Y69000D01*
X29600D01*
Y68200D01*
Y67400D01*
Y66600D01*
Y65800D01*
X26400D01*
Y66600D01*
Y67400D01*
X28000D01*
Y68200D01*
Y69000D01*
X26400D01*
Y69800D01*
Y70600D01*
X28000D01*
Y69800D01*
D02*
G37*
G36*
X74400Y66600D02*
Y65800D01*
Y65000D01*
Y64200D01*
X72800D01*
Y65000D01*
Y65800D01*
Y66600D01*
Y67400D01*
X74400D01*
Y66600D01*
D02*
G37*
G36*
X79200Y65000D02*
Y64200D01*
Y63400D01*
Y62600D01*
X77600D01*
Y63400D01*
Y64200D01*
Y65000D01*
Y65800D01*
X79200D01*
Y65000D01*
D02*
G37*
G36*
X52000Y76200D02*
Y75400D01*
Y74600D01*
Y73800D01*
X53600D01*
Y74600D01*
Y75400D01*
X55200D01*
Y74600D01*
Y73800D01*
Y73000D01*
Y72200D01*
X61600D01*
Y71400D01*
Y70600D01*
X66400D01*
Y69800D01*
Y69000D01*
X69600D01*
Y68200D01*
Y67400D01*
X71200D01*
Y66600D01*
Y65800D01*
Y65000D01*
Y64200D01*
X72800D01*
Y63400D01*
Y62600D01*
X74400D01*
Y61800D01*
Y61000D01*
X76000D01*
Y60200D01*
Y59400D01*
X79200D01*
Y58600D01*
Y57800D01*
X76000D01*
Y58600D01*
Y59400D01*
X74400D01*
Y60200D01*
Y61000D01*
X71200D01*
Y60200D01*
Y59400D01*
X69600D01*
Y60200D01*
Y61000D01*
X68000D01*
Y61800D01*
Y62600D01*
X66400D01*
Y63400D01*
Y64200D01*
X68000D01*
Y63400D01*
Y62600D01*
X71200D01*
Y63400D01*
Y64200D01*
X68000D01*
Y65000D01*
Y65800D01*
X63200D01*
Y66600D01*
Y67400D01*
X61600D01*
Y66600D01*
Y65800D01*
X60000D01*
Y66600D01*
Y67400D01*
X58400D01*
Y68200D01*
Y69000D01*
X56800D01*
Y69800D01*
Y70600D01*
X55200D01*
Y71400D01*
Y72200D01*
X53600D01*
Y71400D01*
Y70600D01*
X55200D01*
Y69800D01*
Y69000D01*
X56800D01*
Y68200D01*
Y67400D01*
X58400D01*
Y66600D01*
Y65800D01*
X60000D01*
Y65000D01*
Y64200D01*
X56800D01*
Y65000D01*
Y65800D01*
X53600D01*
Y66600D01*
Y67400D01*
Y68200D01*
Y69000D01*
X52000D01*
Y69800D01*
Y70600D01*
X50400D01*
Y71400D01*
Y72200D01*
X48800D01*
Y73000D01*
Y73800D01*
X50400D01*
Y74600D01*
Y75400D01*
X48800D01*
Y76200D01*
Y77000D01*
X52000D01*
Y76200D01*
D02*
G37*
G36*
X64800Y63400D02*
Y62600D01*
X63200D01*
Y63400D01*
Y64200D01*
X64800D01*
Y63400D01*
D02*
G37*
G36*
X74400Y58600D02*
Y57800D01*
X72800D01*
Y58600D01*
Y59400D01*
X74400D01*
Y58600D01*
D02*
G37*
G36*
X68000Y60200D02*
Y59400D01*
X69600D01*
Y58600D01*
Y57800D01*
X68000D01*
Y58600D01*
Y59400D01*
X66400D01*
Y60200D01*
Y61000D01*
X68000D01*
Y60200D01*
D02*
G37*
G36*
X56800Y63400D02*
Y62600D01*
X61600D01*
Y61800D01*
Y61000D01*
X63200D01*
Y60200D01*
Y59400D01*
X66400D01*
Y58600D01*
Y57800D01*
Y57000D01*
Y56200D01*
Y55400D01*
Y54600D01*
X64800D01*
Y55400D01*
Y56200D01*
Y57000D01*
Y57800D01*
X63200D01*
Y57000D01*
Y56200D01*
X60000D01*
Y57000D01*
Y57800D01*
Y58600D01*
Y59400D01*
X61600D01*
Y60200D01*
Y61000D01*
X55200D01*
Y61800D01*
Y62600D01*
Y63400D01*
Y64200D01*
X56800D01*
Y63400D01*
D02*
G37*
G36*
X50400Y50600D02*
Y49800D01*
X48800D01*
Y50600D01*
Y51400D01*
X50400D01*
Y50600D01*
D02*
G37*
G36*
X44000Y52200D02*
Y51400D01*
X45600D01*
Y50600D01*
Y49800D01*
X44000D01*
Y50600D01*
Y51400D01*
X42400D01*
Y52200D01*
Y53000D01*
X44000D01*
Y52200D01*
D02*
G37*
G36*
X50400Y61800D02*
Y61000D01*
X52000D01*
Y60200D01*
Y59400D01*
Y58600D01*
Y57800D01*
X53600D01*
Y58600D01*
Y59400D01*
X58400D01*
Y58600D01*
Y57800D01*
X55200D01*
Y57000D01*
Y56200D01*
Y55400D01*
Y54600D01*
X56800D01*
Y55400D01*
Y56200D01*
X58400D01*
Y55400D01*
Y54600D01*
X60000D01*
Y53800D01*
Y53000D01*
X61600D01*
Y53800D01*
Y54600D01*
X64800D01*
Y53800D01*
Y53000D01*
X66400D01*
Y52200D01*
Y51400D01*
X64800D01*
Y50600D01*
Y49800D01*
Y49000D01*
Y48200D01*
X63200D01*
Y49000D01*
Y49800D01*
X61600D01*
Y49000D01*
Y48200D01*
X60000D01*
Y49000D01*
Y49800D01*
X55200D01*
Y50600D01*
Y51400D01*
X52000D01*
Y52200D01*
Y53000D01*
Y53800D01*
Y54600D01*
Y55400D01*
Y56200D01*
X50400D01*
Y55400D01*
Y54600D01*
X48800D01*
Y55400D01*
Y56200D01*
Y57000D01*
Y57800D01*
X50400D01*
Y58600D01*
Y59400D01*
Y60200D01*
Y61000D01*
X48800D01*
Y61800D01*
Y62600D01*
X50400D01*
Y61800D01*
D02*
G37*
G36*
X60000Y47400D02*
Y46600D01*
X58400D01*
Y47400D01*
Y48200D01*
X60000D01*
Y47400D01*
D02*
G37*
G36*
X79200Y55400D02*
Y54600D01*
Y53800D01*
Y53000D01*
Y52200D01*
Y51400D01*
Y50600D01*
Y49800D01*
Y49000D01*
Y48200D01*
Y47400D01*
Y46600D01*
Y45800D01*
Y45000D01*
X68000D01*
Y45800D01*
Y46600D01*
Y47400D01*
Y48200D01*
Y49000D01*
Y49800D01*
Y50600D01*
Y51400D01*
Y52200D01*
Y53000D01*
Y53800D01*
Y54600D01*
Y55400D01*
Y56200D01*
X79200D01*
Y55400D01*
D02*
G37*
G36*
X66400Y45800D02*
Y45000D01*
X64800D01*
Y45800D01*
Y46600D01*
X66400D01*
Y45800D01*
D02*
G37*
G36*
X63200D02*
Y45000D01*
X61600D01*
Y45800D01*
Y46600D01*
X63200D01*
Y45800D01*
D02*
G37*
G36*
X28000D02*
Y45000D01*
X26400D01*
Y45800D01*
Y46600D01*
X28000D01*
Y45800D01*
D02*
G37*
%LPC*%
G36*
X77600Y96200D02*
X69600D01*
Y95400D01*
Y94600D01*
Y93800D01*
Y93000D01*
Y92200D01*
Y91400D01*
Y90600D01*
Y89800D01*
Y89000D01*
Y88200D01*
X77600D01*
Y89000D01*
Y89800D01*
Y90600D01*
Y91400D01*
Y92200D01*
Y93000D01*
Y93800D01*
Y94600D01*
Y95400D01*
Y96200D01*
D02*
G37*
%LPD*%
G36*
X76000Y93800D02*
Y93000D01*
Y92200D01*
Y91400D01*
Y90600D01*
Y89800D01*
X71200D01*
Y90600D01*
Y91400D01*
Y92200D01*
Y93000D01*
Y93800D01*
Y94600D01*
X76000D01*
Y93800D01*
D02*
G37*
%LPC*%
G36*
X36000Y96200D02*
X28000D01*
Y95400D01*
Y94600D01*
Y93800D01*
Y93000D01*
Y92200D01*
Y91400D01*
Y90600D01*
Y89800D01*
Y89000D01*
Y88200D01*
X36000D01*
Y89000D01*
Y89800D01*
Y90600D01*
Y91400D01*
Y92200D01*
Y93000D01*
Y93800D01*
Y94600D01*
Y95400D01*
Y96200D01*
D02*
G37*
%LPD*%
G36*
X34400Y93800D02*
Y93000D01*
Y92200D01*
Y91400D01*
Y90600D01*
Y89800D01*
X29600D01*
Y90600D01*
Y91400D01*
Y92200D01*
Y93000D01*
Y93800D01*
Y94600D01*
X34400D01*
Y93800D01*
D02*
G37*
%LPC*%
G36*
X40800Y73800D02*
X39200D01*
Y73000D01*
Y72200D01*
X40800D01*
Y71400D01*
Y70600D01*
X42400D01*
Y69800D01*
Y69000D01*
Y68200D01*
Y67400D01*
X44000D01*
Y68200D01*
Y69000D01*
X47200D01*
Y68200D01*
Y67400D01*
X50400D01*
Y68200D01*
Y69000D01*
X48800D01*
Y69800D01*
Y70600D01*
X42400D01*
Y71400D01*
Y72200D01*
X40800D01*
Y73000D01*
Y73800D01*
D02*
G37*
G36*
X44000Y61000D02*
X42400D01*
Y60200D01*
Y59400D01*
X44000D01*
Y60200D01*
Y61000D01*
D02*
G37*
G36*
X39200Y57800D02*
X34400D01*
Y57000D01*
Y56200D01*
Y55400D01*
Y54600D01*
Y53800D01*
Y53000D01*
X39200D01*
Y53800D01*
Y54600D01*
Y55400D01*
Y56200D01*
Y57000D01*
Y57800D01*
D02*
G37*
%LPD*%
G36*
X37600Y55400D02*
Y54600D01*
X36000D01*
Y55400D01*
Y56200D01*
X37600D01*
Y55400D01*
D02*
G37*
%LPC*%
G36*
X61600Y88200D02*
X60000D01*
Y87400D01*
Y86600D01*
X61600D01*
Y87400D01*
Y88200D01*
D02*
G37*
G36*
X48800D02*
X47200D01*
Y87400D01*
Y86600D01*
X48800D01*
Y87400D01*
Y88200D01*
D02*
G37*
G36*
X50400Y85000D02*
X48800D01*
Y84200D01*
Y83400D01*
X50400D01*
Y84200D01*
Y85000D01*
D02*
G37*
G36*
X69600Y83400D02*
X68000D01*
Y82600D01*
Y81800D01*
X69600D01*
Y82600D01*
Y83400D01*
D02*
G37*
G36*
Y73800D02*
X68000D01*
Y73000D01*
Y72200D01*
X69600D01*
Y73000D01*
Y73800D01*
D02*
G37*
G36*
X60000Y70600D02*
X58400D01*
Y69800D01*
Y69000D01*
X60000D01*
Y69800D01*
Y70600D01*
D02*
G37*
G36*
X66400Y69000D02*
X63200D01*
Y68200D01*
Y67400D01*
X66400D01*
Y68200D01*
Y69000D01*
D02*
G37*
G36*
X69600Y67400D02*
X68000D01*
Y66600D01*
Y65800D01*
X69600D01*
Y66600D01*
Y67400D01*
D02*
G37*
G36*
X58400Y53000D02*
X55200D01*
Y52200D01*
Y51400D01*
X58400D01*
Y52200D01*
Y53000D01*
D02*
G37*
G36*
X77600Y54600D02*
X69600D01*
Y53800D01*
Y53000D01*
Y52200D01*
Y51400D01*
Y50600D01*
Y49800D01*
Y49000D01*
Y48200D01*
Y47400D01*
Y46600D01*
X77600D01*
Y47400D01*
Y48200D01*
Y49000D01*
Y49800D01*
Y50600D01*
Y51400D01*
Y52200D01*
Y53000D01*
Y53800D01*
Y54600D01*
D02*
G37*
%LPD*%
G36*
X76000Y52200D02*
Y51400D01*
Y50600D01*
Y49800D01*
Y49000D01*
Y48200D01*
X71200D01*
Y49000D01*
Y49800D01*
Y50600D01*
Y51400D01*
Y52200D01*
Y53000D01*
X76000D01*
Y52200D01*
D02*
G37*
D10*
X2400Y2400D02*
X10800D01*
X2400D02*
Y23400D01*
X10800D01*
Y2400D02*
Y23400D01*
D12*
X18400Y167399D02*
Y163400D01*
Y167399D02*
X15734Y163400D01*
Y167399D02*
Y163400D01*
X11773Y166447D02*
X11963Y166828D01*
X12344Y167209D01*
X12725Y167399D01*
X13487D01*
X13868Y167209D01*
X14248Y166828D01*
X14439Y166447D01*
X14629Y165876D01*
Y164924D01*
X14439Y164352D01*
X14248Y163971D01*
X13868Y163590D01*
X13487Y163400D01*
X12725D01*
X12344Y163590D01*
X11963Y163971D01*
X11773Y164352D01*
X16715Y77399D02*
X18619D01*
X18810Y75685D01*
X18619Y75876D01*
X18048Y76066D01*
X17477D01*
X16905Y75876D01*
X16524Y75495D01*
X16334Y74923D01*
Y74543D01*
X16524Y73971D01*
X16905Y73590D01*
X17477Y73400D01*
X18048D01*
X18619Y73590D01*
X18810Y73781D01*
X19000Y74162D01*
X15439Y77399D02*
X13915Y73400D01*
X12392Y77399D02*
X13915Y73400D01*
X21619Y87599D02*
X19524D01*
X20667Y86076D01*
X20096D01*
X19715Y85885D01*
X19524Y85695D01*
X19334Y85123D01*
Y84743D01*
X19524Y84171D01*
X19905Y83790D01*
X20477Y83600D01*
X21048D01*
X21619Y83790D01*
X21810Y83981D01*
X22000Y84362D01*
X18439Y87599D02*
X16915Y83600D01*
X15392Y87599D02*
X16915Y83600D01*
X14497Y87599D02*
X12402D01*
X13545Y86076D01*
X12973D01*
X12593Y85885D01*
X12402Y85695D01*
X12212Y85123D01*
Y84743D01*
X12402Y84171D01*
X12783Y83790D01*
X13354Y83600D01*
X13926D01*
X14497Y83790D01*
X14687Y83981D01*
X14878Y84362D01*
X19143Y96847D02*
X19334Y97228D01*
X19715Y97609D01*
X20096Y97799D01*
X20857D01*
X21238Y97609D01*
X21619Y97228D01*
X21810Y96847D01*
X22000Y96276D01*
Y95323D01*
X21810Y94752D01*
X21619Y94371D01*
X21238Y93990D01*
X20857Y93800D01*
X20096D01*
X19715Y93990D01*
X19334Y94371D01*
X19143Y94752D01*
Y95323D01*
X20096D02*
X19143D01*
X18229Y97799D02*
Y93800D01*
Y97799D02*
X15563Y93800D01*
Y97799D02*
Y93800D01*
X14459Y97799D02*
Y93800D01*
Y97799D02*
X13126D01*
X12554Y97609D01*
X12173Y97228D01*
X11983Y96847D01*
X11793Y96276D01*
Y95323D01*
X11983Y94752D01*
X12173Y94371D01*
X12554Y93990D01*
X13126Y93800D01*
X14459D01*
X114372Y7799D02*
X111706Y3800D01*
Y7799D02*
X114372Y3800D01*
X109668Y7799D02*
X110239Y7609D01*
X110620Y7037D01*
X110810Y6085D01*
Y5514D01*
X110620Y4562D01*
X110239Y3990D01*
X109668Y3800D01*
X109287D01*
X108716Y3990D01*
X108335Y4562D01*
X108144Y5514D01*
Y6085D01*
X108335Y7037D01*
X108716Y7609D01*
X109287Y7799D01*
X109668D01*
X107249D02*
Y3800D01*
Y7799D02*
X105916D01*
X105345Y7609D01*
X104964Y7228D01*
X104774Y6847D01*
X104583Y6276D01*
Y5324D01*
X104774Y4752D01*
X104964Y4371D01*
X105345Y3990D01*
X105916Y3800D01*
X107249D01*
X103688Y7037D02*
X103307Y7228D01*
X102736Y7799D01*
Y3800D01*
X98851Y7799D02*
X100755Y5133D01*
X97899D01*
X98851Y7799D02*
Y3800D01*
X94052Y7799D02*
Y3800D01*
X88168Y7799D02*
X90072Y5133D01*
X87216D01*
X88168Y7799D02*
Y3800D01*
X83654Y6847D02*
X83845Y7228D01*
X84226Y7609D01*
X84606Y7799D01*
X85368D01*
X85749Y7609D01*
X86130Y7228D01*
X86320Y6847D01*
X86511Y6276D01*
Y5324D01*
X86320Y4752D01*
X86130Y4371D01*
X85749Y3990D01*
X85368Y3800D01*
X84606D01*
X84226Y3990D01*
X83845Y4371D01*
X83654Y4752D01*
X114372Y17812D02*
X111706Y13813D01*
Y17812D02*
X114372Y13813D01*
X109668Y17812D02*
X110239Y17621D01*
X110620Y17050D01*
X110810Y16098D01*
Y15526D01*
X110620Y14574D01*
X110239Y14003D01*
X109668Y13813D01*
X109287D01*
X108716Y14003D01*
X108335Y14574D01*
X108144Y15526D01*
Y16098D01*
X108335Y17050D01*
X108716Y17621D01*
X109287Y17812D01*
X109668D01*
X107249D02*
Y13813D01*
Y17812D02*
X105916D01*
X105345Y17621D01*
X104964Y17240D01*
X104774Y16860D01*
X104583Y16288D01*
Y15336D01*
X104774Y14765D01*
X104964Y14384D01*
X105345Y14003D01*
X105916Y13813D01*
X107249D01*
X103688Y17050D02*
X103307Y17240D01*
X102736Y17812D01*
Y13813D01*
X98470Y17812D02*
X100375D01*
X100565Y16098D01*
X100375Y16288D01*
X99803Y16479D01*
X99232D01*
X98661Y16288D01*
X98280Y15907D01*
X98089Y15336D01*
Y14955D01*
X98280Y14384D01*
X98661Y14003D01*
X99232Y13813D01*
X99803D01*
X100375Y14003D01*
X100565Y14193D01*
X100755Y14574D01*
X94052Y17812D02*
Y13813D01*
X88168Y17812D02*
X90072Y15146D01*
X87216D01*
X88168Y17812D02*
Y13813D01*
X83654Y16860D02*
X83845Y17240D01*
X84226Y17621D01*
X84606Y17812D01*
X85368D01*
X85749Y17621D01*
X86130Y17240D01*
X86320Y16860D01*
X86511Y16288D01*
Y15336D01*
X86320Y14765D01*
X86130Y14384D01*
X85749Y14003D01*
X85368Y13813D01*
X84606D01*
X84226Y14003D01*
X83845Y14384D01*
X83654Y14765D01*
X115000Y27824D02*
X112334Y23825D01*
Y27824D02*
X115000Y23825D01*
X110296Y27824D02*
X110868Y27634D01*
X111248Y27062D01*
X111439Y26110D01*
Y25539D01*
X111248Y24587D01*
X110868Y24015D01*
X110296Y23825D01*
X109915D01*
X109344Y24015D01*
X108963Y24587D01*
X108773Y25539D01*
Y26110D01*
X108963Y27062D01*
X109344Y27634D01*
X109915Y27824D01*
X110296D01*
X107878D02*
Y23825D01*
Y27824D02*
X106545D01*
X105973Y27634D01*
X105593Y27253D01*
X105402Y26872D01*
X105212Y26301D01*
Y25348D01*
X105402Y24777D01*
X105593Y24396D01*
X105973Y24015D01*
X106545Y23825D01*
X107878D01*
X104126Y26872D02*
Y27062D01*
X103936Y27443D01*
X103745Y27634D01*
X103364Y27824D01*
X102603D01*
X102222Y27634D01*
X102031Y27443D01*
X101841Y27062D01*
Y26682D01*
X102031Y26301D01*
X102412Y25729D01*
X104317Y23825D01*
X101651D01*
X99613Y27824D02*
X100184Y27634D01*
X100565Y27062D01*
X100755Y26110D01*
Y25539D01*
X100565Y24587D01*
X100184Y24015D01*
X99613Y23825D01*
X99232D01*
X98661Y24015D01*
X98280Y24587D01*
X98089Y25539D01*
Y26110D01*
X98280Y27062D01*
X98661Y27634D01*
X99232Y27824D01*
X99613D01*
X94052D02*
Y23825D01*
X88168Y27824D02*
X90072Y25158D01*
X87216D01*
X88168Y27824D02*
Y23825D01*
X83654Y26872D02*
X83845Y27253D01*
X84226Y27634D01*
X84606Y27824D01*
X85368D01*
X85749Y27634D01*
X86130Y27253D01*
X86320Y26872D01*
X86511Y26301D01*
Y25348D01*
X86320Y24777D01*
X86130Y24396D01*
X85749Y24015D01*
X85368Y23825D01*
X84606D01*
X84226Y24015D01*
X83845Y24396D01*
X83654Y24777D01*
X114372Y37837D02*
X111706Y33838D01*
Y37837D02*
X114372Y33838D01*
X109668Y37837D02*
X110239Y37646D01*
X110620Y37075D01*
X110810Y36123D01*
Y35551D01*
X110620Y34599D01*
X110239Y34028D01*
X109668Y33838D01*
X109287D01*
X108716Y34028D01*
X108335Y34599D01*
X108144Y35551D01*
Y36123D01*
X108335Y37075D01*
X108716Y37646D01*
X109287Y37837D01*
X109668D01*
X107249D02*
Y33838D01*
Y37837D02*
X105916D01*
X105345Y37646D01*
X104964Y37265D01*
X104774Y36884D01*
X104583Y36313D01*
Y35361D01*
X104774Y34790D01*
X104964Y34409D01*
X105345Y34028D01*
X105916Y33838D01*
X107249D01*
X103498Y36884D02*
Y37075D01*
X103307Y37456D01*
X103117Y37646D01*
X102736Y37837D01*
X101974D01*
X101593Y37646D01*
X101403Y37456D01*
X101213Y37075D01*
Y36694D01*
X101403Y36313D01*
X101784Y35742D01*
X103688Y33838D01*
X101022D01*
X100127Y37075D02*
X99746Y37265D01*
X99175Y37837D01*
Y33838D01*
X94052Y37837D02*
Y33838D01*
X88168Y37837D02*
X90072Y35171D01*
X87216D01*
X88168Y37837D02*
Y33838D01*
X83654Y36884D02*
X83845Y37265D01*
X84226Y37646D01*
X84606Y37837D01*
X85368D01*
X85749Y37646D01*
X86130Y37265D01*
X86320Y36884D01*
X86511Y36313D01*
Y35361D01*
X86320Y34790D01*
X86130Y34409D01*
X85749Y34028D01*
X85368Y33838D01*
X84606D01*
X84226Y34028D01*
X83845Y34409D01*
X83654Y34790D01*
X113972Y47849D02*
X111306Y43850D01*
Y47849D02*
X113972Y43850D01*
X109268Y47849D02*
X109839Y47659D01*
X110220Y47087D01*
X110410Y46135D01*
Y45564D01*
X110220Y44612D01*
X109839Y44040D01*
X109268Y43850D01*
X108887D01*
X108316Y44040D01*
X107935Y44612D01*
X107744Y45564D01*
Y46135D01*
X107935Y47087D01*
X108316Y47659D01*
X108887Y47849D01*
X109268D01*
X106849D02*
Y43850D01*
Y47849D02*
X105516D01*
X104945Y47659D01*
X104564Y47278D01*
X104374Y46897D01*
X104183Y46326D01*
Y45373D01*
X104374Y44802D01*
X104564Y44421D01*
X104945Y44040D01*
X105516Y43850D01*
X106849D01*
X103288Y47087D02*
X102907Y47278D01*
X102336Y47849D01*
Y43850D01*
X98070Y47278D02*
X98261Y47659D01*
X98832Y47849D01*
X99213D01*
X99784Y47659D01*
X100165Y47087D01*
X100356Y46135D01*
Y45183D01*
X100165Y44421D01*
X99784Y44040D01*
X99213Y43850D01*
X99023D01*
X98451Y44040D01*
X98070Y44421D01*
X97880Y44993D01*
Y45183D01*
X98070Y45754D01*
X98451Y46135D01*
X99023Y46326D01*
X99213D01*
X99784Y46135D01*
X100165Y45754D01*
X100356Y45183D01*
X93862Y47849D02*
Y43850D01*
X87977Y47849D02*
X89882Y45183D01*
X87025D01*
X87977Y47849D02*
Y43850D01*
X86321Y47849D02*
Y43850D01*
Y47849D02*
X84987D01*
X84416Y47659D01*
X84035Y47278D01*
X83845Y46897D01*
X83654Y46326D01*
Y45373D01*
X83845Y44802D01*
X84035Y44421D01*
X84416Y44040D01*
X84987Y43850D01*
X86321D01*
X114181Y57862D02*
X111515Y53863D01*
Y57862D02*
X114181Y53863D01*
X109477Y57862D02*
X110049Y57671D01*
X110430Y57100D01*
X110620Y56148D01*
Y55576D01*
X110430Y54624D01*
X110049Y54053D01*
X109477Y53863D01*
X109097D01*
X108525Y54053D01*
X108144Y54624D01*
X107954Y55576D01*
Y56148D01*
X108144Y57100D01*
X108525Y57671D01*
X109097Y57862D01*
X109477D01*
X107059D02*
Y53863D01*
Y57862D02*
X105726D01*
X105155Y57671D01*
X104774Y57290D01*
X104583Y56910D01*
X104393Y56338D01*
Y55386D01*
X104583Y54815D01*
X104774Y54434D01*
X105155Y54053D01*
X105726Y53863D01*
X107059D01*
X103498Y57100D02*
X103117Y57290D01*
X102545Y57862D01*
Y53863D01*
X97899Y57862D02*
X99803Y53863D01*
X100565Y57862D02*
X97899D01*
X93862D02*
Y53863D01*
X87977Y57862D02*
X89882Y55196D01*
X87025D01*
X87977Y57862D02*
Y53863D01*
X86321Y57862D02*
Y53863D01*
Y57862D02*
X84987D01*
X84416Y57671D01*
X84035Y57290D01*
X83845Y56910D01*
X83654Y56338D01*
Y55386D01*
X83845Y54815D01*
X84035Y54434D01*
X84416Y54053D01*
X84987Y53863D01*
X86321D01*
X114181Y67874D02*
X111515Y63875D01*
Y67874D02*
X114181Y63875D01*
X109477Y67874D02*
X110049Y67684D01*
X110430Y67112D01*
X110620Y66160D01*
Y65589D01*
X110430Y64637D01*
X110049Y64065D01*
X109477Y63875D01*
X109097D01*
X108525Y64065D01*
X108144Y64637D01*
X107954Y65589D01*
Y66160D01*
X108144Y67112D01*
X108525Y67684D01*
X109097Y67874D01*
X109477D01*
X107059D02*
Y63875D01*
Y67874D02*
X105726D01*
X105155Y67684D01*
X104774Y67303D01*
X104583Y66922D01*
X104393Y66351D01*
Y65399D01*
X104583Y64827D01*
X104774Y64446D01*
X105155Y64065D01*
X105726Y63875D01*
X107059D01*
X103498Y67112D02*
X103117Y67303D01*
X102545Y67874D01*
Y63875D01*
X99613Y67874D02*
X100184Y67684D01*
X100375Y67303D01*
Y66922D01*
X100184Y66541D01*
X99803Y66351D01*
X99041Y66160D01*
X98470Y65970D01*
X98089Y65589D01*
X97899Y65208D01*
Y64637D01*
X98089Y64256D01*
X98280Y64065D01*
X98851Y63875D01*
X99613D01*
X100184Y64065D01*
X100375Y64256D01*
X100565Y64637D01*
Y65208D01*
X100375Y65589D01*
X99994Y65970D01*
X99422Y66160D01*
X98661Y66351D01*
X98280Y66541D01*
X98089Y66922D01*
Y67303D01*
X98280Y67684D01*
X98851Y67874D01*
X99613D01*
X93862D02*
Y63875D01*
X87977Y67874D02*
X89882Y65208D01*
X87025D01*
X87977Y67874D02*
Y63875D01*
X86321Y67874D02*
Y63875D01*
Y67874D02*
X84987D01*
X84416Y67684D01*
X84035Y67303D01*
X83845Y66922D01*
X83654Y66351D01*
Y65399D01*
X83845Y64827D01*
X84035Y64446D01*
X84416Y64065D01*
X84987Y63875D01*
X86321D01*
X114181Y77887D02*
X111515Y73887D01*
Y77887D02*
X114181Y73887D01*
X109477Y77887D02*
X110049Y77696D01*
X110430Y77125D01*
X110620Y76173D01*
Y75601D01*
X110430Y74649D01*
X110049Y74078D01*
X109477Y73887D01*
X109097D01*
X108525Y74078D01*
X108144Y74649D01*
X107954Y75601D01*
Y76173D01*
X108144Y77125D01*
X108525Y77696D01*
X109097Y77887D01*
X109477D01*
X107059D02*
Y73887D01*
Y77887D02*
X105726D01*
X105155Y77696D01*
X104774Y77315D01*
X104583Y76934D01*
X104393Y76363D01*
Y75411D01*
X104583Y74840D01*
X104774Y74459D01*
X105155Y74078D01*
X105726Y73887D01*
X107059D01*
X103498Y77125D02*
X103117Y77315D01*
X102545Y77887D01*
Y73887D01*
X98089Y76554D02*
X98280Y75982D01*
X98661Y75601D01*
X99232Y75411D01*
X99422D01*
X99994Y75601D01*
X100375Y75982D01*
X100565Y76554D01*
Y76744D01*
X100375Y77315D01*
X99994Y77696D01*
X99422Y77887D01*
X99232D01*
X98661Y77696D01*
X98280Y77315D01*
X98089Y76554D01*
Y75601D01*
X98280Y74649D01*
X98661Y74078D01*
X99232Y73887D01*
X99613D01*
X100184Y74078D01*
X100375Y74459D01*
X93862Y77887D02*
Y73887D01*
X87977Y77887D02*
X89882Y75221D01*
X87025D01*
X87977Y77887D02*
Y73887D01*
X86321Y77887D02*
Y73887D01*
Y77887D02*
X84987D01*
X84416Y77696D01*
X84035Y77315D01*
X83845Y76934D01*
X83654Y76363D01*
Y75411D01*
X83845Y74840D01*
X84035Y74459D01*
X84416Y74078D01*
X84987Y73887D01*
X86321D01*
X113800Y87899D02*
X111134Y83900D01*
Y87899D02*
X113800Y83900D01*
X109097Y87899D02*
X109668Y87709D01*
X110049Y87137D01*
X110239Y86185D01*
Y85614D01*
X110049Y84662D01*
X109668Y84090D01*
X109097Y83900D01*
X108716D01*
X108144Y84090D01*
X107764Y84662D01*
X107573Y85614D01*
Y86185D01*
X107764Y87137D01*
X108144Y87709D01*
X108716Y87899D01*
X109097D01*
X106678D02*
Y83900D01*
Y87899D02*
X105345D01*
X104774Y87709D01*
X104393Y87328D01*
X104202Y86947D01*
X104012Y86376D01*
Y85423D01*
X104202Y84852D01*
X104393Y84471D01*
X104774Y84090D01*
X105345Y83900D01*
X106678D01*
X102736Y87899D02*
X100641D01*
X101784Y86376D01*
X101213D01*
X100832Y86185D01*
X100641Y85995D01*
X100451Y85423D01*
Y85043D01*
X100641Y84471D01*
X101022Y84090D01*
X101593Y83900D01*
X102165D01*
X102736Y84090D01*
X102926Y84281D01*
X103117Y84662D01*
X97271Y87899D02*
X99175D01*
X99365Y86185D01*
X99175Y86376D01*
X98603Y86566D01*
X98032D01*
X97461Y86376D01*
X97080Y85995D01*
X96890Y85423D01*
Y85043D01*
X97080Y84471D01*
X97461Y84090D01*
X98032Y83900D01*
X98603D01*
X99175Y84090D01*
X99365Y84281D01*
X99556Y84662D01*
X92852Y87899D02*
Y83900D01*
X88872Y87137D02*
X88491Y87328D01*
X87920Y87899D01*
Y83900D01*
X85940Y87899D02*
Y83900D01*
X83654D01*
X114410Y97912D02*
X111744Y93913D01*
Y97912D02*
X114410Y93913D01*
X109706Y97912D02*
X110277Y97721D01*
X110658Y97150D01*
X110848Y96198D01*
Y95626D01*
X110658Y94674D01*
X110277Y94103D01*
X109706Y93913D01*
X109325D01*
X108754Y94103D01*
X108373Y94674D01*
X108182Y95626D01*
Y96198D01*
X108373Y97150D01*
X108754Y97721D01*
X109325Y97912D01*
X109706D01*
X107287D02*
Y93913D01*
Y97912D02*
X105954D01*
X105383Y97721D01*
X105002Y97340D01*
X104812Y96960D01*
X104621Y96388D01*
Y95436D01*
X104812Y94865D01*
X105002Y94484D01*
X105383Y94103D01*
X105954Y93913D01*
X107287D01*
X103536Y96960D02*
Y97150D01*
X103345Y97531D01*
X103155Y97721D01*
X102774Y97912D01*
X102012D01*
X101631Y97721D01*
X101441Y97531D01*
X101251Y97150D01*
Y96769D01*
X101441Y96388D01*
X101822Y95817D01*
X103726Y93913D01*
X101060D01*
X97880Y97340D02*
X98070Y97721D01*
X98642Y97912D01*
X99023D01*
X99594Y97721D01*
X99975Y97150D01*
X100165Y96198D01*
Y95246D01*
X99975Y94484D01*
X99594Y94103D01*
X99023Y93913D01*
X98832D01*
X98261Y94103D01*
X97880Y94484D01*
X97689Y95055D01*
Y95246D01*
X97880Y95817D01*
X98261Y96198D01*
X98832Y96388D01*
X99023D01*
X99594Y96198D01*
X99975Y95817D01*
X100165Y95246D01*
X93671Y97912D02*
Y93913D01*
X87787Y97912D02*
X89691Y95246D01*
X86835D01*
X87787Y97912D02*
Y93913D01*
X83654Y97912D02*
X86130D01*
Y93913D01*
X83654D01*
X86130Y96007D02*
X84606D01*
X114619Y107924D02*
X111953Y103925D01*
Y107924D02*
X114619Y103925D01*
X109915Y107924D02*
X110487Y107734D01*
X110868Y107162D01*
X111058Y106210D01*
Y105639D01*
X110868Y104687D01*
X110487Y104115D01*
X109915Y103925D01*
X109535D01*
X108963Y104115D01*
X108582Y104687D01*
X108392Y105639D01*
Y106210D01*
X108582Y107162D01*
X108963Y107734D01*
X109535Y107924D01*
X109915D01*
X107497D02*
Y103925D01*
Y107924D02*
X106164D01*
X105593Y107734D01*
X105212Y107353D01*
X105021Y106972D01*
X104831Y106401D01*
Y105448D01*
X105021Y104877D01*
X105212Y104496D01*
X105593Y104115D01*
X106164Y103925D01*
X107497D01*
X103745Y106972D02*
Y107162D01*
X103555Y107543D01*
X103364Y107734D01*
X102983Y107924D01*
X102222D01*
X101841Y107734D01*
X101651Y107543D01*
X101460Y107162D01*
Y106781D01*
X101651Y106401D01*
X102031Y105829D01*
X103936Y103925D01*
X101270D01*
X97708Y107924D02*
X99613Y103925D01*
X100375Y107924D02*
X97708D01*
X93671D02*
Y103925D01*
X87787Y107924D02*
X89691Y105258D01*
X86835D01*
X87787Y107924D02*
Y103925D01*
X83654Y107924D02*
X86130D01*
Y103925D01*
X83654D01*
X86130Y106020D02*
X84606D01*
X114619Y117937D02*
X111953Y113937D01*
Y117937D02*
X114619Y113937D01*
X109915Y117937D02*
X110487Y117746D01*
X110868Y117175D01*
X111058Y116223D01*
Y115651D01*
X110868Y114699D01*
X110487Y114128D01*
X109915Y113937D01*
X109535D01*
X108963Y114128D01*
X108582Y114699D01*
X108392Y115651D01*
Y116223D01*
X108582Y117175D01*
X108963Y117746D01*
X109535Y117937D01*
X109915D01*
X107497D02*
Y113937D01*
Y117937D02*
X106164D01*
X105593Y117746D01*
X105212Y117365D01*
X105021Y116984D01*
X104831Y116413D01*
Y115461D01*
X105021Y114890D01*
X105212Y114509D01*
X105593Y114128D01*
X106164Y113937D01*
X107497D01*
X103555Y117937D02*
X101460D01*
X102603Y116413D01*
X102031D01*
X101651Y116223D01*
X101460Y116032D01*
X101270Y115461D01*
Y115080D01*
X101460Y114509D01*
X101841Y114128D01*
X102412Y113937D01*
X102983D01*
X103555Y114128D01*
X103745Y114318D01*
X103936Y114699D01*
X100184Y116984D02*
Y117175D01*
X99994Y117556D01*
X99803Y117746D01*
X99422Y117937D01*
X98661D01*
X98280Y117746D01*
X98089Y117556D01*
X97899Y117175D01*
Y116794D01*
X98089Y116413D01*
X98470Y115842D01*
X100375Y113937D01*
X97708D01*
X93671Y117937D02*
Y113937D01*
X87787Y117937D02*
X89691Y115271D01*
X86835D01*
X87787Y117937D02*
Y113937D01*
X83654Y117937D02*
X86130D01*
Y113937D01*
X83654D01*
X86130Y116032D02*
X84606D01*
X114619Y127949D02*
X111953Y123950D01*
Y127949D02*
X114619Y123950D01*
X109915Y127949D02*
X110487Y127759D01*
X110868Y127187D01*
X111058Y126235D01*
Y125664D01*
X110868Y124712D01*
X110487Y124140D01*
X109915Y123950D01*
X109535D01*
X108963Y124140D01*
X108582Y124712D01*
X108392Y125664D01*
Y126235D01*
X108582Y127187D01*
X108963Y127759D01*
X109535Y127949D01*
X109915D01*
X107497D02*
Y123950D01*
Y127949D02*
X106164D01*
X105593Y127759D01*
X105212Y127378D01*
X105021Y126997D01*
X104831Y126426D01*
Y125473D01*
X105021Y124902D01*
X105212Y124521D01*
X105593Y124140D01*
X106164Y123950D01*
X107497D01*
X103745Y126997D02*
Y127187D01*
X103555Y127568D01*
X103364Y127759D01*
X102983Y127949D01*
X102222D01*
X101841Y127759D01*
X101651Y127568D01*
X101460Y127187D01*
Y126806D01*
X101651Y126426D01*
X102031Y125854D01*
X103936Y123950D01*
X101270D01*
X99422Y127949D02*
X99994Y127759D01*
X100184Y127378D01*
Y126997D01*
X99994Y126616D01*
X99613Y126426D01*
X98851Y126235D01*
X98280Y126045D01*
X97899Y125664D01*
X97708Y125283D01*
Y124712D01*
X97899Y124331D01*
X98089Y124140D01*
X98661Y123950D01*
X99422D01*
X99994Y124140D01*
X100184Y124331D01*
X100375Y124712D01*
Y125283D01*
X100184Y125664D01*
X99803Y126045D01*
X99232Y126235D01*
X98470Y126426D01*
X98089Y126616D01*
X97899Y126997D01*
Y127378D01*
X98089Y127759D01*
X98661Y127949D01*
X99422D01*
X93671D02*
Y123950D01*
X87787Y127949D02*
X89691Y125283D01*
X86835D01*
X87787Y127949D02*
Y123950D01*
X86130Y127949D02*
Y123950D01*
Y127949D02*
X83654D01*
X86130Y126045D02*
X84606D01*
X114619Y137962D02*
X111953Y133963D01*
Y137962D02*
X114619Y133963D01*
X109915Y137962D02*
X110487Y137771D01*
X110868Y137200D01*
X111058Y136248D01*
Y135676D01*
X110868Y134724D01*
X110487Y134153D01*
X109915Y133963D01*
X109535D01*
X108963Y134153D01*
X108582Y134724D01*
X108392Y135676D01*
Y136248D01*
X108582Y137200D01*
X108963Y137771D01*
X109535Y137962D01*
X109915D01*
X107497D02*
Y133963D01*
Y137962D02*
X106164D01*
X105593Y137771D01*
X105212Y137390D01*
X105021Y137010D01*
X104831Y136438D01*
Y135486D01*
X105021Y134915D01*
X105212Y134534D01*
X105593Y134153D01*
X106164Y133963D01*
X107497D01*
X103555Y137962D02*
X101460D01*
X102603Y136438D01*
X102031D01*
X101651Y136248D01*
X101460Y136057D01*
X101270Y135486D01*
Y135105D01*
X101460Y134534D01*
X101841Y134153D01*
X102412Y133963D01*
X102983D01*
X103555Y134153D01*
X103745Y134343D01*
X103936Y134724D01*
X99994Y137962D02*
X97899D01*
X99041Y136438D01*
X98470D01*
X98089Y136248D01*
X97899Y136057D01*
X97708Y135486D01*
Y135105D01*
X97899Y134534D01*
X98280Y134153D01*
X98851Y133963D01*
X99422D01*
X99994Y134153D01*
X100184Y134343D01*
X100375Y134724D01*
X93671Y137962D02*
Y133963D01*
X87787Y137962D02*
X89691Y135296D01*
X86835D01*
X87787Y137962D02*
Y133963D01*
X83654Y137962D02*
X86130D01*
Y133963D01*
X83654D01*
X86130Y136057D02*
X84606D01*
X114619Y147974D02*
X111953Y143975D01*
Y147974D02*
X114619Y143975D01*
X109915Y147974D02*
X110487Y147784D01*
X110868Y147212D01*
X111058Y146260D01*
Y145689D01*
X110868Y144737D01*
X110487Y144165D01*
X109915Y143975D01*
X109535D01*
X108963Y144165D01*
X108582Y144737D01*
X108392Y145689D01*
Y146260D01*
X108582Y147212D01*
X108963Y147784D01*
X109535Y147974D01*
X109915D01*
X107497D02*
Y143975D01*
Y147974D02*
X106164D01*
X105593Y147784D01*
X105212Y147403D01*
X105021Y147022D01*
X104831Y146451D01*
Y145499D01*
X105021Y144927D01*
X105212Y144546D01*
X105593Y144165D01*
X106164Y143975D01*
X107497D01*
X103745Y147022D02*
Y147212D01*
X103555Y147593D01*
X103364Y147784D01*
X102983Y147974D01*
X102222D01*
X101841Y147784D01*
X101651Y147593D01*
X101460Y147212D01*
Y146832D01*
X101651Y146451D01*
X102031Y145879D01*
X103936Y143975D01*
X101270D01*
X97899Y146641D02*
X98089Y146070D01*
X98470Y145689D01*
X99041Y145499D01*
X99232D01*
X99803Y145689D01*
X100184Y146070D01*
X100375Y146641D01*
Y146832D01*
X100184Y147403D01*
X99803Y147784D01*
X99232Y147974D01*
X99041D01*
X98470Y147784D01*
X98089Y147403D01*
X97899Y146641D01*
Y145689D01*
X98089Y144737D01*
X98470Y144165D01*
X99041Y143975D01*
X99422D01*
X99994Y144165D01*
X100184Y144546D01*
X93671Y147974D02*
Y143975D01*
X87787Y147974D02*
X89691Y145308D01*
X86835D01*
X87787Y147974D02*
Y143975D01*
X86130Y147974D02*
Y143975D01*
Y147974D02*
X83654D01*
X86130Y146070D02*
X84606D01*
X114619Y157987D02*
X111953Y153988D01*
Y157987D02*
X114619Y153988D01*
X109915Y157987D02*
X110487Y157796D01*
X110868Y157225D01*
X111058Y156273D01*
Y155701D01*
X110868Y154749D01*
X110487Y154178D01*
X109915Y153988D01*
X109535D01*
X108963Y154178D01*
X108582Y154749D01*
X108392Y155701D01*
Y156273D01*
X108582Y157225D01*
X108963Y157796D01*
X109535Y157987D01*
X109915D01*
X107497D02*
Y153988D01*
Y157987D02*
X106164D01*
X105593Y157796D01*
X105212Y157415D01*
X105021Y157035D01*
X104831Y156463D01*
Y155511D01*
X105021Y154940D01*
X105212Y154559D01*
X105593Y154178D01*
X106164Y153988D01*
X107497D01*
X103555Y157987D02*
X101460D01*
X102603Y156463D01*
X102031D01*
X101651Y156273D01*
X101460Y156082D01*
X101270Y155511D01*
Y155130D01*
X101460Y154559D01*
X101841Y154178D01*
X102412Y153988D01*
X102983D01*
X103555Y154178D01*
X103745Y154368D01*
X103936Y154749D01*
X99232Y157987D02*
X99803Y157796D01*
X100184Y157225D01*
X100375Y156273D01*
Y155701D01*
X100184Y154749D01*
X99803Y154178D01*
X99232Y153988D01*
X98851D01*
X98280Y154178D01*
X97899Y154749D01*
X97708Y155701D01*
Y156273D01*
X97899Y157225D01*
X98280Y157796D01*
X98851Y157987D01*
X99232D01*
X93671D02*
Y153988D01*
X87787Y157987D02*
X89691Y155321D01*
X86835D01*
X87787Y157987D02*
Y153988D01*
X86130Y157987D02*
Y153988D01*
Y157987D02*
X83654D01*
X86130Y156082D02*
X84606D01*
X113991Y167999D02*
X111325Y164000D01*
Y167999D02*
X113991Y164000D01*
X109287Y167999D02*
X109858Y167809D01*
X110239Y167237D01*
X110430Y166285D01*
Y165714D01*
X110239Y164762D01*
X109858Y164190D01*
X109287Y164000D01*
X108906D01*
X108335Y164190D01*
X107954Y164762D01*
X107764Y165714D01*
Y166285D01*
X107954Y167237D01*
X108335Y167809D01*
X108906Y167999D01*
X109287D01*
X106868D02*
Y164000D01*
Y167999D02*
X105535D01*
X104964Y167809D01*
X104583Y167428D01*
X104393Y167047D01*
X104202Y166476D01*
Y165524D01*
X104393Y164952D01*
X104583Y164571D01*
X104964Y164190D01*
X105535Y164000D01*
X106868D01*
X102926Y167999D02*
X100832D01*
X101974Y166476D01*
X101403D01*
X101022Y166285D01*
X100832Y166095D01*
X100641Y165524D01*
Y165143D01*
X100832Y164571D01*
X101213Y164190D01*
X101784Y164000D01*
X102355D01*
X102926Y164190D01*
X103117Y164381D01*
X103307Y164762D01*
X99746Y167237D02*
X99365Y167428D01*
X98794Y167999D01*
Y164000D01*
X93671Y167999D02*
Y164000D01*
X87787Y167999D02*
X89691Y165333D01*
X86835D01*
X87787Y167999D02*
Y164000D01*
X86130Y167999D02*
Y164000D01*
Y167999D02*
X83654D01*
X86130Y166095D02*
X84606D01*
X42251Y107018D02*
X41870Y107208D01*
X41299Y107779D01*
Y103780D01*
X39318Y107779D02*
Y103780D01*
Y107779D02*
X37985D01*
X37414Y107589D01*
X37033Y107208D01*
X36843Y106827D01*
X36652Y106256D01*
Y105304D01*
X36843Y104732D01*
X37033Y104352D01*
X37414Y103971D01*
X37985Y103780D01*
X39318D01*
X32615Y107779D02*
Y103780D01*
X28635Y107779D02*
X25969Y103780D01*
Y107779D02*
X28635Y103780D01*
X23931Y107779D02*
X24502Y107589D01*
X24883Y107018D01*
X25074Y106065D01*
Y105494D01*
X24883Y104542D01*
X24502Y103971D01*
X23931Y103780D01*
X23550D01*
X22979Y103971D01*
X22598Y104542D01*
X22408Y105494D01*
Y106065D01*
X22598Y107018D01*
X22979Y107589D01*
X23550Y107779D01*
X23931D01*
X21512D02*
Y103780D01*
Y107779D02*
X20179D01*
X19608Y107589D01*
X19227Y107208D01*
X19037Y106827D01*
X18846Y106256D01*
Y105304D01*
X19037Y104732D01*
X19227Y104352D01*
X19608Y103971D01*
X20179Y103780D01*
X21512D01*
X17951Y107018D02*
X17570Y107208D01*
X16999Y107779D01*
Y103780D01*
X15019Y107018D02*
X14638Y107208D01*
X14066Y107779D01*
Y103780D01*
X42251Y116978D02*
X41870Y117168D01*
X41299Y117739D01*
Y113740D01*
X36271D02*
X37795Y117739D01*
X39318Y113740D01*
X38747Y115073D02*
X36843D01*
X32196Y117739D02*
Y113740D01*
X28216Y117739D02*
X25550Y113740D01*
Y117739D02*
X28216Y113740D01*
X23512Y117739D02*
X24083Y117549D01*
X24464Y116978D01*
X24655Y116025D01*
Y115454D01*
X24464Y114502D01*
X24083Y113931D01*
X23512Y113740D01*
X23131D01*
X22560Y113931D01*
X22179Y114502D01*
X21989Y115454D01*
Y116025D01*
X22179Y116978D01*
X22560Y117549D01*
X23131Y117739D01*
X23512D01*
X21093D02*
Y113740D01*
Y117739D02*
X19760D01*
X19189Y117549D01*
X18808Y117168D01*
X18618Y116787D01*
X18427Y116216D01*
Y115264D01*
X18618Y114692D01*
X18808Y114312D01*
X19189Y113931D01*
X19760Y113740D01*
X21093D01*
X16390Y117739D02*
X16961Y117549D01*
X17342Y116978D01*
X17532Y116025D01*
Y115454D01*
X17342Y114502D01*
X16961Y113931D01*
X16390Y113740D01*
X16009D01*
X15438Y113931D01*
X15057Y114502D01*
X14866Y115454D01*
Y116025D01*
X15057Y116978D01*
X15438Y117549D01*
X16009Y117739D01*
X16390D01*
X12829D02*
X13400Y117549D01*
X13781Y116978D01*
X13971Y116025D01*
Y115454D01*
X13781Y114502D01*
X13400Y113931D01*
X12829Y113740D01*
X12448D01*
X11876Y113931D01*
X11496Y114502D01*
X11305Y115454D01*
Y116025D01*
X11496Y116978D01*
X11876Y117549D01*
X12448Y117739D01*
X12829D01*
X42251Y126938D02*
X41870Y127128D01*
X41299Y127699D01*
Y123700D01*
X39318Y125605D02*
X37604D01*
X37033Y125795D01*
X36843Y125986D01*
X36652Y126366D01*
Y126938D01*
X36843Y127319D01*
X37033Y127509D01*
X37604Y127699D01*
X39318D01*
Y123700D01*
X32615Y127699D02*
Y123700D01*
X28635Y127699D02*
X25969Y123700D01*
Y127699D02*
X28635Y123700D01*
X23931Y127699D02*
X24502Y127509D01*
X24883Y126938D01*
X25074Y125986D01*
Y125414D01*
X24883Y124462D01*
X24502Y123891D01*
X23931Y123700D01*
X23550D01*
X22979Y123891D01*
X22598Y124462D01*
X22408Y125414D01*
Y125986D01*
X22598Y126938D01*
X22979Y127509D01*
X23550Y127699D01*
X23931D01*
X21512D02*
Y123700D01*
Y127699D02*
X20179D01*
X19608Y127509D01*
X19227Y127128D01*
X19037Y126747D01*
X18846Y126176D01*
Y125224D01*
X19037Y124652D01*
X19227Y124272D01*
X19608Y123891D01*
X20179Y123700D01*
X21512D01*
X17570Y127699D02*
X15476D01*
X16618Y126176D01*
X16047D01*
X15666Y125986D01*
X15476Y125795D01*
X15285Y125224D01*
Y124843D01*
X15476Y124272D01*
X15856Y123891D01*
X16428Y123700D01*
X16999D01*
X17570Y123891D01*
X17761Y124081D01*
X17951Y124462D01*
X11914Y126366D02*
X12105Y125795D01*
X12486Y125414D01*
X13057Y125224D01*
X13248D01*
X13819Y125414D01*
X14200Y125795D01*
X14390Y126366D01*
Y126557D01*
X14200Y127128D01*
X13819Y127509D01*
X13248Y127699D01*
X13057D01*
X12486Y127509D01*
X12105Y127128D01*
X11914Y126366D01*
Y125414D01*
X12105Y124462D01*
X12486Y123891D01*
X13057Y123700D01*
X13438D01*
X14009Y123891D01*
X14200Y124272D01*
X42251Y136898D02*
X41870Y137088D01*
X41299Y137659D01*
Y133660D01*
X38175Y137659D02*
X38556Y137469D01*
X38937Y137088D01*
X39128Y136707D01*
X39318Y136136D01*
Y135184D01*
X39128Y134612D01*
X38937Y134232D01*
X38556Y133851D01*
X38175Y133660D01*
X37414D01*
X37033Y133851D01*
X36652Y134232D01*
X36462Y134612D01*
X36271Y135184D01*
Y136136D01*
X36462Y136707D01*
X36652Y137088D01*
X37033Y137469D01*
X37414Y137659D01*
X38175D01*
X32196D02*
Y133660D01*
X28216Y137659D02*
X25550Y133660D01*
Y137659D02*
X28216Y133660D01*
X23512Y137659D02*
X24083Y137469D01*
X24464Y136898D01*
X24655Y135945D01*
Y135374D01*
X24464Y134422D01*
X24083Y133851D01*
X23512Y133660D01*
X23131D01*
X22560Y133851D01*
X22179Y134422D01*
X21989Y135374D01*
Y135945D01*
X22179Y136898D01*
X22560Y137469D01*
X23131Y137659D01*
X23512D01*
X21093D02*
Y133660D01*
Y137659D02*
X19760D01*
X19189Y137469D01*
X18808Y137088D01*
X18618Y136707D01*
X18427Y136136D01*
Y135184D01*
X18618Y134612D01*
X18808Y134232D01*
X19189Y133851D01*
X19760Y133660D01*
X21093D01*
X17152Y137659D02*
X15057D01*
X16199Y136136D01*
X15628D01*
X15247Y135945D01*
X15057Y135755D01*
X14866Y135184D01*
Y134803D01*
X15057Y134232D01*
X15438Y133851D01*
X16009Y133660D01*
X16580D01*
X17152Y133851D01*
X17342Y134041D01*
X17532Y134422D01*
X13019Y137659D02*
X13590Y137469D01*
X13781Y137088D01*
Y136707D01*
X13590Y136326D01*
X13209Y136136D01*
X12448Y135945D01*
X11876Y135755D01*
X11496Y135374D01*
X11305Y134993D01*
Y134422D01*
X11496Y134041D01*
X11686Y133851D01*
X12257Y133660D01*
X13019D01*
X13590Y133851D01*
X13781Y134041D01*
X13971Y134422D01*
Y134993D01*
X13781Y135374D01*
X13400Y135755D01*
X12829Y135945D01*
X12067Y136136D01*
X11686Y136326D01*
X11496Y136707D01*
Y137088D01*
X11686Y137469D01*
X12257Y137659D01*
X13019D01*
X42251Y146858D02*
X41870Y147048D01*
X41299Y147619D01*
Y143620D01*
X39318Y147619D02*
Y143620D01*
Y147619D02*
X37795Y143620D01*
X36271Y147619D02*
X37795Y143620D01*
X36271Y147619D02*
Y143620D01*
X31986Y147619D02*
Y143620D01*
X28006Y147619D02*
X25340Y143620D01*
Y147619D02*
X28006Y143620D01*
X23302Y147619D02*
X23874Y147429D01*
X24255Y146858D01*
X24445Y145905D01*
Y145334D01*
X24255Y144382D01*
X23874Y143811D01*
X23302Y143620D01*
X22922D01*
X22350Y143811D01*
X21970Y144382D01*
X21779Y145334D01*
Y145905D01*
X21970Y146858D01*
X22350Y147429D01*
X22922Y147619D01*
X23302D01*
X20884D02*
Y143620D01*
Y147619D02*
X19551D01*
X18980Y147429D01*
X18599Y147048D01*
X18408Y146667D01*
X18218Y146096D01*
Y145144D01*
X18408Y144572D01*
X18599Y144192D01*
X18980Y143811D01*
X19551Y143620D01*
X20884D01*
X16942Y147619D02*
X14847D01*
X15990Y146096D01*
X15418D01*
X15038Y145905D01*
X14847Y145715D01*
X14657Y145144D01*
Y144763D01*
X14847Y144192D01*
X15228Y143811D01*
X15799Y143620D01*
X16371D01*
X16942Y143811D01*
X17132Y144001D01*
X17323Y144382D01*
X11477Y147048D02*
X11667Y147429D01*
X12238Y147619D01*
X12619D01*
X13190Y147429D01*
X13571Y146858D01*
X13762Y145905D01*
Y144953D01*
X13571Y144192D01*
X13190Y143811D01*
X12619Y143620D01*
X12429D01*
X11857Y143811D01*
X11477Y144192D01*
X11286Y144763D01*
Y144953D01*
X11477Y145525D01*
X11857Y145905D01*
X12429Y146096D01*
X12619D01*
X13190Y145905D01*
X13571Y145525D01*
X13762Y144953D01*
X42251Y156818D02*
X41870Y157008D01*
X41299Y157579D01*
Y153580D01*
X39318Y157579D02*
Y153580D01*
Y157579D02*
X36652Y153580D01*
Y157579D02*
Y153580D01*
X32405Y157579D02*
Y153580D01*
X28425Y157579D02*
X25759Y153580D01*
Y157579D02*
X28425Y153580D01*
X23721Y157579D02*
X24293Y157389D01*
X24674Y156818D01*
X24864Y155866D01*
Y155294D01*
X24674Y154342D01*
X24293Y153771D01*
X23721Y153580D01*
X23341D01*
X22769Y153771D01*
X22388Y154342D01*
X22198Y155294D01*
Y155866D01*
X22388Y156818D01*
X22769Y157389D01*
X23341Y157579D01*
X23721D01*
X21303D02*
Y153580D01*
Y157579D02*
X19970D01*
X19399Y157389D01*
X19018Y157008D01*
X18827Y156627D01*
X18637Y156056D01*
Y155104D01*
X18827Y154532D01*
X19018Y154152D01*
X19399Y153771D01*
X19970Y153580D01*
X21303D01*
X17361Y157579D02*
X15266D01*
X16409Y156056D01*
X15837D01*
X15457Y155866D01*
X15266Y155675D01*
X15076Y155104D01*
Y154723D01*
X15266Y154152D01*
X15647Y153771D01*
X16218Y153580D01*
X16790D01*
X17361Y153771D01*
X17551Y153961D01*
X17742Y154342D01*
X11515Y157579D02*
X13419Y153580D01*
X14181Y157579D02*
X11515D01*
D80*
X77151Y118200D02*
X77116Y119198D01*
X77010Y120191D01*
X76835Y121175D01*
X76591Y122143D01*
X76279Y123092D01*
X75900Y124016D01*
X75458Y124912D01*
X74953Y125774D01*
X74389Y126598D01*
X73769Y127381D01*
X73094Y128118D01*
X72369Y128805D01*
X71598Y129439D01*
X70784Y130018D01*
X69931Y130537D01*
X69043Y130996D01*
X68126Y131390D01*
X67182Y131719D01*
X66218Y131980D01*
X65238Y132173D01*
X64247Y132296D01*
X63250Y132349D01*
X62251Y132331D01*
X61256Y132243D01*
X60270Y132085D01*
X59297Y131858D01*
X58343Y131563D01*
X57412Y131201D01*
X56509Y130774D01*
X55638Y130285D01*
X54804Y129736D01*
X54011Y129129D01*
X53262Y128468D01*
X52562Y127755D01*
X51914Y126995D01*
X51321Y126191D01*
X50787Y125347D01*
X50313Y124468D01*
X49902Y123558D01*
X49557Y122620D01*
X49279Y121661D01*
X49069Y120685D01*
X48928Y119696D01*
X48858Y118699D01*
X48858Y117701D01*
X48928Y116704D01*
X49069Y115715D01*
X49279Y114739D01*
X49557Y113780D01*
X49902Y112842D01*
X50313Y111932D01*
X50787Y111053D01*
X51321Y110209D01*
X51914Y109405D01*
X52562Y108645D01*
X53262Y107932D01*
X54011Y107271D01*
X54804Y106664D01*
X55638Y106115D01*
X56509Y105626D01*
X57412Y105199D01*
X58343Y104837D01*
X59297Y104542D01*
X60270Y104315D01*
X61256Y104157D01*
X62251Y104069D01*
X63250Y104051D01*
X64247Y104104D01*
X65238Y104227D01*
X66218Y104420D01*
X67182Y104681D01*
X68126Y105010D01*
X69043Y105404D01*
X69931Y105862D01*
X70784Y106382D01*
X71598Y106961D01*
X72369Y107595D01*
X73094Y108282D01*
X73769Y109019D01*
X74389Y109802D01*
X74953Y110626D01*
X75458Y111488D01*
X75900Y112383D01*
X76279Y113308D01*
X76591Y114257D01*
X76835Y115225D01*
X77010Y116209D01*
X77116Y117202D01*
X77151Y118200D01*
M02*
