M48
;Layer_Color=9474304
;FILE_FORMAT=2:5
INCH,LZ
;TYPE=PLATED
T1F00S00C0.01181
T3F00S00C0.03543
;TYPE=NON_PLATED
T4F00S00C0.02559
%
T01
X00066Y00312
X00546Y0023622
Y0017717
X00684Y00126
Y0009
X0063Y00066
X00648Y003
X007874Y0030709
Y0028268
X00924Y003
X00912Y0015
X009148Y00444
X0095472Y0050629
X01014Y00546
X00978Y00882
X00936Y00906
X009Y00918
X00924Y0099
X00906Y0111
X01002Y01092
X01044Y01236
X0096Y012495
X0093601Y01434
X009Y01536
X00984Y0165
X0108Y01446
X0081Y01488
X00798Y0153
X00738
X00702Y0153437
X00642Y01536
X00564Y0153
X0052153Y01572
X00474Y01554
X00432Y0159
X0038752Y01572
X0027
X00198Y01554
X00186Y01446
X0015Y01314
X00156Y0123129
X00234Y01242
X003Y0124016
X00288Y01284
X00312Y01308
X00342Y0128924
Y0132887
X00462Y01386
X0055905Y0133071
Y0128347
Y0123622
Y0118898
X006063
X0065354
X0070079
Y0123622
X0065354
X006063
Y0128347
X0065354
X0070079
Y0133071
X0065354
X006063
X0058071Y01434
X0063989
X0072063
X00798Y0132874
X0075787Y01086
X0067913
X0054134
X00546Y00978
X00522Y00954
X00534Y00882
X0053531Y0080663
X00486Y0075
X00528Y00684
X00438Y00612
X00372Y00588
X00366Y00684
X00312Y00792
X0024Y00942
X0028484Y01104
X0033Y01134
X003Y0117126
X00234Y0117
X00174Y01098
X0040354Y0108
X00462Y01122
X00438Y00954
X0069882Y0093012
X00696Y00852
X00636Y00774
X00642Y00612
X00708Y00606
X0075885
X0081596
X00864
X0082284Y004685
Y0043307
Y0039764
X007874
X0075197
Y0043307
X007874
Y004685
X0075197
X0066Y00444
X0062048Y0050682
X00534Y00516
X00588Y00582
X00432Y00474
X004311Y00366
X0036417Y0036
X00318Y0040617
X0023819Y00366
X00258Y00474
X00186Y0048
X00102Y00516
X0006Y00522
X00168Y00648
X00504Y00396
X00816Y0080713
X00852Y00786
X00864Y01068
X0087Y01602
X00768
X0075Y01692
X00636Y01686
X00594
T03
X0120079Y0005906
Y0015905
Y0025905
Y0035906
Y0045906
Y0055905
Y0065905
Y0075906
Y0085905
Y0095906
Y0105905
Y0115905
Y0125906
Y0135906
Y0145905
Y0155905
Y0165905
X0107992Y0176102
Y0186102
X0097992
Y0176102
X0087992
Y0186102
X0077992
Y0176102
X0067992
Y0186102
X0057992
Y0176102
X0047992
Y0186102
X0037992
Y0176102
X0027992
Y0186102
X0017992
Y0176102
X0005906Y0165905
Y0155905
Y0145905
Y0135906
Y0125906
Y0115905
Y0105905
Y0095906
Y0085905
Y0075906
T04
X0022087Y0025827
X0044842
M30
