G04*
G04 #@! TF.GenerationSoftware,Altium Limited,Altium Designer,20.0.11 (256)*
G04*
G04 Layer_Color=2752767*
%FSLAX25Y25*%
%MOIN*%
G70*
G01*
G75*
%ADD13C,0.00591*%
%ADD103C,0.00394*%
%ADD105C,0.00200*%
%ADD106C,0.00945*%
%ADD107C,0.00827*%
D13*
X150521Y51248D02*
X150375Y52214D01*
X149950Y53096D01*
X149285Y53812D01*
X148438Y54302D01*
X147485Y54519D01*
X146510Y54446D01*
X145599Y54089D01*
X144835Y53479D01*
X144284Y52671D01*
X143995Y51736D01*
Y50758D01*
X144284Y49824D01*
X144835Y49016D01*
X145599Y48406D01*
X146510Y48049D01*
X147485Y47976D01*
X148438Y48193D01*
X149285Y48682D01*
X149950Y49399D01*
X150375Y50280D01*
X150521Y51248D01*
X147240Y77494D02*
X150521Y84056D01*
X143959D02*
X150521D01*
X143959D02*
X147240Y77494D01*
X145599Y64371D02*
X147240Y62730D01*
X143959Y64371D02*
X145599D01*
X143959D02*
X145599Y66011D01*
X143959Y67652D02*
X145599Y66011D01*
X143959Y67652D02*
X145599D01*
X147240Y69292D01*
X148880Y67652D01*
X150521D01*
X148880Y66011D02*
X150521Y67652D01*
X148880Y66011D02*
X150521Y64371D01*
X148880D02*
X150521D01*
X147240Y62730D02*
X148880Y64371D01*
X143959Y33203D02*
X150521D01*
Y39764D01*
X143959D02*
X150521D01*
X143959Y33203D02*
Y39764D01*
Y18439D02*
X147240Y20079D01*
X150521Y18439D01*
X148880Y21720D02*
X150521Y18439D01*
X148880Y21720D02*
X150521Y25001D01*
X147240Y23360D02*
X150521Y25001D01*
X143959D02*
X147240Y23360D01*
X143959Y25001D02*
X145599Y21720D01*
X143959Y18439D02*
X145599Y21720D01*
X588940Y77494D02*
Y83398D01*
X591892D01*
X592876Y82414D01*
Y80446D01*
X591892Y79462D01*
X588940D01*
X590908D02*
X592876Y77494D01*
X595828D02*
X597796D01*
X598780Y78478D01*
Y80446D01*
X597796Y81430D01*
X595828D01*
X594844Y80446D01*
Y78478D01*
X595828Y77494D01*
X600747Y81430D02*
Y78478D01*
X601731Y77494D01*
X604683D01*
Y81430D01*
X606651Y77494D02*
Y81430D01*
X609603D01*
X610587Y80446D01*
Y77494D01*
X616490Y83398D02*
Y77494D01*
X613539D01*
X612555Y78478D01*
Y80446D01*
X613539Y81430D01*
X616490D01*
X621410Y77494D02*
X619442D01*
X618458Y78478D01*
Y80446D01*
X619442Y81430D01*
X621410D01*
X622394Y80446D01*
Y79462D01*
X618458D01*
X628298Y83398D02*
Y77494D01*
X625346D01*
X624362Y78478D01*
Y80446D01*
X625346Y81430D01*
X628298D01*
X588940Y62730D02*
Y68634D01*
X591892D01*
X592876Y67650D01*
Y65682D01*
X591892Y64698D01*
X588940D01*
X590908D02*
X592876Y62730D01*
X595828D02*
X597796D01*
X598780Y63714D01*
Y65682D01*
X597796Y66666D01*
X595828D01*
X594844Y65682D01*
Y63714D01*
X595828Y62730D01*
X600747Y66666D02*
Y63714D01*
X601731Y62730D01*
X604683D01*
Y66666D01*
X606651Y62730D02*
Y66666D01*
X609603D01*
X610587Y65682D01*
Y62730D01*
X616490Y68634D02*
Y62730D01*
X613539D01*
X612555Y63714D01*
Y65682D01*
X613539Y66666D01*
X616490D01*
X621410Y62730D02*
X619442D01*
X618458Y63714D01*
Y65682D01*
X619442Y66666D01*
X621410D01*
X622394Y65682D01*
Y64698D01*
X618458D01*
X628298Y68634D02*
Y62730D01*
X625346D01*
X624362Y63714D01*
Y65682D01*
X625346Y66666D01*
X628298D01*
X588940Y47967D02*
Y53870D01*
X591892D01*
X592876Y52886D01*
Y50918D01*
X591892Y49935D01*
X588940D01*
X590908D02*
X592876Y47967D01*
X595828D02*
X597796D01*
X598780Y48951D01*
Y50918D01*
X597796Y51902D01*
X595828D01*
X594844Y50918D01*
Y48951D01*
X595828Y47967D01*
X600747Y51902D02*
Y48951D01*
X601731Y47967D01*
X604683D01*
Y51902D01*
X606651Y47967D02*
Y51902D01*
X609603D01*
X610587Y50918D01*
Y47967D01*
X616490Y53870D02*
Y47967D01*
X613539D01*
X612555Y48951D01*
Y50918D01*
X613539Y51902D01*
X616490D01*
X621410Y47967D02*
X619442D01*
X618458Y48951D01*
Y50918D01*
X619442Y51902D01*
X621410D01*
X622394Y50918D01*
Y49935D01*
X618458D01*
X628298Y53870D02*
Y47967D01*
X625346D01*
X624362Y48951D01*
Y50918D01*
X625346Y51902D01*
X628298D01*
X590908Y33203D02*
X588940Y35171D01*
Y37139D01*
X590908Y39107D01*
X593860Y33203D02*
Y39107D01*
X595828Y37139D01*
X597796Y39107D01*
Y33203D01*
X599763D02*
X601731D01*
X600747D01*
Y37139D01*
X599763D01*
X604683D02*
X608619Y33203D01*
X606651Y35171D01*
X608619Y37139D01*
X604683Y33203D01*
X613539D02*
X611571D01*
X610587Y34187D01*
Y36155D01*
X611571Y37139D01*
X613539D01*
X614523Y36155D01*
Y35171D01*
X610587D01*
X620426Y39107D02*
Y33203D01*
X617474D01*
X616490Y34187D01*
Y36155D01*
X617474Y37139D01*
X620426D01*
X622394Y33203D02*
X624362Y35171D01*
Y37139D01*
X622394Y39107D01*
X588940Y18439D02*
Y24343D01*
X591892D01*
X592876Y23359D01*
Y21391D01*
X591892Y20407D01*
X588940D01*
X590908D02*
X592876Y18439D01*
X595828D02*
X597796D01*
X598780Y19423D01*
Y21391D01*
X597796Y22375D01*
X595828D01*
X594844Y21391D01*
Y19423D01*
X595828Y18439D01*
X600747Y22375D02*
Y19423D01*
X601731Y18439D01*
X604683D01*
Y22375D01*
X606651Y18439D02*
Y22375D01*
X609603D01*
X610587Y21391D01*
Y18439D01*
X616490Y24343D02*
Y18439D01*
X613539D01*
X612555Y19423D01*
Y21391D01*
X613539Y22375D01*
X616490D01*
X621410Y18439D02*
X619442D01*
X618458Y19423D01*
Y21391D01*
X619442Y22375D01*
X621410D01*
X622394Y21391D01*
Y20407D01*
X618458D01*
X628298Y24343D02*
Y18439D01*
X625346D01*
X624362Y19423D01*
Y21391D01*
X625346Y22375D01*
X628298D01*
X442134Y83398D02*
X446070D01*
X444102D01*
Y77494D01*
X449022D02*
X450989D01*
X451973Y78478D01*
Y80446D01*
X450989Y81430D01*
X449022D01*
X448038Y80446D01*
Y78478D01*
X449022Y77494D01*
X453941Y75526D02*
Y81430D01*
X456893D01*
X457877Y80446D01*
Y78478D01*
X456893Y77494D01*
X453941D01*
X465749Y83398D02*
Y77494D01*
X469684D01*
X472636Y81430D02*
X474604D01*
X475588Y80446D01*
Y77494D01*
X472636D01*
X471652Y78478D01*
X472636Y79462D01*
X475588D01*
X477556Y81430D02*
Y78478D01*
X478540Y77494D01*
X481492D01*
Y76510D01*
X480508Y75526D01*
X479524D01*
X481492Y77494D02*
Y81430D01*
X486411Y77494D02*
X484443D01*
X483459Y78478D01*
Y80446D01*
X484443Y81430D01*
X486411D01*
X487395Y80446D01*
Y79462D01*
X483459D01*
X489363Y81430D02*
Y77494D01*
Y79462D01*
X490347Y80446D01*
X491331Y81430D01*
X492315D01*
X501170Y80446D02*
X505106D01*
X512977Y83398D02*
Y77494D01*
X515929D01*
X516913Y78478D01*
Y79462D01*
X515929Y80446D01*
X512977D01*
X515929D01*
X516913Y81430D01*
Y82414D01*
X515929Y83398D01*
X512977D01*
X519865Y77494D02*
X521833D01*
X522817Y78478D01*
Y80446D01*
X521833Y81430D01*
X519865D01*
X518881Y80446D01*
Y78478D01*
X519865Y77494D01*
X525769Y82414D02*
Y81430D01*
X524785D01*
X526752D01*
X525769D01*
Y78478D01*
X526752Y77494D01*
X530688Y82414D02*
Y81430D01*
X529704D01*
X531672D01*
X530688D01*
Y78478D01*
X531672Y77494D01*
X535608D02*
X537576D01*
X538560Y78478D01*
Y80446D01*
X537576Y81430D01*
X535608D01*
X534624Y80446D01*
Y78478D01*
X535608Y77494D01*
X540527D02*
Y81430D01*
X541511D01*
X542495Y80446D01*
Y77494D01*
Y80446D01*
X543479Y81430D01*
X544463Y80446D01*
Y77494D01*
X552335Y83398D02*
Y77494D01*
X556270D01*
X559222Y81430D02*
X561190D01*
X562174Y80446D01*
Y77494D01*
X559222D01*
X558238Y78478D01*
X559222Y79462D01*
X562174D01*
X564142Y81430D02*
Y78478D01*
X565126Y77494D01*
X568078D01*
Y76510D01*
X567094Y75526D01*
X566110D01*
X568078Y77494D02*
Y81430D01*
X572997Y77494D02*
X571029D01*
X570046Y78478D01*
Y80446D01*
X571029Y81430D01*
X572997D01*
X573981Y80446D01*
Y79462D01*
X570046D01*
X575949Y81430D02*
Y77494D01*
Y79462D01*
X576933Y80446D01*
X577917Y81430D01*
X578901D01*
X442134Y68634D02*
X446070D01*
X444102D01*
Y62730D01*
X449022D02*
X450989D01*
X451973Y63714D01*
Y65682D01*
X450989Y66666D01*
X449022D01*
X448038Y65682D01*
Y63714D01*
X449022Y62730D01*
X453941Y60763D02*
Y66666D01*
X456893D01*
X457877Y65682D01*
Y63714D01*
X456893Y62730D01*
X453941D01*
X465749Y68634D02*
Y62730D01*
X469684D01*
X472636Y66666D02*
X474604D01*
X475588Y65682D01*
Y62730D01*
X472636D01*
X471652Y63714D01*
X472636Y64698D01*
X475588D01*
X477556Y66666D02*
Y63714D01*
X478540Y62730D01*
X481492D01*
Y61747D01*
X480508Y60763D01*
X479524D01*
X481492Y62730D02*
Y66666D01*
X486411Y62730D02*
X484443D01*
X483459Y63714D01*
Y65682D01*
X484443Y66666D01*
X486411D01*
X487395Y65682D01*
Y64698D01*
X483459D01*
X489363Y66666D02*
Y62730D01*
Y64698D01*
X490347Y65682D01*
X491331Y66666D01*
X492315D01*
X501170Y65682D02*
X505106D01*
X512977Y68634D02*
Y62730D01*
X515929D01*
X516913Y63714D01*
Y64698D01*
X515929Y65682D01*
X512977D01*
X515929D01*
X516913Y66666D01*
Y67650D01*
X515929Y68634D01*
X512977D01*
X519865Y62730D02*
X521833D01*
X522817Y63714D01*
Y65682D01*
X521833Y66666D01*
X519865D01*
X518881Y65682D01*
Y63714D01*
X519865Y62730D01*
X525769Y67650D02*
Y66666D01*
X524785D01*
X526752D01*
X525769D01*
Y63714D01*
X526752Y62730D01*
X530688Y67650D02*
Y66666D01*
X529704D01*
X531672D01*
X530688D01*
Y63714D01*
X531672Y62730D01*
X535608D02*
X537576D01*
X538560Y63714D01*
Y65682D01*
X537576Y66666D01*
X535608D01*
X534624Y65682D01*
Y63714D01*
X535608Y62730D01*
X540527D02*
Y66666D01*
X541511D01*
X542495Y65682D01*
Y62730D01*
Y65682D01*
X543479Y66666D01*
X544463Y65682D01*
Y62730D01*
X552335Y68634D02*
Y62730D01*
X556270D01*
X559222Y66666D02*
X561190D01*
X562174Y65682D01*
Y62730D01*
X559222D01*
X558238Y63714D01*
X559222Y64698D01*
X562174D01*
X564142Y66666D02*
Y63714D01*
X565126Y62730D01*
X568078D01*
Y61747D01*
X567094Y60763D01*
X566110D01*
X568078Y62730D02*
Y66666D01*
X572997Y62730D02*
X571029D01*
X570046Y63714D01*
Y65682D01*
X571029Y66666D01*
X572997D01*
X573981Y65682D01*
Y64698D01*
X570046D01*
X575949Y66666D02*
Y62730D01*
Y64698D01*
X576933Y65682D01*
X577917Y66666D01*
X578901D01*
X442134Y53870D02*
X446070D01*
X444102D01*
Y47967D01*
X449022D02*
X450989D01*
X451973Y48951D01*
Y50918D01*
X450989Y51902D01*
X449022D01*
X448038Y50918D01*
Y48951D01*
X449022Y47967D01*
X453941Y45999D02*
Y51902D01*
X456893D01*
X457877Y50918D01*
Y48951D01*
X456893Y47967D01*
X453941D01*
X465749Y53870D02*
Y47967D01*
X469684D01*
X472636Y51902D02*
X474604D01*
X475588Y50918D01*
Y47967D01*
X472636D01*
X471652Y48951D01*
X472636Y49935D01*
X475588D01*
X477556Y51902D02*
Y48951D01*
X478540Y47967D01*
X481492D01*
Y46983D01*
X480508Y45999D01*
X479524D01*
X481492Y47967D02*
Y51902D01*
X486411Y47967D02*
X484443D01*
X483459Y48951D01*
Y50918D01*
X484443Y51902D01*
X486411D01*
X487395Y50918D01*
Y49935D01*
X483459D01*
X489363Y51902D02*
Y47967D01*
Y49935D01*
X490347Y50918D01*
X491331Y51902D01*
X492315D01*
X501170Y50918D02*
X505106D01*
X512977Y53870D02*
Y47967D01*
X515929D01*
X516913Y48951D01*
Y49935D01*
X515929Y50918D01*
X512977D01*
X515929D01*
X516913Y51902D01*
Y52886D01*
X515929Y53870D01*
X512977D01*
X519865Y47967D02*
X521833D01*
X522817Y48951D01*
Y50918D01*
X521833Y51902D01*
X519865D01*
X518881Y50918D01*
Y48951D01*
X519865Y47967D01*
X525769Y52886D02*
Y51902D01*
X524785D01*
X526752D01*
X525769D01*
Y48951D01*
X526752Y47967D01*
X530688Y52886D02*
Y51902D01*
X529704D01*
X531672D01*
X530688D01*
Y48951D01*
X531672Y47967D01*
X535608D02*
X537576D01*
X538560Y48951D01*
Y50918D01*
X537576Y51902D01*
X535608D01*
X534624Y50918D01*
Y48951D01*
X535608Y47967D01*
X540527D02*
Y51902D01*
X541511D01*
X542495Y50918D01*
Y47967D01*
Y50918D01*
X543479Y51902D01*
X544463Y50918D01*
Y47967D01*
X552335Y53870D02*
Y47967D01*
X556270D01*
X559222Y51902D02*
X561190D01*
X562174Y50918D01*
Y47967D01*
X559222D01*
X558238Y48951D01*
X559222Y49935D01*
X562174D01*
X564142Y51902D02*
Y48951D01*
X565126Y47967D01*
X568078D01*
Y46983D01*
X567094Y45999D01*
X566110D01*
X568078Y47967D02*
Y51902D01*
X572997Y47967D02*
X571029D01*
X570046Y48951D01*
Y50918D01*
X571029Y51902D01*
X572997D01*
X573981Y50918D01*
Y49935D01*
X570046D01*
X575949Y51902D02*
Y47967D01*
Y49935D01*
X576933Y50918D01*
X577917Y51902D01*
X578901D01*
X442134Y39107D02*
X446070D01*
X444102D01*
Y33203D01*
X449022D02*
X450989D01*
X451973Y34187D01*
Y36155D01*
X450989Y37139D01*
X449022D01*
X448038Y36155D01*
Y34187D01*
X449022Y33203D01*
X453941Y31235D02*
Y37139D01*
X456893D01*
X457877Y36155D01*
Y34187D01*
X456893Y33203D01*
X453941D01*
X465749Y39107D02*
Y33203D01*
X469684D01*
X472636Y37139D02*
X474604D01*
X475588Y36155D01*
Y33203D01*
X472636D01*
X471652Y34187D01*
X472636Y35171D01*
X475588D01*
X477556Y37139D02*
Y34187D01*
X478540Y33203D01*
X481492D01*
Y32219D01*
X480508Y31235D01*
X479524D01*
X481492Y33203D02*
Y37139D01*
X486411Y33203D02*
X484443D01*
X483459Y34187D01*
Y36155D01*
X484443Y37139D01*
X486411D01*
X487395Y36155D01*
Y35171D01*
X483459D01*
X489363Y37139D02*
Y33203D01*
Y35171D01*
X490347Y36155D01*
X491331Y37139D01*
X492315D01*
X501170Y36155D02*
X505106D01*
X512977Y39107D02*
Y33203D01*
X515929D01*
X516913Y34187D01*
Y35171D01*
X515929Y36155D01*
X512977D01*
X515929D01*
X516913Y37139D01*
Y38122D01*
X515929Y39107D01*
X512977D01*
X519865Y33203D02*
X521833D01*
X522817Y34187D01*
Y36155D01*
X521833Y37139D01*
X519865D01*
X518881Y36155D01*
Y34187D01*
X519865Y33203D01*
X525769Y38122D02*
Y37139D01*
X524785D01*
X526752D01*
X525769D01*
Y34187D01*
X526752Y33203D01*
X530688Y38122D02*
Y37139D01*
X529704D01*
X531672D01*
X530688D01*
Y34187D01*
X531672Y33203D01*
X535608D02*
X537576D01*
X538560Y34187D01*
Y36155D01*
X537576Y37139D01*
X535608D01*
X534624Y36155D01*
Y34187D01*
X535608Y33203D01*
X540527D02*
Y37139D01*
X541511D01*
X542495Y36155D01*
Y33203D01*
Y36155D01*
X543479Y37139D01*
X544463Y36155D01*
Y33203D01*
X552335Y39107D02*
Y33203D01*
X556270D01*
X559222Y37139D02*
X561190D01*
X562174Y36155D01*
Y33203D01*
X559222D01*
X558238Y34187D01*
X559222Y35171D01*
X562174D01*
X564142Y37139D02*
Y34187D01*
X565126Y33203D01*
X568078D01*
Y32219D01*
X567094Y31235D01*
X566110D01*
X568078Y33203D02*
Y37139D01*
X572997Y33203D02*
X571029D01*
X570046Y34187D01*
Y36155D01*
X571029Y37139D01*
X572997D01*
X573981Y36155D01*
Y35171D01*
X570046D01*
X575949Y37139D02*
Y33203D01*
Y35171D01*
X576933Y36155D01*
X577917Y37139D01*
X578901D01*
X442134Y24343D02*
X446070D01*
X444102D01*
Y18439D01*
X449022D02*
X450989D01*
X451973Y19423D01*
Y21391D01*
X450989Y22375D01*
X449022D01*
X448038Y21391D01*
Y19423D01*
X449022Y18439D01*
X453941Y16471D02*
Y22375D01*
X456893D01*
X457877Y21391D01*
Y19423D01*
X456893Y18439D01*
X453941D01*
X465749Y24343D02*
Y18439D01*
X469684D01*
X472636Y22375D02*
X474604D01*
X475588Y21391D01*
Y18439D01*
X472636D01*
X471652Y19423D01*
X472636Y20407D01*
X475588D01*
X477556Y22375D02*
Y19423D01*
X478540Y18439D01*
X481492D01*
Y17455D01*
X480508Y16471D01*
X479524D01*
X481492Y18439D02*
Y22375D01*
X486411Y18439D02*
X484443D01*
X483459Y19423D01*
Y21391D01*
X484443Y22375D01*
X486411D01*
X487395Y21391D01*
Y20407D01*
X483459D01*
X489363Y22375D02*
Y18439D01*
Y20407D01*
X490347Y21391D01*
X491331Y22375D01*
X492315D01*
X501170Y21391D02*
X505106D01*
X512977Y24343D02*
Y18439D01*
X515929D01*
X516913Y19423D01*
Y20407D01*
X515929Y21391D01*
X512977D01*
X515929D01*
X516913Y22375D01*
Y23359D01*
X515929Y24343D01*
X512977D01*
X519865Y18439D02*
X521833D01*
X522817Y19423D01*
Y21391D01*
X521833Y22375D01*
X519865D01*
X518881Y21391D01*
Y19423D01*
X519865Y18439D01*
X525769Y23359D02*
Y22375D01*
X524785D01*
X526752D01*
X525769D01*
Y19423D01*
X526752Y18439D01*
X530688Y23359D02*
Y22375D01*
X529704D01*
X531672D01*
X530688D01*
Y19423D01*
X531672Y18439D01*
X535608D02*
X537576D01*
X538560Y19423D01*
Y21391D01*
X537576Y22375D01*
X535608D01*
X534624Y21391D01*
Y19423D01*
X535608Y18439D01*
X540527D02*
Y22375D01*
X541511D01*
X542495Y21391D01*
Y18439D01*
Y21391D01*
X543479Y22375D01*
X544463Y21391D01*
Y18439D01*
X552335Y24343D02*
Y18439D01*
X556270D01*
X559222Y22375D02*
X561190D01*
X562174Y21391D01*
Y18439D01*
X559222D01*
X558238Y19423D01*
X559222Y20407D01*
X562174D01*
X564142Y22375D02*
Y19423D01*
X565126Y18439D01*
X568078D01*
Y17455D01*
X567094Y16471D01*
X566110D01*
X568078Y18439D02*
Y22375D01*
X572997Y18439D02*
X571029D01*
X570046Y19423D01*
Y21391D01*
X571029Y22375D01*
X572997D01*
X573981Y21391D01*
Y20407D01*
X570046D01*
X575949Y22375D02*
Y18439D01*
Y20407D01*
X576933Y21391D01*
X577917Y22375D01*
X578901D01*
X375105Y82414D02*
X374121Y83398D01*
X372153D01*
X371169Y82414D01*
Y81430D01*
X372153Y80446D01*
X374121D01*
X375105Y79462D01*
Y78478D01*
X374121Y77494D01*
X372153D01*
X371169Y78478D01*
X377073Y77494D02*
X379041D01*
X378057D01*
Y83398D01*
X377073D01*
X382977Y77494D02*
X384945D01*
X385928Y78478D01*
Y80446D01*
X384945Y81430D01*
X382977D01*
X381993Y80446D01*
Y78478D01*
X382977Y77494D01*
X388880Y82414D02*
Y81430D01*
X387896D01*
X389864D01*
X388880D01*
Y78478D01*
X389864Y77494D01*
X375105Y67650D02*
X374121Y68634D01*
X372153D01*
X371169Y67650D01*
Y66666D01*
X372153Y65682D01*
X374121D01*
X375105Y64698D01*
Y63714D01*
X374121Y62730D01*
X372153D01*
X371169Y63714D01*
X377073Y62730D02*
X379041D01*
X378057D01*
Y68634D01*
X377073D01*
X382977Y62730D02*
X384945D01*
X385928Y63714D01*
Y65682D01*
X384945Y66666D01*
X382977D01*
X381993Y65682D01*
Y63714D01*
X382977Y62730D01*
X388880Y67650D02*
Y66666D01*
X387896D01*
X389864D01*
X388880D01*
Y63714D01*
X389864Y62730D01*
X371169Y47967D02*
Y53870D01*
X374121D01*
X375105Y52886D01*
Y50918D01*
X374121Y49935D01*
X371169D01*
X373137D02*
X375105Y47967D01*
X378057D02*
X380025D01*
X381009Y48951D01*
Y50918D01*
X380025Y51902D01*
X378057D01*
X377073Y50918D01*
Y48951D01*
X378057Y47967D01*
X382977Y51902D02*
Y48951D01*
X383961Y47967D01*
X386912D01*
Y51902D01*
X388880Y47967D02*
Y51902D01*
X391832D01*
X392816Y50918D01*
Y47967D01*
X398720Y53870D02*
Y47967D01*
X395768D01*
X394784Y48951D01*
Y50918D01*
X395768Y51902D01*
X398720D01*
X371169Y33203D02*
Y39107D01*
X374121D01*
X375105Y38122D01*
Y36155D01*
X374121Y35171D01*
X371169D01*
X373137D02*
X375105Y33203D01*
X378057D02*
X380025D01*
X381009Y34187D01*
Y36155D01*
X380025Y37139D01*
X378057D01*
X377073Y36155D01*
Y34187D01*
X378057Y33203D01*
X382977Y37139D02*
Y34187D01*
X383961Y33203D01*
X386912D01*
Y37139D01*
X388880Y33203D02*
Y37139D01*
X391832D01*
X392816Y36155D01*
Y33203D01*
X398720Y39107D02*
Y33203D01*
X395768D01*
X394784Y34187D01*
Y36155D01*
X395768Y37139D01*
X398720D01*
X371169Y18439D02*
Y24343D01*
X374121D01*
X375105Y23359D01*
Y21391D01*
X374121Y20407D01*
X371169D01*
X373137D02*
X375105Y18439D01*
X378057D02*
X380025D01*
X381009Y19423D01*
Y21391D01*
X380025Y22375D01*
X378057D01*
X377073Y21391D01*
Y19423D01*
X378057Y18439D01*
X382977Y22375D02*
Y19423D01*
X383961Y18439D01*
X386912D01*
Y22375D01*
X388880Y18439D02*
Y22375D01*
X391832D01*
X392816Y21391D01*
Y18439D01*
X398720Y24343D02*
Y18439D01*
X395768D01*
X394784Y19423D01*
Y21391D01*
X395768Y22375D01*
X398720D01*
X322638Y77494D02*
Y83398D01*
X325590D01*
X326574Y82414D01*
Y80446D01*
X325590Y79462D01*
X322638D01*
X328542Y83398D02*
X332478D01*
X330510D01*
Y77494D01*
X334446Y83398D02*
Y77494D01*
Y80446D01*
X338381D01*
Y83398D01*
Y77494D01*
X322638Y62730D02*
Y68634D01*
X325590D01*
X326574Y67650D01*
Y65682D01*
X325590Y64698D01*
X322638D01*
X328542Y68634D02*
X332478D01*
X330510D01*
Y62730D01*
X334446Y68634D02*
Y62730D01*
Y65682D01*
X338381D01*
Y68634D01*
Y62730D01*
X322638Y47967D02*
Y53870D01*
X326574Y47967D01*
Y53870D01*
X328542Y47967D02*
Y53870D01*
X331494D01*
X332478Y52886D01*
Y50918D01*
X331494Y49935D01*
X328542D01*
X334446Y53870D02*
X338381D01*
X336413D01*
Y47967D01*
X340349Y53870D02*
Y47967D01*
Y50918D01*
X344285D01*
Y53870D01*
Y47967D01*
X322638Y33203D02*
Y39107D01*
X325590D01*
X326574Y38122D01*
Y36155D01*
X325590Y35171D01*
X322638D01*
X328542Y39107D02*
X332478D01*
X330510D01*
Y33203D01*
X334446Y39107D02*
Y33203D01*
Y36155D01*
X338381D01*
Y39107D01*
Y33203D01*
X322638Y18439D02*
Y24343D01*
X325590D01*
X326574Y23359D01*
Y21391D01*
X325590Y20407D01*
X322638D01*
X328542Y24343D02*
X332478D01*
X330510D01*
Y18439D01*
X334446Y24343D02*
Y18439D01*
Y21391D01*
X338381D01*
Y24343D01*
Y18439D01*
X252854Y82414D02*
X253838Y83398D01*
X255806D01*
X256790Y82414D01*
Y78478D01*
X255806Y77494D01*
X253838D01*
X252854Y78478D01*
Y82414D01*
X258758Y77494D02*
Y78478D01*
X259742D01*
Y77494D01*
X258758D01*
X267613Y83398D02*
X265646Y82414D01*
X263678Y80446D01*
Y78478D01*
X264662Y77494D01*
X266629D01*
X267613Y78478D01*
Y79462D01*
X266629Y80446D01*
X263678D01*
X269581Y82414D02*
X270565Y83398D01*
X272533D01*
X273517Y82414D01*
Y78478D01*
X272533Y77494D01*
X270565D01*
X269581Y78478D01*
Y82414D01*
X275485D02*
X276469Y83398D01*
X278437D01*
X279420Y82414D01*
Y78478D01*
X278437Y77494D01*
X276469D01*
X275485Y78478D01*
Y82414D01*
X281388Y77494D02*
Y81430D01*
X282372D01*
X283356Y80446D01*
Y77494D01*
Y80446D01*
X284340Y81430D01*
X285324Y80446D01*
Y77494D01*
X287292D02*
Y81430D01*
X288276D01*
X289260Y80446D01*
Y77494D01*
Y80446D01*
X290244Y81430D01*
X291228Y80446D01*
Y77494D01*
X252854Y67650D02*
X253838Y68634D01*
X255806D01*
X256790Y67650D01*
Y63714D01*
X255806Y62730D01*
X253838D01*
X252854Y63714D01*
Y67650D01*
X258758Y62730D02*
Y63714D01*
X259742D01*
Y62730D01*
X258758D01*
X267613Y68634D02*
X265646Y67650D01*
X263678Y65682D01*
Y63714D01*
X264662Y62730D01*
X266629D01*
X267613Y63714D01*
Y64698D01*
X266629Y65682D01*
X263678D01*
X269581Y67650D02*
X270565Y68634D01*
X272533D01*
X273517Y67650D01*
Y63714D01*
X272533Y62730D01*
X270565D01*
X269581Y63714D01*
Y67650D01*
X275485D02*
X276469Y68634D01*
X278437D01*
X279420Y67650D01*
Y63714D01*
X278437Y62730D01*
X276469D01*
X275485Y63714D01*
Y67650D01*
X281388Y62730D02*
Y66666D01*
X282372D01*
X283356Y65682D01*
Y62730D01*
Y65682D01*
X284340Y66666D01*
X285324Y65682D01*
Y62730D01*
X287292D02*
Y66666D01*
X288276D01*
X289260Y65682D01*
Y62730D01*
Y65682D01*
X290244Y66666D01*
X291228Y65682D01*
Y62730D01*
X252854Y52886D02*
X253838Y53870D01*
X255806D01*
X256790Y52886D01*
Y48951D01*
X255806Y47967D01*
X253838D01*
X252854Y48951D01*
Y52886D01*
X258758Y47967D02*
Y48951D01*
X259742D01*
Y47967D01*
X258758D01*
X267613Y53870D02*
X265646Y52886D01*
X263678Y50918D01*
Y48951D01*
X264662Y47967D01*
X266629D01*
X267613Y48951D01*
Y49935D01*
X266629Y50918D01*
X263678D01*
X273517Y53870D02*
X269581D01*
Y50918D01*
X271549Y51902D01*
X272533D01*
X273517Y50918D01*
Y48951D01*
X272533Y47967D01*
X270565D01*
X269581Y48951D01*
X275485Y52886D02*
X276469Y53870D01*
X278437D01*
X279420Y52886D01*
Y48951D01*
X278437Y47967D01*
X276469D01*
X275485Y48951D01*
Y52886D01*
X281388Y47967D02*
Y51902D01*
X282372D01*
X283356Y50918D01*
Y47967D01*
Y50918D01*
X284340Y51902D01*
X285324Y50918D01*
Y47967D01*
X287292D02*
Y51902D01*
X288276D01*
X289260Y50918D01*
Y47967D01*
Y50918D01*
X290244Y51902D01*
X291228Y50918D01*
Y47967D01*
X252854Y38122D02*
X253838Y39107D01*
X255806D01*
X256790Y38122D01*
Y34187D01*
X255806Y33203D01*
X253838D01*
X252854Y34187D01*
Y38122D01*
X258758Y33203D02*
Y34187D01*
X259742D01*
Y33203D01*
X258758D01*
X263678Y34187D02*
X264662Y33203D01*
X266629D01*
X267613Y34187D01*
Y38122D01*
X266629Y39107D01*
X264662D01*
X263678Y38122D01*
Y37139D01*
X264662Y36155D01*
X267613D01*
X269581Y38122D02*
X270565Y39107D01*
X272533D01*
X273517Y38122D01*
Y34187D01*
X272533Y33203D01*
X270565D01*
X269581Y34187D01*
Y38122D01*
X275485D02*
X276469Y39107D01*
X278437D01*
X279420Y38122D01*
Y34187D01*
X278437Y33203D01*
X276469D01*
X275485Y34187D01*
Y38122D01*
X281388Y33203D02*
Y37139D01*
X282372D01*
X283356Y36155D01*
Y33203D01*
Y36155D01*
X284340Y37139D01*
X285324Y36155D01*
Y33203D01*
X287292D02*
Y37139D01*
X288276D01*
X289260Y36155D01*
Y33203D01*
Y36155D01*
X290244Y37139D01*
X291228Y36155D01*
Y33203D01*
X252854Y23359D02*
X253838Y24343D01*
X255806D01*
X256790Y23359D01*
Y19423D01*
X255806Y18439D01*
X253838D01*
X252854Y19423D01*
Y23359D01*
X258758Y18439D02*
Y19423D01*
X259742D01*
Y18439D01*
X258758D01*
X263678Y23359D02*
X264662Y24343D01*
X266629D01*
X267613Y23359D01*
Y22375D01*
X266629Y21391D01*
X265646D01*
X266629D01*
X267613Y20407D01*
Y19423D01*
X266629Y18439D01*
X264662D01*
X263678Y19423D01*
X269581Y23359D02*
X270565Y24343D01*
X272533D01*
X273517Y23359D01*
Y19423D01*
X272533Y18439D01*
X270565D01*
X269581Y19423D01*
Y23359D01*
X275485D02*
X276469Y24343D01*
X278437D01*
X279420Y23359D01*
Y19423D01*
X278437Y18439D01*
X276469D01*
X275485Y19423D01*
Y23359D01*
X281388Y18439D02*
Y22375D01*
X282372D01*
X283356Y21391D01*
Y18439D01*
Y21391D01*
X284340Y22375D01*
X285324Y21391D01*
Y18439D01*
X287292D02*
Y22375D01*
X288276D01*
X289260Y21391D01*
Y18439D01*
Y21391D01*
X290244Y22375D01*
X291228Y21391D01*
Y18439D01*
X195586Y3675D02*
X197554D01*
X196570D01*
Y9579D01*
X195586Y8595D01*
X200506Y4659D02*
X201490Y3675D01*
X203458D01*
X204442Y4659D01*
Y8595D01*
X203458Y9579D01*
X201490D01*
X200506Y8595D01*
Y7611D01*
X201490Y6627D01*
X204442D01*
X210345Y3675D02*
X206409D01*
X210345Y7611D01*
Y8595D01*
X209361Y9579D01*
X207393D01*
X206409Y8595D01*
X218217Y9579D02*
X222152D01*
X220184D01*
Y3675D01*
X225104D02*
X227072D01*
X228056Y4659D01*
Y6627D01*
X227072Y7611D01*
X225104D01*
X224120Y6627D01*
Y4659D01*
X225104Y3675D01*
X231008Y8595D02*
Y7611D01*
X230024D01*
X231992D01*
X231008D01*
Y4659D01*
X231992Y3675D01*
X235927Y7611D02*
X237895D01*
X238879Y6627D01*
Y3675D01*
X235927D01*
X234944Y4659D01*
X235927Y5643D01*
X238879D01*
X240847Y3675D02*
X242815D01*
X241831D01*
Y9579D01*
X240847D01*
X199522Y77494D02*
X195586D01*
X199522Y81430D01*
Y82414D01*
X198538Y83398D01*
X196570D01*
X195586Y82414D01*
X199522Y62730D02*
X195586D01*
X199522Y66666D01*
Y67650D01*
X198538Y68634D01*
X196570D01*
X195586Y67650D01*
X199522Y47967D02*
X195586D01*
X199522Y51902D01*
Y52886D01*
X198538Y53870D01*
X196570D01*
X195586Y52886D01*
X198538Y33203D02*
Y39107D01*
X195586Y36155D01*
X199522D01*
X201490Y39107D02*
X205426D01*
Y38122D01*
X201490Y34187D01*
Y33203D01*
X195586Y18439D02*
X197554D01*
X196570D01*
Y24343D01*
X195586Y23359D01*
X200506D02*
X201490Y24343D01*
X203458D01*
X204442Y23359D01*
Y22375D01*
X203458Y21391D01*
X202474D01*
X203458D01*
X204442Y20407D01*
Y19423D01*
X203458Y18439D01*
X201490D01*
X200506Y19423D01*
X206409D02*
X207393Y18439D01*
X209361D01*
X210345Y19423D01*
Y23359D01*
X209361Y24343D01*
X207393D01*
X206409Y23359D01*
Y22375D01*
X207393Y21391D01*
X210345D01*
X320585Y-16891D02*
X324521D01*
X320585Y-14923D02*
X324521D01*
X332393Y-18859D02*
Y-12955D01*
X335345D01*
X336328Y-13939D01*
Y-15907D01*
X335345Y-16891D01*
X332393D01*
X334361D02*
X336328Y-18859D01*
X339280D02*
X341248D01*
X342232Y-17875D01*
Y-15907D01*
X341248Y-14923D01*
X339280D01*
X338296Y-15907D01*
Y-17875D01*
X339280Y-18859D01*
X344200Y-14923D02*
Y-17875D01*
X345184Y-18859D01*
X348136D01*
Y-14923D01*
X351087Y-13939D02*
Y-14923D01*
X350103D01*
X352071D01*
X351087D01*
Y-17875D01*
X352071Y-18859D01*
X357975D02*
X356007D01*
X355023Y-17875D01*
Y-15907D01*
X356007Y-14923D01*
X357975D01*
X358959Y-15907D01*
Y-16891D01*
X355023D01*
X364862Y-12955D02*
Y-18859D01*
X361911D01*
X360927Y-17875D01*
Y-15907D01*
X361911Y-14923D01*
X364862D01*
X372734Y-18859D02*
Y-12955D01*
X375686D01*
X376670Y-13939D01*
Y-15907D01*
X375686Y-16891D01*
X372734D01*
X379622Y-14923D02*
X381589D01*
X382573Y-15907D01*
Y-18859D01*
X379622D01*
X378638Y-17875D01*
X379622Y-16891D01*
X382573D01*
X385525Y-13939D02*
Y-14923D01*
X384541D01*
X386509D01*
X385525D01*
Y-17875D01*
X386509Y-18859D01*
X389461Y-12955D02*
Y-18859D01*
Y-15907D01*
X390445Y-14923D01*
X392413D01*
X393397Y-15907D01*
Y-18859D01*
X401268Y-12955D02*
Y-18859D01*
X405204D01*
X410123D02*
X408156D01*
X407172Y-17875D01*
Y-15907D01*
X408156Y-14923D01*
X410123D01*
X411107Y-15907D01*
Y-16891D01*
X407172D01*
X413075Y-18859D02*
Y-14923D01*
X416027D01*
X417011Y-15907D01*
Y-18859D01*
X420947Y-20827D02*
X421931D01*
X422915Y-19843D01*
Y-14923D01*
X419963D01*
X418979Y-15907D01*
Y-17875D01*
X419963Y-18859D01*
X422915D01*
X425866Y-13939D02*
Y-14923D01*
X424882D01*
X426850D01*
X425866D01*
Y-17875D01*
X426850Y-18859D01*
X429802Y-12955D02*
Y-18859D01*
Y-15907D01*
X430786Y-14923D01*
X432754D01*
X433738Y-15907D01*
Y-18859D01*
X441609Y-15907D02*
X445545D01*
X443577Y-13939D02*
Y-17875D01*
X453416Y-12955D02*
X457352D01*
X455384D01*
Y-18859D01*
X460304D02*
X462272D01*
X463256Y-17875D01*
Y-15907D01*
X462272Y-14923D01*
X460304D01*
X459320Y-15907D01*
Y-17875D01*
X460304Y-18859D01*
X466208D02*
X468176D01*
X469159Y-17875D01*
Y-15907D01*
X468176Y-14923D01*
X466208D01*
X465224Y-15907D01*
Y-17875D01*
X466208Y-18859D01*
X471127D02*
X473095D01*
X472111D01*
Y-12955D01*
X471127D01*
X485886Y-13939D02*
X484902Y-12955D01*
X482935D01*
X481951Y-13939D01*
Y-14923D01*
X482935Y-15907D01*
X484902D01*
X485886Y-16891D01*
Y-17875D01*
X484902Y-18859D01*
X482935D01*
X481951Y-17875D01*
X487854Y-18859D02*
X489822D01*
X488838D01*
Y-14923D01*
X487854D01*
X492774D02*
X496710D01*
X492774Y-18859D01*
X496710D01*
X501629D02*
X499661D01*
X498677Y-17875D01*
Y-15907D01*
X499661Y-14923D01*
X501629D01*
X502613Y-15907D01*
Y-16891D01*
X498677D01*
X510485D02*
X514420D01*
X510485Y-14923D02*
X514420D01*
X526228Y-13939D02*
X525244Y-12955D01*
X523276D01*
X522292Y-13939D01*
Y-14923D01*
X523276Y-15907D01*
X525244D01*
X526228Y-16891D01*
Y-17875D01*
X525244Y-18859D01*
X523276D01*
X522292Y-17875D01*
X528195Y-18859D02*
X530163D01*
X529179D01*
Y-12955D01*
X528195D01*
X534099Y-18859D02*
X536067D01*
X537051Y-17875D01*
Y-15907D01*
X536067Y-14923D01*
X534099D01*
X533115Y-15907D01*
Y-17875D01*
X534099Y-18859D01*
X540003Y-13939D02*
Y-14923D01*
X539019D01*
X540987D01*
X540003D01*
Y-17875D01*
X540987Y-18859D01*
X549842D02*
X551810D01*
X550826D01*
Y-12955D01*
X549842D01*
X557714Y-18859D02*
X555746D01*
X554762Y-17875D01*
Y-15907D01*
X555746Y-14923D01*
X557714D01*
X558697Y-15907D01*
Y-16891D01*
X554762D01*
X560665Y-18859D02*
Y-14923D01*
X563617D01*
X564601Y-15907D01*
Y-18859D01*
X568537Y-20827D02*
X569521D01*
X570505Y-19843D01*
Y-14923D01*
X567553D01*
X566569Y-15907D01*
Y-17875D01*
X567553Y-18859D01*
X570505D01*
X573456Y-13939D02*
Y-14923D01*
X572472D01*
X574440D01*
X573456D01*
Y-17875D01*
X574440Y-18859D01*
X577392Y-12955D02*
Y-18859D01*
Y-15907D01*
X578376Y-14923D01*
X580344D01*
X581328Y-15907D01*
Y-18859D01*
X590183Y-14923D02*
X592151D01*
X593135Y-15907D01*
Y-18859D01*
X590183D01*
X589199Y-17875D01*
X590183Y-16891D01*
X593135D01*
X595103Y-18859D02*
X598055D01*
X599039Y-17875D01*
X598055Y-16891D01*
X596087D01*
X595103Y-15907D01*
X596087Y-14923D01*
X599039D01*
X610846Y-12955D02*
Y-18859D01*
X607894D01*
X606910Y-17875D01*
Y-15907D01*
X607894Y-14923D01*
X610846D01*
X615765Y-18859D02*
X613798D01*
X612814Y-17875D01*
Y-15907D01*
X613798Y-14923D01*
X615765D01*
X616749Y-15907D01*
Y-16891D01*
X612814D01*
X619701Y-18859D02*
Y-13939D01*
Y-15907D01*
X618717D01*
X620685D01*
X619701D01*
Y-13939D01*
X620685Y-12955D01*
X623637Y-18859D02*
X625605D01*
X624621D01*
Y-14923D01*
X623637D01*
X628557Y-18859D02*
Y-14923D01*
X631508D01*
X632492Y-15907D01*
Y-18859D01*
X637412D02*
X635444D01*
X634460Y-17875D01*
Y-15907D01*
X635444Y-14923D01*
X637412D01*
X638396Y-15907D01*
Y-16891D01*
X634460D01*
X644300Y-12955D02*
Y-18859D01*
X641348D01*
X640364Y-17875D01*
Y-15907D01*
X641348Y-14923D01*
X644300D01*
X652171Y-18859D02*
X654139D01*
X653155D01*
Y-14923D01*
X652171D01*
X657091Y-18859D02*
Y-14923D01*
X660042D01*
X661026Y-15907D01*
Y-18859D01*
X669882Y-13939D02*
Y-14923D01*
X668898D01*
X670866D01*
X669882D01*
Y-17875D01*
X670866Y-18859D01*
X673818Y-12955D02*
Y-18859D01*
Y-15907D01*
X674801Y-14923D01*
X676769D01*
X677753Y-15907D01*
Y-18859D01*
X682673D02*
X680705D01*
X679721Y-17875D01*
Y-15907D01*
X680705Y-14923D01*
X682673D01*
X683657Y-15907D01*
Y-16891D01*
X679721D01*
X691528Y-18859D02*
Y-12955D01*
X694480D01*
X695464Y-13939D01*
Y-15907D01*
X694480Y-16891D01*
X691528D01*
X701368Y-13939D02*
X700384Y-12955D01*
X698416D01*
X697432Y-13939D01*
Y-17875D01*
X698416Y-18859D01*
X700384D01*
X701368Y-17875D01*
X703336Y-12955D02*
Y-18859D01*
X706287D01*
X707271Y-17875D01*
Y-16891D01*
X706287Y-15907D01*
X703336D01*
X706287D01*
X707271Y-14923D01*
Y-13939D01*
X706287Y-12955D01*
X703336D01*
X715143Y-18859D02*
X717111D01*
X716127D01*
Y-12955D01*
X715143D01*
X721046Y-14923D02*
X723014D01*
X723998Y-15907D01*
Y-18859D01*
X721046D01*
X720062Y-17875D01*
X721046Y-16891D01*
X723998D01*
X725966Y-14923D02*
Y-17875D01*
X726950Y-18859D01*
X729902D01*
Y-19843D01*
X728918Y-20827D01*
X727934D01*
X729902Y-18859D02*
Y-14923D01*
X732854Y-18859D02*
X734822D01*
X735805Y-17875D01*
Y-15907D01*
X734822Y-14923D01*
X732854D01*
X731870Y-15907D01*
Y-17875D01*
X732854Y-18859D01*
X737773Y-14923D02*
Y-17875D01*
X738757Y-18859D01*
X741709D01*
Y-14923D01*
X744661Y-13939D02*
Y-14923D01*
X743677D01*
X745645D01*
X744661D01*
Y-17875D01*
X745645Y-18859D01*
X355023Y-7839D02*
X358959D01*
X355023Y-5871D02*
X358959D01*
X370766Y-4887D02*
X369782Y-3903D01*
X367814D01*
X366830Y-4887D01*
Y-8822D01*
X367814Y-9806D01*
X369782D01*
X370766Y-8822D01*
X373718Y-5871D02*
X375686D01*
X376670Y-6855D01*
Y-9806D01*
X373718D01*
X372734Y-8822D01*
X373718Y-7839D01*
X376670D01*
X378638Y-9806D02*
X380605D01*
X379622D01*
Y-3903D01*
X378638D01*
X387493Y-5871D02*
X384541D01*
X383557Y-6855D01*
Y-8822D01*
X384541Y-9806D01*
X387493D01*
X389461Y-5871D02*
Y-8822D01*
X390445Y-9806D01*
X393397D01*
Y-5871D01*
X395364Y-9806D02*
X397332D01*
X396348D01*
Y-3903D01*
X395364D01*
X401268Y-5871D02*
X403236D01*
X404220Y-6855D01*
Y-9806D01*
X401268D01*
X400284Y-8822D01*
X401268Y-7839D01*
X404220D01*
X407172Y-4887D02*
Y-5871D01*
X406188D01*
X408156D01*
X407172D01*
Y-8822D01*
X408156Y-9806D01*
X414059D02*
X412091D01*
X411107Y-8822D01*
Y-6855D01*
X412091Y-5871D01*
X414059D01*
X415043Y-6855D01*
Y-7839D01*
X411107D01*
X420947Y-3903D02*
Y-9806D01*
X417995D01*
X417011Y-8822D01*
Y-6855D01*
X417995Y-5871D01*
X420947D01*
X429802Y-9806D02*
Y-4887D01*
Y-6855D01*
X428818D01*
X430786D01*
X429802D01*
Y-4887D01*
X430786Y-3903D01*
X433738Y-5871D02*
Y-9806D01*
Y-7839D01*
X434722Y-6855D01*
X435706Y-5871D01*
X436690D01*
X440625Y-9806D02*
X442593D01*
X443577Y-8822D01*
Y-6855D01*
X442593Y-5871D01*
X440625D01*
X439641Y-6855D01*
Y-8822D01*
X440625Y-9806D01*
X445545D02*
Y-5871D01*
X446529D01*
X447513Y-6855D01*
Y-9806D01*
Y-6855D01*
X448497Y-5871D01*
X449481Y-6855D01*
Y-9806D01*
X458336Y-4887D02*
Y-5871D01*
X457352D01*
X459320D01*
X458336D01*
Y-8822D01*
X459320Y-9806D01*
X463256D02*
X465224D01*
X466208Y-8822D01*
Y-6855D01*
X465224Y-5871D01*
X463256D01*
X462272Y-6855D01*
Y-8822D01*
X463256Y-9806D01*
X469160D02*
X471127D01*
X472111Y-8822D01*
Y-6855D01*
X471127Y-5871D01*
X469160D01*
X468176Y-6855D01*
Y-8822D01*
X469160Y-9806D01*
X474079D02*
X476047D01*
X475063D01*
Y-3903D01*
X474079D01*
X484902Y-9806D02*
X487854D01*
X488838Y-8822D01*
X487854Y-7839D01*
X485886D01*
X484902Y-6855D01*
X485886Y-5871D01*
X488838D01*
X491790Y-4887D02*
Y-5871D01*
X490806D01*
X492774D01*
X491790D01*
Y-8822D01*
X492774Y-9806D01*
X496710Y-5871D02*
X498677D01*
X499661Y-6855D01*
Y-9806D01*
X496710D01*
X495726Y-8822D01*
X496710Y-7839D01*
X499661D01*
X501629Y-5871D02*
Y-9806D01*
Y-7839D01*
X502613Y-6855D01*
X503597Y-5871D01*
X504581D01*
X508517Y-4887D02*
Y-5871D01*
X507533D01*
X509501D01*
X508517D01*
Y-8822D01*
X509501Y-9806D01*
X522292Y-5871D02*
X519340D01*
X518356Y-6855D01*
Y-8822D01*
X519340Y-9806D01*
X522292D01*
X527212D02*
X525244D01*
X524260Y-8822D01*
Y-6855D01*
X525244Y-5871D01*
X527212D01*
X528195Y-6855D01*
Y-7839D01*
X524260D01*
X530163Y-9806D02*
Y-5871D01*
X533115D01*
X534099Y-6855D01*
Y-9806D01*
X537051Y-4887D02*
Y-5871D01*
X536067D01*
X538035D01*
X537051D01*
Y-8822D01*
X538035Y-9806D01*
X540987Y-5871D02*
Y-9806D01*
Y-7839D01*
X541970Y-6855D01*
X542954Y-5871D01*
X543938D01*
X549842Y-9806D02*
X547874D01*
X546890Y-8822D01*
Y-6855D01*
X547874Y-5871D01*
X549842D01*
X550826Y-6855D01*
Y-7839D01*
X546890D01*
X558697Y-11774D02*
Y-5871D01*
X561649D01*
X562633Y-6855D01*
Y-8822D01*
X561649Y-9806D01*
X558697D01*
X565585D02*
X567553D01*
X568537Y-8822D01*
Y-6855D01*
X567553Y-5871D01*
X565585D01*
X564601Y-6855D01*
Y-8822D01*
X565585Y-9806D01*
X570505D02*
X573456D01*
X574440Y-8822D01*
X573456Y-7839D01*
X571489D01*
X570505Y-6855D01*
X571489Y-5871D01*
X574440D01*
X576408Y-9806D02*
X578376D01*
X577392D01*
Y-5871D01*
X576408D01*
X582312Y-4887D02*
Y-5871D01*
X581328D01*
X583296D01*
X582312D01*
Y-8822D01*
X583296Y-9806D01*
X586247D02*
X588215D01*
X587231D01*
Y-5871D01*
X586247D01*
X592151Y-9806D02*
X594119D01*
X595103Y-8822D01*
Y-6855D01*
X594119Y-5871D01*
X592151D01*
X591167Y-6855D01*
Y-8822D01*
X592151Y-9806D01*
X597071D02*
Y-5871D01*
X600023D01*
X601007Y-6855D01*
Y-9806D01*
X609862Y-4887D02*
Y-5871D01*
X608878D01*
X610846D01*
X609862D01*
Y-8822D01*
X610846Y-9806D01*
X614782D02*
X616749D01*
X617733Y-8822D01*
Y-6855D01*
X616749Y-5871D01*
X614782D01*
X613798Y-6855D01*
Y-8822D01*
X614782Y-9806D01*
X626589Y-4887D02*
Y-5871D01*
X625605D01*
X627573D01*
X626589D01*
Y-8822D01*
X627573Y-9806D01*
X631508D02*
X633476D01*
X634460Y-8822D01*
Y-6855D01*
X633476Y-5871D01*
X631508D01*
X630524Y-6855D01*
Y-8822D01*
X631508Y-9806D01*
X637412D02*
X639380D01*
X640364Y-8822D01*
Y-6855D01*
X639380Y-5871D01*
X637412D01*
X636428Y-6855D01*
Y-8822D01*
X637412Y-9806D01*
X642332D02*
X644300D01*
X643316D01*
Y-3903D01*
X642332D01*
X656107Y-9806D02*
X654139D01*
X653155Y-8822D01*
Y-6855D01*
X654139Y-5871D01*
X656107D01*
X657091Y-6855D01*
Y-7839D01*
X653155D01*
X659059Y-9806D02*
Y-5871D01*
X662010D01*
X662994Y-6855D01*
Y-9806D01*
X668898Y-3903D02*
Y-9806D01*
X665946D01*
X664962Y-8822D01*
Y-6855D01*
X665946Y-5871D01*
X668898D01*
X680705D02*
X677753D01*
X676769Y-6855D01*
Y-8822D01*
X677753Y-9806D01*
X680705D01*
X685625D02*
X683657D01*
X682673Y-8822D01*
Y-6855D01*
X683657Y-5871D01*
X685625D01*
X686609Y-6855D01*
Y-7839D01*
X682673D01*
X688577Y-9806D02*
Y-5871D01*
X691528D01*
X692512Y-6855D01*
Y-9806D01*
X695464Y-4887D02*
Y-5871D01*
X694480D01*
X696448D01*
X695464D01*
Y-8822D01*
X696448Y-9806D01*
X699400Y-5871D02*
Y-9806D01*
Y-7839D01*
X700384Y-6855D01*
X701368Y-5871D01*
X702352D01*
X708255Y-9806D02*
X706287D01*
X705303Y-8822D01*
Y-6855D01*
X706287Y-5871D01*
X708255D01*
X709239Y-6855D01*
Y-7839D01*
X705303D01*
X717111Y-11774D02*
Y-5871D01*
X720062D01*
X721046Y-6855D01*
Y-8822D01*
X720062Y-9806D01*
X717111D01*
X723998D02*
X725966D01*
X726950Y-8822D01*
Y-6855D01*
X725966Y-5871D01*
X723998D01*
X723014Y-6855D01*
Y-8822D01*
X723998Y-9806D01*
X728918D02*
X731870D01*
X732854Y-8822D01*
X731870Y-7839D01*
X729902D01*
X728918Y-6855D01*
X729902Y-5871D01*
X732854D01*
X734822Y-9806D02*
X736789D01*
X735805D01*
Y-5871D01*
X734822D01*
X740725Y-4887D02*
Y-5871D01*
X739741D01*
X741709D01*
X740725D01*
Y-8822D01*
X741709Y-9806D01*
X744661D02*
X746629D01*
X745645D01*
Y-5871D01*
X744661D01*
X750564Y-9806D02*
X752532D01*
X753516Y-8822D01*
Y-6855D01*
X752532Y-5871D01*
X750564D01*
X749580Y-6855D01*
Y-8822D01*
X750564Y-9806D01*
X755484D02*
Y-5871D01*
X758436D01*
X759420Y-6855D01*
Y-9806D01*
X761388D02*
Y-8822D01*
X762372D01*
Y-9806D01*
X761388D01*
D103*
X138197Y87829D02*
X661086D01*
X138197Y14010D02*
X661086D01*
X138197Y-754D02*
X661086D01*
Y102593D01*
X138197D02*
X661086D01*
X138197Y-754D02*
Y102593D01*
X584511Y-754D02*
Y102593D01*
X437705Y-754D02*
Y102593D01*
X366740Y-754D02*
Y102593D01*
X318209Y-754D02*
Y102593D01*
X248425Y-754D02*
Y102593D01*
X191157Y-754D02*
Y102593D01*
D105*
X45842Y25827D02*
X45342Y26693D01*
X44342D01*
X43843Y25827D01*
X44342Y24961D01*
X45342D01*
X45842Y25827D01*
X23087D02*
X22587Y26693D01*
X21587D01*
X21087Y25827D01*
X21587Y24961D01*
X22587D01*
X23087Y25827D01*
X32000Y112400D02*
X33000Y112900D01*
X34000Y112400D01*
X33500Y113400D02*
X34000Y112400D01*
X33500Y113400D02*
X34000Y114400D01*
X33000Y113900D02*
X34000Y114400D01*
X32000D02*
X33000Y113900D01*
X32000Y114400D02*
X32500Y113400D01*
X32000Y112400D02*
X32500Y113400D01*
X39354Y107000D02*
X40354Y107500D01*
X41354Y107000D01*
X40854Y108000D02*
X41354Y107000D01*
X40854Y108000D02*
X41354Y109000D01*
X40354Y108500D02*
X41354Y109000D01*
X39354D02*
X40354Y108500D01*
X39354Y109000D02*
X39854Y108000D01*
X39354Y107000D02*
X39854Y108000D01*
X42110Y35600D02*
X43110Y36100D01*
X44110Y35600D01*
X43610Y36600D02*
X44110Y35600D01*
X43610Y36600D02*
X44110Y37600D01*
X43110Y37100D02*
X44110Y37600D01*
X42110D02*
X43110Y37100D01*
X42110Y37600D02*
X42610Y36600D01*
X42110Y35600D02*
X42610Y36600D01*
X42800Y94400D02*
X43800Y94900D01*
X44800Y94400D01*
X44300Y95400D02*
X44800Y94400D01*
X44300Y95400D02*
X44800Y96400D01*
X43800Y95900D02*
X44800Y96400D01*
X42800D02*
X43800Y95900D01*
X42800Y96400D02*
X43300Y95400D01*
X42800Y94400D02*
X43300Y95400D01*
X51200Y94400D02*
X52200Y94900D01*
X53200Y94400D01*
X52700Y95400D02*
X53200Y94400D01*
X52700Y95400D02*
X53200Y96400D01*
X52200Y95900D02*
X53200Y96400D01*
X51200D02*
X52200Y95900D01*
X51200Y96400D02*
X51700Y95400D01*
X51200Y94400D02*
X51700Y95400D01*
X52400Y87200D02*
X53400Y87700D01*
X54400Y87200D01*
X53900Y88200D02*
X54400Y87200D01*
X53900Y88200D02*
X54400Y89200D01*
X53400Y88700D02*
X54400Y89200D01*
X52400D02*
X53400Y88700D01*
X52400Y89200D02*
X52900Y88200D01*
X52400Y87200D02*
X52900Y88200D01*
X55400Y152000D02*
X56400Y152500D01*
X57400Y152000D01*
X56900Y153000D02*
X57400Y152000D01*
X56900Y153000D02*
X57400Y154000D01*
X56400Y153500D02*
X57400Y154000D01*
X55400D02*
X56400Y153500D01*
X55400Y154000D02*
X55900Y153000D01*
X55400Y152000D02*
X55900Y153000D01*
X51153Y156200D02*
X52153Y156700D01*
X53153Y156200D01*
X52653Y157200D02*
X53153Y156200D01*
X52653Y157200D02*
X53153Y158200D01*
X52153Y157700D02*
X53153Y158200D01*
X51153D02*
X52153Y157700D01*
X51153Y158200D02*
X51653Y157200D01*
X51153Y156200D02*
X51653Y157200D01*
X72800Y152000D02*
X73800Y152500D01*
X74800Y152000D01*
X74300Y153000D02*
X74800Y152000D01*
X74300Y153000D02*
X74800Y154000D01*
X73800Y153500D02*
X74800Y154000D01*
X72800D02*
X73800Y153500D01*
X72800Y154000D02*
X73300Y153000D01*
X72800Y152000D02*
X73300Y153000D01*
X78800Y152000D02*
X79800Y152500D01*
X80800Y152000D01*
X80300Y153000D02*
X80800Y152000D01*
X80300Y153000D02*
X80800Y154000D01*
X79800Y153500D02*
X80800Y154000D01*
X78800D02*
X79800Y153500D01*
X78800Y154000D02*
X79300Y153000D01*
X78800Y152000D02*
X79300Y153000D01*
X80000Y147800D02*
X81000Y148300D01*
X82000Y147800D01*
X81500Y148800D02*
X82000Y147800D01*
X81500Y148800D02*
X82000Y149800D01*
X81000Y149300D02*
X82000Y149800D01*
X80000D02*
X81000Y149300D01*
X80000Y149800D02*
X80500Y148800D01*
X80000Y147800D02*
X80500Y148800D01*
X57071Y142400D02*
X58071Y142900D01*
X59071Y142400D01*
X58571Y143400D02*
X59071Y142400D01*
X58571Y143400D02*
X59071Y144400D01*
X58071Y143900D02*
X59071Y144400D01*
X57071D02*
X58071Y143900D01*
X57071Y144400D02*
X57571Y143400D01*
X57071Y142400D02*
X57571Y143400D01*
X92601Y142400D02*
X93601Y142900D01*
X94601Y142400D01*
X94101Y143400D02*
X94601Y142400D01*
X94101Y143400D02*
X94601Y144400D01*
X93601Y143900D02*
X94601Y144400D01*
X92601D02*
X93601Y143900D01*
X92601Y144400D02*
X93101Y143400D01*
X92601Y142400D02*
X93101Y143400D01*
X54905Y132071D02*
X55905Y132571D01*
X56906Y132071D01*
X56406Y133071D02*
X56906Y132071D01*
X56406Y133071D02*
X56906Y134071D01*
X55905Y133571D02*
X56906Y134071D01*
X54905D02*
X55905Y133571D01*
X54905Y134071D02*
X55405Y133071D01*
X54905Y132071D02*
X55405Y133071D01*
X59630Y132071D02*
X60630Y132571D01*
X61630Y132071D01*
X61130Y133071D02*
X61630Y132071D01*
X61130Y133071D02*
X61630Y134071D01*
X60630Y133571D02*
X61630Y134071D01*
X59630D02*
X60630Y133571D01*
X59630Y134071D02*
X60130Y133071D01*
X59630Y132071D02*
X60130Y133071D01*
X64354Y132071D02*
X65354Y132571D01*
X66354Y132071D01*
X65854Y133071D02*
X66354Y132071D01*
X65854Y133071D02*
X66354Y134071D01*
X65354Y133571D02*
X66354Y134071D01*
X64354D02*
X65354Y133571D01*
X64354Y134071D02*
X64854Y133071D01*
X64354Y132071D02*
X64854Y133071D01*
X69079Y132071D02*
X70079Y132571D01*
X71079Y132071D01*
X70579Y133071D02*
X71079Y132071D01*
X70579Y133071D02*
X71079Y134071D01*
X70079Y133571D02*
X71079Y134071D01*
X69079D02*
X70079Y133571D01*
X69079Y134071D02*
X69579Y133071D01*
X69079Y132071D02*
X69579Y133071D01*
X69079Y127347D02*
X70079Y127847D01*
X71079Y127347D01*
X70579Y128347D02*
X71079Y127347D01*
X70579Y128347D02*
X71079Y129347D01*
X70079Y128847D02*
X71079Y129347D01*
X69079D02*
X70079Y128847D01*
X69079Y129347D02*
X69579Y128347D01*
X69079Y127347D02*
X69579Y128347D01*
X64354Y127347D02*
X65354Y127847D01*
X66354Y127347D01*
X65854Y128347D02*
X66354Y127347D01*
X65854Y128347D02*
X66354Y129347D01*
X65354Y128847D02*
X66354Y129347D01*
X64354D02*
X65354Y128847D01*
X64354Y129347D02*
X64854Y128347D01*
X64354Y127347D02*
X64854Y128347D01*
X59630Y127347D02*
X60630Y127847D01*
X61630Y127347D01*
X61130Y128347D02*
X61630Y127347D01*
X61130Y128347D02*
X61630Y129347D01*
X60630Y128847D02*
X61630Y129347D01*
X59630D02*
X60630Y128847D01*
X59630Y129347D02*
X60130Y128347D01*
X59630Y127347D02*
X60130Y128347D01*
X54905Y127347D02*
X55905Y127847D01*
X56906Y127347D01*
X56406Y128347D02*
X56906Y127347D01*
X56406Y128347D02*
X56906Y129347D01*
X55905Y128847D02*
X56906Y129347D01*
X54905D02*
X55905Y128847D01*
X54905Y129347D02*
X55405Y128347D01*
X54905Y127347D02*
X55405Y128347D01*
X69079Y122622D02*
X70079Y123122D01*
X71079Y122622D01*
X70579Y123622D02*
X71079Y122622D01*
X70579Y123622D02*
X71079Y124622D01*
X70079Y124122D02*
X71079Y124622D01*
X69079D02*
X70079Y124122D01*
X69079Y124622D02*
X69579Y123622D01*
X69079Y122622D02*
X69579Y123622D01*
X64354Y122622D02*
X65354Y123122D01*
X66354Y122622D01*
X65854Y123622D02*
X66354Y122622D01*
X65854Y123622D02*
X66354Y124622D01*
X65354Y124122D02*
X66354Y124622D01*
X64354D02*
X65354Y124122D01*
X64354Y124622D02*
X64854Y123622D01*
X64354Y122622D02*
X64854Y123622D01*
X59630Y122622D02*
X60630Y123122D01*
X61630Y122622D01*
X61130Y123622D02*
X61630Y122622D01*
X61130Y123622D02*
X61630Y124622D01*
X60630Y124122D02*
X61630Y124622D01*
X59630D02*
X60630Y124122D01*
X59630Y124622D02*
X60130Y123622D01*
X59630Y122622D02*
X60130Y123622D01*
X54905Y122622D02*
X55905Y123122D01*
X56906Y122622D01*
X56406Y123622D02*
X56906Y122622D01*
X56406Y123622D02*
X56906Y124622D01*
X55905Y124122D02*
X56906Y124622D01*
X54905D02*
X55905Y124122D01*
X54905Y124622D02*
X55405Y123622D01*
X54905Y122622D02*
X55405Y123622D01*
X69079Y117898D02*
X70079Y118398D01*
X71079Y117898D01*
X70579Y118898D02*
X71079Y117898D01*
X70579Y118898D02*
X71079Y119898D01*
X70079Y119398D02*
X71079Y119898D01*
X69079D02*
X70079Y119398D01*
X69079Y119898D02*
X69579Y118898D01*
X69079Y117898D02*
X69579Y118898D01*
X64354Y117898D02*
X65354Y118398D01*
X66354Y117898D01*
X65854Y118898D02*
X66354Y117898D01*
X65854Y118898D02*
X66354Y119898D01*
X65354Y119398D02*
X66354Y119898D01*
X64354D02*
X65354Y119398D01*
X64354Y119898D02*
X64854Y118898D01*
X64354Y117898D02*
X64854Y118898D01*
X59630Y117898D02*
X60630Y118398D01*
X61630Y117898D01*
X61130Y118898D02*
X61630Y117898D01*
X61130Y118898D02*
X61630Y119898D01*
X60630Y119398D02*
X61630Y119898D01*
X59630D02*
X60630Y119398D01*
X59630Y119898D02*
X60130Y118898D01*
X59630Y117898D02*
X60130Y118898D01*
X54905Y117898D02*
X55905Y118398D01*
X56906Y117898D01*
X56406Y118898D02*
X56906Y117898D01*
X56406Y118898D02*
X56906Y119898D01*
X55905Y119398D02*
X56906Y119898D01*
X54905D02*
X55905Y119398D01*
X54905Y119898D02*
X55405Y118898D01*
X54905Y117898D02*
X55405Y118898D01*
X74197Y49787D02*
X75197Y50287D01*
X76197Y49787D01*
X75697Y50787D02*
X76197Y49787D01*
X75697Y50787D02*
X76197Y51787D01*
X75197Y51287D02*
X76197Y51787D01*
X74197D02*
X75197Y51287D01*
X74197Y51787D02*
X74697Y50787D01*
X74197Y49787D02*
X74697Y50787D01*
X77740Y49787D02*
X78740Y50287D01*
X79740Y49787D01*
X79240Y50787D02*
X79740Y49787D01*
X79240Y50787D02*
X79740Y51787D01*
X78740Y51287D02*
X79740Y51787D01*
X77740D02*
X78740Y51287D01*
X77740Y51787D02*
X78240Y50787D01*
X77740Y49787D02*
X78240Y50787D01*
X81283Y49787D02*
X82284Y50287D01*
X83284Y49787D01*
X82784Y50787D02*
X83284Y49787D01*
X82784Y50787D02*
X83284Y51787D01*
X82284Y51287D02*
X83284Y51787D01*
X81283D02*
X82284Y51287D01*
X81283Y51787D02*
X81783Y50787D01*
X81283Y49787D02*
X81783Y50787D01*
X81283Y46244D02*
X82284Y46744D01*
X83284Y46244D01*
X82784Y47244D02*
X83284Y46244D01*
X82784Y47244D02*
X83284Y48244D01*
X82284Y47744D02*
X83284Y48244D01*
X81283D02*
X82284Y47744D01*
X81283Y48244D02*
X81783Y47244D01*
X81283Y46244D02*
X81783Y47244D01*
X77740Y46244D02*
X78740Y46744D01*
X79740Y46244D01*
X79240Y47244D02*
X79740Y46244D01*
X79240Y47244D02*
X79740Y48244D01*
X78740Y47744D02*
X79740Y48244D01*
X77740D02*
X78740Y47744D01*
X77740Y48244D02*
X78240Y47244D01*
X77740Y46244D02*
X78240Y47244D01*
X74197Y46244D02*
X75197Y46744D01*
X76197Y46244D01*
X75697Y47244D02*
X76197Y46244D01*
X75697Y47244D02*
X76197Y48244D01*
X75197Y47744D02*
X76197Y48244D01*
X74197D02*
X75197Y47744D01*
X74197Y48244D02*
X74697Y47244D01*
X74197Y46244D02*
X74697Y47244D01*
X81283Y42701D02*
X82284Y43201D01*
X83284Y42701D01*
X82784Y43701D02*
X83284Y42701D01*
X82784Y43701D02*
X83284Y44701D01*
X82284Y44201D02*
X83284Y44701D01*
X81283D02*
X82284Y44201D01*
X81283Y44701D02*
X81783Y43701D01*
X81283Y42701D02*
X81783Y43701D01*
X77740Y42701D02*
X78740Y43201D01*
X79740Y42701D01*
X79240Y43701D02*
X79740Y42701D01*
X79240Y43701D02*
X79740Y44701D01*
X78740Y44201D02*
X79740Y44701D01*
X77740D02*
X78740Y44201D01*
X77740Y44701D02*
X78240Y43701D01*
X77740Y42701D02*
X78240Y43701D01*
X74197Y42701D02*
X75197Y43201D01*
X76197Y42701D01*
X75697Y43701D02*
X76197Y42701D01*
X75697Y43701D02*
X76197Y44701D01*
X75197Y44201D02*
X76197Y44701D01*
X74197D02*
X75197Y44201D01*
X74197Y44701D02*
X74697Y43701D01*
X74197Y42701D02*
X74697Y43701D01*
X22819Y35600D02*
X23819Y36100D01*
X24819Y35600D01*
X24319Y36600D02*
X24819Y35600D01*
X24319Y36600D02*
X24819Y37600D01*
X23819Y37100D02*
X24819Y37600D01*
X22819D02*
X23819Y37100D01*
X22819Y37600D02*
X23319Y36600D01*
X22819Y35600D02*
X23319Y36600D01*
X68882Y92012D02*
X69882Y92512D01*
X70882Y92012D01*
X70382Y93012D02*
X70882Y92012D01*
X70382Y93012D02*
X70882Y94012D01*
X69882Y93512D02*
X70882Y94012D01*
X68882D02*
X69882Y93512D01*
X68882Y94012D02*
X69382Y93012D01*
X68882Y92012D02*
X69382Y93012D01*
X29000Y123016D02*
X30000Y123516D01*
X31000Y123016D01*
X30500Y124016D02*
X31000Y123016D01*
X30500Y124016D02*
X31000Y125016D01*
X30000Y124516D02*
X31000Y125016D01*
X29000D02*
X30000Y124516D01*
X29000Y125016D02*
X29500Y124016D01*
X29000Y123016D02*
X29500Y124016D01*
X95000Y123950D02*
X96000Y124450D01*
X97000Y123950D01*
X96500Y124950D02*
X97000Y123950D01*
X96500Y124950D02*
X97000Y125950D01*
X96000Y125450D02*
X97000Y125950D01*
X95000D02*
X96000Y125450D01*
X95000Y125950D02*
X95500Y124950D01*
X95000Y123950D02*
X95500Y124950D01*
X53134Y107600D02*
X54134Y108100D01*
X55134Y107600D01*
X54634Y108600D02*
X55134Y107600D01*
X54634Y108600D02*
X55134Y109600D01*
X54134Y109100D02*
X55134Y109600D01*
X53134D02*
X54134Y109100D01*
X53134Y109600D02*
X53634Y108600D01*
X53134Y107600D02*
X53634Y108600D01*
X74787Y107600D02*
X75787Y108100D01*
X76787Y107600D01*
X76287Y108600D02*
X76787Y107600D01*
X76287Y108600D02*
X76787Y109600D01*
X75787Y109100D02*
X76787Y109600D01*
X74787D02*
X75787Y109100D01*
X74787Y109600D02*
X75287Y108600D01*
X74787Y107600D02*
X75287Y108600D01*
X66913Y107600D02*
X67913Y108100D01*
X68913Y107600D01*
X68413Y108600D02*
X68913Y107600D01*
X68413Y108600D02*
X68913Y109600D01*
X67913Y109100D02*
X68913Y109600D01*
X66913D02*
X67913Y109100D01*
X66913Y109600D02*
X67413Y108600D01*
X66913Y107600D02*
X67413Y108600D01*
X71063Y142400D02*
X72063Y142900D01*
X73063Y142400D01*
X72563Y143400D02*
X73063Y142400D01*
X72563Y143400D02*
X73063Y144400D01*
X72063Y143900D02*
X73063Y144400D01*
X71063D02*
X72063Y143900D01*
X71063Y144400D02*
X71563Y143400D01*
X71063Y142400D02*
X71563Y143400D01*
X14600Y122129D02*
X15600Y122629D01*
X16600Y122129D01*
X16100Y123129D02*
X16600Y122129D01*
X16100Y123129D02*
X16600Y124129D01*
X15600Y123629D02*
X16600Y124129D01*
X14600D02*
X15600Y123629D01*
X14600Y124129D02*
X15100Y123129D01*
X14600Y122129D02*
X15100Y123129D01*
X16400Y108800D02*
X17400Y109300D01*
X18400Y108800D01*
X17900Y109800D02*
X18400Y108800D01*
X17900Y109800D02*
X18400Y110800D01*
X17400Y110300D02*
X18400Y110800D01*
X16400D02*
X17400Y110300D01*
X16400Y110800D02*
X16900Y109800D01*
X16400Y108800D02*
X16900Y109800D01*
X45200Y111200D02*
X46200Y111700D01*
X47200Y111200D01*
X46700Y112200D02*
X47200Y111200D01*
X46700Y112200D02*
X47200Y113200D01*
X46200Y112700D02*
X47200Y113200D01*
X45200D02*
X46200Y112700D01*
X45200Y113200D02*
X45700Y112200D01*
X45200Y111200D02*
X45700Y112200D01*
X27484Y109400D02*
X28484Y109900D01*
X29484Y109400D01*
X28984Y110400D02*
X29484Y109400D01*
X28984Y110400D02*
X29484Y111400D01*
X28484Y110900D02*
X29484Y111400D01*
X27484D02*
X28484Y110900D01*
X27484Y111400D02*
X27984Y110400D01*
X27484Y109400D02*
X27984Y110400D01*
X29000Y116126D02*
X30000Y116626D01*
X31000Y116126D01*
X30500Y117126D02*
X31000Y116126D01*
X30500Y117126D02*
X31000Y118126D01*
X30000Y117626D02*
X31000Y118126D01*
X29000D02*
X30000Y117626D01*
X29000Y118126D02*
X29500Y117126D01*
X29000Y116126D02*
X29500Y117126D01*
X86000Y159200D02*
X87000Y159700D01*
X88000Y159200D01*
X87500Y160200D02*
X88000Y159200D01*
X87500Y160200D02*
X88000Y161200D01*
X87000Y160700D02*
X88000Y161200D01*
X86000D02*
X87000Y160700D01*
X86000Y161200D02*
X86500Y160200D01*
X86000Y159200D02*
X86500Y160200D01*
X53600Y96800D02*
X54600Y97300D01*
X55600Y96800D01*
X55100Y97800D02*
X55600Y96800D01*
X55100Y97800D02*
X55600Y98800D01*
X54600Y98300D02*
X55600Y98800D01*
X53600D02*
X54600Y98300D01*
X53600Y98800D02*
X54100Y97800D01*
X53600Y96800D02*
X54100Y97800D01*
X103400Y122600D02*
X104400Y123100D01*
X105400Y122600D01*
X104900Y123600D02*
X105400Y122600D01*
X104900Y123600D02*
X105400Y124600D01*
X104400Y124100D02*
X105400Y124600D01*
X103400D02*
X104400Y124100D01*
X103400Y124600D02*
X103900Y123600D01*
X103400Y122600D02*
X103900Y123600D01*
X58055Y60024D02*
X59055Y60524D01*
X60055Y60024D01*
X59555Y61024D02*
X60055Y60024D01*
X59555Y61024D02*
X60055Y62024D01*
X59055Y61524D02*
X60055Y62024D01*
X58055D02*
X59055Y61524D01*
X58055Y62024D02*
X58555Y61024D01*
X58055Y60024D02*
X58555Y61024D01*
X97425Y60024D02*
X98425Y60524D01*
X99425Y60024D01*
X98925Y61024D02*
X99425Y60024D01*
X98925Y61024D02*
X99425Y62024D01*
X98425Y61524D02*
X99425Y62024D01*
X97425D02*
X98425Y61524D01*
X97425Y62024D02*
X97925Y61024D01*
X97425Y60024D02*
X97925Y61024D01*
X91520Y34433D02*
X92520Y34933D01*
X93520Y34433D01*
X93020Y35433D02*
X93520Y34433D01*
X93020Y35433D02*
X93520Y36433D01*
X92520Y35933D02*
X93520Y36433D01*
X91520D02*
X92520Y35933D01*
X91520Y36433D02*
X92020Y35433D01*
X91520Y34433D02*
X92020Y35433D01*
X63961Y34433D02*
X64961Y34933D01*
X65961Y34433D01*
X65461Y35433D02*
X65961Y34433D01*
X65461Y35433D02*
X65961Y36433D01*
X64961Y35933D02*
X65961Y36433D01*
X63961D02*
X64961Y35933D01*
X63961Y36433D02*
X64461Y35433D01*
X63961Y34433D02*
X64461Y35433D01*
X5000Y57200D02*
X6000Y57700D01*
X7000Y57200D01*
X6500Y58200D02*
X7000Y57200D01*
X6500Y58200D02*
X7000Y59200D01*
X6000Y58700D02*
X7000Y59200D01*
X5000D02*
X6000Y58700D01*
X5000Y59200D02*
X5500Y58200D01*
X5000Y57200D02*
X5500Y58200D01*
X24800Y46400D02*
X25800Y46900D01*
X26800Y46400D01*
X26300Y47400D02*
X26800Y46400D01*
X26300Y47400D02*
X26800Y48400D01*
X25800Y47900D02*
X26800Y48400D01*
X24800D02*
X25800Y47900D01*
X24800Y48400D02*
X25300Y47400D01*
X24800Y46400D02*
X25300Y47400D01*
X17600Y39200D02*
X18600Y39700D01*
X19600Y39200D01*
X19100Y40200D02*
X19600Y39200D01*
X19100Y40200D02*
X19600Y41200D01*
X18600Y40700D02*
X19600Y41200D01*
X17600D02*
X18600Y40700D01*
X17600Y41200D02*
X18100Y40200D01*
X17600Y39200D02*
X18100Y40200D01*
X30200Y78200D02*
X31200Y78700D01*
X32200Y78200D01*
X31700Y79200D02*
X32200Y78200D01*
X31700Y79200D02*
X32200Y80200D01*
X31200Y79700D02*
X32200Y80200D01*
X30200D02*
X31200Y79700D01*
X30200Y80200D02*
X30700Y79200D01*
X30200Y78200D02*
X30700Y79200D01*
X23000Y93200D02*
X24000Y93700D01*
X25000Y93200D01*
X24500Y94200D02*
X25000Y93200D01*
X24500Y94200D02*
X25000Y95200D01*
X24000Y94700D02*
X25000Y95200D01*
X23000D02*
X24000Y94700D01*
X23000Y95200D02*
X23500Y94200D01*
X23000Y93200D02*
X23500Y94200D01*
X22400Y116000D02*
X23400Y116500D01*
X24400Y116000D01*
X23900Y117000D02*
X24400Y116000D01*
X23900Y117000D02*
X24400Y118000D01*
X23400Y117500D02*
X24400Y118000D01*
X22400D02*
X23400Y117500D01*
X22400Y118000D02*
X22900Y117000D01*
X22400Y116000D02*
X22900Y117000D01*
X75800Y159200D02*
X76800Y159700D01*
X77800Y159200D01*
X77300Y160200D02*
X77800Y159200D01*
X77300Y160200D02*
X77800Y161200D01*
X76800Y160700D02*
X77800Y161200D01*
X75800D02*
X76800Y160700D01*
X75800Y161200D02*
X76300Y160200D01*
X75800Y159200D02*
X76300Y160200D01*
X97425Y166323D02*
X98425Y166823D01*
X99425Y166323D01*
X98925Y167323D02*
X99425Y166323D01*
X98925Y167323D02*
X99425Y168323D01*
X98425Y167823D02*
X99425Y168323D01*
X97425D02*
X98425Y167823D01*
X97425Y168323D02*
X97925Y167323D01*
X97425Y166323D02*
X97925Y167323D01*
X107000Y143600D02*
X108000Y144100D01*
X109000Y143600D01*
X108500Y144600D02*
X109000Y143600D01*
X108500Y144600D02*
X109000Y145600D01*
X108000Y145100D02*
X109000Y145600D01*
X107000D02*
X108000Y145100D01*
X107000Y145600D02*
X107500Y144600D01*
X107000Y143600D02*
X107500Y144600D01*
X18800Y154400D02*
X19800Y154900D01*
X20800Y154400D01*
X20300Y155400D02*
X20800Y154400D01*
X20300Y155400D02*
X20800Y156400D01*
X19800Y155900D02*
X20800Y156400D01*
X18800D02*
X19800Y155900D01*
X18800Y156400D02*
X19300Y155400D01*
X18800Y154400D02*
X19300Y155400D01*
X5600Y30200D02*
X6600Y30700D01*
X7600Y30200D01*
X7100Y31200D02*
X7600Y30200D01*
X7100Y31200D02*
X7600Y32200D01*
X6600Y31700D02*
X7600Y32200D01*
X5600D02*
X6600Y31700D01*
X5600Y32200D02*
X6100Y31200D01*
X5600Y30200D02*
X6100Y31200D01*
X42200Y46400D02*
X43200Y46900D01*
X44200Y46400D01*
X43700Y47400D02*
X44200Y46400D01*
X43700Y47400D02*
X44200Y48400D01*
X43200Y47900D02*
X44200Y48400D01*
X42200D02*
X43200Y47900D01*
X42200Y48400D02*
X42700Y47400D01*
X42200Y46400D02*
X42700Y47400D01*
X30800Y39617D02*
X31800Y40117D01*
X32800Y39617D01*
X32300Y40617D02*
X32800Y39617D01*
X32300Y40617D02*
X32800Y41617D01*
X31800Y41117D02*
X32800Y41617D01*
X30800D02*
X31800Y41117D01*
X30800Y41617D02*
X31300Y40617D01*
X30800Y39617D02*
X31300Y40617D01*
X35417Y35000D02*
X36417Y35500D01*
X37417Y35000D01*
X36917Y36000D02*
X37417Y35000D01*
X36917Y36000D02*
X37417Y37000D01*
X36417Y36500D02*
X37417Y37000D01*
X35417D02*
X36417Y36500D01*
X35417Y37000D02*
X35917Y36000D01*
X35417Y35000D02*
X35917Y36000D01*
X89600Y110000D02*
X90600Y110500D01*
X91600Y110000D01*
X91100Y111000D02*
X91600Y110000D01*
X91100Y111000D02*
X91600Y112000D01*
X90600Y111500D02*
X91600Y112000D01*
X89600D02*
X90600Y111500D01*
X89600Y112000D02*
X90100Y111000D01*
X89600Y110000D02*
X90100Y111000D01*
X54118Y16716D02*
X55118Y17217D01*
X56118Y16716D01*
X55618Y17717D02*
X56118Y16716D01*
X55618Y17717D02*
X56118Y18717D01*
X55118Y18216D02*
X56118Y18717D01*
X54118D02*
X55118Y18216D01*
X54118Y18717D02*
X54618Y17717D01*
X54118Y16716D02*
X54618Y17717D01*
X54118Y20653D02*
X55118Y21154D01*
X56118Y20653D01*
X55618Y21654D02*
X56118Y20653D01*
X55618Y21654D02*
X56118Y22654D01*
X55118Y22153D02*
X56118Y22654D01*
X54118D02*
X55118Y22153D01*
X54118Y22654D02*
X54618Y21654D01*
X54118Y20653D02*
X54618Y21654D01*
X77740Y28528D02*
X78740Y29028D01*
X79740Y28528D01*
X79240Y29528D02*
X79740Y28528D01*
X79240Y29528D02*
X79740Y30528D01*
X78740Y30028D02*
X79740Y30528D01*
X77740D02*
X78740Y30028D01*
X77740Y30528D02*
X78240Y29528D01*
X77740Y28528D02*
X78240Y29528D01*
X73803Y28528D02*
X74803Y29028D01*
X75803Y28528D01*
X75303Y29528D02*
X75803Y28528D01*
X75303Y29528D02*
X75803Y30528D01*
X74803Y30028D02*
X75803Y30528D01*
X73803D02*
X74803Y30028D01*
X73803Y30528D02*
X74303Y29528D01*
X73803Y28528D02*
X74303Y29528D01*
X81677Y28528D02*
X82677Y29028D01*
X83677Y28528D01*
X83177Y29528D02*
X83677Y28528D01*
X83177Y29528D02*
X83677Y30528D01*
X82677Y30028D02*
X83677Y30528D01*
X81677D02*
X82677Y30028D01*
X81677Y30528D02*
X82177Y29528D01*
X81677Y28528D02*
X82177Y29528D01*
X81677Y65929D02*
X82677Y66429D01*
X83677Y65929D01*
X83177Y66929D02*
X83677Y65929D01*
X83177Y66929D02*
X83677Y67929D01*
X82677Y67429D02*
X83677Y67929D01*
X81677D02*
X82677Y67429D01*
X81677Y67929D02*
X82177Y66929D01*
X81677Y65929D02*
X82177Y66929D01*
X79709Y63961D02*
X80709Y64461D01*
X81709Y63961D01*
X81209Y64961D02*
X81709Y63961D01*
X81209Y64961D02*
X81709Y65961D01*
X80709Y65461D02*
X81709Y65961D01*
X79709D02*
X80709Y65461D01*
X79709Y65961D02*
X80209Y64961D01*
X79709Y63961D02*
X80209Y64961D01*
X73803Y65929D02*
X74803Y66429D01*
X75803Y65929D01*
X75303Y66929D02*
X75803Y65929D01*
X75303Y66929D02*
X75803Y67929D01*
X74803Y67429D02*
X75803Y67929D01*
X73803D02*
X74803Y67429D01*
X73803Y67929D02*
X74303Y66929D01*
X73803Y65929D02*
X74303Y66929D01*
X62989Y142400D02*
X63989Y142900D01*
X64989Y142400D01*
X64489Y143400D02*
X64989Y142400D01*
X64489Y143400D02*
X64989Y144400D01*
X63989Y143900D02*
X64989Y144400D01*
X62989D02*
X63989Y143900D01*
X62989Y144400D02*
X63489Y143400D01*
X62989Y142400D02*
X63489Y143400D01*
X81200Y107000D02*
X82200Y107500D01*
X83200Y107000D01*
X82700Y108000D02*
X83200Y107000D01*
X82700Y108000D02*
X83200Y109000D01*
X82200Y108500D02*
X83200Y109000D01*
X81200D02*
X82200Y108500D01*
X81200Y109000D02*
X81700Y108000D01*
X81200Y107000D02*
X81700Y108000D01*
X49400Y39200D02*
X50400Y39700D01*
X51400Y39200D01*
X50900Y40200D02*
X51400Y39200D01*
X50900Y40200D02*
X51400Y41200D01*
X50400Y40700D02*
X51400Y41200D01*
X49400D02*
X50400Y40700D01*
X49400Y41200D02*
X49900Y40200D01*
X49400Y39200D02*
X49900Y40200D01*
X47600Y53000D02*
X48600Y53500D01*
X49600Y53000D01*
X49100Y54000D02*
X49600Y53000D01*
X49100Y54000D02*
X49600Y55000D01*
X48600Y54500D02*
X49600Y55000D01*
X47600D02*
X48600Y54500D01*
X47600Y55000D02*
X48100Y54000D01*
X47600Y53000D02*
X48100Y54000D01*
X38600Y62000D02*
X39600Y62500D01*
X40600Y62000D01*
X40100Y63000D02*
X40600Y62000D01*
X40100Y63000D02*
X40600Y64000D01*
X39600Y63500D02*
X40600Y64000D01*
X38600D02*
X39600Y63500D01*
X38600Y64000D02*
X39100Y63000D01*
X38600Y62000D02*
X39100Y63000D01*
X69866Y65929D02*
X70866Y66429D01*
X71866Y65929D01*
X71366Y66929D02*
X71866Y65929D01*
X71366Y66929D02*
X71866Y67929D01*
X70866Y67429D02*
X71866Y67929D01*
X69866D02*
X70866Y67429D01*
X69866Y67929D02*
X70366Y66929D01*
X69866Y65929D02*
X70366Y66929D01*
X89000Y92000D02*
X90000Y92500D01*
X91000Y92000D01*
X90500Y93000D02*
X91000Y92000D01*
X90500Y93000D02*
X91000Y94000D01*
X90000Y93500D02*
X91000Y94000D01*
X89000D02*
X90000Y93500D01*
X89000Y94000D02*
X89500Y93000D01*
X89000Y92000D02*
X89500Y93000D01*
X54200Y76659D02*
X55200Y77159D01*
X56200Y76659D01*
X55700Y77659D02*
X56200Y76659D01*
X55700Y77659D02*
X56200Y78659D01*
X55200Y78159D02*
X56200Y78659D01*
X54200D02*
X55200Y78159D01*
X54200Y78659D02*
X54700Y77659D01*
X54200Y76659D02*
X54700Y77659D01*
X73400Y84800D02*
X74400Y85300D01*
X75400Y84800D01*
X74900Y85800D02*
X75400Y84800D01*
X74900Y85800D02*
X75400Y86800D01*
X74400Y86300D02*
X75400Y86800D01*
X73400D02*
X74400Y86300D01*
X73400Y86800D02*
X73900Y85800D01*
X73400Y84800D02*
X73900Y85800D01*
X18800Y61400D02*
X19800Y61900D01*
X20800Y61400D01*
X20300Y62400D02*
X20800Y61400D01*
X20300Y62400D02*
X20800Y63400D01*
X19800Y62900D02*
X20800Y63400D01*
X18800D02*
X19800Y62900D01*
X18800Y63400D02*
X19300Y62400D01*
X18800Y61400D02*
X19300Y62400D01*
X65000Y61400D02*
X66000Y61900D01*
X67000Y61400D01*
X66500Y62400D02*
X67000Y61400D01*
X66500Y62400D02*
X67000Y63400D01*
X66000Y62900D02*
X67000Y63400D01*
X65000D02*
X66000Y62900D01*
X65000Y63400D02*
X65500Y62400D01*
X65000Y61400D02*
X65500Y62400D01*
X94400Y6579D02*
X95400Y7079D01*
X96400Y6579D01*
X95900Y7579D02*
X96400Y6579D01*
X95900Y7579D02*
X96400Y8579D01*
X95400Y8079D02*
X96400Y8579D01*
X94400D02*
X95400Y8079D01*
X94400Y8579D02*
X94900Y7579D01*
X94400Y6579D02*
X94900Y7579D01*
X44276Y72200D02*
X45276Y72700D01*
X46276Y72200D01*
X45776Y73200D02*
X46276Y72200D01*
X45776Y73200D02*
X46276Y74200D01*
X45276Y73700D02*
X46276Y74200D01*
X44276D02*
X45276Y73700D01*
X44276Y74200D02*
X44776Y73200D01*
X44276Y72200D02*
X44776Y73200D01*
X64616Y71403D02*
X65616Y71903D01*
X66616Y71403D01*
X66116Y72403D02*
X66616Y71403D01*
X66116Y72403D02*
X66616Y73403D01*
X65616Y72903D02*
X66616Y73403D01*
X64616D02*
X65616Y72903D01*
X64616Y73403D02*
X65116Y72403D01*
X64616Y71403D02*
X65116Y72403D01*
X58580Y82059D02*
X59580Y82559D01*
X60580Y82059D01*
X60080Y83059D02*
X60580Y82059D01*
X60080Y83059D02*
X60580Y84059D01*
X59580Y83559D02*
X60580Y84059D01*
X58580D02*
X59580Y83559D01*
X58580Y84059D02*
X59080Y83059D01*
X58580Y82059D02*
X59080Y83059D01*
X63283Y6596D02*
X64283Y7096D01*
X65283Y6596D01*
X64783Y7596D02*
X65283Y6596D01*
X64783Y7596D02*
X65283Y8596D01*
X64283Y8096D02*
X65283Y8596D01*
X63283D02*
X64283Y8096D01*
X63283Y8596D02*
X63783Y7596D01*
X63283Y6596D02*
X63783Y7596D01*
X67400Y10811D02*
X68400Y11311D01*
X69400Y10811D01*
X68900Y11811D02*
X69400Y10811D01*
X68900Y11811D02*
X69400Y12811D01*
X68400Y12311D02*
X69400Y12811D01*
X67400D02*
X68400Y12311D01*
X67400Y12811D02*
X67900Y11811D01*
X67400Y10811D02*
X67900Y11811D01*
X97425Y44276D02*
X98425Y44776D01*
X99425Y44276D01*
X98925Y45276D02*
X99425Y44276D01*
X98925Y45276D02*
X99425Y46276D01*
X98425Y45776D02*
X99425Y46276D01*
X97425D02*
X98425Y45776D01*
X97425Y46276D02*
X97925Y45276D01*
X97425Y44276D02*
X97925Y45276D01*
X87583Y22622D02*
X88583Y23122D01*
X89583Y22622D01*
X89083Y23622D02*
X89583Y22622D01*
X89083Y23622D02*
X89583Y24622D01*
X88583Y24122D02*
X89583Y24622D01*
X87583D02*
X88583Y24122D01*
X87583Y24622D02*
X88083Y23622D01*
X87583Y22622D02*
X88083Y23622D01*
X95457Y103331D02*
X96457Y103831D01*
X97457Y103331D01*
X96957Y104331D02*
X97457Y103331D01*
X96957Y104331D02*
X97457Y105331D01*
X96457Y104831D02*
X97457Y105331D01*
X95457D02*
X96457Y104831D01*
X95457Y105331D02*
X95957Y104331D01*
X95457Y103331D02*
X95957Y104331D01*
X90200Y159200D02*
X91200Y159700D01*
X92200Y159200D01*
X91700Y160200D02*
X92200Y159200D01*
X91700Y160200D02*
X92200Y161200D01*
X91200Y160700D02*
X92200Y161200D01*
X90200D02*
X91200Y160700D01*
X90200Y161200D02*
X90700Y160200D01*
X90200Y159200D02*
X90700Y160200D01*
X31400Y98000D02*
X32400Y98500D01*
X33400Y98000D01*
X32900Y99000D02*
X33400Y98000D01*
X32900Y99000D02*
X33400Y100000D01*
X32400Y99500D02*
X33400Y100000D01*
X31400D02*
X32400Y99500D01*
X31400Y100000D02*
X31900Y99000D01*
X31400Y98000D02*
X31900Y99000D01*
X43400Y102200D02*
X44400Y102700D01*
X45400Y102200D01*
X44900Y103200D02*
X45400Y102200D01*
X44900Y103200D02*
X45400Y104200D01*
X44400Y103700D02*
X45400Y104200D01*
X43400D02*
X44400Y103700D01*
X43400Y104200D02*
X43900Y103200D01*
X43400Y102200D02*
X43900Y103200D01*
X90480Y61400D02*
X91480Y61900D01*
X92480Y61400D01*
X91980Y62400D02*
X92480Y61400D01*
X91980Y62400D02*
X92480Y63400D01*
X91480Y62900D02*
X92480Y63400D01*
X90480D02*
X91480Y62900D01*
X90480Y63400D02*
X90980Y62400D01*
X90480Y61400D02*
X90980Y62400D01*
X90480Y68600D02*
X91480Y69100D01*
X92480Y68600D01*
X91980Y69600D02*
X92480Y68600D01*
X91980Y69600D02*
X92480Y70600D01*
X91480Y70100D02*
X92480Y70600D01*
X90480D02*
X91480Y70100D01*
X90480Y70600D02*
X90980Y69600D01*
X90480Y68600D02*
X90980Y69600D01*
X107000Y159200D02*
X108000Y159700D01*
X109000Y159200D01*
X108500Y160200D02*
X109000Y159200D01*
X108500Y160200D02*
X109000Y161200D01*
X108000Y160700D02*
X109000Y161200D01*
X107000D02*
X108000Y160700D01*
X107000Y161200D02*
X107500Y160200D01*
X107000Y159200D02*
X107500Y160200D01*
X90200Y47000D02*
X91200Y47500D01*
X92200Y47000D01*
X91700Y48000D02*
X92200Y47000D01*
X91700Y48000D02*
X92200Y49000D01*
X91200Y48500D02*
X92200Y49000D01*
X90200D02*
X91200Y48500D01*
X90200Y49000D02*
X90700Y48000D01*
X90200Y47000D02*
X90700Y48000D01*
X65600Y47000D02*
X66600Y47500D01*
X67600Y47000D01*
X67100Y48000D02*
X67600Y47000D01*
X67100Y48000D02*
X67600Y49000D01*
X66600Y48500D02*
X67600Y49000D01*
X65600D02*
X66600Y48500D01*
X65600Y49000D02*
X66100Y48000D01*
X65600Y47000D02*
X66100Y48000D01*
X84200Y77000D02*
X85200Y77500D01*
X86200Y77000D01*
X85700Y78000D02*
X86200Y77000D01*
X85700Y78000D02*
X86200Y79000D01*
X85200Y78500D02*
X86200Y79000D01*
X84200D02*
X85200Y78500D01*
X84200Y79000D02*
X84700Y78000D01*
X84200Y77000D02*
X84700Y78000D01*
X68000Y54200D02*
X69000Y54700D01*
X70000Y54200D01*
X69500Y55200D02*
X70000Y54200D01*
X69500Y55200D02*
X70000Y56200D01*
X69000Y55700D02*
X70000Y56200D01*
X68000D02*
X69000Y55700D01*
X68000Y56200D02*
X68500Y55200D01*
X68000Y54200D02*
X68500Y55200D01*
X69200Y38000D02*
X70200Y38500D01*
X71200Y38000D01*
X70700Y39000D02*
X71200Y38000D01*
X70700Y39000D02*
X71200Y40000D01*
X70200Y39500D02*
X71200Y40000D01*
X69200D02*
X70200Y39500D01*
X69200Y40000D02*
X69700Y39000D01*
X69200Y38000D02*
X69700Y39000D01*
X86280Y38000D02*
X87280Y38500D01*
X88280Y38000D01*
X87780Y39000D02*
X88280Y38000D01*
X87780Y39000D02*
X88280Y40000D01*
X87280Y39500D02*
X88280Y40000D01*
X86280D02*
X87280Y39500D01*
X86280Y40000D02*
X86780Y39000D01*
X86280Y38000D02*
X86780Y39000D01*
X87480Y54200D02*
X88480Y54700D01*
X89480Y54200D01*
X88980Y55200D02*
X89480Y54200D01*
X88980Y55200D02*
X89480Y56200D01*
X88480Y55700D02*
X89480Y56200D01*
X87480D02*
X88480Y55700D01*
X87480Y56200D02*
X87980Y55200D01*
X87480Y54200D02*
X87980Y55200D01*
X7400Y61400D02*
X8400Y61900D01*
X9400Y61400D01*
X8900Y62400D02*
X9400Y61400D01*
X8900Y62400D02*
X9400Y63400D01*
X8400Y62900D02*
X9400Y63400D01*
X7400D02*
X8400Y62900D01*
X7400Y63400D02*
X7900Y62400D01*
X7400Y61400D02*
X7900Y62400D01*
X74000Y168200D02*
X75000Y168700D01*
X76000Y168200D01*
X75500Y169200D02*
X76000Y168200D01*
X75500Y169200D02*
X76000Y170200D01*
X75000Y169700D02*
X76000Y170200D01*
X74000D02*
X75000Y169700D01*
X74000Y170200D02*
X74500Y169200D01*
X74000Y168200D02*
X74500Y169200D01*
X98600Y63560D02*
X99600Y64060D01*
X100600Y63560D01*
X100100Y64560D02*
X100600Y63560D01*
X100100Y64560D02*
X100600Y65560D01*
X99600Y65060D02*
X100600Y65560D01*
X98600D02*
X99600Y65060D01*
X98600Y65560D02*
X99100Y64560D01*
X98600Y63560D02*
X99100Y64560D01*
X96619Y95000D02*
X97619Y95500D01*
X98619Y95000D01*
X98119Y96000D02*
X98619Y95000D01*
X98119Y96000D02*
X98619Y97000D01*
X97619Y96500D02*
X98619Y97000D01*
X96619D02*
X97619Y96500D01*
X96619Y97000D02*
X97119Y96000D01*
X96619Y95000D02*
X97119Y96000D01*
X96619Y84200D02*
X97619Y84700D01*
X98619Y84200D01*
X98119Y85200D02*
X98619Y84200D01*
X98119Y85200D02*
X98619Y86200D01*
X97619Y85700D02*
X98619Y86200D01*
X96619D02*
X97619Y85700D01*
X96619Y86200D02*
X97119Y85200D01*
X96619Y84200D02*
X97119Y85200D01*
X33200Y129200D02*
X34200Y129700D01*
X35200Y129200D01*
X34700Y130200D02*
X35200Y129200D01*
X34700Y130200D02*
X35200Y131200D01*
X34200Y130700D02*
X35200Y131200D01*
X33200D02*
X34200Y130700D01*
X33200Y131200D02*
X33700Y130200D01*
X33200Y129200D02*
X33700Y130200D01*
X33200Y156200D02*
X34200Y156700D01*
X35200Y156200D01*
X34700Y157200D02*
X35200Y156200D01*
X34700Y157200D02*
X35200Y158200D01*
X34200Y157700D02*
X35200Y158200D01*
X33200D02*
X34200Y157700D01*
X33200Y158200D02*
X33700Y157200D01*
X33200Y156200D02*
X33700Y157200D01*
X69200Y152437D02*
X70200Y152937D01*
X71200Y152437D01*
X70700Y153437D02*
X71200Y152437D01*
X70700Y153437D02*
X71200Y154437D01*
X70200Y153937D02*
X71200Y154437D01*
X69200D02*
X70200Y153937D01*
X69200Y154437D02*
X69700Y153437D01*
X69200Y152437D02*
X69700Y153437D01*
X63200Y152600D02*
X64200Y153100D01*
X65200Y152600D01*
X64700Y153600D02*
X65200Y152600D01*
X64700Y153600D02*
X65200Y154600D01*
X64200Y154100D02*
X65200Y154600D01*
X63200D02*
X64200Y154100D01*
X63200Y154600D02*
X63700Y153600D01*
X63200Y152600D02*
X63700Y153600D01*
X24800Y155954D02*
X25800Y156454D01*
X26800Y155954D01*
X26300Y156954D02*
X26800Y155954D01*
X26300Y156954D02*
X26800Y157954D01*
X25800Y157454D02*
X26800Y157954D01*
X24800D02*
X25800Y157454D01*
X24800Y157954D02*
X25300Y156954D01*
X24800Y155954D02*
X25300Y156954D01*
X47000Y140600D02*
X48000Y141100D01*
X49000Y140600D01*
X48500Y141600D02*
X49000Y140600D01*
X48500Y141600D02*
X49000Y142600D01*
X48000Y142100D02*
X49000Y142600D01*
X47000D02*
X48000Y142100D01*
X47000Y142600D02*
X47500Y141600D01*
X47000Y140600D02*
X47500Y141600D01*
X44600Y143000D02*
X45600Y143500D01*
X46600Y143000D01*
X46100Y144000D02*
X46600Y143000D01*
X46100Y144000D02*
X46600Y145000D01*
X45600Y144500D02*
X46600Y145000D01*
X44600D02*
X45600Y144500D01*
X44600Y145000D02*
X45100Y144000D01*
X44600Y143000D02*
X45100Y144000D01*
X47000Y156200D02*
X48000Y156700D01*
X49000Y156200D01*
X48500Y157200D02*
X49000Y156200D01*
X48500Y157200D02*
X49000Y158200D01*
X48000Y157700D02*
X49000Y158200D01*
X47000D02*
X48000Y157700D01*
X47000Y158200D02*
X47500Y157200D01*
X47000Y156200D02*
X47500Y157200D01*
X58400Y167600D02*
X59400Y168100D01*
X60400Y167600D01*
X59900Y168600D02*
X60400Y167600D01*
X59900Y168600D02*
X60400Y169600D01*
X59400Y169100D02*
X60400Y169600D01*
X58400D02*
X59400Y169100D01*
X58400Y169600D02*
X58900Y168600D01*
X58400Y167600D02*
X58900Y168600D01*
X60748Y169012D02*
X61748Y169512D01*
X62748Y169012D01*
X62248Y170012D02*
X62748Y169012D01*
X62248Y170012D02*
X62748Y171012D01*
X61748Y170512D02*
X62748Y171012D01*
X60748D02*
X61748Y170512D01*
X60748Y171012D02*
X61248Y170012D01*
X60748Y169012D02*
X61248Y170012D01*
X100856Y131874D02*
X101856Y132374D01*
X102856Y131874D01*
X102356Y132874D02*
X102856Y131874D01*
X102356Y132874D02*
X102856Y133874D01*
X101856Y133374D02*
X102856Y133874D01*
X100856D02*
X101856Y133374D01*
X100856Y133874D02*
X101356Y132874D01*
X100856Y131874D02*
X101356Y132874D01*
X21122Y126189D02*
X22122Y126689D01*
X23122Y126189D01*
X22622Y127189D02*
X23122Y126189D01*
X22622Y127189D02*
X23122Y128189D01*
X22122Y127689D02*
X23122Y128189D01*
X21122D02*
X22122Y127689D01*
X21122Y128189D02*
X21622Y127189D01*
X21122Y126189D02*
X21622Y127189D01*
X24800Y128000D02*
X25800Y128500D01*
X26800Y128000D01*
X26300Y129000D02*
X26800Y128000D01*
X26300Y129000D02*
X26800Y130000D01*
X25800Y129500D02*
X26800Y130000D01*
X24800D02*
X25800Y129500D01*
X24800Y130000D02*
X25300Y129000D01*
X24800Y128000D02*
X25300Y129000D01*
X20600Y135800D02*
X21600Y136300D01*
X22600Y135800D01*
X22100Y136800D02*
X22600Y135800D01*
X22100Y136800D02*
X22600Y137800D01*
X21600Y137300D02*
X22600Y137800D01*
X20600D02*
X21600Y137300D01*
X20600Y137800D02*
X21100Y136800D01*
X20600Y135800D02*
X21100Y136800D01*
X29000Y135811D02*
X30000Y136311D01*
X31000Y135811D01*
X30500Y136811D02*
X31000Y135811D01*
X30500Y136811D02*
X31000Y137811D01*
X30000Y137311D02*
X31000Y137811D01*
X29000D02*
X30000Y137311D01*
X29000Y137811D02*
X29500Y136811D01*
X29000Y135811D02*
X29500Y136811D01*
X16400Y144200D02*
X17400Y144700D01*
X18400Y144200D01*
X17900Y145200D02*
X18400Y144200D01*
X17900Y145200D02*
X18400Y146200D01*
X17400Y145700D02*
X18400Y146200D01*
X16400D02*
X17400Y145700D01*
X16400Y146200D02*
X16900Y145200D01*
X16400Y144200D02*
X16900Y145200D01*
X38000Y144200D02*
X39000Y144700D01*
X40000Y144200D01*
X39500Y145200D02*
X40000Y144200D01*
X39500Y145200D02*
X40000Y146200D01*
X39000Y145700D02*
X40000Y146200D01*
X38000D02*
X39000Y145700D01*
X38000Y146200D02*
X38500Y145200D01*
X38000Y144200D02*
X38500Y145200D01*
X29000Y144200D02*
X30000Y144700D01*
X31000Y144200D01*
X30500Y145200D02*
X31000Y144200D01*
X30500Y145200D02*
X31000Y146200D01*
X30000Y145700D02*
X31000Y146200D01*
X29000D02*
X30000Y145700D01*
X29000Y146200D02*
X29500Y145200D01*
X29000Y144200D02*
X29500Y145200D01*
X108800Y129200D02*
X109800Y129700D01*
X110800Y129200D01*
X110300Y130200D02*
X110800Y129200D01*
X110300Y130200D02*
X110800Y131200D01*
X109800Y130700D02*
X110800Y131200D01*
X108800D02*
X109800Y130700D01*
X108800Y131200D02*
X109300Y130200D01*
X108800Y129200D02*
X109300Y130200D01*
X99800Y108200D02*
X100800Y108700D01*
X101800Y108200D01*
X101300Y109200D02*
X101800Y108200D01*
X101300Y109200D02*
X101800Y110200D01*
X100800Y109700D02*
X101800Y110200D01*
X99800D02*
X100800Y109700D01*
X99800Y110200D02*
X100300Y109200D01*
X99800Y108200D02*
X100300Y109200D01*
X16992Y175102D02*
X18992D01*
Y177102D01*
X16992D02*
X18992D01*
X16992Y175102D02*
Y177102D01*
Y185102D02*
X18992D01*
Y187102D01*
X16992D02*
X18992D01*
X16992Y185102D02*
Y187102D01*
X26992Y175102D02*
X28992D01*
Y177102D01*
X26992D02*
X28992D01*
X26992Y175102D02*
Y177102D01*
Y185102D02*
X28992D01*
Y187102D01*
X26992D02*
X28992D01*
X26992Y185102D02*
Y187102D01*
X36992Y175102D02*
X38992D01*
Y177102D01*
X36992D02*
X38992D01*
X36992Y175102D02*
Y177102D01*
Y185102D02*
X38992D01*
Y187102D01*
X36992D02*
X38992D01*
X36992Y185102D02*
Y187102D01*
X46992Y175102D02*
X48992D01*
Y177102D01*
X46992D02*
X48992D01*
X46992Y175102D02*
Y177102D01*
Y185102D02*
X48992D01*
Y187102D01*
X46992D02*
X48992D01*
X46992Y185102D02*
Y187102D01*
X56992Y175102D02*
X58992D01*
Y177102D01*
X56992D02*
X58992D01*
X56992Y175102D02*
Y177102D01*
Y185102D02*
X58992D01*
Y187102D01*
X56992D02*
X58992D01*
X56992Y185102D02*
Y187102D01*
X66992Y175102D02*
X68992D01*
Y177102D01*
X66992D02*
X68992D01*
X66992Y175102D02*
Y177102D01*
Y185102D02*
X68992D01*
Y187102D01*
X66992D02*
X68992D01*
X66992Y185102D02*
Y187102D01*
X76992Y175102D02*
X78992D01*
Y177102D01*
X76992D02*
X78992D01*
X76992Y175102D02*
Y177102D01*
Y185102D02*
X78992D01*
Y187102D01*
X76992D02*
X78992D01*
X76992Y185102D02*
Y187102D01*
X86992Y175102D02*
X88992D01*
Y177102D01*
X86992D02*
X88992D01*
X86992Y175102D02*
Y177102D01*
Y185102D02*
X88992D01*
Y187102D01*
X86992D02*
X88992D01*
X86992Y185102D02*
Y187102D01*
X96992Y175102D02*
X98992D01*
Y177102D01*
X96992D02*
X98992D01*
X96992Y175102D02*
Y177102D01*
Y185102D02*
X98992D01*
Y187102D01*
X96992D02*
X98992D01*
X96992Y185102D02*
Y187102D01*
X106992Y175102D02*
X108992D01*
Y177102D01*
X106992D02*
X108992D01*
X106992Y175102D02*
Y177102D01*
Y185102D02*
X108992D01*
Y187102D01*
X106992D02*
X108992D01*
X106992Y185102D02*
Y187102D01*
X119079Y154905D02*
X121079D01*
Y156905D01*
X119079D02*
X121079D01*
X119079Y154905D02*
Y156905D01*
Y144905D02*
X121079D01*
Y146906D01*
X119079D02*
X121079D01*
X119079Y144905D02*
Y146906D01*
Y134906D02*
X121079D01*
Y136906D01*
X119079D02*
X121079D01*
X119079Y134906D02*
Y136906D01*
Y124906D02*
X121079D01*
Y126906D01*
X119079D02*
X121079D01*
X119079Y124906D02*
Y126906D01*
Y114906D02*
X121079D01*
Y116905D01*
X119079D02*
X121079D01*
X119079Y114906D02*
Y116905D01*
Y104905D02*
X121079D01*
Y106905D01*
X119079D02*
X121079D01*
X119079Y104905D02*
Y106905D01*
Y94906D02*
X121079D01*
Y96905D01*
X119079D02*
X121079D01*
X119079Y94906D02*
Y96905D01*
Y84905D02*
X121079D01*
Y86905D01*
X119079D02*
X121079D01*
X119079Y84905D02*
Y86905D01*
Y74906D02*
X121079D01*
Y76906D01*
X119079D02*
X121079D01*
X119079Y74906D02*
Y76906D01*
Y64906D02*
X121079D01*
Y66905D01*
X119079D02*
X121079D01*
X119079Y64906D02*
Y66905D01*
Y54905D02*
X121079D01*
Y56906D01*
X119079D02*
X121079D01*
X119079Y54905D02*
Y56906D01*
Y44905D02*
X121079D01*
Y46905D01*
X119079D02*
X121079D01*
X119079Y44905D02*
Y46905D01*
Y34905D02*
X121079D01*
Y36906D01*
X119079D02*
X121079D01*
X119079Y34905D02*
Y36906D01*
Y24905D02*
X121079D01*
Y26906D01*
X119079D02*
X121079D01*
X119079Y24905D02*
Y26906D01*
Y14906D02*
X121079D01*
Y16905D01*
X119079D02*
X121079D01*
X119079Y14906D02*
Y16905D01*
Y4905D02*
X121079D01*
Y6905D01*
X119079D02*
X121079D01*
X119079Y4905D02*
Y6905D01*
Y164906D02*
X121079D01*
Y166905D01*
X119079D02*
X121079D01*
X119079Y164906D02*
Y166905D01*
X15957Y27413D02*
X16457Y26913D01*
X15457Y27413D02*
X15957D01*
X15457D02*
X15957Y27913D01*
X15457Y28413D02*
X15957Y27913D01*
X15457Y28413D02*
X15957D01*
X16457Y28913D01*
X16957Y28413D01*
X17457D01*
X16957Y27913D02*
X17457Y28413D01*
X16957Y27913D02*
X17457Y27413D01*
X16957D02*
X17457D01*
X16457Y26913D02*
X16957Y27413D01*
X49972D02*
X50472Y26913D01*
X49472Y27413D02*
X49972D01*
X49472D02*
X49972Y27913D01*
X49472Y28413D02*
X49972Y27913D01*
X49472Y28413D02*
X49972D01*
X50472Y28913D01*
X50972Y28413D01*
X51472D01*
X50972Y27913D02*
X51472Y28413D01*
X50972Y27913D02*
X51472Y27413D01*
X50972D02*
X51472D01*
X50472Y26913D02*
X50972Y27413D01*
X16457Y10457D02*
X17457Y12457D01*
X15457D02*
X17457D01*
X15457D02*
X16457Y10457D01*
X50472D02*
X51472Y12457D01*
X49472D02*
X51472D01*
X49472D02*
X50472Y10457D01*
X4905Y74906D02*
X6905D01*
Y76906D01*
X4905D02*
X6905D01*
X4905Y74906D02*
Y76906D01*
Y84905D02*
X6905D01*
Y86905D01*
X4905D02*
X6905D01*
X4905Y84905D02*
Y86905D01*
Y104905D02*
X6905D01*
Y106905D01*
X4905D02*
X6905D01*
X4905Y104905D02*
Y106905D01*
Y114906D02*
X6905D01*
Y116905D01*
X4905D02*
X6905D01*
X4905Y114906D02*
Y116905D01*
Y124906D02*
X6905D01*
Y126906D01*
X4905D02*
X6905D01*
X4905Y124906D02*
Y126906D01*
Y134906D02*
X6905D01*
Y136906D01*
X4905D02*
X6905D01*
X4905Y134906D02*
Y136906D01*
Y144905D02*
X6905D01*
Y146906D01*
X4905D02*
X6905D01*
X4905Y144905D02*
Y146906D01*
Y154905D02*
X6905D01*
Y156905D01*
X4905D02*
X6905D01*
X4905Y154905D02*
Y156905D01*
Y164906D02*
X6905D01*
Y166905D01*
X4905D02*
X6905D01*
X4905Y164906D02*
Y166905D01*
Y94906D02*
X6905D01*
Y96905D01*
X4905D02*
X6905D01*
X4905Y94906D02*
Y96905D01*
D106*
X588940Y92258D02*
Y99342D01*
X592482D01*
X593663Y98162D01*
Y95800D01*
X592482Y94619D01*
X588940D01*
X597205Y96981D02*
X599567D01*
X600747Y95800D01*
Y92258D01*
X597205D01*
X596025Y93439D01*
X597205Y94619D01*
X600747D01*
X607832Y99342D02*
Y92258D01*
X604290D01*
X603109Y93439D01*
Y95800D01*
X604290Y96981D01*
X607832D01*
X622000Y98162D02*
X620820Y99342D01*
X618458D01*
X617277Y98162D01*
Y96981D01*
X618458Y95800D01*
X620820D01*
X622000Y94619D01*
Y93439D01*
X620820Y92258D01*
X618458D01*
X617277Y93439D01*
X624362Y99342D02*
Y92258D01*
Y95800D01*
X625542Y96981D01*
X627904D01*
X629085Y95800D01*
Y92258D01*
X632627Y96981D02*
X634988D01*
X636169Y95800D01*
Y92258D01*
X632627D01*
X631446Y93439D01*
X632627Y94619D01*
X636169D01*
X638530Y89897D02*
Y96981D01*
X642073D01*
X643253Y95800D01*
Y93439D01*
X642073Y92258D01*
X638530D01*
X649157D02*
X646796D01*
X645615Y93439D01*
Y95800D01*
X646796Y96981D01*
X649157D01*
X650338Y95800D01*
Y94619D01*
X645615D01*
X442134Y99342D02*
Y92258D01*
X445676D01*
X446857Y93439D01*
Y98162D01*
X445676Y99342D01*
X442134D01*
X449219Y96981D02*
Y92258D01*
Y94619D01*
X450399Y95800D01*
X451580Y96981D01*
X452761D01*
X456303Y92258D02*
X458664D01*
X457483D01*
Y96981D01*
X456303D01*
X462206Y92258D02*
X464568D01*
X463387D01*
Y99342D01*
X462206D01*
X468110Y92258D02*
X470471D01*
X469291D01*
Y99342D01*
X468110D01*
X481098D02*
Y92258D01*
X485821D01*
X489363Y96981D02*
X491724D01*
X492905Y95800D01*
Y92258D01*
X489363D01*
X488182Y93439D01*
X489363Y94619D01*
X492905D01*
X495266Y96981D02*
Y93439D01*
X496447Y92258D01*
X499989D01*
Y91077D01*
X498809Y89897D01*
X497628D01*
X499989Y92258D02*
Y96981D01*
X505893Y92258D02*
X503532D01*
X502351Y93439D01*
Y95800D01*
X503532Y96981D01*
X505893D01*
X507074Y95800D01*
Y94619D01*
X502351D01*
X509435Y96981D02*
Y92258D01*
Y94619D01*
X510616Y95800D01*
X511797Y96981D01*
X512977D01*
X523604Y92258D02*
Y99342D01*
X527146D01*
X528327Y98162D01*
Y95800D01*
X527146Y94619D01*
X523604D01*
X531869Y96981D02*
X534230D01*
X535411Y95800D01*
Y92258D01*
X531869D01*
X530688Y93439D01*
X531869Y94619D01*
X535411D01*
X537773Y92258D02*
X540134D01*
X538953D01*
Y96981D01*
X537773D01*
X543676D02*
Y92258D01*
Y94619D01*
X544857Y95800D01*
X546037Y96981D01*
X547218D01*
X371169Y99342D02*
Y92258D01*
Y95800D01*
X375892D01*
Y99342D01*
Y92258D01*
X379434D02*
X381796D01*
X382977Y93439D01*
Y95800D01*
X381796Y96981D01*
X379434D01*
X378254Y95800D01*
Y93439D01*
X379434Y92258D01*
X385338D02*
X387700D01*
X386519D01*
Y99342D01*
X385338D01*
X394784Y92258D02*
X392422D01*
X391242Y93439D01*
Y95800D01*
X392422Y96981D01*
X394784D01*
X395965Y95800D01*
Y94619D01*
X391242D01*
X405410Y99342D02*
X410133D01*
X407772D01*
Y92258D01*
X412495Y96981D02*
Y93439D01*
X413675Y92258D01*
X417217D01*
Y91077D01*
X416037Y89897D01*
X414856D01*
X417217Y92258D02*
Y96981D01*
X419579Y89897D02*
Y96981D01*
X423121D01*
X424302Y95800D01*
Y93439D01*
X423121Y92258D01*
X419579D01*
X430205D02*
X427844D01*
X426663Y93439D01*
Y95800D01*
X427844Y96981D01*
X430205D01*
X431386Y95800D01*
Y94619D01*
X426663D01*
X322638Y92258D02*
Y99342D01*
X326181D01*
X327361Y98162D01*
Y95800D01*
X326181Y94619D01*
X322638D01*
X329723Y92258D02*
X332084D01*
X330903D01*
Y99342D01*
X329723D01*
X336807Y96981D02*
X339168D01*
X340349Y95800D01*
Y92258D01*
X336807D01*
X335626Y93439D01*
X336807Y94619D01*
X340349D01*
X343891Y98162D02*
Y96981D01*
X342711D01*
X345072D01*
X343891D01*
Y93439D01*
X345072Y92258D01*
X352156D02*
X349795D01*
X348614Y93439D01*
Y95800D01*
X349795Y96981D01*
X352156D01*
X353337Y95800D01*
Y94619D01*
X348614D01*
X360421Y99342D02*
Y92258D01*
X356879D01*
X355698Y93439D01*
Y95800D01*
X356879Y96981D01*
X360421D01*
X252854Y99342D02*
Y92258D01*
Y95800D01*
X257577D01*
Y99342D01*
Y92258D01*
X261119D02*
X263481D01*
X264662Y93439D01*
Y95800D01*
X263481Y96981D01*
X261119D01*
X259939Y95800D01*
Y93439D01*
X261119Y92258D01*
X267023D02*
X269384D01*
X268204D01*
Y99342D01*
X267023D01*
X276469Y92258D02*
X274107D01*
X272927Y93439D01*
Y95800D01*
X274107Y96981D01*
X276469D01*
X277649Y95800D01*
Y94619D01*
X272927D01*
X291818Y98162D02*
X290637Y99342D01*
X288276D01*
X287095Y98162D01*
Y96981D01*
X288276Y95800D01*
X290637D01*
X291818Y94619D01*
Y93439D01*
X290637Y92258D01*
X288276D01*
X287095Y93439D01*
X294180Y92258D02*
X296541D01*
X295360D01*
Y96981D01*
X294180D01*
X300083D02*
X304806D01*
X300083Y92258D01*
X304806D01*
X310710D02*
X308348D01*
X307167Y93439D01*
Y95800D01*
X308348Y96981D01*
X310710D01*
X311890Y95800D01*
Y94619D01*
X307167D01*
X200309Y98162D02*
X199128Y99342D01*
X196767D01*
X195586Y98162D01*
Y93439D01*
X196767Y92258D01*
X199128D01*
X200309Y93439D01*
X203851Y92258D02*
X206213D01*
X207393Y93439D01*
Y95800D01*
X206213Y96981D01*
X203851D01*
X202671Y95800D01*
Y93439D01*
X203851Y92258D01*
X209755Y96981D02*
Y93439D01*
X210935Y92258D01*
X214478D01*
Y96981D01*
X216839Y92258D02*
Y96981D01*
X220381D01*
X221562Y95800D01*
Y92258D01*
X225104Y98162D02*
Y96981D01*
X223923D01*
X226285D01*
X225104D01*
Y93439D01*
X226285Y92258D01*
X151778Y98162D02*
X150597Y99342D01*
X148236D01*
X147055Y98162D01*
Y96981D01*
X148236Y95800D01*
X150597D01*
X151778Y94619D01*
Y93439D01*
X150597Y92258D01*
X148236D01*
X147055Y93439D01*
X154139Y96981D02*
Y93439D01*
X155320Y92258D01*
X158862D01*
Y91077D01*
X157682Y89897D01*
X156501D01*
X158862Y92258D02*
Y96981D01*
X161224Y92258D02*
Y96981D01*
X162405D01*
X163585Y95800D01*
Y92258D01*
Y95800D01*
X164766Y96981D01*
X165947Y95800D01*
Y92258D01*
X168308Y99342D02*
Y92258D01*
X171850D01*
X173031Y93439D01*
Y94619D01*
Y95800D01*
X171850Y96981D01*
X168308D01*
X176573Y92258D02*
X178935D01*
X180115Y93439D01*
Y95800D01*
X178935Y96981D01*
X176573D01*
X175392Y95800D01*
Y93439D01*
X176573Y92258D01*
X182477D02*
X184838D01*
X183657D01*
Y99342D01*
X182477D01*
D107*
X247595Y-12955D02*
Y-18859D01*
Y-15907D01*
X251531D01*
Y-12955D01*
Y-18859D01*
X254483D02*
X256451D01*
X257435Y-17875D01*
Y-15907D01*
X256451Y-14923D01*
X254483D01*
X253499Y-15907D01*
Y-17875D01*
X254483Y-18859D01*
X259403D02*
X261370D01*
X260386D01*
Y-12955D01*
X259403D01*
X267274Y-18859D02*
X265306D01*
X264322Y-17875D01*
Y-15907D01*
X265306Y-14923D01*
X267274D01*
X268258Y-15907D01*
Y-16891D01*
X264322D01*
X276129Y-12955D02*
Y-18859D01*
X280065D01*
X284985D02*
X283017D01*
X282033Y-17875D01*
Y-15907D01*
X283017Y-14923D01*
X284985D01*
X285969Y-15907D01*
Y-16891D01*
X282033D01*
X287937Y-18859D02*
Y-14923D01*
X290889D01*
X291872Y-15907D01*
Y-18859D01*
X295808Y-20827D02*
X296792D01*
X297776Y-19843D01*
Y-14923D01*
X294824D01*
X293840Y-15907D01*
Y-17875D01*
X294824Y-18859D01*
X297776D01*
X300728Y-13939D02*
Y-14923D01*
X299744D01*
X301712D01*
X300728D01*
Y-17875D01*
X301712Y-18859D01*
X304663Y-12955D02*
Y-18859D01*
Y-15907D01*
X305647Y-14923D01*
X307615D01*
X308599Y-15907D01*
Y-18859D01*
X247595Y-9806D02*
Y-3903D01*
X250547D01*
X251531Y-4887D01*
Y-6855D01*
X250547Y-7839D01*
X247595D01*
X249563D02*
X251531Y-9806D01*
X254483D02*
X256451D01*
X257435Y-8822D01*
Y-6855D01*
X256451Y-5871D01*
X254483D01*
X253499Y-6855D01*
Y-8822D01*
X254483Y-9806D01*
X259403Y-5871D02*
Y-8822D01*
X260386Y-9806D01*
X263338D01*
Y-5871D01*
X266290Y-4887D02*
Y-5871D01*
X265306D01*
X267274D01*
X266290D01*
Y-8822D01*
X267274Y-9806D01*
X273178D02*
X271210D01*
X270226Y-8822D01*
Y-6855D01*
X271210Y-5871D01*
X273178D01*
X274162Y-6855D01*
Y-7839D01*
X270226D01*
X280065Y-3903D02*
Y-9806D01*
X277113D01*
X276129Y-8822D01*
Y-6855D01*
X277113Y-5871D01*
X280065D01*
X287937Y-9806D02*
Y-3903D01*
X290889D01*
X291872Y-4887D01*
Y-6855D01*
X290889Y-7839D01*
X287937D01*
X294824Y-5871D02*
X296792D01*
X297776Y-6855D01*
Y-9806D01*
X294824D01*
X293840Y-8822D01*
X294824Y-7839D01*
X297776D01*
X300728Y-4887D02*
Y-5871D01*
X299744D01*
X301712D01*
X300728D01*
Y-8822D01*
X301712Y-9806D01*
X304663Y-3903D02*
Y-9806D01*
Y-6855D01*
X305647Y-5871D01*
X307615D01*
X308599Y-6855D01*
Y-9806D01*
X316471Y-3903D02*
Y-9806D01*
X320406D01*
X325326D02*
X323358D01*
X322374Y-8822D01*
Y-6855D01*
X323358Y-5871D01*
X325326D01*
X326310Y-6855D01*
Y-7839D01*
X322374D01*
X328278Y-9806D02*
Y-5871D01*
X331230D01*
X332214Y-6855D01*
Y-9806D01*
X336149Y-11774D02*
X337133D01*
X338117Y-10790D01*
Y-5871D01*
X335166D01*
X334181Y-6855D01*
Y-8822D01*
X335166Y-9806D01*
X338117D01*
X341069Y-4887D02*
Y-5871D01*
X340085D01*
X342053D01*
X341069D01*
Y-8822D01*
X342053Y-9806D01*
X345005Y-3903D02*
Y-9806D01*
Y-6855D01*
X345989Y-5871D01*
X347957D01*
X348940Y-6855D01*
Y-9806D01*
X150991Y-4887D02*
X150007Y-3903D01*
X148039D01*
X147055Y-4887D01*
Y-5871D01*
X148039Y-6855D01*
X150007D01*
X150991Y-7839D01*
Y-8822D01*
X150007Y-9806D01*
X148039D01*
X147055Y-8822D01*
X152959Y-9806D02*
X154927D01*
X153943D01*
Y-3903D01*
X152959D01*
X158862Y-9806D02*
X160830D01*
X161814Y-8822D01*
Y-6855D01*
X160830Y-5871D01*
X158862D01*
X157878Y-6855D01*
Y-8822D01*
X158862Y-9806D01*
X164766Y-4887D02*
Y-5871D01*
X163782D01*
X165750D01*
X164766D01*
Y-8822D01*
X165750Y-9806D01*
X178541Y-3903D02*
Y-9806D01*
X175589D01*
X174605Y-8822D01*
Y-6855D01*
X175589Y-5871D01*
X178541D01*
X183461Y-9806D02*
X181493D01*
X180509Y-8822D01*
Y-6855D01*
X181493Y-5871D01*
X183461D01*
X184445Y-6855D01*
Y-7839D01*
X180509D01*
X187396Y-9806D02*
Y-4887D01*
Y-6855D01*
X186412D01*
X188380D01*
X187396D01*
Y-4887D01*
X188380Y-3903D01*
X191332Y-9806D02*
X193300D01*
X192316D01*
Y-5871D01*
X191332D01*
X196252Y-9806D02*
Y-5871D01*
X199204D01*
X200187Y-6855D01*
Y-9806D01*
X202155D02*
X204123D01*
X203139D01*
Y-5871D01*
X202155D01*
X208059Y-4887D02*
Y-5871D01*
X207075D01*
X209043D01*
X208059D01*
Y-8822D01*
X209043Y-9806D01*
X211995D02*
X213963D01*
X212979D01*
Y-5871D01*
X211995D01*
X217898Y-9806D02*
X219866D01*
X220850Y-8822D01*
Y-6855D01*
X219866Y-5871D01*
X217898D01*
X216914Y-6855D01*
Y-8822D01*
X217898Y-9806D01*
X222818D02*
Y-5871D01*
X225770D01*
X226754Y-6855D01*
Y-9806D01*
X228722D02*
X231673D01*
X232657Y-8822D01*
X231673Y-7839D01*
X229706D01*
X228722Y-6855D01*
X229706Y-5871D01*
X232657D01*
X240529D02*
X241513D01*
Y-6855D01*
X240529D01*
Y-5871D01*
Y-8822D02*
X241513D01*
Y-9806D01*
X240529D01*
Y-8822D01*
M02*
