G04*
G04 #@! TF.GenerationSoftware,Altium Limited,Altium Designer,20.0.11 (256)*
G04*
G04 Layer_Physical_Order=1*
G04 Layer_Color=255*
%FSLAX25Y25*%
%MOIN*%
G70*
G01*
G75*
%ADD10C,0.00600*%
%ADD12C,0.00800*%
%ADD58C,0.02559*%
%ADD62R,0.03400X0.03500*%
%ADD63R,0.05906X0.03937*%
%ADD64R,0.01417X0.00984*%
%ADD65C,0.03937*%
%ADD66R,0.03200X0.03000*%
%ADD67R,0.03500X0.03400*%
%ADD68R,0.03000X0.03200*%
%ADD69R,0.02581X0.03150*%
%ADD70R,0.04134X0.02559*%
%ADD71R,0.03150X0.03150*%
%ADD72R,0.01575X0.01968*%
%ADD73R,0.10630X0.10630*%
%ADD74R,0.03347X0.01102*%
%ADD75R,0.01102X0.03347*%
%ADD76R,0.02362X0.05906*%
%ADD77R,0.20472X0.20472*%
G04:AMPARAMS|DCode=78|XSize=11.81mil|YSize=59.06mil|CornerRadius=0.3mil|HoleSize=0mil|Usage=FLASHONLY|Rotation=0.000|XOffset=0mil|YOffset=0mil|HoleType=Round|Shape=RoundedRectangle|*
%AMROUNDEDRECTD78*
21,1,0.01181,0.05847,0,0,0.0*
21,1,0.01122,0.05906,0,0,0.0*
1,1,0.00059,0.00561,-0.02923*
1,1,0.00059,-0.00561,-0.02923*
1,1,0.00059,-0.00561,0.02923*
1,1,0.00059,0.00561,0.02923*
%
%ADD78ROUNDEDRECTD78*%
G04:AMPARAMS|DCode=79|XSize=11.81mil|YSize=59.06mil|CornerRadius=0.3mil|HoleSize=0mil|Usage=FLASHONLY|Rotation=90.000|XOffset=0mil|YOffset=0mil|HoleType=Round|Shape=RoundedRectangle|*
%AMROUNDEDRECTD79*
21,1,0.01181,0.05847,0,0,90.0*
21,1,0.01122,0.05906,0,0,90.0*
1,1,0.00059,0.02923,0.00561*
1,1,0.00059,0.02923,-0.00561*
1,1,0.00059,-0.02923,-0.00561*
1,1,0.00059,-0.02923,0.00561*
%
%ADD79ROUNDEDRECTD79*%
%ADD80R,0.05512X0.04724*%
%ADD81R,0.02362X0.05709*%
%ADD82R,0.01181X0.05709*%
%ADD83C,0.01000*%
%ADD84C,0.00810*%
%ADD85C,0.02000*%
%ADD86C,0.01100*%
%ADD87C,0.05906*%
%ADD88R,0.05906X0.05906*%
%ADD89O,0.03937X0.06299*%
%ADD90O,0.03937X0.08268*%
%ADD91R,0.05906X0.05906*%
%ADD92C,0.02362*%
G36*
X34421Y188759D02*
X34739Y187980D01*
X34588Y187690D01*
X34462Y187387D01*
X34364Y187075D01*
X34293Y186755D01*
X34250Y186430D01*
X34236Y186102D01*
X34250Y185775D01*
X34293Y185450D01*
X34364Y185130D01*
X34462Y184818D01*
X34588Y184515D01*
X34675Y184346D01*
X31620Y181290D01*
X31507Y181159D01*
X31417Y181011D01*
X31351Y180851D01*
X31310Y180683D01*
X31297Y180510D01*
Y179521D01*
X30689Y179151D01*
X30297Y179064D01*
X30147Y179179D01*
X29870Y179355D01*
X29580Y179507D01*
X29277Y179632D01*
X28964Y179731D01*
X28644Y179802D01*
X28319Y179844D01*
X27992Y179859D01*
X27665Y179844D01*
X27340Y179802D01*
X27020Y179731D01*
X26707Y179632D01*
X26405Y179507D01*
X26114Y179355D01*
X25838Y179179D01*
X25578Y178980D01*
X25336Y178759D01*
X25115Y178517D01*
X24915Y178257D01*
X24739Y177980D01*
X24588Y177690D01*
X24462Y177387D01*
X24364Y177075D01*
X24293Y176755D01*
X24250Y176430D01*
X24236Y176102D01*
X24250Y175775D01*
X24293Y175450D01*
X24364Y175130D01*
X24462Y174818D01*
X24588Y174515D01*
X24739Y174224D01*
X24915Y173948D01*
X25115Y173688D01*
X25336Y173446D01*
X25578Y173225D01*
X25838Y173025D01*
X26114Y172849D01*
X26405Y172698D01*
X26707Y172573D01*
X27020Y172474D01*
X27340Y172403D01*
X27665Y172360D01*
X27992Y172346D01*
X28319Y172360D01*
X28644Y172403D01*
X28964Y172474D01*
X29277Y172573D01*
X29580Y172698D01*
X29870Y172849D01*
X30147Y173025D01*
X30297Y173140D01*
X30689Y173053D01*
X31297Y172684D01*
Y169765D01*
X30267Y168736D01*
X27128D01*
Y164136D01*
X31928D01*
Y166077D01*
X32419Y166366D01*
X33033Y166003D01*
Y164136D01*
X37833D01*
Y168736D01*
X34703D01*
Y172670D01*
X35260Y173023D01*
X35703Y173128D01*
X35838Y173025D01*
X36114Y172849D01*
X36405Y172698D01*
X36707Y172573D01*
X37020Y172474D01*
X37340Y172403D01*
X37665Y172360D01*
X37992Y172346D01*
X38320Y172360D01*
X38644Y172403D01*
X38964Y172474D01*
X39277Y172573D01*
X39580Y172698D01*
X39748Y172786D01*
X48878Y163656D01*
Y160049D01*
X48770Y159823D01*
X48700Y159741D01*
X48000Y159184D01*
X47778Y159172D01*
X47559Y159134D01*
X47345Y159073D01*
X47139Y158988D01*
X46944Y158880D01*
X46763Y158751D01*
X46597Y158603D01*
X46449Y158437D01*
X46320Y158256D01*
X46212Y158061D01*
X46127Y157855D01*
X46066Y157641D01*
X46028Y157422D01*
X46016Y157200D01*
X46028Y156978D01*
X46066Y156758D01*
X46127Y156545D01*
X46212Y156339D01*
X46320Y156144D01*
X46449Y155963D01*
X46597Y155797D01*
X46763Y155649D01*
X46897Y155554D01*
Y154800D01*
X46910Y154627D01*
X46951Y154459D01*
X47017Y154299D01*
X47107Y154151D01*
X47220Y154020D01*
X47862Y153377D01*
X47750Y152801D01*
X47473Y152352D01*
X47410Y152337D01*
X47290Y152287D01*
X47178Y152218D01*
X47079Y152134D01*
X46994Y152034D01*
X46926Y151923D01*
X46876Y151802D01*
X46845Y151675D01*
X46835Y151545D01*
Y149725D01*
X13646D01*
X9222Y154149D01*
X9310Y154318D01*
X9435Y154621D01*
X9534Y154933D01*
X9605Y155253D01*
X9647Y155578D01*
X9662Y155905D01*
X9647Y156233D01*
X9605Y156558D01*
X9534Y156878D01*
X9435Y157190D01*
X9310Y157493D01*
X9159Y157784D01*
X8982Y158060D01*
X8783Y158320D01*
X8562Y158562D01*
X8320Y158783D01*
X8060Y158983D01*
X7784Y159159D01*
X7493Y159310D01*
X7190Y159435D01*
X6878Y159534D01*
X6558Y159605D01*
X6233Y159648D01*
X5906Y159662D01*
X5578Y159648D01*
X5253Y159605D01*
X4933Y159534D01*
X4621Y159435D01*
X4318Y159310D01*
X4027Y159159D01*
X3751Y158983D01*
X3491Y158783D01*
X3249Y158562D01*
X3028Y158320D01*
X2968Y158242D01*
X2331Y158356D01*
X1969Y158571D01*
Y163240D01*
X2331Y163455D01*
X2968Y163568D01*
X3028Y163491D01*
X3249Y163249D01*
X3491Y163028D01*
X3751Y162829D01*
X4027Y162652D01*
X4318Y162501D01*
X4621Y162376D01*
X4933Y162277D01*
X5253Y162206D01*
X5578Y162163D01*
X5906Y162149D01*
X6233Y162163D01*
X6558Y162206D01*
X6878Y162277D01*
X7190Y162376D01*
X7493Y162501D01*
X7784Y162652D01*
X8060Y162829D01*
X8320Y163028D01*
X8562Y163249D01*
X8783Y163491D01*
X8982Y163751D01*
X9159Y164027D01*
X9310Y164318D01*
X9435Y164621D01*
X9534Y164933D01*
X9605Y165253D01*
X9647Y165578D01*
X9662Y165905D01*
X9647Y166233D01*
X9605Y166558D01*
X9534Y166878D01*
X9435Y167190D01*
X9310Y167493D01*
X9159Y167784D01*
X8982Y168060D01*
X8783Y168320D01*
X8562Y168562D01*
X8320Y168783D01*
X8060Y168983D01*
X7784Y169159D01*
X7493Y169310D01*
X7190Y169435D01*
X6878Y169534D01*
X6558Y169605D01*
X6233Y169648D01*
X5906Y169662D01*
X5578Y169648D01*
X5253Y169605D01*
X4933Y169534D01*
X4621Y169435D01*
X4318Y169310D01*
X4027Y169159D01*
X3751Y168983D01*
X3491Y168783D01*
X3249Y168562D01*
X3028Y168320D01*
X2968Y168243D01*
X2331Y168356D01*
X1969Y168571D01*
Y188976D01*
X14207D01*
X14421Y188759D01*
X14739Y187980D01*
X14588Y187690D01*
X14462Y187387D01*
X14364Y187075D01*
X14293Y186755D01*
X14250Y186430D01*
X14236Y186102D01*
X14250Y185775D01*
X14293Y185450D01*
X14364Y185130D01*
X14462Y184818D01*
X14588Y184515D01*
X14739Y184224D01*
X14915Y183948D01*
X15115Y183688D01*
X15336Y183446D01*
X15578Y183225D01*
X15838Y183025D01*
X16114Y182849D01*
X16405Y182698D01*
X16707Y182573D01*
X17020Y182474D01*
X17340Y182403D01*
X17665Y182360D01*
X17992Y182346D01*
X18319Y182360D01*
X18644Y182403D01*
X18964Y182474D01*
X19277Y182573D01*
X19580Y182698D01*
X19870Y182849D01*
X20147Y183025D01*
X20407Y183225D01*
X20648Y183446D01*
X20870Y183688D01*
X21069Y183948D01*
X21245Y184224D01*
X21396Y184515D01*
X21522Y184818D01*
X21621Y185130D01*
X21691Y185450D01*
X21734Y185775D01*
X21748Y186102D01*
X21734Y186430D01*
X21691Y186755D01*
X21621Y187075D01*
X21522Y187387D01*
X21396Y187690D01*
X21245Y187980D01*
X21564Y188759D01*
X21778Y188976D01*
X24459D01*
X24807Y188509D01*
X24974Y187976D01*
X24912Y187880D01*
X24769Y187605D01*
X24651Y187319D01*
X24557Y187023D01*
X24490Y186720D01*
X24475Y186602D01*
X27992D01*
X31510D01*
X31494Y186720D01*
X31427Y187023D01*
X31334Y187319D01*
X31215Y187605D01*
X31072Y187880D01*
X31011Y187976D01*
X31178Y188509D01*
X31525Y188976D01*
X34207D01*
X34421Y188759D01*
D02*
G37*
G36*
X124016Y168571D02*
X123653Y168356D01*
X123016Y168243D01*
X122956Y168320D01*
X122735Y168562D01*
X122493Y168783D01*
X122233Y168983D01*
X121957Y169159D01*
X121666Y169310D01*
X121363Y169435D01*
X121051Y169534D01*
X120731Y169605D01*
X120406Y169648D01*
X120079Y169662D01*
X119751Y169648D01*
X119427Y169605D01*
X119106Y169534D01*
X118794Y169435D01*
X118491Y169310D01*
X118201Y169159D01*
X117924Y168983D01*
X117664Y168783D01*
X117423Y168562D01*
X117201Y168320D01*
X117002Y168060D01*
X116826Y167784D01*
X116674Y167493D01*
X116549Y167190D01*
X116450Y166878D01*
X116379Y166558D01*
X116337Y166233D01*
X116322Y165905D01*
X116337Y165578D01*
X116379Y165253D01*
X116450Y164933D01*
X116549Y164621D01*
X116674Y164318D01*
X116826Y164027D01*
X117002Y163751D01*
X117201Y163491D01*
X117423Y163249D01*
X117664Y163028D01*
X117924Y162829D01*
X118201Y162652D01*
X118491Y162501D01*
X118794Y162376D01*
X119106Y162277D01*
X119427Y162206D01*
X119751Y162163D01*
X120079Y162149D01*
X120406Y162163D01*
X120731Y162206D01*
X121051Y162277D01*
X121363Y162376D01*
X121666Y162501D01*
X121957Y162652D01*
X122233Y162829D01*
X122493Y163028D01*
X122735Y163249D01*
X122956Y163491D01*
X123016Y163568D01*
X123653Y163455D01*
X124016Y163240D01*
Y158571D01*
X123653Y158356D01*
X123016Y158242D01*
X122956Y158320D01*
X122735Y158562D01*
X122493Y158783D01*
X122233Y158983D01*
X121957Y159159D01*
X121666Y159310D01*
X121363Y159435D01*
X121051Y159534D01*
X120731Y159605D01*
X120406Y159648D01*
X120079Y159662D01*
X119751Y159648D01*
X119427Y159605D01*
X119106Y159534D01*
X118794Y159435D01*
X118491Y159310D01*
X118201Y159159D01*
X117924Y158983D01*
X117664Y158783D01*
X117423Y158562D01*
X117201Y158320D01*
X117002Y158060D01*
X116826Y157784D01*
X116674Y157493D01*
X116549Y157190D01*
X116450Y156878D01*
X116379Y156558D01*
X116337Y156233D01*
X116322Y155905D01*
X116337Y155578D01*
X116379Y155253D01*
X116450Y154933D01*
X116549Y154621D01*
X116674Y154318D01*
X116826Y154027D01*
X117002Y153751D01*
X117201Y153491D01*
X117423Y153249D01*
X117664Y153028D01*
X117924Y152829D01*
X118201Y152652D01*
X118491Y152501D01*
X118794Y152376D01*
X119106Y152277D01*
X119427Y152206D01*
X119751Y152164D01*
X120079Y152149D01*
X120406Y152164D01*
X120731Y152206D01*
X121051Y152277D01*
X121363Y152376D01*
X121666Y152501D01*
X121957Y152652D01*
X122233Y152829D01*
X122493Y153028D01*
X122735Y153249D01*
X122956Y153491D01*
X123016Y153568D01*
X123653Y153455D01*
X124016Y153240D01*
Y148571D01*
X123653Y148356D01*
X123016Y148242D01*
X122956Y148320D01*
X122735Y148562D01*
X122493Y148783D01*
X122233Y148983D01*
X121957Y149159D01*
X121666Y149310D01*
X121363Y149435D01*
X121051Y149534D01*
X120731Y149605D01*
X120406Y149648D01*
X120079Y149662D01*
X119751Y149648D01*
X119427Y149605D01*
X119106Y149534D01*
X118794Y149435D01*
X118491Y149310D01*
X118201Y149159D01*
X117924Y148983D01*
X117664Y148783D01*
X117423Y148562D01*
X117201Y148320D01*
X117002Y148060D01*
X116826Y147784D01*
X116674Y147493D01*
X116549Y147190D01*
X116450Y146878D01*
X116379Y146558D01*
X116337Y146233D01*
X116322Y145905D01*
X116337Y145578D01*
X116379Y145253D01*
X116450Y144933D01*
X116549Y144621D01*
X116674Y144318D01*
X116826Y144027D01*
X117002Y143751D01*
X117201Y143491D01*
X117423Y143249D01*
X117664Y143028D01*
X117924Y142829D01*
X118201Y142652D01*
X118491Y142501D01*
X118794Y142376D01*
X119106Y142277D01*
X119427Y142206D01*
X119751Y142164D01*
X120079Y142149D01*
X120406Y142164D01*
X120731Y142206D01*
X121051Y142277D01*
X121363Y142376D01*
X121666Y142501D01*
X121957Y142652D01*
X122233Y142829D01*
X122493Y143028D01*
X122735Y143249D01*
X122956Y143491D01*
X123016Y143569D01*
X123653Y143455D01*
X124016Y143240D01*
Y138571D01*
X123653Y138356D01*
X123016Y138242D01*
X122956Y138320D01*
X122735Y138562D01*
X122493Y138783D01*
X122233Y138982D01*
X121957Y139159D01*
X121666Y139310D01*
X121363Y139435D01*
X121051Y139534D01*
X120731Y139605D01*
X120406Y139648D01*
X120079Y139662D01*
X119751Y139648D01*
X119427Y139605D01*
X119106Y139534D01*
X118794Y139435D01*
X118491Y139310D01*
X118201Y139159D01*
X117924Y138982D01*
X117664Y138783D01*
X117423Y138562D01*
X117201Y138320D01*
X117002Y138060D01*
X116826Y137784D01*
X116717Y137575D01*
X116322Y137440D01*
X115757Y137355D01*
X115565Y137395D01*
X111432Y141528D01*
X111301Y141641D01*
X111153Y141731D01*
X110993Y141797D01*
X110825Y141838D01*
X110652Y141851D01*
X96145D01*
X95845Y142125D01*
X95596Y142541D01*
X95505Y142851D01*
X95536Y142958D01*
X95573Y143178D01*
X95585Y143400D01*
X95573Y143622D01*
X95536Y143842D01*
X95474Y144055D01*
X95389Y144261D01*
X95453Y144420D01*
X95901Y145238D01*
X95901Y145238D01*
X95901Y145238D01*
Y150038D01*
X95901D01*
X96009Y150993D01*
X96101D01*
Y156093D01*
X91101D01*
Y150993D01*
X91101D01*
X90994Y150038D01*
X87200D01*
Y151193D01*
X87201D01*
Y153543D01*
Y155893D01*
X85201D01*
X85077Y156842D01*
Y156856D01*
X86502Y158282D01*
X86559Y158265D01*
X86778Y158228D01*
X87000Y158216D01*
X87222Y158228D01*
X87441Y158265D01*
X87655Y158327D01*
X87861Y158412D01*
X88056Y158520D01*
X88237Y158649D01*
X88403Y158797D01*
X88551Y158963D01*
X88680Y159144D01*
X88788Y159339D01*
X88873Y159545D01*
X88934Y159758D01*
X88972Y159978D01*
X88984Y160200D01*
X88972Y160422D01*
X88934Y160642D01*
X88873Y160855D01*
X88788Y161061D01*
X88680Y161256D01*
X88551Y161437D01*
X88403Y161603D01*
X88237Y161751D01*
X88056Y161880D01*
X87861Y161988D01*
X87655Y162073D01*
X87441Y162135D01*
X87222Y162172D01*
X87000Y162184D01*
X86778Y162172D01*
X86559Y162135D01*
X86345Y162073D01*
X86139Y161988D01*
X86077Y161953D01*
X85522Y162132D01*
X85255Y162291D01*
X85077Y162480D01*
Y164799D01*
X83781D01*
Y165123D01*
X83767Y165295D01*
X83727Y165464D01*
X83660Y165624D01*
X83570Y165771D01*
X83457Y165903D01*
X82380Y166980D01*
X82249Y167093D01*
X82101Y167183D01*
X81941Y167249D01*
X81773Y167290D01*
X81600Y167303D01*
X77299D01*
X77152Y167433D01*
X76970Y167707D01*
X76768Y168303D01*
X76788Y168339D01*
X76873Y168545D01*
X76934Y168758D01*
X76972Y168978D01*
X76984Y169200D01*
X76972Y169422D01*
X76944Y169584D01*
X78776Y171416D01*
X78889Y171547D01*
X78979Y171695D01*
X79045Y171855D01*
X79086Y172023D01*
X79100Y172196D01*
Y172517D01*
X79277Y172573D01*
X79580Y172698D01*
X79870Y172849D01*
X80147Y173025D01*
X80407Y173225D01*
X80648Y173446D01*
X80870Y173688D01*
X81069Y173948D01*
X81245Y174224D01*
X81397Y174515D01*
X81522Y174818D01*
X81621Y175130D01*
X81691Y175450D01*
X81734Y175775D01*
X81748Y176102D01*
X81734Y176430D01*
X81691Y176755D01*
X81621Y177075D01*
X81522Y177387D01*
X81397Y177690D01*
X81245Y177980D01*
X81069Y178257D01*
X80870Y178517D01*
X80648Y178759D01*
X80407Y178980D01*
X80147Y179179D01*
X79870Y179355D01*
X79580Y179507D01*
X79277Y179632D01*
X78964Y179731D01*
X78644Y179802D01*
X78320Y179844D01*
X77992Y179859D01*
X77665Y179844D01*
X77340Y179802D01*
X77020Y179731D01*
X76707Y179632D01*
X76405Y179507D01*
X76114Y179355D01*
X75838Y179179D01*
X75578Y178980D01*
X75336Y178759D01*
X75115Y178517D01*
X74915Y178257D01*
X74739Y177980D01*
X74588Y177690D01*
X74462Y177387D01*
X74364Y177075D01*
X74293Y176755D01*
X74250Y176430D01*
X74236Y176102D01*
X74250Y175775D01*
X74293Y175450D01*
X74364Y175130D01*
X74462Y174818D01*
X74588Y174515D01*
X74739Y174224D01*
X74915Y173948D01*
X75115Y173688D01*
X75336Y173446D01*
X75578Y173225D01*
X75838Y173025D01*
X75846Y173020D01*
X76069Y172191D01*
X76045Y171842D01*
X76018Y171778D01*
X75384Y171144D01*
X75222Y171172D01*
X75000Y171184D01*
X74778Y171172D01*
X74559Y171134D01*
X74345Y171073D01*
X74139Y170988D01*
X73944Y170880D01*
X73763Y170751D01*
X73597Y170603D01*
X73449Y170437D01*
X73320Y170256D01*
X73212Y170061D01*
X73127Y169855D01*
X73066Y169641D01*
X73028Y169422D01*
X73016Y169200D01*
X73028Y168978D01*
X72492Y168297D01*
X72306Y168147D01*
X72257Y168123D01*
X65145D01*
Y168123D01*
X62795Y168123D01*
Y167323D01*
X57284D01*
Y168523D01*
X57992Y169231D01*
X58772Y170012D01*
X58885Y170144D01*
X58975Y170291D01*
X59042Y170451D01*
X59082Y170619D01*
X59096Y170792D01*
Y172515D01*
X59277Y172573D01*
X59580Y172698D01*
X59870Y172849D01*
X60147Y173025D01*
X60407Y173225D01*
X60648Y173446D01*
X60870Y173688D01*
X61069Y173948D01*
X61245Y174224D01*
X61396Y174515D01*
X61522Y174818D01*
X61620Y175130D01*
X61691Y175450D01*
X61734Y175775D01*
X61748Y176102D01*
X61734Y176430D01*
X61691Y176755D01*
X61620Y177075D01*
X61522Y177387D01*
X61396Y177690D01*
X61245Y177980D01*
X61069Y178257D01*
X60870Y178517D01*
X60648Y178759D01*
X60407Y178980D01*
X60147Y179179D01*
X59870Y179355D01*
X59580Y179507D01*
X59277Y179632D01*
X58964Y179731D01*
X58644Y179802D01*
X58319Y179844D01*
X57992Y179859D01*
X57665Y179844D01*
X57340Y179802D01*
X57020Y179731D01*
X56707Y179632D01*
X56405Y179507D01*
X56114Y179355D01*
X55838Y179179D01*
X55578Y178980D01*
X55336Y178759D01*
X55115Y178517D01*
X54915Y178257D01*
X54739Y177980D01*
X54588Y177690D01*
X54462Y177387D01*
X54364Y177075D01*
X54293Y176755D01*
X54250Y176430D01*
X54236Y176102D01*
X54250Y175775D01*
X54293Y175450D01*
X54364Y175130D01*
X54462Y174818D01*
X54588Y174515D01*
X54739Y174224D01*
X54915Y173948D01*
X55115Y173688D01*
X55336Y173446D01*
X55578Y173225D01*
X55838Y173025D01*
X56114Y172849D01*
X56405Y172698D01*
X56707Y172573D01*
X56889Y172515D01*
Y171249D01*
X54256Y168617D01*
X53256Y169031D01*
Y171942D01*
X53243Y172114D01*
X53202Y172283D01*
X53136Y172443D01*
X53045Y172590D01*
X52933Y172722D01*
X51309Y174346D01*
X51397Y174515D01*
X51522Y174818D01*
X51621Y175130D01*
X51691Y175450D01*
X51734Y175775D01*
X51749Y176102D01*
X51734Y176430D01*
X51691Y176755D01*
X51621Y177075D01*
X51522Y177387D01*
X51397Y177690D01*
X51245Y177980D01*
X51069Y178257D01*
X50870Y178517D01*
X50648Y178759D01*
X50407Y178980D01*
X50147Y179179D01*
X49870Y179355D01*
X49580Y179507D01*
X49277Y179632D01*
X48964Y179731D01*
X49196Y180697D01*
X53690D01*
X53862Y180710D01*
X54031Y180751D01*
X54191Y180817D01*
X54338Y180907D01*
X54470Y181020D01*
X56236Y182786D01*
X56405Y182698D01*
X56707Y182573D01*
X57020Y182474D01*
X57340Y182403D01*
X57665Y182360D01*
X57992Y182346D01*
X58319Y182360D01*
X58644Y182403D01*
X58964Y182474D01*
X59277Y182573D01*
X59580Y182698D01*
X59870Y182849D01*
X60147Y183025D01*
X60407Y183225D01*
X60648Y183446D01*
X60870Y183688D01*
X61069Y183948D01*
X61245Y184224D01*
X61396Y184515D01*
X61522Y184818D01*
X61620Y185130D01*
X61691Y185450D01*
X61734Y185775D01*
X61748Y186102D01*
X61734Y186430D01*
X61691Y186755D01*
X61620Y187075D01*
X61522Y187387D01*
X61396Y187690D01*
X61245Y187980D01*
X61563Y188759D01*
X61778Y188976D01*
X64459D01*
X64807Y188509D01*
X64974Y187976D01*
X64912Y187880D01*
X64769Y187605D01*
X64650Y187319D01*
X64557Y187023D01*
X64490Y186720D01*
X64475Y186602D01*
X67992D01*
X71510D01*
X71494Y186720D01*
X71427Y187023D01*
X71334Y187319D01*
X71215Y187605D01*
X71072Y187880D01*
X71011Y187976D01*
X71178Y188509D01*
X71525Y188976D01*
X74207D01*
X74421Y188759D01*
X74739Y187980D01*
X74588Y187690D01*
X74462Y187387D01*
X74364Y187075D01*
X74293Y186755D01*
X74250Y186430D01*
X74236Y186102D01*
X74250Y185775D01*
X74293Y185450D01*
X74364Y185130D01*
X74462Y184818D01*
X74588Y184515D01*
X74739Y184224D01*
X74915Y183948D01*
X75115Y183688D01*
X75336Y183446D01*
X75578Y183225D01*
X75838Y183025D01*
X76114Y182849D01*
X76405Y182698D01*
X76707Y182573D01*
X77020Y182474D01*
X77340Y182403D01*
X77665Y182360D01*
X77992Y182346D01*
X78320Y182360D01*
X78644Y182403D01*
X78964Y182474D01*
X79277Y182573D01*
X79580Y182698D01*
X79870Y182849D01*
X80147Y183025D01*
X80407Y183225D01*
X80648Y183446D01*
X80870Y183688D01*
X81069Y183948D01*
X81245Y184224D01*
X81397Y184515D01*
X81522Y184818D01*
X81621Y185130D01*
X81691Y185450D01*
X81734Y185775D01*
X81748Y186102D01*
X81734Y186430D01*
X81691Y186755D01*
X81621Y187075D01*
X81522Y187387D01*
X81397Y187690D01*
X81245Y187980D01*
X81564Y188759D01*
X81778Y188976D01*
X84459D01*
X84807Y188509D01*
X84974Y187976D01*
X84912Y187880D01*
X84769Y187605D01*
X84650Y187319D01*
X84557Y187023D01*
X84490Y186720D01*
X84475Y186602D01*
X87992D01*
X91510D01*
X91494Y186720D01*
X91427Y187023D01*
X91334Y187319D01*
X91215Y187605D01*
X91072Y187880D01*
X91011Y187976D01*
X91178Y188509D01*
X91525Y188976D01*
X94207D01*
X94421Y188759D01*
X94739Y187980D01*
X94588Y187690D01*
X94462Y187387D01*
X94364Y187075D01*
X94293Y186755D01*
X94250Y186430D01*
X94236Y186102D01*
X94250Y185775D01*
X94293Y185450D01*
X94364Y185130D01*
X94462Y184818D01*
X94588Y184515D01*
X94739Y184224D01*
X94915Y183948D01*
X95115Y183688D01*
X95336Y183446D01*
X95578Y183225D01*
X95838Y183025D01*
X96114Y182849D01*
X96405Y182698D01*
X96707Y182573D01*
X97020Y182474D01*
X97340Y182403D01*
X97665Y182360D01*
X97992Y182346D01*
X98320Y182360D01*
X98644Y182403D01*
X98964Y182474D01*
X99277Y182573D01*
X99580Y182698D01*
X99870Y182849D01*
X100147Y183025D01*
X100407Y183225D01*
X100648Y183446D01*
X100870Y183688D01*
X101069Y183948D01*
X101245Y184224D01*
X101397Y184515D01*
X101522Y184818D01*
X101620Y185130D01*
X101691Y185450D01*
X101734Y185775D01*
X101749Y186102D01*
X101734Y186430D01*
X101691Y186755D01*
X101620Y187075D01*
X101522Y187387D01*
X101397Y187690D01*
X101245Y187980D01*
X101564Y188759D01*
X101778Y188976D01*
X104459D01*
X104807Y188509D01*
X104974Y187976D01*
X104912Y187880D01*
X104769Y187605D01*
X104650Y187319D01*
X104557Y187023D01*
X104490Y186720D01*
X104475Y186602D01*
X107992D01*
X111510D01*
X111494Y186720D01*
X111427Y187023D01*
X111334Y187319D01*
X111215Y187605D01*
X111072Y187880D01*
X111011Y187976D01*
X111178Y188509D01*
X111525Y188976D01*
X124016D01*
Y168571D01*
D02*
G37*
G36*
X74422Y164799D02*
X74422Y164097D01*
Y162799D01*
X76772D01*
X79122D01*
X79122Y163848D01*
X79699Y164183D01*
X80277Y163848D01*
Y160199D01*
X83075D01*
X83504Y159230D01*
X83080Y158699D01*
X80277D01*
Y158699D01*
X79322Y158806D01*
Y158899D01*
X74222D01*
Y157702D01*
X72257D01*
X72257Y161798D01*
X72257D01*
Y165097D01*
X73545D01*
X74422Y164799D01*
D02*
G37*
G36*
X3028Y153491D02*
X3249Y153249D01*
X3491Y153028D01*
X3751Y152829D01*
X4027Y152652D01*
X4318Y152501D01*
X4621Y152376D01*
X4933Y152277D01*
X5253Y152206D01*
X5578Y152164D01*
X5906Y152149D01*
X6233Y152164D01*
X6558Y152206D01*
X6878Y152277D01*
X7190Y152376D01*
X7493Y152501D01*
X7662Y152589D01*
X12409Y147842D01*
X12540Y147729D01*
X12688Y147639D01*
X12848Y147573D01*
X13016Y147532D01*
X13189Y147519D01*
X46376D01*
X46700Y146519D01*
X46638Y146429D01*
X46595Y146393D01*
X45835Y145969D01*
X45822Y145972D01*
X45600Y145984D01*
X45378Y145972D01*
X45158Y145934D01*
X44945Y145873D01*
X44739Y145788D01*
X44544Y145680D01*
X44363Y145551D01*
X44197Y145403D01*
X44049Y145237D01*
X43920Y145056D01*
X43812Y144861D01*
X43727Y144655D01*
X43666Y144441D01*
X43628Y144222D01*
X43616Y144000D01*
X43628Y143778D01*
X43666Y143559D01*
X43727Y143345D01*
X43812Y143139D01*
X43876Y143024D01*
X43742Y142661D01*
X43685Y142571D01*
X43354Y142194D01*
X43288Y142140D01*
X43278Y142141D01*
X37431D01*
X37301Y142131D01*
X37174Y142100D01*
X37053Y142051D01*
X36942Y141982D01*
X36843Y141897D01*
X36049Y142493D01*
X35901Y142583D01*
X35741Y142649D01*
X35573Y142690D01*
X35400Y142703D01*
X10668D01*
X9222Y144149D01*
X9310Y144318D01*
X9435Y144621D01*
X9534Y144933D01*
X9605Y145253D01*
X9647Y145578D01*
X9662Y145905D01*
X9647Y146233D01*
X9605Y146558D01*
X9534Y146878D01*
X9435Y147190D01*
X9310Y147493D01*
X9159Y147784D01*
X8982Y148060D01*
X8783Y148320D01*
X8562Y148562D01*
X8320Y148783D01*
X8060Y148983D01*
X7784Y149159D01*
X7493Y149310D01*
X7190Y149435D01*
X6878Y149534D01*
X6558Y149605D01*
X6233Y149648D01*
X5906Y149662D01*
X5578Y149648D01*
X5253Y149605D01*
X4933Y149534D01*
X4621Y149435D01*
X4318Y149310D01*
X4027Y149159D01*
X3751Y148983D01*
X3491Y148783D01*
X3249Y148562D01*
X3028Y148320D01*
X2968Y148242D01*
X2331Y148356D01*
X1969Y148571D01*
Y153240D01*
X2331Y153455D01*
X2968Y153568D01*
X3028Y153491D01*
D02*
G37*
G36*
X24178Y137111D02*
X26478D01*
Y136511D01*
X24178D01*
Y134461D01*
X23243Y134303D01*
X13200D01*
X13027Y134290D01*
X12859Y134249D01*
X12699Y134183D01*
X12551Y134093D01*
X12420Y133980D01*
X7662Y129222D01*
X7493Y129310D01*
X7190Y129435D01*
X6878Y129534D01*
X6558Y129605D01*
X6233Y129648D01*
X5906Y129662D01*
X5578Y129648D01*
X5253Y129605D01*
X4933Y129534D01*
X4621Y129435D01*
X4318Y129310D01*
X4027Y129159D01*
X3751Y128982D01*
X3491Y128783D01*
X3249Y128562D01*
X3028Y128320D01*
X2968Y128243D01*
X2331Y128356D01*
X1969Y128571D01*
Y133240D01*
X2331Y133455D01*
X2968Y133569D01*
X3028Y133491D01*
X3249Y133249D01*
X3491Y133028D01*
X3751Y132828D01*
X4027Y132652D01*
X4318Y132501D01*
X4621Y132376D01*
X4933Y132277D01*
X5253Y132206D01*
X5578Y132164D01*
X5906Y132149D01*
X6233Y132164D01*
X6558Y132206D01*
X6878Y132277D01*
X7190Y132376D01*
X7493Y132501D01*
X7784Y132652D01*
X8060Y132828D01*
X8320Y133028D01*
X8562Y133249D01*
X8783Y133491D01*
X8982Y133751D01*
X9159Y134027D01*
X9310Y134318D01*
X9435Y134621D01*
X9534Y134933D01*
X9605Y135253D01*
X9647Y135578D01*
X9662Y135906D01*
X9647Y136233D01*
X9605Y136558D01*
X9534Y136878D01*
X9435Y137190D01*
X9381Y137321D01*
X10757Y138697D01*
X24178D01*
Y137111D01*
D02*
G37*
G36*
X32048Y131967D02*
X32230Y131693D01*
X32432Y131097D01*
X32412Y131061D01*
X32327Y130855D01*
X32265Y130641D01*
X32228Y130422D01*
X32216Y130200D01*
X32228Y129978D01*
X32265Y129759D01*
X32327Y129545D01*
X32412Y129339D01*
X32520Y129144D01*
X32571Y129072D01*
X32460Y128608D01*
X32243Y128203D01*
X32121Y128072D01*
X28493D01*
X28259Y128301D01*
X27776Y128860D01*
X27784Y129000D01*
X27772Y129222D01*
X27735Y129441D01*
X27673Y129655D01*
X27588Y129861D01*
X27480Y130056D01*
X27351Y130237D01*
X27203Y130403D01*
X27037Y130551D01*
X26856Y130680D01*
X26661Y130788D01*
X26455Y130873D01*
X26241Y130935D01*
X26022Y130972D01*
X25800Y130984D01*
X25578Y130972D01*
X25359Y130935D01*
X25145Y130873D01*
X24939Y130788D01*
X24744Y130680D01*
X24563Y130551D01*
X24397Y130403D01*
X24249Y130237D01*
X24120Y130056D01*
X24012Y129861D01*
X23927Y129655D01*
X23866Y129441D01*
X23828Y129222D01*
X23816Y129000D01*
X23828Y128778D01*
X23866Y128559D01*
X23927Y128345D01*
X24012Y128139D01*
X24120Y127944D01*
X24249Y127763D01*
X24397Y127597D01*
X24563Y127449D01*
X24680Y127366D01*
X24691Y127247D01*
X24222Y126366D01*
X24178D01*
Y124316D01*
X26478D01*
Y123716D01*
X24178D01*
Y122166D01*
X23819D01*
X23647Y122153D01*
X23478Y122112D01*
X23318Y122046D01*
X23171Y121956D01*
X23085Y121882D01*
X22738Y121925D01*
X22085Y122196D01*
Y125429D01*
X17285D01*
Y125429D01*
X17144Y125341D01*
X16285Y124989D01*
X16255Y125002D01*
X16041Y125063D01*
X15822Y125101D01*
X15600Y125113D01*
X15378Y125101D01*
X15158Y125063D01*
X14945Y125002D01*
X14739Y124917D01*
X14544Y124809D01*
X14363Y124680D01*
X14197Y124532D01*
X14049Y124366D01*
X13920Y124184D01*
X13812Y123990D01*
X13727Y123784D01*
X13666Y123570D01*
X13628Y123351D01*
X13616Y123129D01*
X13628Y122907D01*
X13666Y122687D01*
X13727Y122473D01*
X13812Y122268D01*
X13920Y122073D01*
X14049Y121892D01*
X14197Y121726D01*
X14363Y121577D01*
X14544Y121449D01*
X14739Y121341D01*
X14945Y121256D01*
X15158Y121194D01*
X15378Y121157D01*
X15600Y121144D01*
X15822Y121157D01*
X16041Y121194D01*
X16255Y121256D01*
X16285Y121268D01*
X16429Y121209D01*
X17285Y120829D01*
X17285Y120829D01*
X17285Y120829D01*
X20365D01*
X20794Y119860D01*
X20370Y119329D01*
X17285D01*
Y114729D01*
X18582D01*
Y112537D01*
X18435Y112296D01*
X18358Y112223D01*
X17630Y111777D01*
X17582Y111774D01*
X17400Y111784D01*
X17178Y111772D01*
X16959Y111734D01*
X16745Y111673D01*
X16539Y111588D01*
X16344Y111480D01*
X16163Y111351D01*
X15997Y111203D01*
X15849Y111037D01*
X15720Y110856D01*
X15612Y110661D01*
X15527Y110455D01*
X15465Y110241D01*
X15428Y110022D01*
X15416Y109800D01*
X15428Y109578D01*
X15465Y109359D01*
X15527Y109145D01*
X15612Y108939D01*
X15720Y108744D01*
X15849Y108563D01*
X15997Y108397D01*
X16163Y108249D01*
X16344Y108120D01*
X16500Y108034D01*
Y105799D01*
X16503Y105757D01*
Y101365D01*
X19897D01*
Y90573D01*
X17704Y88380D01*
X17592Y88249D01*
X17501Y88101D01*
X17435Y87941D01*
X17394Y87773D01*
X17382Y87611D01*
X16503D01*
Y80106D01*
X20465D01*
Y87611D01*
X20465D01*
X20345Y87901D01*
X21780Y89336D01*
X21893Y89467D01*
X21983Y89615D01*
X22049Y89775D01*
X22090Y89943D01*
X22103Y90116D01*
Y98966D01*
X23103Y99380D01*
X27864Y94620D01*
X27996Y94507D01*
X28143Y94417D01*
X28303Y94351D01*
X28472Y94310D01*
X28644Y94297D01*
X42154D01*
X42249Y94163D01*
X42397Y93997D01*
X42563Y93849D01*
X42744Y93720D01*
X42939Y93612D01*
X43145Y93527D01*
X43358Y93466D01*
X43578Y93428D01*
X43800Y93416D01*
X44022Y93428D01*
X44241Y93466D01*
X44455Y93527D01*
X44661Y93612D01*
X44856Y93720D01*
X45037Y93849D01*
X45203Y93997D01*
X45351Y94163D01*
X45480Y94344D01*
X45588Y94539D01*
X45673Y94745D01*
X45735Y94959D01*
X45772Y95178D01*
X45784Y95400D01*
X45772Y95622D01*
X45735Y95841D01*
X45673Y96055D01*
X45588Y96261D01*
X45480Y96456D01*
X45351Y96637D01*
X45203Y96803D01*
X45037Y96951D01*
X44856Y97080D01*
X44661Y97188D01*
X44455Y97273D01*
X44241Y97334D01*
X44022Y97372D01*
X43800Y97384D01*
X43578Y97372D01*
X43358Y97334D01*
X43145Y97273D01*
X42939Y97188D01*
X42744Y97080D01*
X42563Y96951D01*
X42397Y96803D01*
X42249Y96637D01*
X42154Y96503D01*
X29101D01*
X25239Y100365D01*
X25465Y101365D01*
X25465D01*
Y108871D01*
X22103D01*
Y109457D01*
X22090Y109629D01*
X22049Y109798D01*
X21983Y109958D01*
X21893Y110106D01*
X21780Y110237D01*
X20788Y111229D01*
Y114729D01*
X22085D01*
Y117768D01*
X23178Y118861D01*
X24178Y118447D01*
Y117426D01*
X26478D01*
Y117126D01*
X26778D01*
Y114776D01*
X28778D01*
X28778Y114776D01*
X29078Y114890D01*
X30078Y114576D01*
D01*
X30821Y113956D01*
X31022Y113633D01*
X31026Y113576D01*
X31016Y113400D01*
X31028Y113178D01*
X31065Y112959D01*
X31127Y112745D01*
X31212Y112539D01*
X31320Y112344D01*
X31449Y112163D01*
X31597Y111997D01*
X31763Y111849D01*
X31885Y111762D01*
X31983Y111663D01*
X32399Y111051D01*
X32431Y110773D01*
X32394Y110573D01*
X32381Y110400D01*
Y108871D01*
X31503D01*
Y101365D01*
X35465D01*
Y108871D01*
X34588D01*
Y109943D01*
X35599Y110954D01*
X36351Y110733D01*
X36608Y110549D01*
X36609Y110529D01*
X36640Y110402D01*
X36690Y110282D01*
X36758Y110170D01*
X36843Y110071D01*
X36942Y109986D01*
X37053Y109918D01*
X37174Y109868D01*
X37301Y109838D01*
X37431Y109827D01*
X38006D01*
X38306Y109481D01*
X38567Y108861D01*
X38482Y108655D01*
X38420Y108441D01*
X38383Y108222D01*
X38370Y108000D01*
X38383Y107778D01*
X38420Y107559D01*
X38482Y107345D01*
X38567Y107139D01*
X38674Y106944D01*
X38803Y106763D01*
X38951Y106597D01*
X39117Y106449D01*
X39299Y106320D01*
X39493Y106212D01*
X39699Y106127D01*
X39913Y106065D01*
X40132Y106028D01*
X40354Y106016D01*
X40576Y106028D01*
X40796Y106065D01*
X41010Y106127D01*
X41215Y106212D01*
X41410Y106320D01*
X41592Y106449D01*
X41757Y106597D01*
X41906Y106763D01*
X42034Y106944D01*
X42142Y107139D01*
X42227Y107345D01*
X42289Y107559D01*
X42326Y107778D01*
X42338Y108000D01*
X42326Y108222D01*
X42289Y108441D01*
X42227Y108655D01*
X42142Y108861D01*
X42403Y109481D01*
X42703Y109827D01*
X43278D01*
X43408Y109838D01*
X43535Y109868D01*
X43655Y109918D01*
X43767Y109986D01*
X43866Y110071D01*
X43868Y110071D01*
X47079Y106861D01*
X47079Y106858D01*
X46994Y106759D01*
X46926Y106648D01*
X46876Y106527D01*
X46845Y106400D01*
X46835Y106270D01*
Y100423D01*
X46845Y100293D01*
X46876Y100166D01*
X46926Y100046D01*
X46994Y99934D01*
X47079Y99835D01*
X47125Y99796D01*
Y94285D01*
X44543Y91703D01*
X26484D01*
X26312Y91690D01*
X26143Y91649D01*
X25983Y91583D01*
X25836Y91493D01*
X25704Y91380D01*
X22704Y88380D01*
X22592Y88249D01*
X22501Y88101D01*
X22435Y87941D01*
X22394Y87773D01*
X22382Y87611D01*
X21503D01*
Y80106D01*
X30465D01*
Y86816D01*
X30746Y86983D01*
X31703Y86455D01*
Y84158D01*
X33484D01*
X35265D01*
Y86697D01*
X35265Y87411D01*
X36147Y87697D01*
X42726D01*
Y84862D01*
X42119D01*
X41947Y84848D01*
X41778Y84808D01*
X41618Y84742D01*
X41471Y84651D01*
X41339Y84539D01*
X39420Y82620D01*
X39307Y82488D01*
X39217Y82341D01*
X39151Y82181D01*
X39110Y82012D01*
X39097Y81840D01*
Y75457D01*
X36909Y73269D01*
X31809D01*
X31766Y73266D01*
X28309D01*
Y70186D01*
X27341Y69757D01*
X26809Y70181D01*
Y73266D01*
X22209D01*
Y68466D01*
X24706D01*
X24932Y68161D01*
X24428Y67161D01*
X22409D01*
Y65261D01*
X26609D01*
Y65799D01*
X27533Y66182D01*
X28234Y65480D01*
X28309Y65417D01*
Y62561D01*
X28309D01*
X28202Y61605D01*
X28109D01*
Y56505D01*
X33109D01*
Y59995D01*
X35011Y61897D01*
X37954D01*
X38049Y61763D01*
X38197Y61597D01*
X38363Y61449D01*
X38544Y61320D01*
X38739Y61212D01*
X38945Y61127D01*
X39158Y61066D01*
X39378Y61028D01*
X39600Y61016D01*
X39822Y61028D01*
X40042Y61066D01*
X40255Y61127D01*
X40461Y61212D01*
X40656Y61320D01*
X40837Y61449D01*
X41003Y61597D01*
X41151Y61763D01*
X41280Y61944D01*
X41388Y62139D01*
X41473Y62345D01*
X41535Y62559D01*
X41572Y62778D01*
X41584Y63000D01*
X41572Y63222D01*
X41535Y63441D01*
X41473Y63655D01*
X41388Y63861D01*
X41280Y64056D01*
X41151Y64237D01*
X41003Y64403D01*
X40837Y64551D01*
X40656Y64680D01*
X40461Y64788D01*
X40255Y64873D01*
X40042Y64934D01*
X39822Y64972D01*
X39600Y64984D01*
X39378Y64972D01*
X39158Y64934D01*
X38945Y64873D01*
X38739Y64788D01*
X38544Y64680D01*
X38363Y64551D01*
X38197Y64403D01*
X38049Y64237D01*
X37954Y64103D01*
X34554D01*
X34381Y64090D01*
X34213Y64049D01*
X34053Y63983D01*
X33905Y63893D01*
X33016Y64094D01*
X32909Y64138D01*
Y67361D01*
X30301D01*
X30230Y67466D01*
X30765Y68466D01*
X32909D01*
Y71063D01*
X37366D01*
X37539Y71076D01*
X37707Y71117D01*
X37867Y71183D01*
X38015Y71273D01*
X38146Y71386D01*
X40980Y74220D01*
X41093Y74351D01*
X41183Y74499D01*
X41249Y74659D01*
X41290Y74827D01*
X41303Y75000D01*
Y80920D01*
X41732Y81243D01*
X42726Y81259D01*
Y81259D01*
X47826D01*
Y81351D01*
X48781Y81459D01*
Y81459D01*
X53581D01*
Y84498D01*
X53780Y84697D01*
X58800D01*
X58973Y84710D01*
X59141Y84751D01*
X59301Y84817D01*
X59449Y84907D01*
X59580Y85020D01*
X60780Y86220D01*
X60893Y86351D01*
X61684Y85784D01*
X61897Y85605D01*
Y81013D01*
X32142Y51258D01*
X31962Y51057D01*
X31805Y50836D01*
X31675Y50600D01*
X31614Y50454D01*
X31571Y50351D01*
X31497Y50091D01*
X31451Y49825D01*
X31442Y49667D01*
X31208Y49570D01*
X30972Y49440D01*
X30752Y49283D01*
X30550Y49103D01*
X30370Y48902D01*
X30214Y48682D01*
X30109Y48492D01*
X29247D01*
Y47400D01*
X28947D01*
Y47100D01*
X27638D01*
Y46444D01*
X27261Y46007D01*
X26887Y45707D01*
X22403D01*
Y40907D01*
X25443D01*
X27440Y38910D01*
Y35170D01*
X26435D01*
X26220Y35318D01*
X26121Y35435D01*
X25753Y36158D01*
X25791Y36378D01*
X25803Y36600D01*
X25791Y36822D01*
X25753Y37042D01*
X25692Y37255D01*
X25607Y37461D01*
X25499Y37656D01*
X25370Y37837D01*
X25222Y38003D01*
X25056Y38151D01*
X24875Y38280D01*
X24680Y38388D01*
X24474Y38473D01*
X24260Y38535D01*
X24041Y38572D01*
X23819Y38584D01*
X23597Y38572D01*
X23377Y38535D01*
X23164Y38473D01*
X22958Y38388D01*
X22763Y38280D01*
X22582Y38151D01*
X22416Y38003D01*
X22268Y37837D01*
X22139Y37656D01*
X22031Y37461D01*
X22000Y37386D01*
X21992Y37388D01*
X21969Y37391D01*
X21947Y37396D01*
X21891Y37398D01*
X21835Y37404D01*
X12000D01*
X11843Y37388D01*
X11692Y37343D01*
X11553Y37268D01*
X11432Y37168D01*
X11332Y37047D01*
X11257Y36908D01*
X11212Y36757D01*
X11196Y36600D01*
Y22800D01*
X1969D01*
Y71229D01*
X2153Y72153D01*
X2968Y72153D01*
X9658D01*
Y79658D01*
X2968D01*
X2153Y79658D01*
X1969Y80582D01*
Y83240D01*
X2331Y83455D01*
X2968Y83569D01*
X3028Y83491D01*
X3249Y83249D01*
X3491Y83028D01*
X3751Y82828D01*
X4027Y82652D01*
X4318Y82501D01*
X4621Y82376D01*
X4933Y82277D01*
X5253Y82206D01*
X5578Y82164D01*
X5906Y82149D01*
X6233Y82164D01*
X6558Y82206D01*
X6878Y82277D01*
X7190Y82376D01*
X7493Y82501D01*
X7784Y82652D01*
X8060Y82828D01*
X8320Y83028D01*
X8562Y83249D01*
X8783Y83491D01*
X8982Y83751D01*
X9159Y84027D01*
X9310Y84318D01*
X9435Y84621D01*
X9534Y84933D01*
X9605Y85253D01*
X9647Y85578D01*
X9662Y85905D01*
X9647Y86233D01*
X9605Y86558D01*
X9534Y86878D01*
X9435Y87190D01*
X9310Y87493D01*
X9159Y87784D01*
X8982Y88060D01*
X8783Y88320D01*
X8562Y88562D01*
X8320Y88783D01*
X8060Y88982D01*
X7784Y89159D01*
X7493Y89310D01*
X7190Y89435D01*
X6878Y89534D01*
X6558Y89605D01*
X6233Y89648D01*
X5906Y89662D01*
X5578Y89648D01*
X5253Y89605D01*
X4933Y89534D01*
X4621Y89435D01*
X4318Y89310D01*
X4027Y89159D01*
X3751Y88982D01*
X3491Y88783D01*
X3249Y88562D01*
X3028Y88320D01*
X2968Y88243D01*
X2331Y88356D01*
X1969Y88571D01*
Y93641D01*
X2053Y93689D01*
X2968Y93903D01*
X2992Y93866D01*
X3181Y93620D01*
X3391Y93391D01*
X3620Y93181D01*
X3866Y92993D01*
X4127Y92826D01*
X4403Y92683D01*
X4689Y92564D01*
X4985Y92471D01*
X5288Y92403D01*
X5406Y92388D01*
Y95906D01*
Y99423D01*
X5288Y99408D01*
X4985Y99340D01*
X4689Y99247D01*
X4403Y99129D01*
X4127Y98985D01*
X3866Y98818D01*
X3620Y98630D01*
X3391Y98420D01*
X3181Y98191D01*
X2992Y97945D01*
X2968Y97908D01*
X2053Y98122D01*
X1969Y98170D01*
Y103240D01*
X2331Y103455D01*
X2968Y103568D01*
X3028Y103491D01*
X3249Y103249D01*
X3491Y103028D01*
X3751Y102829D01*
X4027Y102652D01*
X4318Y102501D01*
X4621Y102376D01*
X4933Y102277D01*
X5253Y102206D01*
X5578Y102164D01*
X5906Y102149D01*
X6233Y102164D01*
X6558Y102206D01*
X6878Y102277D01*
X7190Y102376D01*
X7493Y102501D01*
X7784Y102652D01*
X8060Y102829D01*
X8320Y103028D01*
X8562Y103249D01*
X8783Y103491D01*
X8982Y103751D01*
X9159Y104027D01*
X9310Y104318D01*
X9435Y104621D01*
X9534Y104933D01*
X9605Y105253D01*
X9647Y105578D01*
X9662Y105905D01*
X9647Y106233D01*
X9605Y106558D01*
X9534Y106878D01*
X9435Y107190D01*
X9310Y107493D01*
X9159Y107784D01*
X8982Y108060D01*
X8783Y108320D01*
X8562Y108562D01*
X8320Y108783D01*
X8060Y108983D01*
X7784Y109159D01*
X7493Y109310D01*
X7190Y109435D01*
X6878Y109534D01*
X6558Y109605D01*
X6233Y109648D01*
X5906Y109662D01*
X5578Y109648D01*
X5253Y109605D01*
X4933Y109534D01*
X4621Y109435D01*
X4318Y109310D01*
X4027Y109159D01*
X3751Y108983D01*
X3491Y108783D01*
X3249Y108562D01*
X3028Y108320D01*
X2968Y108242D01*
X2331Y108356D01*
X1969Y108571D01*
Y113240D01*
X2331Y113455D01*
X2968Y113568D01*
X3028Y113491D01*
X3249Y113249D01*
X3491Y113028D01*
X3751Y112829D01*
X4027Y112652D01*
X4318Y112501D01*
X4621Y112376D01*
X4933Y112277D01*
X5253Y112206D01*
X5578Y112163D01*
X5906Y112149D01*
X6233Y112163D01*
X6558Y112206D01*
X6878Y112277D01*
X7190Y112376D01*
X7493Y112501D01*
X7784Y112652D01*
X8060Y112829D01*
X8320Y113028D01*
X8562Y113249D01*
X8783Y113491D01*
X8982Y113751D01*
X9159Y114027D01*
X9310Y114318D01*
X9435Y114621D01*
X9534Y114933D01*
X9605Y115253D01*
X9647Y115578D01*
X9662Y115905D01*
X9647Y116233D01*
X9605Y116558D01*
X9534Y116878D01*
X9435Y117190D01*
X9310Y117493D01*
X9159Y117784D01*
X8982Y118060D01*
X8783Y118320D01*
X8562Y118562D01*
X8320Y118783D01*
X8060Y118983D01*
X7784Y119159D01*
X7493Y119310D01*
X7190Y119435D01*
X6878Y119534D01*
X6558Y119605D01*
X6233Y119648D01*
X5906Y119662D01*
X5578Y119648D01*
X5253Y119605D01*
X4933Y119534D01*
X4621Y119435D01*
X4318Y119310D01*
X4027Y119159D01*
X3751Y118983D01*
X3491Y118783D01*
X3249Y118562D01*
X3028Y118320D01*
X2968Y118243D01*
X2331Y118356D01*
X1969Y118571D01*
Y123240D01*
X2331Y123455D01*
X2968Y123568D01*
X3028Y123491D01*
X3249Y123249D01*
X3491Y123028D01*
X3751Y122828D01*
X4027Y122652D01*
X4318Y122501D01*
X4621Y122376D01*
X4933Y122277D01*
X5253Y122206D01*
X5578Y122163D01*
X5906Y122149D01*
X6233Y122163D01*
X6558Y122206D01*
X6878Y122277D01*
X7190Y122376D01*
X7493Y122501D01*
X7784Y122652D01*
X8060Y122828D01*
X8320Y123028D01*
X8562Y123249D01*
X8783Y123491D01*
X8982Y123751D01*
X9159Y124027D01*
X9310Y124318D01*
X9435Y124621D01*
X9534Y124933D01*
X9605Y125253D01*
X9647Y125578D01*
X9662Y125906D01*
X9647Y126233D01*
X9605Y126558D01*
X9534Y126878D01*
X9435Y127190D01*
X9310Y127493D01*
X9222Y127662D01*
X13657Y132097D01*
X31901D01*
X32048Y131967D01*
D02*
G37*
G36*
X107497Y123743D02*
Y117970D01*
X106573Y117588D01*
X102317Y121843D01*
X102303Y121855D01*
X101807Y122650D01*
Y124700D01*
X99507D01*
Y125300D01*
X101807D01*
Y127297D01*
X103943D01*
X107497Y123743D01*
D02*
G37*
G36*
X95497Y108124D02*
X95510Y107952D01*
X95551Y107783D01*
X95617Y107624D01*
X95707Y107476D01*
X95820Y107344D01*
X95903Y107261D01*
X95932Y107008D01*
X95897Y106792D01*
X95621Y106129D01*
X95596Y106118D01*
X95401Y106011D01*
X95220Y105882D01*
X95054Y105734D01*
X94905Y105568D01*
X94777Y105386D01*
X94694Y105237D01*
X92729D01*
Y105918D01*
X89554D01*
Y102350D01*
X92729D01*
Y103031D01*
X93767D01*
X94119Y102466D01*
X94224Y102031D01*
X94152Y101934D01*
X94012Y101700D01*
X93896Y101454D01*
X93804Y101198D01*
X93738Y100935D01*
X93698Y100665D01*
X93685Y100394D01*
X93698Y100122D01*
X93738Y99853D01*
X93804Y99589D01*
X93896Y99333D01*
X94012Y99087D01*
X94152Y98854D01*
X94314Y98635D01*
X94497Y98434D01*
X94698Y98251D01*
X94917Y98089D01*
X95150Y97949D01*
X95396Y97833D01*
X95652Y97741D01*
X95916Y97675D01*
X96185Y97635D01*
X96457Y97622D01*
X96728Y97635D01*
X96997Y97675D01*
X97261Y97741D01*
X97517Y97833D01*
X97763Y97949D01*
X97997Y98089D01*
X98215Y98251D01*
X98417Y98434D01*
X98599Y98635D01*
X98761Y98854D01*
X98901Y99087D01*
X99018Y99333D01*
X99109Y99589D01*
X99175Y99853D01*
X99215Y100122D01*
X99229Y100394D01*
X99215Y100665D01*
X99175Y100935D01*
X99109Y101198D01*
X99018Y101454D01*
X98901Y101700D01*
X98761Y101934D01*
X98599Y102152D01*
X98417Y102354D01*
X98206Y102571D01*
X98331Y103527D01*
X98918Y103771D01*
X99133Y103806D01*
X99387Y103777D01*
X100297Y102867D01*
Y79678D01*
X99297Y79264D01*
X84691Y93869D01*
X85105Y94869D01*
X87479D01*
Y94417D01*
X87493Y94245D01*
X87533Y94076D01*
X87599Y93916D01*
X87690Y93769D01*
X87802Y93637D01*
X88056Y93384D01*
X88028Y93222D01*
X88016Y93000D01*
X88028Y92778D01*
X88065Y92558D01*
X88127Y92345D01*
X88212Y92139D01*
X88320Y91944D01*
X88449Y91763D01*
X88597Y91597D01*
X88763Y91449D01*
X88944Y91320D01*
X89139Y91212D01*
X89345Y91127D01*
X89559Y91066D01*
X89778Y91028D01*
X90000Y91016D01*
X90222Y91028D01*
X90384Y91056D01*
X91669Y89771D01*
X91800Y89658D01*
X91948Y89568D01*
X92108Y89502D01*
X92276Y89461D01*
X92449Y89448D01*
X93916D01*
X94012Y89245D01*
X94152Y89011D01*
X94314Y88793D01*
X94497Y88591D01*
X94698Y88408D01*
X94917Y88247D01*
X95150Y88107D01*
X95396Y87990D01*
X95652Y87899D01*
X95916Y87833D01*
X96185Y87793D01*
X96457Y87779D01*
X96728Y87793D01*
X96997Y87833D01*
X97261Y87899D01*
X97517Y87990D01*
X97763Y88107D01*
X97997Y88247D01*
X98215Y88408D01*
X98417Y88591D01*
X98599Y88793D01*
X98761Y89011D01*
X98901Y89245D01*
X99018Y89490D01*
X99109Y89747D01*
X99175Y90010D01*
X99215Y90280D01*
X99229Y90551D01*
X99215Y90823D01*
X99175Y91092D01*
X99109Y91356D01*
X99018Y91612D01*
X98901Y91858D01*
X98761Y92091D01*
X98599Y92310D01*
X98417Y92511D01*
X98215Y92694D01*
X97997Y92856D01*
X97763Y92996D01*
X97517Y93112D01*
X97261Y93204D01*
X96997Y93270D01*
X96728Y93310D01*
X96457Y93323D01*
X96185Y93310D01*
X95916Y93270D01*
X95652Y93204D01*
X95396Y93112D01*
X95150Y92996D01*
X94917Y92856D01*
X94698Y92694D01*
X94497Y92511D01*
X94314Y92310D01*
X94152Y92091D01*
X94012Y91858D01*
X93916Y91655D01*
X92906D01*
X91944Y92616D01*
X91972Y92778D01*
X91984Y93000D01*
X91972Y93222D01*
X91935Y93441D01*
X91873Y93655D01*
X91788Y93861D01*
X91680Y94056D01*
X91670Y94069D01*
X91836Y94633D01*
X92149Y95069D01*
X92529D01*
Y96354D01*
X91142D01*
Y96653D01*
X90842D01*
Y98238D01*
X90170D01*
Y98438D01*
X87485D01*
Y102350D01*
X87611D01*
Y105454D01*
X91261Y109103D01*
X91296Y109144D01*
X91461Y109212D01*
X91656Y109320D01*
X91837Y109449D01*
X92003Y109597D01*
X92151Y109763D01*
X92280Y109944D01*
X92388Y110139D01*
X92473Y110345D01*
X92480Y110370D01*
X92749Y110639D01*
X95497D01*
Y108124D01*
D02*
G37*
G36*
X84821Y81618D02*
X84555Y80474D01*
X84224Y80536D01*
X83272Y81489D01*
X83140Y81601D01*
X82992Y81692D01*
X82832Y81758D01*
X82664Y81798D01*
X82491Y81812D01*
X80353D01*
Y83259D01*
X75353D01*
Y78159D01*
X75446D01*
X75553Y77203D01*
X75553D01*
Y72403D01*
X80153D01*
Y77203D01*
X80153D01*
X80261Y78159D01*
X80353D01*
Y79605D01*
X82034D01*
X83256Y78384D01*
X83228Y78222D01*
X83216Y78000D01*
X83228Y77778D01*
X83266Y77558D01*
X83327Y77345D01*
X83412Y77139D01*
X83520Y76944D01*
X83649Y76763D01*
X83797Y76597D01*
X83883Y76520D01*
X83883Y75888D01*
X83838Y75728D01*
X83685Y75431D01*
X83585Y75396D01*
X83339Y75279D01*
X83106Y75139D01*
X82887Y74977D01*
X82686Y74795D01*
X82503Y74593D01*
X82341Y74375D01*
X82201Y74141D01*
X82085Y73895D01*
X81993Y73639D01*
X81927Y73375D01*
X81887Y73106D01*
X81874Y72835D01*
X81887Y72563D01*
X81927Y72294D01*
X81993Y72030D01*
X82085Y71774D01*
X82201Y71528D01*
X82341Y71295D01*
X82503Y71076D01*
X82686Y70875D01*
X82877Y70701D01*
X82878Y70660D01*
X82642Y69813D01*
X82570Y69701D01*
X78740D01*
X78583Y69686D01*
X78433Y69640D01*
X78377Y69611D01*
X78268Y69559D01*
X77909Y69466D01*
X77603D01*
X77244Y69559D01*
X77135Y69611D01*
X77079Y69640D01*
X76929Y69686D01*
X76772Y69701D01*
X73056D01*
Y72403D01*
X74053D01*
Y77203D01*
X69453D01*
Y72403D01*
X70450D01*
Y69701D01*
X68898D01*
X68741Y69686D01*
X68590Y69640D01*
X68451Y69566D01*
X68329Y69466D01*
X68229Y69344D01*
X68155Y69205D01*
X68109Y69055D01*
X68094Y68898D01*
Y64961D01*
X68109Y64804D01*
X68155Y64653D01*
X68229Y64514D01*
X68329Y64392D01*
X68352Y64374D01*
X68332Y64022D01*
X68048Y63374D01*
X67485D01*
Y61417D01*
X67361Y60468D01*
X62561D01*
Y55868D01*
X67361D01*
Y56865D01*
X73443D01*
X73448Y56672D01*
X73452Y56643D01*
Y53159D01*
X72825D01*
Y52532D01*
X68491D01*
Y52284D01*
X67361D01*
Y54368D01*
X62561D01*
Y52284D01*
X61455D01*
Y54368D01*
X56655D01*
Y49768D01*
X61455D01*
Y50078D01*
X62561D01*
Y49768D01*
X64199D01*
X64477Y49494D01*
X64587Y49286D01*
X64774Y48768D01*
X64727Y48655D01*
X64666Y48441D01*
X64628Y48222D01*
X64616Y48000D01*
X64622Y47889D01*
X64576Y47704D01*
X64142Y47095D01*
X64012Y46980D01*
X63834Y46889D01*
X62411D01*
Y41889D01*
X67511D01*
Y41909D01*
X68491Y41956D01*
Y41956D01*
X71234D01*
Y41193D01*
X71248Y41021D01*
X71288Y40852D01*
X71355Y40692D01*
X71445Y40545D01*
X71558Y40413D01*
X71909Y40062D01*
X72041Y39949D01*
X72188Y39859D01*
X72348Y39792D01*
X72517Y39752D01*
X72689Y39738D01*
X73452D01*
Y37845D01*
X73448Y37816D01*
X73401Y36015D01*
X73385D01*
X73381Y35218D01*
X73385Y35177D01*
Y32710D01*
X73085Y32508D01*
X72085Y33040D01*
Y33165D01*
X70085D01*
Y31115D01*
X71207D01*
X71363Y31036D01*
X71459Y30964D01*
X72031Y30365D01*
X72031Y30115D01*
Y27559D01*
X72046Y27402D01*
X72092Y27251D01*
X72166Y27112D01*
X72266Y26991D01*
X73999Y25258D01*
Y25197D01*
X74003Y25158D01*
Y21247D01*
X78184D01*
Y24860D01*
X80079Y26755D01*
X84646D01*
X84803Y26771D01*
X84953Y26816D01*
X85092Y26891D01*
X85214Y26991D01*
X85314Y27112D01*
X85388Y27251D01*
X85434Y27402D01*
X85449Y27559D01*
Y30115D01*
X85449Y30365D01*
X86022Y30964D01*
X86117Y31036D01*
X86273Y31115D01*
X87396D01*
Y33165D01*
X85396D01*
Y33040D01*
X84396Y32508D01*
X84096Y32710D01*
Y35015D01*
X84096Y35175D01*
X84100Y35215D01*
X84096Y36015D01*
X84079D01*
X84032Y37816D01*
X84028Y37845D01*
Y39738D01*
X84791D01*
X84964Y39752D01*
X85132Y39792D01*
X85292Y39859D01*
X85440Y39949D01*
X85571Y40062D01*
X85923Y40413D01*
X86035Y40545D01*
X86126Y40692D01*
X86192Y40852D01*
X86232Y41021D01*
X86246Y41193D01*
Y41956D01*
X88989D01*
Y41956D01*
X89970Y41909D01*
Y41889D01*
X95070D01*
Y46889D01*
X93966D01*
X93788Y46980D01*
X93658Y47095D01*
X93224Y47704D01*
X93178Y47889D01*
X93184Y48000D01*
X93172Y48222D01*
X93134Y48441D01*
X93073Y48655D01*
X93026Y48768D01*
X93213Y49286D01*
X93323Y49494D01*
X93601Y49768D01*
X94920D01*
Y50078D01*
X96025D01*
Y49768D01*
X100497D01*
X100825Y49768D01*
X101497Y49046D01*
Y27466D01*
X92153Y18123D01*
X87980D01*
Y17147D01*
X77375D01*
Y18123D01*
X71641D01*
Y13964D01*
X77375D01*
Y14940D01*
X87980D01*
Y13964D01*
X93713D01*
Y16562D01*
X102897Y25746D01*
X103897Y25331D01*
Y20984D01*
X103910Y20812D01*
X103951Y20643D01*
X104017Y20483D01*
X104107Y20336D01*
X104220Y20204D01*
X116762Y7662D01*
X116674Y7493D01*
X116549Y7190D01*
X116450Y6878D01*
X116379Y6558D01*
X116337Y6233D01*
X116322Y5906D01*
X116337Y5578D01*
X116379Y5253D01*
X116450Y4933D01*
X116549Y4621D01*
X116674Y4318D01*
X116826Y4027D01*
X117002Y3751D01*
X117201Y3491D01*
X117423Y3249D01*
X117664Y3028D01*
X117742Y2968D01*
X117629Y2331D01*
X117413Y1969D01*
X56604D01*
Y7596D01*
X60600Y7596D01*
X60757Y7612D01*
X60908Y7657D01*
X61047Y7732D01*
X61168Y7832D01*
X61268Y7953D01*
X61343Y8092D01*
X61388Y8243D01*
X61404Y8400D01*
Y9608D01*
X62392Y9636D01*
X62404Y9636D01*
X63983D01*
Y11811D01*
Y13986D01*
X62404D01*
X62392Y13986D01*
X61404Y14014D01*
Y15000D01*
X61388Y15157D01*
X61343Y15308D01*
X61268Y15447D01*
X61206Y15523D01*
X61262Y15935D01*
X61311Y16126D01*
X61541Y16523D01*
X64776D01*
Y21575D01*
X64934Y21842D01*
X65188Y22084D01*
X65635Y22401D01*
X65764Y22393D01*
X67485D01*
Y21247D01*
X71666D01*
Y25997D01*
X69344D01*
X69285Y26001D01*
X66511D01*
X64776Y27735D01*
Y30721D01*
X59474D01*
Y44229D01*
X59461Y44402D01*
X59420Y44570D01*
X59354Y44730D01*
X59263Y44878D01*
X59151Y45009D01*
X50544Y53616D01*
X50572Y53778D01*
X50584Y54000D01*
X50572Y54222D01*
X50534Y54441D01*
X50473Y54655D01*
X50388Y54861D01*
X50280Y55056D01*
X50151Y55237D01*
X50003Y55403D01*
X49837Y55551D01*
X49656Y55680D01*
X49461Y55788D01*
X49255Y55873D01*
X49042Y55935D01*
X48822Y55972D01*
X48600Y55984D01*
X48378Y55972D01*
X48158Y55935D01*
X47945Y55873D01*
X47739Y55788D01*
X47544Y55680D01*
X47363Y55551D01*
X47197Y55403D01*
X47049Y55237D01*
X46920Y55056D01*
X46812Y54861D01*
X46727Y54655D01*
X46665Y54441D01*
X46628Y54222D01*
X46616Y54000D01*
X46628Y53778D01*
X46665Y53558D01*
X46727Y53345D01*
X46812Y53139D01*
X46920Y52944D01*
X47049Y52763D01*
X47197Y52597D01*
X47363Y52449D01*
X47544Y52320D01*
X47739Y52212D01*
X47945Y52127D01*
X48158Y52065D01*
X48378Y52028D01*
X48600Y52016D01*
X48822Y52028D01*
X48984Y52056D01*
X57267Y43772D01*
Y37595D01*
X56735Y37343D01*
X56267Y37251D01*
X56247Y37268D01*
X56108Y37343D01*
X55957Y37388D01*
X55800Y37404D01*
X45094D01*
X45038Y37398D01*
X44982Y37396D01*
X44960Y37391D01*
X44938Y37388D01*
X44929Y37386D01*
X44898Y37461D01*
X44790Y37656D01*
X44662Y37837D01*
X44513Y38003D01*
X44347Y38151D01*
X44166Y38280D01*
X43971Y38388D01*
X43766Y38473D01*
X43552Y38535D01*
X43332Y38572D01*
X43110Y38584D01*
X42888Y38572D01*
X42669Y38535D01*
X42455Y38473D01*
X42384Y38504D01*
X42081Y39533D01*
X43455Y40907D01*
X46494D01*
Y45707D01*
X42113D01*
X41631Y46093D01*
X41362Y46487D01*
Y47100D01*
X40053D01*
Y47400D01*
X39753D01*
Y48492D01*
X39456D01*
X39041Y49492D01*
X67319Y77770D01*
X67499Y77971D01*
X67655Y78192D01*
X67786Y78428D01*
X67846Y78574D01*
X67889Y78677D01*
X67964Y78937D01*
X68009Y79203D01*
X68024Y79473D01*
Y87170D01*
X69582D01*
Y89470D01*
X69882D01*
Y89770D01*
X72232D01*
Y91770D01*
X72232D01*
X72117Y92070D01*
X72336Y92764D01*
X73358Y93081D01*
X84821Y81618D01*
D02*
G37*
G36*
X84646Y64124D02*
X83296Y62774D01*
X79896D01*
X78740Y63929D01*
Y68898D01*
X84646D01*
Y64124D01*
D02*
G37*
G36*
X76772Y63587D02*
X77585Y62774D01*
X74185D01*
Y63611D01*
X72835Y64961D01*
X68898D01*
Y68898D01*
X76772D01*
Y63587D01*
D02*
G37*
G36*
X83228Y56693D02*
X80158D01*
X79896Y59274D01*
X83296D01*
X83228Y56693D01*
D02*
G37*
G36*
X77323D02*
X74252D01*
X74185Y59274D01*
X77585D01*
X77323Y56693D01*
D02*
G37*
G36*
X98971Y67468D02*
X98992Y67358D01*
X98976Y67045D01*
X98740Y66351D01*
X98699Y66326D01*
X98544Y66240D01*
X98363Y66112D01*
X98197Y65963D01*
X98049Y65798D01*
X97920Y65616D01*
X97812Y65421D01*
X97727Y65216D01*
X97666Y65002D01*
X97628Y64783D01*
X97616Y64560D01*
X97628Y64338D01*
X97666Y64119D01*
X97727Y63905D01*
X97812Y63699D01*
X97920Y63505D01*
X98049Y63323D01*
X98197Y63157D01*
X98363Y63009D01*
X98544Y62880D01*
X98739Y62773D01*
X98945Y62687D01*
X99159Y62626D01*
X99378Y62589D01*
X99600Y62576D01*
X99822Y62589D01*
X99984Y62616D01*
X101101Y61499D01*
X100880Y60359D01*
X100625Y60268D01*
X100497Y60268D01*
X98725D01*
Y58168D01*
Y56068D01*
X100497D01*
X100625Y56068D01*
X101068Y55910D01*
X101180Y55221D01*
X100661Y54574D01*
X100438Y54368D01*
X96025D01*
Y52284D01*
X94920D01*
Y54368D01*
X90120D01*
Y52284D01*
X88989D01*
Y52532D01*
X84655D01*
Y53159D01*
X84028D01*
Y56643D01*
X84032Y56672D01*
X84037Y56865D01*
X90120D01*
Y55868D01*
X94920D01*
Y60468D01*
X90120D01*
X89996Y61417D01*
Y63374D01*
X87996D01*
Y61024D01*
X87396D01*
Y63374D01*
X86273D01*
X86117Y63452D01*
X86022Y63524D01*
X85449Y64124D01*
X85449Y64351D01*
Y67859D01*
X85567Y67976D01*
X85679Y68104D01*
X85774Y68246D01*
X85849Y68399D01*
X85904Y68560D01*
X85937Y68728D01*
X85948Y68898D01*
Y70388D01*
X85952Y70390D01*
X86186Y70530D01*
X86404Y70692D01*
X86606Y70875D01*
X86788Y71076D01*
X86950Y71295D01*
X87090Y71528D01*
X87207Y71774D01*
X87298Y72030D01*
X87364Y72294D01*
X87404Y72563D01*
X87418Y72835D01*
X87404Y73106D01*
X87364Y73375D01*
X87298Y73639D01*
X87207Y73895D01*
X87090Y74141D01*
X86950Y74375D01*
X86788Y74593D01*
X86606Y74795D01*
X86404Y74977D01*
X86186Y75139D01*
X86136Y75169D01*
X86071Y75393D01*
X86055Y75731D01*
X86180Y76278D01*
X86256Y76320D01*
X86437Y76449D01*
X86603Y76597D01*
X86751Y76763D01*
X86880Y76944D01*
X86988Y77139D01*
X87073Y77345D01*
X87134Y77558D01*
X87172Y77778D01*
X87176Y77850D01*
X87533Y78095D01*
X88171Y78269D01*
X98971Y67468D01*
D02*
G37*
G36*
X83296Y35215D02*
X79896D01*
X80158Y37795D01*
X83228D01*
X83296Y35215D01*
D02*
G37*
G36*
X55800Y24426D02*
X53241D01*
X53060Y24582D01*
X52895Y24870D01*
X52891Y24885D01*
X52933Y25001D01*
X52995Y25246D01*
X53032Y25496D01*
X53044Y25748D01*
Y27413D01*
X50972D01*
Y23226D01*
X50974Y23226D01*
X51219Y23287D01*
X51457Y23372D01*
X51685Y23480D01*
X51846Y23577D01*
X52033Y23523D01*
X52346Y23317D01*
Y15748D01*
X52361Y15591D01*
X52407Y15440D01*
X52481Y15301D01*
X52581Y15180D01*
X52703Y15080D01*
X52842Y15005D01*
X52993Y14960D01*
X53150Y14944D01*
X57087D01*
X57243Y14960D01*
X57377Y15000D01*
X60600D01*
Y8400D01*
X55800Y8400D01*
Y1969D01*
X12000D01*
Y36600D01*
X21835D01*
X21847Y36378D01*
X21884Y36158D01*
X21946Y35945D01*
X22031Y35739D01*
X22069Y35670D01*
X22036Y35588D01*
X21838Y35170D01*
X21421Y34970D01*
X20969D01*
Y31516D01*
X20369D01*
Y34970D01*
X18888D01*
Y31951D01*
X18617Y31804D01*
X18388Y31772D01*
X18275Y31897D01*
X18088Y32067D01*
X17885Y32217D01*
X17669Y32347D01*
X17441Y32455D01*
X17203Y32540D01*
X16958Y32601D01*
X16957Y32601D01*
Y27913D01*
Y23226D01*
X16958Y23226D01*
X17203Y23287D01*
X17441Y23372D01*
X17669Y23480D01*
X17885Y23610D01*
X18088Y23760D01*
X18275Y23930D01*
X18445Y24117D01*
X18595Y24319D01*
X18725Y24536D01*
X18833Y24764D01*
X18918Y25001D01*
X18979Y25246D01*
X19016Y25496D01*
X19028Y25748D01*
Y28061D01*
X20639D01*
X20941Y27621D01*
X20938Y27561D01*
X20788Y27455D01*
X20614Y27299D01*
X20458Y27125D01*
X20323Y26935D01*
X20210Y26730D01*
X20121Y26515D01*
X20056Y26290D01*
X20017Y26060D01*
X20004Y25827D01*
X20017Y25594D01*
X20056Y25363D01*
X20121Y25139D01*
X20210Y24923D01*
X20323Y24719D01*
X20458Y24528D01*
X20614Y24354D01*
X20788Y24198D01*
X20978Y24063D01*
X21183Y23950D01*
X21399Y23861D01*
X21623Y23796D01*
X21853Y23757D01*
X22087Y23744D01*
X22320Y23757D01*
X22550Y23796D01*
X22774Y23861D01*
X22990Y23950D01*
X23195Y24063D01*
X23385Y24198D01*
X23559Y24354D01*
X23715Y24528D01*
X23850Y24719D01*
X23963Y24923D01*
X24053Y25139D01*
X24117Y25363D01*
X24156Y25594D01*
X24169Y25827D01*
X24156Y26060D01*
X24117Y26290D01*
X24053Y26515D01*
X23963Y26730D01*
X23850Y26935D01*
X23715Y27125D01*
X23559Y27299D01*
X23490Y27361D01*
X23592Y27744D01*
X23675Y27861D01*
X28400D01*
X28424Y27778D01*
X28467Y27675D01*
X28527Y27529D01*
X28658Y27292D01*
X28814Y27072D01*
X28994Y26871D01*
X29968Y25897D01*
X30169Y25717D01*
X30390Y25560D01*
X30626Y25430D01*
X30772Y25369D01*
X30876Y25326D01*
X31135Y25252D01*
X31402Y25206D01*
X31671Y25191D01*
X33289D01*
X33559Y25206D01*
X33825Y25252D01*
X34085Y25326D01*
X34188Y25369D01*
X34334Y25430D01*
X34571Y25560D01*
X34791Y25717D01*
X34993Y25897D01*
X35967Y26871D01*
X36147Y27072D01*
X36303Y27292D01*
X36434Y27529D01*
X36494Y27675D01*
X36533Y27770D01*
X36995Y27861D01*
X36995Y27861D01*
X36995Y27861D01*
X43254D01*
X43337Y27744D01*
X43439Y27361D01*
X43370Y27299D01*
X43214Y27125D01*
X43079Y26935D01*
X42966Y26730D01*
X42877Y26515D01*
X42812Y26290D01*
X42773Y26060D01*
X42760Y25827D01*
X42773Y25594D01*
X42812Y25363D01*
X42877Y25139D01*
X42966Y24923D01*
X43079Y24719D01*
X43214Y24528D01*
X43370Y24354D01*
X43544Y24198D01*
X43734Y24063D01*
X43939Y23950D01*
X44155Y23861D01*
X44379Y23796D01*
X44609Y23757D01*
X44842Y23744D01*
X45076Y23757D01*
X45306Y23796D01*
X45530Y23861D01*
X45746Y23950D01*
X45951Y24063D01*
X46141Y24198D01*
X46315Y24354D01*
X46471Y24528D01*
X46606Y24719D01*
X46719Y24923D01*
X46808Y25139D01*
X46873Y25363D01*
X46912Y25594D01*
X46925Y25827D01*
X46912Y26060D01*
X46873Y26290D01*
X46808Y26515D01*
X46719Y26730D01*
X46606Y26935D01*
X46471Y27125D01*
X46315Y27299D01*
X46141Y27455D01*
X45991Y27561D01*
X45988Y27621D01*
X46290Y28061D01*
X47901D01*
Y25748D01*
X47913Y25496D01*
X47950Y25246D01*
X48012Y25001D01*
X48097Y24764D01*
X48204Y24536D01*
X48334Y24319D01*
X48485Y24117D01*
X48654Y23930D01*
X48841Y23760D01*
X49044Y23610D01*
X49260Y23480D01*
X49488Y23372D01*
X49726Y23287D01*
X49971Y23226D01*
X49972Y23226D01*
Y27913D01*
Y32601D01*
X49971Y32601D01*
X49726Y32540D01*
X49488Y32455D01*
X49260Y32347D01*
X49044Y32217D01*
X48841Y32067D01*
X48654Y31897D01*
X48541Y31772D01*
X48312Y31804D01*
X48041Y31951D01*
Y34970D01*
X46560D01*
Y31516D01*
X45960D01*
Y34970D01*
X45509D01*
X45091Y35170D01*
X44893Y35588D01*
X44860Y35670D01*
X44898Y35739D01*
X44983Y35945D01*
X45045Y36158D01*
X45082Y36378D01*
X45094Y36600D01*
X55800D01*
Y24426D01*
D02*
G37*
G36*
X77585Y35215D02*
X79896D01*
Y31715D01*
X83296D01*
X84646Y30365D01*
Y27559D01*
X79747D01*
X77384Y25197D01*
X74803D01*
Y25591D01*
X72835Y27559D01*
Y30365D01*
X74185Y31715D01*
X77585D01*
Y35201D01*
X74185Y35215D01*
X74252Y37795D01*
X77323D01*
X77585Y35215D01*
D02*
G37*
G36*
X57087Y22244D02*
X58071Y21260D01*
Y17323D01*
X57087Y16339D01*
Y15748D01*
X53150D01*
Y23622D01*
X57087D01*
Y22244D01*
D02*
G37*
G36*
X4686Y6568D02*
X9200D01*
Y5887D01*
X4686D01*
Y4200D01*
X4079D01*
Y8255D01*
X4686D01*
Y6568D01*
D02*
G37*
%LPC*%
G36*
X27492Y185602D02*
X24475D01*
X24490Y185485D01*
X24557Y185182D01*
X24651Y184886D01*
X24769Y184599D01*
X24912Y184324D01*
X25079Y184063D01*
X25268Y183817D01*
X25478Y183588D01*
X25706Y183378D01*
X25952Y183189D01*
X26214Y183023D01*
X26489Y182879D01*
X26776Y182761D01*
X27072Y182667D01*
X27375Y182600D01*
X27492Y182585D01*
Y185602D01*
D02*
G37*
G36*
X31510D02*
X28492D01*
Y182585D01*
X28610Y182600D01*
X28912Y182667D01*
X29208Y182761D01*
X29495Y182879D01*
X29770Y183023D01*
X30032Y183189D01*
X30278Y183378D01*
X30507Y183588D01*
X30716Y183817D01*
X30905Y184063D01*
X31072Y184324D01*
X31215Y184599D01*
X31334Y184886D01*
X31427Y185182D01*
X31494Y185485D01*
X31510Y185602D01*
D02*
G37*
G36*
X8214Y187200D02*
X7386D01*
X6575Y187039D01*
X5810Y186722D01*
X5123Y186262D01*
X4538Y185677D01*
X4078Y184989D01*
X3761Y184225D01*
X3600Y183414D01*
Y182586D01*
X3761Y181775D01*
X4078Y181010D01*
X4538Y180323D01*
X5123Y179738D01*
X5810Y179278D01*
X6575Y178961D01*
X7386Y178800D01*
X8214D01*
X9025Y178961D01*
X9789Y179278D01*
X10477Y179738D01*
X11062Y180323D01*
X11522Y181010D01*
X11839Y181775D01*
X12000Y182586D01*
Y183414D01*
X11839Y184225D01*
X11522Y184989D01*
X11062Y185677D01*
X10477Y186262D01*
X9789Y186722D01*
X9025Y187039D01*
X8214Y187200D01*
D02*
G37*
G36*
X21745Y179855D02*
X14239D01*
Y172350D01*
X21745D01*
Y179855D01*
D02*
G37*
G36*
X37833Y162636D02*
X33033D01*
Y159719D01*
X32928Y159560D01*
X32816Y159544D01*
X31928Y160134D01*
Y162636D01*
X27128D01*
Y159596D01*
X26380Y158849D01*
X26241Y158889D01*
X26022Y158926D01*
X25800Y158938D01*
X25578Y158926D01*
X25359Y158889D01*
X25145Y158827D01*
X24939Y158742D01*
X24744Y158634D01*
X24563Y158505D01*
X24397Y158357D01*
X24249Y158191D01*
X24120Y158010D01*
X24012Y157815D01*
X23927Y157609D01*
X23866Y157396D01*
X23828Y157176D01*
X23816Y156954D01*
X23828Y156732D01*
X23866Y156513D01*
X23927Y156299D01*
X24012Y156093D01*
X24120Y155898D01*
X24249Y155717D01*
X24397Y155551D01*
X24563Y155403D01*
X24744Y155274D01*
X24939Y155166D01*
X25145Y155081D01*
X25359Y155020D01*
X25578Y154982D01*
X25800Y154970D01*
X26022Y154982D01*
X26241Y155020D01*
X26455Y155081D01*
X26661Y155166D01*
X26856Y155274D01*
X27037Y155403D01*
X27203Y155551D01*
X27351Y155717D01*
X27480Y155898D01*
X27588Y156093D01*
X27673Y156299D01*
X27735Y156513D01*
X27772Y156732D01*
X27784Y156954D01*
X27775Y157123D01*
X28688Y158036D01*
X31339D01*
X31528Y157955D01*
X31642Y157869D01*
X32196Y157223D01*
X32218Y157156D01*
X32228Y156978D01*
X32265Y156758D01*
X32327Y156545D01*
X32412Y156339D01*
X32520Y156144D01*
X32649Y155963D01*
X32797Y155797D01*
X32963Y155649D01*
X33144Y155520D01*
X33339Y155412D01*
X33545Y155327D01*
X33759Y155265D01*
X33978Y155228D01*
X34200Y155216D01*
X34422Y155228D01*
X34642Y155265D01*
X34855Y155327D01*
X35061Y155412D01*
X35256Y155520D01*
X35437Y155649D01*
X35603Y155797D01*
X35751Y155963D01*
X35880Y156144D01*
X35988Y156339D01*
X36073Y156545D01*
X36134Y156758D01*
X36172Y156978D01*
X36184Y157200D01*
X36758Y157869D01*
X36872Y157955D01*
X37062Y158036D01*
X37833D01*
Y162636D01*
D02*
G37*
G36*
X107492Y185602D02*
X104475D01*
X104490Y185485D01*
X104557Y185182D01*
X104650Y184886D01*
X104769Y184599D01*
X104912Y184324D01*
X105079Y184063D01*
X105268Y183817D01*
X105478Y183588D01*
X105706Y183378D01*
X105952Y183189D01*
X106214Y183023D01*
X106489Y182879D01*
X106776Y182761D01*
X107072Y182667D01*
X107375Y182600D01*
X107492Y182585D01*
Y185602D01*
D02*
G37*
G36*
X87492D02*
X84475D01*
X84490Y185485D01*
X84557Y185182D01*
X84650Y184886D01*
X84769Y184599D01*
X84912Y184324D01*
X85079Y184063D01*
X85268Y183817D01*
X85478Y183588D01*
X85706Y183378D01*
X85952Y183189D01*
X86214Y183023D01*
X86489Y182879D01*
X86776Y182761D01*
X87072Y182667D01*
X87375Y182600D01*
X87492Y182585D01*
Y185602D01*
D02*
G37*
G36*
X67492D02*
X64475D01*
X64490Y185485D01*
X64557Y185182D01*
X64650Y184886D01*
X64769Y184599D01*
X64912Y184324D01*
X65079Y184063D01*
X65268Y183817D01*
X65478Y183588D01*
X65706Y183378D01*
X65952Y183189D01*
X66214Y183023D01*
X66489Y182879D01*
X66776Y182761D01*
X67072Y182667D01*
X67375Y182600D01*
X67492Y182585D01*
Y185602D01*
D02*
G37*
G36*
X111510D02*
X108492D01*
Y182585D01*
X108610Y182600D01*
X108913Y182667D01*
X109208Y182761D01*
X109495Y182879D01*
X109770Y183023D01*
X110032Y183189D01*
X110278Y183378D01*
X110507Y183588D01*
X110716Y183817D01*
X110905Y184063D01*
X111072Y184324D01*
X111215Y184599D01*
X111334Y184886D01*
X111427Y185182D01*
X111494Y185485D01*
X111510Y185602D01*
D02*
G37*
G36*
X91510D02*
X88492D01*
Y182585D01*
X88610Y182600D01*
X88912Y182667D01*
X89208Y182761D01*
X89495Y182879D01*
X89770Y183023D01*
X90032Y183189D01*
X90278Y183378D01*
X90507Y183588D01*
X90716Y183817D01*
X90905Y184063D01*
X91072Y184324D01*
X91215Y184599D01*
X91334Y184886D01*
X91427Y185182D01*
X91494Y185485D01*
X91510Y185602D01*
D02*
G37*
G36*
X71510D02*
X68492D01*
Y182585D01*
X68610Y182600D01*
X68913Y182667D01*
X69208Y182761D01*
X69495Y182879D01*
X69770Y183023D01*
X70032Y183189D01*
X70278Y183378D01*
X70507Y183588D01*
X70716Y183817D01*
X70905Y184063D01*
X71072Y184324D01*
X71215Y184599D01*
X71334Y184886D01*
X71427Y185182D01*
X71494Y185485D01*
X71510Y185602D01*
D02*
G37*
G36*
X118614Y183000D02*
X117786D01*
X116975Y182839D01*
X116210Y182522D01*
X115523Y182062D01*
X114938Y181477D01*
X114478Y180789D01*
X114161Y180025D01*
X114000Y179214D01*
Y178386D01*
X114161Y177575D01*
X114478Y176811D01*
X114938Y176123D01*
X115523Y175538D01*
X116210Y175078D01*
X116975Y174761D01*
X117786Y174600D01*
X118614D01*
X119425Y174761D01*
X120189Y175078D01*
X120877Y175538D01*
X121462Y176123D01*
X121922Y176811D01*
X122239Y177575D01*
X122400Y178386D01*
Y179214D01*
X122239Y180025D01*
X121922Y180789D01*
X121462Y181477D01*
X120877Y182062D01*
X120189Y182522D01*
X119425Y182839D01*
X118614Y183000D01*
D02*
G37*
G36*
X107992Y179859D02*
X107665Y179844D01*
X107340Y179802D01*
X107020Y179731D01*
X106707Y179632D01*
X106405Y179507D01*
X106114Y179355D01*
X105838Y179179D01*
X105578Y178980D01*
X105336Y178759D01*
X105115Y178517D01*
X104915Y178257D01*
X104739Y177980D01*
X104588Y177690D01*
X104462Y177387D01*
X104364Y177075D01*
X104293Y176755D01*
X104250Y176430D01*
X104236Y176102D01*
X104250Y175775D01*
X104293Y175450D01*
X104364Y175130D01*
X104462Y174818D01*
X104588Y174515D01*
X104739Y174224D01*
X104915Y173948D01*
X105115Y173688D01*
X105336Y173446D01*
X105578Y173225D01*
X105838Y173025D01*
X106114Y172849D01*
X106405Y172698D01*
X106707Y172573D01*
X107020Y172474D01*
X107340Y172403D01*
X107665Y172360D01*
X107992Y172346D01*
X108319Y172360D01*
X108644Y172403D01*
X108964Y172474D01*
X109277Y172573D01*
X109580Y172698D01*
X109870Y172849D01*
X110147Y173025D01*
X110407Y173225D01*
X110648Y173446D01*
X110870Y173688D01*
X111069Y173948D01*
X111245Y174224D01*
X111397Y174515D01*
X111522Y174818D01*
X111620Y175130D01*
X111691Y175450D01*
X111734Y175775D01*
X111749Y176102D01*
X111734Y176430D01*
X111691Y176755D01*
X111620Y177075D01*
X111522Y177387D01*
X111397Y177690D01*
X111245Y177980D01*
X111069Y178257D01*
X110870Y178517D01*
X110648Y178759D01*
X110407Y178980D01*
X110147Y179179D01*
X109870Y179355D01*
X109580Y179507D01*
X109277Y179632D01*
X108964Y179731D01*
X108644Y179802D01*
X108319Y179844D01*
X107992Y179859D01*
D02*
G37*
G36*
X97992D02*
X97665Y179844D01*
X97340Y179802D01*
X97020Y179731D01*
X96707Y179632D01*
X96405Y179507D01*
X96114Y179355D01*
X95838Y179179D01*
X95578Y178980D01*
X95336Y178759D01*
X95115Y178517D01*
X94915Y178257D01*
X94739Y177980D01*
X94588Y177690D01*
X94462Y177387D01*
X94364Y177075D01*
X94293Y176755D01*
X94250Y176430D01*
X94236Y176102D01*
X94250Y175775D01*
X94293Y175450D01*
X94364Y175130D01*
X94462Y174818D01*
X94588Y174515D01*
X94739Y174224D01*
X94915Y173948D01*
X95115Y173688D01*
X95336Y173446D01*
X95578Y173225D01*
X95838Y173025D01*
X96114Y172849D01*
X96405Y172698D01*
X96707Y172573D01*
X97020Y172474D01*
X97340Y172403D01*
X97665Y172360D01*
X97992Y172346D01*
X98320Y172360D01*
X98644Y172403D01*
X98964Y172474D01*
X99277Y172573D01*
X99580Y172698D01*
X99870Y172849D01*
X100147Y173025D01*
X100407Y173225D01*
X100648Y173446D01*
X100870Y173688D01*
X101069Y173948D01*
X101245Y174224D01*
X101397Y174515D01*
X101522Y174818D01*
X101620Y175130D01*
X101691Y175450D01*
X101734Y175775D01*
X101749Y176102D01*
X101734Y176430D01*
X101691Y176755D01*
X101620Y177075D01*
X101522Y177387D01*
X101397Y177690D01*
X101245Y177980D01*
X101069Y178257D01*
X100870Y178517D01*
X100648Y178759D01*
X100407Y178980D01*
X100147Y179179D01*
X99870Y179355D01*
X99580Y179507D01*
X99277Y179632D01*
X98964Y179731D01*
X98644Y179802D01*
X98320Y179844D01*
X97992Y179859D01*
D02*
G37*
G36*
X87992D02*
X87665Y179844D01*
X87340Y179802D01*
X87020Y179731D01*
X86707Y179632D01*
X86405Y179507D01*
X86114Y179355D01*
X85838Y179179D01*
X85578Y178980D01*
X85336Y178759D01*
X85115Y178517D01*
X84915Y178257D01*
X84739Y177980D01*
X84588Y177690D01*
X84462Y177387D01*
X84364Y177075D01*
X84293Y176755D01*
X84250Y176430D01*
X84236Y176102D01*
X84250Y175775D01*
X84293Y175450D01*
X84364Y175130D01*
X84462Y174818D01*
X84588Y174515D01*
X84739Y174224D01*
X84915Y173948D01*
X85115Y173688D01*
X85336Y173446D01*
X85578Y173225D01*
X85838Y173025D01*
X86114Y172849D01*
X86405Y172698D01*
X86707Y172573D01*
X87020Y172474D01*
X87340Y172403D01*
X87665Y172360D01*
X87992Y172346D01*
X88319Y172360D01*
X88644Y172403D01*
X88964Y172474D01*
X89277Y172573D01*
X89580Y172698D01*
X89870Y172849D01*
X90147Y173025D01*
X90407Y173225D01*
X90648Y173446D01*
X90870Y173688D01*
X91069Y173948D01*
X91245Y174224D01*
X91396Y174515D01*
X91522Y174818D01*
X91620Y175130D01*
X91691Y175450D01*
X91734Y175775D01*
X91748Y176102D01*
X91734Y176430D01*
X91691Y176755D01*
X91620Y177075D01*
X91522Y177387D01*
X91396Y177690D01*
X91245Y177980D01*
X91069Y178257D01*
X90870Y178517D01*
X90648Y178759D01*
X90407Y178980D01*
X90147Y179179D01*
X89870Y179355D01*
X89580Y179507D01*
X89277Y179632D01*
X88964Y179731D01*
X88644Y179802D01*
X88319Y179844D01*
X87992Y179859D01*
D02*
G37*
G36*
X67992D02*
X67665Y179844D01*
X67340Y179802D01*
X67020Y179731D01*
X66707Y179632D01*
X66405Y179507D01*
X66114Y179355D01*
X65838Y179179D01*
X65578Y178980D01*
X65336Y178759D01*
X65115Y178517D01*
X64915Y178257D01*
X64739Y177980D01*
X64588Y177690D01*
X64462Y177387D01*
X64364Y177075D01*
X64293Y176755D01*
X64250Y176430D01*
X64236Y176102D01*
X64250Y175775D01*
X64293Y175450D01*
X64364Y175130D01*
X64462Y174818D01*
X64588Y174515D01*
X64739Y174224D01*
X64915Y173948D01*
X65115Y173688D01*
X65336Y173446D01*
X65578Y173225D01*
X65838Y173025D01*
X66114Y172849D01*
X66405Y172698D01*
X66707Y172573D01*
X67020Y172474D01*
X67340Y172403D01*
X67665Y172360D01*
X67992Y172346D01*
X68319Y172360D01*
X68644Y172403D01*
X68964Y172474D01*
X69277Y172573D01*
X69580Y172698D01*
X69870Y172849D01*
X70147Y173025D01*
X70407Y173225D01*
X70648Y173446D01*
X70870Y173688D01*
X71069Y173948D01*
X71245Y174224D01*
X71396Y174515D01*
X71522Y174818D01*
X71621Y175130D01*
X71691Y175450D01*
X71734Y175775D01*
X71749Y176102D01*
X71734Y176430D01*
X71691Y176755D01*
X71621Y177075D01*
X71522Y177387D01*
X71396Y177690D01*
X71245Y177980D01*
X71069Y178257D01*
X70870Y178517D01*
X70648Y178759D01*
X70407Y178980D01*
X70147Y179179D01*
X69870Y179355D01*
X69580Y179507D01*
X69277Y179632D01*
X68964Y179731D01*
X68644Y179802D01*
X68319Y179844D01*
X67992Y179859D01*
D02*
G37*
G36*
X87801Y155893D02*
Y153843D01*
X89801D01*
Y155893D01*
X87801D01*
D02*
G37*
G36*
X89801Y153243D02*
X87801D01*
Y151193D01*
X89801D01*
Y153243D01*
D02*
G37*
G36*
X79122Y162199D02*
X77072D01*
Y160199D01*
X79122D01*
Y162199D01*
D02*
G37*
G36*
X76472D02*
X74422D01*
Y160199D01*
X76472D01*
Y162199D01*
D02*
G37*
G36*
X26178Y116826D02*
X24178D01*
Y114776D01*
X26178D01*
Y116826D01*
D02*
G37*
G36*
X28484Y112384D02*
X28262Y112372D01*
X28043Y112335D01*
X27829Y112273D01*
X27623Y112188D01*
X27429Y112080D01*
X27247Y111951D01*
X27081Y111803D01*
X26933Y111637D01*
X26804Y111456D01*
X26697Y111261D01*
X26611Y111055D01*
X26550Y110842D01*
X26513Y110622D01*
X26500Y110400D01*
X26513Y110178D01*
X26550Y109959D01*
X26575Y109871D01*
X26503Y108871D01*
X26503Y108871D01*
Y101365D01*
X30465D01*
Y108871D01*
X30465D01*
X30393Y109871D01*
X30419Y109959D01*
X30456Y110178D01*
X30468Y110400D01*
X30456Y110622D01*
X30419Y110842D01*
X30357Y111055D01*
X30272Y111261D01*
X30164Y111456D01*
X30036Y111637D01*
X29887Y111803D01*
X29721Y111951D01*
X29540Y112080D01*
X29345Y112188D01*
X29140Y112273D01*
X28926Y112335D01*
X28706Y112372D01*
X28484Y112384D01*
D02*
G37*
G36*
X6406Y99423D02*
Y96406D01*
X9423D01*
X9408Y96523D01*
X9341Y96826D01*
X9247Y97122D01*
X9128Y97408D01*
X8985Y97684D01*
X8818Y97945D01*
X8630Y98191D01*
X8420Y98420D01*
X8191Y98630D01*
X7945Y98818D01*
X7684Y98985D01*
X7408Y99129D01*
X7122Y99247D01*
X6826Y99340D01*
X6523Y99408D01*
X6406Y99423D01*
D02*
G37*
G36*
X9423Y95406D02*
X6406D01*
Y92388D01*
X6523Y92403D01*
X6826Y92471D01*
X7122Y92564D01*
X7408Y92683D01*
X7684Y92826D01*
X7945Y92993D01*
X8191Y93181D01*
X8420Y93391D01*
X8630Y93620D01*
X8818Y93866D01*
X8985Y94127D01*
X9128Y94403D01*
X9247Y94689D01*
X9341Y94985D01*
X9408Y95288D01*
X9423Y95406D01*
D02*
G37*
G36*
X35265Y83558D02*
X33784D01*
Y80305D01*
X35265D01*
Y83558D01*
D02*
G37*
G36*
X33184D02*
X31703D01*
Y80305D01*
X33184D01*
Y83558D01*
D02*
G37*
G36*
X53381Y79759D02*
X51481D01*
Y77959D01*
X53381D01*
Y79759D01*
D02*
G37*
G36*
X50881D02*
X48981D01*
Y77959D01*
X50881D01*
Y79759D01*
D02*
G37*
G36*
X47626Y79959D02*
X45576D01*
Y77959D01*
X47626D01*
Y79959D01*
D02*
G37*
G36*
X44976D02*
X42926D01*
Y77959D01*
X44976D01*
Y79959D01*
D02*
G37*
G36*
X53381Y77359D02*
X51481D01*
Y75559D01*
X53381D01*
Y77359D01*
D02*
G37*
G36*
X50881D02*
X48981D01*
Y75559D01*
X50881D01*
Y77359D01*
D02*
G37*
G36*
X47626Y77359D02*
X45576D01*
Y75359D01*
X47626D01*
Y77359D01*
D02*
G37*
G36*
X44976D02*
X42926D01*
Y75359D01*
X44976D01*
Y77359D01*
D02*
G37*
G36*
X26609Y64661D02*
X24809D01*
Y62761D01*
X26609D01*
Y64661D01*
D02*
G37*
G36*
X24209D02*
X22409D01*
Y62761D01*
X24209D01*
Y64661D01*
D02*
G37*
G36*
X26809Y61405D02*
X24809D01*
Y59355D01*
X26809D01*
Y61405D01*
D02*
G37*
G36*
X24209D02*
X22209D01*
Y59355D01*
X24209D01*
Y61405D01*
D02*
G37*
G36*
X26809Y58755D02*
X24809D01*
Y56705D01*
X26809D01*
Y58755D01*
D02*
G37*
G36*
X24209D02*
X22209D01*
Y56705D01*
X24209D01*
Y58755D01*
D02*
G37*
G36*
X5605Y56403D02*
X3731D01*
Y54528D01*
X5605D01*
Y56403D01*
D02*
G37*
G36*
Y53928D02*
X3731D01*
Y52053D01*
X5605D01*
Y53928D01*
D02*
G37*
G36*
X8400Y64384D02*
X8178Y64372D01*
X7959Y64334D01*
X7745Y64273D01*
X7539Y64188D01*
X7344Y64080D01*
X7163Y63951D01*
X6997Y63803D01*
X6849Y63637D01*
X6720Y63456D01*
X6612Y63261D01*
X6527Y63055D01*
X6465Y62841D01*
X6428Y62622D01*
X6416Y62400D01*
X6428Y62178D01*
X6465Y61958D01*
X6527Y61745D01*
X6612Y61539D01*
X6720Y61344D01*
X6849Y61163D01*
X6997Y60997D01*
X7163Y60849D01*
X7297Y60754D01*
Y57637D01*
X7310Y57464D01*
X7325Y57403D01*
X7259Y57135D01*
X7007Y56692D01*
X6773Y56438D01*
X6726Y56403D01*
X6205D01*
Y54228D01*
Y52053D01*
X8080D01*
Y54318D01*
X9080Y54820D01*
X9411Y54572D01*
Y52026D01*
X14211D01*
Y56626D01*
X10971D01*
X9503Y58094D01*
Y60754D01*
X9637Y60849D01*
X9803Y60997D01*
X9951Y61163D01*
X10080Y61344D01*
X10188Y61539D01*
X10273Y61745D01*
X10334Y61958D01*
X10372Y62178D01*
X10384Y62400D01*
X10372Y62622D01*
X10334Y62841D01*
X10273Y63055D01*
X10188Y63261D01*
X10080Y63456D01*
X9951Y63637D01*
X9803Y63803D01*
X9637Y63951D01*
X9456Y64080D01*
X9261Y64188D01*
X9055Y64273D01*
X8841Y64334D01*
X8622Y64372D01*
X8400Y64384D01*
D02*
G37*
G36*
X28646Y48492D02*
X27638D01*
Y47700D01*
X28646D01*
Y48492D01*
D02*
G37*
G36*
X8280Y50698D02*
X3531D01*
Y45948D01*
X8280D01*
Y47219D01*
X9411D01*
Y45926D01*
X14211D01*
Y50526D01*
X9411D01*
Y49426D01*
X8280D01*
Y50698D01*
D02*
G37*
G36*
X20704Y45507D02*
X18903D01*
Y43607D01*
X20704D01*
Y45507D01*
D02*
G37*
G36*
X18304D02*
X16503D01*
Y43607D01*
X18304D01*
Y45507D01*
D02*
G37*
G36*
X20704Y43007D02*
X18903D01*
Y41107D01*
X20704D01*
Y43007D01*
D02*
G37*
G36*
X18304D02*
X16503D01*
Y41107D01*
X18304D01*
Y43007D01*
D02*
G37*
G36*
X92529Y98238D02*
X91442D01*
Y96953D01*
X92529D01*
Y98238D01*
D02*
G37*
G36*
X72232Y89170D02*
X70182D01*
Y87170D01*
X72232D01*
Y89170D01*
D02*
G37*
G36*
X74053Y83059D02*
X72053D01*
Y81009D01*
X74053D01*
Y83059D01*
D02*
G37*
G36*
X71453D02*
X69453D01*
Y81009D01*
X71453D01*
Y83059D01*
D02*
G37*
G36*
X74053Y80409D02*
X72053D01*
Y78359D01*
X74053D01*
Y80409D01*
D02*
G37*
G36*
X71453D02*
X69453D01*
Y78359D01*
X71453D01*
Y80409D01*
D02*
G37*
G36*
X61255Y60268D02*
X59355D01*
Y58468D01*
X61255D01*
Y60268D01*
D02*
G37*
G36*
X58755D02*
X56855D01*
Y58468D01*
X58755D01*
Y60268D01*
D02*
G37*
G36*
X61255Y57868D02*
X59355D01*
Y56068D01*
X61255D01*
Y57868D01*
D02*
G37*
G36*
X58755D02*
X56855D01*
Y56068D01*
X58755D01*
Y57868D01*
D02*
G37*
G36*
X41362Y48492D02*
X40354D01*
Y47700D01*
X41362D01*
Y48492D01*
D02*
G37*
G36*
X52394Y45507D02*
X50594D01*
Y43607D01*
X52394D01*
Y45507D01*
D02*
G37*
G36*
X49994D02*
X48194D01*
Y43607D01*
X49994D01*
Y45507D01*
D02*
G37*
G36*
X52394Y43007D02*
X50594D01*
Y41107D01*
X52394D01*
Y43007D01*
D02*
G37*
G36*
X49994D02*
X48194D01*
Y41107D01*
X49994D01*
Y43007D01*
D02*
G37*
G36*
X67311Y40589D02*
X65261D01*
Y38589D01*
X67311D01*
Y40589D01*
D02*
G37*
G36*
X64661D02*
X62611D01*
Y38589D01*
X64661D01*
Y40589D01*
D02*
G37*
G36*
X94870D02*
X92820D01*
Y38589D01*
X94870D01*
Y40589D01*
D02*
G37*
G36*
X92220D02*
X90170D01*
Y38589D01*
X92220D01*
Y40589D01*
D02*
G37*
G36*
X94870Y37989D02*
X92820D01*
Y35989D01*
X94870D01*
Y37989D01*
D02*
G37*
G36*
X64661Y37989D02*
X62611D01*
Y35989D01*
X64661D01*
Y37989D01*
D02*
G37*
G36*
X92220Y37989D02*
X90170D01*
Y36865D01*
X90170Y36792D01*
X90168Y36731D01*
X90023Y35961D01*
X89253Y35817D01*
X89193Y35815D01*
X89120Y35815D01*
X87996D01*
Y33765D01*
X89996D01*
Y34938D01*
X89996Y35012D01*
X89998Y35072D01*
X90142Y35842D01*
X90912Y35987D01*
X90973Y35989D01*
X91046Y35989D01*
X92220D01*
Y37989D01*
D02*
G37*
G36*
X70085Y35815D02*
Y33765D01*
X72085D01*
Y35815D01*
X70085D01*
D02*
G37*
G36*
X67311Y37989D02*
X65261D01*
Y35989D01*
X66435D01*
X66508Y35989D01*
X66568Y35987D01*
X67338Y35842D01*
X67483Y35072D01*
X67485Y35012D01*
X67485Y34938D01*
Y33765D01*
X69485D01*
Y35815D01*
X68361D01*
X68288Y35815D01*
X68227Y35817D01*
X67457Y35961D01*
X67313Y36731D01*
X67311Y36792D01*
X67311Y36865D01*
Y37989D01*
D02*
G37*
G36*
X87396Y35815D02*
X85396D01*
Y33765D01*
X87396D01*
Y35815D01*
D02*
G37*
G36*
X89996Y33165D02*
X87996D01*
Y31115D01*
X89996D01*
Y33165D01*
D02*
G37*
G36*
X69485D02*
X67485D01*
Y31115D01*
X69485D01*
Y33165D01*
D02*
G37*
G36*
X64583Y13986D02*
Y12111D01*
X66173D01*
Y13986D01*
X64583D01*
D02*
G37*
G36*
X66173Y11511D02*
X64583D01*
Y9636D01*
X66173D01*
Y11511D01*
D02*
G37*
G36*
X93513Y9458D02*
X91146D01*
Y7879D01*
X93513D01*
Y9458D01*
D02*
G37*
G36*
X90547D02*
X88179D01*
Y7879D01*
X90547D01*
Y9458D01*
D02*
G37*
G36*
X77175D02*
X74808D01*
Y7879D01*
X77175D01*
Y9458D01*
D02*
G37*
G36*
X74208D02*
X71841D01*
Y7879D01*
X74208D01*
Y9458D01*
D02*
G37*
G36*
X93513Y7279D02*
X91146D01*
Y5699D01*
X93513D01*
Y7279D01*
D02*
G37*
G36*
X90547D02*
X88179D01*
Y5699D01*
X90547D01*
Y7279D01*
D02*
G37*
G36*
X77175D02*
X74808D01*
Y5699D01*
X77175D01*
Y7279D01*
D02*
G37*
G36*
X74208D02*
X71841D01*
Y5699D01*
X74208D01*
Y7279D01*
D02*
G37*
G36*
X108414Y12000D02*
X107586D01*
X106775Y11839D01*
X106010Y11522D01*
X105323Y11062D01*
X104738Y10477D01*
X104278Y9789D01*
X103961Y9025D01*
X103800Y8214D01*
Y7386D01*
X103961Y6575D01*
X104278Y5810D01*
X104738Y5123D01*
X105323Y4538D01*
X106010Y4078D01*
X106775Y3761D01*
X107586Y3600D01*
X108414D01*
X109225Y3761D01*
X109989Y4078D01*
X110677Y4538D01*
X111262Y5123D01*
X111722Y5810D01*
X112039Y6575D01*
X112200Y7386D01*
Y8214D01*
X112039Y9025D01*
X111722Y9789D01*
X111262Y10477D01*
X110677Y11062D01*
X109989Y11522D01*
X109225Y11839D01*
X108414Y12000D01*
D02*
G37*
G36*
X98125Y60268D02*
X96225D01*
Y58468D01*
X98125D01*
Y60268D01*
D02*
G37*
G36*
Y57868D02*
X96225D01*
Y56068D01*
X98125D01*
Y57868D01*
D02*
G37*
G36*
X50972Y32601D02*
Y28413D01*
X53044D01*
Y30079D01*
X53032Y30331D01*
X52995Y30580D01*
X52933Y30825D01*
X52848Y31063D01*
X52740Y31291D01*
X52611Y31508D01*
X52460Y31710D01*
X52291Y31897D01*
X52104Y32067D01*
X51901Y32217D01*
X51685Y32347D01*
X51457Y32455D01*
X51219Y32540D01*
X50974Y32601D01*
X50972Y32601D01*
D02*
G37*
G36*
X15957Y32601D02*
X15955Y32601D01*
X15710Y32540D01*
X15473Y32455D01*
X15245Y32347D01*
X15028Y32217D01*
X14825Y32067D01*
X14638Y31897D01*
X14469Y31710D01*
X14319Y31508D01*
X14189Y31291D01*
X14081Y31063D01*
X13996Y30825D01*
X13935Y30580D01*
X13897Y30331D01*
X13885Y30079D01*
Y28413D01*
X15957D01*
Y32601D01*
D02*
G37*
G36*
Y27413D02*
X13885D01*
Y25748D01*
X13897Y25496D01*
X13935Y25246D01*
X13996Y25001D01*
X14081Y24764D01*
X14189Y24536D01*
X14319Y24319D01*
X14469Y24117D01*
X14638Y23930D01*
X14825Y23760D01*
X15028Y23610D01*
X15245Y23480D01*
X15473Y23372D01*
X15710Y23287D01*
X15955Y23226D01*
X15957Y23226D01*
Y27413D01*
D02*
G37*
G36*
X59655Y13986D02*
X58065D01*
Y12111D01*
X59655D01*
Y13986D01*
D02*
G37*
G36*
X57465D02*
X55874D01*
Y12111D01*
X57465D01*
Y13986D01*
D02*
G37*
G36*
X16957Y15160D02*
Y11957D01*
X19028D01*
Y12638D01*
X19016Y12890D01*
X18979Y13139D01*
X18918Y13384D01*
X18833Y13622D01*
X18725Y13850D01*
X18595Y14066D01*
X18445Y14269D01*
X18275Y14456D01*
X18088Y14626D01*
X17885Y14776D01*
X17669Y14906D01*
X17441Y15014D01*
X17203Y15099D01*
X16958Y15160D01*
X16957Y15160D01*
D02*
G37*
G36*
X50972Y15160D02*
Y11957D01*
X53044D01*
Y12638D01*
X53032Y12890D01*
X52995Y13139D01*
X52933Y13384D01*
X52848Y13622D01*
X52740Y13850D01*
X52611Y14066D01*
X52460Y14269D01*
X52291Y14456D01*
X52104Y14626D01*
X51901Y14776D01*
X51685Y14906D01*
X51457Y15014D01*
X51219Y15099D01*
X50974Y15160D01*
X50972Y15160D01*
D02*
G37*
G36*
X49972D02*
X49971Y15160D01*
X49726Y15099D01*
X49488Y15014D01*
X49260Y14906D01*
X49044Y14776D01*
X48841Y14626D01*
X48654Y14456D01*
X48485Y14269D01*
X48334Y14066D01*
X48204Y13850D01*
X48097Y13622D01*
X48012Y13384D01*
X47950Y13139D01*
X47913Y12890D01*
X47901Y12638D01*
Y11957D01*
X49972D01*
Y15160D01*
D02*
G37*
G36*
X15957Y15160D02*
X15955Y15160D01*
X15710Y15099D01*
X15473Y15014D01*
X15245Y14906D01*
X15028Y14776D01*
X14825Y14626D01*
X14638Y14456D01*
X14469Y14269D01*
X14319Y14066D01*
X14189Y13850D01*
X14081Y13622D01*
X13996Y13384D01*
X13935Y13139D01*
X13897Y12890D01*
X13885Y12638D01*
Y11957D01*
X15957D01*
Y15160D01*
D02*
G37*
G36*
X59655Y11511D02*
X58065D01*
Y9636D01*
X59655D01*
Y11511D01*
D02*
G37*
G36*
X57465D02*
X55874D01*
Y9636D01*
X57465D01*
Y11511D01*
D02*
G37*
G36*
X19028Y10957D02*
X16957D01*
Y7753D01*
X16958Y7753D01*
X17203Y7815D01*
X17441Y7900D01*
X17669Y8008D01*
X17885Y8137D01*
X18088Y8288D01*
X18275Y8457D01*
X18445Y8644D01*
X18595Y8847D01*
X18725Y9063D01*
X18833Y9291D01*
X18918Y9529D01*
X18979Y9774D01*
X19016Y10024D01*
X19028Y10276D01*
Y10957D01*
D02*
G37*
G36*
X53044D02*
X50972D01*
Y7753D01*
X50974Y7753D01*
X51219Y7815D01*
X51457Y7900D01*
X51685Y8008D01*
X51901Y8137D01*
X52104Y8288D01*
X52291Y8457D01*
X52460Y8644D01*
X52611Y8847D01*
X52740Y9063D01*
X52848Y9291D01*
X52933Y9529D01*
X52995Y9774D01*
X53032Y10024D01*
X53044Y10276D01*
Y10957D01*
D02*
G37*
G36*
X49972D02*
X47901D01*
Y10276D01*
X47913Y10024D01*
X47950Y9774D01*
X48012Y9529D01*
X48097Y9291D01*
X48204Y9063D01*
X48334Y8847D01*
X48485Y8644D01*
X48654Y8457D01*
X48841Y8288D01*
X49044Y8137D01*
X49260Y8008D01*
X49488Y7900D01*
X49726Y7815D01*
X49971Y7753D01*
X49972Y7753D01*
Y10957D01*
D02*
G37*
G36*
X15957D02*
X13885D01*
Y10276D01*
X13897Y10024D01*
X13935Y9774D01*
X13996Y9529D01*
X14081Y9291D01*
X14189Y9063D01*
X14319Y8847D01*
X14469Y8644D01*
X14638Y8457D01*
X14825Y8288D01*
X15028Y8137D01*
X15245Y8008D01*
X15473Y7900D01*
X15710Y7815D01*
X15955Y7753D01*
X15957Y7753D01*
Y10957D01*
D02*
G37*
%LPD*%
D10*
X40354Y119095D02*
X44706D01*
X46200Y112200D02*
Y117600D01*
X44706Y119095D02*
X46200Y117600D01*
X40354Y130905D02*
X45105D01*
X48000Y133800D02*
Y141600D01*
X45105Y130905D02*
X48000Y133800D01*
X85630Y138779D02*
X110221D01*
X115800Y133200D01*
X110652Y140748D02*
X115495Y135906D01*
X85630Y140748D02*
X110652D01*
X94211Y136811D02*
X94800Y137400D01*
X109200D01*
X114000Y132600D01*
X85630Y136811D02*
X94211D01*
X115495Y135906D02*
X120079D01*
Y125906D02*
Y126521D01*
X115800Y130800D02*
X120079Y126521D01*
X115800Y130800D02*
Y133200D01*
X104400Y128400D02*
X108600Y124200D01*
X94800Y128400D02*
X104400D01*
X85630Y128937D02*
X94263D01*
X94800Y128400D01*
X96000Y135600D02*
X108600D01*
X112200Y113784D02*
Y132000D01*
X108600Y135600D02*
X112200Y132000D01*
X5906Y135906D02*
X6406D01*
X10300Y139800D02*
X34815D01*
X6406Y135906D02*
X10300Y139800D01*
X35842Y134843D02*
X40354D01*
X34200Y133200D02*
X35842Y134843D01*
X13200Y133200D02*
X34200D01*
X5906Y125906D02*
X13200Y133200D01*
X5906Y145905D02*
X10211Y141600D01*
X35400D01*
X36252Y140748D01*
X40354D01*
X34815Y139800D02*
X35835Y138779D01*
X40354D01*
X25800Y129000D02*
X27832Y126969D01*
X40115Y127208D02*
X40354Y126969D01*
X114000Y111984D02*
X120079Y105905D01*
X90000Y117600D02*
X100200D01*
X103200Y114600D01*
X105000Y20984D02*
X120079Y5906D01*
X70172Y100228D02*
X72600Y97800D01*
X103200Y79800D02*
X114000Y69000D01*
X106800Y29184D02*
Y64200D01*
X72141Y100059D02*
Y103056D01*
X108600Y37384D02*
X120079Y25905D01*
X110400Y45584D02*
Y66600D01*
X85630Y134843D02*
X95243D01*
X96000Y135600D01*
X96000Y130200D02*
X105000D01*
X85630Y130905D02*
X95295D01*
X96000Y130200D01*
X114000Y121984D02*
Y132600D01*
X37992Y176102D02*
X49981Y164113D01*
Y155819D02*
Y164113D01*
Y155819D02*
X52200Y153600D01*
X48000Y154800D02*
Y157200D01*
Y154800D02*
X50197Y152603D01*
X52200Y148657D02*
Y153600D01*
X45600Y133800D02*
Y144000D01*
X44674Y132874D02*
X45600Y133800D01*
X40354Y132874D02*
X44674D01*
X50197Y148622D02*
Y152603D01*
X26046Y156954D02*
X29428Y160336D01*
X25800Y156954D02*
X26046D01*
X62663Y153263D02*
X63863D01*
X64200Y153600D01*
X62008Y152608D02*
X62663Y153263D01*
X70039Y153437D02*
X70200D01*
X68204Y151602D02*
X70039Y153437D01*
X27832Y126969D02*
X40115D01*
X35400Y160336D02*
X35433D01*
X34200Y159136D02*
X35400Y160336D01*
X34200Y157200D02*
Y159136D01*
X35880Y128937D02*
X40354D01*
X34617Y130200D02*
X35880Y128937D01*
X34200Y130200D02*
X34617D01*
X29428Y160336D02*
X29528D01*
X105000Y130200D02*
X110400Y124800D01*
X34133Y167636D02*
X35333Y166436D01*
X33600Y168236D02*
X34133Y167703D01*
X35333Y166436D02*
X35433D01*
X34133Y167636D02*
Y167703D01*
X33600Y168236D02*
Y180000D01*
X74508Y16043D02*
X89665D01*
X91634D02*
X102600Y27009D01*
Y61560D01*
X89665Y16043D02*
X91634D01*
X99600Y64560D02*
X102600Y61560D01*
X37366Y72166D02*
X40200Y75000D01*
Y81840D02*
X42119Y83759D01*
X40200Y75000D02*
Y81840D01*
X31809Y72166D02*
X37366D01*
X42119Y83759D02*
X45276D01*
X69940Y166200D02*
X81600D01*
X82677Y162499D02*
Y165123D01*
X81600Y166200D02*
X82677Y165123D01*
X68701Y164961D02*
X69940Y166200D01*
X75000Y169200D02*
X77996Y172196D01*
X77992Y176102D02*
X77996Y176098D01*
Y172196D02*
Y176098D01*
X8400Y57637D02*
X11711Y54326D01*
X8400Y57637D02*
Y62400D01*
X77853Y80709D02*
X82491D01*
X85200Y78000D02*
X85200D01*
X82491Y80709D02*
X85200Y78000D01*
X77853Y74803D02*
Y80709D01*
X66600Y48000D02*
X67077D01*
X68289Y49213D01*
X70965D01*
X89511D02*
X90723Y48000D01*
X91200D01*
X86516Y49213D02*
X89511D01*
X91142Y104134D02*
X96457D01*
X72600Y95400D02*
X105000Y63000D01*
X72600Y95400D02*
Y97800D01*
X105000Y20984D02*
Y63000D01*
X96457Y100394D02*
Y104134D01*
X96600Y108124D02*
X101400Y103324D01*
X96600Y108124D02*
Y115200D01*
X101400Y78600D02*
Y103324D01*
X90000Y93000D02*
X92449Y90551D01*
X88583Y94417D02*
X90000Y93000D01*
X30609Y59105D02*
Y64961D01*
Y59055D02*
Y59105D01*
X32009Y60505D01*
X32059D01*
X34554Y63000D01*
X39600D01*
X58371Y29621D02*
Y44229D01*
X48600Y54000D02*
X58371Y44229D01*
Y29621D02*
X60039Y27953D01*
X61024D01*
X30609Y64961D02*
Y65061D01*
X29409Y66261D02*
X30609Y65061D01*
X29015Y66261D02*
X29409D01*
X24509Y70766D02*
X29015Y66261D01*
X92449Y90551D02*
X96457D01*
X88583Y94417D02*
Y96653D01*
X77400Y112800D02*
X82200Y108000D01*
X75000Y139200D02*
X77400Y136800D01*
Y112800D02*
Y136800D01*
X62008Y141992D02*
X64800Y139200D01*
X75000D01*
X62008Y141992D02*
Y148622D01*
X30609Y70966D02*
X31809Y72166D01*
X24509Y70766D02*
Y70866D01*
X45326Y83759D02*
X53967Y92400D01*
X59043D01*
X67913Y148622D02*
X68204Y148913D01*
Y151602D01*
X28484Y105118D02*
Y110400D01*
X11711Y54326D02*
X11811D01*
X78740Y43701D02*
Y47244D01*
Y39469D02*
Y43701D01*
X82284Y47244D02*
X86516D01*
X78740D02*
X82284D01*
X75197D02*
X78740D01*
X70965D02*
X75197D01*
X78740Y50787D02*
Y55020D01*
Y47244D02*
Y50787D01*
X77756Y148622D02*
X77934Y148800D01*
X81000D01*
X76200Y153000D02*
X79800D01*
X75787Y148622D02*
Y152587D01*
X76200Y153000D01*
X73809Y148632D02*
X73819Y148622D01*
X73809Y148632D02*
Y152991D01*
X73800Y153000D02*
X73809Y152991D01*
X62008Y148622D02*
Y152608D01*
X52165Y148622D02*
X52200Y148657D01*
X47992Y176102D02*
X52153Y171942D01*
Y157200D02*
Y171942D01*
X56102Y148622D02*
X56251Y148771D01*
Y152851D01*
X56400Y153000D01*
X51281Y83759D02*
X53322Y85800D01*
X58800D02*
X60000Y87000D01*
X53322Y85800D02*
X58800D01*
X51181Y83759D02*
X51281D01*
X60000Y87000D02*
Y91200D01*
X62008Y93208D02*
Y103347D01*
X60000Y91200D02*
X62008Y93208D01*
X60039Y93397D02*
Y103347D01*
X59043Y92400D02*
X60039Y93397D01*
X52183Y95417D02*
X52200Y95400D01*
X52183Y95417D02*
Y103329D01*
X28644Y95400D02*
X43800D01*
X23484Y100560D02*
X28644Y95400D01*
X23484Y100560D02*
Y105118D01*
X82928Y40842D02*
X84791D01*
X85142Y41193D01*
Y43056D01*
X72338Y41193D02*
Y43056D01*
Y41193D02*
X72689Y40842D01*
X74552D01*
X18484Y83858D02*
Y87600D01*
X21000Y90116D01*
X19685Y110772D02*
Y117029D01*
Y110772D02*
X21000Y109457D01*
Y90116D02*
Y109457D01*
X45600Y88800D02*
X50197Y93397D01*
X29684Y88800D02*
X45600D01*
X50197Y93397D02*
Y103347D01*
X45000Y90600D02*
X48228Y93828D01*
X26484Y90600D02*
X45000D01*
X48228Y93828D02*
Y103347D01*
X52165D02*
X52183Y103329D01*
X23484Y87600D02*
X26484Y90600D01*
X13189Y148622D02*
X48228D01*
X5906Y155905D02*
X13189Y148622D01*
X44194Y43207D02*
Y43307D01*
X40354Y39367D02*
X44194Y43207D01*
X40354Y31516D02*
Y39367D01*
X24703Y43207D02*
Y43307D01*
Y43207D02*
X28543Y39367D01*
Y31516D02*
Y39367D01*
X5906Y48323D02*
X11714D01*
X11811Y48226D01*
X54134Y148622D02*
Y166934D01*
X57992Y170792D01*
Y176102D01*
X35400Y181800D02*
X53690D01*
X33600Y180000D02*
X35400Y181800D01*
X53690D02*
X57992Y186102D01*
X29528Y166436D02*
X29628D01*
X30828Y167636D01*
Y167736D01*
X32400Y169308D01*
Y180510D01*
X37992Y186102D01*
X85394Y43307D02*
X86516D01*
X85142Y43056D02*
X85394Y43307D01*
X82677Y40591D02*
X82928Y40842D01*
X82677Y39469D02*
Y40591D01*
X70965Y43307D02*
X72087D01*
X72338Y43056D01*
X74552Y40842D02*
X74803Y40591D01*
Y39469D02*
Y40591D01*
X86516Y45276D02*
X91633D01*
X92520Y44389D01*
X65848Y45276D02*
X70965D01*
X64961Y44389D02*
X65848Y45276D01*
X86516Y51181D02*
X97538D01*
X98425Y52068D01*
X59942Y51181D02*
X70965D01*
X59055Y52068D02*
X59942Y51181D01*
X74400Y96600D02*
X106800Y64200D01*
X74400Y96600D02*
Y97800D01*
X74110Y99891D02*
X108600Y65400D01*
Y37384D02*
Y65400D01*
X77933Y99067D02*
Y103169D01*
Y99067D02*
X110400Y66600D01*
Y45584D02*
X120079Y35906D01*
X106800Y29184D02*
X120079Y15905D01*
X112200Y53784D02*
Y67800D01*
X101400Y78600D02*
X112200Y67800D01*
Y53784D02*
X120079Y45906D01*
X103200Y79800D02*
Y114600D01*
X114000Y61984D02*
Y69000D01*
X105000Y80984D02*
Y115200D01*
Y80984D02*
X120079Y65905D01*
X114000Y61984D02*
X120079Y55905D01*
X77756Y103347D02*
X77933Y103169D01*
X72141Y100059D02*
X74400Y97800D01*
X74110Y99891D02*
Y103056D01*
X70172Y100228D02*
Y103056D01*
X73819Y103347D02*
X74110Y103056D01*
X89526Y117126D02*
X90000Y117600D01*
X85630Y117126D02*
X89526D01*
X91200Y116400D02*
X95400D01*
X89957Y115157D02*
X91200Y116400D01*
X95400D02*
X96600Y115200D01*
X85630Y115157D02*
X89957D01*
X108600Y97384D02*
Y124200D01*
X110400Y105584D02*
Y124800D01*
X85630Y121063D02*
X101537D01*
X106800Y89184D02*
Y115800D01*
X101537Y121063D02*
X106800Y115800D01*
X85630Y119095D02*
X101105D01*
X105000Y115200D01*
X110400Y105584D02*
X120079Y95906D01*
X106800Y89184D02*
X120079Y75906D01*
X108600Y97384D02*
X120079Y85905D01*
X112200Y113784D02*
X114000Y111984D01*
Y111984D02*
Y111984D01*
Y121984D02*
X120079Y115905D01*
X69882Y103347D02*
X70172Y103056D01*
X71850Y103347D02*
X72141Y103056D01*
X19685Y117029D02*
X19785D01*
X23484Y83858D02*
Y87600D01*
X40354Y108000D02*
Y111221D01*
X23819Y121063D02*
X40354D01*
X19785Y117029D02*
X23819Y121063D01*
X35190Y115157D02*
X40354D01*
X33433Y113400D02*
X35190Y115157D01*
X33000Y113400D02*
X33433D01*
X33484Y110400D02*
X36273Y113189D01*
X33484Y105118D02*
Y110400D01*
X36273Y113189D02*
X40354D01*
X28484Y87600D02*
X29684Y88800D01*
X28484Y83858D02*
Y87600D01*
D12*
X91454Y62374D02*
X91480Y62400D01*
X88996Y62374D02*
X91454D01*
X87696Y61074D02*
X88996Y62374D01*
X87696Y61024D02*
Y61074D01*
X69785Y61024D02*
Y61074D01*
X68485Y62374D02*
X69785Y61074D01*
X66026Y62374D02*
X68485D01*
X66000Y62400D02*
X66026Y62374D01*
D58*
X22087Y25827D02*
D03*
X44842D02*
D03*
D62*
X26478Y136811D02*
D03*
X32578D02*
D03*
X105412Y132874D02*
D03*
X99312D02*
D03*
X24509Y59055D02*
D03*
X30609D02*
D03*
X77853Y80709D02*
D03*
X71753D02*
D03*
X81596Y61024D02*
D03*
X87696D02*
D03*
X75885D02*
D03*
X69785D02*
D03*
X81596Y33465D02*
D03*
X87696D02*
D03*
X75885D02*
D03*
X69785D02*
D03*
X93601Y153543D02*
D03*
X87501D02*
D03*
X93407Y125000D02*
D03*
X99507D02*
D03*
X93407Y113189D02*
D03*
X99507D02*
D03*
X32578Y124016D02*
D03*
X26478D02*
D03*
X32578Y117126D02*
D03*
X26478D02*
D03*
D63*
X61024Y19291D02*
D03*
Y27953D02*
D03*
D64*
X40053Y47400D02*
D03*
X36746D02*
D03*
X28947D02*
D03*
X32254D02*
D03*
D65*
X84646Y72835D02*
D03*
X96457Y90551D02*
D03*
Y100394D02*
D03*
X108000Y7800D02*
D03*
X7800Y183000D02*
D03*
X118200Y178800D02*
D03*
D66*
X51181Y83759D02*
D03*
Y77659D02*
D03*
X11811Y48226D02*
D03*
Y54326D02*
D03*
X98425Y58168D02*
D03*
Y52068D02*
D03*
X64961D02*
D03*
Y58168D02*
D03*
X59055D02*
D03*
Y52068D02*
D03*
X82677Y162499D02*
D03*
Y156399D02*
D03*
X19685Y117029D02*
D03*
Y123129D02*
D03*
X35433Y160336D02*
D03*
Y166436D02*
D03*
X29528Y160336D02*
D03*
Y166436D02*
D03*
X92520Y52068D02*
D03*
Y58168D02*
D03*
D67*
X45276Y83759D02*
D03*
Y77659D02*
D03*
X64961Y38289D02*
D03*
Y44389D02*
D03*
X92520Y38289D02*
D03*
Y44389D02*
D03*
X76772Y156399D02*
D03*
Y162499D02*
D03*
X69882Y95570D02*
D03*
Y89470D02*
D03*
X57087Y95570D02*
D03*
Y89470D02*
D03*
D68*
X30609Y70866D02*
D03*
X24509D02*
D03*
Y64961D02*
D03*
X30609D02*
D03*
X71753Y74803D02*
D03*
X77853D02*
D03*
X18604Y43307D02*
D03*
X24703D02*
D03*
X50294D02*
D03*
X44194D02*
D03*
X87501Y147638D02*
D03*
X93601D02*
D03*
D69*
X57765Y11811D02*
D03*
X64283D02*
D03*
X69576Y23622D02*
D03*
X76094D02*
D03*
D70*
X74508Y16043D02*
D03*
X90847D02*
D03*
X74508Y7579D02*
D03*
X90847D02*
D03*
D71*
X5906Y48323D02*
D03*
Y54228D02*
D03*
D72*
X86024Y104134D02*
D03*
X91142D02*
D03*
Y96653D02*
D03*
X88583D02*
D03*
X86024D02*
D03*
D73*
X78740Y47244D02*
D03*
D74*
X70965Y43307D02*
D03*
Y45276D02*
D03*
Y47244D02*
D03*
Y49213D02*
D03*
Y51181D02*
D03*
X86516D02*
D03*
Y49213D02*
D03*
Y47244D02*
D03*
Y45276D02*
D03*
Y43307D02*
D03*
D75*
X74803Y55020D02*
D03*
X76772D02*
D03*
X78740D02*
D03*
X80709D02*
D03*
X82677D02*
D03*
Y39469D02*
D03*
X80709D02*
D03*
X78740D02*
D03*
X76772D02*
D03*
X74803D02*
D03*
D76*
X18484Y83858D02*
D03*
X23484D02*
D03*
X28484D02*
D03*
X33484D02*
D03*
X18484Y105118D02*
D03*
X23484D02*
D03*
X28484D02*
D03*
X33484D02*
D03*
D77*
X62992Y125984D02*
D03*
D78*
X48228Y148622D02*
D03*
X50197D02*
D03*
X52165D02*
D03*
X54134D02*
D03*
X56102D02*
D03*
X58071D02*
D03*
X60039D02*
D03*
X62008D02*
D03*
X63976D02*
D03*
X65945D02*
D03*
X67913D02*
D03*
X69882D02*
D03*
X71850D02*
D03*
X73819D02*
D03*
X75787D02*
D03*
X77756D02*
D03*
Y103347D02*
D03*
X75787D02*
D03*
X73819D02*
D03*
X71850D02*
D03*
X69882D02*
D03*
X67913D02*
D03*
X65945D02*
D03*
X63976D02*
D03*
X62008D02*
D03*
X60039D02*
D03*
X58071D02*
D03*
X56102D02*
D03*
X54134D02*
D03*
X52165D02*
D03*
X50197D02*
D03*
X48228D02*
D03*
D79*
X85630Y140748D02*
D03*
Y138779D02*
D03*
Y136811D02*
D03*
Y134843D02*
D03*
Y132874D02*
D03*
Y130905D02*
D03*
Y128937D02*
D03*
Y126969D02*
D03*
Y125000D02*
D03*
Y123031D02*
D03*
Y121063D02*
D03*
Y119095D02*
D03*
Y117126D02*
D03*
Y115157D02*
D03*
Y113189D02*
D03*
Y111221D02*
D03*
X40354D02*
D03*
Y113189D02*
D03*
Y115157D02*
D03*
Y117126D02*
D03*
Y119095D02*
D03*
Y121063D02*
D03*
Y123031D02*
D03*
Y125000D02*
D03*
Y126969D02*
D03*
Y128937D02*
D03*
Y130905D02*
D03*
Y132874D02*
D03*
Y134843D02*
D03*
Y136811D02*
D03*
Y138779D02*
D03*
Y140748D02*
D03*
D80*
X60039Y157480D02*
D03*
X68701D02*
D03*
X60039Y164961D02*
D03*
X68701D02*
D03*
D81*
X20669Y31516D02*
D03*
X46260D02*
D03*
X23819D02*
D03*
X43110D02*
D03*
D82*
X26575D02*
D03*
X28543D02*
D03*
X40354D02*
D03*
X38386D02*
D03*
X36417D02*
D03*
X30512D02*
D03*
X34449D02*
D03*
X32480D02*
D03*
D83*
X99507Y110493D02*
Y113189D01*
Y110493D02*
X100800Y109200D01*
X108036Y130200D02*
X109800D01*
X105412Y132824D02*
X108036Y130200D01*
X105412Y132824D02*
Y132874D01*
X30000Y136811D02*
X32578D01*
X40354D01*
X99312Y132874D02*
X101856D01*
X85630D02*
X99312D01*
X70866Y67298D02*
X71753Y68185D01*
X70866Y66929D02*
Y67298D01*
X86183Y96813D02*
Y105868D01*
X86024Y96653D02*
X86183Y96813D01*
Y105868D02*
X90339Y110024D01*
X63983Y143406D02*
Y148616D01*
Y143406D02*
X63989Y143400D01*
X71753Y68185D02*
Y74803D01*
X84646Y68898D02*
Y72835D01*
X82677Y66929D02*
X84646Y68898D01*
X90339Y110024D02*
Y110739D01*
X90861Y111261D01*
X91528D01*
X55887Y88270D02*
X57087Y89470D01*
X53470Y88270D02*
X55887D01*
X53400Y88200D02*
X53470Y88270D01*
X93407Y113139D02*
Y113189D01*
X91528Y111261D02*
X93407Y113139D01*
X30000Y124016D02*
X32578D01*
X93407Y125000D02*
X93457Y124950D01*
X96000D01*
X69882Y93012D02*
Y95570D01*
X57037D02*
X57087D01*
X54806Y97800D02*
X57037Y95570D01*
X54600Y97800D02*
X54806D01*
X82777Y156399D02*
X86318Y159939D01*
X82677Y156399D02*
X82777D01*
X86318Y159939D02*
X86739D01*
X87000Y160200D01*
X76772Y156399D02*
X82677D01*
X15600Y123129D02*
X19685D01*
X17803Y105799D02*
X18484Y105118D01*
X17803Y105799D02*
Y109028D01*
X17400Y109431D02*
Y109800D01*
Y109431D02*
X17803Y109028D01*
X69782Y156399D02*
X76772D01*
X68701Y157480D02*
X69782Y156399D01*
X67913Y156693D02*
X68701Y157480D01*
X67913Y153600D02*
Y156693D01*
X65945Y148622D02*
X66035Y148713D01*
Y151722D01*
X67913Y153600D01*
X63976Y148622D02*
X63983Y148616D01*
X75885Y58168D02*
Y61024D01*
X64961Y58168D02*
X75885D01*
X81596D02*
Y61024D01*
Y58168D02*
X92520D01*
X80682Y144000D02*
X83863D01*
X70800Y141000D02*
X77682D01*
X80682Y144000D01*
X83863D02*
X86401Y146538D01*
X87501Y147538D02*
Y147638D01*
X86501Y146538D02*
X87501Y147538D01*
X86401Y146538D02*
X86501D01*
X71850Y148622D02*
X71941Y148531D01*
Y143522D02*
Y148531D01*
Y143522D02*
X72063Y143400D01*
X69882Y141918D02*
Y148622D01*
Y141918D02*
X70800Y141000D01*
X67913Y103347D02*
Y108600D01*
X75787Y103347D02*
Y108600D01*
X54134Y103347D02*
Y108600D01*
X58071Y143400D02*
Y148622D01*
X93601Y147638D02*
Y153543D01*
Y143400D02*
Y147638D01*
X43110Y31516D02*
Y36600D01*
X23819Y31516D02*
Y36600D01*
X91488Y123031D02*
X93407Y124950D01*
X85630Y123031D02*
X91488D01*
X69832Y95570D02*
X69882D01*
X68632Y96770D02*
X69832Y95570D01*
X68632Y96770D02*
Y98691D01*
X67913Y99410D02*
X68632Y98691D01*
X67913Y99410D02*
Y103347D01*
X58071Y96554D02*
Y103347D01*
X57087Y95570D02*
X58071Y96554D01*
X85630Y113189D02*
X93407D01*
Y124950D02*
Y125000D01*
X85630D02*
X93407D01*
X85630Y126969D02*
X91488D01*
X93407Y125050D01*
Y125000D02*
Y125050D01*
X33562Y123031D02*
X40354D01*
X32578Y124016D02*
X33562Y123031D01*
X32578Y124016D02*
X33562Y125000D01*
X40354D01*
X32578Y117126D02*
X40354D01*
D84*
X35155Y47875D02*
Y49012D01*
X33845Y47875D02*
Y49555D01*
X64306Y80016D01*
X35155Y49012D02*
X65616Y79473D01*
Y99741D01*
X64306Y80016D02*
Y99741D01*
X34263Y28574D02*
Y31516D01*
Y34896D01*
X34120Y35040D02*
Y41320D01*
X35155Y42355D01*
Y46926D01*
X32102Y41395D02*
X33845Y43139D01*
Y46926D01*
X31800Y41395D02*
X32102D01*
X34120Y35040D02*
X34263Y34896D01*
X65759Y103161D02*
X65945Y103347D01*
X65759Y99885D02*
Y103161D01*
X65616Y99741D02*
X65759Y99885D01*
X35155Y46926D02*
X35629Y47400D01*
X30512Y31516D02*
X30697Y31330D01*
X33289Y27600D02*
X34263Y28574D01*
X31671Y27600D02*
X33289D01*
X30697Y28574D02*
Y31330D01*
Y28574D02*
X31671Y27600D01*
X64162Y99885D02*
X64306Y99741D01*
X64162Y99885D02*
Y103161D01*
X63976Y103347D02*
X64162Y103161D01*
X33371Y47400D02*
X33845Y46926D01*
X36417Y31516D02*
Y36000D01*
X32810Y35040D02*
Y39188D01*
X31800Y40197D02*
Y40617D01*
Y40197D02*
X32810Y39188D01*
X32666Y31701D02*
Y34896D01*
X32810Y35040D01*
X32480Y31516D02*
X32666Y31701D01*
X33371Y47400D02*
X33845Y47875D01*
X32254Y47400D02*
X33371D01*
X35629D02*
X36746D01*
X35155Y47875D02*
X35629Y47400D01*
D85*
X61024Y27953D02*
X62008D01*
X65764Y24197D01*
X69285D01*
X69576Y23906D01*
Y23622D02*
Y23906D01*
D86*
X60039Y148622D02*
Y157480D01*
D87*
X5906Y95906D02*
D03*
Y165905D02*
D03*
Y155905D02*
D03*
Y145905D02*
D03*
Y135906D02*
D03*
Y125906D02*
D03*
Y115905D02*
D03*
Y105905D02*
D03*
Y85905D02*
D03*
X120079Y165905D02*
D03*
Y5906D02*
D03*
Y15905D02*
D03*
Y25905D02*
D03*
Y35906D02*
D03*
Y45906D02*
D03*
Y55905D02*
D03*
Y65905D02*
D03*
Y75906D02*
D03*
Y85905D02*
D03*
Y95906D02*
D03*
Y105905D02*
D03*
Y115905D02*
D03*
Y125906D02*
D03*
Y135906D02*
D03*
Y145905D02*
D03*
Y155905D02*
D03*
X107992Y186102D02*
D03*
Y176102D02*
D03*
X97992Y186102D02*
D03*
Y176102D02*
D03*
X87992Y186102D02*
D03*
Y176102D02*
D03*
X77992Y186102D02*
D03*
Y176102D02*
D03*
X67992Y186102D02*
D03*
Y176102D02*
D03*
X57992Y186102D02*
D03*
Y176102D02*
D03*
X47992Y186102D02*
D03*
Y176102D02*
D03*
X37992Y186102D02*
D03*
Y176102D02*
D03*
X27992Y186102D02*
D03*
Y176102D02*
D03*
X17992Y186102D02*
D03*
D88*
X5906Y75906D02*
D03*
D89*
X50472Y11457D02*
D03*
X16457D02*
D03*
D90*
X50472Y27913D02*
D03*
X16457D02*
D03*
D91*
X17992Y176102D02*
D03*
D92*
X100800Y109200D02*
D03*
X109800Y130200D02*
D03*
X30000Y145200D02*
D03*
X39000D02*
D03*
X17400D02*
D03*
X30000Y136811D02*
D03*
X21600Y136800D02*
D03*
X25800Y129000D02*
D03*
X22122Y127189D02*
D03*
X101856Y132874D02*
D03*
X61748Y170012D02*
D03*
X59400Y168600D02*
D03*
X48000Y157200D02*
D03*
X45600Y144000D02*
D03*
X48000Y141600D02*
D03*
X25800Y156954D02*
D03*
X64200Y153600D02*
D03*
X70200Y153437D02*
D03*
X34200Y157200D02*
D03*
Y130200D02*
D03*
X97619Y85200D02*
D03*
Y96000D02*
D03*
X99600Y64560D02*
D03*
X75000Y169200D02*
D03*
X8400Y62400D02*
D03*
X88480Y55200D02*
D03*
X87280Y39000D02*
D03*
X70200D02*
D03*
X69000Y55200D02*
D03*
X85200Y78000D02*
D03*
X66600Y48000D02*
D03*
X91200D02*
D03*
X108000Y160200D02*
D03*
X91480Y69600D02*
D03*
Y62400D02*
D03*
X44400Y103200D02*
D03*
X32400Y99000D02*
D03*
X91200Y160200D02*
D03*
X96457Y104331D02*
D03*
X88583Y23622D02*
D03*
X98425Y45276D02*
D03*
X68400Y11811D02*
D03*
X64283Y7596D02*
D03*
X59580Y83059D02*
D03*
X65616Y72403D02*
D03*
X45276Y73200D02*
D03*
X95400Y7579D02*
D03*
X66000Y62400D02*
D03*
X19800D02*
D03*
X74400Y85800D02*
D03*
X55200Y77659D02*
D03*
X90000Y93000D02*
D03*
X70866Y66929D02*
D03*
X39600Y63000D02*
D03*
X48600Y54000D02*
D03*
X50400Y40200D02*
D03*
X82200Y108000D02*
D03*
X63989Y143400D02*
D03*
X74803Y66929D02*
D03*
X80709Y64961D02*
D03*
X82677Y66929D02*
D03*
Y29528D02*
D03*
X74803D02*
D03*
X78740D02*
D03*
X55118Y21654D02*
D03*
Y17717D02*
D03*
X90600Y111000D02*
D03*
X36417Y36000D02*
D03*
X31800Y40617D02*
D03*
X43200Y47400D02*
D03*
X6600Y31200D02*
D03*
X19800Y155400D02*
D03*
X108000Y144600D02*
D03*
X98425Y167323D02*
D03*
X76800Y160200D02*
D03*
X23400Y117000D02*
D03*
X24000Y94200D02*
D03*
X31200Y79200D02*
D03*
X18600Y40200D02*
D03*
X25800Y47400D02*
D03*
X6000Y58200D02*
D03*
X64961Y35433D02*
D03*
X92520D02*
D03*
X98425Y61024D02*
D03*
X59055D02*
D03*
X104400Y123600D02*
D03*
X54600Y97800D02*
D03*
X87000Y160200D02*
D03*
X30000Y117126D02*
D03*
X28484Y110400D02*
D03*
X46200Y112200D02*
D03*
X17400Y109800D02*
D03*
X15600Y123129D02*
D03*
X72063Y143400D02*
D03*
X67913Y108600D02*
D03*
X75787D02*
D03*
X54134D02*
D03*
X96000Y124950D02*
D03*
X30000Y124016D02*
D03*
X69882Y93012D02*
D03*
X23819Y36600D02*
D03*
X75197Y43701D02*
D03*
X78740D02*
D03*
X82284D02*
D03*
X75197Y47244D02*
D03*
X78740D02*
D03*
X82284D02*
D03*
Y50787D02*
D03*
X78740D02*
D03*
X75197D02*
D03*
X55905Y118898D02*
D03*
X60630D02*
D03*
X65354D02*
D03*
X70079D02*
D03*
X55905Y123622D02*
D03*
X60630D02*
D03*
X65354D02*
D03*
X70079D02*
D03*
X55905Y128347D02*
D03*
X60630D02*
D03*
X65354D02*
D03*
X70079D02*
D03*
Y133071D02*
D03*
X65354D02*
D03*
X60630D02*
D03*
X55905D02*
D03*
X93601Y143400D02*
D03*
X58071D02*
D03*
X81000Y148800D02*
D03*
X79800Y153000D02*
D03*
X73800D02*
D03*
X52153Y157200D02*
D03*
X56400Y153000D02*
D03*
X53400Y88200D02*
D03*
X52200Y95400D02*
D03*
X43800D02*
D03*
X43110Y36600D02*
D03*
X40354Y108000D02*
D03*
X33000Y113400D02*
D03*
M02*
